<svg width="32" height="32" viewBox="0 0 32 32" fill="none" xmlns="http://www.w3.org/2000/svg">
<g id="solar:passport-minimalistic-bold-duotone">
<g id="Group">
<g id="Vector" opacity="0.2">
<path fill-rule="evenodd" clip-rule="evenodd" d="M5.33331 6.25781V24.9245C5.33331 25.9853 5.75474 27.0028 6.50489 27.7529C7.25503 28.5031 8.27245 28.9245 9.33331 28.9245H22.6666C23.7275 28.9245 24.7449 28.5031 25.4951 27.7529C26.2452 27.0028 26.6666 25.9853 26.6666 24.9245V11.5911C26.6666 10.5303 26.2452 9.51286 25.4951 8.76272C24.7449 8.01257 23.7275 7.59115 22.6666 7.59115H6.66665C6.31302 7.59115 5.97389 7.45067 5.72384 7.20062C5.47379 6.95057 5.33331 6.61143 5.33331 6.25781Z" fill="white"/>
<path d="M15.9082 13.5723C15.0802 13.5723 14.4082 14.2443 14.4082 15.0723C14.4082 15.3375 14.3029 15.5918 14.1153 15.7794C13.9278 15.9669 13.6734 16.0723 13.4082 16.0723C13.143 16.0723 12.8887 15.9669 12.7011 15.7794C12.5136 15.5918 12.4082 15.3375 12.4082 15.0723C12.4082 14.4988 12.5491 13.9342 12.8185 13.428C13.0879 12.9218 13.4776 12.4896 13.9532 12.1693C14.4288 11.849 14.9759 11.6505 15.5462 11.5911C16.1165 11.5318 16.6927 11.6136 17.2241 11.8291C17.7554 12.0447 18.2257 12.3876 18.5935 12.8275C18.9612 13.2674 19.2153 13.791 19.3333 14.3521C19.4513 14.9133 19.4296 15.4948 19.2702 16.0456C19.1107 16.5964 18.8184 17.0996 18.4189 17.5109C18.2962 17.6376 18.1789 17.7549 18.0669 17.8669C17.7961 18.1249 17.5418 18.3996 17.3056 18.6896C17.0122 19.0656 16.9082 19.3416 16.9082 19.5723V20.5723C16.9082 20.8375 16.8029 21.0918 16.6153 21.2794C16.4278 21.4669 16.1734 21.5723 15.9082 21.5723C15.643 21.5723 15.3887 21.4669 15.2011 21.2794C15.0136 21.0918 14.9082 20.8375 14.9082 20.5723V19.5723C14.9082 18.6989 15.3149 17.9909 15.7269 17.4616C16.0322 17.0696 16.4149 16.6883 16.7269 16.3763C16.8202 16.2829 16.9082 16.1963 16.9842 16.1176C17.1897 15.9061 17.3283 15.6388 17.3827 15.349C17.4371 15.0592 17.4049 14.7598 17.2901 14.4882C17.1753 14.2166 16.983 13.9849 16.7372 13.822C16.4914 13.6591 16.2031 13.5722 15.9082 13.5723ZM15.9082 25.9056C16.2618 25.9056 16.601 25.7651 16.851 25.5151C17.1011 25.265 17.2416 24.9259 17.2416 24.5723C17.2416 24.2186 17.1011 23.8795 16.851 23.6295C16.601 23.3794 16.2618 23.2389 15.9082 23.2389C15.5546 23.2389 15.2155 23.3794 14.9654 23.6295C14.7154 23.8795 14.5749 24.2186 14.5749 24.5723C14.5749 24.9259 14.7154 25.265 14.9654 25.5151C15.2155 25.7651 15.5546 25.9056 15.9082 25.9056Z" fill="white"/>
</g>
<path id="Vector_2" opacity="0.5" d="M24 5.33285V7.81951C23.5826 7.67285 23.1333 7.59285 22.6666 7.59285H6.66665C6.31302 7.59285 5.97389 7.45237 5.72384 7.20232C5.47379 6.95227 5.33331 6.61314 5.33331 6.25951V6.16351C5.33331 5.45285 5.85598 4.85018 6.55998 4.75018L20.956 2.69285C21.3342 2.63878 21.7197 2.66663 22.0862 2.77451C22.4528 2.88239 22.7918 3.06778 23.0805 3.31812C23.3692 3.56847 23.6006 3.87792 23.7593 4.22552C23.9179 4.57312 24 4.95076 24 5.33285Z" fill="white"/>
</g>
<path id="Vector_3" d="M15.9083 13.5722C15.0803 13.5722 14.4083 14.2442 14.4083 15.0722C14.4083 15.3374 14.3029 15.5917 14.1154 15.7793C13.9278 15.9668 13.6735 16.0722 13.4083 16.0722C13.143 16.0722 12.8887 15.9668 12.7012 15.7793C12.5136 15.5917 12.4083 15.3374 12.4083 15.0722C12.4083 14.4987 12.5492 13.9341 12.8186 13.4279C13.088 12.9217 13.4776 12.4895 13.9533 12.1692C14.4289 11.8489 14.9759 11.6503 15.5462 11.591C16.1166 11.5317 16.6928 11.6135 17.2241 11.829C17.7555 12.0446 18.2257 12.3874 18.5935 12.8274C18.9613 13.2673 19.2154 13.7909 19.3334 14.352C19.4514 14.9132 19.4297 15.4947 19.2702 16.0455C19.1108 16.5963 18.8184 17.0995 18.4189 17.5108C18.2963 17.6375 18.1789 17.7548 18.0669 17.8668C17.7961 18.1248 17.5418 18.3995 17.3056 18.6895C17.0123 19.0655 16.9083 19.3415 16.9083 19.5722V20.5722C16.9083 20.8374 16.8029 21.0917 16.6154 21.2793C16.4278 21.4668 16.1735 21.5722 15.9083 21.5722C15.643 21.5722 15.3887 21.4668 15.2012 21.2793C15.0136 21.0917 14.9083 20.8374 14.9083 20.5722V19.5722C14.9083 18.6988 15.3149 17.9908 15.7269 17.4615C16.0323 17.0695 16.4149 16.6882 16.7269 16.3762C16.8203 16.2828 16.9083 16.1962 16.9843 16.1175C17.1897 15.906 17.3284 15.6387 17.3827 15.3489C17.4371 15.0591 17.4049 14.7597 17.2901 14.4881C17.1753 14.2165 16.983 13.9848 16.7372 13.8219C16.4915 13.659 16.2031 13.5721 15.9083 13.5722ZM15.9083 25.9055C16.2619 25.9055 16.601 25.765 16.8511 25.515C17.1011 25.2649 17.2416 24.9258 17.2416 24.5722C17.2416 24.2185 17.1011 23.8794 16.8511 23.6293C16.601 23.3793 16.2619 23.2388 15.9083 23.2388C15.5546 23.2388 15.2155 23.3793 14.9655 23.6293C14.7154 23.8794 14.5749 24.2185 14.5749 24.5722C14.5749 24.9258 14.7154 25.2649 14.9655 25.515C15.2155 25.765 15.5546 25.9055 15.9083 25.9055Z" fill="white"/>
</g>
</svg>
