<svg width="18" height="18" viewBox="0 0 18 18" fill="none" xmlns="http://www.w3.org/2000/svg">
<g id="icon/icon_question-circle-bold">
<path id="Vector" fill-rule="evenodd" clip-rule="evenodd" d="M15.6666 9.00065C15.6666 12.6827 12.6819 15.6673 8.99992 15.6673C5.31792 15.6673 2.33325 12.6827 2.33325 9.00065C2.33325 5.31865 5.31792 2.33398 8.99992 2.33398C12.6819 2.33398 15.6666 5.31865 15.6666 9.00065ZM8.99992 6.16732C8.58592 6.16732 8.24992 6.50332 8.24992 6.91732C8.24992 7.04993 8.19724 7.1771 8.10347 7.27087C8.0097 7.36464 7.88253 7.41732 7.74992 7.41732C7.61731 7.41732 7.49013 7.36464 7.39637 7.27087C7.3026 7.1771 7.24992 7.04993 7.24992 6.91732C7.24993 6.63061 7.32038 6.34829 7.45508 6.0952C7.58978 5.8421 7.7846 5.62598 8.02241 5.46583C8.26022 5.30568 8.53374 5.20641 8.81891 5.17676C9.10408 5.1471 9.39217 5.18797 9.65784 5.29576C9.92352 5.40355 10.1586 5.57496 10.3425 5.79493C10.5264 6.01489 10.6535 6.27667 10.7125 6.55724C10.7715 6.83782 10.7606 7.12859 10.6809 7.40399C10.6012 7.67939 10.455 7.93099 10.2553 8.13665C10.1939 8.19998 10.1353 8.25865 10.0793 8.31465C9.94383 8.44362 9.81669 8.581 9.69859 8.72598C9.55192 8.91398 9.49992 9.05198 9.49992 9.16732V9.66732C9.49992 9.79993 9.44724 9.9271 9.35347 10.0209C9.2597 10.1146 9.13253 10.1673 8.99992 10.1673C8.86731 10.1673 8.74013 10.1146 8.64637 10.0209C8.5526 9.9271 8.49992 9.79993 8.49992 9.66732V9.16732C8.49992 8.73065 8.70325 8.37665 8.90925 8.11198C9.06192 7.91598 9.25325 7.72532 9.40925 7.56932C9.45592 7.52265 9.49992 7.47932 9.53792 7.43998C9.64066 7.33425 9.70996 7.20058 9.73716 7.05568C9.76436 6.91078 9.74825 6.76108 9.69084 6.62529C9.63344 6.48949 9.53729 6.37363 9.4144 6.29218C9.29151 6.21072 9.14735 6.16729 8.99992 6.16732ZM8.99992 12.334C9.17673 12.334 9.3463 12.2637 9.47132 12.1387C9.59635 12.0137 9.66658 11.8441 9.66658 11.6673C9.66658 11.4905 9.59635 11.3209 9.47132 11.1959C9.3463 11.0709 9.17673 11.0007 8.99992 11.0007C8.82311 11.0007 8.65354 11.0709 8.52851 11.1959C8.40349 11.3209 8.33325 11.4905 8.33325 11.6673C8.33325 11.8441 8.40349 12.0137 8.52851 12.1387C8.65354 12.2637 8.82311 12.334 8.99992 12.334Z" fill="#565DA1"/>
</g>
</svg>
