<svg width="28" height="28" viewBox="0 0 28 28" fill="none" xmlns="http://www.w3.org/2000/svg">
<g id="solar:document-add-bold-duotone">
<g id="Group">
<path id="Vector" opacity="0.3" d="M3.5 11.6667C3.5 7.26721 3.5 5.06687 4.86733 3.70071C6.2335 2.33337 8.43383 2.33337 12.8333 2.33337H15.1667C19.5662 2.33337 21.7665 2.33337 23.1327 3.70071C24.5 5.06687 24.5 7.26721 24.5 11.6667V16.3334C24.5 20.7329 24.5 22.9332 23.1327 24.2994C21.7665 25.6667 19.5662 25.6667 15.1667 25.6667H12.8333C8.43383 25.6667 6.2335 25.6667 4.86733 24.2994C3.5 22.9332 3.5 20.7329 3.5 16.3334V11.6667Z" fill="#FF404E"/>
<path id="Vector_2" d="M19.2724 19.2512C19.4766 19.0926 19.6621 18.9071 20.0319 18.5372L24.6484 13.9196C24.7604 13.8087 24.7091 13.6162 24.5609 13.5637C23.8385 13.312 23.1827 12.8995 22.6429 12.3574C22.1008 11.8176 21.6883 11.1618 21.4366 10.4394C21.3841 10.2912 21.1916 10.2399 21.0807 10.3519L16.4619 14.9684C16.0921 15.3382 15.9066 15.5237 15.7479 15.7279C15.5601 15.9694 15.3979 16.2296 15.2672 16.5049C15.1564 16.7382 15.0736 16.9879 14.9079 17.4849L14.6932 18.1266L14.3526 19.1474L14.0341 20.1041C13.9944 20.224 13.9888 20.3525 14.0179 20.4754C14.047 20.5983 14.1098 20.7107 14.1991 20.8C14.2884 20.8894 14.4008 20.9521 14.5237 20.9812C14.6466 21.0104 14.7752 21.0048 14.8951 20.9651L15.8517 20.6466L16.8726 20.3059L17.5142 20.0912C18.0112 19.9256 18.2609 19.8439 18.4942 19.7319C18.7696 19.6001 19.0321 19.4402 19.2724 19.2512ZM26.0939 12.4741C26.3348 12.2413 26.527 11.9629 26.6592 11.655C26.7914 11.3472 26.861 11.0161 26.8639 10.6811C26.8668 10.3462 26.803 10.0139 26.6761 9.70386C26.5493 9.39379 26.362 9.11208 26.1251 8.87515C25.8883 8.63822 25.6066 8.45083 25.2966 8.3239C24.9866 8.19696 24.6544 8.13303 24.3194 8.13583C23.9844 8.13863 23.6533 8.2081 23.3454 8.3402C23.0376 8.47229 22.7591 8.66437 22.5262 8.90522L22.3781 9.05455C22.3074 9.12419 22.2548 9.20996 22.2247 9.30448C22.1946 9.39899 22.188 9.4994 22.2054 9.59705C22.2287 9.72188 22.2696 9.90622 22.3454 10.1244C22.4971 10.5619 22.7841 11.1359 23.3242 11.6761C23.7605 12.1158 24.2911 12.4505 24.8759 12.6549C25.0952 12.7307 25.2784 12.7716 25.4032 12.7949C25.5009 12.8122 25.6013 12.8055 25.6958 12.7754C25.7903 12.7453 25.876 12.6928 25.9457 12.6222L26.0939 12.4741Z" fill="#FF404E"/>
<path id="Vector_3" fill-rule="evenodd" clip-rule="evenodd" d="M8.4585 10.5C8.4585 10.2679 8.55068 10.0454 8.71478 9.88128C8.87887 9.71719 9.10143 9.625 9.3335 9.625H16.9168C17.1489 9.625 17.3715 9.71719 17.5355 9.88128C17.6996 10.0454 17.7918 10.2679 17.7918 10.5C17.7918 10.7321 17.6996 10.9546 17.5355 11.1187C17.3715 11.2828 17.1489 11.375 16.9168 11.375H9.3335C9.10143 11.375 8.87887 11.2828 8.71478 11.1187C8.55068 10.9546 8.4585 10.7321 8.4585 10.5ZM8.4585 15.1667C8.4585 14.9346 8.55068 14.712 8.71478 14.5479C8.87887 14.3839 9.10143 14.2917 9.3335 14.2917H12.8335C13.0656 14.2917 13.2881 14.3839 13.4522 14.5479C13.6163 14.712 13.7085 14.9346 13.7085 15.1667C13.7085 15.3987 13.6163 15.6213 13.4522 15.7854C13.2881 15.9495 13.0656 16.0417 12.8335 16.0417H9.3335C9.10143 16.0417 8.87887 15.9495 8.71478 15.7854C8.55068 15.6213 8.4585 15.3987 8.4585 15.1667ZM8.4585 19.8333C8.4585 19.6013 8.55068 19.3787 8.71478 19.2146C8.87887 19.0505 9.10143 18.9583 9.3335 18.9583H11.0835C11.3156 18.9583 11.5381 19.0505 11.7022 19.2146C11.8663 19.3787 11.9585 19.6013 11.9585 19.8333C11.9585 20.0654 11.8663 20.288 11.7022 20.4521C11.5381 20.6161 11.3156 20.7083 11.0835 20.7083H9.3335C9.10143 20.7083 8.87887 20.6161 8.71478 20.4521C8.55068 20.288 8.4585 20.0654 8.4585 19.8333Z" fill="white"/>
</g>
</g>
</svg>
