<svg width="60" height="60" viewBox="0 0 60 60" fill="none" xmlns="http://www.w3.org/2000/svg">
<path d="M54.8529 30.3104C54.9641 16.3473 39.4252 5.70707 28.5137 7.14303C28.589 7.28375 28.6826 7.40192 28.7178 7.53487C28.7938 7.82019 28.8611 8.19104 28.8755 8.57899C28.9235 9.86956 28.1976 10.2249 27.6078 10.3026C27.2508 10.3493 26.8907 10.2871 26.5578 10.1549C24.5618 9.36188 20.5626 7.58929 20.5586 6.23107C20.5538 4.57976 23.671 2.48607 25.4221 1.21027C26.2552 0.60308 27.186 0.394722 27.8543 1.22893C28.2248 1.69074 28.1248 2.50784 28.2656 3.32884C30.128 3.6406 31.1211 3.42291 33.2948 3.76188C41.9678 5.0198 47.5124 9.74595 51.9181 16.7516C53.7084 19.5986 54.9401 22.9137 54.9953 26.42C55.0153 27.7168 54.9041 29.0144 54.8529 30.3104Z" fill="#3617CE"/>
<path opacity="0.5" d="M6.28712 30.3115C6.17587 44.275 21.7151 54.9147 32.6269 53.4787C32.5516 53.338 32.458 53.2198 32.4228 53.0869C32.3467 52.8008 32.2795 52.4307 32.2651 52.0427C32.2171 50.7521 32.943 50.3968 33.5328 50.3191C33.8898 50.2724 34.2499 50.3346 34.5829 50.4668C36.5789 51.2598 40.5782 53.0325 40.5822 54.3907C40.5878 56.0421 37.4697 58.1358 35.7185 59.4116C34.8854 60.0188 33.9546 60.2272 33.2863 59.393C32.9158 58.9312 33.0158 58.114 32.875 57.293C31.0134 56.9813 30.0194 57.1989 27.8457 56.86C19.1725 55.602 13.6278 50.8757 9.22194 43.8699C7.4324 41.022 6.20068 37.7061 6.14546 34.1997C6.12545 32.9044 6.2359 31.6076 6.28712 30.3115Z" fill="#3617CE"/>
<path opacity="0.2" d="M23.6678 42C20.4778 41.982 18.7501 41.838 17.6237 40.6843C16.3345 39.3672 16.3345 37.2444 16.3345 33.0019V27.0011C16.3345 22.7586 16.3345 20.6358 17.6237 19.3187C18.9114 18 20.9867 18 25.1345 18H36.8678C41.0155 18 43.0909 18 44.3786 19.3187C45.6678 20.6358 45.6678 22.7586 45.6678 27.0011V33.0019C45.6678 37.2444 45.6678 39.3672 44.3786 40.6843C43.3079 41.7795 41.6961 41.9655 38.8038 41.997L37.6011 42" fill="#3617CE"/>
<circle cx="40.6002" cy="37.1998" r="6.4" fill="#3617CE"/>
<path d="M38.6001 37.5601L39.9491 38.8004L42.6001 36.4004" stroke="white" stroke-width="2" stroke-linecap="round" stroke-linejoin="round"/>
<path d="M31.0022 30.9346L23.0022 30.9346M36.0688 26.2679L22.7355 26.2679" stroke="#3617CE" stroke-width="1.5" stroke-linecap="round"/>
</svg>
