<svg width="30" height="30" viewBox="0 0 30 30" fill="none" xmlns="http://www.w3.org/2000/svg">
<g id="solar:passport-minimalistic-broken">
<path id="Vector 63" opacity="0.1" d="M22.5 2.49999C25.3 2.89999 24.6667 5.66665 24 6.99999L3.5 7C3.5 5 5.5 4.16666 6.5 3.99999C10.6667 3.33332 19.7 2.09999 22.5 2.49999Z" fill="white"/>
<path id="Rectangle 6255" opacity="0.1" d="M3 7H23C25.2091 7 27 8.79086 27 11V25C27 27.2091 25.2091 29 23 29H7C4.79086 29 3 27.2091 3 25V7Z" fill="white"/>
<g id="Group">
<path id="Vector" d="M3.28571 6.96368V24.3744C3.28571 25.44 3.70901 26.462 4.46251 27.2155C5.216 27.969 6.23796 28.3923 7.30356 28.3923H22.6964C23.762 28.3923 24.784 27.969 25.5375 27.2155C26.291 26.462 26.7143 25.44 26.7143 24.3744V23.678M3.28571 6.96368H22.6964C23.762 6.96368 24.784 7.38699 25.5375 8.14048C26.291 8.89398 26.7143 9.91593 26.7143 10.9815V12.3208M3.28571 6.96368C3.28571 6.33868 3.28571 4.82123 5.42856 4.28536C7.69919 3.71754 19.6299 2.14212 22.4286 2.67778C24.3625 3.04793 24.5714 4.82107 24.0357 6.96349" stroke="white" stroke-width="1.5" stroke-linecap="round"/>
</g>
<g id="Group 2671">
<path id="Vector_2" d="M9.70405 20.8782C9.98419 21.2108 10.3368 21.4747 10.7348 21.6498C11.1327 21.8249 11.5655 21.9066 12 21.8885C12.664 21.9337 13.3196 21.7198 13.8292 21.2916C14.3387 20.8634 14.6623 20.2544 14.7321 19.5925C14.6623 18.9307 14.3387 18.3216 13.8292 17.8935C13.3196 17.4653 12.664 17.2514 12 17.2966C11.336 17.3419 10.6803 17.1279 10.1708 16.6998C9.66125 16.2716 9.33759 15.6626 9.26782 15.0007C9.33198 14.3365 9.65409 13.724 10.1649 13.2947C10.6758 12.8654 11.3347 12.6536 12 12.7048C12.4267 12.6787 12.854 12.7475 13.251 12.9063C13.648 13.0651 14.0048 13.3099 14.2959 13.6231" stroke="white" stroke-opacity="0.6" stroke-width="1.5" stroke-linecap="round" stroke-linejoin="round"/>
<path id="Vector_3" d="M12 21.9342V23.2531M12 11.4316V12.5898" stroke="white" stroke-opacity="0.6" stroke-width="1.5" stroke-linecap="round" stroke-linejoin="round"/>
</g>
<path id="Vector_4" opacity="0.6" fill-rule="evenodd" clip-rule="evenodd" d="M26.5 14.004C26.438 14 25.558 14 25.488 14H22.715C20.444 14 18.5 15.736 18.5 18C18.5 20.264 20.444 22 22.715 22H25.488C25.558 22 26.438 22 26.5 21.996C27.423 21.94 27.427 21.239 27.496 20.259C27.5 20.195 27.5 20.126 27.5 20.062V15.938C27.5 15.874 27.5 15.805 27.496 15.741C27.427 14.761 27.423 14.061 26.5 14.004ZM22.471 19.067C23.055 19.067 23.529 18.589 23.529 18C23.529 17.41 23.055 16.933 22.471 16.933C21.886 16.933 21.411 17.411 21.411 18C21.411 18.59 21.886 19.067 22.471 19.067Z" fill="white" fill-opacity="0.6"/>
</g>
</svg>
