<svg width="28" height="28" viewBox="0 0 28 28" fill="none" xmlns="http://www.w3.org/2000/svg">
<g id="solar:file-check-bold-duotone">
<g id="Group">
<path id="Vector" opacity="0.3" fill-rule="evenodd" clip-rule="evenodd" d="M16.3335 25.6667H11.6668C7.26733 25.6667 5.067 25.6667 3.70083 24.2994C2.3335 22.9332 2.3335 20.7329 2.3335 16.3334V11.6667C2.3335 7.26721 2.3335 5.06687 3.70083 3.70071C5.067 2.33337 7.279 2.33337 11.7018 2.33337C12.4088 2.33337 12.9747 2.33337 13.4518 2.35321C13.4367 2.44654 13.4285 2.54104 13.4285 2.63787L13.4168 5.94421C13.4168 7.22404 13.4168 8.35571 13.5393 9.26687C13.6723 10.255 13.9768 11.2432 14.7842 12.0505C15.5892 12.8555 16.5785 13.1612 17.5667 13.2942C18.4778 13.4167 19.6095 13.4167 20.8893 13.4167H25.6167C25.6668 14.0397 25.6668 14.805 25.6668 15.8235V16.3334C25.6668 20.7329 25.6668 22.9332 24.2995 24.2994C22.9333 25.6667 20.733 25.6667 16.3335 25.6667Z" fill="#3617CE"/>
<path id="Vector_2" d="M13.4287 2.63673L13.417 5.94423C13.417 7.22407 13.417 8.35457 13.5395 9.2669C13.6725 10.2551 13.977 11.2432 14.7843 12.0494C15.5893 12.8556 16.5787 13.1612 17.5668 13.2942C18.478 13.4167 19.6097 13.4167 20.8895 13.4167H25.6168C25.632 13.5976 25.6425 13.7912 25.6495 14.0001H25.667C25.667 13.6874 25.667 13.5311 25.6553 13.3467C25.5655 12.2381 25.1795 11.174 24.5377 10.2656C24.428 10.1162 24.3533 10.0276 24.2052 9.84907C23.28 8.74307 22.062 7.36407 21.0003 6.41673C20.0553 5.57207 18.7592 4.64923 17.6287 3.8944C16.658 3.2469 16.1727 2.92257 15.5065 2.68107C15.3127 2.61212 15.1157 2.55255 14.9162 2.50257C14.4682 2.39173 14.0318 2.35323 13.417 2.33923L13.4287 2.63673Z" fill="#3617CE"/>
<path id="Vector_3" d="M12.0822 13.7919C12.2752 13.7919 12.4604 13.8695 12.5969 14.0078C12.7334 14.1461 12.8101 14.3336 12.8101 14.5291V16.1806C12.8101 16.3499 12.7526 16.514 12.6472 16.6454C12.5419 16.7768 12.3952 16.8674 12.2316 16.9022L10.7565 17.2168C10.5815 17.2542 10.3991 17.2251 10.244 17.135C10.0889 17.045 9.97193 16.9002 9.91543 16.7284C9.85892 16.5566 9.86683 16.3697 9.93764 16.2034C10.0085 16.0371 10.1372 15.903 10.2994 15.8268C9.83784 15.6892 9.34572 15.6988 8.88972 15.8541C8.43372 16.0094 8.03589 16.3029 7.75016 16.695C7.46443 17.087 7.30462 17.5586 7.29238 18.0457C7.28015 18.5329 7.41609 19.012 7.68177 19.4183C7.94745 19.8246 8.33003 20.1382 8.77764 20.3168C9.22526 20.4954 9.71626 20.5303 10.1841 20.4167C10.6519 20.3031 11.074 20.0466 11.393 19.6818C11.7121 19.3171 11.9127 18.8618 11.9677 18.3777C11.9932 18.1866 12.0917 18.0133 12.242 17.8949C12.3922 17.7764 12.5823 17.7223 12.7715 17.7442C12.9606 17.7661 13.1338 17.8621 13.2539 18.0118C13.3739 18.1615 13.4313 18.3528 13.4137 18.5448C13.3217 19.3596 12.9753 20.1233 12.4251 20.7248C11.8748 21.3263 11.1494 21.7342 10.3544 21.8891C9.55943 22.0441 8.73636 21.938 8.00503 21.5863C7.27369 21.2345 6.67228 20.6556 6.28833 19.9336C5.90438 19.2117 5.75793 18.3845 5.87031 17.5724C5.98269 16.7603 6.34803 16.0057 6.91315 15.4185C7.47826 14.8313 8.21365 14.4421 9.01227 14.3076C9.81088 14.1731 10.631 14.3003 11.3533 14.6707V14.5291C11.3533 14.3336 11.43 14.1461 11.5665 14.0078C11.703 13.8695 11.8891 13.7919 12.0822 13.7919Z" fill="white"/>
</g>
</g>
</svg>
