<svg width="30" height="30" viewBox="0 0 30 30" fill="none" xmlns="http://www.w3.org/2000/svg">
<g id="solar:chat-square-arrow-bold-duotone">
<g id="Group">
<path id="Vector" opacity="0.5" d="M16.1479 28.2443L16.7744 27.1862C17.2598 26.366 17.5036 25.9553 17.8944 25.7278C18.2841 25.5015 18.7753 25.4933 19.7588 25.4758C21.2089 25.4513 22.1189 25.3627 22.8831 25.0465C24.2987 24.4601 25.4234 23.3354 26.0098 21.9198C26.2268 21.3995 26.3364 20.8103 26.3924 20.0263C26.4216 19.6122 26.4368 19.4045 26.3259 19.2388C26.2151 19.072 26.0051 19.002 25.5839 18.8608C23.8211 18.2693 19.7343 16.7655 17.4499 14.8347C14.8751 12.6565 12.5709 8.23132 11.7461 6.53382C11.5828 6.19666 11.5011 6.02866 11.3564 5.93882C11.2129 5.85016 11.0298 5.85249 10.6658 5.85599C8.29158 5.88049 7.21708 6.01232 6.09242 6.70066C5.3151 7.17673 4.66146 7.82997 4.18492 8.60699C3.33325 9.99532 3.33325 11.8865 3.33325 15.6677V16.8227C3.33325 19.5142 3.33325 20.8593 3.77309 21.921C4.35998 23.3364 5.48509 24.4607 6.90092 25.0465C7.66392 25.3615 8.57392 25.4513 10.0253 25.4758C11.0076 25.4933 11.4999 25.5015 11.8896 25.7278C12.2804 25.9553 12.5231 26.366 13.0096 27.1862L13.6361 28.2443C14.1938 29.187 15.5891 29.187 16.1479 28.2443Z" fill="#3617CE"/>
<path id="Vector_2" fill-rule="evenodd" clip-rule="evenodd" d="M18.3506 2.28017C18.4428 2.36461 18.5163 2.46746 18.5663 2.58206C18.6162 2.69666 18.6416 2.82048 18.6407 2.9455C18.6398 3.07051 18.6127 3.19396 18.5612 3.30785C18.5096 3.42174 18.4347 3.52354 18.3413 3.60667L17.0556 4.78967C18.1745 4.80017 19.2501 4.82467 20.222 4.8865C21.0561 4.939 21.839 5.01951 22.5203 5.1455C23.1876 5.26917 23.8305 5.44884 24.3403 5.737C25.276 6.25868 26.0755 6.99376 26.6736 7.8825C27.2336 8.72367 27.4821 9.67567 27.6 10.8225C27.7166 11.946 27.7166 13.3495 27.7166 15.1287V15.1777C27.7166 15.6968 27.2651 16.1168 26.7086 16.1168C26.151 16.1168 25.6995 15.6968 25.6995 15.1777C25.6995 13.339 25.6995 12.0253 25.5933 11.0033C25.4883 9.99534 25.29 9.36767 24.9598 8.87184C24.5335 8.23876 23.9639 7.71514 23.2973 7.3435C23.0803 7.221 22.7035 7.09384 22.126 6.98767C21.4504 6.87218 20.7687 6.79622 20.0843 6.76017C19.0812 6.70309 18.0767 6.67197 17.072 6.66684L18.3413 7.83351C18.738 8.19867 18.7415 8.7925 18.3506 9.16234C18.1564 9.34038 17.9029 9.43982 17.6394 9.44133C17.3759 9.44284 17.1213 9.34631 16.925 9.17051L13.8998 6.38684C13.8063 6.3025 13.7313 6.19961 13.6797 6.08472C13.6281 5.96983 13.6009 5.84545 13.6 5.7195C13.6 5.46867 13.7073 5.22834 13.8998 5.051L16.925 2.27084C17.1213 2.09504 17.3759 1.99851 17.6394 2.00002C17.9029 2.00153 18.1564 2.10097 18.3506 2.279V2.28017Z" fill="#3617CE"/>
</g>
</g>
</svg>
