<svg width="24" height="24" viewBox="0 0 24 24" fill="none" xmlns="http://www.w3.org/2000/svg">
<g id="Frame" opacity="0.5">
<path id="Vector" d="M18.125 10.25H19C19.4812 10.25 19.875 10.6438 19.875 11.125V19.875C19.875 20.3563 19.4812 20.75 19 20.75H5C4.51875 20.75 4.125 20.3563 4.125 19.875V11.125C4.125 10.6438 4.51875 10.25 5 10.25H5.875V9.375C5.875 5.98875 8.61375 3.25 12 3.25C15.3862 3.25 18.125 5.98875 18.125 9.375V10.25ZM5.875 12V19H18.125V12H5.875ZM11.125 13.75H12.875V17.25H11.125V13.75ZM16.375 10.25V9.375C16.375 6.96 14.415 5 12 5C9.585 5 7.625 6.96 7.625 9.375V10.25H16.375Z" fill="#3617CE"/>
</g>
</svg>
