<svg width="28" height="28" viewBox="0 0 28 28" fill="none" xmlns="http://www.w3.org/2000/svg">
<g id="solar:clipboard-check-bold-duotone">
<g id="Group">
<path id="Vector" opacity="0.3" d="M24.5 18.6644V11.6644C24.5 8.36508 24.5 6.71541 23.4745 5.68991C22.5785 4.79391 21.2042 4.68075 18.6667 4.66675H9.33333C6.79583 4.68075 5.4215 4.79391 4.5255 5.68991C3.5 6.71541 3.5 8.36508 3.5 11.6644V18.6644C3.5 21.9649 3.5 23.6146 4.5255 24.6401C5.54983 25.6644 7.20067 25.6644 10.5 25.6644H17.5C20.7993 25.6644 22.4502 25.6644 23.4745 24.6401C24.5 23.6134 24.5 21.9649 24.5 18.6644Z" fill="#3617CE"/>
<path id="Vector_2" d="M9.3335 4.08337C9.3335 3.61925 9.51787 3.17413 9.84606 2.84594C10.1742 2.51775 10.6194 2.33337 11.0835 2.33337H16.9168C17.381 2.33337 17.8261 2.51775 18.1543 2.84594C18.4825 3.17413 18.6668 3.61925 18.6668 4.08337V5.25004C18.6668 5.71417 18.4825 6.15929 18.1543 6.48748C17.8261 6.81567 17.381 7.00004 16.9168 7.00004H11.0835C10.6194 7.00004 10.1742 6.81567 9.84606 6.48748C9.51787 6.15929 9.3335 5.71417 9.3335 5.25004V4.08337Z" fill="#3617CE"/>
<path id="Vector_3" fill-rule="evenodd" clip-rule="evenodd" d="M18.1391 12.236C18.2975 12.4056 18.3821 12.6311 18.3742 12.863C18.3664 13.0949 18.2667 13.3142 18.0971 13.4727L13.0968 18.1393C12.9347 18.2907 12.7212 18.3749 12.4995 18.3749C12.2777 18.3749 12.0642 18.2907 11.9021 18.1393L9.90247 16.2727C9.81723 16.1945 9.74832 16.1003 9.69972 15.9954C9.65112 15.8905 9.62379 15.777 9.61931 15.6615C9.61483 15.5459 9.63329 15.4307 9.67362 15.3223C9.71395 15.214 9.77536 15.1147 9.85429 15.0302C9.93322 14.9457 10.0281 14.8777 10.1335 14.8301C10.2388 14.7826 10.3526 14.7563 10.4682 14.7529C10.5837 14.7496 10.6988 14.7691 10.8068 14.8105C10.9147 14.8519 11.0134 14.9142 11.0971 14.994L12.4995 16.303L16.9025 12.194C17.072 12.0356 17.2976 11.951 17.5295 11.9589C17.7614 11.9668 17.9807 12.0664 18.1391 12.236Z" fill="white"/>
</g>
</g>
</svg>
