<svg width="24" height="24" viewBox="0 0 24 24" fill="none" xmlns="http://www.w3.org/2000/svg">
<g id="octicon:law-24">
<path id="Vector" d="M12.6817 3.59075V5.18166H14.4772C14.7963 5.18166 15.1081 5.27803 15.3717 5.45712L16.9145 6.50621C16.9517 6.53166 16.9963 6.5453 17.0417 6.5453H20.7708C20.9517 6.5453 21.1251 6.61713 21.2529 6.745C21.3808 6.87286 21.4527 7.04629 21.4527 7.22712C21.4527 7.40795 21.3808 7.58137 21.2529 7.70924C21.1251 7.8371 20.9517 7.90894 20.7708 7.90894H19.3363L22.3963 14.8908C22.4577 15.0303 22.4704 15.1865 22.4325 15.3342C22.3946 15.4819 22.3082 15.6125 22.1872 15.7053C22.0963 15.7726 22.0026 15.8353 21.9054 15.8926C21.6748 16.0302 21.4348 16.1514 21.1872 16.2553C20.3649 16.5992 19.4821 16.7751 18.5908 16.7726C17.6999 16.7754 16.8174 16.5998 15.9954 16.2562C15.7476 16.1523 15.5076 16.0307 15.2772 15.8926C15.1807 15.8367 15.0875 15.7754 14.9981 15.7089L14.9936 15.7053C14.8725 15.6125 14.7861 15.4819 14.7482 15.3342C14.7103 15.1865 14.7231 15.0303 14.7845 14.8908L17.8463 7.90894H17.0408C16.7217 7.90894 16.4099 7.81257 16.1463 7.63348L14.6036 6.58439C14.5661 6.55874 14.5217 6.54511 14.4763 6.5453H12.6817V19.7271H16.7608C16.9417 19.7271 17.1151 19.799 17.2429 19.9268C17.3708 20.0547 17.4426 20.2281 17.4426 20.4089C17.4426 20.5898 17.3708 20.7632 17.2429 20.8911C17.1151 21.0189 16.9417 21.0908 16.7608 21.0908H7.23901C7.05818 21.0908 6.88476 21.0189 6.75689 20.8911C6.62903 20.7632 6.55719 20.5898 6.55719 20.4089C6.55719 20.2281 6.62903 20.0547 6.75689 19.9268C6.88476 19.799 7.05818 19.7271 7.23901 19.7271H11.3181V6.5453H9.52265C9.47726 6.54528 9.43292 6.5589 9.39538 6.58439L7.85356 7.63348C7.58992 7.81257 7.2781 7.90894 6.95901 7.90894H6.15356L9.21538 14.8908C9.27464 15.0264 9.28815 15.1776 9.25387 15.3216C9.2196 15.4656 9.13939 15.5945 9.02537 15.6889C8.95265 15.748 8.87992 15.8035 8.74356 15.8917C8.51365 16.0405 8.27298 16.1721 8.02356 16.2853C7.20248 16.6583 6.31084 16.8505 5.40901 16.8489C4.50715 16.8508 3.61544 16.6586 2.79447 16.2853C2.54504 16.1721 2.30438 16.0405 2.07447 15.8917C1.97724 15.8299 1.88347 15.7628 1.79356 15.6908C1.68045 15.5953 1.60088 15.4661 1.56653 15.3222C1.53217 15.1782 1.54483 15.027 1.60265 14.8908L4.66356 7.90894H3.22992C3.04909 7.90894 2.87567 7.8371 2.7478 7.70924C2.61994 7.58137 2.5481 7.40795 2.5481 7.22712C2.5481 7.04629 2.61994 6.87286 2.7478 6.745C2.87567 6.61713 3.04909 6.5453 3.22992 6.5453H6.95901C7.00447 6.5453 7.04901 6.53166 7.08719 6.50621L8.6281 5.45712C8.89174 5.27712 9.20447 5.18166 9.52356 5.18166H11.3181V3.59075C11.3181 3.40992 11.3899 3.2365 11.5178 3.10864C11.6457 2.98077 11.8191 2.90894 11.9999 2.90894C12.1807 2.90894 12.3542 2.98077 12.482 3.10864C12.6099 3.2365 12.6817 3.40992 12.6817 3.59075ZM3.08447 14.9071C3.79996 15.288 4.59845 15.4863 5.40901 15.4844C6.21957 15.4863 7.01806 15.288 7.73356 14.9071L5.40901 9.60712L3.08447 14.9071ZM16.2754 14.8853C16.3499 14.9217 16.4336 14.9608 16.5254 14.9998C17.0072 15.2026 17.7117 15.4089 18.5908 15.4089C19.3923 15.4112 20.1838 15.2322 20.9063 14.8853L18.5908 9.60621L16.2754 14.8853Z" fill="#808699"/>
</g>
</svg>
