<svg width="28" height="28" viewBox="0 0 28 28" fill="none" xmlns="http://www.w3.org/2000/svg">
<g id="solar:clipboard-check-bold-duotone">
<g id="Group">
<path id="Vector" opacity="0.3" d="M24.5 18.6656V11.6656C24.5 8.3663 24.5 6.71664 23.4745 5.69114C22.5785 4.79514 21.2042 4.68197 18.6667 4.66797H9.33333C6.79583 4.68197 5.4215 4.79514 4.5255 5.69114C3.5 6.71664 3.5 8.3663 3.5 11.6656V18.6656C3.5 21.9661 3.5 23.6158 4.5255 24.6413C5.54983 25.6656 7.20067 25.6656 10.5 25.6656H17.5C20.7993 25.6656 22.4502 25.6656 23.4745 24.6413C24.5 23.6146 24.5 21.9661 24.5 18.6656Z" fill="#FF404E"/>
<path id="Vector_2" d="M9.33331 4.08398C9.33331 3.61986 9.51769 3.17474 9.84588 2.84655C10.1741 2.51836 10.6192 2.33398 11.0833 2.33398H16.9166C17.3808 2.33398 17.8259 2.51836 18.1541 2.84655C18.4823 3.17474 18.6666 3.61986 18.6666 4.08398V5.25065C18.6666 5.71478 18.4823 6.1599 18.1541 6.48809C17.8259 6.81628 17.3808 7.00065 16.9166 7.00065H11.0833C10.6192 7.00065 10.1741 6.81628 9.84588 6.48809C9.51769 6.1599 9.33331 5.71478 9.33331 5.25065V4.08398Z" fill="#FF404E"/>
<path id="Vector_3" fill-rule="evenodd" clip-rule="evenodd" d="M18.1393 12.2366C18.2977 12.4062 18.3823 12.6317 18.3744 12.8636C18.3665 13.0955 18.2669 13.3148 18.0973 13.4733L13.097 18.1399C12.9349 18.2913 12.7214 18.3755 12.4996 18.3755C12.2779 18.3755 12.0644 18.2913 11.9023 18.1399L9.90265 16.2733C9.81742 16.1951 9.74851 16.1009 9.6999 15.996C9.6513 15.8911 9.62397 15.7776 9.61949 15.6621C9.61501 15.5466 9.63347 15.4313 9.67381 15.3229C9.71414 15.2146 9.77554 15.1153 9.85447 15.0308C9.9334 14.9463 10.0283 14.8783 10.1337 14.8308C10.239 14.7832 10.3528 14.7569 10.4683 14.7536C10.5839 14.7502 10.699 14.7698 10.807 14.8111C10.9149 14.8525 11.0136 14.9149 11.0973 14.9946L12.4996 16.3036L16.9026 12.1946C17.0722 12.0362 17.2978 11.9516 17.5297 11.9595C17.7616 11.9674 17.9809 12.067 18.1393 12.2366Z" fill="white"/>
</g>
</g>
</svg>
