<svg width="18" height="18" viewBox="0 0 18 18" fill="none" xmlns="http://www.w3.org/2000/svg">
<g id="ic:round-attach-file">
<path id="Vector" d="M12.375 5.06244V12.9974C12.375 14.5649 11.2275 15.9599 9.6675 16.1099C9.25076 16.1516 8.82992 16.1053 8.43216 15.9742C8.0344 15.8431 7.66856 15.63 7.35828 15.3487C7.048 15.0674 6.80017 14.7241 6.6308 14.3411C6.46143 13.9581 6.37429 13.5438 6.375 13.1249V3.85494C6.375 2.87244 7.08 1.97994 8.055 1.88244C8.31648 1.85509 8.58078 1.88305 8.83075 1.96448C9.08072 2.0459 9.31078 2.17899 9.50598 2.3551C9.70118 2.5312 9.85717 2.74639 9.96381 2.98669C10.0705 3.22699 10.1254 3.48704 10.125 3.74994V11.6249C10.125 12.0374 9.7875 12.3749 9.375 12.3749C8.9625 12.3749 8.625 12.0374 8.625 11.6249V5.06244C8.625 4.75494 8.37 4.49994 8.0625 4.49994C7.755 4.49994 7.5 4.75494 7.5 5.06244V11.5199C7.5 12.5024 8.205 13.3949 9.18 13.4924C9.44148 13.5198 9.70578 13.4918 9.95575 13.4104C10.2057 13.329 10.4358 13.1959 10.631 13.0198C10.8262 12.8437 10.9822 12.6285 11.0888 12.3882C11.1955 12.1479 11.2504 11.8878 11.25 11.6249V3.87744C11.25 2.30994 10.1025 0.914937 8.5425 0.764937C8.12588 0.723889 7.70527 0.770538 7.30777 0.90188C6.91026 1.03322 6.54467 1.24635 6.23451 1.52753C5.92436 1.80872 5.67653 2.15174 5.50696 2.5345C5.3374 2.91727 5.24987 3.3313 5.25 3.74994V12.9524C5.25 15.1049 6.825 17.0324 8.97 17.2349C11.4375 17.4599 13.5 15.5399 13.5 13.1249V5.06244C13.5 4.75494 13.245 4.49994 12.9375 4.49994C12.63 4.49994 12.375 4.75494 12.375 5.06244Z" fill="#666666"/>
</g>
</svg>
