<svg width="24" height="24" viewBox="0 0 24 24" fill="none" xmlns="http://www.w3.org/2000/svg">
<g id="Frame 285" opacity="0.5">
<g id="Group 361">
<path id="Vector" d="M11.9115 16.4026C14.9444 16.4026 17.5972 17.7889 19.0399 19.8573L17.5144 20.6239C16.34 19.1453 14.2694 18.163 11.9115 18.163C9.5536 18.163 7.48308 19.1453 6.30867 20.6239L4.78394 19.8564C6.22668 17.788 8.87861 16.4026 11.9115 16.4026ZM11.9115 3.19995C13.0098 3.19995 14.0631 3.66361 14.8397 4.48894C15.6163 5.31427 16.0526 6.43365 16.0526 7.60084V10.2414C16.0525 11.3755 15.6405 12.4657 14.9025 13.2848C14.1644 14.1039 13.1574 14.5886 12.0912 14.6379L11.9115 14.6423C10.8132 14.6423 9.75995 14.1786 8.98335 13.3533C8.20675 12.5279 7.77046 11.4086 7.77046 10.2414V7.60084C7.77053 6.46676 8.18253 5.37649 8.92057 4.55738C9.6586 3.73827 10.6657 3.25357 11.7318 3.20435L11.9115 3.19995ZM11.9115 4.96031C11.2778 4.96027 10.6679 5.2176 10.2068 5.67966C9.74574 6.14172 9.46821 6.77357 9.43103 7.44593L9.42689 7.60084V10.2414C9.42626 10.9287 9.67785 11.5892 10.1282 12.0825C10.5785 12.5759 11.1921 12.8631 11.8386 12.8833C12.4851 12.9035 13.1135 12.655 13.5903 12.1906C14.0671 11.7262 14.3547 11.0825 14.392 10.3963L14.3962 10.2414V7.60084C14.3962 6.90053 14.1344 6.2289 13.6684 5.7337C13.2025 5.23851 12.5705 4.96031 11.9115 4.96031Z" fill="#3617CE"/>
</g>
</g>
</svg>
