<svg width="30" height="30" viewBox="0 0 30 30" fill="none" xmlns="http://www.w3.org/2000/svg">
<g id="solar:pen-new-round-broken">
<circle id="Ellipse 216" opacity="0.5" cx="15" cy="15" r="14" fill="#3617CE"/>
<path id="Vector" d="M17.4007 18.1601L24.7964 10.7644C23.5521 10.2449 22.422 9.48587 21.4705 8.53049C20.5147 7.57873 19.7553 6.44833 19.2356 5.20361L11.8399 12.5993C11.2629 13.1763 10.9739 13.4653 10.7259 13.7833C10.433 14.1586 10.1819 14.5646 9.97692 14.9943C9.80393 15.3582 9.67494 15.7462 9.41694 16.5202L8.05499 20.6031C7.99231 20.79 7.98301 20.9907 8.02814 21.1826C8.07327 21.3746 8.17104 21.5501 8.31046 21.6895C8.44988 21.829 8.62542 21.9267 8.81735 21.9719C9.00929 22.017 9.21001 22.0077 9.39695 21.945L13.4798 20.5831C14.2548 20.3251 14.6418 20.1961 15.0057 20.0231C15.4357 19.8181 15.8417 19.5671 16.2167 19.2741C16.5347 19.0261 16.8237 18.7371 17.4007 18.1601ZM26.8483 8.71248C27.5857 7.97507 28 6.97493 28 5.93208C28 4.88923 27.5857 3.88909 26.8483 3.15168C26.1109 2.41427 25.1108 2 24.0679 2C23.0251 2 22.0249 2.41427 21.2875 3.15168L20.4005 4.03865L20.4385 4.14964C20.8756 5.40032 21.5909 6.53546 22.5305 7.46952C23.4925 8.43719 24.6674 9.16657 25.9614 9.59945L26.8483 8.71248Z" fill="#3617CE"/>
</g>
</svg>
