<svg width="28" height="28" viewBox="0 0 28 28" fill="none" xmlns="http://www.w3.org/2000/svg">
<g id="solar:diploma-verified-bold-duotone">
<g id="Group">
<path id="Vector" fill-rule="evenodd" clip-rule="evenodd" d="M15.295 15.7509C14.9339 15.4427 14.4747 15.2734 14 15.2734C13.5253 15.2734 13.0661 15.4427 12.705 15.7509C12.3855 16.0231 11.9883 16.1876 11.5698 16.221C11.0969 16.2587 10.6529 16.4636 10.3174 16.7991C9.98191 17.1346 9.77697 17.5786 9.73934 18.0515C9.70667 18.4704 9.54101 18.8682 9.26918 19.1867C8.96133 19.5477 8.79224 20.0067 8.79224 20.4811C8.79224 20.9556 8.96133 21.4145 9.26918 21.7755C9.54211 22.0946 9.70673 22.4921 9.73934 22.9107C9.77674 23.384 9.98173 23.8285 10.3175 24.1643C10.6532 24.5 11.0977 24.705 11.571 24.7424C11.9887 24.775 12.3865 24.9395 12.7062 25.2114C13.0671 25.5189 13.5258 25.6878 14 25.6878C14.4742 25.6878 14.9329 25.5189 15.2938 25.2114C15.6133 24.9391 16.0106 24.7746 16.429 24.7412C16.9022 24.7038 17.3465 24.499 17.6822 24.1635C18.0179 23.828 18.223 23.3838 18.2607 22.9107C18.2933 22.493 18.4578 22.094 18.7297 21.7755C19.0375 21.4145 19.2066 20.9556 19.2066 20.4811C19.2066 20.0067 19.0375 19.5477 18.7297 19.1867C18.4574 18.8672 18.2929 18.47 18.2595 18.0515C18.2219 17.5786 18.0169 17.1346 17.6815 16.7991C17.346 16.4636 16.9019 16.2587 16.429 16.221C16.0106 16.1876 15.6145 16.0231 15.295 15.7509ZM16.3473 19.9544C16.4314 19.8759 16.4991 19.7817 16.5468 19.6771C16.5944 19.5724 16.6209 19.4595 16.6249 19.3446C16.6288 19.2297 16.6101 19.1151 16.5698 19.0075C16.5295 18.8998 16.4684 18.8012 16.3899 18.7171C16.3115 18.6331 16.2173 18.5653 16.1126 18.5177C16.008 18.4701 15.895 18.4435 15.7801 18.4396C15.6652 18.4356 15.5507 18.4543 15.443 18.4947C15.3354 18.535 15.2367 18.5961 15.1527 18.6745L13.251 20.4514L12.8473 20.0745C12.6776 19.9161 12.4519 19.8316 12.2199 19.8396C11.9879 19.8476 11.7685 19.9474 11.6101 20.1171C11.4517 20.2868 11.3672 20.5125 11.3751 20.7446C11.3831 20.9766 11.483 21.196 11.6527 21.3544L12.6525 22.2877C12.8146 22.4391 13.0281 22.5233 13.2498 22.5233C13.4716 22.5233 13.6851 22.4391 13.8472 22.2877L16.3473 19.9544Z" fill="#FF404E"/>
<path id="Vector_2" opacity="0.3" d="M2.33331 14.0007V9.33398C2.33331 6.03465 2.33331 4.38382 3.35881 3.35948C4.38315 2.33398 6.03398 2.33398 9.33331 2.33398H18.6666C21.966 2.33398 23.6168 2.33398 24.6411 3.35948C25.6666 4.38382 25.6666 6.03465 25.6666 9.33398V14.0007C25.6666 17.3 25.6666 18.9508 24.6411 19.9752C23.667 20.9505 22.1258 20.9983 19.138 21.0007C19.2223 20.6878 19.2293 20.3592 19.1581 20.0431C19.087 19.727 18.9399 19.433 18.7296 19.1865C18.4574 18.867 18.2929 18.4697 18.2595 18.0513C18.2219 17.5784 18.0169 17.1343 17.6814 16.7989C17.346 16.4634 16.9019 16.2584 16.429 16.2208C16.0106 16.1874 15.6133 16.0229 15.2938 15.7507C14.9328 15.4428 14.4739 15.2737 13.9994 15.2737C13.5249 15.2737 13.066 15.4428 12.705 15.7507C12.3855 16.0229 11.9882 16.1874 11.5698 16.2208C11.0969 16.2584 10.6528 16.4634 10.3174 16.7989C9.98188 17.1343 9.77694 17.5784 9.73931 18.0513C9.70665 18.4701 9.54098 18.868 9.26915 19.1865C9.05889 19.433 8.91183 19.727 8.84068 20.0431C8.76954 20.3592 8.77645 20.6878 8.86081 21.0007C5.87415 20.9983 4.33415 20.9505 3.35881 19.9752C2.33331 18.9508 2.33331 17.3 2.33331 14.0007Z" fill="#FF404E"/>
<path id="Vector_3" d="M9.62496 7C9.62496 6.76794 9.71715 6.54538 9.88124 6.38128C10.0453 6.21719 10.2679 6.125 10.5 6.125H17.5C17.732 6.125 17.9546 6.21719 18.1187 6.38128C18.2828 6.54538 18.375 6.76794 18.375 7C18.375 7.23206 18.2828 7.45462 18.1187 7.61872C17.9546 7.78281 17.732 7.875 17.5 7.875H10.5C10.2679 7.875 10.0453 7.78281 9.88124 7.61872C9.71715 7.45462 9.62496 7.23206 9.62496 7ZM8.16663 10.2083C7.93456 10.2083 7.712 10.3005 7.54791 10.4646C7.38381 10.6287 7.29163 10.8513 7.29163 11.0833C7.29163 11.3154 7.38381 11.538 7.54791 11.7021C7.712 11.8661 7.93456 11.9583 8.16663 11.9583H19.8333C20.0654 11.9583 20.2879 11.8661 20.452 11.7021C20.6161 11.538 20.7083 11.3154 20.7083 11.0833C20.7083 10.8513 20.6161 10.6287 20.452 10.4646C20.2879 10.3005 20.0654 10.2083 19.8333 10.2083H8.16663Z" fill="white"/>
</g>
</g>
</svg>
