<svg width="71" height="24" viewBox="0 0 71 24" fill="none" xmlns="http://www.w3.org/2000/svg">
<rect width="68" height="24" rx="12" fill="#EF647D"/>
<path d="M71 24H57C60.7333 23.2533 62.9111 19.0222 63.5333 17C65.0267 20.7333 69.1333 23.2222 71 24Z" fill="#EF647D"/>
<path d="M15.8111 10.1015C15.3039 11.1295 14.3791 11.9375 13.019 12.3101L12.2514 11.0622C14.0874 10.5594 14.9537 9.32044 14.9852 8.04558H12.6599V6.77072H14.9852V5.56768H16.6191V6.77072H18.9265V8.04558H16.6012C16.6371 9.20822 17.4631 10.3664 19.3035 10.8602L18.5584 12.1081C17.2431 11.7624 16.3318 11.0352 15.8111 10.1015ZM21.5121 8.32838H23.0653V9.65262H21.5121V12.3864H19.8871V5.60808H21.5121V8.32838ZM21.5121 17.0414H13.9572V12.8667H21.5121V17.0414ZM19.9095 14.1416H15.5552V15.7441H19.9095V14.1416ZM32.6352 13.2393L31.0012 13.0687C31.4412 10.8826 31.4636 9.2576 31.4726 7.90193H24.6673V6.6136H33.0976V7.70891C33.0931 9.15435 33.0931 10.7794 32.6352 13.2393ZM28.9588 10.4651V14.4378H34.1211V15.7531H23.581V14.4378H27.3517V10.4651H28.9588ZM43.9289 10.0656H45.6347V11.4347H43.9289V17.1716H42.3084V5.60808H43.9289V10.0656ZM39.0674 6.50138V8.22963C39.0584 10.299 39.9427 12.3864 41.7967 13.2842L40.8181 14.5725C39.5836 13.962 38.7442 12.8218 38.2639 11.4302C37.7611 12.9251 36.8678 14.1461 35.557 14.797L34.565 13.4817C36.5177 12.5839 37.4424 10.3753 37.4469 8.22963V6.50138H39.0674ZM50.2893 6.71685H52.9063V7.98273H46.0472V6.71685H48.6733V5.54523H50.2893V6.71685ZM55.2181 5.60808V8.57079H56.7713V9.91298H55.2181V12.952H53.5931V5.60808H55.2181ZM52.3228 10.4517C52.3228 11.6951 51.1556 12.5211 49.4813 12.5211C47.7799 12.5211 46.6083 11.6951 46.6128 10.4517C46.6083 9.2172 47.7755 8.37776 49.4813 8.37327C51.1556 8.37776 52.3228 9.2172 52.3228 10.4517ZM48.1884 10.4517C48.1884 11.0218 48.7047 11.3225 49.4813 11.318C50.2534 11.3225 50.7831 11.0218 50.7875 10.4517C50.7831 9.87258 50.2534 9.55836 49.4813 9.55387C48.7047 9.55836 48.1884 9.87258 48.1884 10.4517ZM51.4384 13.0597C53.8221 13.0597 55.3393 13.8229 55.3438 15.1202C55.3393 16.395 53.8221 17.1716 51.4384 17.1671C49.0144 17.1716 47.5196 16.395 47.5286 15.1202C47.5196 13.8229 49.0144 13.0597 51.4384 13.0597ZM51.4384 15.9596C52.9198 15.9596 53.7143 15.6633 53.7143 15.1202C53.7143 14.5501 52.9198 14.2897 51.4384 14.2897C49.9302 14.2897 49.1266 14.5501 49.1311 15.1202C49.1266 15.6633 49.9302 15.9596 51.4384 15.9596Z" fill="white"/>
</svg>
