<svg width="32" height="32" viewBox="0 0 32 32" fill="none" xmlns="http://www.w3.org/2000/svg">
<path fill-rule="evenodd" clip-rule="evenodd" d="M1.33337 26.9867C1.33337 26.4267 1.79204 25.9734 2.35604 25.9734H29.644C30.208 25.9734 30.6667 26.4267 30.6667 26.9867C30.6667 27.5467 30.208 28.0001 29.644 28.0001H2.35604C2.0861 28.0011 1.82678 27.895 1.63503 27.705C1.44328 27.515 1.33479 27.2567 1.33337 26.9867Z" fill="white"/>
<path opacity="0.2" d="M4.91998 5.18667C3.72131 6.37333 3.72131 8.28533 3.72131 12.1067V18.8627C3.72131 21.4093 3.72131 22.684 4.52131 23.476C5.31998 24.2667 6.60665 24.2667 9.17865 24.2667H22.8226C25.396 24.2667 26.6813 24.2667 27.48 23.4747C28.28 22.684 28.28 21.4093 28.28 18.8613V12.1067C28.28 8.28533 28.28 6.37333 27.08 5.18667C25.8826 4 23.9533 4 20.0933 4H11.9066C8.04798 4 6.11998 4 4.91998 5.18667Z" fill="white"/>
<path fill-rule="evenodd" clip-rule="evenodd" d="M15.6667 11.3318C14.8711 11.3318 14.108 11.6479 13.5454 12.2105C12.9828 12.7731 12.6667 13.5362 12.6667 14.3318C12.6667 15.1275 12.9828 15.8905 13.5454 16.4532C14.108 17.0158 14.8711 17.3318 15.6667 17.3318C16.4624 17.3318 17.2255 17.0158 17.7881 16.4532C18.3507 15.8905 18.6667 15.1275 18.6667 14.3318C18.6667 13.5362 18.3507 12.7731 17.7881 12.2105C17.2255 11.6479 16.4624 11.3318 15.6667 11.3318ZM10.6667 14.3318C10.667 13.5523 10.8495 12.7835 11.1997 12.0871C11.55 11.3906 12.0582 10.7857 12.6839 10.3206C13.3095 9.85552 14.0352 9.54318 14.8031 9.40853C15.571 9.27387 16.3597 9.32063 17.1062 9.54507C17.8528 9.76951 18.5365 10.1654 19.1029 10.7011C19.6692 11.2369 20.1024 11.8976 20.3679 12.6306C20.6334 13.3636 20.7238 14.1485 20.6319 14.9226C20.54 15.6968 20.2684 16.4387 19.8387 17.0892L21.0401 18.2918C21.1383 18.3834 21.2171 18.4938 21.2718 18.6165C21.3264 18.7391 21.3558 18.8715 21.3582 19.0058C21.3606 19.1401 21.3359 19.2734 21.2856 19.398C21.2353 19.5225 21.1604 19.6356 21.0655 19.7306C20.9705 19.8255 20.8574 19.9004 20.7329 19.9507C20.6084 20.001 20.475 20.0257 20.3407 20.0233C20.2064 20.0209 20.074 19.9915 19.9514 19.9369C19.8287 19.8822 19.7183 19.8034 19.6267 19.7052L18.4241 18.5038C17.6704 19.0021 16.7959 19.2868 15.8934 19.3277C14.9909 19.3687 14.0941 19.1643 13.2985 18.7364C12.5028 18.3085 11.8379 17.673 11.3746 16.8974C10.9112 16.1219 10.6666 15.2353 10.6667 14.3318Z" fill="white"/>
</svg>
