<svg width="70" height="70" viewBox="0 0 70 70" fill="none" xmlns="http://www.w3.org/2000/svg">
<g clip-path="url(#clip0_894_7915)">
<path fill-rule="evenodd" clip-rule="evenodd" d="M5.99609 55.25C5.99609 54.0066 6.84046 53 7.87873 53H58.1135C59.1517 53 59.9961 54.0066 59.9961 55.25C59.9961 56.4934 59.1517 57.5 58.1135 57.5H7.87873C7.3818 57.5023 6.90441 57.2667 6.55142 56.8448C6.19842 56.423 5.99869 55.8494 5.99609 55.25Z" fill="#3617CE"/>
<path opacity="0.2" d="M12.2241 14.725C9.97656 16.95 9.97656 20.535 9.97656 27.7V40.3675C9.97656 45.1425 9.97656 47.5325 11.4766 49.0175C12.9741 50.5 15.3866 50.5 20.2091 50.5H45.7916C50.6166 50.5 53.0266 50.5 54.5241 49.015C56.0241 47.5325 56.0241 45.1425 56.0241 40.365V27.7C56.0241 20.535 56.0241 16.95 53.7741 14.725C51.5291 12.5 47.9116 12.5 40.6741 12.5H25.3241C18.0891 12.5 14.4741 12.5 12.2241 14.725Z" fill="#3617CE"/>
<path d="M25.3238 51.5C24.8176 51.498 24.3314 51.697 23.9719 52.0533C23.6123 52.4095 23.4089 52.8939 23.4062 53.4C23.4063 54.45 24.2662 55.3 25.3262 55.3H40.6763C41.7338 55.3 42.5938 54.45 42.5938 53.4C42.5938 52.35 41.7338 51.5 40.6737 51.5H25.3238Z" fill="white"/>
<path d="M33.0031 29.0004C35.6541 29.0004 37.8031 26.8514 37.8031 24.2004C37.8031 21.5494 35.6541 19.4004 33.0031 19.4004C30.3522 19.4004 28.2031 21.5494 28.2031 24.2004C28.2031 26.8514 30.3522 29.0004 33.0031 29.0004Z" fill="#3617CE"/>
<path d="M42.6023 37.9996C42.6023 40.9816 42.6023 43.3996 33.0023 43.3996C23.4023 43.3996 23.4023 40.9816 23.4023 37.9996C23.4023 35.0176 27.7007 32.5996 33.0023 32.5996C38.3039 32.5996 42.6023 35.0176 42.6023 37.9996Z" fill="#3617CE"/>
<path opacity="0.5" d="M59 31C65.075 31 70 26.075 70 20C70 13.925 65.075 9 59 9C52.925 9 48 13.925 48 20C48 21.76 48.413 23.423 49.148 24.898C49.343 25.29 49.408 25.738 49.295 26.161L48.64 28.609C48.5752 28.8513 48.5753 29.1064 48.6403 29.3486C48.7052 29.5909 48.8327 29.8118 49.01 29.9892C49.1873 30.1666 49.4082 30.2942 49.6504 30.3593C49.8926 30.4244 50.1477 30.4246 50.39 30.36L52.84 29.705C53.2645 29.5987 53.7133 29.651 54.102 29.852C55.6235 30.6094 57.3004 31.0025 59 31Z" fill="#3617CE"/>
<path d="M57.9 20.0004C57.9 20.2921 58.0159 20.5719 58.2222 20.7782C58.4285 20.9845 58.7083 21.1004 59 21.1004C59.2917 21.1004 59.5715 20.9845 59.7778 20.7782C59.9841 20.5719 60.1 20.2921 60.1 20.0004C60.1 19.7087 59.9841 19.4289 59.7778 19.2226C59.5715 19.0163 59.2917 18.9004 59 18.9004C58.7083 18.9004 58.4285 19.0163 58.2222 19.2226C58.0159 19.4289 57.9 19.7087 57.9 20.0004ZM53.5 20.0004C53.5 20.1448 53.5285 20.2879 53.5837 20.4213C53.639 20.5548 53.72 20.6761 53.8222 20.7782C53.9243 20.8804 54.0456 20.9614 54.179 21.0167C54.3125 21.0719 54.4555 21.1004 54.6 21.1004C54.7445 21.1004 54.8875 21.0719 55.021 21.0167C55.1544 20.9614 55.2757 20.8804 55.3778 20.7782C55.48 20.6761 55.561 20.5548 55.6163 20.4213C55.6715 20.2879 55.7 20.1448 55.7 20.0004C55.7 19.7087 55.5841 19.4289 55.3778 19.2226C55.1715 19.0163 54.8917 18.9004 54.6 18.9004C54.3083 18.9004 54.0285 19.0163 53.8222 19.2226C53.6159 19.4289 53.5 19.7087 53.5 20.0004ZM62.3 20.0004C62.3 20.1448 62.3285 20.2879 62.3837 20.4213C62.439 20.5548 62.52 20.6761 62.6222 20.7782C62.7243 20.8804 62.8456 20.9614 62.979 21.0167C63.1125 21.0719 63.2555 21.1004 63.4 21.1004C63.5445 21.1004 63.6875 21.0719 63.821 21.0167C63.9544 20.9614 64.0757 20.8804 64.1778 20.7782C64.28 20.6761 64.361 20.5548 64.4163 20.4213C64.4715 20.2879 64.5 20.1448 64.5 20.0004C64.5 19.7087 64.3841 19.4289 64.1778 19.2226C63.9715 19.0163 63.6917 18.9004 63.4 18.9004C63.1083 18.9004 62.8285 19.0163 62.6222 19.2226C62.4159 19.4289 62.3 19.7087 62.3 20.0004Z" fill="white"/>
</g>
<defs>
<clipPath id="clip0_894_7915">
<rect width="70" height="70" fill="white"/>
</clipPath>
</defs>
</svg>
