<svg width="28" height="28" viewBox="0 0 28 28" fill="none" xmlns="http://www.w3.org/2000/svg">
<g id="solar:archive-down-minimlistic-bold-duotone">
<g id="Group">
<path id="Vector" opacity="0.3" d="M14.0002 2.33337C19.4987 2.33337 22.2486 2.33337 23.9577 4.04137C24.8409 4.92571 25.2679 6.08771 25.4744 7.76537V11.6667H2.5249V7.76537C2.73024 6.08771 3.15607 4.92571 4.0404 4.04137C5.74957 2.33337 8.4994 2.33337 13.9991 2.33337H14.0002Z" fill="#3617CE"/>
<path id="Vector_2" fill-rule="evenodd" clip-rule="evenodd" d="M2.3335 16.3333C2.3335 13.0667 2.3335 11.4333 2.96933 10.185C3.52858 9.08744 4.42093 8.19509 5.5185 7.63583C6.76683 7 8.40016 7 11.6668 7H16.3335C19.6002 7 21.2335 7 22.4818 7.63583C23.5794 8.19509 24.4717 9.08744 25.031 10.185C25.6668 11.4333 25.6668 13.0667 25.6668 16.3333C25.6668 19.6 25.6668 21.2333 25.031 22.4817C24.4717 23.5792 23.5794 24.4716 22.4818 25.0308C21.2335 25.6667 19.6002 25.6667 16.3335 25.6667H11.6668C8.40016 25.6667 6.76683 25.6667 5.5185 25.0308C4.42093 24.4716 3.52858 23.5792 2.96933 22.4817C2.3335 21.2333 2.3335 19.6 2.3335 16.3333ZM14.8752 12.8333C14.8752 12.6013 14.783 12.3787 14.6189 12.2146C14.4548 12.0505 14.2322 11.9583 14.0002 11.9583C13.7681 11.9583 13.5455 12.0505 13.3814 12.2146C13.2174 12.3787 13.1252 12.6013 13.1252 12.8333V17.7217L11.7018 16.2983C11.6217 16.2124 11.5251 16.1434 11.4178 16.0956C11.3105 16.0478 11.1946 16.022 11.0771 16.02C10.9596 16.0179 10.8429 16.0395 10.734 16.0835C10.625 16.1275 10.526 16.193 10.443 16.2761C10.3599 16.3592 10.2944 16.4582 10.2504 16.5671C10.2063 16.6761 10.1847 16.7928 10.1868 16.9103C10.1889 17.0278 10.2146 17.1436 10.2624 17.251C10.3102 17.3583 10.3792 17.4549 10.4652 17.535L13.3818 20.4517C13.5459 20.6155 13.7683 20.7076 14.0002 20.7076C14.232 20.7076 14.4544 20.6155 14.6185 20.4517L17.5352 17.535C17.6211 17.4549 17.6901 17.3583 17.7379 17.251C17.7857 17.1436 17.8114 17.0278 17.8135 16.9103C17.8156 16.7928 17.794 16.6761 17.75 16.5671C17.706 16.4582 17.6405 16.3592 17.5574 16.2761C17.4743 16.193 17.3753 16.1275 17.2664 16.0835C17.1574 16.0395 17.0407 16.0179 16.9232 16.02C16.8057 16.022 16.6899 16.0478 16.5825 16.0956C16.4752 16.1434 16.3786 16.2124 16.2985 16.2983L14.8752 17.7217V12.8333Z" fill="#3617CE"/>
</g>
</g>
</svg>
