<svg width="28" height="28" viewBox="0 0 28 28" fill="none" xmlns="http://www.w3.org/2000/svg">
<g id="solar:bill-check-bold-duotone">
<g id="Group">
<path id="Vector" opacity="0.3" d="M8.4525 2.33398H19.5475C20.8997 2.33398 21.5752 2.33398 22.1212 2.52415C22.636 2.7066 23.1018 3.0053 23.4824 3.39703C23.863 3.78876 24.1481 4.26297 24.3157 4.78282C24.5 5.34515 24.5 6.04048 24.5 7.43232V23.7703C24.5 24.7713 23.3508 25.3033 22.624 24.6383C22.4201 24.4499 22.1526 24.3453 21.875 24.3453C21.5974 24.3453 21.3299 24.4499 21.126 24.6383L20.5625 25.154C20.2053 25.4843 19.7366 25.6678 19.25 25.6678C18.7634 25.6678 18.2947 25.4843 17.9375 25.154C17.5803 24.8236 17.1116 24.6401 16.625 24.6401C16.1384 24.6401 15.6697 24.8236 15.3125 25.154C14.9553 25.4843 14.4866 25.6678 14 25.6678C13.5134 25.6678 13.0447 25.4843 12.6875 25.154C12.3303 24.8236 11.8616 24.6401 11.375 24.6401C10.8884 24.6401 10.4197 24.8236 10.0625 25.154C9.70526 25.4843 9.23658 25.6678 8.75 25.6678C8.26342 25.6678 7.79474 25.4843 7.4375 25.154L6.874 24.6383C6.67008 24.4499 6.40264 24.3453 6.125 24.3453C5.84736 24.3453 5.57992 24.4499 5.376 24.6383C4.64917 25.3033 3.5 24.7713 3.5 23.7703V7.43232C3.5 6.04048 3.5 5.34398 3.68433 4.78398C4.03433 3.71882 4.84517 2.88348 5.87883 2.52415C6.42483 2.33398 7.10033 2.33398 8.4525 2.33398Z" fill="#FF404E"/>
<path id="Vector_2" d="M8.75 17.209C8.51794 17.209 8.29538 17.3012 8.13128 17.4653C7.96719 17.6294 7.875 17.8519 7.875 18.084C7.875 18.316 7.96719 18.5386 8.13128 18.7027C8.29538 18.8668 8.51794 18.959 8.75 18.959H19.25C19.4821 18.959 19.7046 18.8668 19.8687 18.7027C20.0328 18.5386 20.125 18.316 20.125 18.084C20.125 17.8519 20.0328 17.6294 19.8687 17.4653C19.7046 17.3012 19.4821 17.209 19.25 17.209H8.75Z" fill="#FF404E"/>
<path id="Vector_3" d="M17.7435 9.62375C17.7056 9.73233 17.6466 9.83238 17.57 9.91817L13.4027 14.5848C13.3206 14.6768 13.22 14.7504 13.1075 14.8007C12.995 14.8511 12.8732 14.8771 12.7499 14.8771C12.6267 14.8771 12.5048 14.8511 12.3923 14.8007C12.2798 14.7504 12.1793 14.6768 12.0972 14.5848L10.4312 12.7182C10.2781 12.545 10.1997 12.3182 10.2132 12.0874C10.2268 11.8566 10.3311 11.6406 10.5034 11.4865C10.6757 11.3323 10.902 11.2527 11.1329 11.2648C11.3637 11.277 11.5804 11.3801 11.7355 11.5515L12.7505 12.6878L16.2633 8.75151C16.3399 8.66571 16.4327 8.59584 16.5363 8.54589C16.6399 8.49594 16.7523 8.46688 16.8672 8.46038C16.982 8.45388 17.097 8.47007 17.2056 8.50801C17.3142 8.54595 17.4142 8.6049 17.5 8.68151C17.5858 8.75811 17.6557 8.85086 17.7056 8.95447C17.7556 9.05808 17.7846 9.17051 17.7911 9.28534C17.7976 9.40018 17.7814 9.51517 17.7435 9.62375Z" fill="white"/>
</g>
</g>
</svg>
