<svg width="28" height="28" viewBox="0 0 28 28" fill="none" xmlns="http://www.w3.org/2000/svg">
<g id="solar:archive-down-minimlistic-bold-duotone">
<g id="Group">
<path id="Vector" opacity="0.3" d="M14 2.33398C19.4985 2.33398 22.2483 2.33398 23.9575 4.04198C24.8407 4.92632 25.2677 6.08832 25.4742 7.76598V11.6673H2.52466V7.76598C2.72999 6.08832 3.15582 4.92632 4.04016 4.04198C5.74932 2.33398 8.49916 2.33398 13.9988 2.33398H14Z" fill="#FF404E"/>
<path id="Vector_2" fill-rule="evenodd" clip-rule="evenodd" d="M2.33331 16.3333C2.33331 13.0667 2.33331 11.4333 2.96915 10.185C3.5284 9.08744 4.42075 8.19509 5.51831 7.63583C6.76665 7 8.39998 7 11.6666 7H16.3333C19.6 7 21.2333 7 22.4816 7.63583C23.5792 8.19509 24.4716 9.08744 25.0308 10.185C25.6666 11.4333 25.6666 13.0667 25.6666 16.3333C25.6666 19.6 25.6666 21.2333 25.0308 22.4817C24.4716 23.5792 23.5792 24.4716 22.4816 25.0308C21.2333 25.6667 19.6 25.6667 16.3333 25.6667H11.6666C8.39998 25.6667 6.76665 25.6667 5.51831 25.0308C4.42075 24.4716 3.5284 23.5792 2.96915 22.4817C2.33331 21.2333 2.33331 19.6 2.33331 16.3333ZM14.875 12.8333C14.875 12.6013 14.7828 12.3787 14.6187 12.2146C14.4546 12.0505 14.232 11.9583 14 11.9583C13.7679 11.9583 13.5454 12.0505 13.3813 12.2146C13.2172 12.3787 13.125 12.6013 13.125 12.8333V17.7217L11.7016 16.2983C11.6215 16.2124 11.5249 16.1434 11.4176 16.0956C11.3103 16.0478 11.1944 16.022 11.0769 16.02C10.9594 16.0179 10.8427 16.0395 10.7338 16.0835C10.6248 16.1275 10.5259 16.193 10.4428 16.2761C10.3597 16.3592 10.2942 16.4582 10.2502 16.5671C10.2062 16.6761 10.1846 16.7928 10.1866 16.9103C10.1887 17.0278 10.2144 17.1436 10.2622 17.251C10.3101 17.3583 10.379 17.4549 10.465 17.535L13.3816 20.4517C13.5457 20.6155 13.7681 20.7076 14 20.7076C14.2319 20.7076 14.4543 20.6155 14.6183 20.4517L17.535 17.535C17.6209 17.4549 17.6899 17.3583 17.7377 17.251C17.7855 17.1436 17.8113 17.0278 17.8133 16.9103C17.8154 16.7928 17.7938 16.6761 17.7498 16.5671C17.7058 16.4582 17.6403 16.3592 17.5572 16.2761C17.4741 16.193 17.3751 16.1275 17.2662 16.0835C17.1572 16.0395 17.0405 16.0179 16.923 16.02C16.8056 16.022 16.6897 16.0478 16.5824 16.0956C16.475 16.1434 16.3784 16.2124 16.2983 16.2983L14.875 17.7217V12.8333Z" fill="#FF404E"/>
</g>
</g>
</svg>
