<svg width="50" height="50" viewBox="0 0 50 50" fill="none" xmlns="http://www.w3.org/2000/svg">
<rect opacity="0.05" width="50" height="50" rx="25" fill="#3617CE"/>
<path opacity="0.1" d="M12.5 26V21C12.5 17.465 12.5 15.6963 13.5987 14.5987C14.6962 13.5 16.465 13.5 20 13.5H30C33.535 13.5 35.3037 13.5 36.4012 14.5987C37.5 15.6963 37.5 17.465 37.5 21V26C37.5 29.535 37.5 31.3038 36.4012 32.4013C35.3575 33.4463 33.7062 33.4975 30.505 33.5C30.5954 33.1648 30.6028 32.8127 30.5266 32.474C30.4503 32.1354 30.2928 31.8204 30.0675 31.5563C29.7758 31.2139 29.5995 30.7883 29.5637 30.34C29.5234 29.8333 29.3039 29.3575 28.9444 28.9981C28.585 28.6386 28.1092 28.4191 27.6025 28.3788C27.1542 28.343 26.7286 28.1667 26.3862 27.875C25.9994 27.5452 25.5077 27.364 24.9994 27.364C24.491 27.364 23.9993 27.5452 23.6125 27.875C23.2702 28.1667 22.8446 28.343 22.3962 28.3788C21.8895 28.4191 21.4138 28.6386 21.0543 28.9981C20.6949 29.3575 20.4753 29.8333 20.435 30.34C20.4 30.7888 20.2225 31.215 19.9312 31.5563C19.706 31.8204 19.5484 32.1354 19.4722 32.474C19.396 32.8127 19.4034 33.1648 19.4937 33.5C16.2937 33.4975 14.6437 33.4463 13.5987 32.4013C12.5 31.3038 12.5 29.535 12.5 26Z" fill="#3617CE"/>
<path d="M18.75 33.4975C16.0312 33.4825 14.5587 33.3625 13.5987 32.4012C12.5 31.3037 12.5 29.535 12.5 26V21C12.5 17.465 12.5 15.6962 13.5987 14.5987C14.6962 13.5 16.465 13.5 20 13.5H30C33.535 13.5 35.3037 13.5 36.4012 14.5987C37.0137 15.2112 37.285 16.0312 37.405 17.25M30.625 33.4975L31.65 33.495C34.115 33.4687 35.49 33.3137 36.4012 32.4012C37.5 31.3037 37.5 29.535 37.5 26V22.25M21.25 18.5H28.75M18.75 22.875H21.25M31.25 22.875H25.625" stroke="#3617CE" stroke-width="1.5" stroke-linecap="round"/>
<path opacity="0.6" d="M23.6126 28.4315C23.9995 28.1013 24.4915 27.9199 25.0001 27.9199C25.5088 27.9199 26.0007 28.1013 26.3876 28.4315C26.7289 28.724 27.1551 28.9002 27.6039 28.9365C28.1104 28.9767 28.586 29.1961 28.9454 29.5553C29.3048 29.9145 29.5245 30.39 29.5651 30.8965C29.6001 31.3465 29.7776 31.7715 30.0689 32.114C30.3984 32.5007 30.5793 32.9921 30.5793 33.5002C30.5793 34.0083 30.3984 34.4997 30.0689 34.8865C29.7769 35.2291 29.6006 35.6552 29.5651 36.104C29.5248 36.6109 29.305 37.0868 28.9453 37.4463C28.5856 37.8057 28.1096 38.0252 27.6026 38.0652C27.1543 38.101 26.7287 38.2773 26.3864 38.569C25.9996 38.8985 25.5082 39.0794 25.0001 39.0794C24.4921 39.0794 24.0006 38.8985 23.6139 38.569C23.2714 38.2766 22.8453 38.0998 22.3964 38.064C21.8901 38.0234 21.4148 37.8039 21.0556 37.4447C20.6965 37.0856 20.4769 36.6103 20.4364 36.104C20.4005 35.6551 20.2238 35.229 19.9314 34.8865C19.6019 34.4997 19.4209 34.0083 19.4209 33.5002C19.4209 32.9921 19.6019 32.5007 19.9314 32.114C20.2238 31.7715 20.4005 31.3454 20.4364 30.8965C20.4769 30.3902 20.6965 29.9148 21.0556 29.5557C21.4148 29.1965 21.8901 28.977 22.3964 28.9365C22.8464 28.9002 23.2701 28.724 23.6126 28.4315Z" fill="#3617CE" stroke="#3617CE" stroke-width="1.5"/>
<path d="M23.125 33.75L24.1963 34.75L26.875 32.25" stroke="#F9F8FD" stroke-width="1.5" stroke-linecap="round" stroke-linejoin="round"/>
</svg>
