<svg width="16" height="16" viewBox="0 0 16 16" fill="none" xmlns="http://www.w3.org/2000/svg">
<rect x="2.58496" y="3.04541" width="10.8302" height="3.14857" fill="#636A70"/>
<path d="M10.9352 1.39404V2.37241M5.06499 1.39404V2.37241M2.12988 6.28589H13.8703M2.12988 4.32915C2.12988 3.93993 2.2845 3.56665 2.55972 3.29143C2.83494 3.01621 3.20822 2.8616 3.59744 2.8616H12.4028C12.792 2.8616 13.1653 3.01621 13.4405 3.29143C13.7157 3.56665 13.8703 3.93993 13.8703 4.32915V13.1345C13.8703 13.5237 13.7157 13.897 13.4405 14.1722C13.1653 14.4474 12.792 14.602 12.4028 14.602H3.59744C3.20822 14.602 2.83494 14.4474 2.55972 14.1722C2.2845 13.897 2.12988 13.5237 2.12988 13.1345V4.32915Z" stroke="#636A70" stroke-width="1.3" stroke-linecap="round" stroke-linejoin="round"/>
<path d="M5.06445 10.2007H6.53201V11.6682H5.06445V10.2007Z" stroke="#636A70" stroke-width="1.3" stroke-linecap="round" stroke-linejoin="round"/>
</svg>
