<svg width="60" height="60" viewBox="0 0 60 60" fill="none" xmlns="http://www.w3.org/2000/svg">
<path opacity="0.5" d="M46.25 13.75L13.75 46.25" stroke="#3617CE" stroke-width="2.5" stroke-linecap="round"/>
<path d="M30 55C43.8071 55 55 43.8071 55 30C55 16.1929 43.8071 5 30 5C16.1929 5 5 16.1929 5 30C5 43.8071 16.1929 55 30 55Z" stroke="#3617CE" stroke-width="2.5"/>
<path opacity="0.2" d="M22.6668 42.333C19.4768 42.315 17.7491 42.171 16.6227 41.0173C15.3335 39.7002 15.3335 37.5774 15.3335 33.3349V27.3341C15.3335 23.0916 15.3335 20.9688 16.6227 19.6517C17.9104 18.333 19.9858 18.333 24.1335 18.333H35.8668C40.0146 18.333 42.0899 18.333 43.3776 19.6517C44.6668 20.9688 44.6668 23.0916 44.6668 27.3341V33.3349C44.6668 37.5774 44.6668 39.7002 43.3776 41.0173C42.307 42.1125 40.6951 42.2985 37.8028 42.33L36.6002 42.333" fill="#3617CE"/>
<path d="M26.0002 25H34.0002M23.3335 29.6667H36.6668" stroke="#3617CE" stroke-width="1.5" stroke-linecap="round"/>
<path d="M28.3422 34.9442C28.8045 34.5497 29.3924 34.333 30.0002 34.333C30.6079 34.333 31.1958 34.5497 31.6581 34.9442C32.0659 35.2937 32.5752 35.5043 33.1114 35.5476C33.7167 35.5957 34.285 35.8578 34.7144 36.287C35.1439 36.7161 35.4064 37.2842 35.4549 37.8894C35.4967 38.427 35.7088 38.9348 36.0569 39.344C36.4506 39.8061 36.6668 40.3933 36.6668 41.0003C36.6668 41.6073 36.4506 42.1945 36.0569 42.6566C35.708 43.066 35.4974 43.5751 35.4549 44.1113C35.4067 44.7169 35.1441 45.2856 34.7143 45.715C34.2845 46.1445 33.7157 46.4067 33.1099 46.4546C32.5742 46.4973 32.0657 46.7079 31.6566 47.0564C31.1945 47.4501 30.6073 47.6663 30.0002 47.6663C29.3931 47.6663 28.8058 47.4501 28.3437 47.0564C27.9345 46.7071 27.4253 46.4959 26.8889 46.4531C26.2839 46.4046 25.716 46.1423 25.2868 45.7132C24.8577 45.2841 24.5954 44.7162 24.5469 44.1113C24.504 43.5749 24.2928 43.0658 23.9435 42.6566C23.5497 42.1945 23.3335 41.6073 23.3335 41.0003C23.3335 40.3933 23.5497 39.8061 23.9435 39.344C24.2928 38.9348 24.504 38.4257 24.5469 37.8894C24.5954 37.2844 24.8577 36.7165 25.2868 36.2874C25.716 35.8583 26.2839 35.596 26.8889 35.5476C27.4266 35.5043 27.933 35.2937 28.3422 34.9442Z" fill="#3617CE"/>
<path d="M28 41.266L29.1427 42.3327L32 39.666" stroke="white" stroke-width="1.5" stroke-linecap="round" stroke-linejoin="round"/>
</svg>
