<svg width="50" height="50" viewBox="0 0 50 50" fill="none" xmlns="http://www.w3.org/2000/svg">
<rect opacity="0.05" width="50" height="50" rx="25" fill="#EF647D"/>
<path opacity="0.2" d="M36.5 26C36.5 31.8925 36.5 34.8387 34.6688 36.6688C32.84 38.5 29.8925 38.5 24 38.5C18.1075 38.5 15.1613 38.5 13.33 36.6688C11.5 34.84 11.5 31.8925 11.5 26C11.5 20.1075 11.5 17.1613 13.33 15.33C15.1625 13.5 18.1075 13.5 24 13.5C29.8925 13.5 32.8387 13.5 34.6688 15.33C36.5 17.1625 36.5 20.1075 36.5 26Z" fill="#EF647D"/>
<path opacity="0.6" d="M16.75 31.9375C16.5014 31.9375 16.2629 32.0363 16.0871 32.2121C15.9113 32.3879 15.8125 32.6264 15.8125 32.875C15.8125 33.1236 15.9113 33.3621 16.0871 33.5379C16.2629 33.7137 16.5014 33.8125 16.75 33.8125H24.25C24.4986 33.8125 24.7371 33.7137 24.9129 33.5379C25.0887 33.3621 25.1875 33.1236 25.1875 32.875C25.1875 32.6264 25.0887 32.3879 24.9129 32.2121C24.7371 32.0363 24.4986 31.9375 24.25 31.9375H16.75ZM16.75 27.5625C16.5014 27.5625 16.2629 27.6613 16.0871 27.8371C15.9113 28.0129 15.8125 28.2514 15.8125 28.5C15.8125 28.7486 15.9113 28.9871 16.0871 29.1629C16.2629 29.3387 16.5014 29.4375 16.75 29.4375H28C28.2486 29.4375 28.4871 29.3387 28.6629 29.1629C28.8387 28.9871 28.9375 28.7486 28.9375 28.5C28.9375 28.2514 28.8387 28.0129 28.6629 27.8371C28.4871 27.6613 28.2486 27.5625 28 27.5625H16.75Z" fill="#EF647D"/>
<path d="M11.5 26C11.5 31.8925 11.5 34.8388 13.33 36.6688C15.1625 38.5 18.1075 38.5 24 38.5C29.8925 38.5 32.8388 38.5 34.6688 36.6688C36.2799 35.0598 36.4736 32.5848 36.4968 28M25.875 13.5H24C18.1075 13.5 15.1612 13.5 13.33 15.33C12.1137 16.5475 11.705 18.2587 11.5688 21" stroke="#EF647D" stroke-width="1.5" stroke-linecap="round"/>
<path d="M31.9995 11C30.1516 11 28.9836 13.1558 26.6492 17.4675L26.358 18.005C24.4181 21.5883 23.4477 23.38 24.3245 24.69C25.2013 26 27.3708 26 31.7083 26H32.2907C36.6282 26 38.7977 26 39.6745 24.69C40.5513 23.38 39.5809 21.5883 37.641 18.005L37.3498 17.4675C35.0154 13.1558 33.8483 11 31.9995 11Z" fill="#EF647D"/>
<path d="M32.25 15.5C32.4489 15.5 32.6397 15.5648 32.7803 15.6802C32.921 15.7956 33 15.9522 33 16.1154V20.2179C33 20.3812 32.921 20.5377 32.7803 20.6531C32.6397 20.7685 32.4489 20.8333 32.25 20.8333C32.0511 20.8333 31.8603 20.7685 31.7197 20.6531C31.579 20.5377 31.5 20.3812 31.5 20.2179V16.1154C31.5 15.9522 31.579 15.7956 31.7197 15.6802C31.8603 15.5648 32.0511 15.5 32.25 15.5Z" fill="white"/>
<circle cx="32.25" cy="22.25" r="0.75" fill="white"/>
</svg>
