<svg width="28" height="28" viewBox="0 0 28 28" fill="none" xmlns="http://www.w3.org/2000/svg">
<g id="solar:bill-list-bold-duotone">
<g id="Group">
<path id="Vector" opacity="0.3" d="M8.4525 2.33337H19.5475C20.8997 2.33337 21.5752 2.33337 22.1212 2.52354C22.636 2.70599 23.1018 3.00469 23.4824 3.39642C23.863 3.78815 24.1481 4.26236 24.3157 4.78221C24.5 5.34454 24.5 6.03987 24.5 7.43171V23.7697C24.5 24.7707 23.3508 25.3027 22.624 24.6377C22.4201 24.4493 22.1526 24.3446 21.875 24.3446C21.5974 24.3446 21.3299 24.4493 21.126 24.6377L20.5625 25.1534C20.2053 25.4837 19.7366 25.6672 19.25 25.6672C18.7634 25.6672 18.2947 25.4837 17.9375 25.1534C17.5803 24.823 17.1116 24.6395 16.625 24.6395C16.1384 24.6395 15.6697 24.823 15.3125 25.1534C14.9553 25.4837 14.4866 25.6672 14 25.6672C13.5134 25.6672 13.0447 25.4837 12.6875 25.1534C12.3303 24.823 11.8616 24.6395 11.375 24.6395C10.8884 24.6395 10.4197 24.823 10.0625 25.1534C9.70526 25.4837 9.23658 25.6672 8.75 25.6672C8.26342 25.6672 7.79474 25.4837 7.4375 25.1534L6.874 24.6377C6.67008 24.4493 6.40264 24.3446 6.125 24.3446C5.84736 24.3446 5.57992 24.4493 5.376 24.6377C4.64917 25.3027 3.5 24.7707 3.5 23.7697V7.43171C3.5 6.03987 3.5 5.34337 3.68433 4.78337C4.03433 3.71821 4.84517 2.88287 5.87883 2.52354C6.42483 2.33337 7.10033 2.33337 8.4525 2.33337Z" fill="#3617CE"/>
<path id="Vector_2" d="M8.1665 7.875C7.93444 7.875 7.71188 7.96719 7.54779 8.13128C7.38369 8.29538 7.2915 8.51794 7.2915 8.75C7.2915 8.98206 7.38369 9.20462 7.54779 9.36872C7.71188 9.53281 7.93444 9.625 8.1665 9.625H8.74984C8.9819 9.625 9.20446 9.53281 9.36856 9.36872C9.53265 9.20462 9.62484 8.98206 9.62484 8.75C9.62484 8.51794 9.53265 8.29538 9.36856 8.13128C9.20446 7.96719 8.9819 7.875 8.74984 7.875H8.1665ZM8.1665 11.9583C7.93444 11.9583 7.71188 12.0505 7.54779 12.2146C7.38369 12.3787 7.2915 12.6013 7.2915 12.8333C7.2915 13.0654 7.38369 13.288 7.54779 13.4521C7.71188 13.6161 7.93444 13.7083 8.1665 13.7083H8.74984C8.9819 13.7083 9.20446 13.6161 9.36856 13.4521C9.53265 13.288 9.62484 13.0654 9.62484 12.8333C9.62484 12.6013 9.53265 12.3787 9.36856 12.2146C9.20446 12.0505 8.9819 11.9583 8.74984 11.9583H8.1665ZM8.1665 16.0417C7.93444 16.0417 7.71188 16.1339 7.54779 16.2979C7.38369 16.462 7.2915 16.6846 7.2915 16.9167C7.2915 17.1487 7.38369 17.3713 7.54779 17.5354C7.71188 17.6995 7.93444 17.7917 8.1665 17.7917H8.74984C8.9819 17.7917 9.20446 17.6995 9.36856 17.5354C9.53265 17.3713 9.62484 17.1487 9.62484 16.9167C9.62484 16.6846 9.53265 16.462 9.36856 16.2979C9.20446 16.1339 8.9819 16.0417 8.74984 16.0417H8.1665Z" fill="white"/>
<g id="Vector_3">
<path d="M11.6313 8.13128C11.7954 7.96719 12.0179 7.875 12.25 7.875H19.8333C20.0654 7.875 20.288 7.96719 20.4521 8.13128C20.6161 8.29538 20.7083 8.51794 20.7083 8.75C20.7083 8.98206 20.6161 9.20462 20.4521 9.36872C20.288 9.53281 20.0654 9.625 19.8333 9.625H12.25C12.0179 9.625 11.7954 9.53281 11.6313 9.36872C11.4672 9.20462 11.375 8.98206 11.375 8.75C11.375 8.51794 11.4672 8.29538 11.6313 8.13128Z" fill="#3617CE"/>
<path d="M11.6313 12.2146C11.7954 12.0505 12.0179 11.9583 12.25 11.9583H19.8333C20.0654 11.9583 20.288 12.0505 20.4521 12.2146C20.6161 12.3787 20.7083 12.6013 20.7083 12.8333C20.7083 13.0654 20.6161 13.288 20.4521 13.4521C20.288 13.6161 20.0654 13.7083 19.8333 13.7083H12.25C12.0179 13.7083 11.7954 13.6161 11.6313 13.4521C11.4672 13.288 11.375 13.0654 11.375 12.8333C11.375 12.6013 11.4672 12.3787 11.6313 12.2146Z" fill="#3617CE"/>
<path d="M11.6313 16.2979C11.7954 16.1339 12.0179 16.0417 12.25 16.0417H19.8333C20.0654 16.0417 20.288 16.1339 20.4521 16.2979C20.6161 16.462 20.7083 16.6846 20.7083 16.9167C20.7083 17.1487 20.6161 17.3713 20.4521 17.5354C20.288 17.6995 20.0654 17.7917 19.8333 17.7917H12.25C12.0179 17.7917 11.7954 17.6995 11.6313 17.5354C11.4672 17.3713 11.375 17.1487 11.375 16.9167C11.375 16.6846 11.4672 16.462 11.6313 16.2979Z" fill="#3617CE"/>
</g>
</g>
</g>
</svg>
