<svg width="16" height="16" viewBox="0 0 16 16" fill="none" xmlns="http://www.w3.org/2000/svg">
<g id="tabler:device-ipad-horizontal-search">
<g id="Group">
<path id="Vector" d="M6.66667 13.3327H3.33333C2.97971 13.3327 2.64057 13.1922 2.39052 12.9422C2.14048 12.6921 2 12.353 2 11.9993V3.99935C2 3.64573 2.14048 3.30659 2.39052 3.05654C2.64057 2.80649 2.97971 2.66602 3.33333 2.66602H12.6667C13.0203 2.66602 13.3594 2.80649 13.6095 3.05654C13.8595 3.30659 14 3.64573 14 3.99935V5.66602M5 11.3327H6.66667" stroke="#3617CE" stroke-width="1.5" stroke-linecap="round" stroke-linejoin="round"/>
<path id="Vector_2" d="M12.9571 11.4571L14.5 13M8.5 9.57143C8.5 10.2534 8.77092 10.9075 9.25315 11.3897C9.73539 11.8719 10.3894 12.1429 11.0714 12.1429C11.7534 12.1429 12.4075 11.8719 12.8897 11.3897C13.3719 10.9075 13.6429 10.2534 13.6429 9.57143C13.6429 8.88944 13.3719 8.23539 12.8897 7.75315C12.4075 7.27092 11.7534 7 11.0714 7C10.3894 7 9.73539 7.27092 9.25315 7.75315C8.77092 8.23539 8.5 8.88944 8.5 9.57143Z" stroke="#3617CE" stroke-width="1.5" stroke-linecap="round" stroke-linejoin="round"/>
</g>
</g>
</svg>
