<svg width="16" height="16" viewBox="0 0 16 16" fill="none" xmlns="http://www.w3.org/2000/svg">
<g id="Group">
<path id="Vector" d="M8 14.5615C11.6244 14.5615 14.5625 11.6234 14.5625 7.99902C14.5625 4.37465 11.6244 1.43652 8 1.43652C4.37563 1.43652 1.4375 4.37465 1.4375 7.99902C1.4375 11.6234 4.37563 14.5615 8 14.5615Z" stroke="#565EA1"/>
<path id="Vector_2" d="M6.76953 5.9471C6.76956 5.73162 6.82618 5.51991 6.93372 5.33318C7.04126 5.14645 7.19596 4.99123 7.38232 4.88306C7.56869 4.77489 7.7802 4.71756 7.99569 4.7168C8.21117 4.71605 8.42308 4.7719 8.6102 4.87876C8.79732 4.98562 8.9531 5.13975 9.06195 5.32572C9.1708 5.51169 9.2289 5.72299 9.23044 5.93847C9.23198 6.15395 9.1769 6.36606 9.07072 6.55357C8.96454 6.74108 8.81098 6.89742 8.62541 7.00695C8.31369 7.19135 8 7.47157 8 7.83382V8.65413" stroke="#565EA1" stroke-linecap="round"/>
<path id="Vector_3" d="M8 11.2813C8.36244 11.2813 8.65625 10.9874 8.65625 10.625C8.65625 10.2626 8.36244 9.96875 8 9.96875C7.63756 9.96875 7.34375 10.2626 7.34375 10.625C7.34375 10.9874 7.63756 11.2813 8 11.2813Z" fill="#565EA1"/>
</g>
</svg>
