<svg width="70" height="70" viewBox="0 0 70 70" fill="none" xmlns="http://www.w3.org/2000/svg">
<path opacity="0.5" d="M59.9445 52.6709V44.1852C59.9445 42.8851 59.6885 41.5977 59.1909 40.3966C58.6934 39.1955 57.9642 38.1041 57.0449 37.1848C56.1256 36.2655 55.0342 35.5363 53.8331 35.0387C52.632 34.5412 51.3446 34.2852 50.0445 34.2852C48.7444 34.2852 47.4571 34.5412 46.256 35.0387C45.0548 35.5363 43.9635 36.2655 43.0442 37.1848C42.1249 38.1041 41.3956 39.1955 40.8981 40.3966C40.4006 41.5977 40.1445 42.8851 40.1445 44.1852V52.6709C40.1445 53.971 40.4006 55.2583 40.8981 56.4594C41.3956 57.6606 42.1249 58.7519 43.0442 59.6712C43.9635 60.5905 45.0548 61.3198 46.256 61.8173C47.4571 62.3148 48.7444 62.5709 50.0445 62.5709C51.3446 62.5709 52.632 62.3148 53.8331 61.8173C55.0342 61.3198 56.1256 60.5905 57.0449 59.6712C57.9642 58.7519 58.6934 57.6606 59.1909 56.4594C59.6885 55.2583 59.9445 53.971 59.9445 52.6709Z" fill="#3617CE"/>
<path d="M50.0451 37.4668C50.3264 37.4668 50.5962 37.5786 50.7951 37.7775C50.994 37.9764 51.1058 38.2462 51.1058 38.5275V42.7704C51.1058 43.0517 50.994 43.3215 50.7951 43.5204C50.5962 43.7193 50.3264 43.8311 50.0451 43.8311C49.7638 43.8311 49.494 43.7193 49.2951 43.5204C49.0961 43.3215 48.9844 43.0517 48.9844 42.7704V38.5275C48.9844 38.2462 49.0961 37.9764 49.2951 37.7775C49.494 37.5786 49.7638 37.4668 50.0451 37.4668Z" fill="#3617CE"/>
<path opacity="0.2" fill-rule="evenodd" clip-rule="evenodd" d="M19.7148 11.8574C14.192 11.8574 9.71484 16.3346 9.71484 21.8574V40.5717H36.1738C36.3526 39.591 36.6353 38.6296 37.0186 37.7042C37.7272 35.9935 38.7658 34.4391 40.0751 33.1298C41.3844 31.8205 42.9388 30.7819 44.6495 30.0733C46.3602 29.3647 48.1937 29 50.0453 29C51.8969 29 53.7305 29.3647 55.4412 30.0733C57.1518 30.7819 58.7062 31.8205 60.0155 33.1298C60.1071 33.2214 60.1974 33.3142 60.2863 33.4081V21.8574C60.2863 16.3346 55.8091 11.8574 50.2863 11.8574H19.7148Z" fill="#3617CE"/>
<path fill-rule="evenodd" clip-rule="evenodd" d="M22.6443 59.0008H36.4713C36.123 57.7617 35.9453 56.4781 35.9453 55.1857V43.1C35.9453 42.2502 36.0221 41.4043 36.1737 40.5723H9.71484V41.7001C9.87291 44.5377 10.4028 46.3287 11.6696 47.6121C13.6265 49.5948 16.7746 49.5948 26.0729 49.5948H33.3085V55.6174H22.6443C22.2015 55.6174 21.7768 55.7956 21.4636 56.1129C21.1505 56.4301 20.9746 56.8604 20.9746 57.3091C20.9746 57.7578 21.1505 58.1881 21.4636 58.5053C21.7768 58.8226 22.2015 59.0008 22.6443 59.0008Z" fill="#3617CE"/>
<path d="M35.3636 19.3421C35.3636 18.9862 35.22 18.6448 34.9642 18.3931C34.7085 18.1414 34.3617 18 34 18C33.6383 18 33.2915 18.1414 33.0358 18.3931C32.78 18.6448 32.6364 18.9862 32.6364 19.3421V19.36C30.6564 19.8521 29 21.3875 29 23.5169C29 26.1242 31.4818 27.8421 34 27.8421C35.4982 27.8421 36.2727 28.7959 36.2727 29.4831C36.2727 30.1702 35.4982 31.1222 34 31.1222C32.5018 31.1222 31.7273 30.1702 31.7273 29.4831C31.7273 29.1271 31.5836 28.7857 31.3279 28.534C31.0721 28.2823 30.7253 28.1409 30.3636 28.1409C30.002 28.1409 29.6551 28.2823 29.3994 28.534C29.1437 28.7857 29 29.1271 29 29.4831C29 31.6125 30.6564 33.1497 32.6364 33.64V33.6579C32.6364 34.0138 32.78 34.3552 33.0358 34.6069C33.2915 34.8586 33.6383 35 34 35C34.3617 35 34.7085 34.8586 34.9642 34.6069C35.22 34.3552 35.3636 34.0138 35.3636 33.6579V33.64C37.3436 33.1497 39 31.6125 39 29.4831C39 26.8758 36.5182 25.1579 34 25.1579C32.5018 25.1579 31.7273 24.2041 31.7273 23.5169C31.7273 22.8298 32.5018 21.8778 34 21.8778C35.4982 21.8778 36.2727 22.8298 36.2727 23.5169C36.2727 23.8729 36.4164 24.2143 36.6721 24.466C36.9279 24.7177 37.2747 24.8591 37.6364 24.8591C37.998 24.8591 38.3449 24.7177 38.6006 24.466C38.8563 24.2143 39 23.8729 39 23.5169C39 21.3875 37.3436 19.8521 35.3636 19.36V19.3421Z" fill="#3617CE"/>
</svg>
