<svg width="16" height="16" viewBox="0 0 16 16" fill="none" xmlns="http://www.w3.org/2000/svg">
<g id="solar:question-circle-linear">
<g id="Group">
<path id="Vector" d="M7.99935 13.8327C11.221 13.8327 13.8327 11.221 13.8327 7.99935C13.8327 4.77769 11.221 2.16602 7.99935 2.16602C4.77769 2.16602 2.16602 4.77769 2.16602 7.99935C2.16602 11.221 4.77769 13.8327 7.99935 13.8327Z" stroke="#565EA1"/>
<path id="Vector_2" d="M6.90625 6.17564C6.90628 5.98409 6.9566 5.79591 7.05219 5.62993C7.14779 5.46394 7.28529 5.32597 7.45095 5.22982C7.61662 5.13367 7.80462 5.08271 7.99617 5.08204C8.18771 5.08137 8.37607 5.13101 8.5424 5.226C8.70873 5.32098 8.8472 5.45799 8.94395 5.6233C9.04071 5.78861 9.09235 5.97643 9.09372 6.16797C9.09509 6.3595 9.04614 6.54804 8.95175 6.71472C8.85737 6.8814 8.72087 7.02036 8.55592 7.11772C8.27883 7.28164 8 7.53072 8 7.85272V8.58189" stroke="#565EA1" stroke-linecap="round"/>
<path id="Vector_3" d="M7.99935 10.9167C8.32152 10.9167 8.58268 10.6555 8.58268 10.3333C8.58268 10.0112 8.32152 9.75 7.99935 9.75C7.67718 9.75 7.41602 10.0112 7.41602 10.3333C7.41602 10.6555 7.67718 10.9167 7.99935 10.9167Z" fill="#565EA1"/>
</g>
</g>
</svg>
