<svg width="63" height="24" viewBox="0 0 63 24" fill="none" xmlns="http://www.w3.org/2000/svg">
<rect width="60" height="24" rx="12" fill="#EF647D"/>
<path d="M63 24H49C52.7333 23.2533 54.9111 19.0222 55.5333 17C57.0267 20.7333 61.1333 23.2222 63 24Z" fill="#EF647D"/>
<path d="M17.068 12.539V11.0936H20.9016V12.2427C20.9016 14.6578 19.2452 16.1257 16.9289 16.1257C14.3477 16.1257 12.6015 14.3211 12.6015 11.4123C12.6015 8.43163 14.4644 6.68094 16.8885 6.68094C18.9624 6.68094 20.5604 7.9558 20.8163 9.76934H18.8726C18.6212 8.90297 17.9299 8.37327 16.9199 8.37327C15.5014 8.37327 14.5363 9.46409 14.5363 11.3943C14.5363 13.3381 15.4744 14.4334 16.9423 14.4334C18.2441 14.4334 19.0297 13.6972 19.0566 12.539H17.068ZM26.6748 13.0642V9.10497H28.5512V16H26.7466V14.7521H26.6748C26.3651 15.5556 25.6199 16.0898 24.5874 16.0898C23.2004 16.0898 22.2577 15.1112 22.2532 13.4952V9.10497H24.1341V13.1675C24.1341 13.9845 24.6099 14.4962 25.3416 14.4962C26.0284 14.4962 26.6793 14.0069 26.6748 13.0642ZM30.9527 8.20269C30.3916 8.20269 29.9292 7.77624 29.9292 7.24655C29.9292 6.72134 30.3916 6.2904 30.9527 6.2904C31.5138 6.2904 31.9762 6.72134 31.9762 7.24655C31.9762 7.77624 31.5138 8.20269 30.9527 8.20269ZM31.8909 16H30.01V9.10497H31.8909V16ZM35.8941 16.1122C34.314 16.1122 33.0885 14.8643 33.0885 12.5615C33.0885 10.2003 34.3679 9.01519 35.8896 9.01519C37.0523 9.01519 37.5999 9.70649 37.8558 10.2631H37.9097V6.80663H39.786V16H37.9366V14.9002H37.8558C37.5865 15.4658 37.0164 16.1122 35.8941 16.1122ZM36.4822 14.6129C37.4114 14.6129 37.9501 13.7914 37.9501 12.5525C37.9501 11.309 37.4204 10.519 36.4822 10.519C35.517 10.519 35.0098 11.345 35.0098 12.5525C35.0098 13.769 35.526 14.6129 36.4822 14.6129ZM47.5852 12.5121V13.0373H42.8718C42.8718 14.0832 43.4912 14.7251 44.4564 14.7251C45.1028 14.7251 45.5607 14.4468 45.7492 14.0383H47.5358C47.2665 15.3087 46.1263 16.1347 44.425 16.1347C42.3107 16.1347 41.0133 14.77 41.0133 12.5839C41.0133 10.4561 42.3286 9.01519 44.3486 9.01519C46.1577 9.01519 47.5852 10.1599 47.5852 12.5121ZM42.8718 11.8612H45.812C45.8031 11.0262 45.224 10.4202 44.3846 10.4202C43.5182 10.4202 42.9167 11.0711 42.8718 11.8612Z" fill="white"/>
</svg>
