<svg width="16" height="16" viewBox="0 0 16 16" fill="none" xmlns="http://www.w3.org/2000/svg">
<g id="lucide:heart-handshake">
<g id="Group">
<path id="Vector" d="M12.0832 9.16667C12.9523 8.315 13.8332 7.29417 13.8332 5.95833C13.8332 5.10743 13.4952 4.29138 12.8935 3.6897C12.2918 3.08802 11.4757 2.75 10.6248 2.75C9.59817 2.75 8.87484 3.04167 7.99984 3.91667C7.12484 3.04167 6.4015 2.75 5.37484 2.75C4.52393 2.75 3.70788 3.08802 3.1062 3.6897C2.50452 4.29138 2.1665 5.10743 2.1665 5.95833C2.1665 7.3 3.0415 8.32083 3.9165 9.16667L7.99984 13.25L12.0832 9.16667Z" stroke="white" stroke-linecap="round" stroke-linejoin="round"/>
<path id="Vector_2" d="M8.0001 3.91602L6.27343 5.64268C6.15491 5.76034 6.06085 5.9003 5.99665 6.05447C5.93246 6.20865 5.89941 6.37401 5.89941 6.54102C5.89941 6.70802 5.93246 6.87338 5.99665 7.02756C6.06085 7.18174 6.15491 7.32169 6.27343 7.43935C6.75177 7.91768 7.51593 7.93518 8.02343 7.48018L9.23093 6.37185C9.5336 6.09721 9.92766 5.94508 10.3364 5.94508C10.745 5.94508 11.1391 6.09721 11.4418 6.37185L13.1684 7.92352M11.5001 9.74935L10.3334 8.58268M9.7501 11.4993L8.58343 10.3327" stroke="white" stroke-linecap="round" stroke-linejoin="round"/>
</g>
</g>
</svg>
