<svg width="20" height="20" viewBox="0 0 20 20" fill="none" xmlns="http://www.w3.org/2000/svg">
<g id="solar:user-broken">
<g id="Group">
<path id="Vector" d="M9.99984 8.33268C11.8408 8.33268 13.3332 6.8403 13.3332 4.99935C13.3332 3.1584 11.8408 1.66602 9.99984 1.66602C8.15889 1.66602 6.6665 3.1584 6.6665 4.99935C6.6665 6.8403 8.15889 8.33268 9.99984 8.33268Z" stroke="white" stroke-width="1.5"/>
<path id="Vector_2" d="M16.6641 14.9987C16.6666 14.862 16.6666 14.7229 16.6666 14.582C16.6666 12.5112 13.6816 10.832 9.99992 10.832C6.31825 10.832 3.33325 12.5112 3.33325 14.582C3.33325 16.6529 3.33325 18.332 9.99992 18.332C11.8591 18.332 13.1999 18.2012 14.1666 17.9679" stroke="white" stroke-width="1.5" stroke-linecap="round"/>
</g>
</g>
</svg>
