<svg width="60" height="60" viewBox="0 0 60 60" fill="none" xmlns="http://www.w3.org/2000/svg">
<g id="solar:bill-list-bold-duotone">
<g id="Group">
<path id="Vector" d="M16.0028 20.2793H14.8344C16.3208 20.2793 17.0634 20.2793 17.6636 20.4872C18.2295 20.6867 18.7415 21.0134 19.1599 21.4417C19.5783 21.8701 19.8918 22.3886 20.076 22.957C20.2786 23.5719 20.2786 24.3323 20.2786 25.8542V43.7194C20.2786 44.814 19.0153 45.3957 18.2163 44.6686C17.9922 44.4625 17.6982 44.3481 17.393 44.3481C17.0878 44.3481 16.7938 44.4625 16.5696 44.6686L15.9502 45.2324C15.5574 45.5937 15.0422 45.7943 14.5073 45.7943C13.9725 45.7943 13.4572 45.5937 13.0645 45.2324C12.6718 44.8712 12.1566 44.6705 11.6217 44.6705C11.0868 44.6705 23.9366 44.8712 23.5439 45.2324C23.1512 45.5937 22.636 45.7943 22.1011 45.7943C21.5662 45.7943 21.051 45.5937 20.6583 45.2324C20.2656 44.8712 19.7504 44.6705 19.2155 44.6705C18.6806 44.6705 18.1654 44.8712 17.7727 45.2324C17.3799 45.5937 16.8647 45.7943 16.3298 45.7943C15.795 45.7943 15.2797 45.5937 14.887 45.2324L14.2676 44.6686C14.0434 44.4625 13.7494 44.3481 13.4442 44.3481C13.139 44.3481 12.845 44.4625 12.6209 44.6686C11.8219 45.3957 10.5586 44.814 10.5586 43.7194V25.8542C10.5586 24.3323 10.5586 23.5707 10.7612 22.9583C11.146 21.7936 12.0373 20.8802 13.1736 20.4872C13.7738 20.2793 14.5164 20.2793 16.0028 20.2793Z" fill="#3617CE"/>
<path id="Vector_2" opacity="0.5" d="M27.4408 11.7754H43.4889C45.4447 11.7754 46.4218 11.7754 47.2115 12.0526C47.9562 12.3187 48.6299 12.7541 49.1804 13.3253C49.7309 13.8964 50.1434 14.5878 50.3857 15.3457C50.6523 16.1656 50.6523 17.1793 50.6523 19.2086V43.0289C50.6523 44.4883 48.9902 45.2639 47.9388 44.2944C47.6439 44.0197 47.2571 43.8671 46.8555 43.8671C46.4539 43.8671 46.067 44.0197 45.7721 44.2944L44.957 45.0462C44.4403 45.5279 43.7624 45.7954 43.0586 45.7954C42.3548 45.7954 41.6769 45.5279 41.1602 45.0462C40.6434 44.5646 39.9655 44.2971 39.2617 44.2971C38.5579 44.2971 37.88 44.5646 37.3633 45.0462C36.8466 45.5279 36.1686 45.7954 35.4648 45.7954C34.761 45.7954 34.0831 45.5279 33.5664 45.0462C33.0497 44.5646 32.3718 44.2971 31.668 44.2971C30.9642 44.2971 30.2863 44.5646 29.7695 45.0462C29.2528 45.5279 28.5749 45.7954 27.8711 45.7954C27.1673 45.7954 26.4894 45.5279 25.9727 45.0462L25.1576 44.2944C24.8626 44.0197 24.4758 43.8671 24.0742 43.8671C23.6726 43.8671 23.2858 44.0197 22.9908 44.2944C21.9395 45.2639 20.2773 44.4883 20.2773 43.0289V19.2086C20.2773 17.1793 20.2773 16.1639 20.544 15.3474C21.0502 13.7944 22.223 12.5765 23.7182 12.0526C24.5079 11.7754 25.485 11.7754 27.4408 11.7754Z" fill="#3617CE"/>
<path id="Vector_3" fill-rule="evenodd" clip-rule="evenodd" d="M8.12891 43.9729C8.12891 42.9657 8.81284 42.1504 9.65384 42.1504H50.344C51.185 42.1504 51.8689 42.9657 51.8689 43.9729C51.8689 44.9801 51.185 45.7954 50.344 45.7954H9.65384C9.25133 45.7973 8.86464 45.6064 8.57872 45.2647C8.29279 44.923 8.13101 44.4584 8.12891 43.9729Z" fill="#3617CE"/>
<path id="Vector_4" d="M32.4639 20.2793C32.1316 20.2793 31.8129 20.4148 31.5779 20.6561C31.3429 20.8974 31.2109 21.2246 31.2109 21.5658C31.2109 21.907 31.3429 22.2342 31.5779 22.4754C31.8129 22.7167 32.1316 22.8522 32.4639 22.8522H43.323C43.6553 22.8522 43.974 22.7167 44.209 22.4754C44.4439 22.2342 44.5759 21.907 44.5759 21.5658C44.5759 21.2246 44.4439 20.8974 44.209 20.6561C43.974 20.4148 43.6553 20.2793 43.323 20.2793H32.4639ZM32.4639 26.2828C32.1316 26.2828 31.8129 26.4184 31.5779 26.6596C31.3429 26.9009 31.2109 27.2281 31.2109 27.5693C31.2109 27.9105 31.3429 28.2377 31.5779 28.479C31.8129 28.7202 32.1316 28.8558 32.4639 28.8558H43.323C43.6553 28.8558 43.974 28.7202 44.209 28.479C44.4439 28.2377 44.5759 27.9105 44.5759 27.5693C44.5759 27.2281 44.4439 26.9009 44.209 26.6596C43.974 26.4184 43.6553 26.2828 43.323 26.2828H32.4639ZM32.4639 32.2864C32.1316 32.2864 31.8129 32.4219 31.5779 32.6632C31.3429 32.9044 31.2109 33.2316 31.2109 33.5728C31.2109 33.914 31.3429 34.2412 31.5779 34.4825C31.8129 34.7238 32.1316 34.8593 32.4639 34.8593H43.323C43.6553 34.8593 43.974 34.7238 44.209 34.4825C44.4439 34.2412 44.5759 33.914 44.5759 33.5728C44.5759 33.2316 44.4439 32.9044 44.209 32.6632C43.974 32.4219 43.6553 32.2864 43.323 32.2864H32.4639Z" fill="white"/>
<g id="Vector_5">
<path d="M14.47 26.6381C14.6409 26.4571 14.8727 26.3555 15.1144 26.3555H15.7219C15.9636 26.3555 16.1953 26.4571 16.3662 26.6381C16.5371 26.819 16.6331 27.0644 16.6331 27.3203C16.6331 27.5762 16.5371 27.8216 16.3662 28.0026C16.1953 28.1835 15.9636 28.2852 15.7219 28.2852H15.1144C14.8727 28.2852 14.6409 28.1835 14.47 28.0026C14.2991 27.8216 14.2031 27.5762 14.2031 27.3203C14.2031 27.0644 14.2991 26.819 14.47 26.6381Z" fill="white"/>
<path d="M14.47 31.1407C14.6409 30.9598 14.8727 30.8581 15.1144 30.8581H15.7219C15.9636 30.8581 16.1953 30.9598 16.3662 31.1407C16.5371 31.3217 16.6331 31.5671 16.6331 31.823C16.6331 32.0789 16.5371 32.3243 16.3662 32.5052C16.1953 32.6862 15.9636 32.7878 15.7219 32.7878H15.1144C14.8727 32.7878 14.6409 32.6862 14.47 32.5052C14.2991 32.3243 14.2031 32.0789 14.2031 31.823C14.2031 31.5671 14.2991 31.3217 14.47 31.1407Z" fill="white"/>
<path d="M14.47 35.6434C14.6409 35.4624 14.8727 35.3608 15.1144 35.3608H15.7219C15.9636 35.3608 16.1953 35.4624 16.3662 35.6434C16.5371 35.8243 16.6331 36.0697 16.6331 36.3256C16.6331 36.5815 16.5371 36.8269 16.3662 37.0079C16.1953 37.1888 15.9636 37.2905 15.7219 37.2905H15.1144C14.8727 37.2905 14.6409 37.1888 14.47 37.0079C14.2991 36.8269 14.2031 36.5815 14.2031 36.3256C14.2031 36.0697 14.2991 35.8243 14.47 35.6434Z" fill="white"/>
</g>
<g id="Vector_6">
<path d="M25.5371 20.6561C25.7934 20.4148 26.1411 20.2793 26.5036 20.2793H27.4148C27.7774 20.2793 28.125 20.4148 28.3814 20.6561C28.6377 20.8974 28.7817 21.2246 28.7817 21.5658C28.7817 21.907 28.6377 22.2342 28.3814 22.4754C28.125 22.7167 27.7774 22.8522 27.4148 22.8522H26.5036C26.1411 22.8522 25.7934 22.7167 25.5371 22.4754C25.2807 22.2342 25.1367 21.907 25.1367 21.5658C25.1367 21.2246 25.2807 20.8974 25.5371 20.6561Z" fill="white"/>
<path d="M25.5371 26.6596C25.7934 26.4184 26.1411 26.2828 26.5036 26.2828H27.4148C27.7774 26.2828 28.125 26.4184 28.3814 26.6596C28.6377 26.9009 28.7817 27.2281 28.7817 27.5693C28.7817 27.9105 28.6377 28.2377 28.3814 28.479C28.125 28.7202 27.7774 28.8558 27.4148 28.8558H26.5036C26.1411 28.8558 25.7934 28.7202 25.5371 28.479C25.2807 28.2377 25.1367 27.9105 25.1367 27.5693C25.1367 27.2281 25.2807 26.9009 25.5371 26.6596Z" fill="white"/>
<path d="M25.5371 32.6632C25.7934 32.4219 26.1411 32.2864 26.5036 32.2864H27.4148C27.7774 32.2864 28.125 32.4219 28.3814 32.6632C28.6377 32.9044 28.7817 33.2316 28.7817 33.5728C28.7817 33.914 28.6377 34.2412 28.3814 34.4825C28.125 34.7238 27.7774 34.8593 27.4148 34.8593H26.5036C26.1411 34.8593 25.7934 34.7238 25.5371 34.4825C25.2807 34.2412 25.1367 33.914 25.1367 33.5728C25.1367 33.2316 25.2807 32.9044 25.5371 32.6632Z" fill="white"/>
</g>
</g>
</g>
</svg>
