<svg width="20" height="20" viewBox="0 0 20 20" fill="none" xmlns="http://www.w3.org/2000/svg">
<g id="solar:minimalistic-magnifer-zoom-in-broken" clip-path="url(#clip0_1149_9975)">
<path id="Vector" d="M7.50009 9.58416H9.58343M9.58343 9.58416H11.6668M9.58343 9.58416V11.6675M9.58343 9.58416V7.50082M16.6668 16.6675L18.3334 18.3342M5.62509 2.72582C7.2885 1.76593 9.24413 1.44342 11.1277 1.8184C13.0112 2.19337 14.6942 3.24024 15.8632 4.76401C17.0322 6.28777 17.6074 8.18451 17.4817 10.1009C17.3559 12.0173 16.5379 13.8226 15.1799 15.1806C13.8219 16.5386 12.0165 17.3567 10.1002 17.4824C8.18378 17.6081 6.28704 17.0329 4.76327 15.8639C3.23951 14.695 2.19264 13.0119 1.81766 11.1284C1.44269 9.24486 1.76519 7.28923 2.72509 5.62582" stroke="white" stroke-width="1.5" stroke-linecap="round"/>
</g>
<defs>
<clipPath id="clip0_1149_9975">
<rect width="20" height="20" fill="white"/>
</clipPath>
</defs>
</svg>
