<svg width="28" height="28" viewBox="0 0 28 28" fill="none" xmlns="http://www.w3.org/2000/svg">
<g id="solar:hourglass-line-bold-duotone">
<g id="Group">
<path id="Vector" fill-rule="evenodd" clip-rule="evenodd" d="M14 2.33398C9.17821 2.33398 6.76671 2.33398 6.06438 3.85065C6.00401 3.98131 5.95332 4.11623 5.91271 4.25432C5.43438 5.87248 7.14004 7.74848 10.549 11.4993L12.8334 14.0007H15.1667L17.451 11.5005C20.86 7.74849 22.5645 5.87248 22.0874 4.25548C22.0469 4.11659 21.9962 3.98088 21.9357 3.84948C21.2334 2.33398 18.8219 2.33398 14 2.33398ZM11.6667 5.54232C11.4346 5.54232 11.2121 5.63451 11.048 5.7986C10.8839 5.96269 10.7917 6.18525 10.7917 6.41732C10.7917 6.64938 10.8839 6.87194 11.048 7.03604C11.2121 7.20013 11.4346 7.29232 11.6667 7.29232H16.3334C16.5654 7.29232 16.788 7.20013 16.9521 7.03604C17.1162 6.87194 17.2084 6.64938 17.2084 6.41732C17.2084 6.18525 17.1162 5.96269 16.9521 5.7986C16.788 5.63451 16.5654 5.54232 16.3334 5.54232H11.6667Z" fill="#FF404E"/>
<path id="Vector_2" opacity="0.3" d="M6.06444 24.15C6.76677 25.6667 9.17827 25.6667 14.0001 25.6667C18.8219 25.6667 21.2334 25.6667 21.9358 24.15C21.9962 24.0194 22.0469 23.8844 22.0874 23.7463C22.5658 22.1282 20.8601 20.2522 17.4511 16.5013L15.1668 14H12.8334L10.5491 16.5002C7.1401 20.2522 5.4356 22.1282 5.91277 23.7452C5.9536 23.8852 6.00377 24.0193 6.06444 24.15Z" fill="#FF404E"/>
<path id="Vector_3" d="M11.6667 20.709C11.4347 20.709 11.2121 20.8012 11.048 20.9653C10.8839 21.1294 10.7917 21.3519 10.7917 21.584C10.7917 21.816 10.8839 22.0386 11.048 22.2027C11.2121 22.3668 11.4347 22.459 11.6667 22.459H16.3334C16.5655 22.459 16.788 22.3668 16.9521 22.2027C17.1162 22.0386 17.2084 21.816 17.2084 21.584C17.2084 21.3519 17.1162 21.1294 16.9521 20.9653C16.788 20.8012 16.5655 20.709 16.3334 20.709H11.6667Z" fill="#FF404E"/>
</g>
</g>
</svg>
