<svg width="28" height="28" viewBox="0 0 28 28" fill="none" xmlns="http://www.w3.org/2000/svg">
<g id="solar:document-add-bold-duotone">
<g id="Group">
<path id="Vector" opacity="0.3" d="M3.5 11.6673C3.5 7.26782 3.5 5.06748 4.86733 3.70132C6.2335 2.33398 8.43383 2.33398 12.8333 2.33398H15.1667C19.5662 2.33398 21.7665 2.33398 23.1327 3.70132C24.5 5.06748 24.5 7.26782 24.5 11.6673V16.334C24.5 20.7335 24.5 22.9338 23.1327 24.3C21.7665 25.6673 19.5662 25.6673 15.1667 25.6673H12.8333C8.43383 25.6673 6.2335 25.6673 4.86733 24.3C3.5 22.9338 3.5 20.7335 3.5 16.334V11.6673Z" fill="#3617CE"/>
<path id="Vector_2" d="M19.2722 19.2522C19.4763 19.0935 19.6618 18.908 20.0317 18.5382L24.6482 13.9205C24.7602 13.8097 24.7088 13.6172 24.5607 13.5647C23.8383 13.3129 23.1824 12.9005 22.6427 12.3584C22.1006 11.8186 21.6881 11.1628 21.4363 10.4404C21.3838 10.2922 21.1913 10.2409 21.0805 10.3529L16.4617 14.9694C16.0918 15.3392 15.9063 15.5247 15.7477 15.7289C15.5598 15.9704 15.3977 16.2305 15.267 16.5059C15.1562 16.7392 15.0733 16.9889 14.9077 17.4859L14.693 18.1275L14.3523 19.1484L14.0338 20.105C13.9941 20.2249 13.9885 20.3535 14.0176 20.4764C14.0468 20.5993 14.1095 20.7117 14.1988 20.801C14.2881 20.8903 14.4005 20.9531 14.5234 20.9822C14.6463 21.0113 14.7749 21.0057 14.8948 20.966L15.8515 20.6475L16.8723 20.3069L17.514 20.0922C18.011 19.9265 18.2607 19.8449 18.494 19.7329C18.7693 19.601 19.0318 19.4412 19.2722 19.2522ZM26.0937 12.475C26.3346 12.2423 26.5267 11.9638 26.6589 11.656C26.7911 11.3482 26.8607 11.0171 26.8636 10.6821C26.8665 10.3471 26.8027 10.0149 26.6759 9.70484C26.549 9.39477 26.3617 9.11305 26.1249 8.87613C25.8881 8.6392 25.6064 8.45181 25.2964 8.32487C24.9863 8.19794 24.6541 8.13401 24.3191 8.13681C23.9841 8.13961 23.6531 8.20908 23.3452 8.34118C23.0373 8.47327 22.7588 8.66535 22.526 8.90619L22.3778 9.05553C22.3072 9.12516 22.2546 9.21094 22.2245 9.30545C22.1944 9.39997 22.1878 9.50038 22.2052 9.59803C22.2285 9.72286 22.2693 9.9072 22.3452 10.1254C22.4968 10.5629 22.7838 11.1369 23.324 11.677C23.7603 12.1168 24.2909 12.4515 24.8757 12.6559C25.095 12.7317 25.2782 12.7725 25.403 12.7959C25.5006 12.8131 25.601 12.8065 25.6955 12.7764C25.79 12.7463 25.8758 12.6937 25.9455 12.6232L26.0937 12.475Z" fill="#3617CE"/>
<path id="Vector_3" fill-rule="evenodd" clip-rule="evenodd" d="M8.45831 10.5C8.45831 10.2679 8.5505 10.0454 8.71459 9.88128C8.87869 9.71719 9.10125 9.625 9.33331 9.625H16.9166C17.1487 9.625 17.3713 9.71719 17.5354 9.88128C17.6995 10.0454 17.7916 10.2679 17.7916 10.5C17.7916 10.7321 17.6995 10.9546 17.5354 11.1187C17.3713 11.2828 17.1487 11.375 16.9166 11.375H9.33331C9.10125 11.375 8.87869 11.2828 8.71459 11.1187C8.5505 10.9546 8.45831 10.7321 8.45831 10.5ZM8.45831 15.1667C8.45831 14.9346 8.5505 14.712 8.71459 14.5479C8.87869 14.3839 9.10125 14.2917 9.33331 14.2917H12.8333C13.0654 14.2917 13.2879 14.3839 13.452 14.5479C13.6161 14.712 13.7083 14.9346 13.7083 15.1667C13.7083 15.3987 13.6161 15.6213 13.452 15.7854C13.2879 15.9495 13.0654 16.0417 12.8333 16.0417H9.33331C9.10125 16.0417 8.87869 15.9495 8.71459 15.7854C8.5505 15.6213 8.45831 15.3987 8.45831 15.1667ZM8.45831 19.8333C8.45831 19.6013 8.5505 19.3787 8.71459 19.2146C8.87869 19.0505 9.10125 18.9583 9.33331 18.9583H11.0833C11.3154 18.9583 11.5379 19.0505 11.702 19.2146C11.8661 19.3787 11.9583 19.6013 11.9583 19.8333C11.9583 20.0654 11.8661 20.288 11.702 20.4521C11.5379 20.6161 11.3154 20.7083 11.0833 20.7083H9.33331C9.10125 20.7083 8.87869 20.6161 8.71459 20.4521C8.5505 20.288 8.45831 20.0654 8.45831 19.8333Z" fill="white"/>
</g>
</g>
</svg>
