<svg width="20" height="20" viewBox="0 0 20 20" fill="none" xmlns="http://www.w3.org/2000/svg">
<g id="solar:letter-opened-broken" clip-path="url(#clip0_1149_9992)">
<g id="Group">
<path id="Vector" d="M18.3334 11.6667C18.3334 14.8092 18.3334 16.3808 17.3567 17.3567C16.3809 18.3333 14.8092 18.3333 11.6667 18.3333H8.33341C5.19091 18.3333 3.61925 18.3333 2.64341 17.3567C1.66675 16.3808 1.66675 14.8092 1.66675 11.6667C1.66675 8.52417 1.66675 6.9525 2.64341 5.97667C3.18758 5.43167 3.91675 5.19083 5.00008 5.085M15.0001 5.085C16.0834 5.19083 16.8126 5.43167 17.3567 5.97667C17.9017 6.52083 18.1426 7.25 18.2484 8.33333M8.33341 5H11.6667M9.16675 7.5H10.8334" stroke="white" stroke-width="1.5" stroke-linecap="round"/>
<path id="Vector_2" d="M11.6667 1.66797C13.0892 1.67964 13.8725 1.75964 14.39 2.2763C15 2.8863 15 3.86797 15 5.83214V7.55214C15 7.93547 15 8.12714 14.9217 8.29547C14.8425 8.4638 14.695 8.58714 14.4 8.83214L13.8 9.33214M8.33333 1.66797C6.91083 1.67964 6.1275 1.75964 5.61 2.2763C5 2.8863 5 3.86797 5 5.83214V7.55214C5 7.93547 5 8.12714 5.07833 8.29547C5.1575 8.4638 5.305 8.58714 5.6 8.83214L6.79917 9.83214C8.33 11.1071 9.095 11.7446 10 11.7446C10.5417 11.7446 11.0325 11.5171 11.6667 11.0613" stroke="white" stroke-width="1.5" stroke-linecap="round"/>
</g>
</g>
<defs>
<clipPath id="clip0_1149_9992">
<rect width="20" height="20" fill="white"/>
</clipPath>
</defs>
</svg>
