<svg width="60" height="60" viewBox="0 0 60 60" fill="none" xmlns="http://www.w3.org/2000/svg">
<g id="solar:laptop-minimalistic-bold-duotone">
<g id="Group">
<path id="Vector" fill-rule="evenodd" clip-rule="evenodd" d="M8.12891 46.4026C8.12891 45.3954 8.81284 44.5801 9.65384 44.5801H50.344C51.185 44.5801 51.8689 45.3954 51.8689 46.4026C51.8689 47.4097 51.185 48.2251 50.344 48.2251H9.65384C9.25133 48.227 8.86464 48.0361 8.57872 47.6944C8.29279 47.3527 8.13101 46.8881 8.12891 46.4026Z" fill="#3617CE"/>
<path id="Vector_2" opacity="0.5" d="M13.172 13.5776C11.3516 15.3799 11.3516 18.2837 11.3516 24.0874V34.3481C11.3516 38.2158 11.3516 40.1517 12.5666 41.3546C13.7795 42.5554 15.7337 42.5554 19.6399 42.5554H40.3617C44.27 42.5554 46.2221 42.5554 47.435 41.3525C48.65 40.1517 48.65 38.2158 48.65 34.346V24.0874C48.65 18.2837 48.65 15.3799 46.8275 13.5776C45.0091 11.7754 42.0789 11.7754 36.2165 11.7754H23.783C17.9227 11.7754 14.9945 11.7754 13.172 13.5776Z" fill="#3617CE"/>
<path id="Vector_3" d="M23.7836 43.3652C23.3737 43.3636 22.9798 43.5248 22.6886 43.8134C22.3974 44.1019 22.2326 44.4943 22.2305 44.9042C22.2305 45.7547 22.9271 46.4432 23.7857 46.4432H36.2192C37.0757 46.4432 37.7723 45.7547 37.7723 44.9042C37.7723 44.0537 37.0757 43.3652 36.2171 43.3652H23.7836Z" fill="white"/>
</g>
<path id="Vector_4" d="M37.2908 22.7109L28.1874 31.2159L23.9258 27.2136" stroke="white" stroke-width="3" stroke-miterlimit="10" stroke-linecap="round" stroke-linejoin="round"/>
</g>
</svg>
