<svg width="28" height="28" viewBox="0 0 28 28" fill="none" xmlns="http://www.w3.org/2000/svg">
<g id="solar:diploma-verified-bold-duotone">
<g id="Group">
<path id="Vector" fill-rule="evenodd" clip-rule="evenodd" d="M15.2953 15.75C14.9341 15.4419 14.475 15.2726 14.0003 15.2726C13.5255 15.2726 13.0664 15.4419 12.7053 15.75C12.3857 16.0223 11.9885 16.1868 11.5701 16.2202C11.0971 16.2578 10.6531 16.4627 10.3176 16.7982C9.98215 17.1337 9.77721 17.5777 9.73959 18.0507C9.70692 18.4695 9.54125 18.8674 9.26942 19.1859C8.96158 19.5469 8.79248 20.0058 8.79248 20.4803C8.79248 20.9547 8.96158 21.4137 9.26942 21.7747C9.54235 22.0938 9.70698 22.4912 9.73959 22.9099C9.77698 23.3832 9.98197 23.8277 10.3177 24.1634C10.6534 24.4991 11.0979 24.7041 11.5713 24.7415C11.9889 24.7742 12.3868 24.9387 12.7064 25.2105C13.0674 25.5181 13.5261 25.687 14.0003 25.687C14.4744 25.687 14.9331 25.5181 15.2941 25.2105C15.6136 24.9383 16.0108 24.7737 16.4293 24.7404C16.9024 24.703 17.3467 24.4982 17.6824 24.1627C18.0182 23.8272 18.2233 23.383 18.2609 22.9099C18.2936 22.4922 18.4581 22.0932 18.7299 21.7747C19.0378 21.4137 19.2069 20.9547 19.2069 20.4803C19.2069 20.0058 19.0378 19.5469 18.7299 19.1859C18.4577 18.8663 18.2931 18.4691 18.2598 18.0507C18.2221 17.5777 18.0172 17.1337 17.6817 16.7982C17.3462 16.4627 16.9022 16.2578 16.4293 16.2202C16.0108 16.1868 15.6148 16.0223 15.2953 15.75ZM16.3476 19.9535C16.4316 19.8751 16.4994 19.7808 16.547 19.6762C16.5946 19.5716 16.6212 19.4586 16.6251 19.3437C16.6291 19.2288 16.6104 19.1143 16.57 19.0066C16.5297 18.899 16.4686 18.8003 16.3902 18.7163C16.3117 18.6322 16.2175 18.5645 16.1129 18.5169C16.0082 18.4692 15.8953 18.4427 15.7804 18.4387C15.6655 18.4348 15.5509 18.4535 15.4433 18.4938C15.3356 18.5341 15.237 18.5952 15.1529 18.6737L13.2513 20.4505L12.8476 20.0737C12.6779 19.9153 12.4522 19.8307 12.2201 19.8387C11.9881 19.8467 11.7688 19.9466 11.6103 20.1163C11.4519 20.286 11.3674 20.5117 11.3754 20.7437C11.3834 20.9757 11.4832 21.1951 11.6529 21.3535L12.6528 22.2869C12.8148 22.4383 13.0283 22.5225 13.2501 22.5225C13.4719 22.5225 13.6854 22.4383 13.8474 22.2869L16.3476 19.9535Z" fill="#3617CE"/>
<path id="Vector_2" opacity="0.3" d="M2.3335 14V9.33337C2.3335 6.03404 2.3335 4.38321 3.359 3.35887C4.38333 2.33337 6.03416 2.33337 9.3335 2.33337H18.6668C21.9662 2.33337 23.617 2.33337 24.6413 3.35887C25.6668 4.38321 25.6668 6.03404 25.6668 9.33337V14C25.6668 17.2994 25.6668 18.9502 24.6413 19.9745C23.6672 20.9499 22.126 20.9977 19.1382 21C19.2225 20.6872 19.2294 20.3586 19.1583 20.0425C19.0872 19.7264 18.9401 19.4324 18.7298 19.1859C18.4576 18.8664 18.2931 18.4691 18.2597 18.0507C18.222 17.5778 18.0171 17.1337 17.6816 16.7982C17.3462 16.4628 16.9021 16.2578 16.4292 16.2202C16.0107 16.1868 15.6135 16.0223 15.294 15.75C14.933 15.4422 14.474 15.2731 13.9996 15.2731C13.5251 15.2731 13.0662 15.4422 12.7052 15.75C12.3857 16.0223 11.9884 16.1868 11.57 16.2202C11.0971 16.2578 10.653 16.4628 10.3175 16.7982C9.98206 17.1337 9.77712 17.5778 9.7395 18.0507C9.70683 18.4695 9.54116 18.8674 9.26933 19.1859C9.05907 19.4324 8.91201 19.7264 8.84086 20.0425C8.76972 20.3586 8.77663 20.6872 8.861 21C5.87433 20.9977 4.33433 20.9499 3.359 19.9745C2.3335 18.9502 2.3335 17.2994 2.3335 14Z" fill="#3617CE"/>
<path id="Vector_3" d="M9.62533 7C9.62533 6.76794 9.71751 6.54538 9.88161 6.38128C10.0457 6.21719 10.2683 6.125 10.5003 6.125H17.5003C17.7324 6.125 17.955 6.21719 18.119 6.38128C18.2831 6.54538 18.3753 6.76794 18.3753 7C18.3753 7.23206 18.2831 7.45462 18.119 7.61872C17.955 7.78281 17.7324 7.875 17.5003 7.875H10.5003C10.2683 7.875 10.0457 7.78281 9.88161 7.61872C9.71751 7.45462 9.62533 7.23206 9.62533 7ZM8.16699 10.2083C7.93493 10.2083 7.71237 10.3005 7.54827 10.4646C7.38418 10.6287 7.29199 10.8513 7.29199 11.0833C7.29199 11.3154 7.38418 11.538 7.54827 11.7021C7.71237 11.8661 7.93493 11.9583 8.16699 11.9583H19.8337C20.0657 11.9583 20.2883 11.8661 20.4524 11.7021C20.6165 11.538 20.7087 11.3154 20.7087 11.0833C20.7087 10.8513 20.6165 10.6287 20.4524 10.4646C20.2883 10.3005 20.0657 10.2083 19.8337 10.2083H8.16699Z" fill="white"/>
</g>
</g>
</svg>
