<svg width="32" height="32" viewBox="0 0 32 32" fill="none" xmlns="http://www.w3.org/2000/svg">
<g id="solar:chat-round-video-bold-duotone">
<g id="Group">
<path id="Vector" opacity="0.2" d="M16 29.3327C23.364 29.3327 29.3334 23.3633 29.3334 15.9993C29.3334 8.63535 23.364 2.66602 16 2.66602C8.63602 2.66602 2.66669 8.63535 2.66669 15.9993C2.66669 18.1327 3.16802 20.1487 4.05735 21.9367C4.29469 22.4113 4.37335 22.954 4.23602 23.4673L3.44269 26.4353C3.36441 26.729 3.3647 27.038 3.44354 27.3315C3.52238 27.625 3.67699 27.8926 3.89187 28.1075C4.10676 28.3224 4.37436 28.477 4.66784 28.5558C4.96133 28.6347 5.27038 28.635 5.56402 28.5567L8.53202 27.7633C9.04723 27.6337 9.59206 27.6968 10.064 27.9407C11.9079 28.8589 13.9402 29.3354 16 29.3327Z" fill="white"/>
<path id="Vector_2" d="M17.6267 12.5954C20.0973 14.114 21.3333 14.874 21.3333 15.9994C21.3333 17.126 20.0973 17.8847 17.6267 19.4034C15.12 20.9434 13.868 21.7127 12.9333 21.1474C12 20.582 12 19.054 12 15.9994C12 12.9447 12 11.4167 12.9333 10.8514C13.868 10.286 15.12 11.0554 17.6267 12.5954Z" fill="white"/>
</g>
</g>
</svg>
