<svg width="28" height="28" viewBox="0 0 28 28" fill="none" xmlns="http://www.w3.org/2000/svg">
<g id="solar:file-text-bold-duotone">
<g id="Group">
<path id="Vector" opacity="0.3" fill-rule="evenodd" clip-rule="evenodd" d="M16.3333 25.6673H11.6666C7.26715 25.6673 5.06681 25.6673 3.70065 24.3C2.33331 22.9338 2.33331 20.7335 2.33331 16.334V11.6673C2.33331 7.26782 2.33331 5.06748 3.70065 3.70132C5.06681 2.33398 7.27881 2.33398 11.7016 2.33398C12.4086 2.33398 12.9745 2.33398 13.4516 2.35382C13.4365 2.44715 13.4283 2.54165 13.4283 2.63848L13.4166 5.94482C13.4166 7.22465 13.4166 8.35632 13.5391 9.26748C13.6721 10.2557 13.9766 11.2438 14.784 12.0512C15.589 12.8562 16.5783 13.1618 17.5665 13.2948C18.4776 13.4173 19.6093 13.4173 20.8891 13.4173H25.6165C25.6666 14.0403 25.6666 14.8057 25.6666 15.8242V16.334C25.6666 20.7335 25.6666 22.9338 24.2993 24.3C22.9331 25.6673 20.7328 25.6673 16.3333 25.6673Z" fill="#FF404E"/>
<path id="Vector_2" d="M13.4283 2.63734L13.4166 5.94484C13.4166 7.22468 13.4166 8.35518 13.5391 9.26751C13.6721 10.2557 13.9766 11.2438 14.784 12.05C15.589 12.8562 16.5783 13.1618 17.5665 13.2948C18.4776 13.4173 19.6093 13.4173 20.8891 13.4173H25.6165C25.6316 13.5982 25.6421 13.7918 25.6491 14.0007H25.6666C25.6666 13.688 25.6666 13.5317 25.655 13.3473C25.5651 12.2387 25.1791 11.1746 24.5373 10.2662C24.4276 10.1168 24.353 10.0282 24.2048 9.84968C23.2796 8.74368 22.0616 7.36468 21 6.41734C20.055 5.57268 18.7588 4.64984 17.6283 3.89501C16.6576 3.24751 16.1723 2.92318 15.5061 2.68168C15.3123 2.61273 15.1153 2.55316 14.9158 2.50318C14.4678 2.39234 14.0315 2.35384 13.4166 2.33984L13.4283 2.63734Z" fill="#FF404E"/>
<g id="Vector_3">
<path d="M6.38128 16.2993C6.54538 16.1352 6.76794 16.043 7 16.043H16.3333C16.5654 16.043 16.788 16.1352 16.9521 16.2993C17.1161 16.4633 17.2083 16.6859 17.2083 16.918C17.2083 17.15 17.1161 17.3726 16.9521 17.5367C16.788 17.7008 16.5654 17.793 16.3333 17.793H7C6.76794 17.793 6.54538 17.7008 6.38128 17.5367C6.21719 17.3726 6.125 17.15 6.125 16.918C6.125 16.6859 6.21719 16.4633 6.38128 16.2993Z" fill="white"/>
<path d="M6.38128 20.3826C6.54538 20.2185 6.76794 20.1263 7 20.1263H13.4167C13.6487 20.1263 13.8713 20.2185 14.0354 20.3826C14.1995 20.5467 14.2917 20.7692 14.2917 21.0013C14.2917 21.2334 14.1995 21.4559 14.0354 21.62C13.8713 21.7841 13.6487 21.8763 13.4167 21.8763H7C6.76794 21.8763 6.54538 21.7841 6.38128 21.62C6.21719 21.4559 6.125 21.2334 6.125 21.0013C6.125 20.7692 6.21719 20.5467 6.38128 20.3826Z" fill="white"/>
</g>
</g>
</g>
</svg>
