<svg width="32" height="32" viewBox="0 0 32 32" fill="none" xmlns="http://www.w3.org/2000/svg">
<g id="solar:videocamera-add-bold-duotone">
<g id="Group">
<path id="Vector" opacity="0.2" d="M1.18518 15.2595C1.18518 10.3899 1.18518 7.95436 2.53037 6.31436C2.77643 6.01458 3.05133 5.73969 3.35111 5.49362C4.99259 4.14844 7.42518 4.14844 12.2963 4.14844C17.1659 4.14844 19.6015 4.14844 21.2415 5.49362C21.5413 5.73969 21.8162 6.01458 22.0622 6.31436C23.4074 7.95584 23.4074 10.3884 23.4074 15.2595V16.741C23.4074 21.6107 23.4074 24.0462 22.0622 25.6862C21.8161 25.986 21.5413 26.2609 21.2415 26.507C19.6 27.8521 17.1674 27.8521 12.2963 27.8521C7.42666 27.8521 4.99111 27.8521 3.35111 26.507C3.05133 26.2609 2.77643 25.986 2.53037 25.6862C1.18518 24.0447 1.18518 21.6121 1.18518 16.741V15.2595Z" fill="white"/>
<path id="Vector_2" d="M23.4074 12.2968L24.3822 11.8094C27.2652 10.3679 28.7081 9.64641 29.76 10.2983C30.8148 10.9501 30.8148 12.562 30.8148 15.7842V16.2168C30.8148 19.4405 30.8148 21.0509 29.7615 21.7027C28.7067 22.3546 27.2652 21.6331 24.3837 20.1916L23.4074 19.7042V12.2968ZM13.4074 12.2968C13.4074 12.0021 13.2903 11.7195 13.082 11.5111C12.8736 11.3027 12.591 11.1857 12.2963 11.1857C12.0016 11.1857 11.719 11.3027 11.5106 11.5111C11.3022 11.7195 11.1852 12.0021 11.1852 12.2968V14.8894H8.59259C8.2979 14.8894 8.01529 15.0064 7.80691 15.2148C7.59854 15.4232 7.48148 15.7058 7.48148 16.0005C7.48148 16.2952 7.59854 16.5778 7.80691 16.7862C8.01529 16.9945 8.2979 17.1116 8.59259 17.1116H11.1852V19.7042C11.1852 19.9989 11.3022 20.2815 11.5106 20.4899C11.719 20.6982 12.0016 20.8153 12.2963 20.8153C12.591 20.8153 12.8736 20.6982 13.082 20.4899C13.2903 20.2815 13.4074 19.9989 13.4074 19.7042V17.1116H16C16.2947 17.1116 16.5773 16.9945 16.7857 16.7862C16.994 16.5778 17.1111 16.2952 17.1111 16.0005C17.1111 15.7058 16.994 15.4232 16.7857 15.2148C16.5773 15.0064 16.2947 14.8894 16 14.8894H13.4074V12.2968Z" fill="white"/>
</g>
</g>
</svg>
