<svg width="28" height="28" viewBox="0 0 28 28" fill="none" xmlns="http://www.w3.org/2000/svg">
<g id="solar:bill-list-bold-duotone">
<g id="Group">
<path id="Vector" opacity="0.3" d="M8.4525 2.33398H19.5475C20.8997 2.33398 21.5752 2.33398 22.1212 2.52415C22.636 2.7066 23.1018 3.0053 23.4824 3.39703C23.863 3.78876 24.1481 4.26297 24.3157 4.78282C24.5 5.34515 24.5 6.04048 24.5 7.43232V23.7703C24.5 24.7713 23.3508 25.3033 22.624 24.6383C22.4201 24.4499 22.1526 24.3453 21.875 24.3453C21.5974 24.3453 21.3299 24.4499 21.126 24.6383L20.5625 25.154C20.2053 25.4843 19.7366 25.6678 19.25 25.6678C18.7634 25.6678 18.2947 25.4843 17.9375 25.154C17.5803 24.8236 17.1116 24.6401 16.625 24.6401C16.1384 24.6401 15.6697 24.8236 15.3125 25.154C14.9553 25.4843 14.4866 25.6678 14 25.6678C13.5134 25.6678 13.0447 25.4843 12.6875 25.154C12.3303 24.8236 11.8616 24.6401 11.375 24.6401C10.8884 24.6401 10.4197 24.8236 10.0625 25.154C9.70526 25.4843 9.23658 25.6678 8.75 25.6678C8.26342 25.6678 7.79474 25.4843 7.4375 25.154L6.874 24.6383C6.67008 24.4499 6.40264 24.3453 6.125 24.3453C5.84736 24.3453 5.57992 24.4499 5.376 24.6383C4.64917 25.3033 3.5 24.7713 3.5 23.7703V7.43232C3.5 6.04048 3.5 5.34398 3.68433 4.78398C4.03433 3.71882 4.84517 2.88348 5.87883 2.52415C6.42483 2.33398 7.10033 2.33398 8.4525 2.33398Z" fill="#FF404E"/>
<path id="Vector_2" d="M8.16663 7.875C7.93456 7.875 7.712 7.96719 7.54791 8.13128C7.38381 8.29538 7.29163 8.51794 7.29163 8.75C7.29163 8.98206 7.38381 9.20462 7.54791 9.36872C7.712 9.53281 7.93456 9.625 8.16663 9.625H8.74996C8.98202 9.625 9.20458 9.53281 9.36868 9.36872C9.53277 9.20462 9.62496 8.98206 9.62496 8.75C9.62496 8.51794 9.53277 8.29538 9.36868 8.13128C9.20458 7.96719 8.98202 7.875 8.74996 7.875H8.16663ZM8.16663 11.9583C7.93456 11.9583 7.712 12.0505 7.54791 12.2146C7.38381 12.3787 7.29163 12.6013 7.29163 12.8333C7.29163 13.0654 7.38381 13.288 7.54791 13.4521C7.712 13.6161 7.93456 13.7083 8.16663 13.7083H8.74996C8.98202 13.7083 9.20458 13.6161 9.36868 13.4521C9.53277 13.288 9.62496 13.0654 9.62496 12.8333C9.62496 12.6013 9.53277 12.3787 9.36868 12.2146C9.20458 12.0505 8.98202 11.9583 8.74996 11.9583H8.16663ZM8.16663 16.0417C7.93456 16.0417 7.712 16.1339 7.54791 16.2979C7.38381 16.462 7.29163 16.6846 7.29163 16.9167C7.29163 17.1487 7.38381 17.3713 7.54791 17.5354C7.712 17.6995 7.93456 17.7917 8.16663 17.7917H8.74996C8.98202 17.7917 9.20458 17.6995 9.36868 17.5354C9.53277 17.3713 9.62496 17.1487 9.62496 16.9167C9.62496 16.6846 9.53277 16.462 9.36868 16.2979C9.20458 16.1339 8.98202 16.0417 8.74996 16.0417H8.16663Z" fill="white"/>
<g id="Vector_3">
<path d="M11.6313 8.13128C11.7954 7.96719 12.0179 7.875 12.25 7.875H19.8333C20.0654 7.875 20.288 7.96719 20.4521 8.13128C20.6161 8.29538 20.7083 8.51794 20.7083 8.75C20.7083 8.98206 20.6161 9.20462 20.4521 9.36872C20.288 9.53281 20.0654 9.625 19.8333 9.625H12.25C12.0179 9.625 11.7954 9.53281 11.6313 9.36872C11.4672 9.20462 11.375 8.98206 11.375 8.75C11.375 8.51794 11.4672 8.29538 11.6313 8.13128Z" fill="#FF404E"/>
<path d="M11.6313 12.2146C11.7954 12.0505 12.0179 11.9583 12.25 11.9583H19.8333C20.0654 11.9583 20.288 12.0505 20.4521 12.2146C20.6161 12.3787 20.7083 12.6013 20.7083 12.8333C20.7083 13.0654 20.6161 13.288 20.4521 13.4521C20.288 13.6161 20.0654 13.7083 19.8333 13.7083H12.25C12.0179 13.7083 11.7954 13.6161 11.6313 13.4521C11.4672 13.288 11.375 13.0654 11.375 12.8333C11.375 12.6013 11.4672 12.3787 11.6313 12.2146Z" fill="#FF404E"/>
<path d="M11.6313 16.2979C11.7954 16.1339 12.0179 16.0417 12.25 16.0417H19.8333C20.0654 16.0417 20.288 16.1339 20.4521 16.2979C20.6161 16.462 20.7083 16.6846 20.7083 16.9167C20.7083 17.1487 20.6161 17.3713 20.4521 17.5354C20.288 17.6995 20.0654 17.7917 19.8333 17.7917H12.25C12.0179 17.7917 11.7954 17.6995 11.6313 17.5354C11.4672 17.3713 11.375 17.1487 11.375 16.9167C11.375 16.6846 11.4672 16.462 11.6313 16.2979Z" fill="#FF404E"/>
</g>
</g>
</g>
</svg>
