<svg width="36" height="36" viewBox="0 0 36 36" fill="none" xmlns="http://www.w3.org/2000/svg">
<g id="Frame 3031">
<g id="Group">
<path id="Vector" opacity="0.1" fill-rule="evenodd" clip-rule="evenodd" d="M21 33H15C9.3435 33 6.5145 33 4.758 31.242C3 29.4855 3 26.6565 3 21V15C3 9.3435 3 6.5145 4.758 4.758C6.5145 3 9.3585 3 15.045 3C15.954 3 16.6815 3 17.295 3.0255C17.2755 3.1455 17.265 3.267 17.265 3.3915L17.25 7.6425C17.25 9.288 17.25 10.743 17.4075 11.9145C17.5785 13.185 17.97 14.4555 19.008 15.4935C20.043 16.5285 21.315 16.9215 22.5855 17.0925C23.757 17.25 25.212 17.25 26.8575 17.25H32.9355C33 18.051 33 19.035 33 20.3445V21C33 26.6565 33 29.4855 31.242 31.242C29.4855 33 26.6565 33 21 33Z" fill="#3617CE"/>
<path id="Vector_2" opacity="0.3" d="M12 21.7503C12 22.9923 11.328 24.0003 10.5 24.0003C9.672 24.0003 9 22.9923 9 21.7503C9 20.5083 9.672 19.5003 10.5 19.5003C11.328 19.5003 12 20.5083 12 21.7503ZM27 21.7503C27 22.9923 26.328 24.0003 25.5 24.0003C24.672 24.0003 24 22.9923 24 21.7503C24 20.5083 24.672 19.5003 25.5 19.5003C26.328 19.5003 27 20.5083 27 21.7503ZM17.265 3.39031L17.25 7.64281C17.25 9.28831 17.25 10.7418 17.4075 11.9148C17.5785 13.1853 17.97 14.4558 19.008 15.4923C20.043 16.5288 21.315 16.9218 22.5855 17.0928C23.757 17.2503 25.212 17.2503 26.8575 17.2503H32.9355C32.955 17.4828 32.9685 17.7318 32.9775 18.0003H33C33 17.5983 33 17.3973 32.985 17.1603C32.8695 15.7349 32.3732 14.3668 31.548 13.1988C31.407 13.0068 31.311 12.8928 31.1205 12.6633C29.931 11.2413 28.365 9.46831 27 8.25031C25.785 7.16431 24.1185 5.97781 22.665 5.00731C21.417 4.17481 20.793 3.75781 19.9365 3.44731C19.6873 3.35866 19.434 3.28208 19.1775 3.21781C18.6015 3.07531 18.0405 3.02581 17.25 3.00781L17.265 3.39031Z" fill="#3617CE"/>
<path id="Vector_3" opacity="0.3" d="M22.7374 28.7005C22.4473 28.7602 22.1453 28.703 21.897 28.5414C20.7492 27.7762 19.4006 27.3678 18.021 27.3678C16.6415 27.3678 15.2928 27.7762 14.145 28.5414C14.0222 28.6253 13.8839 28.684 13.7382 28.7141C13.5924 28.7442 13.4422 28.745 13.2962 28.7167C13.1501 28.6883 13.0112 28.6312 12.8873 28.5488C12.7635 28.4663 12.6572 28.3601 12.5747 28.2363C12.4922 28.1126 12.435 27.9736 12.4065 27.8276C12.3781 27.6816 12.3788 27.5313 12.4088 27.3856C12.4388 27.2399 12.4974 27.1016 12.5812 26.9786C12.665 26.8557 12.7723 26.7506 12.897 26.6694C14.4144 25.6578 16.1973 25.1179 18.021 25.1179C19.8447 25.1179 21.6276 25.6578 23.145 26.6694C23.3897 26.8365 23.5586 27.0932 23.6151 27.384C23.6716 27.6748 23.6111 27.9761 23.4468 28.2226C23.2825 28.4691 23.0276 28.6408 22.7374 28.7005Z" fill="#3617CE"/>
</g>
</g>
</svg>
