<svg width="28" height="28" viewBox="0 0 28 28" fill="none" xmlns="http://www.w3.org/2000/svg">
<g id="solar:calculator-minimalistic-bold-duotone">
<g id="Group">
<path id="Vector" opacity="0.3" d="M4.04131 23.9582C5.75165 25.6673 8.50031 25.6673 14 25.6673C19.4996 25.6673 22.2495 25.6673 23.9575 23.9582C25.6666 22.2513 25.6666 19.5003 25.6666 14.0007C25.6666 8.50098 25.6666 5.75115 23.9575 4.04198C22.2506 2.33398 19.4996 2.33398 14 2.33398C8.50031 2.33398 5.75048 2.33398 4.04131 4.04198C2.33331 5.75232 2.33331 8.50098 2.33331 14.0007C2.33331 19.5003 2.33331 22.2502 4.04131 23.9582Z" fill="#FF404E"/>
<path id="Vector_2" fill-rule="evenodd" clip-rule="evenodd" d="M15.4583 9.91797C15.4583 9.6859 15.5505 9.46334 15.7146 9.29925C15.8787 9.13516 16.1013 9.04297 16.3333 9.04297H21C21.2321 9.04297 21.4546 9.13516 21.6187 9.29925C21.7828 9.46334 21.875 9.6859 21.875 9.91797C21.875 10.15 21.7828 10.3726 21.6187 10.5367C21.4546 10.7008 21.2321 10.793 21 10.793H16.3333C16.1013 10.793 15.8787 10.7008 15.7146 10.5367C15.5505 10.3726 15.4583 10.15 15.4583 9.91797ZM6.965 16.2996C7.12907 16.1358 7.35146 16.0437 7.58334 16.0437C7.81521 16.0437 8.03761 16.1358 8.20167 16.2996L9.33334 17.4313L10.465 16.2996C10.5451 16.2137 10.6417 16.1447 10.749 16.0969C10.8564 16.0491 10.9722 16.0234 11.0897 16.0213C11.2072 16.0192 11.3239 16.0408 11.4329 16.0848C11.5418 16.1288 11.6408 16.1943 11.7239 16.2774C11.807 16.3605 11.8725 16.4595 11.9165 16.5684C11.9605 16.6774 11.9821 16.7941 11.98 16.9116C11.978 17.0291 11.9522 17.1449 11.9044 17.2523C11.8566 17.3596 11.7876 17.4562 11.7017 17.5363L10.57 18.668L11.7017 19.7996C11.7876 19.8797 11.8566 19.9763 11.9044 20.0837C11.9522 20.191 11.978 20.3069 11.98 20.4244C11.9821 20.5418 11.9605 20.6585 11.9165 20.7675C11.8725 20.8765 11.807 20.9754 11.7239 21.0585C11.6408 21.1416 11.5418 21.2071 11.4329 21.2511C11.3239 21.2951 11.2072 21.3167 11.0897 21.3147C10.9722 21.3126 10.8564 21.2869 10.749 21.239C10.6417 21.1912 10.5451 21.1223 10.465 21.0363L9.33334 19.9046L8.20167 21.0363C8.0358 21.1909 7.81641 21.275 7.58973 21.271C7.36304 21.267 7.14676 21.1752 6.98644 21.0149C6.82613 20.8545 6.7343 20.6383 6.7303 20.4116C6.7263 20.1849 6.81044 19.9655 6.965 19.7996L8.09667 18.668L6.965 17.5363C6.80114 17.3722 6.70911 17.1498 6.70911 16.918C6.70911 16.6861 6.80114 16.4637 6.965 16.2996Z" fill="#FF404E"/>
<g id="Vector_3">
<path d="M9.95205 6.96527C9.78796 6.80117 9.5654 6.70898 9.33333 6.70898C9.10127 6.70898 8.87871 6.80117 8.71461 6.96527C8.55052 7.12936 8.45833 7.35192 8.45833 7.58398V9.04232H7C6.76794 9.04232 6.54538 9.1345 6.38128 9.2986C6.21719 9.46269 6.125 9.68525 6.125 9.91732C6.125 10.1494 6.21719 10.3719 6.38128 10.536C6.54538 10.7001 6.76794 10.7923 7 10.7923H8.45833V12.2507C8.45833 12.4827 8.55052 12.7053 8.71461 12.8694C8.87871 13.0335 9.10127 13.1257 9.33333 13.1257C9.5654 13.1257 9.78796 13.0335 9.95205 12.8694C10.1161 12.7053 10.2083 12.4827 10.2083 12.2507V10.7923H11.6667C11.8987 10.7923 12.1213 10.7001 12.2854 10.536C12.4495 10.3719 12.5417 10.1494 12.5417 9.91732C12.5417 9.68525 12.4495 9.46269 12.2854 9.2986C12.1213 9.1345 11.8987 9.04232 11.6667 9.04232H10.2083V7.58398C10.2083 7.35192 10.1161 7.12936 9.95205 6.96527Z" fill="white"/>
<path d="M15.7146 16.2986C15.5505 16.4627 15.4583 16.6853 15.4583 16.9173C15.4583 17.1494 15.5505 17.3719 15.7146 17.536C15.8787 17.7001 16.1013 17.7923 16.3333 17.7923H21C21.2321 17.7923 21.4546 17.7001 21.6187 17.536C21.7828 17.3719 21.875 17.1494 21.875 16.9173C21.875 16.6853 21.7828 16.4627 21.6187 16.2986C21.4546 16.1345 21.2321 16.0423 21 16.0423H16.3333C16.1013 16.0423 15.8787 16.1345 15.7146 16.2986Z" fill="white"/>
<path d="M15.7146 19.7986C15.5505 19.9627 15.4583 20.1853 15.4583 20.4173C15.4583 20.6494 15.5505 20.8719 15.7146 21.036C15.8787 21.2001 16.1013 21.2923 16.3333 21.2923H21C21.2321 21.2923 21.4546 21.2001 21.6187 21.036C21.7828 20.8719 21.875 20.6494 21.875 20.4173C21.875 20.1853 21.7828 19.9627 21.6187 19.7986C21.4546 19.6345 21.2321 19.5423 21 19.5423H16.3333C16.1013 19.5423 15.8787 19.6345 15.7146 19.7986Z" fill="white"/>
</g>
</g>
</g>
</svg>
