<svg width="18" height="19" viewBox="0 0 18 19" fill="none" xmlns="http://www.w3.org/2000/svg">
<g id="ic:round-home">
<path id="Vector" d="M7.23923 10.7166H6.6524V11.3034V15.7046C6.6524 15.8647 6.51902 15.9981 6.35898 15.9981H3.71823C3.55819 15.9981 3.42481 15.8647 3.42481 15.7046V9.54288V8.95605H2.83798H1.7292L8.80126 2.58611C8.80144 2.58595 8.80162 2.58579 8.8018 2.58563C8.91335 2.48632 9.08613 2.48632 9.19768 2.58564C9.19785 2.5858 9.19803 2.58596 9.1982 2.58611L16.2703 8.95605H15.1615H14.5747V9.54288V15.7046C14.5747 15.8647 14.4413 15.9981 14.2812 15.9981H11.6405C11.4804 15.9981 11.3471 15.8647 11.3471 15.7046V11.3034V10.7166H10.7602H7.23923Z" stroke="#666666" stroke-width="1.17367"/>
</g>
</svg>
