<svg width="30" height="30" viewBox="0 0 30 30" fill="none" xmlns="http://www.w3.org/2000/svg">
<g id="Frame 2607">
<path id="Rectangle 6258" d="M1 13C1 9.68629 3.68629 7 7 7H21C24.3137 7 27 9.68629 27 13V23C27 24.6569 25.6569 26 24 26H4C2.34315 26 1 24.6569 1 23V13Z" fill="white"/>
<path id="Rectangle 6256" d="M8 7H21C24.3137 7 27 9.68629 27 13V23C27 24.6569 25.6569 26 24 26H14" stroke="black" stroke-width="1.5" stroke-linecap="round"/>
<path id="Rectangle 6257" d="M1 19.5V23C1 24.6569 2.34315 26 4 26H13V13C13 9.68629 10.3137 7 7 7V7V7C3.68629 7 1 9.68629 1 13V13.75" stroke="black" stroke-width="1.5" stroke-linecap="round"/>
<path id="Vector 64" d="M5 21H9" stroke="#3617CE" stroke-width="1.5" stroke-linecap="round"/>
<path id="Vector 65" d="M9 26L9 29" stroke="black" stroke-width="1.5" stroke-linecap="round"/>
<path id="Vector 66" d="M19 26L19 29" stroke="black" stroke-width="1.5" stroke-linecap="round"/>
<path id="Vector" opacity="0.6" d="M21.735 8.09098L21.3083 8.17765V13.3358C21.3114 13.4905 21.284 13.6442 21.2276 13.7883C21.1712 13.9323 21.087 14.0638 20.9797 14.1753C20.8724 14.2867 20.7442 14.3759 20.6024 14.4378C20.4606 14.4997 20.308 14.5329 20.1533 14.5358C19.5167 14.5358 19 13.9991 19 13.3375V2.74947C19 1.7995 19.65 0.979521 20.55 0.799526L21.2983 0.649531C22.4158 0.42611 23.5741 0.533255 24.6317 0.957855L24.7533 1.00785C25.3883 1.26118 26.0817 1.30951 26.7417 1.14285C27.8933 0.854525 29 1.76117 29 2.99113V6.54103C29 7.47433 28.385 8.28598 27.5117 8.5043L27.41 8.5293C26.2117 8.82929 24.9517 8.7443 23.8017 8.28264C23.146 8.01927 22.4279 7.95266 21.735 8.09098Z" fill="#3617CE"/>
</g>
</svg>
