<svg width="28" height="28" viewBox="0 0 28 28" fill="none" xmlns="http://www.w3.org/2000/svg">
<g id="solar:bill-check-bold-duotone">
<g id="Group">
<path id="Vector" opacity="0.3" d="M8.4525 2.33337H19.5475C20.8997 2.33337 21.5752 2.33337 22.1212 2.52354C22.636 2.70599 23.1018 3.00469 23.4824 3.39642C23.863 3.78815 24.1481 4.26236 24.3157 4.78221C24.5 5.34454 24.5 6.03987 24.5 7.43171V23.7697C24.5 24.7707 23.3508 25.3027 22.624 24.6377C22.4201 24.4493 22.1526 24.3446 21.875 24.3446C21.5974 24.3446 21.3299 24.4493 21.126 24.6377L20.5625 25.1534C20.2053 25.4837 19.7366 25.6672 19.25 25.6672C18.7634 25.6672 18.2947 25.4837 17.9375 25.1534C17.5803 24.823 17.1116 24.6395 16.625 24.6395C16.1384 24.6395 15.6697 24.823 15.3125 25.1534C14.9553 25.4837 14.4866 25.6672 14 25.6672C13.5134 25.6672 13.0447 25.4837 12.6875 25.1534C12.3303 24.823 11.8616 24.6395 11.375 24.6395C10.8884 24.6395 10.4197 24.823 10.0625 25.1534C9.70526 25.4837 9.23658 25.6672 8.75 25.6672C8.26342 25.6672 7.79474 25.4837 7.4375 25.1534L6.874 24.6377C6.67008 24.4493 6.40264 24.3446 6.125 24.3446C5.84736 24.3446 5.57992 24.4493 5.376 24.6377C4.64917 25.3027 3.5 24.7707 3.5 23.7697V7.43171C3.5 6.03987 3.5 5.34337 3.68433 4.78337C4.03433 3.71821 4.84517 2.88287 5.87883 2.52354C6.42483 2.33337 7.10033 2.33337 8.4525 2.33337Z" fill="#3617CE"/>
<path id="Vector_2" d="M8.75 17.2084C8.51794 17.2084 8.29538 17.3006 8.13128 17.4647C7.96719 17.6288 7.875 17.8513 7.875 18.0834C7.875 18.3154 7.96719 18.538 8.13128 18.7021C8.29538 18.8662 8.51794 18.9584 8.75 18.9584H19.25C19.4821 18.9584 19.7046 18.8662 19.8687 18.7021C20.0328 18.538 20.125 18.3154 20.125 18.0834C20.125 17.8513 20.0328 17.6288 19.8687 17.4647C19.7046 17.3006 19.4821 17.2084 19.25 17.2084H8.75Z" fill="#3617CE"/>
<path id="Vector_3" d="M17.7437 9.62228C17.7058 9.73087 17.6468 9.83091 17.5702 9.91671L13.4029 14.5834C13.3208 14.6753 13.2202 14.7489 13.1077 14.7993C12.9952 14.8496 12.8734 14.8757 12.7501 14.8757C12.6269 14.8757 12.505 14.8496 12.3925 14.7993C12.28 14.7489 12.1794 14.6753 12.0974 14.5834L10.4314 12.7167C10.2782 12.5435 10.1999 12.3167 10.2134 12.086C10.2269 11.8552 10.3313 11.6391 10.5036 11.485C10.6759 11.3309 10.9022 11.2512 11.1331 11.2634C11.3639 11.2756 11.5806 11.3786 11.7357 11.55L12.7507 12.6864L16.2635 8.75004C16.3401 8.66424 16.4329 8.59438 16.5365 8.54443C16.6401 8.49447 16.7525 8.46542 16.8674 8.45892C16.9822 8.45242 17.0972 8.4686 17.2058 8.50654C17.3143 8.54448 17.4144 8.60344 17.5002 8.68004C17.586 8.75665 17.6559 8.8494 17.7058 8.95301C17.7558 9.05661 17.7848 9.16904 17.7913 9.28388C17.7978 9.39871 17.7816 9.5137 17.7437 9.62228Z" fill="white"/>
</g>
</g>
</svg>
