<svg width="20" height="20" viewBox="0 0 20 20" fill="none" xmlns="http://www.w3.org/2000/svg">
<g id="solar:info-square-broken" clip-path="url(#clip0_1149_9979)">
<g id="Group">
<path id="Vector" d="M10 14.166V9.16602" stroke="white" stroke-width="1.5" stroke-linecap="round"/>
<path id="Vector_2" d="M10.0001 5.83333C10.4603 5.83333 10.8334 6.20643 10.8334 6.66667C10.8334 7.1269 10.4603 7.5 10.0001 7.5C9.53984 7.5 9.16675 7.1269 9.16675 6.66667C9.16675 6.20643 9.53984 5.83333 10.0001 5.83333Z" fill="white"/>
<path id="Vector_3" d="M18.3334 9.99935C18.3334 13.9277 18.3334 15.8918 17.1126 17.1118C15.8934 18.3327 13.9284 18.3327 10.0001 18.3327C6.07175 18.3327 4.10758 18.3327 2.88675 17.1118C1.66675 15.8927 1.66675 13.9277 1.66675 9.99935C1.66675 6.07102 1.66675 4.10685 2.88675 2.88602C4.10841 1.66602 6.07175 1.66602 10.0001 1.66602C13.9284 1.66602 15.8926 1.66602 17.1126 2.88602C17.9242 3.69768 18.1959 4.83852 18.2876 6.66602" stroke="white" stroke-width="1.5" stroke-linecap="round"/>
</g>
</g>
<defs>
<clipPath id="clip0_1149_9979">
<rect width="20" height="20" fill="white"/>
</clipPath>
</defs>
</svg>
