<svg width="30" height="30" viewBox="0 0 30 30" fill="none" xmlns="http://www.w3.org/2000/svg">
<g id="uil:comment-info">
<path id="Vector" d="M14.9649 2.5C16.6064 2.5 18.2319 2.82332 19.7484 3.45151C21.265 4.07969 22.643 5.00043 23.8037 6.16117C26.1479 8.50537 27.4649 11.6848 27.4649 15C27.4758 17.8864 26.4764 20.6857 24.6399 22.9125L27.1399 25.4125C27.3133 25.5883 27.4308 25.8115 27.4775 26.054C27.5243 26.2965 27.4981 26.5474 27.4024 26.775C27.2986 26.9999 27.1303 27.1889 26.9188 27.318C26.7074 27.4471 26.4624 27.5104 26.2149 27.5H14.9649C11.6497 27.5 8.47026 26.183 6.12605 23.8388C3.78185 21.4946 2.46489 18.3152 2.46489 15C2.46489 11.6848 3.78185 8.50537 6.12605 6.16117C8.47026 3.81696 11.6497 2.5 14.9649 2.5Z" fill="#EF647D"/>
<g id="Vector_2">
<path d="M15.8485 14.1161C15.6141 13.8817 15.2961 13.75 14.9646 13.75C14.6331 13.75 14.3151 13.8817 14.0807 14.1161C13.8463 14.3505 13.7146 14.6685 13.7146 15V18.75C13.7146 19.0815 13.8463 19.3995 14.0807 19.6339C14.3151 19.8683 14.6331 20 14.9646 20C15.2961 20 15.6141 19.8683 15.8485 19.6339C16.0829 19.3995 16.2146 19.0815 16.2146 18.75V15C16.2146 14.6685 16.0829 14.3505 15.8485 14.1161Z" fill="white"/>
<path d="M15.6591 10.2107C15.4535 10.0733 15.2118 10 14.9646 10C14.6331 10 14.3151 10.1317 14.0807 10.3661C13.8463 10.6005 13.7146 10.9185 13.7146 11.25C13.7146 11.4972 13.7879 11.7389 13.9253 11.9445C14.0626 12.15 14.2578 12.3102 14.4862 12.4048C14.7147 12.4995 14.966 12.5242 15.2085 12.476C15.4509 12.4278 15.6737 12.3087 15.8485 12.1339C16.0233 11.9591 16.1423 11.7363 16.1906 11.4939C16.2388 11.2514 16.2141 11.0001 16.1194 10.7716C16.0248 10.5432 15.8646 10.348 15.6591 10.2107Z" fill="white"/>
</g>
</g>
</svg>
