<svg width="28" height="28" viewBox="0 0 28 28" fill="none" xmlns="http://www.w3.org/2000/svg">
<g id="solar:copy-bold-duotone">
<g id="Group">
<path id="Vector" d="M7.7002 13.2965C7.7002 10.1162 7.7002 8.52602 8.6837 7.53785C9.66836 6.54968 11.2515 6.54968 14.4202 6.54968H17.7802C20.9477 6.54968 22.5309 6.54968 23.5155 7.53785C24.5002 8.52602 24.5002 10.1162 24.5002 13.2965V18.9198C24.5002 22.1002 24.5002 23.6903 23.5155 24.6785C22.532 25.6667 20.9477 25.6667 17.7802 25.6667H14.4202C11.2515 25.6667 9.66836 25.6667 8.6837 24.6785C7.7002 23.6903 7.7002 22.1002 7.7002 18.9198V13.2965Z" fill="#3617CE"/>
<path id="Vector_2" opacity="0.3" d="M4.86733 3.70071C3.5 5.06687 3.5 7.26721 3.5 11.6667V14C3.5 18.3995 3.5 20.5999 4.86733 21.966C5.58717 22.687 6.53917 23.0277 7.924 23.1887C7.7 22.2087 7.7 20.86 7.7 18.9187V13.2965C7.7 10.1162 7.7 8.52604 8.6835 7.53787C9.66817 6.54971 11.2513 6.54971 14.42 6.54971H17.78C19.7073 6.54971 21.0467 6.54971 22.0243 6.77137C21.8633 5.37954 21.5227 4.42404 20.7993 3.70071C19.4332 2.33337 17.2328 2.33337 12.8333 2.33337C8.43383 2.33337 6.2335 2.33337 4.86733 3.70071Z" fill="#3617CE"/>
</g>
<g id="Vector_3">
<path d="M13.3813 16.2979C13.2172 16.462 13.125 16.6846 13.125 16.9166C13.125 17.1487 13.2172 17.3712 13.3813 17.5353C13.5454 17.6994 13.7679 17.7916 14 17.7916H18.6667C18.8987 17.7916 19.1213 17.6994 19.2854 17.5353C19.4495 17.3712 19.5417 17.1487 19.5417 16.9166C19.5417 16.6846 19.4495 16.462 19.2854 16.2979C19.1213 16.1338 18.8987 16.0416 18.6667 16.0416H14C13.7679 16.0416 13.5454 16.1338 13.3813 16.2979Z" fill="white"/>
<path d="M13.3813 19.7979C13.2172 19.962 13.125 20.1846 13.125 20.4166C13.125 20.6487 13.2172 20.8713 13.3813 21.0353C13.5454 21.1994 13.7679 21.2916 14 21.2916H18.6667C18.8987 21.2916 19.1213 21.1994 19.2854 21.0353C19.4495 20.8713 19.5417 20.6487 19.5417 20.4166C19.5417 20.1846 19.4495 19.962 19.2854 19.7979C19.1213 19.6338 18.8987 19.5416 18.6667 19.5416H14C13.7679 19.5416 13.5454 19.6338 13.3813 19.7979Z" fill="white"/>
</g>
</g>
</svg>
