<svg width="28" height="28" viewBox="0 0 28 28" fill="none" xmlns="http://www.w3.org/2000/svg">
<g id="solar:copy-bold-duotone">
<g id="Group">
<path id="Vector" d="M7.69995 13.2976C7.69995 10.1173 7.69995 8.52711 8.68345 7.53895C9.66812 6.55078 11.2513 6.55078 14.42 6.55078H17.78C20.9475 6.55078 22.5306 6.55078 23.5153 7.53895C24.5 8.52711 24.5 10.1173 24.5 13.2976V18.9209C24.5 22.1013 24.5 23.6914 23.5153 24.6796C22.5318 25.6678 20.9475 25.6678 17.78 25.6678H14.42C11.2513 25.6678 9.66812 25.6678 8.68345 24.6796C7.69995 23.6914 7.69995 22.1013 7.69995 18.9209V13.2976Z" fill="#FF404E"/>
<path id="Vector_2" opacity="0.3" d="M4.86733 3.70132C3.5 5.06748 3.5 7.26782 3.5 11.6673V14.0007C3.5 18.4002 3.5 20.6005 4.86733 21.9667C5.58717 22.6877 6.53917 23.0283 7.924 23.1893C7.7 22.2093 7.7 20.8607 7.7 18.9193V13.2972C7.7 10.1168 7.7 8.52665 8.6835 7.53848C9.66817 6.55032 11.2513 6.55032 14.42 6.55032H17.78C19.7073 6.55032 21.0467 6.55032 22.0243 6.77198C21.8633 5.38015 21.5227 4.42465 20.7993 3.70132C19.4332 2.33398 17.2328 2.33398 12.8333 2.33398C8.43383 2.33398 6.2335 2.33398 4.86733 3.70132Z" fill="#FF404E"/>
</g>
<g id="Vector_3">
<path d="M13.3813 16.2973C13.2172 16.4614 13.125 16.684 13.125 16.916C13.125 17.1481 13.2172 17.3706 13.3813 17.5347C13.5454 17.6988 13.7679 17.791 14 17.791H18.6667C18.8987 17.791 19.1213 17.6988 19.2854 17.5347C19.4495 17.3706 19.5417 17.1481 19.5417 16.916C19.5417 16.684 19.4495 16.4614 19.2854 16.2973C19.1213 16.1332 18.8987 16.041 18.6667 16.041H14C13.7679 16.041 13.5454 16.1332 13.3813 16.2973Z" fill="white"/>
<path d="M13.3813 19.7973C13.2172 19.9614 13.125 20.184 13.125 20.416C13.125 20.6481 13.2172 20.8706 13.3813 21.0347C13.5454 21.1988 13.7679 21.291 14 21.291H18.6667C18.8987 21.291 19.1213 21.1988 19.2854 21.0347C19.4495 20.8706 19.5417 20.6481 19.5417 20.416C19.5417 20.184 19.4495 19.9614 19.2854 19.7973C19.1213 19.6332 18.8987 19.541 18.6667 19.541H14C13.7679 19.541 13.5454 19.6332 13.3813 19.7973Z" fill="white"/>
</g>
</g>
</svg>
