<svg width="28" height="28" viewBox="0 0 28 28" fill="none" xmlns="http://www.w3.org/2000/svg">
<g id="solar:file-check-bold-duotone">
<g id="Group">
<path id="Vector" opacity="0.3" fill-rule="evenodd" clip-rule="evenodd" d="M16.3333 25.6673H11.6666C7.26715 25.6673 5.06681 25.6673 3.70065 24.3C2.33331 22.9338 2.33331 20.7335 2.33331 16.334V11.6673C2.33331 7.26782 2.33331 5.06748 3.70065 3.70132C5.06681 2.33398 7.27881 2.33398 11.7016 2.33398C12.4086 2.33398 12.9745 2.33398 13.4516 2.35382C13.4365 2.44715 13.4283 2.54165 13.4283 2.63848L13.4166 5.94482C13.4166 7.22465 13.4166 8.35632 13.5391 9.26748C13.6721 10.2557 13.9766 11.2438 14.784 12.0512C15.589 12.8562 16.5783 13.1618 17.5665 13.2948C18.4776 13.4173 19.6093 13.4173 20.8891 13.4173H25.6165C25.6666 14.0403 25.6666 14.8057 25.6666 15.8242V16.334C25.6666 20.7335 25.6666 22.9338 24.2993 24.3C22.9331 25.6673 20.7328 25.6673 16.3333 25.6673Z" fill="#FF404E"/>
<path id="Vector_2" d="M13.4283 2.63734L13.4166 5.94484C13.4166 7.22468 13.4166 8.35518 13.5391 9.26751C13.6721 10.2557 13.9766 11.2438 14.784 12.05C15.589 12.8562 16.5783 13.1618 17.5665 13.2948C18.4776 13.4173 19.6093 13.4173 20.8891 13.4173H25.6165C25.6316 13.5982 25.6421 13.7918 25.6491 14.0007H25.6666C25.6666 13.688 25.6666 13.5317 25.655 13.3473C25.5651 12.2387 25.1791 11.1746 24.5373 10.2662C24.4276 10.1168 24.353 10.0282 24.2048 9.84968C23.2796 8.74368 22.0616 7.36468 21 6.41734C20.055 5.57268 18.7588 4.64984 17.6283 3.89501C16.6576 3.24751 16.1723 2.92318 15.5061 2.68168C15.3123 2.61273 15.1153 2.55316 14.9158 2.50318C14.4678 2.39234 14.0315 2.35384 13.4166 2.33984L13.4283 2.63734Z" fill="#FF404E"/>
<path id="Vector_3" d="M12.082 13.793C12.275 13.793 12.4602 13.8706 12.5967 14.0089C12.7332 14.1472 12.8099 14.3347 12.8099 14.5302V16.1817C12.8099 16.351 12.7524 16.5151 12.6471 16.6465C12.5417 16.7779 12.395 16.8685 12.2315 16.9033L10.7563 17.2179C10.5814 17.2553 10.3989 17.2262 10.2438 17.1361C10.0887 17.0461 9.97175 16.9013 9.91524 16.7295C9.85874 16.5577 9.86665 16.3708 9.93746 16.2045C10.0083 16.0382 10.137 15.9041 10.2992 15.8279C9.83765 15.6903 9.34554 15.6999 8.88954 15.8552C8.43354 16.0105 8.03571 16.304 7.74998 16.6961C7.46425 17.0881 7.30443 17.5597 7.2922 18.0468C7.27997 18.534 7.4159 19.0131 7.68158 19.4194C7.94727 19.8256 8.32984 20.1393 8.77746 20.3179C9.22507 20.4965 9.71608 20.5314 10.1839 20.4178C10.6518 20.3042 11.0738 20.0477 11.3928 19.6829C11.7119 19.3182 11.9125 18.8629 11.9675 18.3788C11.993 18.1877 12.0915 18.0144 12.2418 17.896C12.392 17.7775 12.5821 17.7234 12.7713 17.7453C12.9604 17.7672 13.1336 17.8632 13.2537 18.0129C13.3737 18.1626 13.4311 18.3539 13.4135 18.5459C13.3215 19.3607 12.9751 20.1244 12.4249 20.7259C11.8747 21.3274 11.1492 21.7353 10.3542 21.8902C9.55924 22.0452 8.73617 21.9391 8.00484 21.5874C7.27351 21.2356 6.6721 20.6567 6.28815 19.9347C5.90419 19.2128 5.75775 18.3856 5.87013 17.5735C5.98251 16.7614 6.34785 16.0068 6.91296 15.4196C7.47808 14.8324 8.21347 14.4432 9.01208 14.3087C9.8107 14.1742 10.6309 14.3014 11.3532 14.6718V14.5302C11.3532 14.3347 11.4298 14.1472 11.5663 14.0089C11.7028 13.8706 11.889 13.793 12.082 13.793Z" fill="white"/>
</g>
</g>
</svg>
