<svg width="30" height="30" viewBox="0 0 30 30" fill="none" xmlns="http://www.w3.org/2000/svg">
<g id="Frame 2932">
<path id="Rectangle 6258" d="M1 13C1 9.68629 3.68629 7 7 7H21C24.3137 7 27 9.68629 27 13V23C27 24.6569 25.6569 26 24 26H4C2.34315 26 1 24.6569 1 23V13Z" fill="white" fill-opacity="0.1"/>
<path id="Rectangle 6256" d="M8 7H21C24.3137 7 27 9.68629 27 13V23C27 24.6569 25.6569 26 24 26H14" stroke="white" stroke-width="1.5" stroke-linecap="round"/>
<path id="Rectangle 6257" d="M1 19.5V23C1 24.6569 2.34315 26 4 26H13V13C13 9.68629 10.3137 7 7 7V7V7C3.68629 7 1 9.68629 1 13V13.75" stroke="white" stroke-width="1.5" stroke-linecap="round"/>
<path id="Vector 64" d="M5 21H9" stroke="white" stroke-opacity="0.6" stroke-width="1.5" stroke-linecap="round"/>
<path id="Vector 65" d="M9 26L9 29" stroke="white" stroke-width="1.5" stroke-linecap="round"/>
<path id="Vector 66" d="M19 26L19 29" stroke="white" stroke-width="1.5" stroke-linecap="round"/>
<path id="Vector" opacity="0.6" d="M21.735 8.09037L21.3083 8.17704V13.3352C21.3114 13.4899 21.284 13.6436 21.2276 13.7877C21.1712 13.9317 21.087 14.0632 20.9797 14.1747C20.8724 14.2861 20.7442 14.3753 20.6024 14.4372C20.4606 14.4991 20.308 14.5323 20.1533 14.5352C19.5167 14.5352 19 13.9985 19 13.3369V2.74886C19 1.79889 19.65 0.978911 20.55 0.798916L21.2983 0.648921C22.4158 0.4255 23.5741 0.532645 24.6317 0.957245L24.7533 1.00724C25.3883 1.26057 26.0817 1.3089 26.7417 1.14224C27.8933 0.853915 29 1.76056 29 2.99052V6.54042C29 7.47372 28.385 8.28537 27.5117 8.50369L27.41 8.52869C26.2117 8.82868 24.9517 8.74369 23.8017 8.28203C23.146 8.01866 22.4279 7.95205 21.735 8.09037Z" fill="white" fill-opacity="0.6"/>
</g>
</svg>
