<svg width="16" height="16" viewBox="0 0 16 16" fill="none" xmlns="http://www.w3.org/2000/svg">
<rect x="2.58496" y="3.04688" width="10.8302" height="3.14857" fill="#7C848C"/>
<path d="M10.9352 1.39844V2.37681M5.06499 1.39844V2.37681M2.12988 6.29028H13.8703M2.12988 4.33354C2.12988 3.94432 2.2845 3.57105 2.55972 3.29583C2.83494 3.02061 3.20822 2.86599 3.59744 2.86599H12.4028C12.792 2.86599 13.1653 3.02061 13.4405 3.29583C13.7157 3.57105 13.8703 3.94432 13.8703 4.33354V13.1389C13.8703 13.5281 13.7157 13.9014 13.4405 14.1766C13.1653 14.4518 12.792 14.6064 12.4028 14.6064H3.59744C3.20822 14.6064 2.83494 14.4518 2.55972 14.1766C2.2845 13.9014 2.12988 13.5281 2.12988 13.1389V4.33354Z" stroke="#7C848C" stroke-width="1.3" stroke-linecap="round" stroke-linejoin="round"/>
<path d="M5.06445 10.2031H6.53201V11.6707H5.06445V10.2031Z" stroke="#7C848C" stroke-width="1.3" stroke-linecap="round" stroke-linejoin="round"/>
</svg>
