<svg width="24" height="24" viewBox="0 0 24 24" fill="none" xmlns="http://www.w3.org/2000/svg">
<g id="solar:notebook-square-broken">
<g id="Group">
<path id="Vector" d="M6.75 13.911V8.49599H5.25V13.911H6.75ZM18.75 13.911V8.44999H17.25V13.91H18.75V13.911ZM16.52 6.27199C15.89 6.30199 15.123 6.37399 14.5 6.54699L14.9 7.99399C15.358 7.86699 15.99 7.79999 16.593 7.77099L16.52 6.27199ZM14.5 6.54699C13.668 6.77699 12.702 7.29899 12.146 7.61999L12.898 8.91999C13.448 8.59999 14.27 8.16799 14.9 7.99399L14.5 6.54699ZM7.432 7.80799C7.932 7.84499 8.439 7.90499 8.822 7.99799L9.178 6.54199C8.673 6.41899 8.068 6.35199 7.542 6.31199L7.432 7.80799ZM8.822 7.99999C9.548 8.17799 10.504 8.63699 11.116 8.95799L11.813 7.62999C11.198 7.30699 10.1 6.76799 9.178 6.54299L8.822 7.99999ZM12.857 17.387C13.467 17.066 14.44 16.595 15.178 16.415L14.822 14.958C13.887 15.186 12.768 15.738 12.158 16.06L12.857 17.387ZM15.178 16.415C15.555 16.323 16.053 16.262 16.546 16.224L16.434 14.73C15.914 14.769 15.32 14.836 14.822 14.958L15.178 16.415ZM11.842 16.06C11.232 15.738 10.113 15.186 9.178 14.958L8.822 16.415C9.56 16.595 10.533 17.065 11.143 17.387L11.843 16.06H11.842ZM9.178 14.958C8.68 14.836 8.085 14.768 7.566 14.73L7.454 16.225C7.947 16.262 8.444 16.323 8.822 16.415L9.178 14.958ZM17.25 13.912C17.25 14.317 16.91 14.695 16.434 14.73L16.546 16.226C17.732 16.138 18.75 15.172 18.75 13.911L17.25 13.912ZM18.75 8.45199C18.75 7.25799 17.792 6.21199 16.52 6.27399L16.593 7.77099C16.931 7.75399 17.25 8.03499 17.25 8.45199H18.75ZM5.25 13.911C5.25 15.171 6.268 16.137 7.454 16.225L7.566 14.73C7.09 14.695 6.75 14.316 6.75 13.911H5.25ZM12.158 16.06C12.1092 16.0855 12.055 16.0988 12 16.0988C11.945 16.0988 11.8908 16.0855 11.842 16.06L11.143 17.387C11.4072 17.5261 11.7014 17.5988 12 17.5988C12.2986 17.5988 12.5928 17.5261 12.857 17.387L12.157 16.06H12.158ZM12.146 7.62199C12.0956 7.65105 12.0387 7.66702 11.9805 7.66842C11.9223 7.66981 11.8647 7.6566 11.813 7.62999L11.116 8.95799C11.3921 9.10257 11.7002 9.17499 12.0118 9.16852C12.3233 9.16205 12.6282 9.0759 12.898 8.91999L12.146 7.62199ZM6.75 8.49599C6.75 8.06999 7.083 7.78399 7.432 7.80999L7.542 6.31399C6.248 6.21899 5.25 7.27499 5.25 8.49599H6.75Z" fill="#fff"/>
<path id="Vector_2" d="M12 8.58496V17" stroke="#fff" stroke-width="1.5"/>
<path id="Vector_3" d="M22 12C22 16.714 22 19.071 20.535 20.535C19.072 22 16.714 22 12 22C7.286 22 4.929 22 3.464 20.535C2 19.072 2 16.714 2 12C2 7.286 2 4.929 3.464 3.464C4.93 2 7.286 2 12 2C16.714 2 19.071 2 20.535 3.464C21.509 4.438 21.835 5.807 21.945 8" stroke="#fff" stroke-width="1.5" stroke-linecap="round"/>
</g>
</g>
</svg>
