<svg width="20" height="20" viewBox="0 0 20 20" fill="none" xmlns="http://www.w3.org/2000/svg">
<g id="solar:pen-new-round-broken">
<g id="Group">
<path id="Vector" d="M13.8766 2.87862L14.4174 2.33778C14.8477 1.90758 15.4313 1.66594 16.0398 1.66602C16.6483 1.66609 17.2318 1.90789 17.662 2.3382C18.0922 2.76851 18.3338 3.3521 18.3338 3.96058C18.3337 4.56905 18.0919 5.15258 17.6616 5.58278L17.1199 6.12362C17.1199 6.12362 15.9716 6.05612 14.9582 5.04195C13.9441 4.02862 13.8766 2.87945 13.8766 2.87945L8.90574 7.84945C8.56908 8.18612 8.40074 8.35445 8.25574 8.54028C8.08491 8.75862 7.93908 8.99612 7.81908 9.24695C7.71824 9.45945 7.64324 9.68528 7.49241 10.1369L7.00991 11.5828M7.00991 11.5828L6.69824 12.5178C6.66159 12.6268 6.65608 12.7439 6.68234 12.8559C6.7086 12.9679 6.76558 13.0704 6.84689 13.1518C6.92819 13.2332 7.03059 13.2903 7.14257 13.3167C7.25454 13.343 7.37166 13.3377 7.48074 13.3011L8.41658 12.9894M7.00991 11.5828L8.41658 12.9894M17.1207 6.12278L14.6349 8.60778M12.1499 11.0936C11.8132 11.4303 11.6449 11.5986 11.4591 11.7436C11.2401 11.9144 11.0031 12.0608 10.7524 12.1803C10.5399 12.2811 10.3141 12.3561 9.86241 12.5069L8.41658 12.9894" stroke="white" stroke-width="1.5" stroke-linecap="round"/>
<path id="Vector_2" d="M18.9583 9.99935C18.9583 9.83359 18.8925 9.67462 18.7752 9.55741C18.658 9.4402 18.4991 9.37435 18.3333 9.37435C18.1675 9.37435 18.0086 9.4402 17.8914 9.55741C17.7741 9.67462 17.7083 9.83359 17.7083 9.99935H18.9583ZM9.99997 2.29102C10.1657 2.29102 10.3247 2.22517 10.4419 2.10796C10.5591 1.99075 10.625 1.83178 10.625 1.66602C10.625 1.50026 10.5591 1.34128 10.4419 1.22407C10.3247 1.10686 10.1657 1.04102 9.99997 1.04102V2.29102ZM6.14664 16.6768C6.07561 16.6357 5.99718 16.6089 5.91582 16.5981C5.83445 16.5873 5.75175 16.5926 5.67244 16.6137C5.59312 16.6348 5.51874 16.6714 5.45354 16.7212C5.38835 16.7711 5.33362 16.8333 5.29247 16.9043C5.25132 16.9754 5.22457 17.0538 5.21373 17.1352C5.20289 17.2165 5.20819 17.2992 5.22932 17.3785C5.25044 17.4579 5.28698 17.5322 5.33685 17.5974C5.38672 17.6626 5.44895 17.7174 5.51997 17.7585L6.14664 16.6768ZM2.2408 14.4785C2.28024 14.5526 2.33418 14.6179 2.39941 14.6707C2.46464 14.7234 2.53982 14.7625 2.62048 14.7856C2.70114 14.8087 2.78562 14.8153 2.86889 14.8051C2.95215 14.7948 3.0325 14.7679 3.10515 14.7259C3.17779 14.6839 3.24124 14.6278 3.29171 14.5607C3.34218 14.4937 3.37864 14.4172 3.39892 14.3358C3.4192 14.2544 3.42289 14.1698 3.40975 14.0869C3.39662 14.004 3.36693 13.9247 3.32247 13.8535L2.2408 14.4785ZM17.7083 9.99935C17.7083 12.0437 16.8962 14.0044 15.4506 15.45C14.005 16.8956 12.0443 17.7077 9.99997 17.7077V18.9577C14.9475 18.9577 18.9583 14.9468 18.9583 9.99935H17.7083ZM9.99997 1.04102C5.05247 1.04102 1.04164 5.05185 1.04164 9.99935H2.29164C2.29164 7.95497 3.10376 5.99433 4.54935 4.54873C5.99495 3.10314 7.95559 2.29102 9.99997 2.29102V1.04102ZM5.51997 17.7585C6.88145 18.5462 8.42703 18.96 9.99997 18.9577V17.7077C8.64709 17.7099 7.31769 17.3543 6.14664 16.6768L5.51997 17.7585ZM1.04164 9.99935C1.03936 11.572 1.45307 13.1173 2.2408 14.4785L3.32247 13.8535C2.64489 12.6822 2.28925 11.3525 2.29164 9.99935H1.04164Z" fill="white"/>
</g>
</g>
</svg>
