<svg width="24" height="24" viewBox="0 0 24 24" fill="none" xmlns="http://www.w3.org/2000/svg">
<g id="solar:hand-heart-broken">
<g id="Group">
<path id="Vector" d="M3.66675 20.5114H5.9932C7.03289 20.5114 8.08597 20.625 9.09787 20.8414C10.9045 21.2277 12.7633 21.2705 14.5846 20.9678M13.6272 17.4353C13.7508 17.4203 13.8691 17.4032 13.9824 17.385C14.9202 17.2296 15.7077 16.7067 16.4282 16.14L18.2894 14.6775C18.6214 14.4261 19.0215 14.2907 19.432 14.2907C19.8426 14.2907 20.2426 14.4261 20.5747 14.6775C21.1645 15.1414 21.3457 15.9053 20.972 16.5289C20.5366 17.2553 19.9231 18.1842 19.3342 18.7521M13.6272 17.4353C13.5895 17.4399 13.5518 17.4441 13.514 17.4482M13.6272 17.4353C13.792 17.3889 13.9431 17.3006 14.0668 17.1782C14.2219 17.0385 14.3486 16.8679 14.4393 16.6764C14.5301 16.485 14.583 16.2765 14.5951 16.0634C14.6072 15.8503 14.5782 15.6368 14.5097 15.4356C14.4412 15.2344 14.3347 15.0494 14.1965 14.8917C14.0624 14.7367 13.9061 14.6041 13.7333 14.4985C10.854 12.7103 6.37304 14.0721 3.66675 16.0703M13.6272 17.4353C13.59 17.4437 13.5521 17.4481 13.514 17.4482M13.514 17.4482C12.8932 17.5131 12.2678 17.5145 11.6467 17.4525" stroke="#fff" stroke-width="1.5" stroke-linecap="round"/>
<path id="Vector_2" opacity="0.5" d="M2 9.4052C2 10.2204 2.97083 11.082 3.7025 11.6172L3.70568 11.6196C4.05356 11.8732 4.22749 12 4.5 12C4.7725 12 4.9475 11.8724 5.2975 11.6172C6.02917 11.0829 7 10.2213 7 9.40602C7 8.01915 5.625 7.50217 4.5 8.57257C3.375 7.50217 2 8.01997 2 9.4052Z" fill="#fff"/>
<path id="Vector_3" d="M10.8532 9.63306L10.8532 9.63308C11.5989 10.1768 11.744 10.25 12 10.25C12.2556 10.25 12.4023 10.1759 13.153 9.62855L10.8532 9.63306ZM10.8532 9.63306L10.8478 9.62915C10.8476 9.62904 10.8475 9.62893 10.8474 9.62883C10.1363 9.1087 9.33548 8.44831 8.71965 7.74026C8.08368 7.00905 7.75 6.34634 7.75 5.81039C7.75 4.68876 8.28487 4.05972 8.90306 3.84428C9.54313 3.62122 10.508 3.7608 11.483 4.6885L12 5.18038M10.8532 9.63306L12 5.18038M12 5.18038L12.517 4.6885M12 5.18038L12.517 4.6885M12.517 4.6885C13.4922 3.76065 14.457 3.62086 15.0969 3.84386C15.7148 4.05918 16.25 4.68835 16.25 5.81205C16.25 6.34798 15.9163 7.0107 15.2804 7.74164M12.517 4.6885L15.2804 7.74164M15.2804 7.74164C14.6647 8.44939 13.8639 9.10931 13.1532 9.62845L15.2804 7.74164Z" stroke="#fff" stroke-width="1.5"/>
<path id="Vector_4" opacity="0.5" d="M17 9.4052C17 10.2204 17.9708 11.082 18.7025 11.6172L18.7057 11.6196C19.0536 11.8732 19.2275 12 19.5 12C19.7725 12 19.9475 11.8724 20.2975 11.6172C21.0292 11.0829 22 10.2213 22 9.40602C22 8.01915 20.625 7.50217 19.5 8.57257C18.375 7.50217 17 8.01997 17 9.4052Z" fill="#fff"/>
</g>
</g>
</svg>
