<svg width="16" height="16" viewBox="0 0 16 16" fill="none" xmlns="http://www.w3.org/2000/svg">
<g id="ci:note-search">
<path id="Vector" d="M12.6667 12.6665L10.6667 10.6665M6.66675 13.3332H4.79808C4.05275 13.3332 3.67941 13.3332 3.39475 13.1878C3.14388 13.06 2.93991 12.856 2.81208 12.6052C2.66675 12.3198 2.66675 11.9465 2.66675 11.1998V4.79984C2.66675 4.05317 2.66675 3.67984 2.81208 3.3945C2.94008 3.14317 3.14341 2.93984 3.39475 2.81184C3.68008 2.6665 4.05341 2.6665 4.80008 2.6665H11.2001C11.9467 2.6665 12.3201 2.6665 12.6047 2.81184C12.8561 2.93984 13.0601 3.14317 13.1881 3.3945C13.3334 3.67917 13.3334 4.0525 13.3334 4.79784V6.6665M9.00008 11.3332C8.38124 11.3332 7.78775 11.0873 7.35017 10.6498C6.91258 10.2122 6.66675 9.61868 6.66675 8.99984C6.66675 8.381 6.91258 7.78751 7.35017 7.34992C7.78775 6.91234 8.38124 6.6665 9.00008 6.6665C9.61892 6.6665 10.2124 6.91234 10.65 7.34992C11.0876 7.78751 11.3334 8.381 11.3334 8.99984C11.3334 9.61868 11.0876 10.2122 10.65 10.6498C10.2124 11.0873 9.61892 11.3332 9.00008 11.3332Z" stroke="white" stroke-linecap="round" stroke-linejoin="round"/>
</g>
</svg>
