<svg width="28" height="28" viewBox="0 0 28 28" fill="none" xmlns="http://www.w3.org/2000/svg">
<g id="solar:file-text-bold-duotone">
<g id="Group">
<path id="Vector" opacity="0.3" fill-rule="evenodd" clip-rule="evenodd" d="M16.3335 25.6667H11.6668C7.26733 25.6667 5.067 25.6667 3.70083 24.2994C2.3335 22.9332 2.3335 20.7329 2.3335 16.3334V11.6667C2.3335 7.26721 2.3335 5.06687 3.70083 3.70071C5.067 2.33337 7.279 2.33337 11.7018 2.33337C12.4088 2.33337 12.9747 2.33337 13.4518 2.35321C13.4367 2.44654 13.4285 2.54104 13.4285 2.63787L13.4168 5.94421C13.4168 7.22404 13.4168 8.35571 13.5393 9.26687C13.6723 10.255 13.9768 11.2432 14.7842 12.0505C15.5892 12.8555 16.5785 13.1612 17.5667 13.2942C18.4778 13.4167 19.6095 13.4167 20.8893 13.4167H25.6167C25.6668 14.0397 25.6668 14.805 25.6668 15.8235V16.3334C25.6668 20.7329 25.6668 22.9332 24.2995 24.2994C22.9333 25.6667 20.733 25.6667 16.3335 25.6667Z" fill="#3617CE"/>
<path id="Vector_2" d="M13.4287 2.63673L13.417 5.94423C13.417 7.22407 13.417 8.35457 13.5395 9.2669C13.6725 10.2551 13.977 11.2432 14.7843 12.0494C15.5893 12.8556 16.5787 13.1612 17.5668 13.2942C18.478 13.4167 19.6097 13.4167 20.8895 13.4167H25.6168C25.632 13.5976 25.6425 13.7912 25.6495 14.0001H25.667C25.667 13.6874 25.667 13.5311 25.6553 13.3467C25.5655 12.2381 25.1795 11.174 24.5377 10.2656C24.428 10.1162 24.3533 10.0276 24.2052 9.84907C23.28 8.74307 22.062 7.36407 21.0003 6.41673C20.0553 5.57207 18.7592 4.64923 17.6287 3.8944C16.658 3.2469 16.1727 2.92257 15.5065 2.68107C15.3127 2.61212 15.1157 2.55255 14.9162 2.50257C14.4682 2.39173 14.0318 2.35323 13.417 2.33923L13.4287 2.63673Z" fill="#3617CE"/>
<g id="Vector_3">
<path d="M6.38128 16.298C6.54538 16.1339 6.76794 16.0417 7 16.0417H16.3333C16.5654 16.0417 16.788 16.1339 16.9521 16.298C17.1161 16.4621 17.2083 16.6847 17.2083 16.9167C17.2083 17.1488 17.1161 17.3714 16.9521 17.5355C16.788 17.6996 16.5654 17.7917 16.3333 17.7917H7C6.76794 17.7917 6.54538 17.6996 6.38128 17.5355C6.21719 17.3714 6.125 17.1488 6.125 16.9167C6.125 16.6847 6.21719 16.4621 6.38128 16.298Z" fill="white"/>
<path d="M6.38128 20.3814C6.54538 20.2173 6.76794 20.1251 7 20.1251H13.4167C13.6487 20.1251 13.8713 20.2173 14.0354 20.3814C14.1995 20.5455 14.2917 20.768 14.2917 21.0001C14.2917 21.2321 14.1995 21.4547 14.0354 21.6188C13.8713 21.7829 13.6487 21.8751 13.4167 21.8751H7C6.76794 21.8751 6.54538 21.7829 6.38128 21.6188C6.21719 21.4547 6.125 21.2321 6.125 21.0001C6.125 20.768 6.21719 20.5455 6.38128 20.3814Z" fill="white"/>
</g>
</g>
</g>
</svg>
