<svg width="24" height="24" viewBox="0 0 24 24" fill="none" xmlns="http://www.w3.org/2000/svg">
<g id="solar:money-bag-broken">
<g id="Group">
<path id="Vector" d="M3.172 20.828C4.343 22 6.229 22 10 22H14C17.771 22 19.657 22 20.828 20.828C22 19.657 22 17.771 22 14C22 12.83 22 11.842 21.965 11M20.828 7.172C19.657 6 17.771 6 14 6H10C6.229 6 4.343 6 3.172 7.172C2 8.343 2 10.229 2 14C2 15.17 2 16.158 2.035 17M12 2C13.886 2 14.828 2 15.414 2.586C16 3.172 16 4.114 16 6M8.586 2.586C8 3.172 8 4.114 8 6" stroke="#808699" stroke-width="1.5" stroke-linecap="round"/>
<path id="Vector_2" d="M12 17.333C13.105 17.333 14 16.587 14 15.667C14 14.747 13.105 14 12 14C10.895 14 10 13.254 10 12.333C10 11.413 10.895 10.667 12 10.667M12 17.333C10.895 17.333 10 16.587 10 15.667M12 17.333V18M12 10.667V10M12 10.667C13.105 10.667 14 11.413 14 12.333" stroke="#808699" stroke-width="1.5" stroke-linecap="round"/>
</g>
</g>
</svg>
