<svg width="30" height="30" viewBox="0 0 30 30" fill="none" xmlns="http://www.w3.org/2000/svg">
<g id="solar:chat-round-dots-broken">
<g id="Group">
<path id="Vector" opacity="0.6" d="M19.5 29C14.2531 29 10 24.7469 10 19.5C10 14.2532 14.2531 10 19.5 10C24.7469 10 29 14.2532 29 19.5C29 21.02 28.6428 22.4564 28.0092 23.7303C27.84 24.0686 27.784 24.4552 27.8819 24.821L28.4471 26.9356C28.5029 27.1449 28.5027 27.3651 28.4465 27.5742C28.3903 27.7833 28.2802 27.974 28.1271 28.1271C27.9739 28.2802 27.7833 28.3903 27.5742 28.4465C27.3651 28.5027 27.1449 28.5029 26.9357 28.4471L24.821 27.8819C24.4539 27.7895 24.0657 27.8344 23.7294 28.0082C22.4156 28.6624 20.9676 29.002 19.5 29Z" fill="white" fill-opacity="0.6"/>
<path id="Vector_2" d="M13.5 27C20.4037 27 26 21.1799 26 14C26 6.8201 20.4037 1 13.5 1C6.59625 1 1 6.8201 1 14C1 16.08 1.47 18.0456 2.30375 19.7889C2.52625 20.2517 2.6 20.7808 2.47125 21.2813L1.7275 24.1751C1.65411 24.4614 1.65439 24.7627 1.7283 25.0489C1.80221 25.335 1.94716 25.5959 2.14861 25.8054C2.35007 26.0149 2.60094 26.1657 2.87608 26.2426C3.15123 26.3194 3.44097 26.3197 3.71625 26.2434L6.49875 25.4699C6.98176 25.3435 7.49253 25.405 7.935 25.6428C9.66366 26.538 11.5689 27.0027 13.5 27Z" fill="white" fill-opacity="0.1"/>
<path id="Vector_3" d="M20.25 3.17251C18.3506 2.07364 16.1944 1.49663 14 1.50001C7.09625 1.50001 1.5 7.09626 1.5 14C1.5 16 1.97 17.89 2.80375 19.5663C3.02625 20.0113 3.1 20.52 2.97125 21.0013L2.2275 23.7838C2.15411 24.059 2.15439 24.3488 2.2283 24.6239C2.30221 24.8991 2.44716 25.1499 2.64861 25.3514C2.85007 25.5529 3.10094 25.6978 3.37608 25.7717C3.65123 25.8456 3.94097 25.8459 4.21625 25.7725L6.99875 25.0288C7.48176 24.9072 7.99253 24.9663 8.435 25.195C10.1637 26.0558 12.0689 26.5026 14 26.5C20.9037 26.5 26.5 20.9038 26.5 14C26.5 11.7238 25.8913 9.58751 24.8275 7.75001" stroke="white" stroke-width="1.5" stroke-linecap="round"/>
</g>
<path id="Vector_4" d="M10 10L10.0112 12.5M17.4888 10L17.5 12.5" stroke="white" stroke-width="1.5" stroke-linecap="round" stroke-linejoin="round"/>
<path id="Vector 67" d="M11 16C11.1389 16.6667 11.8333 18 13.5 18C14.1944 18 15.6667 17.6 16 16" stroke="white" stroke-width="1.5" stroke-linecap="round"/>
</g>
</svg>
