<svg width="24" height="24" viewBox="0 0 24 24" fill="none" xmlns="http://www.w3.org/2000/svg">
<g id="solar:dollar-broken">
<g id="Group">
<path id="Vector" d="M12 6V18M15 9.5C15 8.12 13.657 7 12 7C10.343 7 9 8.12 9 9.5C9 10.88 10.343 12 12 12C13.657 12 15 13.12 15 14.5C15 15.88 13.657 17 12 17C10.343 17 9 15.88 9 14.5" stroke="#fff" stroke-width="1.5" stroke-linecap="round"/>
<path id="Vector_2" d="M7 3.33801C8.51952 2.45891 10.2445 1.99731 12 2.00001C17.523 2.00001 22 6.47701 22 12C22 17.523 17.523 22 12 22C6.477 22 2 17.523 2 12C2 10.179 2.487 8.47001 3.338 7.00001" stroke="#fff" stroke-width="1.5" stroke-linecap="round"/>
</g>
</g>
</svg>
