<svg width="50" height="50" viewBox="0 0 50 50" fill="none" xmlns="http://www.w3.org/2000/svg">
<rect opacity="0.05" width="50" height="50" rx="25" fill="#3617CE"/>
<g clip-path="url(#clip0_1059_9965)">
<path opacity="0.1" d="M17.825 37.7353H17.5C16.3212 37.7353 15.7325 37.7353 15.3663 37.3691C15 37.0041 15 36.4153 15 35.2366V33.8466C15 33.1991 15 32.8753 15.1662 32.5853C15.3325 32.2966 15.5837 32.1503 16.0862 31.8578C19.3937 29.9341 24.0888 28.8516 27.2238 30.7203C27.4338 30.8466 27.6237 30.9991 27.7863 31.1803C27.9541 31.3643 28.0834 31.5801 28.1666 31.8148C28.2497 32.0496 28.285 32.2987 28.2703 32.5473C28.2556 32.7959 28.1913 33.0391 28.0811 33.2625C27.9709 33.4858 27.8171 33.6849 27.6287 33.8478C27.4785 33.9906 27.2951 34.0937 27.095 34.1478C27.245 34.1303 27.3888 34.1103 27.5262 34.0891C28.665 33.9078 29.6212 33.2978 30.4962 32.6366L32.7563 30.9303C33.1594 30.6371 33.6452 30.4791 34.1438 30.4791C34.6423 30.4791 35.1281 30.6371 35.5312 30.9303C36.2475 31.4716 36.4675 32.3628 36.0138 33.0903C35.485 33.9378 34.74 35.0216 34.025 35.6841C33.3087 36.3466 32.2425 36.9391 31.3725 37.3591C30.4075 37.8253 29.3425 38.0928 28.2588 38.2691C26.0613 38.6241 23.7713 38.5691 21.5963 38.1216C20.3554 37.8664 19.0918 37.7362 17.825 37.7353Z" fill="#3617CE"/>
<path opacity="0.6" d="M23.5764 15.2037C24.2101 14.0675 24.5264 13.5 25.0001 13.5C25.4739 13.5 25.7901 14.0675 26.4239 15.2037L26.5864 15.4975C26.7676 15.8212 26.8576 15.9825 26.9976 16.0888C27.1376 16.195 27.3126 16.235 27.6626 16.3137L27.9801 16.3863C29.2101 16.6637 29.8251 16.8038 29.9714 17.2738C30.1176 17.7438 29.6989 18.235 28.8601 19.215L28.6426 19.4688C28.4051 19.7475 28.2864 19.8863 28.2326 20.0588C28.1789 20.2313 28.1964 20.4175 28.2326 20.7887L28.2651 21.1262C28.3926 22.435 28.4551 23.0887 28.0726 23.38C27.6901 23.6713 27.1139 23.405 25.9626 22.875L25.6639 22.7375C25.3376 22.5875 25.1739 22.5125 25.0001 22.5125C24.8264 22.5125 24.6626 22.5875 24.3364 22.7375L24.0376 22.875C22.8876 23.4062 22.3101 23.6713 21.9276 23.38C21.5451 23.0887 21.6076 22.435 21.7351 21.1275L21.7676 20.7887C21.8039 20.4175 21.8214 20.2313 21.7676 20.0588C21.7139 19.8863 21.5951 19.7463 21.3576 19.4688L21.1401 19.215C20.3026 18.235 19.8826 17.7438 20.0289 17.2738C20.1751 16.8038 20.7901 16.6637 22.0201 16.3863L22.3376 16.3137C22.6876 16.235 22.8626 16.195 23.0026 16.0888C23.1426 15.9825 23.2326 15.8212 23.4126 15.4975L23.5764 15.2037ZM34.2876 20.6025C34.6051 20.0338 34.7626 19.75 35.0001 19.75C35.2376 19.75 35.3951 20.0338 35.7126 20.6025L35.7939 20.7487C35.8839 20.9112 35.9289 20.9913 35.9989 21.045C36.0689 21.0975 36.1564 21.1175 36.3314 21.1575L36.4901 21.1925C37.1051 21.3325 37.4126 21.4013 37.4851 21.6375C37.5589 21.8725 37.3489 22.1175 36.9301 22.6075L36.8214 22.7338C36.7026 22.8737 36.6426 22.9437 36.6164 23.03C36.5889 23.115 36.5989 23.2088 36.6164 23.395L36.6326 23.5637C36.6951 24.2175 36.7276 24.545 36.5364 24.69C36.3451 24.835 36.0576 24.7025 35.4814 24.4375L35.3314 24.3687C35.1689 24.2937 35.0864 24.2562 35.0001 24.2562C34.9126 24.2562 34.8314 24.2937 34.6676 24.3687L34.5189 24.4375C33.9439 24.7025 33.6564 24.835 33.4639 24.69C33.2726 24.545 33.3039 24.2175 33.3676 23.5637L33.3839 23.395C33.4014 23.2075 33.4114 23.115 33.3839 23.03C33.3576 22.9425 33.2976 22.8737 33.1789 22.7338L33.0701 22.6075C32.6514 22.1175 32.4414 21.8725 32.5151 21.6375C32.5876 21.4013 32.8951 21.3325 33.5101 21.1925L33.6689 21.1575C33.8439 21.1175 33.9314 21.0975 34.0014 21.045C34.0714 20.9913 34.1164 20.91 34.2064 20.7487L34.2876 20.6025ZM14.2876 20.6025C14.6064 20.0338 14.7626 19.75 15.0001 19.75C15.2376 19.75 15.3951 20.0338 15.7126 20.6025L15.7939 20.7487C15.8839 20.9112 15.9289 20.9913 15.9989 21.045C16.0689 21.0975 16.1564 21.1175 16.3314 21.1575L16.4901 21.1925C17.1051 21.3325 17.4126 21.4013 17.4864 21.6375C17.5589 21.8725 17.3489 22.1175 16.9301 22.6075L16.8214 22.7338C16.7026 22.8737 16.6426 22.9437 16.6164 23.03C16.5889 23.115 16.5989 23.2088 16.6164 23.395L16.6326 23.5637C16.6951 24.2175 16.7276 24.545 16.5364 24.69C16.3451 24.835 16.0564 24.7025 15.4814 24.4375L15.3314 24.3687C15.1689 24.2937 15.0864 24.2562 15.0001 24.2562C14.9126 24.2562 14.8314 24.2937 14.6676 24.3687L14.5189 24.4375C13.9439 24.7025 13.6564 24.835 13.4639 24.69C13.2726 24.545 13.3039 24.2175 13.3676 23.5637L13.3839 23.395C13.4014 23.2075 13.4114 23.115 13.3839 23.03C13.3576 22.9425 13.2976 22.8737 13.1789 22.7338L13.0701 22.6075C12.6514 22.1175 12.4414 21.8725 12.5139 21.6375C12.5876 21.4013 12.8951 21.3325 13.5101 21.1925L13.6689 21.1575C13.8439 21.1175 13.9314 21.0975 14.0014 21.045C14.0714 20.9913 14.1164 20.91 14.2064 20.7487L14.2876 20.6025Z" fill="#3617CE"/>
<path d="M15 37.7353H17.825C19.0875 37.7353 20.3663 37.8678 21.595 38.1203C23.7888 38.5709 26.046 38.6209 28.2575 38.2678M27.095 34.1465C27.245 34.129 27.3887 34.109 27.5262 34.0878C28.665 33.9065 29.6212 33.2965 30.4962 32.6353L32.7562 30.929C33.1594 30.6357 33.6452 30.4778 34.1438 30.4778C34.6423 30.4778 35.1281 30.6357 35.5312 30.929C36.2475 31.4703 36.4675 32.3615 36.0138 33.089C35.485 33.9365 34.74 35.0203 34.025 35.6828M27.095 34.1465C27.0492 34.1518 27.0034 34.1568 26.9575 34.1615M27.095 34.1465C27.2951 34.0924 27.4785 33.9893 27.6287 33.8465C27.8171 33.6836 27.9709 33.4845 28.0811 33.2612C28.1913 33.0378 28.2556 32.7946 28.2703 32.546C28.285 32.2974 28.2497 32.0483 28.1666 31.8135C28.0834 31.5787 27.9541 31.363 27.7863 31.179C27.6234 30.9982 27.4336 30.8435 27.2238 30.7203C23.7275 28.634 18.2862 30.2228 15 32.554M27.095 34.1465C27.0498 34.1563 27.0037 34.1614 26.9575 34.1615M26.9575 34.1615C26.2036 34.2373 25.4442 34.2389 24.69 34.1665" stroke="#3617CE" stroke-width="1.5" stroke-linecap="round"/>
</g>
<defs>
<clipPath id="clip0_1059_9965">
<rect width="30" height="30" fill="white" transform="translate(10 11)"/>
</clipPath>
</defs>
</svg>
