<svg width="30" height="30" viewBox="0 0 30 30" fill="none" xmlns="http://www.w3.org/2000/svg">
<g id="solar:monitor-bold-duotone">
<g id="Group">
<path id="Vector" opacity="0.5" d="M12.5 4.5H17.5C22.2137 4.5 24.5712 4.5 26.035 5.965C27.5 7.42875 27.5 9.78625 27.5 14.5V15.75C27.5 16.44 27.5 17.6875 27.4925 18.25H2.50875C2.5 17.6875 2.5 16.44 2.5 15.75V14.5C2.5 9.78625 2.5 7.42875 3.965 5.965C5.42875 4.5 7.78625 4.5 12.5 4.5Z" fill="#3617CE"/>
<path id="Vector_2" d="M9.98125 23.875C6.43125 23.875 4.65625 23.875 3.555 22.7763C2.84 22.065 2.5875 21.0725 2.5 19.5V18.25H27.5V19.5C27.4125 21.0725 27.16 22.065 26.445 22.7763C25.3425 23.875 23.5688 23.875 20.02 23.875H15.9412V26.875H20.0187C20.5387 26.875 20.96 27.295 20.96 27.8125C20.96 28.33 20.5387 28.75 20.0187 28.75H9.98125C9.85787 28.7503 9.73563 28.7263 9.62153 28.6794C9.50743 28.6324 9.4037 28.5634 9.31628 28.4764C9.22886 28.3893 9.15946 28.2859 9.11206 28.1719C9.06465 28.058 9.04016 27.9359 9.04 27.8125C9.04 27.295 9.46125 26.875 9.98125 26.875H14.0588V23.875H9.98125Z" fill="#3617CE"/>
</g>
<path id="Vector_3" d="M21 14C24.3137 14 27 11.3137 27 8C27 4.68629 24.3137 2 21 2C17.6863 2 15 4.68629 15 8C15 11.3137 17.6863 14 21 14Z" fill="#3617CE"/>
<path id="Vector_4" d="M24 8H21M21 8H18M21 8V5M21 8V11" stroke="white" stroke-width="1.5" stroke-linecap="round"/>
</g>
</svg>
