<svg width="30" height="30" viewBox="0 0 30 30" fill="none" xmlns="http://www.w3.org/2000/svg">
<g id="solar:card-recive-bold-duotone">
<g id="Group">
<path id="Vector" opacity="0.5" d="M12.5 25H17.5C18.325 25 19.0763 25 19.765 24.9925L19.2612 24.4887C18.8868 24.1143 18.6257 23.6416 18.5079 23.1253C18.3902 22.6089 18.4207 22.0698 18.5958 21.57C18.7709 21.0702 19.0836 20.63 19.4979 20.3001C19.9122 19.9701 20.4112 19.7639 20.9375 19.705V17.5C20.9375 16.7541 21.2338 16.0387 21.7613 15.5113C22.2887 14.9838 23.0041 14.6875 23.75 14.6875C24.4959 14.6875 25.2113 14.9838 25.7387 15.5113C26.2662 16.0387 26.5625 16.7541 26.5625 17.5V19.705C26.8425 19.7362 27.1187 19.8088 27.38 19.9237C27.5 18.6463 27.5 17.045 27.5 15C27.5 14.4475 27.5 12.99 27.4975 12.5H2.5025C2.5 12.99 2.5 14.4475 2.5 15C2.5 19.7137 2.5 22.0712 3.965 23.535C5.42875 25 7.78625 25 12.5 25Z" fill="#3617CE"/>
<path id="Vector_2" fill-rule="evenodd" clip-rule="evenodd" d="M23.0874 25.6625C23.2632 25.8381 23.5015 25.9367 23.7499 25.9367C23.9984 25.9367 24.2367 25.8381 24.4124 25.6625L26.9124 23.1625C27.0046 23.0767 27.0784 22.9732 27.1297 22.8582C27.1809 22.7432 27.2085 22.619 27.2107 22.4932C27.2129 22.3673 27.1898 22.2422 27.1426 22.1255C27.0954 22.0088 27.0253 21.9027 26.9362 21.8137C26.8472 21.7247 26.7412 21.6545 26.6244 21.6073C26.5077 21.5602 26.3827 21.537 26.2568 21.5393C26.1309 21.5415 26.0068 21.569 25.8918 21.6203C25.7768 21.6715 25.6733 21.7454 25.5874 21.8375L24.6874 22.7375V17.5C24.6874 17.2514 24.5887 17.0129 24.4129 16.8371C24.237 16.6613 23.9986 16.5625 23.7499 16.5625C23.5013 16.5625 23.2628 16.6613 23.087 16.8371C22.9112 17.0129 22.8124 17.2514 22.8124 17.5V22.7375L21.9124 21.8375C21.8266 21.7454 21.7231 21.6715 21.6081 21.6203C21.4931 21.569 21.369 21.5415 21.2431 21.5393C21.1172 21.537 20.9922 21.5602 20.8755 21.6073C20.7587 21.6545 20.6527 21.7247 20.5636 21.8137C20.4746 21.9027 20.4044 22.0088 20.3573 22.1255C20.3101 22.2422 20.287 22.3673 20.2892 22.4932C20.2914 22.619 20.319 22.7432 20.3702 22.8582C20.4215 22.9732 20.4953 23.0767 20.5874 23.1625L23.0874 25.6625Z" fill="#3617CE"/>
<path id="Vector_3" d="M15.625 19.0625C15.3764 19.0625 15.1379 19.1613 14.9621 19.3371C14.7863 19.5129 14.6875 19.7514 14.6875 20C14.6875 20.2486 14.7863 20.4871 14.9621 20.6629C15.1379 20.8387 15.3764 20.9375 15.625 20.9375H17.5C17.7486 20.9375 17.9871 20.8387 18.1629 20.6629C18.3387 20.4871 18.4375 20.2486 18.4375 20C18.4375 19.7514 18.3387 19.5129 18.1629 19.3371C17.9871 19.1613 17.7486 19.0625 17.5 19.0625H15.625ZM7.5 19.0625C7.25136 19.0625 7.0129 19.1613 6.83709 19.3371C6.66127 19.5129 6.5625 19.7514 6.5625 20C6.5625 20.2486 6.66127 20.4871 6.83709 20.6629C7.0129 20.8387 7.25136 20.9375 7.5 20.9375H12.5C12.7486 20.9375 12.9871 20.8387 13.1629 20.6629C13.3387 20.4871 13.4375 20.2486 13.4375 20C13.4375 19.7514 13.3387 19.5129 13.1629 19.3371C12.9871 19.1613 12.7486 19.0625 12.5 19.0625H7.5ZM12.4937 5H17.5063C22.2325 5 24.5963 5 26.0637 6.395C27.1213 7.39875 27.4175 8.845 27.5 11.25V12.5H2.5V11.25C2.5825 8.84375 2.87875 7.4 3.93625 6.395C5.40375 5 7.7675 5 12.4937 5Z" fill="#3617CE"/>
</g>
</g>
</svg>
