<svg width="71" height="24" viewBox="0 0 71 24" fill="none" xmlns="http://www.w3.org/2000/svg">
<rect width="68" height="24" rx="12" fill="#EF647D"/>
<path d="M71 24H57C60.7333 23.2533 62.9111 19.0222 63.5333 17C65.0267 20.7333 69.1333 23.2222 71 24Z" fill="#EF647D"/>
<path d="M20.4123 5.60808H22.0418V11.5425H20.4123V5.60808ZM19.5684 9.72445L19.6402 10.8826C17.3463 11.2552 14.7158 11.318 12.7048 11.3135L12.5342 10.0477C12.9247 10.0432 13.3422 10.0432 13.7776 10.0342V7.56077H12.8394V6.32631H19.124V7.56077H18.1633V9.8636C18.6436 9.8232 19.115 9.77831 19.5684 9.72445ZM16.6146 7.56077H15.3263V10.0028C15.7528 9.99378 16.1837 9.97583 16.6146 9.95787V7.56077ZM15.8111 15.0887V15.816H22.365V17.0908H14.2041V13.9306H20.4392V13.2528H14.1816V12.0048H22.0418V15.0887H15.8111ZM29.6546 10.1823V11.2103H34.1211V12.4986H23.581V11.2103H28.0296V10.1823H24.8559V6.07942H32.8731V7.35428H26.4764V8.88052H32.9854V10.1823H29.6546ZM31.2661 14.5725H24.7481V13.2977H32.8642V17.203H31.2661V14.5725ZM43.9289 10.0656H45.6347V11.4347H43.9289V17.1716H42.3084V5.60808H43.9289V10.0656ZM39.0674 6.50138V8.22963C39.0584 10.299 39.9427 12.3864 41.7967 13.2842L40.8181 14.5725C39.5836 13.962 38.7442 12.8218 38.2639 11.4302C37.7611 12.9251 36.8678 14.1461 35.557 14.797L34.565 13.4817C36.5177 12.5839 37.4424 10.3753 37.4469 8.22963V6.50138H39.0674ZM50.2893 6.71685H52.9063V7.98273H46.0472V6.71685H48.6733V5.54523H50.2893V6.71685ZM55.2181 5.60808V8.57079H56.7713V9.91298H55.2181V12.952H53.5931V5.60808H55.2181ZM52.3228 10.4517C52.3228 11.6951 51.1556 12.5211 49.4813 12.5211C47.7799 12.5211 46.6083 11.6951 46.6128 10.4517C46.6083 9.2172 47.7755 8.37776 49.4813 8.37327C51.1556 8.37776 52.3228 9.2172 52.3228 10.4517ZM48.1884 10.4517C48.1884 11.0218 48.7047 11.3225 49.4813 11.318C50.2534 11.3225 50.7831 11.0218 50.7875 10.4517C50.7831 9.87258 50.2534 9.55836 49.4813 9.55387C48.7047 9.55836 48.1884 9.87258 48.1884 10.4517ZM51.4384 13.0597C53.8221 13.0597 55.3393 13.8229 55.3438 15.1202C55.3393 16.395 53.8221 17.1716 51.4384 17.1671C49.0144 17.1716 47.5196 16.395 47.5286 15.1202C47.5196 13.8229 49.0144 13.0597 51.4384 13.0597ZM51.4384 15.9596C52.9198 15.9596 53.7143 15.6633 53.7143 15.1202C53.7143 14.5501 52.9198 14.2897 51.4384 14.2897C49.9302 14.2897 49.1266 14.5501 49.1311 15.1202C49.1266 15.6633 49.9302 15.9596 51.4384 15.9596Z" fill="white"/>
</svg>
