<svg width="30" height="30" viewBox="0 0 30 30" fill="none" xmlns="http://www.w3.org/2000/svg">
<g id="solar:document-add-broken">
<g id="Group">
<rect id="Rectangle 6254" opacity="0.1" x="4" y="3" width="22" height="24" rx="5" fill="white"/>
<path id="Vector" d="M3.75 17.5V12.5C3.75 7.78625 3.75 5.42875 5.215 3.965C6.67875 2.5 9.03625 2.5 13.75 2.5H16.25C20.9637 2.5 23.3212 2.5 24.785 3.965M26.25 17.5C26.25 22.2137 26.25 24.5712 24.785 26.035M24.785 26.035C23.3212 27.5 20.9637 27.5 16.25 27.5H13.75C9.03625 27.5 6.67875 27.5 5.215 26.035M24.785 26.035C25.965 24.8562 26.1937 23.1 26.2387 20" stroke="white" stroke-width="1.5" stroke-linecap="round"/>
<path id="Vector_2" d="M9 16.25H12.125M9 11.25H17.125M9 21.25H10.875" stroke="white" stroke-width="1.5" stroke-linecap="round"/>
<path id="Vector_3" opacity="0.6" d="M21.5805 18.3121L26.7575 13.1351C25.8865 12.7714 25.0954 12.2401 24.4294 11.5713C23.7603 10.9051 23.2287 10.1138 22.8649 9.24252L17.6879 14.4195C17.284 14.8234 17.0817 15.0257 16.9081 15.2483C16.7031 15.511 16.5273 15.7952 16.3838 16.096C16.2628 16.3508 16.1725 16.6224 15.9919 17.1641L15.0385 20.0221C14.9946 20.153 14.9881 20.2935 15.0197 20.4279C15.0513 20.5622 15.1197 20.6851 15.2173 20.7827C15.3149 20.8803 15.4378 20.9487 15.5721 20.9803C15.7065 21.0119 15.847 21.0054 15.9779 20.9615L18.8359 20.0081C19.3783 19.8275 19.6492 19.7372 19.904 19.6162C20.205 19.4727 20.4892 19.297 20.7517 19.0919C20.9743 18.9183 21.1766 18.716 21.5805 18.3121ZM28.1938 11.6987C28.71 11.1826 29 10.4825 29 9.75246C29 9.02246 28.71 8.32236 28.1938 7.80618C27.6776 7.28999 26.9775 7 26.2475 7C25.5175 7 24.8174 7.28999 24.3013 7.80618L23.6804 8.42705L23.707 8.50475C24.013 9.38022 24.5136 10.1748 25.1713 10.8287C25.8447 11.506 26.6671 12.0166 27.5729 12.3196L28.1938 11.6987Z" fill="white"/>
</g>
</g>
</svg>
