<svg width="28" height="28" viewBox="0 0 28 28" fill="none" xmlns="http://www.w3.org/2000/svg">
<g id="solar:calculator-minimalistic-bold-duotone">
<g id="Group">
<path id="Vector" opacity="0.3" d="M4.0415 23.9575C5.75183 25.6667 8.5005 25.6667 14.0002 25.6667C19.4998 25.6667 22.2497 25.6667 23.9577 23.9575C25.6668 22.2507 25.6668 19.4997 25.6668 14C25.6668 8.50037 25.6668 5.75054 23.9577 4.04137C22.2508 2.33337 19.4998 2.33337 14.0002 2.33337C8.5005 2.33337 5.75066 2.33337 4.0415 4.04137C2.3335 5.75171 2.3335 8.50037 2.3335 14C2.3335 19.4997 2.3335 22.2495 4.0415 23.9575Z" fill="#3617CE"/>
<path id="Vector_2" fill-rule="evenodd" clip-rule="evenodd" d="M15.4587 9.91675C15.4587 9.68468 15.5509 9.46212 15.715 9.29803C15.8791 9.13394 16.1016 9.04175 16.3337 9.04175H21.0004C21.2324 9.04175 21.455 9.13394 21.6191 9.29803C21.7832 9.46212 21.8754 9.68468 21.8754 9.91675C21.8754 10.1488 21.7832 10.3714 21.6191 10.5355C21.455 10.6996 21.2324 10.7917 21.0004 10.7917H16.3337C16.1016 10.7917 15.8791 10.6996 15.715 10.5355C15.5509 10.3714 15.4587 10.1488 15.4587 9.91675ZM6.96537 16.2984C7.12943 16.1346 7.35183 16.0425 7.5837 16.0425C7.81558 16.0425 8.03797 16.1346 8.20204 16.2984L9.3337 17.4301L10.4654 16.2984C10.5455 16.2124 10.6421 16.1435 10.7494 16.0957C10.8567 16.0478 10.9726 16.0221 11.0901 16.0201C11.2076 16.018 11.3243 16.0396 11.4332 16.0836C11.5422 16.1276 11.6412 16.1931 11.7242 16.2762C11.8073 16.3593 11.8728 16.4583 11.9168 16.5672C11.9609 16.6762 11.9825 16.7929 11.9804 16.9104C11.9783 17.0278 11.9526 17.1437 11.9048 17.251C11.857 17.3584 11.788 17.455 11.702 17.5351L10.5704 18.6667L11.702 19.7984C11.788 19.8785 11.857 19.9751 11.9048 20.0825C11.9526 20.1898 11.9783 20.3057 11.9804 20.4231C11.9825 20.5406 11.9609 20.6573 11.9168 20.7663C11.8728 20.8752 11.8073 20.9742 11.7242 21.0573C11.6412 21.1404 11.5422 21.2059 11.4332 21.2499C11.3243 21.2939 11.2076 21.3155 11.0901 21.3134C10.9726 21.3114 10.8567 21.2856 10.7494 21.2378C10.6421 21.19 10.5455 21.121 10.4654 21.0351L9.3337 19.9034L8.20204 21.0351C8.03617 21.1896 7.81678 21.2738 7.59009 21.2698C7.36341 21.2658 7.14713 21.174 6.98681 21.0136C6.8265 20.8533 6.73466 20.637 6.73067 20.4104C6.72667 20.1837 6.81081 19.9643 6.96537 19.7984L8.09704 18.6667L6.96537 17.5351C6.80151 17.371 6.70947 17.1486 6.70947 16.9167C6.70947 16.6849 6.80151 16.4625 6.96537 16.2984Z" fill="#3617CE"/>
<g id="Vector_3">
<path d="M9.95205 6.96466C9.78796 6.80056 9.5654 6.70837 9.33333 6.70837C9.10127 6.70837 8.87871 6.80056 8.71461 6.96466C8.55052 7.12875 8.45833 7.35131 8.45833 7.58337V9.04171H7C6.76794 9.04171 6.54538 9.13389 6.38128 9.29799C6.21719 9.46208 6.125 9.68464 6.125 9.91671C6.125 10.1488 6.21719 10.3713 6.38128 10.5354C6.54538 10.6995 6.76794 10.7917 7 10.7917H8.45833V12.25C8.45833 12.4821 8.55052 12.7047 8.71461 12.8688C8.87871 13.0329 9.10127 13.125 9.33333 13.125C9.5654 13.125 9.78796 13.0329 9.95205 12.8688C10.1161 12.7047 10.2083 12.4821 10.2083 12.25V10.7917H11.6667C11.8987 10.7917 12.1213 10.6995 12.2854 10.5354C12.4495 10.3713 12.5417 10.1488 12.5417 9.91671C12.5417 9.68464 12.4495 9.46208 12.2854 9.29799C12.1213 9.13389 11.8987 9.04171 11.6667 9.04171H10.2083V7.58337C10.2083 7.35131 10.1161 7.12875 9.95205 6.96466Z" fill="white"/>
<path d="M15.7146 16.298C15.5505 16.4621 15.4583 16.6846 15.4583 16.9167C15.4583 17.1488 15.5505 17.3713 15.7146 17.5354C15.8787 17.6995 16.1013 17.7917 16.3333 17.7917H21C21.2321 17.7917 21.4546 17.6995 21.6187 17.5354C21.7828 17.3713 21.875 17.1488 21.875 16.9167C21.875 16.6846 21.7828 16.4621 21.6187 16.298C21.4546 16.1339 21.2321 16.0417 21 16.0417H16.3333C16.1013 16.0417 15.8787 16.1339 15.7146 16.298Z" fill="white"/>
<path d="M15.7146 19.798C15.5505 19.9621 15.4583 20.1846 15.4583 20.4167C15.4583 20.6488 15.5505 20.8713 15.7146 21.0354C15.8787 21.1995 16.1013 21.2917 16.3333 21.2917H21C21.2321 21.2917 21.4546 21.1995 21.6187 21.0354C21.7828 20.8713 21.875 20.6488 21.875 20.4167C21.875 20.1846 21.7828 19.9621 21.6187 19.798C21.4546 19.6339 21.2321 19.5417 21 19.5417H16.3333C16.1013 19.5417 15.8787 19.6339 15.7146 19.798Z" fill="white"/>
</g>
</g>
</g>
</svg>
