<svg width="30" height="30" viewBox="0 0 30 30" fill="none" xmlns="http://www.w3.org/2000/svg">
<g id="solar:passport-minimalistic-broken">
<path id="Vector 63" d="M22.5 2.49999C25.3 2.89999 24.6667 5.66665 24 6.99999L3.5 7C3.5 5 5.5 4.16666 6.5 3.99999C10.6667 3.33332 19.7 2.09999 22.5 2.49999Z" fill="white"/>
<path id="Rectangle 6255" d="M3 7H23C25.2091 7 27 8.79086 27 11V25C27 27.2091 25.2091 29 23 29H7C4.79086 29 3 27.2091 3 25V7Z" fill="white"/>
<g id="Group">
<path id="Vector" d="M3.28564 6.96404V24.3748C3.28564 25.4404 3.70895 26.4623 4.46245 27.2158C5.21594 27.9693 6.2379 28.3926 7.3035 28.3926H22.6964C23.762 28.3926 24.7839 27.9693 25.5374 27.2158C26.2909 26.4623 26.7142 25.4404 26.7142 24.3748V23.6783M3.28564 6.96404H22.6964C23.762 6.96404 24.7839 7.38735 25.5374 8.14085C26.2909 8.89434 26.7142 9.9163 26.7142 10.9819V12.3212M3.28564 6.96404C3.28564 6.33904 3.28564 4.82159 5.4285 4.28572C7.69913 3.7179 19.6298 2.14249 22.4285 2.67814C24.3625 3.0483 24.5714 4.82144 24.0356 6.96386" stroke="black" stroke-width="1.5" stroke-linecap="round"/>
</g>
<g id="Group 2671">
<path id="Vector_2" d="M9.70405 20.8774C9.98419 21.2099 10.3368 21.4739 10.7348 21.649C11.1327 21.8241 11.5655 21.9057 12 21.8876C12.664 21.9329 13.3196 21.7189 13.8292 21.2908C14.3387 20.8626 14.6623 20.2535 14.7321 19.5917C14.6623 18.9298 14.3387 18.3208 13.8292 17.8926C13.3196 17.4644 12.664 17.2505 12 17.2958C11.336 17.341 10.6803 17.1271 10.1708 16.6989C9.66125 16.2707 9.33759 15.6617 9.26782 14.9998C9.33198 14.3357 9.65409 13.7231 10.1649 13.2938C10.6758 12.8645 11.3347 12.6527 12 12.7039C12.4267 12.6778 12.854 12.7466 13.251 12.9054C13.648 13.0642 14.0048 13.3091 14.2959 13.6223" stroke="#3617CE" stroke-width="1.5" stroke-linecap="round" stroke-linejoin="round"/>
<path id="Vector_3" d="M12 21.9337V23.2526M12 11.4312V12.5893" stroke="#3617CE" stroke-width="1.5" stroke-linecap="round" stroke-linejoin="round"/>
</g>
<path id="Vector_4" opacity="0.6" fill-rule="evenodd" clip-rule="evenodd" d="M26.5 14.004C26.438 14 25.558 14 25.488 14H22.715C20.444 14 18.5 15.736 18.5 18C18.5 20.264 20.444 22 22.715 22H25.488C25.558 22 26.438 22 26.5 21.996C27.423 21.94 27.427 21.239 27.496 20.259C27.5 20.195 27.5 20.126 27.5 20.062V15.938C27.5 15.874 27.5 15.805 27.496 15.741C27.427 14.761 27.423 14.061 26.5 14.004ZM22.471 19.067C23.055 19.067 23.529 18.589 23.529 18C23.529 17.41 23.055 16.933 22.471 16.933C21.886 16.933 21.411 17.411 21.411 18C21.411 18.59 21.886 19.067 22.471 19.067Z" fill="#3617CE"/>
</g>
</svg>
