<svg width="28" height="28" viewBox="0 0 28 28" fill="none" xmlns="http://www.w3.org/2000/svg">
<g id="solar:hourglass-line-bold-duotone">
<g id="Group">
<path id="Vector" fill-rule="evenodd" clip-rule="evenodd" d="M14 2.33337C9.17821 2.33337 6.76671 2.33337 6.06438 3.85004C6.00401 3.9807 5.95332 4.11562 5.91271 4.25371C5.43438 5.87187 7.14004 7.74787 10.549 11.4987L12.8334 14H15.1667L17.451 11.4999C20.86 7.74787 22.5645 5.87187 22.0874 4.25487C22.0469 4.11598 21.9962 3.98027 21.9357 3.84887C21.2334 2.33337 18.8219 2.33337 14 2.33337ZM11.6667 5.54171C11.4346 5.54171 11.2121 5.63389 11.048 5.79799C10.8839 5.96208 10.7917 6.18464 10.7917 6.41671C10.7917 6.64877 10.8839 6.87133 11.048 7.03543C11.2121 7.19952 11.4346 7.29171 11.6667 7.29171H16.3334C16.5654 7.29171 16.788 7.19952 16.9521 7.03543C17.1162 6.87133 17.2084 6.64877 17.2084 6.41671C17.2084 6.18464 17.1162 5.96208 16.9521 5.79799C16.788 5.63389 16.5654 5.54171 16.3334 5.54171H11.6667Z" fill="#3617CE"/>
<path id="Vector_2" opacity="0.3" d="M6.06456 24.15C6.76689 25.6667 9.17839 25.6667 14.0002 25.6667C18.8221 25.6667 21.2336 25.6667 21.9359 24.15C21.9963 24.0194 22.047 23.8844 22.0876 23.7463C22.5659 22.1282 20.8602 20.2522 17.4512 16.5013L15.1669 14H12.8336L10.5492 16.5002C7.14023 20.2522 5.43573 22.1282 5.91289 23.7452C5.95373 23.8852 6.00389 24.0193 6.06456 24.15Z" fill="#3617CE"/>
<path id="Vector_3" d="M11.6665 20.7084C11.4344 20.7084 11.2119 20.8006 11.0478 20.9647C10.8837 21.1287 10.7915 21.3513 10.7915 21.5834C10.7915 21.8154 10.8837 22.038 11.0478 22.2021C11.2119 22.3662 11.4344 22.4584 11.6665 22.4584H16.3332C16.5652 22.4584 16.7878 22.3662 16.9519 22.2021C17.116 22.038 17.2082 21.8154 17.2082 21.5834C17.2082 21.3513 17.116 21.1287 16.9519 20.9647C16.7878 20.8006 16.5652 20.7084 16.3332 20.7084H11.6665Z" fill="#3617CE"/>
</g>
</g>
</svg>
