<svg width="16" height="16" viewBox="0 0 16 16" fill="none" xmlns="http://www.w3.org/2000/svg">
<g id="u:user">
<path id="Vector" d="M10.164 8.41424C10.7359 7.9643 11.1533 7.34729 11.3582 6.64905C11.5631 5.95082 11.5453 5.20608 11.3072 4.51846C11.0691 3.83083 10.6226 3.2345 10.0299 2.81244C9.4371 2.39038 8.72752 2.16357 7.99984 2.16357C7.27216 2.16357 6.56258 2.39038 5.96981 2.81244C5.37704 3.2345 4.93056 3.83083 4.69248 4.51846C4.45441 5.20608 4.43658 5.95082 4.64147 6.64905C4.84637 7.34729 5.26379 7.9643 5.83569 8.41424C4.85574 8.80685 4.0007 9.45802 3.36172 10.2983C2.72275 11.1387 2.32379 12.1366 2.20738 13.1859C2.19895 13.2625 2.20569 13.34 2.22722 13.414C2.24875 13.488 2.28465 13.557 2.33286 13.6172C2.43022 13.7386 2.57183 13.8164 2.72654 13.8334C2.88125 13.8504 3.03638 13.8053 3.15781 13.7079C3.27924 13.6105 3.35702 13.4689 3.37404 13.3142C3.50213 12.1739 4.04585 11.1208 4.90132 10.356C5.75679 9.59127 6.86404 9.1685 8.01151 9.1685C9.15898 9.1685 10.2662 9.59127 11.1217 10.356C11.9772 11.1208 12.5209 12.1739 12.649 13.3142C12.6648 13.4575 12.7332 13.5899 12.841 13.6858C12.9487 13.7817 13.0881 13.8343 13.2323 13.8334H13.2965C13.4494 13.8158 13.5891 13.7385 13.6853 13.6183C13.7815 13.4981 13.8262 13.3448 13.8098 13.1917C13.6928 12.1395 13.2917 11.139 12.6495 10.2973C12.0072 9.45573 11.148 8.80477 10.164 8.41424ZM7.99984 8.00008C7.53835 8.00008 7.08723 7.86323 6.70352 7.60684C6.31981 7.35045 6.02074 6.98604 5.84413 6.55968C5.66753 6.13332 5.62132 5.66417 5.71136 5.21155C5.80139 4.75893 6.02361 4.34317 6.34993 4.01685C6.67626 3.69053 7.09201 3.46831 7.54463 3.37827C7.99725 3.28824 8.4664 3.33445 8.89276 3.51105C9.31912 3.68766 9.68354 3.98672 9.93992 4.37044C10.1963 4.75415 10.3332 5.20527 10.3332 5.66676C10.3332 6.28559 10.0873 6.87908 9.64975 7.31666C9.21216 7.75425 8.61868 8.00008 7.99984 8.00008Z" fill="#C2B9F0"/>
</g>
</svg>
