<svg width="70" height="70" viewBox="0 0 70 70" fill="none" xmlns="http://www.w3.org/2000/svg">
<path fill-rule="evenodd" clip-rule="evenodd" d="M34 40.5723V52C34 54.8199 34 57.1127 34.1225 59.0008H18.785C18.3421 59.0008 17.9174 58.8226 17.6043 58.5053C17.2911 58.1881 17.1152 57.7578 17.1152 57.3091C17.1152 56.8604 17.2911 56.4301 17.6043 56.1129C17.9174 55.7956 18.3421 55.6174 18.785 55.6174H29.4492V49.5948H22.2135C15.9152 49.5948 9.76716 49.5948 7.8102 47.6121C6.54341 46.3287 6.01354 44.5377 5.85547 41.7001V40.5723H34Z" fill="#3617CE"/>
<path opacity="0.2" fill-rule="evenodd" clip-rule="evenodd" d="M15.8555 11.8574C10.3326 11.8574 5.85547 16.3346 5.85547 21.8574V40.5717H34V39.9C34 38.1341 34 37.2521 34.14 36.5159C34.4384 34.9358 35.2063 33.482 36.3433 32.3447C37.4803 31.2072 38.9337 30.439 40.514 30.14C41.252 30 42.136 30 43.9 30C44.2576 30 44.5328 30 44.7621 30.0034C45.028 30.0072 45.2323 30.0157 45.432 30.0341C47.0341 30.1844 48.5536 30.8146 49.792 31.842C50.0786 32.0788 50.3494 32.3495 50.8923 32.8923L50.9 32.8999L50.901 32.9009C50.471 32.4688 50.209 32.2088 49.977 32.0008H56.4269V21.8574C56.4269 16.3346 51.9497 11.8574 46.4269 11.8574H15.8555Z" fill="#3617CE"/>
<path opacity="0.5" d="M37.832 41.8465C37.832 40.5956 37.832 39.9708 37.9312 39.4495C38.1426 38.3301 38.6865 37.3004 39.4919 36.4948C40.2973 35.6891 41.3268 35.1449 42.4461 34.9332C42.9689 34.834 43.595 34.834 44.8445 34.834C45.3914 34.834 45.6662 34.834 45.9297 34.8581C47.0645 34.9646 48.1408 35.411 49.018 36.1387C49.222 36.3073 49.4147 36.5 49.8029 36.8882L50.582 37.6673C51.738 38.8233 52.316 39.4013 53.0074 39.7852C53.3873 39.997 53.7904 40.1643 54.2087 40.2839C54.9709 40.5007 55.7883 40.5007 57.4217 40.5007H57.9515C61.6802 40.5007 63.5459 40.5007 64.7572 41.5915C64.8691 41.6907 64.9754 41.7969 65.0745 41.9088C66.1654 43.1201 66.1654 44.9858 66.1654 48.7145V51.834C66.1654 57.1762 66.1654 59.8481 64.505 61.507C62.8461 63.1673 60.1743 63.1673 54.832 63.1673H49.1654C43.8231 63.1673 41.1513 63.1673 39.4924 61.507C37.832 59.8481 37.832 57.1762 37.832 51.834V41.8465Z" fill="#3617CE"/>
<path d="M63.3321 40.8372C63.3321 40.415 63.325 40.1642 63.2967 39.9447C63.1743 39.0172 62.7494 38.1561 62.0878 37.4948C61.4262 36.8334 60.5649 36.4088 59.6374 36.2868C59.3612 36.25 59.0325 36.25 58.3738 36.25H49.1484C49.3128 36.3973 49.4984 36.5815 49.8029 36.8875L50.5821 37.6667C51.7381 38.8227 52.3161 39.4007 53.0074 39.7846C53.3879 39.9965 53.7914 40.1638 54.2102 40.2833C54.9709 40.5 55.7884 40.5 57.4232 40.5H57.9516C60.4733 40.5 62.1407 40.5 63.3321 40.8372Z" fill="#3617CE"/>
<path d="M52.001 47.2109C52.2383 47.2109 52.4659 47.3052 52.6337 47.473C52.8015 47.6408 52.8958 47.8684 52.8958 48.1057V50.7899H55.58C55.8173 50.7899 56.0449 50.8842 56.2126 51.0519C56.3804 51.2197 56.4747 51.4473 56.4747 51.6846C56.4747 51.9219 56.3804 52.1495 56.2126 52.3173C56.0449 52.4851 55.8173 52.5794 55.58 52.5794H52.8958V55.2636C52.8958 55.5009 52.8015 55.7284 52.6337 55.8962C52.4659 56.064 52.2383 56.1583 52.001 56.1583C51.7637 56.1583 51.5361 56.064 51.3684 55.8962C51.2006 55.7284 51.1063 55.5009 51.1063 55.2636V52.5794H48.4221C48.1848 52.5794 47.9572 52.4851 47.7894 52.3173C47.6216 52.1495 47.5273 51.9219 47.5273 51.6846C47.5273 51.4473 47.6216 51.2197 47.7894 51.0519C47.9572 50.8842 48.1848 50.7899 48.4221 50.7899H51.1063V48.1057C51.1063 47.8684 51.2006 47.6408 51.3684 47.473C51.5361 47.3052 51.7637 47.2109 52.001 47.2109Z" fill="white"/>
<path d="M37 25L29.5075 32L26 28.7059" stroke="#3617CE" stroke-width="3" stroke-miterlimit="10" stroke-linecap="round" stroke-linejoin="round"/>
</svg>
