<svg width="20" height="20" viewBox="0 0 20 20" fill="none" xmlns="http://www.w3.org/2000/svg">
<g id="solar:download-minimalistic-bold-duotone">
<g id="Group">
<path id="Vector" opacity="0.5" fill-rule="evenodd" clip-rule="evenodd" d="M2.5 11.875C2.66576 11.875 2.82473 11.9408 2.94194 12.0581C3.05915 12.1753 3.125 12.3342 3.125 12.5C3.125 13.6958 3.12667 14.53 3.21083 15.16C3.29333 15.7717 3.44417 16.095 3.67417 16.3258C3.905 16.5567 4.22833 16.7067 4.84083 16.7892C5.46917 16.8733 6.30417 16.875 7.5 16.875H12.5C13.6958 16.875 14.53 16.8733 15.16 16.7892C15.7717 16.7067 16.095 16.5558 16.3258 16.3258C16.5567 16.095 16.7067 15.7717 16.7892 15.1592C16.8733 14.53 16.875 13.6958 16.875 12.5C16.875 12.3342 16.9408 12.1753 17.0581 12.0581C17.1753 11.9408 17.3342 11.875 17.5 11.875C17.6658 11.875 17.8247 11.9408 17.9419 12.0581C18.0592 12.1753 18.125 12.3342 18.125 12.5V12.5458C18.125 13.685 18.125 14.6042 18.0283 15.3267C17.9267 16.0767 17.7117 16.7083 17.21 17.21C16.7083 17.7117 16.0767 17.9267 15.3267 18.0283C14.6042 18.125 13.685 18.125 12.5458 18.125H7.45417C6.315 18.125 5.39583 18.125 4.67333 18.0283C3.92333 17.9267 3.29167 17.7117 2.79 17.21C2.28833 16.7083 2.07333 16.0767 1.9725 15.3267C1.875 14.6042 1.875 13.685 1.875 12.5458V12.5C1.875 12.3342 1.94085 12.1753 2.05806 12.0581C2.17527 11.9408 2.33424 11.875 2.5 11.875Z" fill="#3617CE"/>
<path id="Vector_2" fill-rule="evenodd" clip-rule="evenodd" d="M9.99988 13.9583C10.0866 13.9583 10.1724 13.9402 10.2517 13.9051C10.331 13.8701 10.4022 13.819 10.4607 13.755L13.794 10.1092C13.8507 10.0488 13.8948 9.97782 13.9238 9.90029C13.9529 9.82275 13.9662 9.74023 13.963 9.6575C13.9599 9.57478 13.9403 9.49351 13.9055 9.4184C13.8707 9.3433 13.8213 9.27586 13.7602 9.22C13.6991 9.16415 13.6275 9.12099 13.5496 9.09303C13.4716 9.06506 13.389 9.05286 13.3063 9.05713C13.2236 9.06139 13.1426 9.08203 13.068 9.11786C12.9933 9.15369 12.9266 9.20399 12.8715 9.26583L10.6249 11.7242V2.5C10.6249 2.33424 10.559 2.17527 10.4418 2.05806C10.3246 1.94085 10.1656 1.875 9.99988 1.875C9.83412 1.875 9.67515 1.94085 9.55794 2.05806C9.44073 2.17527 9.37488 2.33424 9.37488 2.5V11.7233L7.12821 9.265C7.01627 9.14256 6.86027 9.0696 6.69454 9.06218C6.5288 9.05475 6.36691 9.11347 6.24447 9.22542C6.12202 9.33736 6.04907 9.49336 6.04164 9.65909C6.03422 9.82483 6.09294 9.98672 6.20488 10.1092L9.53821 13.755C9.59681 13.8191 9.66813 13.8703 9.74762 13.9053C9.82711 13.9403 9.91302 13.9584 9.99988 13.9583Z" fill="#3617CE"/>
</g>
</g>
</svg>
