<svg width="24" height="24" viewBox="0 0 24 24" fill="none" xmlns="http://www.w3.org/2000/svg">
<g id="iconoir:pc-firewall">
<g id="Group">
<path id="Vector" d="M7.4165 21.1669H16.5832" stroke="#808699" stroke-width="1.5" stroke-linecap="round" stroke-linejoin="round"/>
<path id="Vector_2" d="M2.83325 16.5835V4.66683C2.83325 4.1806 3.02641 3.71428 3.37022 3.37047C3.71404 3.02665 4.18036 2.8335 4.66659 2.8335H19.3333C19.8195 2.8335 20.2858 3.02665 20.6296 3.37047C20.9734 3.71428 21.1666 4.1806 21.1666 4.66683V16.5835C21.1666 17.0697 20.9734 17.536 20.6296 17.8799C20.2858 18.2237 19.8195 18.4168 19.3333 18.4168H4.66659C4.18036 18.4168 3.71404 18.2237 3.37022 17.8799C3.02641 17.536 2.83325 17.0697 2.83325 16.5835Z" stroke="#808699" stroke-width="1.5"/>
<path id="Vector_3" d="M12 8.79526L11.483 8.30338C10.3955 7.26864 9.30563 7.10143 8.56869 7.35825C7.85362 7.60745 7.25 8.33164 7.25 9.5918C7.25 10.2093 7.63222 10.9558 8.33503 11.7639C9.01769 12.5488 9.90369 13.279 10.6879 13.8527C10.688 13.8528 10.6882 13.8529 10.6883 13.853L10.6943 13.8574L12 8.79526ZM12 8.79526L12.517 8.30338M12 8.79526L12.517 8.30338M12.517 8.30338C13.6047 7.26849 14.6945 7.10103 15.4313 7.35779C16.146 7.60687 16.75 8.33124 16.75 9.59362C16.75 10.2111 16.3678 10.9576 15.665 11.7654M12.517 8.30338L15.665 11.7654M15.665 11.7654C14.9824 12.5501 14.0963 13.2799 13.3123 13.8526L15.665 11.7654ZM12 14.5504C11.6895 14.5504 11.5096 14.4518 10.6943 13.8574L13.3122 13.8526C12.4917 14.4508 12.3101 14.5504 12 14.5504Z" stroke="#808699" stroke-width="1.5"/>
</g>
</g>
</svg>
