<svg width="50" height="50" viewBox="0 0 50 50" fill="none" xmlns="http://www.w3.org/2000/svg">
<rect opacity="0.05" width="50" height="50" rx="25" fill="#3617CE"/>
<path opacity="0.6" d="M37.5 17.25C37.5 18.2446 37.1049 19.1984 36.4017 19.9017C35.6984 20.6049 34.7446 21 33.75 21C32.7554 21 31.8016 20.6049 31.0983 19.9017C30.3951 19.1984 30 18.2446 30 17.25C30 16.2554 30.3951 15.3016 31.0983 14.5983C31.8016 13.8951 32.7554 13.5 33.75 13.5C34.7446 13.5 35.6984 13.8951 36.4017 14.5983C37.1049 15.3016 37.5 16.2554 37.5 17.25Z" fill="#3617CE"/>
<path opacity="0.2" d="M29.0437 14.1688C27.7419 13.7246 26.3756 13.4986 25 13.5C18.0963 13.5 12.5 19.0963 12.5 26C12.5 28 12.97 29.89 13.8038 31.5663C14.0263 32.0113 14.1 32.52 13.9713 33.0013L13.2275 35.7838C13.1541 36.059 13.1544 36.3488 13.2283 36.6239C13.3022 36.8991 13.4472 37.1499 13.6486 37.3514C13.8501 37.5528 14.1009 37.6978 14.3761 37.7717C14.6512 37.8456 14.941 37.8459 15.2162 37.7725L17.9988 37.0288C18.4818 36.9072 18.9925 36.9663 19.435 37.195C21.1637 38.0558 23.0689 38.5026 25 38.5C31.9037 38.5 37.5 32.9038 37.5 26C37.5 24.585 37.265 23.225 36.8312 21.9563C35.75 22.6644 34.4579 22.9786 33.1722 22.846C31.8866 22.7134 30.6858 22.1421 29.7718 21.2282C28.8579 20.3142 28.2866 19.1135 28.154 17.8278C28.0214 16.5421 28.3356 15.25 29.0437 14.1688Z" fill="#3617CE"/>
<path d="M27.5 13.7503C24.5074 13.1449 21.3968 13.6506 18.75 15.1728M37.25 23.5003C37.4138 24.3078 37.5 25.144 37.5 26.0003C37.5 32.904 31.9038 38.5003 25 38.5003C23 38.5003 21.11 38.0303 19.435 37.1953C18.9925 36.9666 18.4818 36.9075 17.9988 37.029L15.2163 37.774C14.9409 37.8475 14.651 37.8473 14.3757 37.7733C14.1004 37.6993 13.8494 37.5543 13.6479 37.3527C13.4464 37.151 13.3015 36.9 13.2277 36.6246C13.1539 36.3493 13.1539 36.0594 13.2275 35.784L13.9713 33.0015C14.0922 32.5188 14.0327 32.0084 13.8038 31.5665C12.9433 29.8374 12.497 27.9317 12.5 26.0003C12.5 23.724 13.1088 21.5878 14.1725 19.7503" stroke="#3617CE" stroke-width="1.5" stroke-linecap="round"/>
<path opacity="0.5" d="M20 22H25" stroke="#3617CE" stroke-width="1.5" stroke-linecap="round"/>
<path opacity="0.5" d="M20 26H30" stroke="#3617CE" stroke-width="1.5" stroke-linecap="round"/>
<path opacity="0.5" d="M20 30H30" stroke="#3617CE" stroke-width="1.5" stroke-linecap="round"/>
</svg>
