<svg width="530" height="89" viewBox="0 0 530 89" fill="none" xmlns="http://www.w3.org/2000/svg">
<circle cx="408" cy="35" r="29.5" fill="white" stroke="#565EA1" stroke-dasharray="2 2"/>
<circle cx="40" cy="35" r="29.5" fill="white" stroke="#565EA1" stroke-dasharray="2 2"/>
<path opacity="0.5" d="M34.3531 23.75H45.6464C47.0228 23.75 47.7103 23.75 48.2661 23.9436C48.7901 24.1293 49.2642 24.4333 49.6516 24.8321C50.0391 25.2308 50.3293 25.7135 50.4998 26.2426C50.6875 26.815 50.6875 27.5228 50.6875 28.9395V45.5696C50.6875 46.5885 49.5178 47.13 48.7779 46.4531C48.5704 46.2613 48.2981 46.1548 48.0155 46.1548C47.7329 46.1548 47.4607 46.2613 47.2532 46.4531L46.6796 46.978C46.3159 47.3143 45.8389 47.501 45.3436 47.501C44.8483 47.501 44.3713 47.3143 44.0076 46.978C43.644 46.6417 43.167 46.455 42.6717 46.455C42.1764 46.455 41.6993 46.6417 41.3357 46.978C40.9721 47.3143 40.495 47.501 39.9997 47.501C39.5045 47.501 39.0274 47.3143 38.6638 46.978C38.3001 46.6417 37.8231 46.455 37.3278 46.455C36.8325 46.455 36.3555 46.6417 35.9918 46.978C35.6282 47.3143 35.1512 47.501 34.6559 47.501C34.1606 47.501 33.6835 47.3143 33.3199 46.978L32.7463 46.4531C32.5388 46.2613 32.2665 46.1548 31.9839 46.1548C31.7013 46.1548 31.4291 46.2613 31.2216 46.4531C30.4817 47.13 29.312 46.5885 29.312 45.5696V28.9395C29.312 27.5228 29.312 26.8138 29.4996 26.2438C29.8559 25.1596 30.6812 24.3093 31.7334 23.9436C32.2891 23.75 32.9767 23.75 34.3531 23.75Z" fill="#3617CE"/>
<path d="M34.063 29.3906C33.8268 29.3906 33.6003 29.4845 33.4332 29.6515C33.2662 29.8185 33.1724 30.0451 33.1724 30.2813C33.1724 30.5175 33.2662 30.744 33.4332 30.911C33.6003 31.0781 33.8268 31.1719 34.063 31.1719H34.6568C34.893 31.1719 35.1195 31.0781 35.2866 30.911C35.4536 30.744 35.5474 30.5175 35.5474 30.2813C35.5474 30.0451 35.4536 29.8185 35.2866 29.6515C35.1195 29.4845 34.893 29.3906 34.6568 29.3906H34.063ZM38.2193 29.3906C37.9831 29.3906 37.7566 29.4845 37.5896 29.6515C37.4225 29.8185 37.3287 30.0451 37.3287 30.2813C37.3287 30.5175 37.4225 30.744 37.5896 30.911C37.7566 31.0781 37.9831 31.1719 38.2193 31.1719H45.9383C46.1745 31.1719 46.401 31.0781 46.568 30.911C46.7351 30.744 46.8289 30.5175 46.8289 30.2813C46.8289 30.0451 46.7351 29.8185 46.568 29.6515C46.401 29.4845 46.1745 29.3906 45.9383 29.3906H38.2193ZM34.063 33.547C33.8268 33.547 33.6003 33.6408 33.4332 33.8078C33.2662 33.9749 33.1724 34.2014 33.1724 34.4376C33.1724 34.6738 33.2662 34.9004 33.4332 35.0674C33.6003 35.2344 33.8268 35.3283 34.063 35.3283H34.6568C34.893 35.3283 35.1195 35.2344 35.2866 35.0674C35.4536 34.9004 35.5474 34.6738 35.5474 34.4376C35.5474 34.2014 35.4536 33.9749 35.2866 33.8078C35.1195 33.6408 34.893 33.547 34.6568 33.547H34.063ZM38.2193 33.547C37.9831 33.547 37.7566 33.6408 37.5896 33.8078C37.4225 33.9749 37.3287 34.2014 37.3287 34.4376C37.3287 34.6738 37.4225 34.9004 37.5896 35.0674C37.7566 35.2344 37.9831 35.3283 38.2193 35.3283H45.9383C46.1745 35.3283 46.401 35.2344 46.568 35.0674C46.7351 34.9004 46.8289 34.6738 46.8289 34.4376C46.8289 34.2014 46.7351 33.9749 46.568 33.8078C46.401 33.6408 46.1745 33.547 45.9383 33.547H38.2193ZM34.063 37.7033C33.8268 37.7033 33.6003 37.7971 33.4332 37.9642C33.2662 38.1312 33.1724 38.3577 33.1724 38.5939C33.1724 38.8302 33.2662 39.0567 33.4332 39.2237C33.6003 39.3908 33.8268 39.4846 34.063 39.4846H34.6568C34.893 39.4846 35.1195 39.3908 35.2866 39.2237C35.4536 39.0567 35.5474 38.8302 35.5474 38.5939C35.5474 38.3577 35.4536 38.1312 35.2866 37.9642C35.1195 37.7971 34.893 37.7033 34.6568 37.7033H34.063ZM38.2193 37.7033C37.9831 37.7033 37.7566 37.7971 37.5896 37.9642C37.4225 38.1312 37.3287 38.3577 37.3287 38.5939C37.3287 38.8302 37.4225 39.0567 37.5896 39.2237C37.7566 39.3908 37.9831 39.4846 38.2193 39.4846H45.9383C46.1745 39.4846 46.401 39.3908 46.568 39.2237C46.7351 39.0567 46.8289 38.8302 46.8289 38.5939C46.8289 38.3577 46.7351 38.1312 46.568 37.9642C46.401 37.7971 46.1745 37.7033 45.9383 37.7033H38.2193Z" fill="#3617CE"/>
<circle cx="132" cy="35" r="29.5" fill="white" stroke="#565EA1" stroke-dasharray="2 2"/>
<path opacity="0.5" d="M126.451 23.332H137.547C138.899 23.332 139.575 23.332 140.121 23.5222C140.636 23.7047 141.102 24.0034 141.482 24.3952C141.863 24.787 142.148 25.2613 142.316 25.7812C142.5 26.3436 142.5 27.039 142.5 28.431V44.771C142.5 45.7722 141.351 46.3042 140.624 45.6391C140.42 45.4507 140.153 45.346 139.875 45.346C139.597 45.346 139.33 45.4507 139.126 45.6391L138.562 46.1549C138.205 46.4853 137.736 46.6688 137.25 46.6688C136.763 46.6688 136.294 46.4853 135.937 46.1549C135.58 45.8245 135.111 45.641 134.624 45.641C134.138 45.641 133.669 45.8245 133.312 46.1549C132.954 46.4853 132.486 46.6688 131.999 46.6688C131.512 46.6688 131.043 46.4853 130.686 46.1549C130.329 45.8245 129.86 45.641 129.374 45.641C128.887 45.641 128.418 45.8245 128.061 46.1549C127.704 46.4853 127.235 46.6688 126.748 46.6688C126.262 46.6688 125.793 46.4853 125.436 46.1549L124.872 45.6391C124.668 45.4507 124.401 45.346 124.123 45.346C123.845 45.346 123.578 45.4507 123.374 45.6391C122.647 46.3042 121.498 45.7722 121.498 44.771V28.431C121.498 27.039 121.498 26.3424 121.682 25.7823C122.032 24.717 122.843 23.8816 123.877 23.5222C124.423 23.332 125.098 23.332 126.451 23.332Z" fill="#3617CE"/>
<path d="M135.569 30.9154C135.646 30.8296 135.705 30.7296 135.743 30.621C135.781 30.5124 135.797 30.3974 135.79 30.2825C135.784 30.1677 135.755 30.0552 135.705 29.9516C135.655 29.848 135.585 29.7552 135.499 29.6786C135.413 29.602 135.313 29.543 135.205 29.5051C135.096 29.4671 134.981 29.451 134.866 29.4575C134.751 29.464 134.639 29.493 134.535 29.543C134.432 29.5929 134.339 29.6628 134.262 29.7486L130.749 33.6854L129.734 32.549C129.579 32.3775 129.362 32.2745 129.131 32.2623C128.9 32.2501 128.674 32.3298 128.502 32.4839C128.329 32.638 128.225 32.8541 128.212 33.0849C128.198 33.3158 128.276 33.5425 128.43 33.7158L130.096 35.5827C130.178 35.6746 130.278 35.7482 130.391 35.7986C130.503 35.849 130.625 35.875 130.749 35.875C130.872 35.875 130.994 35.849 131.106 35.7986C131.219 35.7482 131.319 35.6746 131.401 35.5827L135.569 30.9154ZM126.748 38.208C126.516 38.208 126.293 38.3002 126.129 38.4643C125.965 38.6284 125.873 38.851 125.873 39.0831C125.873 39.3152 125.965 39.5378 126.129 39.7019C126.293 39.866 126.516 39.9582 126.748 39.9582H137.249C137.482 39.9582 137.704 39.866 137.868 39.7019C138.032 39.5378 138.125 39.3152 138.125 39.0831C138.125 38.851 138.032 38.6284 137.868 38.4643C137.704 38.3002 137.482 38.208 137.249 38.208H126.748Z" fill="#3617CE"/>
<circle cx="224" cy="35" r="29.5" fill="white" stroke="#565EA1" stroke-dasharray="2 2"/>
<circle cx="316" cy="35" r="29.5" fill="white" stroke="#565EA1" stroke-dasharray="2 2"/>
<circle cx="500" cy="35" r="29.5" fill="white" stroke="#565EA1" stroke-dasharray="2 2"/>
<path opacity="0.5" d="M504.559 40.001L504.559 46.251L494.559 46.251L494.559 40.001C495.059 37.001 498.1 36.251 499.559 36.251C503.059 36.251 504.35 38.751 504.559 40.001Z" fill="#3617CE" stroke="#3617CE" stroke-width="2.5" stroke-linecap="round"/>
<path d="M492.178 46.2852H507.09" stroke="#3617CE" stroke-width="2.5" stroke-linecap="round"/>
<path opacity="0.5" d="M494.709 30.0361L494.709 23.7861L504.709 23.7861L504.709 30.0361C504.209 33.0361 501.167 33.7861 499.709 33.7861C496.209 33.7861 494.917 31.2861 494.709 30.0361Z" fill="#3617CE" stroke="#3617CE" stroke-width="2.5" stroke-linecap="round"/>
<path d="M507.09 23.752L492.178 23.752" stroke="#3617CE" stroke-width="2.5" stroke-linecap="round"/>
<circle cx="505.249" cy="38.75" r="4.5" fill="#3617CE"/>
<path d="M503.374 39.0872L504.639 40.25L507.124 38" stroke="white" stroke-width="2" stroke-linecap="round" stroke-linejoin="round"/>
<path d="M500.928 27.501H498.428V28.751C498.428 29.0825 498.56 29.4004 498.794 29.6349C499.029 29.8693 499.347 30.001 499.678 30.001C500.01 30.001 500.328 29.8693 500.562 29.6349C500.797 29.4004 500.928 29.0825 500.928 28.751V27.501Z" fill="white"/>
<path d="M101.53 33.5303C101.823 33.2374 101.823 32.7626 101.53 32.4697L96.7574 27.6967C96.4645 27.4038 95.9896 27.4038 95.6967 27.6967C95.4038 27.9896 95.4038 28.4645 95.6967 28.7574L99.9393 33L95.6967 37.2426C95.4038 37.5355 95.4038 38.0104 95.6967 38.3033C95.9896 38.5962 96.4645 38.5962 96.7574 38.3033L101.53 33.5303ZM70 33.75L70.9687 33.75L70.9688 32.25L70 32.25L70 33.75ZM72.9062 33.75L74.8437 33.75L74.8438 32.25L72.9063 32.25L72.9062 33.75ZM76.7812 33.75L78.7187 33.75L78.7188 32.25L76.7813 32.25L76.7812 33.75ZM80.6562 33.75L82.5937 33.75L82.5938 32.25L80.6563 32.25L80.6562 33.75ZM84.5312 33.75L86.4687 33.75L86.4688 32.25L84.5313 32.25L84.5312 33.75ZM88.4062 33.75L90.3437 33.75L90.3438 32.25L88.4063 32.25L88.4062 33.75ZM92.2812 33.75L94.2187 33.75L94.2188 32.25L92.2813 32.25L92.2812 33.75ZM96.1562 33.75L98.0937 33.75L98.0938 32.25L96.1563 32.25L96.1562 33.75ZM100.031 33.75L101 33.75L101 32.25L100.031 32.25L100.031 33.75Z" fill="url(#paint0_linear_938_2920)"/>
<path d="M193.53 33.5303C193.823 33.2374 193.823 32.7626 193.53 32.4697L188.757 27.6967C188.464 27.4038 187.99 27.4038 187.697 27.6967C187.404 27.9896 187.404 28.4645 187.697 28.7574L191.939 33L187.697 37.2426C187.404 37.5355 187.404 38.0104 187.697 38.3033C187.99 38.5962 188.464 38.5962 188.757 38.3033L193.53 33.5303ZM162 33.75L162.969 33.75L162.969 32.25L162 32.25L162 33.75ZM164.906 33.75L166.844 33.75L166.844 32.25L164.906 32.25L164.906 33.75ZM168.781 33.75L170.719 33.75L170.719 32.25L168.781 32.25L168.781 33.75ZM172.656 33.75L174.594 33.75L174.594 32.25L172.656 32.25L172.656 33.75ZM176.531 33.75L178.469 33.75L178.469 32.25L176.531 32.25L176.531 33.75ZM180.406 33.75L182.344 33.75L182.344 32.25L180.406 32.25L180.406 33.75ZM184.281 33.75L186.219 33.75L186.219 32.25L184.281 32.25L184.281 33.75ZM188.156 33.75L190.094 33.75L190.094 32.25L188.156 32.25L188.156 33.75ZM192.031 33.75L193 33.75L193 32.25L192.031 32.25L192.031 33.75Z" fill="url(#paint1_linear_938_2920)"/>
<path d="M285.53 33.5303C285.823 33.2374 285.823 32.7626 285.53 32.4697L280.757 27.6967C280.464 27.4038 279.99 27.4038 279.697 27.6967C279.404 27.9896 279.404 28.4645 279.697 28.7574L283.939 33L279.697 37.2426C279.404 37.5355 279.404 38.0104 279.697 38.3033C279.99 38.5962 280.464 38.5962 280.757 38.3033L285.53 33.5303ZM254 33.75L254.969 33.75L254.969 32.25L254 32.25L254 33.75ZM256.906 33.75L258.844 33.75L258.844 32.25L256.906 32.25L256.906 33.75ZM260.781 33.75L262.719 33.75L262.719 32.25L260.781 32.25L260.781 33.75ZM264.656 33.75L266.594 33.75L266.594 32.25L264.656 32.25L264.656 33.75ZM268.531 33.75L270.469 33.75L270.469 32.25L268.531 32.25L268.531 33.75ZM272.406 33.75L274.344 33.75L274.344 32.25L272.406 32.25L272.406 33.75ZM276.281 33.75L278.219 33.75L278.219 32.25L276.281 32.25L276.281 33.75ZM280.156 33.75L282.094 33.75L282.094 32.25L280.156 32.25L280.156 33.75ZM284.031 33.75L285 33.75L285 32.25L284.031 32.25L284.031 33.75Z" fill="url(#paint2_linear_938_2920)"/>
<path d="M377.53 33.5303C377.823 33.2374 377.823 32.7626 377.53 32.4697L372.757 27.6967C372.464 27.4038 371.99 27.4038 371.697 27.6967C371.404 27.9896 371.404 28.4645 371.697 28.7574L375.939 33L371.697 37.2426C371.404 37.5355 371.404 38.0104 371.697 38.3033C371.99 38.5962 372.464 38.5962 372.757 38.3033L377.53 33.5303ZM346 33.75L346.969 33.75L346.969 32.25L346 32.25L346 33.75ZM348.906 33.75L350.844 33.75L350.844 32.25L348.906 32.25L348.906 33.75ZM352.781 33.75L354.719 33.75L354.719 32.25L352.781 32.25L352.781 33.75ZM356.656 33.75L358.594 33.75L358.594 32.25L356.656 32.25L356.656 33.75ZM360.531 33.75L362.469 33.75L362.469 32.25L360.531 32.25L360.531 33.75ZM364.406 33.75L366.344 33.75L366.344 32.25L364.406 32.25L364.406 33.75ZM368.281 33.75L370.219 33.75L370.219 32.25L368.281 32.25L368.281 33.75ZM372.156 33.75L374.094 33.75L374.094 32.25L372.156 32.25L372.156 33.75ZM376.031 33.75L377 33.75L377 32.25L376.031 32.25L376.031 33.75Z" fill="url(#paint3_linear_938_2920)"/>
<path d="M469.53 33.5303C469.823 33.2374 469.823 32.7626 469.53 32.4697L464.757 27.6967C464.464 27.4038 463.99 27.4038 463.697 27.6967C463.404 27.9896 463.404 28.4645 463.697 28.7574L467.939 33L463.697 37.2426C463.404 37.5355 463.404 38.0104 463.697 38.3033C463.99 38.5962 464.464 38.5962 464.757 38.3033L469.53 33.5303ZM438 33.75L438.969 33.75L438.969 32.25L438 32.25L438 33.75ZM440.906 33.75L442.844 33.75L442.844 32.25L440.906 32.25L440.906 33.75ZM444.781 33.75L446.719 33.75L446.719 32.25L444.781 32.25L444.781 33.75ZM448.656 33.75L450.594 33.75L450.594 32.25L448.656 32.25L448.656 33.75ZM452.531 33.75L454.469 33.75L454.469 32.25L452.531 32.25L452.531 33.75ZM456.406 33.75L458.344 33.75L458.344 32.25L456.406 32.25L456.406 33.75ZM460.281 33.75L462.219 33.75L462.219 32.25L460.281 32.25L460.281 33.75ZM464.156 33.75L466.094 33.75L466.094 32.25L464.156 32.25L464.156 33.75ZM468.031 33.75L469 33.75L469 32.25L468.031 32.25L468.031 33.75Z" fill="url(#paint4_linear_938_2920)"/>
<path d="M24.8833 78.9807V74.9102H26.1692V87.1844H24.8833V80.0345H22.1519V78.9807H24.8833ZM20.3729 75.9302V78.0283C20.3681 80.2714 21.625 82.5048 23.4959 83.346L22.7127 84.3902C21.3156 83.6892 20.2617 82.3066 19.7251 80.6291C19.1837 82.3936 18.1153 83.8826 16.7086 84.6126L15.8867 83.5684C17.7818 82.6595 19.0483 80.2956 19.058 78.0283V75.9302H20.3729ZM29.398 77.6561H36.5913V76.4137H29.3689V75.3501H37.9159V78.6326H30.708V79.9814H38.1866V81.0401H29.398V77.6561ZM28.0347 82.1809H39.2453V83.2106H36.427V87.1602H35.1217V83.2106H32.1631V87.1602H30.8676V83.2106H28.0347V82.1809ZM41.251 80.3584L40.7724 79.3336C43.059 79.0435 44.8042 77.8688 44.8719 76.5394H41.1737V75.4952H50.3152V76.5394H46.5977C46.6557 77.8688 48.4202 79.0435 50.7068 79.3336L50.2137 80.3584C48.1157 80.078 46.3898 79.1015 45.7275 77.7238C45.0652 79.1015 43.3491 80.078 41.251 80.3584ZM40.1343 82.2051V81.1464H51.3449V82.2051H46.4865V84.5739H45.2006V82.2051H40.1343ZM41.5314 83.404H42.827V85.8453H50.1025V86.9088H41.5314V83.404ZM61.0951 74.9102H62.4003V87.1844H61.0951V74.9102ZM52.93 75.9302H54.2256V79.0773H57.5323V75.9302H58.8133V84.2548H52.93V75.9302ZM54.2256 80.107V83.1816H57.5323V80.107H54.2256Z" fill="#444444"/>
<circle cx="13" cy="13" r="13" fill="#565EA1"/>
<path d="M9.45355 18.1975C7.15071 18.193 5.75465 16.4334 5.76363 13.4123C5.76812 10.4002 7.15969 8.68094 9.45355 8.68094C11.7474 8.68094 13.148 10.4092 13.1435 13.4123C13.1435 16.4423 11.7519 18.1975 9.45355 18.1975ZM9.45355 16.6084C10.5174 16.6084 11.1997 15.5401 11.1997 13.4123C11.1953 11.3115 10.5129 10.2521 9.45355 10.2521C8.39415 10.2521 7.71183 11.3115 7.70734 13.4123C7.70286 15.5401 8.38966 16.6084 9.45355 16.6084ZM16.626 8.80663H18.4261V18H16.5138V10.6247H16.46L14.3501 11.9489V10.2521L16.626 8.80663Z" fill="white"/>
<circle cx="105" cy="13" r="13" fill="#565EA1"/>
<path d="M100.533 18.1975C98.2303 18.193 96.8342 16.4334 96.8432 13.4123C96.8477 10.4002 98.2393 8.68094 100.533 8.68094C102.827 8.68094 104.228 10.4092 104.223 13.4123C104.223 16.4423 102.831 18.1975 100.533 18.1975ZM100.533 16.6084C101.597 16.6084 102.279 15.5401 102.279 13.4123C102.275 11.3115 101.593 10.2521 100.533 10.2521C99.4737 10.2521 98.7914 11.3115 98.7869 13.4123C98.7824 15.5401 99.4693 16.6084 100.533 16.6084ZM112.127 18H105.542L105.537 16.6219L108.841 13.5829C109.694 12.7614 110.157 12.2541 110.161 11.518C110.157 10.7055 109.537 10.2027 108.702 10.2027C107.836 10.2027 107.266 10.7459 107.27 11.6302H105.457C105.452 9.83011 106.785 8.68094 108.716 8.68094C110.691 8.68094 111.997 9.80318 112.002 11.3968C111.997 12.4427 111.49 13.3046 109.595 15.0193L108.195 16.3705V16.4334H112.127V18Z" fill="white"/>
<circle cx="197" cy="13" r="13" fill="#565EA1"/>
<path d="M192.349 18.1975C190.046 18.193 188.65 16.4334 188.659 13.4123C188.664 10.4002 190.055 8.68094 192.349 8.68094C194.643 8.68094 196.043 10.4092 196.039 13.4123C196.039 16.4423 194.647 18.1975 192.349 18.1975ZM192.349 16.6084C193.413 16.6084 194.095 15.5401 194.095 13.4123C194.091 11.3115 193.408 10.2521 192.349 10.2521C191.29 10.2521 190.607 11.3115 190.603 13.4123C190.598 15.5401 191.285 16.6084 192.349 16.6084ZM200.769 18.1257C198.745 18.1257 197.3 17.0169 197.268 15.4144H199.194C199.225 16.0922 199.89 16.5456 200.774 16.5456C201.69 16.5456 202.345 16.0383 202.341 15.2977C202.345 14.548 201.681 14.0183 200.599 14.0183H199.746V12.6043H200.599C201.51 12.6043 202.143 12.1105 202.139 11.3833C202.143 10.683 201.6 10.2027 200.787 10.2027C199.975 10.2027 199.311 10.6561 199.284 11.3608H197.452C197.484 9.78073 198.911 8.68094 200.796 8.68094C202.709 8.68094 203.988 9.81664 203.979 11.2666C203.988 12.299 203.27 13.0307 202.233 13.2148V13.2866C203.589 13.4527 204.334 14.2742 204.325 15.4233C204.334 16.9945 202.839 18.1257 200.769 18.1257Z" fill="white"/>
<circle cx="289" cy="13" r="13" fill="#565EA1"/>
<path d="M283.728 18.1975C281.426 18.193 280.03 16.4334 280.039 13.4123C280.043 10.4002 281.435 8.68094 283.728 8.68094C286.022 8.68094 287.423 10.4092 287.418 13.4123C287.418 16.4423 286.027 18.1975 283.728 18.1975ZM283.728 16.6084C284.792 16.6084 285.475 15.5401 285.475 13.4123C285.47 11.3115 284.788 10.2521 283.728 10.2521C282.669 10.2521 281.987 11.3115 281.982 13.4123C281.978 15.5401 282.665 16.6084 283.728 16.6084ZM294.878 14.8398H296.036V16.3705H294.878V18H293.056V16.3705H288.589V14.8667L292.481 8.80663H294.878V14.8398ZM292.997 10.8985L290.515 14.768V14.8398H293.083V10.8985H292.997Z" fill="white"/>
<circle cx="381" cy="13" r="13" fill="#565EA1"/>
<path d="M376.425 18.1975C374.122 18.193 372.726 16.4334 372.735 13.4123C372.74 10.4002 374.131 8.68094 376.425 8.68094C378.719 8.68094 380.12 10.4092 380.115 13.4123C380.115 16.4423 378.724 18.1975 376.425 18.1975ZM376.425 16.6084C377.489 16.6084 378.171 15.5401 378.171 13.4123C378.167 11.3115 377.485 10.2521 376.425 10.2521C375.366 10.2521 374.684 11.3115 374.679 13.4123C374.675 15.5401 375.361 16.6084 376.425 16.6084ZM384.819 18.1257C382.902 18.1257 381.497 16.9945 381.461 15.4144H383.315C383.36 16.1281 384.015 16.6219 384.819 16.6219C385.77 16.6219 386.448 15.9485 386.444 14.9879C386.448 14.0183 385.757 13.336 384.787 13.3315C384.1 13.3315 383.616 13.5874 383.351 14.0991H381.614L382.116 8.80663H387.772V10.3733H383.688L383.436 12.6941H383.508C383.849 12.2407 384.545 11.913 385.353 11.913C387.041 11.913 388.293 13.1744 388.289 14.9385C388.293 16.797 386.884 18.1257 384.819 18.1257Z" fill="white"/>
<circle cx="473" cy="13" r="13" fill="#565EA1"/>
<path d="M468.324 18.1975C466.021 18.193 464.625 16.4334 464.634 13.4123C464.638 10.4002 466.03 8.68094 468.324 8.68094C470.618 8.68094 472.018 10.4092 472.014 13.4123C472.014 16.4423 470.622 18.1975 468.324 18.1975ZM468.324 16.6084C469.388 16.6084 470.07 15.5401 470.07 13.4123C470.065 11.3115 469.383 10.2521 468.324 10.2521C467.264 10.2521 466.582 11.3115 466.577 13.4123C466.573 15.5401 467.26 16.6084 468.324 16.6084ZM476.897 18.1257C474.993 18.1167 473.18 16.9855 473.184 13.6143C473.193 10.5169 474.67 8.68094 476.969 8.68094C478.818 8.68094 480.084 9.84807 480.272 11.3608H478.392C478.239 10.7189 477.709 10.3194 476.969 10.3194C475.721 10.3194 475.061 11.4416 475.056 13.2462H475.137C475.563 12.4337 476.47 11.9534 477.494 11.9534C479.146 11.9534 480.376 13.1968 480.371 14.9206C480.376 16.7925 478.966 18.1347 476.897 18.1257ZM476.888 16.6219C477.826 16.6219 478.522 15.9037 478.517 14.9744C478.522 14.0587 477.839 13.345 476.901 13.345C475.963 13.345 475.258 14.0811 475.249 14.9834C475.254 15.8812 475.941 16.6219 476.888 16.6219Z" fill="white"/>
<path d="M116.883 78.9807V74.9102H118.169V87.1844H116.883V80.0345H114.152V78.9807H116.883ZM112.373 75.9302V78.0283C112.368 80.2714 113.625 82.5048 115.496 83.346L114.713 84.3902C113.316 83.6892 112.262 82.3066 111.725 80.6291C111.184 82.3936 110.115 83.8826 108.709 84.6126L107.887 83.5684C109.782 82.6595 111.048 80.2956 111.058 78.0283V75.9302H112.373ZM121.398 77.6561H128.591V76.4137H121.369V75.3501H129.916V78.6326H122.708V79.9814H130.187V81.0401H121.398V77.6561ZM120.035 82.1809H131.245V83.2106H128.427V87.1602H127.122V83.2106H124.163V87.1602H122.868V83.2106H120.035V82.1809ZM141.068 77.8059V74.9102H142.354V81.5815H141.068V78.8791H138.767V77.8059H141.068ZM135.895 78.8453C135.359 80.1941 134.29 81.2721 132.83 81.7845L132.158 80.7645C134.044 80.107 135.219 78.4972 135.219 76.8149V76.6554H132.56V75.587H139.173V76.6554H136.533V76.8198C136.533 78.3474 137.641 79.8798 139.487 80.5035L138.825 81.5138C137.442 81.0256 136.427 80.0539 135.895 78.8453ZM135.668 83.5345H141.068V82.1326H142.354V87.0055H134.377V82.1326H135.668V83.5345ZM135.668 85.9517H141.068V84.5546H135.668V85.9517ZM149.846 77.7238C149.049 79.174 147.294 80.2086 145.302 80.5276L144.78 79.4689C147.183 79.145 149.165 77.6367 149.165 75.9883V75.3211H150.518V75.9883C150.518 77.6174 152.505 79.145 154.918 79.4689L154.4 80.5276C152.399 80.2086 150.644 79.1644 149.846 77.7238ZM144.253 81.7314H155.42V82.8046H150.446V87.1602H149.17V82.8046H144.253V81.7314Z" fill="#444444"/>
<path opacity="0.5" d="M233.346 24H215.654C214.188 24 213 25.2088 213 26.7V39.3C213 40.7912 214.188 42 215.654 42H233.346C234.812 42 236 40.7912 236 39.3V26.7C236 25.2088 234.812 24 233.346 24Z" fill="#3617CE"/>
<path d="M218.404 45.8848H229.398" stroke="#3617CE" stroke-width="2" stroke-linecap="round"/>
<circle cx="224" cy="32.75" r="5.25" fill="#3617CE"/>
<path d="M224 30.5V35M224 35L226.25 32.7167M224 35L221.75 32.7167" stroke="white" stroke-width="2" stroke-linecap="round" stroke-linejoin="round"/>
<path d="M221.75 42H226.25L227 46H221L221.75 42Z" fill="#3617CE"/>
<path d="M201.316 74.9199H202.616V83.8246H201.316V74.9199ZM195.964 81.828C194.117 81.8329 192.701 80.5808 192.701 78.7825C192.701 77.0083 194.117 75.7514 195.964 75.7514C197.811 75.7514 199.218 77.0083 199.218 78.7825C199.218 80.5808 197.811 81.8329 195.964 81.828ZM193.972 78.7825C193.963 79.933 194.823 80.6968 195.964 80.6968C197.086 80.6968 197.946 79.933 197.946 78.7825C197.946 77.6512 197.086 76.8826 195.964 76.8826C194.823 76.8826 193.963 77.6512 193.972 78.7825ZM195.906 82.9206V85.8453H202.974V86.9088H194.601V82.9206H195.906ZM205.589 80.0345L205.139 79.0145C207.358 78.7728 209.108 77.7818 209.263 76.5829H205.574V75.5145H214.716V76.5829H211.008C211.153 77.7721 212.888 78.7728 215.151 79.0145L214.682 80.0345C212.555 79.7928 210.8 78.9033 210.128 77.5981C209.461 78.8985 207.716 79.7928 205.589 80.0345ZM204.554 81.7362V80.6775H215.721V81.7362H204.554ZM210.123 82.6789C212.763 82.6789 214.348 83.4959 214.358 84.9171C214.348 86.3432 212.763 87.1409 210.123 87.1409C207.469 87.1409 205.874 86.3432 205.874 84.9171C205.874 83.4959 207.469 82.6789 210.123 82.6789ZM210.123 86.116C211.975 86.116 213.053 85.6954 213.062 84.9171C213.053 84.1291 211.975 83.7037 210.123 83.6941C208.252 83.7037 207.184 84.1291 207.194 84.9171C207.184 85.6954 208.252 86.116 210.123 86.116ZM225.583 78.9807V74.9102H226.868V87.1844H225.583V80.0345H222.851V78.9807H225.583ZM221.072 75.9302V78.0283C221.067 80.2714 222.324 82.5048 224.195 83.346L223.412 84.3902C222.015 83.6892 220.961 82.3066 220.424 80.6291C219.883 82.3936 218.815 83.8826 217.408 84.6126L216.586 83.5684C218.481 82.6595 219.748 80.2956 219.757 78.0283V75.9302H221.072ZM241.796 74.9102V77.4772H243.57V78.5407H241.796V81.2141H240.496V74.9102H241.796ZM237.131 75.4372H238.417V80.7742H232.64V75.4372H233.921V77.0953H237.131V75.4372ZM233.921 79.7396H237.131V78.096H233.921V79.7396ZM241.796 84.8349H235.178V86H242.212V87.0442H233.902V83.8729H240.505V82.7707H233.873V81.7459H241.796V84.8349ZM253.736 79.846H255.481V80.9047H244.271V79.846H252.46C252.755 78.4392 252.769 77.4095 252.769 76.5104H245.673V75.4517H254.06V76.3798C254.06 77.308 254.06 78.3619 253.736 79.846ZM246.968 83.4233H252.75V81.9054H254.036V87.0055H245.687V81.9054H246.968V83.4233ZM246.968 85.9468H252.75V84.4337H246.968V85.9468Z" fill="#444444"/>
<path opacity="0.5" d="M304.749 32.5V44.25C304.749 45.3546 305.644 46.25 306.749 46.25H318.499C319.604 46.25 320.499 45.3546 320.499 44.25V34.5733L317.183 30.5H306.749C305.644 30.5 304.749 31.3954 304.749 32.5Z" fill="#3617CE"/>
<path d="M310.499 33V31.75H314.749V33H310.499Z" stroke="#3617CE" stroke-width="2.5" stroke-linejoin="round"/>
<path d="M309.249 41.5V46.25H315.999V41.5C315.999 40.3954 315.104 39.5 313.999 39.5H311.249C310.144 39.5 309.249 40.3954 309.249 41.5Z" fill="#3617CE"/>
<path fill-rule="evenodd" clip-rule="evenodd" d="M312 24C310.343 24 309 25.3431 309 27V29H315.676C317.18 29 318.604 29.677 319.553 30.8435L320.878 32.4704C321.604 33.3622 322 34.477 322 35.6269V40H327C328.657 40 330 38.6569 330 37V27C330 25.3431 328.657 24 327 24H312ZM321.762 26.9648C321.209 26.9648 320.762 27.4126 320.762 27.9648C320.762 28.5171 321.209 28.9648 321.762 28.9648L326.047 28.9648C326.6 28.9648 327.047 28.5171 327.047 27.9648C327.047 27.4126 326.6 26.9648 326.047 26.9648L321.762 26.9648ZM322.906 31.1797C322.906 30.6274 323.354 30.1797 323.906 30.1797L326.049 30.1797C326.601 30.1797 327.049 30.6274 327.049 31.1797C327.049 31.732 326.601 32.1797 326.049 32.1797H323.906C323.354 32.1797 322.906 31.732 322.906 31.1797Z" fill="#3617CE"/>
<path d="M293.316 74.9199H294.616V83.8246H293.316V74.9199ZM287.964 81.828C286.117 81.8329 284.701 80.5808 284.701 78.7825C284.701 77.0083 286.117 75.7514 287.964 75.7514C289.811 75.7514 291.218 77.0083 291.218 78.7825C291.218 80.5808 289.811 81.8329 287.964 81.828ZM285.972 78.7825C285.963 79.933 286.823 80.6968 287.964 80.6968C289.086 80.6968 289.946 79.933 289.946 78.7825C289.946 77.6512 289.086 76.8826 287.964 76.8826C286.823 76.8826 285.963 77.6512 285.972 78.7825ZM287.906 82.9206V85.8453H294.974V86.9088H286.601V82.9206H287.906ZM297.589 80.0345L297.139 79.0145C299.358 78.7728 301.108 77.7818 301.263 76.5829H297.574V75.5145H306.716V76.5829H303.008C303.153 77.7721 304.888 78.7728 307.151 79.0145L306.682 80.0345C304.555 79.7928 302.8 78.9033 302.128 77.5981C301.461 78.8985 299.716 79.7928 297.589 80.0345ZM296.554 81.7362V80.6775H307.721V81.7362H296.554ZM302.123 82.6789C304.763 82.6789 306.348 83.4959 306.358 84.9171C306.348 86.3432 304.763 87.1409 302.123 87.1409C299.469 87.1409 297.874 86.3432 297.874 84.9171C297.874 83.4959 299.469 82.6789 302.123 82.6789ZM302.123 86.116C303.975 86.116 305.053 85.6954 305.062 84.9171C305.053 84.1291 303.975 83.7037 302.123 83.6941C300.252 83.7037 299.184 84.1291 299.194 84.9171C299.184 85.6954 300.252 86.116 302.123 86.116ZM317.583 78.9807V74.9102H318.868V87.1844H317.583V80.0345H314.851V78.9807H317.583ZM313.072 75.9302V78.0283C313.067 80.2714 314.324 82.5048 316.195 83.346L315.412 84.3902C314.015 83.6892 312.961 82.3066 312.424 80.6291C311.883 82.3936 310.815 83.8826 309.408 84.6126L308.586 83.5684C310.481 82.6595 311.748 80.2956 311.757 78.0283V75.9302H313.072ZM333.09 79.3094V74.9102H334.391V87.1844H333.09V80.3729H330.567V79.3094H333.09ZM328.546 77.2113V78.357C328.546 80.4309 329.847 82.6644 331.727 83.5007L330.954 84.5352C329.537 83.8488 328.445 82.4275 327.903 80.7548C327.352 82.5338 326.235 84.0566 324.819 84.7866L324.031 83.7666C325.902 82.8771 327.222 80.5615 327.231 78.357V77.2113H324.519V76.143H331.263V77.2113H328.546ZM345.896 74.9102V77.9413H347.67V79.0145H345.896V82.2631H344.595V74.9102H345.896ZM339.921 79.2175C339.389 80.5566 338.311 81.6202 336.836 82.1326L336.174 81.0981C338.084 80.4648 339.239 78.8791 339.249 77.1823V76.8439H336.551V75.7901H343.189V76.8439H340.544V77.1727C340.544 78.7244 341.627 80.1457 343.488 80.7403L342.87 81.7555C341.472 81.3059 340.457 80.3826 339.921 79.2175ZM341.937 82.5628C344.465 82.5628 346.007 83.3992 346.007 84.8398C346.007 86.2949 344.465 87.1409 341.937 87.1409C339.389 87.1409 337.827 86.2949 337.827 84.8398C337.827 83.3992 339.389 82.5628 341.937 82.5628ZM341.937 86.116C343.701 86.116 344.736 85.6568 344.736 84.8398C344.736 84.0373 343.701 83.5877 341.937 83.5925C340.167 83.5877 339.118 84.0373 339.128 84.8398C339.118 85.6568 340.167 86.116 341.937 86.116Z" fill="#444444"/>
<path d="M397.821 47.2539H402.689" stroke="#3617CE" stroke-width="2" stroke-linecap="round" stroke-linejoin="round"/>
<path d="M403.456 47.2539H412.543" stroke="#3617CE" stroke-width="2" stroke-linecap="round" stroke-linejoin="round"/>
<path d="M413.31 47.2539H418.178" stroke="#3617CE" stroke-width="2" stroke-linecap="round" stroke-linejoin="round"/>
<g opacity="0.6">
<path d="M401.665 44.6807L398.848 41.8643" stroke="#3617CE" stroke-width="2" stroke-linecap="round" stroke-linejoin="round"/>
<path d="M398.848 44.6797L401.664 41.8633" stroke="#3617CE" stroke-width="2" stroke-linecap="round" stroke-linejoin="round"/>
</g>
<g opacity="0.6">
<path d="M409.408 44.6807L406.592 41.8643" stroke="#3617CE" stroke-width="2" stroke-linecap="round" stroke-linejoin="round"/>
<path d="M406.592 44.6797L409.408 41.8633" stroke="#3617CE" stroke-width="2" stroke-linecap="round" stroke-linejoin="round"/>
</g>
<g opacity="0.6">
<path d="M417.154 44.6807L414.338 41.8643" stroke="#3617CE" stroke-width="2" stroke-linecap="round" stroke-linejoin="round"/>
<path d="M414.338 44.6797L417.154 41.8633" stroke="#3617CE" stroke-width="2" stroke-linecap="round" stroke-linejoin="round"/>
</g>
<rect x="401.248" y="27.501" width="13.5" height="11.25" rx="2" fill="#3617CE"/>
<path opacity="0.5" d="M404.75 26.1202C404.75 24.3247 406.205 22.8691 408.001 22.8691V22.8691C409.796 22.8691 411.252 24.3247 411.252 26.1202V28.396H404.75V26.1202Z" stroke="#3617CE" stroke-width="2"/>
<circle cx="407.997" cy="32.1959" r="1.23199" fill="white"/>
<path d="M407.997 32.1963V34.6603" stroke="white" stroke-width="2" stroke-linecap="round"/>
<path d="M393.579 77.8349H395.354V78.8888H393.579V81.9586H392.279V74.9102H393.579V77.8349ZM390.66 78.5311C390.65 80.2472 389.272 81.4365 387.401 81.4461C385.521 81.4365 384.128 80.2472 384.138 78.5311C384.128 76.8149 385.521 75.6209 387.401 75.6257C389.272 75.6209 390.65 76.8149 390.66 78.5311ZM385.41 78.5311C385.4 79.6236 386.251 80.3439 387.401 80.3488C388.542 80.3439 389.388 79.6236 389.398 78.5311C389.388 77.453 388.547 76.7134 387.401 76.7231C386.251 76.7134 385.4 77.453 385.41 78.5311ZM393.579 87.0055H385.748V82.5193H393.579V87.0055ZM392.294 83.5587H387.024V85.9517H392.294V83.5587ZM402.266 76.6312H406.665V77.6899H396.581V76.6312H400.99V75.0891H402.266V76.6312ZM402.266 83.114V84.7238H407.265V85.7873H396.054V84.7238H400.99V83.114C398.839 82.9738 397.533 82.1229 397.543 80.7597C397.533 79.2901 399.1 78.4199 401.623 78.4247C404.122 78.4199 405.708 79.2901 405.708 80.7597C405.708 82.1229 404.393 82.9689 402.266 83.114ZM398.863 80.7597C398.858 81.6153 399.883 82.0843 401.623 82.0891C403.349 82.0843 404.379 81.6153 404.383 80.7597C404.379 79.9137 403.349 79.4496 401.623 79.4496C399.883 79.4496 398.858 79.9137 398.863 80.7597ZM417.015 74.9102H418.315V81.4848H417.015V74.9102ZM411.663 75.4758C413.539 75.4662 414.917 76.6312 414.917 78.3232C414.917 79.991 413.539 81.1561 411.663 81.1512C409.783 81.1561 408.4 79.991 408.4 78.3232C408.4 76.6312 409.783 75.4662 411.663 75.4758ZM411.663 76.5684C410.498 76.5587 409.662 77.2693 409.672 78.3232C409.662 79.3722 410.498 80.078 411.663 80.0829C412.814 80.078 413.645 79.3722 413.645 78.3232C413.645 77.2693 412.814 76.5587 411.663 76.5684ZM410.295 82.0794H411.567V83.4523H417.024V82.0794H418.315V87.0055H410.295V82.0794ZM411.567 84.4772V85.9468H417.024V84.4772H411.567ZM429.168 76.7037V74.9199H430.463V82.4517H429.168V80.3052H426.862V79.2562H429.168V77.7431H426.862V76.7037H429.168ZM426.712 80.6098L426.838 81.6685C425.344 81.9199 424.087 81.9586 421.646 81.9634H420.761V78.2314H424.793V76.6844H420.737V75.6499H426.083V79.2175H422.047V80.9192C424.179 80.9144 425.339 80.866 426.712 80.6098ZM429.168 84.1243H422.143V83.0753H430.463V87.1747H429.168V84.1243Z" fill="#444444"/>
<path d="M497.589 74.9199V78.971H499.334V80.0635H497.589V84.2887H496.294V74.9199H497.589ZM495.539 81.0691L495.641 82.0262C493.069 82.4903 490.178 82.5338 488.08 82.5338L487.935 81.48C488.849 81.48 489.922 81.4751 491.048 81.4365V80.2907C489.588 80.0877 488.612 79.1692 488.622 77.9026C488.612 76.4427 489.874 75.4613 491.667 75.4613C493.461 75.4613 494.722 76.4427 494.732 77.9026C494.722 79.1499 493.77 80.0635 492.349 80.2811V81.3785C493.432 81.3156 494.524 81.2189 495.539 81.0691ZM489.83 77.9026C489.82 78.7728 490.589 79.3384 491.667 79.3481C492.76 79.3384 493.499 78.7728 493.509 77.9026C493.499 77.018 492.76 76.4572 491.667 76.4523C490.589 76.4572 489.82 77.018 489.83 77.9026ZM489.666 83.4669H490.971V85.8308H498.029V86.8992H489.666V83.4669ZM508.321 82.442V84.6126H511.265V85.6906H500.054V84.6126H503.114V82.442H501.417V78.5456H508.611V76.8391H501.393V75.7804H509.892V79.6043H502.708V81.3785H510.177V82.442H508.321ZM507.044 82.442H504.376V84.6126H507.044V82.442Z" fill="#444444"/>
<defs>
<linearGradient id="paint0_linear_938_2920" x1="101.819" y1="32.5" x2="70" y2="32.5001" gradientUnits="userSpaceOnUse">
<stop stop-color="#3617CE"/>
<stop offset="1" stop-color="#3617CE" stop-opacity="0"/>
</linearGradient>
<linearGradient id="paint1_linear_938_2920" x1="193.819" y1="32.5" x2="162" y2="32.5001" gradientUnits="userSpaceOnUse">
<stop stop-color="#3617CE"/>
<stop offset="1" stop-color="#3617CE" stop-opacity="0"/>
</linearGradient>
<linearGradient id="paint2_linear_938_2920" x1="285.819" y1="32.5" x2="254" y2="32.5001" gradientUnits="userSpaceOnUse">
<stop stop-color="#3617CE"/>
<stop offset="1" stop-color="#3617CE" stop-opacity="0"/>
</linearGradient>
<linearGradient id="paint3_linear_938_2920" x1="377.819" y1="32.5" x2="346" y2="32.5001" gradientUnits="userSpaceOnUse">
<stop stop-color="#3617CE"/>
<stop offset="1" stop-color="#3617CE" stop-opacity="0"/>
</linearGradient>
<linearGradient id="paint4_linear_938_2920" x1="469.819" y1="32.5" x2="438" y2="32.5001" gradientUnits="userSpaceOnUse">
<stop stop-color="#3617CE"/>
<stop offset="1" stop-color="#3617CE" stop-opacity="0"/>
</linearGradient>
</defs>
</svg>
