<svg width="230" height="190" viewBox="0 0 230 190" fill="none" xmlns="http://www.w3.org/2000/svg">
<g id="Frame">
<g id="_x201D_w&#237;&#157;&#184;i_x5F_x5F_x5F_?_x201A_?_x201E_?_x201A_?_x201E__x5F_1_x5F__copy">
<path id="Vector" opacity="0.05" d="M56.1321 37.9414C79.9498 43.6462 92.0592 26.5859 115.365 14.6306C125.863 9.24504 155.605 6.18112 172.05 32.9689C187.665 58.4036 193.731 45.0931 212.061 55.238C223.55 61.5967 240.417 78.0164 213.804 99.6107C187.19 121.205 206.34 120.24 200.175 148.545C196.745 164.291 172.844 185.576 128.385 182.609C90.5384 180.084 89.9461 173.077 67.4998 181.215C30.898 194.486 11.2647 170.759 25.0554 142.623C36.5384 119.193 17.5876 112.176 7.15063 99.0883C-12.1717 74.8564 8.82638 37.9524 56.1321 37.9414Z" fill="#565EA1"/>
</g>
<ellipse id="Ellipse 352" opacity="0.2" cx="113" cy="158.5" rx="65" ry="4.5" fill="#565EA1"/>
<g id="PC?x_x5B_?X_x5F_3_x5F__copy">
<g id="Group">
<path id="Vector_2" d="M111.194 135.15H100.363C100.336 136.82 100.31 138.49 100.283 140.159C100.256 141.828 100.23 143.499 100.203 145.167C98.3616 145.748 94.9546 146.824 91.8899 147.876C88.8242 148.927 86.1008 149.951 85.6245 150.428C85.1483 150.904 84.7974 151.553 84.6602 152.225C84.5231 152.895 84.5987 153.588 84.9777 154.152C89.3058 154.073 93.6868 154.027 98.0938 154.003C102.501 153.979 106.934 153.978 111.366 153.993H111.195H111.023H111.365H111.194H111.022C115.455 153.978 119.889 153.979 124.295 154.003C128.701 154.027 133.081 154.075 137.411 154.152C137.789 153.588 137.865 152.896 137.728 152.225C137.591 151.554 137.239 150.904 136.763 150.428C136.286 149.951 133.562 148.927 130.497 147.876C127.432 146.824 124.026 145.748 122.184 145.167C122.157 143.498 122.132 141.828 122.105 140.159C122.078 138.49 122.052 136.819 122.025 135.15H111.194Z" fill="#7D83B0"/>
<g id="Group_2">
<path id="Vector_3" d="M111.194 133.414C108.037 133.414 104.882 133.414 101.725 133.414C101.271 133.414 100.817 133.414 100.362 133.414C99.4176 133.414 98.6498 134.209 98.6347 135.15C98.5818 138.49 98.5278 141.829 98.4749 145.168C98.8982 144.611 99.3204 144.052 99.7437 143.494C96.9641 144.37 94.1878 145.256 91.4309 146.202C89.9796 146.699 88.5293 147.206 87.1071 147.782C86.0877 148.196 84.9128 148.584 84.1753 149.452C82.9356 150.911 82.3881 153.126 83.3891 154.871C83.7433 155.488 84.2552 155.847 84.9765 155.887C85.3912 155.91 85.8188 155.872 86.2346 155.866C87.146 155.85 88.0585 155.836 88.9699 155.824C92.4373 155.777 95.9048 155.747 99.3722 155.732C103.37 155.715 107.368 155.716 111.365 155.729C111.365 154.571 111.365 153.415 111.365 152.257C111.251 152.257 111.137 152.257 111.023 152.257C111.023 153.415 111.023 154.571 111.023 155.729C111.137 155.729 111.251 155.729 111.365 155.729C112.269 155.729 113.135 154.93 113.093 153.993C113.051 153.052 112.334 152.257 111.365 152.257C111.251 152.257 111.137 152.257 111.023 152.257C111.023 153.415 111.023 154.571 111.023 155.729C118.066 155.705 125.11 155.72 132.152 155.808C132.995 155.819 133.838 155.83 134.682 155.843C135.583 155.856 136.511 155.937 137.412 155.887C138.639 155.819 139.258 154.705 139.442 153.6C139.618 152.537 139.42 151.493 138.944 150.532C138.373 149.378 137.494 148.732 136.361 148.237C134.985 147.636 133.576 147.118 132.16 146.62C129.01 145.511 125.828 144.498 122.643 143.494C123.067 144.052 123.489 144.611 123.912 145.168C123.859 141.829 123.805 138.49 123.752 135.15C123.737 134.212 122.973 133.414 122.025 133.414C118.868 133.414 115.713 133.414 112.556 133.414C112.102 133.414 111.647 133.414 111.194 133.414C110.29 133.414 109.424 134.213 109.466 135.15C109.508 136.091 110.225 136.886 111.194 136.886C114.35 136.886 117.505 136.886 120.662 136.886C121.116 136.886 121.57 136.886 122.025 136.886C121.449 136.308 120.872 135.728 120.297 135.15C120.35 138.49 120.404 141.829 120.457 145.168C120.47 145.956 120.988 146.61 121.725 146.843C124.877 147.835 128.025 148.839 131.144 149.934C131.965 150.222 132.783 150.516 133.596 150.829C133.947 150.963 134.296 151.102 134.644 151.246C134.267 151.09 134.721 151.28 134.796 151.314C134.921 151.37 135.046 151.428 135.169 151.488C135.356 151.579 135.529 151.695 135.714 151.788C135.945 151.904 135.471 151.475 135.543 151.656C135.623 151.736 135.699 151.82 135.77 151.907C135.67 151.786 135.678 151.81 135.796 151.979C135.8 151.988 136.028 152.463 135.921 152.19C135.961 152.298 135.996 152.408 136.024 152.519C136.062 152.719 136.073 152.743 136.054 152.592C136.062 152.655 136.042 153.153 136.082 152.856C136.061 152.974 136.029 153.09 135.989 153.203C136.04 153.063 136.016 153.087 135.919 153.275C136.417 152.988 136.914 152.702 137.412 152.415C128.616 152.258 119.819 152.226 111.023 152.257C110.119 152.26 109.253 153.053 109.295 153.993C109.337 154.934 110.054 155.729 111.023 155.729C111.137 155.729 111.251 155.729 111.365 155.729C111.365 154.571 111.365 153.415 111.365 152.257C111.251 152.257 111.137 152.257 111.023 152.257C110.119 152.257 109.253 153.055 109.295 153.993C109.337 154.934 110.054 155.729 111.023 155.729C111.137 155.729 111.251 155.729 111.365 155.729C112.269 155.729 113.135 154.93 113.093 153.993C113.051 153.05 112.334 152.26 111.365 152.257C102.569 152.226 93.772 152.259 84.9765 152.415C85.4743 152.702 85.9711 152.988 86.4689 153.275C86.3717 153.087 86.348 153.062 86.3987 153.203C86.3588 153.089 86.3274 152.974 86.3058 152.856C86.3458 153.145 86.3328 152.607 86.3339 152.592C86.3156 152.743 86.3264 152.718 86.3642 152.519C86.3933 152.408 86.4279 152.298 86.4667 152.19C86.3631 152.454 86.5747 152.014 86.592 151.979C86.7097 151.81 86.7184 151.787 86.6179 151.907C86.6892 151.82 86.7648 151.736 86.8447 151.656C86.917 151.475 86.443 151.903 86.6741 151.788C86.8587 151.696 87.0326 151.58 87.2194 151.488C87.3242 151.437 87.4289 151.388 87.5347 151.34C87.6049 151.309 88.133 151.086 87.7442 151.246C88.0919 151.103 88.4407 150.963 88.7917 150.829C89.6038 150.516 90.4223 150.222 91.2441 149.934C94.3616 148.839 97.5116 147.835 100.663 146.843C101.401 146.609 101.919 145.953 101.932 145.168C101.984 141.829 102.038 138.49 102.091 135.15C101.516 135.728 100.939 136.308 100.364 136.886C103.52 136.886 106.675 136.886 109.832 136.886C110.286 136.886 110.74 136.886 111.195 136.886C112.098 136.886 112.965 136.088 112.922 135.15C112.879 134.209 112.162 133.414 111.194 133.414Z" fill="#2C2C2C"/>
</g>
</g>
<g id="Group_3">
<path id="Vector_4" d="M168.177 58.4199H54.208V138.246H168.177V58.4199Z" fill="#7D83B0"/>
<g id="Group_4">
<path id="Vector_5" d="M166.448 134.833C166.446 134.939 166.441 135.044 166.433 135.151C166.436 135.106 166.498 134.897 166.435 135.076C166.376 135.244 166.349 135.423 166.284 135.591C166.413 135.26 166.156 135.773 166.111 135.846C166.096 135.87 165.944 136.054 166.067 135.91C166.21 135.742 165.929 136.037 165.902 136.068C165.889 136.084 165.701 136.255 165.85 136.128C166.009 135.993 165.767 136.187 165.723 136.213C165.63 136.269 165.227 136.468 165.532 136.345C165.364 136.412 165.186 136.437 165.019 136.497C164.783 136.581 165.269 136.507 165.015 136.5C164.938 136.498 164.856 136.508 164.777 136.51C164.727 136.511 164.678 136.51 164.629 136.51C164.265 136.512 163.902 136.51 163.538 136.51C161.851 136.51 160.164 136.51 158.477 136.51C155.723 136.51 152.971 136.51 150.217 136.51C146.651 136.51 143.087 136.51 139.521 136.51C135.397 136.51 131.274 136.51 127.15 136.51C122.722 136.51 118.294 136.51 113.866 136.51C109.407 136.51 104.947 136.51 100.488 136.51C96.2117 136.51 91.9354 136.51 87.6602 136.51C83.8407 136.51 80.0213 136.51 76.2018 136.51C73.0928 136.51 69.9828 136.51 66.8739 136.51C64.7293 136.51 62.5836 136.51 60.439 136.51C59.5124 136.51 58.5848 136.523 57.6594 136.51C57.6421 136.51 57.6248 136.51 57.6075 136.51C57.6065 136.51 57.6054 136.51 57.6054 136.51C57.5266 136.509 57.4456 136.498 57.3678 136.5C57.114 136.508 57.6 136.581 57.3646 136.497C57.1972 136.437 57.019 136.41 56.8516 136.345C57.1551 136.463 56.7026 136.236 56.5979 136.172C56.5255 136.128 56.3776 135.965 56.5925 136.168C56.5385 136.116 56.4812 136.068 56.4294 136.014C56.3959 135.979 56.181 135.749 56.3171 135.909C56.4391 136.053 56.2869 135.869 56.2728 135.845C56.2394 135.789 56.005 135.372 56.0741 135.522C56.1627 135.715 56.0417 135.422 56.0266 135.373C55.9888 135.249 55.9651 135.124 55.9338 134.999C56.005 135.285 55.9402 134.95 55.937 134.8C55.9316 134.429 55.937 134.057 55.937 133.686C55.937 131.595 55.937 129.505 55.937 127.414C55.937 123.948 55.937 120.481 55.937 117.014C55.937 112.781 55.937 108.548 55.937 104.315C55.937 99.8195 55.937 95.3242 55.937 90.8289C55.937 86.6417 55.937 82.4556 55.937 78.2685C55.937 74.945 55.937 71.6215 55.937 68.298C55.937 66.3916 55.937 64.4863 55.937 62.5799C55.937 62.2251 55.9284 61.8692 55.9521 61.5155C55.9284 61.8735 56.0212 61.3147 56.0493 61.2192C56.1335 60.9306 55.95 61.3245 56.1173 61.0782C56.1713 60.999 56.5061 60.5704 56.2761 60.8145C56.3484 60.7375 56.7415 60.3751 56.4758 60.5802C56.6162 60.4727 56.7717 60.3946 56.9218 60.3024C57.1421 60.1668 56.6778 60.3794 56.924 60.2948C56.9963 60.2698 57.0676 60.2449 57.141 60.2232C57.2404 60.195 57.3408 60.1776 57.4402 60.1526C57.4024 60.1624 57.1713 60.1602 57.3689 60.1657C57.4294 60.1678 57.5665 60.157 57.6086 60.1559C57.6637 60.1548 57.7199 60.1559 57.7749 60.1559C58.8591 60.1516 59.9422 60.1559 61.0264 60.1559C63.2866 60.1559 65.5467 60.1559 67.808 60.1559C71.026 60.1559 74.244 60.1559 77.462 60.1559C81.3311 60.1559 85.2003 60.1559 89.0695 60.1559C93.3814 60.1559 97.6933 60.1559 102.005 60.1559C106.491 60.1559 110.977 60.1559 115.461 60.1559C119.866 60.1559 124.272 60.1559 128.677 60.1559C132.748 60.1559 136.819 60.1559 140.889 60.1559C144.372 60.1559 147.854 60.1559 151.337 60.1559C153.977 60.1559 156.617 60.1559 159.259 60.1559C160.8 60.1559 162.339 60.1559 163.88 60.1559C164.166 60.1559 164.451 60.1516 164.736 60.1559C164.75 60.1559 164.765 60.1559 164.779 60.1559C164.886 60.1581 164.989 60.1635 165.096 60.1711C164.776 60.1494 165.199 60.2091 165.319 60.246C165.391 60.2688 165.464 60.2926 165.535 60.3208C165.233 60.2026 165.476 60.2991 165.533 60.3371C165.64 60.4098 166.022 60.7114 165.795 60.4966C165.866 60.5639 165.938 60.6409 166.011 60.7039C166.027 60.7169 166.196 60.9057 166.07 60.7559C165.97 60.6355 166.223 61.0077 166.27 61.0782C166.433 61.3202 166.322 61.1661 166.286 61.076C166.324 61.1704 166.355 61.2692 166.384 61.3657C166.404 61.4384 166.413 61.5198 166.439 61.5903C166.498 61.7596 166.448 61.3538 166.447 61.6728C166.447 61.7401 166.451 61.8084 166.451 61.8757C166.469 63.1213 166.451 64.3691 166.451 65.6158C166.451 68.4836 166.451 71.3513 166.451 74.2191C166.451 78.1534 166.451 82.0878 166.451 86.0221C166.451 90.4686 166.451 94.9151 166.451 99.3616C166.451 103.766 166.451 108.17 166.451 112.575C166.451 116.383 166.451 120.191 166.451 124C166.451 126.657 166.451 129.314 166.451 131.971C166.448 132.925 166.448 133.879 166.448 134.833C166.448 135.741 167.243 136.611 168.176 136.569C169.112 136.526 169.904 135.806 169.904 134.833C169.904 133.781 169.904 132.729 169.904 131.677C169.904 128.92 169.904 126.163 169.904 123.405C169.904 119.511 169.904 115.617 169.904 111.722C169.904 107.26 169.904 102.797 169.904 98.3341C169.904 93.8713 169.904 89.4085 169.904 84.9458C169.904 81.0375 169.904 77.1281 169.904 73.2198C169.904 70.4681 169.904 67.7175 169.904 64.9659C169.904 63.9232 169.924 62.8783 169.904 61.8355C169.846 58.9678 167.564 56.725 164.721 56.686C164.42 56.6816 164.12 56.686 163.82 56.686C162.226 56.686 160.633 56.686 159.039 56.686C156.327 56.686 153.614 56.686 150.902 56.686C147.353 56.686 143.806 56.686 140.257 56.686C136.126 56.686 131.993 56.686 127.861 56.686C123.406 56.686 118.95 56.686 114.495 56.686C109.957 56.686 105.42 56.686 100.882 56.686C96.5616 56.686 92.241 56.686 87.9216 56.686C84.0599 56.686 80.1984 56.686 76.3367 56.686C73.1943 56.686 70.0519 56.686 66.9095 56.686C64.7401 56.686 62.5706 56.686 60.4012 56.686C59.4844 56.686 58.5665 56.6719 57.6497 56.686C54.8139 56.7283 52.5343 58.9776 52.4803 61.8366C52.4749 62.1296 52.4803 62.4226 52.4803 62.7155C52.4803 64.7163 52.4803 66.7171 52.4803 68.7169C52.4803 72.1304 52.4803 75.5439 52.4803 78.9575C52.4803 83.2347 52.4803 87.5108 52.4803 91.788C52.4803 96.3213 52.4803 100.856 52.4803 105.389C52.4803 109.628 52.4803 113.866 52.4803 118.106C52.4803 121.481 52.4803 124.857 52.4803 128.231C52.4803 130.175 52.4803 132.118 52.4803 134.061C52.4803 134.422 52.4652 134.79 52.4955 135.152C52.7222 137.886 54.9414 139.962 57.6767 139.983C58.6453 139.991 59.6139 139.983 60.5826 139.983C62.7823 139.983 64.982 139.983 67.1816 139.983C70.3672 139.983 73.5529 139.983 76.7385 139.983C80.6217 139.983 84.5059 139.983 88.3891 139.983C92.7216 139.983 97.054 139.983 101.386 139.983C105.908 139.983 110.428 139.983 114.95 139.983C119.399 139.983 123.848 139.983 128.297 139.983C132.429 139.983 136.562 139.983 140.696 139.983C144.217 139.983 147.738 139.983 151.259 139.983C153.925 139.983 156.592 139.983 159.259 139.983C160.81 139.983 162.362 139.983 163.915 139.983C164.188 139.983 164.46 139.988 164.734 139.983C167.579 139.942 169.839 137.693 169.905 134.834C169.927 133.926 169.095 133.056 168.177 133.098C167.223 133.14 166.471 133.859 166.448 134.833Z" fill="#2C2C2C"/>
</g>
</g>
<path id="Vector_6" d="M56.0938 124.6C51.8078 122.923 54.1932 101.183 54.1932 93.9955C54.1932 86.8082 48.9634 58.2402 60.7502 58.48C72.5369 58.7198 159.598 59.0193 161.527 59.2591C163.455 59.4989 168.4 57.8214 168.4 66.2066C168.4 74.5918 170.037 123.943 167.68 124.422C165.322 124.9 56.0938 124.6 56.0938 124.6Z" fill="#2C2C2C"/>
<path id="Vector_7" d="M114.553 130.787C114.553 132.476 112.536 133.419 110.816 133.419C109.095 133.419 107.833 132.074 107.833 130.384C107.833 128.695 109.856 127.35 111.576 127.35C113.296 127.35 114.553 129.099 114.553 130.787Z" fill="#2C2C2C"/>
<path id="Vector_8" d="M153.754 114.948H69.0641C67.0879 114.948 65.2305 114.042 63.8343 112.397C62.6799 111.036 61.9337 109.241 61.7328 107.343C61.6443 106.508 61.5201 105.698 61.3624 104.933C60.8851 102.615 60.085 97.5327 60.085 89.5338C60.085 81.2083 61.275 73.8485 61.7339 71.7142C62.1 70.0129 62.6345 68.0837 63.8332 66.672C65.2284 65.0271 67.0857 64.1211 69.063 64.1211H153.753C155.729 64.1211 157.586 65.0271 158.982 66.672C160.179 68.0826 160.932 69.9467 161.102 71.9214C161.11 72.0039 161.135 72.2068 161.173 72.515C161.925 78.5261 162.307 84.3148 162.307 89.7204C162.307 98.8868 161.736 103.327 161.396 105.157C161.261 105.884 161.157 106.598 161.09 107.28C160.899 109.202 160.151 111.019 158.983 112.394C157.587 114.042 155.73 114.948 153.754 114.948ZM69.0641 64.3381C67.1516 64.3381 65.3525 65.217 63.9973 66.8131C62.83 68.1889 62.3041 70.0866 61.9445 71.7609C61.4866 73.8875 60.2999 81.2278 60.2999 89.5349C60.2999 97.5143 61.0979 102.58 61.573 104.889C61.7318 105.661 61.857 106.478 61.9466 107.32C62.1432 109.175 62.871 110.929 63.9973 112.257C65.3515 113.853 67.1505 114.732 69.0641 114.732H153.754C155.666 114.732 157.466 113.853 158.82 112.257C159.96 110.913 160.691 109.139 160.878 107.26C160.946 106.572 161.05 105.852 161.186 105.119C161.525 103.296 162.093 98.8716 162.093 89.7226C162.093 84.3256 161.712 78.5467 160.962 72.5432C160.923 72.2328 160.897 72.0289 160.889 71.9421C160.723 70.0118 159.988 68.19 158.82 66.8131C157.466 65.217 155.667 64.3381 153.754 64.3381H69.0641Z" fill="#2C2C2C"/>
<path id="Vector_9" d="M165.275 94.11C165.32 108.343 164.426 120.363 164.426 120.363C164.374 121.058 163.79 121.614 163.128 121.597C163.128 121.597 138.735 120.984 112.385 121.067C85.8835 121.151 59.7649 120.749 59.7649 120.749C59.1024 120.738 58.5276 120.16 58.4871 119.464C58.4871 119.464 57.7792 107.292 57.734 92.971C57.6862 77.8281 58.3778 64.2534 58.3778 64.2534C58.4128 63.5568 58.9839 62.9699 59.6463 62.9482C59.6463 62.9482 86.8742 62.0776 114.248 61.9912C139.652 61.9109 162.943 62.6159 162.943 62.6159C163.605 62.6358 164.185 63.2215 164.231 63.9179C164.229 63.9179 165.227 78.8901 165.275 94.11Z" fill="white"/>
</g>
<g id="&#237;&#158;&#139;&#236;&#177;&#140;_x5F_&#237;&#157;&#184;&#237;&#154;&#145;&#236;&#176;&#188;_copy">
<g id="Group_5">
<path id="Vector_10" d="M94.2273 81.9816C97.2707 84.4111 100.457 86.6461 103.797 88.6443C104.47 89.0474 105.469 88.8191 105.844 88.1051C106.225 87.3798 106.025 86.4779 105.307 86.0486C102.193 84.1866 99.1051 82.0615 96.3422 79.8566C95.7308 79.368 94.8154 79.2121 94.2264 79.8566C93.7308 80.3996 93.5737 81.4593 94.2273 81.9816Z" fill="#2C2C2C"/>
</g>
<g id="Group_6">
<path id="Vector_11" d="M103.775 78.6121C100.554 81.1637 97.5594 83.9915 94.8227 87.0617C94.301 87.6469 94.2047 88.6174 94.8227 89.1877C95.393 89.7138 96.3813 89.8134 96.9386 89.1877C99.6744 86.1175 102.67 83.2897 105.891 80.7381C106.508 80.2486 106.439 79.1175 105.891 78.6121C105.236 78.008 104.434 78.0907 103.775 78.6121Z" fill="#2C2C2C"/>
</g>
<g id="Group_7">
<path id="Vector_12" d="M118.745 80.7763C122.513 82.5218 126.186 84.4637 129.753 86.5935C130.427 86.9955 131.425 86.7682 131.8 86.0542C132.182 85.3289 131.982 84.427 131.263 83.9977C127.697 81.8679 124.023 79.9261 120.255 78.1805C119.546 77.8517 118.61 77.955 118.208 78.7198C117.859 79.3821 117.986 80.4249 118.745 80.7763Z" fill="#2C2C2C"/>
</g>
<g id="Group_8">
<path id="Vector_13" d="M127.564 78.425C124.633 80.9503 121.703 83.4746 118.773 85.9999C119.556 86.6068 120.339 87.2147 121.122 87.8215C121.188 87.7314 121.253 87.6412 121.319 87.551C121.782 86.914 121.446 85.8468 120.782 85.4945C120.003 85.0811 119.23 85.3536 118.735 86.0337C118.67 86.1239 118.604 86.2141 118.539 86.3043C118.1 86.9074 118.388 87.8262 118.924 88.2434C119.54 88.7216 120.315 88.6201 120.889 88.1259C123.819 85.6006 126.749 83.0763 129.679 80.551C130.276 80.0371 130.244 78.9455 129.679 78.425C129.045 77.8397 128.199 77.8773 127.564 78.425Z" fill="#2C2C2C"/>
</g>
<g id="Group_9">
<path id="Vector_14" d="M108.333 104.118C108.065 104.225 107.795 104.316 107.513 104.383C107.386 104.413 107.257 104.44 107.128 104.461C107.407 104.416 106.898 104.479 106.898 104.479C106.633 104.496 106.368 104.497 106.103 104.482C105.997 104.477 105.891 104.467 105.785 104.458C105.599 104.437 105.574 104.435 105.709 104.45C105.604 104.433 105.499 104.413 105.395 104.391C105.136 104.338 104.88 104.271 104.629 104.191C104.488 104.147 104.349 104.1 104.213 104.046C104.271 104.069 104.466 104.175 104.224 104.042C104.04 103.94 103.863 103.832 103.684 103.721C103.35 103.514 103.877 103.92 103.59 103.649C103.498 103.563 103.403 103.481 103.314 103.392C103.225 103.302 103.144 103.206 103.058 103.114C102.789 102.827 103.147 103.269 103.02 103.069C102.893 102.873 102.762 102.684 102.65 102.478C102.61 102.402 102.574 102.326 102.535 102.25C102.346 101.884 102.62 102.53 102.488 102.14C102.405 101.899 102.328 101.657 102.273 101.408C102.256 101.324 102.242 101.241 102.226 101.158C102.296 101.52 102.224 101.117 102.22 101.052C102.206 100.841 102.205 100.629 102.217 100.417C102.221 100.349 102.296 99.9542 102.221 100.312C102.238 100.229 102.252 100.145 102.271 100.062C102.329 99.8067 102.405 99.5521 102.506 99.3097C102.376 99.6254 102.555 99.2317 102.575 99.1942C102.626 99.0974 102.68 99.0025 102.737 98.9095C102.794 98.8165 102.857 98.7273 102.915 98.6352C103.134 98.2866 102.723 98.8296 102.999 98.5224C103.146 98.359 103.29 98.1955 103.45 98.0443C103.513 97.9841 103.582 97.9278 103.645 97.8676C103.778 97.7587 103.779 97.754 103.649 97.8535C103.719 97.8009 103.79 97.7493 103.862 97.6995C104.043 97.5745 104.23 97.4599 104.424 97.3556C104.52 97.3039 104.622 97.2607 104.718 97.2081C104.933 97.0898 104.399 97.3105 104.786 97.1809C104.994 97.1104 105.2 97.039 105.413 96.9864C105.541 96.9545 105.669 96.931 105.798 96.9056C105.466 96.9714 105.843 96.9019 105.923 96.8962C106.18 96.8774 106.437 96.8784 106.694 96.8925C106.813 96.899 106.931 96.9103 107.049 96.9207C107.505 96.9582 106.769 96.8539 107.219 96.946C107.743 97.0531 108.258 97.1715 108.772 97.3256C109.755 97.6215 110.716 97.9898 111.703 98.2763C112.75 98.5797 113.88 98.8137 114.973 98.7329C116.177 98.6436 117.246 98.2462 118.272 97.6159C118.744 97.3256 119.214 97.04 119.692 96.7628C119.721 96.7459 119.95 96.6369 119.743 96.7281C119.868 96.6736 120.001 96.6294 120.132 96.5918C120.204 96.5712 120.28 96.559 120.352 96.5373C120.52 96.5073 120.5 96.5073 120.292 96.5364C120.368 96.5279 120.445 96.5214 120.522 96.5176C120.718 96.5073 120.912 96.5204 121.108 96.5298C121.47 96.5477 120.925 96.4518 121.126 96.5336C121.214 96.5693 121.33 96.574 121.423 96.5965C121.624 96.6454 121.816 96.7149 122.012 96.7769C122.396 96.8981 121.751 96.6379 122.115 96.8173C122.227 96.8727 122.34 96.9272 122.451 96.9874C122.634 97.0879 122.811 97.1978 122.983 97.3162C123.028 97.3472 123.338 97.6074 123.078 97.3819C123.171 97.4627 123.266 97.5426 123.356 97.6271C123.503 97.7671 123.639 97.9165 123.772 98.0696C123.953 98.2801 123.785 98.094 123.756 98.0489C123.842 98.1805 123.93 98.3082 124.005 98.4463C124.043 98.514 124.075 98.5844 124.111 98.6521C123.938 98.3317 124.103 98.6333 124.13 98.716C124.19 98.8973 124.224 99.0805 124.271 99.2646C124.363 99.631 124.262 98.9377 124.281 99.3172C124.285 99.3943 124.293 99.4704 124.297 99.5465C124.307 99.7804 124.292 100.011 124.278 100.244C124.255 100.633 124.358 99.9326 124.265 100.315C124.247 100.393 124.235 100.473 124.216 100.551C124.164 100.771 124.093 100.982 124.024 101.196C123.999 101.273 123.883 101.528 124.012 101.244C123.959 101.361 123.904 101.476 123.846 101.589C123.724 101.822 123.589 102.046 123.442 102.263C123.391 102.338 123.34 102.411 123.286 102.482C123.476 102.228 123.195 102.584 123.176 102.605C123.022 102.783 122.858 102.953 122.687 103.115C122.581 103.216 122.47 103.309 122.363 103.407C122.339 103.427 122.147 103.584 122.317 103.451C122.074 103.642 121.812 103.815 121.54 103.962C121.518 103.973 121.083 104.15 121.364 104.052C121.232 104.098 121.102 104.14 120.967 104.175C120.92 104.187 120.483 104.259 120.836 104.217C120.704 104.233 120.57 104.241 120.438 104.245C120.166 104.252 119.899 104.231 119.63 104.206C119.971 104.236 119.514 104.188 119.475 104.182C119.333 104.158 119.192 104.131 119.052 104.104C118.089 103.915 117.133 103.696 116.165 103.538C113.544 103.109 110.83 103.102 108.333 104.118C107.61 104.412 107.019 105.133 107.289 105.967C107.515 106.669 108.352 107.333 109.129 107.017C110.444 106.482 111.539 106.278 112.843 106.256C113.417 106.247 113.992 106.274 114.563 106.33C114.67 106.341 115.291 106.421 114.916 106.367C115.171 106.404 115.424 106.444 115.677 106.488C117.997 106.896 120.366 107.753 122.648 106.747C124.777 105.809 126.571 103.623 127.099 101.349C127.623 99.0936 126.989 96.7581 125.191 95.255C123.3 93.6729 120.757 92.9927 118.45 94.0374C117.946 94.2657 117.483 94.5635 117.015 94.8585C116.76 95.0192 116.505 95.1798 116.239 95.3226C116.109 95.3931 115.975 95.4654 115.836 95.5237C116.061 95.4297 115.564 95.6045 115.516 95.6185C115.427 95.643 115.337 95.6646 115.247 95.6843C115.2 95.6946 114.764 95.7426 115.106 95.7144C114.835 95.7369 114.565 95.7463 114.293 95.7332C114.156 95.7266 114.021 95.7134 113.884 95.7012C114.225 95.7332 113.775 95.6824 113.735 95.6749C113.457 95.6251 113.182 95.5622 112.91 95.4917C110.608 94.8942 108.362 93.7152 105.92 93.8899C103.485 94.0637 101.142 95.4833 99.9902 97.6769C98.6841 100.164 99.1394 103.131 100.942 105.241C102.837 107.459 106.487 108.074 109.13 107.018C109.854 106.729 110.442 106.001 110.174 105.169C109.946 104.462 109.112 103.806 108.333 104.118Z" fill="#2C2C2C"/>
</g>
</g>
<g id="&#237;&#131;&#144;&#236;&#177;&#148;_x5F_x5F_x5F__x201C__xAA__x201A__xA8__x201A__xB3__x201A__xA6__x201A_&#236;&#177;&#149;_x5F_1_x5F__copy">
<path id="Vector_15" d="M54.366 114.573C51.0411 114.199 47.8954 112.825 45.2681 110.601C42.8449 108.549 40.9054 105.809 39.6582 102.677C38.1777 98.9584 37.7187 94.8548 38.331 90.8098C38.9897 86.4566 40.8957 82.2922 43.8405 78.7637L51.2862 85.0395C49.4612 87.2248 48.3349 89.6607 47.9386 92.2778C47.5866 94.6042 47.8436 96.9446 48.6805 99.0485C50.0001 102.363 52.5302 104.539 55.448 104.868L54.366 114.573Z" fill="#2C2C2C"/>
<g id="Group_10">
<path id="Vector_16" d="M50.8948 90.0105C45.8206 90.3457 41.7073 85.8613 40.0865 81.2488C36.6568 71.4856 41.3607 59.7032 50.7188 54.6143C53.0211 53.3622 55.6625 52.4746 58.2887 52.8001C60.9138 53.1257 63.4591 54.9192 63.9396 57.4105C64.5163 60.3987 62.187 63.0798 60.5478 65.6817C58.2325 69.3567 57.1181 73.7132 57.3978 77.9958C57.6073 81.1999 58.5003 84.7133 56.6786 87.4096C54.859 90.1059 55.9691 89.6763 50.8948 90.0105Z" fill="white"/>
<g id="Group_11">
<path id="Vector_17" d="M50.8949 91.7689C47.0765 91.9826 43.567 89.8473 41.2604 86.909C38.9408 83.9555 37.7163 80.4519 37.3286 76.7324C36.6191 69.9249 39.1935 62.9296 43.7419 57.9059C46.245 55.1423 49.4598 52.9017 52.992 51.6984C57.0189 50.3258 61.834 50.8727 64.5164 54.488C65.7561 56.1579 66.0476 58.3182 65.512 60.3093C64.9796 62.2873 63.7702 63.9854 62.6515 65.6639C62.0802 66.5211 61.5392 67.3946 61.0759 68.3169C60.6094 69.2478 60.3643 69.8522 60.0317 70.8917C59.7142 71.8856 59.4702 72.9033 59.3049 73.9341C59.2844 74.0589 59.265 74.1837 59.2488 74.3084C59.2596 74.2271 59.279 74.0361 59.2391 74.4039C59.2121 74.6546 59.1872 74.9063 59.1678 75.158C59.1289 75.6615 59.1095 76.166 59.1095 76.6706C59.1073 78.667 59.4885 80.6342 59.5479 82.6274C59.6095 84.6858 59.2402 86.7115 58.0933 88.4465C57.602 89.1898 57.1808 90.0816 56.507 90.6784C55.6053 91.477 54.4401 91.5551 53.2933 91.6278C52.4931 91.6777 51.694 91.7168 50.8949 91.7689C49.9792 91.8286 49.1034 90.9171 49.1434 90.009C49.1877 89.0042 49.9133 88.313 50.8949 88.249C51.6562 88.1991 52.4176 88.1611 53.1789 88.1145C53.4315 88.0993 53.6842 88.083 53.9358 88.0591C54.0287 88.0505 54.127 88.0298 54.2209 88.0288C53.6518 88.0364 53.9412 88.0711 54.1281 88.0298C54.235 88.006 54.6788 87.8454 54.3106 87.9951C53.9736 88.1329 54.2134 88.0298 54.2911 87.9821C54.5222 87.84 53.9542 88.3271 54.1205 88.1123C54.1529 88.0711 54.2004 88.0244 54.2393 87.9875C54.4725 87.7694 54.0395 88.2957 54.1335 88.1286C54.2134 87.9854 54.3192 87.8508 54.4067 87.7119C54.6896 87.2627 54.9833 86.8211 55.2662 86.3719C55.3742 86.2005 55.4736 86.0236 55.5632 85.8424C55.601 85.7654 55.6388 85.6883 55.6734 85.6102C55.5621 85.8685 55.6701 85.6015 55.6842 85.556C55.8181 85.1219 55.9379 84.6901 56.0049 84.2387C55.9574 84.5599 56.0189 84.0282 56.0254 83.9382C56.0394 83.7353 56.0481 83.5334 56.0513 83.3305C56.0599 82.8586 56.0427 82.3866 56.0114 81.9157C55.953 81.0183 55.8451 80.1253 55.7554 79.2302C55.3494 75.1819 55.9682 71.2117 57.6052 67.489C58.3644 65.7627 59.4108 64.236 60.441 62.6682C60.9377 61.9119 61.4053 61.1404 61.7994 60.3245C61.9517 60.0098 61.8631 60.191 61.8318 60.2648C61.8761 60.1585 61.9161 60.051 61.9549 59.9425C62.0219 59.7548 62.0813 59.5649 62.1331 59.3729C62.1849 59.1819 62.2206 58.9899 62.2605 58.7967C62.1979 59.0951 62.2584 58.8358 62.2605 58.7653C62.267 58.6253 62.2767 58.4853 62.2767 58.3454C62.2767 58.2553 62.2379 57.7323 62.28 58.047C62.2519 57.8408 62.2011 57.6336 62.1418 57.4339C62.1202 57.3634 62.0878 57.2918 62.0716 57.2202C62.0122 56.9695 62.1979 57.4513 62.078 57.2245C61.9841 57.0477 61.8977 56.8675 61.7919 56.6972C61.7325 56.6028 61.4647 56.2577 61.6709 56.4997C61.5381 56.3445 61.4053 56.1905 61.2606 56.0462C61.1332 55.9181 60.9971 55.7999 60.861 55.6816C60.658 55.5036 61.0684 55.8259 60.847 55.6686C60.7401 55.5926 60.6332 55.5178 60.523 55.4461C60.212 55.2454 59.8848 55.0696 59.5479 54.9177C59.8438 55.0501 59.3881 54.8635 59.2974 54.8331C59.0706 54.7561 58.8395 54.6899 58.6063 54.6345C58.4259 54.5922 58.2424 54.5553 58.0588 54.5271C57.7856 54.4859 58.3169 54.5466 58.0005 54.526C57.9044 54.5195 57.8082 54.5098 57.7121 54.5043C57.1992 54.4739 56.6895 54.4956 56.1787 54.5401C56.1528 54.5423 55.8397 54.5857 56.0729 54.551C55.9779 54.5651 55.8828 54.5824 55.7889 54.5998C55.5362 54.6454 55.2846 54.7007 55.0352 54.7626C54.5654 54.8797 54.1021 55.023 53.6475 55.1879C53.1475 55.3691 53.0525 55.4092 52.5471 55.6501C52.112 55.8574 51.6843 56.082 51.2643 56.3207C50.5947 56.7015 49.9457 57.1182 49.3205 57.5696C49.1758 57.6737 49.0322 57.7811 48.8896 57.8886C49.1769 57.6726 48.6996 58.0415 48.6434 58.0871C48.3475 58.328 48.0592 58.5776 47.7763 58.8347C47.1942 59.3631 46.6403 59.9219 46.1165 60.5089C45.8811 60.7726 45.6511 61.0428 45.4276 61.3173C45.3639 61.3954 45.3012 61.4746 45.2375 61.5538C45.2224 61.5723 45.068 61.7708 45.1878 61.6146C45.3185 61.4453 45.1252 61.6992 45.0961 61.7383C45.0205 61.8392 44.946 61.9412 44.8725 62.0443C43.9903 63.2714 43.2268 64.5843 42.5951 65.958C42.5109 66.1403 42.432 66.3247 42.35 66.5092C42.486 66.2021 42.31 66.6101 42.2679 66.7153C42.1199 67.0886 41.9828 67.4651 41.8543 67.846C41.6146 68.5567 41.4083 69.2793 41.2388 70.0106C41.1545 70.3752 41.0779 70.7419 41.0109 71.1108C40.9796 71.2823 40.9505 71.4548 40.9235 71.6273C40.9116 71.7011 40.9008 71.7749 40.89 71.8487C40.8166 72.325 40.9116 71.6208 40.8824 71.8986C40.8014 72.6668 40.7334 73.4317 40.7204 74.2043C40.7075 74.9486 40.7345 75.694 40.8004 76.4362C40.8155 76.6098 40.8338 76.7823 40.8533 76.9549C40.8597 77.0113 40.8997 77.3259 40.8684 77.0905C40.8392 76.8713 40.8727 77.1198 40.8781 77.1523C40.9397 77.5451 41.0066 77.9379 41.0887 78.3274C41.2431 79.0609 41.4386 79.7857 41.6761 80.4964C41.7409 80.6906 41.8089 80.8838 41.8802 81.0758C41.9083 81.1496 41.9364 81.2234 41.9644 81.2961C41.9817 81.3406 42.1091 81.6455 42.026 81.4523C41.9428 81.2581 42.0768 81.563 42.0962 81.6064C42.1286 81.6791 42.1621 81.7518 42.1966 81.8234C42.2992 82.0415 42.4072 82.2564 42.5195 82.469C42.8975 83.1851 43.3305 83.8698 43.8121 84.5208C43.9773 84.7443 43.6598 84.3331 43.8348 84.549C43.8855 84.612 43.9363 84.6749 43.987 84.7378C44.1242 84.9038 44.2646 85.0666 44.4093 85.2261C44.6782 85.5234 44.96 85.8088 45.2548 86.08C45.3909 86.2059 45.5302 86.3285 45.6727 86.4489C45.7537 86.5173 45.8347 86.5846 45.9178 86.6497C45.6781 86.4587 45.8919 86.6291 45.9394 86.6627C46.2818 86.9025 46.6252 87.1369 46.9891 87.343C47.1467 87.432 47.3065 87.5166 47.4696 87.5969C47.5636 87.6436 47.9966 87.8313 47.6856 87.7054C48.0668 87.8595 48.4588 87.9897 48.8583 88.0884C49.0343 88.1318 49.2104 88.1698 49.3885 88.2013C49.4404 88.211 49.7654 88.2555 49.5408 88.2284C49.3324 88.2035 49.5926 88.2317 49.6185 88.2327C50.0451 88.2631 50.4652 88.2729 50.8928 88.249C51.8096 88.198 52.6854 89.0954 52.6443 90.009C52.6022 91.0061 51.8765 91.7136 50.8949 91.7689Z" fill="#2C2C2C"/>
</g>
</g>
</g>
<g id="&#237;&#131;&#144;&#236;&#177;&#148;_x5F_x5F_x5F__x201C__xAA__x201A__xA8__x201A__xB3__x201A__xA6__x201A_&#236;&#177;&#149;_copy">
<path id="Vector_18" d="M166.402 114.566L165.319 104.862C168.237 104.533 170.767 102.357 172.087 99.0426C172.925 96.9387 173.181 94.5972 172.829 92.272C172.432 89.6549 171.306 87.2189 169.481 85.0337L176.927 78.7578C179.873 82.2853 181.778 86.4507 182.436 90.8039C183.049 94.8489 182.59 98.9525 181.109 102.671C179.862 105.803 177.922 108.543 175.499 110.595C172.873 112.818 169.727 114.192 166.402 114.566Z" fill="#2C2C2C"/>
<g id="Group_12">
<path id="Vector_19" d="M169.874 90.0026C174.948 90.3379 179.061 85.8535 180.682 81.241C184.112 71.4778 179.408 59.6953 170.05 54.6065C167.749 53.3544 165.106 52.4668 162.48 52.7923C159.855 53.1178 157.31 54.9114 156.829 57.4027C156.252 60.3909 158.582 63.072 160.221 65.6739C162.536 69.3489 163.65 73.7054 163.371 77.988C163.161 81.1921 162.268 84.7055 164.09 87.4018C165.91 90.0981 164.801 89.6674 169.874 90.0026Z" fill="white"/>
<g id="Group_13">
<path id="Vector_20" d="M169.873 91.7611C173.692 91.9748 177.201 89.8395 179.508 86.9012C181.827 83.9477 183.052 80.4441 183.44 76.7246C184.149 69.9171 181.575 62.9218 177.026 57.8981C174.523 55.1345 171.308 52.8939 167.776 51.6906C163.749 50.318 158.934 50.8649 156.252 54.4802C155.012 56.1501 154.721 58.3104 155.256 60.3015C155.789 62.2795 156.998 63.9776 158.117 65.6561C158.688 66.5133 159.229 67.3868 159.692 68.3091C160.159 69.24 160.404 69.8444 160.736 70.8839C161.054 71.8777 161.298 72.8955 161.463 73.9263C161.484 74.0511 161.503 74.1759 161.519 74.3006C161.509 74.2193 161.489 74.0283 161.529 74.3961C161.556 74.6468 161.581 74.8985 161.6 75.1502C161.639 75.6537 161.659 76.1582 161.659 76.6628C161.661 78.6592 161.28 80.6264 161.22 82.6196C161.159 84.6779 161.528 86.7037 162.675 88.4387C163.166 89.1819 163.587 90.0738 164.261 90.6706C165.163 91.4692 166.328 91.5473 167.475 91.62C168.275 91.6699 169.075 91.709 169.873 91.7611C170.789 91.8208 171.665 90.9093 171.625 90.0011C171.58 88.9964 170.855 88.3052 169.873 88.2412C169.112 88.1913 168.351 88.1533 167.589 88.1067C167.337 88.0915 167.084 88.0752 166.832 88.0513C166.739 88.0426 166.641 88.022 166.547 88.021C167.116 88.0285 166.827 88.0633 166.64 88.022C166.533 87.9982 166.089 87.8376 166.458 87.9873C166.795 88.1251 166.555 88.022 166.477 87.9743C166.246 87.8322 166.814 88.3193 166.648 88.1045C166.615 88.0633 166.568 88.0166 166.529 87.9797C166.296 87.7616 166.729 88.2879 166.635 88.1208C166.555 87.9775 166.449 87.843 166.362 87.7041C166.079 87.2549 165.785 86.8133 165.502 86.3641C165.394 86.1927 165.295 86.0158 165.205 85.8346C165.167 85.7576 165.129 85.6805 165.095 85.6024C165.206 85.8606 165.098 85.5937 165.084 85.5481C164.95 85.1141 164.83 84.6823 164.763 84.2309C164.811 84.5521 164.749 84.0204 164.743 83.9304C164.729 83.7275 164.72 83.5256 164.717 83.3227C164.708 82.8507 164.725 82.3787 164.757 81.9078C164.815 81.0105 164.923 80.1175 165.013 79.2224C165.419 75.1741 164.8 71.2039 163.163 67.4812C162.404 65.7549 161.357 64.2282 160.327 62.6603C159.83 61.9041 159.363 61.1326 158.969 60.3167C158.816 60.002 158.905 60.1832 158.936 60.257C158.892 60.1506 158.852 60.0432 158.813 59.9347C158.746 59.747 158.687 59.5571 158.635 59.3651C158.583 59.1741 158.548 58.9821 158.508 58.7889C158.57 59.0873 158.51 58.828 158.508 58.7575C158.501 58.6175 158.491 58.4775 158.491 58.3375C158.491 58.2475 158.53 57.7245 158.488 58.0392C158.516 57.833 158.567 57.6258 158.626 57.4261C158.648 57.3556 158.68 57.284 158.697 57.2124C158.756 56.9617 158.57 57.4435 158.69 57.2167C158.784 57.0398 158.87 56.8597 158.976 56.6894C159.036 56.595 159.303 56.2499 159.097 56.4919C159.23 56.3367 159.363 56.1827 159.508 56.0383C159.635 55.9103 159.771 55.792 159.907 55.6738C160.11 55.4958 159.7 55.8181 159.921 55.6608C160.028 55.5848 160.135 55.5099 160.245 55.4383C160.556 55.2376 160.883 55.0618 161.22 54.9099C160.924 55.0423 161.38 54.8557 161.471 54.8253C161.698 54.7482 161.929 54.682 162.162 54.6267C162.342 54.5833 162.526 54.5475 162.709 54.5193C162.983 54.4781 162.45 54.5388 162.768 54.5182C162.864 54.5117 162.96 54.5019 163.056 54.4965C163.569 54.4661 164.079 54.4878 164.589 54.5323C164.615 54.5345 164.929 54.5779 164.695 54.5432C164.79 54.5573 164.885 54.5746 164.979 54.592C165.232 54.6376 165.484 54.6929 165.733 54.7547C166.203 54.8719 166.666 55.0152 167.121 55.1801C167.621 55.3613 167.716 55.4014 168.221 55.6423C168.656 55.8496 169.084 56.0742 169.504 56.3129C170.173 56.6937 170.822 57.1104 171.448 57.5617C171.592 57.6659 171.736 57.7733 171.879 57.8807C171.591 57.6648 172.069 58.0337 172.125 58.0793C172.421 58.3202 172.709 58.5697 172.992 58.8269C173.574 59.3553 174.128 59.9141 174.652 60.5011C174.887 60.7648 175.117 61.035 175.341 61.3095C175.404 61.3876 175.467 61.4668 175.531 61.546C175.546 61.5645 175.7 61.763 175.58 61.6068C175.45 61.4375 175.643 61.6914 175.672 61.7305C175.748 61.8314 175.822 61.9334 175.896 62.0364C176.778 63.2636 177.541 64.5765 178.173 65.9502C178.257 66.1325 178.336 66.3169 178.418 66.5014C178.282 66.1943 178.458 66.6023 178.5 66.7075C178.648 67.0808 178.785 67.4573 178.914 67.8381C179.154 68.5488 179.36 69.2715 179.529 70.0028C179.614 70.3674 179.69 70.7341 179.757 71.103C179.789 71.2745 179.818 71.447 179.845 71.6195C179.857 71.6933 179.867 71.7671 179.878 71.8409C179.952 72.3172 179.857 71.613 179.886 71.8908C179.967 72.659 180.035 73.4239 180.048 74.1965C180.061 74.9408 180.034 75.6862 179.968 76.4284C179.953 76.602 179.934 76.7745 179.915 76.947C179.908 77.0035 179.868 77.3181 179.9 77.0827C179.929 76.8635 179.895 77.112 179.89 77.1445C179.829 77.5373 179.762 77.9301 179.679 78.3196C179.525 79.0531 179.33 79.7779 179.092 80.4886C179.027 80.6828 178.959 80.876 178.888 81.068C178.86 81.1418 178.832 81.2145 178.804 81.2883C178.786 81.3328 178.659 81.6377 178.742 81.4445C178.825 81.2503 178.691 81.5552 178.672 81.5986C178.64 81.6713 178.606 81.744 178.572 81.8156C178.469 82.0337 178.361 82.2485 178.249 82.4612C177.871 83.1773 177.438 83.862 176.956 84.513C176.791 84.7365 177.108 84.3253 176.933 84.5412C176.883 84.6042 176.832 84.6671 176.781 84.73C176.644 84.896 176.504 85.0588 176.359 85.2183C176.09 85.5156 175.808 85.801 175.513 86.0722C175.377 86.1981 175.238 86.3207 175.095 86.4411C175.014 86.5095 174.933 86.5768 174.85 86.6419C175.09 86.4509 174.876 86.6212 174.829 86.6549C174.486 86.8947 174.143 87.129 173.779 87.3352C173.621 87.4242 173.462 87.5088 173.299 87.5891C173.205 87.6358 172.772 87.8235 173.083 87.6976C172.701 87.8517 172.309 87.9819 171.91 88.0806C171.734 88.124 171.558 88.162 171.38 88.1935C171.328 88.2032 171.003 88.2477 171.227 88.2206C171.436 88.1956 171.176 88.2239 171.15 88.2249C170.723 88.2553 170.303 88.2651 169.875 88.2412C168.959 88.1902 168.083 89.0875 168.124 90.0011C168.167 90.9983 168.892 91.7057 169.873 91.7611Z" fill="#2C2C2C"/>
</g>
</g>
</g>
<g id="_x2018__x2022_&#236;&#178;&#180;_x5F_x5F_x5F_&#237;&#157;&#184;&#237;&#154;&#145;&#236;&#176;&#188;_copy">
<g id="Group_14">
<path id="Vector_21" d="M152.685 24.2981C149.108 21.1146 147.958 15.4865 149.996 11.1442C152.034 6.80184 157.088 4.11312 161.807 4.86071C166.526 5.6083 170.513 9.72819 171.122 14.4893C175.172 10.3749 183.003 11.2386 186.069 16.1375C189.133 21.0365 186.515 28.5015 181.069 30.3852C184.734 34.2956 182.826 41.5361 178.036 43.921C173.245 46.3059 167.032 44.2216 163.758 39.9747C160.407 43.4143 154.488 43.4892 150.725 40.5107C141.498 33.2073 152.685 24.2981 152.685 24.2981Z" fill="#3617CE"/>
<g id="Group_15">
<path id="Vector_22" d="M153.905 23.0718C153.676 22.8646 153.455 22.6519 153.243 22.4262C153.12 22.2949 153.001 22.1604 152.886 22.0237C152.822 21.9477 152.548 21.5832 152.727 21.8327C152.337 21.2902 151.986 20.7249 151.691 20.1238C151.623 19.9849 151.562 19.8438 151.496 19.705C151.621 19.9708 151.474 19.6496 151.435 19.5487C151.307 19.2124 151.195 18.8695 151.097 18.5223C151.014 18.225 150.943 17.9233 150.883 17.6206C150.852 17.4687 150.828 17.3168 150.802 17.1638C150.797 17.1378 150.764 16.8828 150.789 17.0889C150.815 17.2962 150.778 16.9717 150.775 16.9359C150.709 16.2697 150.699 15.5992 150.748 14.9319C150.758 14.7778 150.778 14.6248 150.791 14.4718C150.807 14.2667 150.783 14.525 150.779 14.551C150.796 14.4501 150.81 14.3481 150.829 14.2472C150.887 13.9184 150.96 13.5929 151.048 13.2718C151.129 12.9745 151.224 12.6815 151.331 12.3918C151.358 12.3191 151.387 12.2486 151.414 12.1759C151.305 12.471 151.392 12.2236 151.42 12.1639C151.497 12.0001 151.574 11.8373 151.656 11.6768C151.797 11.4033 151.952 11.1353 152.117 10.876C152.199 10.7458 152.285 10.6178 152.373 10.4919C152.431 10.4083 152.492 10.3248 152.553 10.2423C152.712 10.0275 152.394 10.4344 152.566 10.2293C152.979 9.73671 153.416 9.27123 153.9 8.84915C153.978 8.78187 154.056 8.71677 154.134 8.6495C154.148 8.63756 154.346 8.47589 154.2 8.59308C154.083 8.68639 154.399 8.4466 154.456 8.40537C154.728 8.21223 155.008 8.02994 155.295 7.85959C155.582 7.68924 155.877 7.53191 156.177 7.38651C156.241 7.35613 156.607 7.18687 156.461 7.25089C156.285 7.32792 156.52 7.2281 156.539 7.2205C156.635 7.18361 156.73 7.14564 156.826 7.11092C157.451 6.88089 158.096 6.70511 158.751 6.58684C158.871 6.56514 159.206 6.52065 158.897 6.55646C159.05 6.5391 159.202 6.52174 159.355 6.5098C159.712 6.48159 160.07 6.46966 160.428 6.47725C160.735 6.48376 161.041 6.50655 161.347 6.53802C161.687 6.57274 161.161 6.4957 161.497 6.56297C161.697 6.60312 161.899 6.64001 162.099 6.68667C162.397 6.75719 162.693 6.84183 162.985 6.93948C163.13 6.98831 163.273 7.04256 163.418 7.09464C163.438 7.10223 163.676 7.19338 163.495 7.12177C163.317 7.05124 163.61 7.17276 163.64 7.18687C164.245 7.46464 164.825 7.79666 165.372 8.17642C165.436 8.21982 165.499 8.26431 165.561 8.30988C165.594 8.33375 165.919 8.58548 165.755 8.45311C165.609 8.33484 165.805 8.49759 165.82 8.50953C165.898 8.57572 165.978 8.6419 166.055 8.70918C166.326 8.94572 166.586 9.19528 166.834 9.45568C166.959 9.58589 167.08 9.71935 167.198 9.85498C167.266 9.93202 167.332 10.0112 167.398 10.0904C167.418 10.1143 167.617 10.3606 167.504 10.2163C167.388 10.0687 167.544 10.2705 167.556 10.2868C167.616 10.3704 167.677 10.4539 167.735 10.5375C167.838 10.685 167.937 10.8359 168.032 10.9878C168.237 11.3144 168.426 11.6496 168.597 11.9958C168.677 12.1563 168.75 12.3202 168.824 12.484C168.906 12.6663 168.807 12.4504 168.798 12.4244C168.832 12.5209 168.872 12.6153 168.907 12.7119C169.17 13.4378 169.35 14.1886 169.454 14.9547C169.638 16.3012 171.515 16.5475 172.342 15.7207C172.532 15.5308 172.73 15.3572 172.93 15.1793C173.261 14.8841 172.634 15.3757 172.998 15.125C173.107 15.0501 173.213 14.972 173.323 14.8993C173.506 14.7789 173.694 14.665 173.886 14.5586C174 14.4946 174.117 14.4338 174.235 14.3752C174.315 14.3351 174.85 14.1062 174.42 14.2787C174.87 14.0986 175.328 13.9477 175.797 13.8338C176.054 13.7709 176.315 13.7264 176.575 13.6776C177.018 13.5962 176.191 13.7058 176.641 13.6689C176.817 13.6548 176.993 13.6353 177.17 13.6255C177.657 13.5973 178.146 13.6038 178.632 13.6418C178.765 13.6526 178.896 13.6689 179.029 13.6808C178.566 13.6374 179.011 13.6787 179.097 13.6938C179.36 13.7372 179.621 13.7915 179.879 13.8544C180.395 13.9803 180.9 14.1474 181.392 14.347C180.972 14.1767 181.596 14.4501 181.7 14.5033C181.974 14.6422 182.242 14.7952 182.501 14.9601C182.724 15.1011 182.938 15.252 183.148 15.4115C182.795 15.1424 183.335 15.5829 183.403 15.6458C183.597 15.8238 183.784 16.0104 183.961 16.2057C184.05 16.3034 184.133 16.4064 184.22 16.5052C184.34 16.6549 184.331 16.6419 184.195 16.4672C184.248 16.5388 184.3 16.6104 184.351 16.6831C184.634 17.09 184.863 17.5208 185.081 17.9646C185.277 18.3649 184.968 17.6206 185.112 18.0416C185.155 18.1675 185.204 18.2912 185.246 18.4181C185.329 18.6709 185.401 18.927 185.46 19.1852C185.52 19.4445 185.567 19.706 185.606 19.9686C185.538 19.501 185.596 19.9502 185.604 20.0359C185.614 20.1683 185.623 20.3017 185.629 20.4352C185.653 20.9723 185.62 21.504 185.571 22.0389C185.613 21.5756 185.572 22.0237 185.558 22.1094C185.537 22.2418 185.512 22.3742 185.485 22.5065C185.439 22.7268 185.388 22.9449 185.329 23.1619C185.259 23.4223 185.179 23.6795 185.09 23.9344C185.045 24.0614 184.996 24.1873 184.949 24.3131C184.876 24.4943 184.882 24.4802 184.969 24.2719C184.933 24.3544 184.896 24.4357 184.857 24.5171C184.611 25.0444 184.324 25.5533 183.996 26.0329C183.92 26.1436 183.839 26.2499 183.762 26.3595C184 26.0145 183.748 26.3736 183.703 26.4279C183.505 26.6666 183.296 26.8966 183.076 27.1158C182.855 27.335 182.622 27.5357 182.386 27.7364C182.677 27.4879 182.45 27.6898 182.367 27.7473C182.241 27.8362 182.116 27.9263 181.985 28.0098C181.725 28.1791 181.456 28.3332 181.179 28.4721C181.059 28.5318 180.939 28.5871 180.818 28.6424C181.231 28.4536 180.687 28.6837 180.605 28.7129C179.366 29.1535 178.921 30.6118 179.842 31.6143C179.931 31.7109 180.32 32.21 180.077 31.8682C180.202 32.044 180.324 32.2209 180.435 32.4064C180.545 32.5898 180.647 32.7775 180.74 32.9706C180.779 33.0509 180.927 33.4491 180.771 33.0238C180.815 33.1443 180.862 33.2625 180.903 33.383C181.04 33.7899 181.129 34.2033 181.208 34.6253C181.289 35.0561 181.186 34.2358 181.213 34.6742C181.218 34.7599 181.228 34.8456 181.234 34.9313C181.252 35.1906 181.258 35.45 181.253 35.7104C181.248 35.9285 181.235 36.1455 181.216 36.3625C181.214 36.3853 181.164 36.8149 181.202 36.5231C181.24 36.2312 181.177 36.6609 181.174 36.6826C181.09 37.1611 180.971 37.6331 180.819 38.0942C180.748 38.3047 180.667 38.5109 180.59 38.7181C180.745 38.3036 180.487 38.9286 180.435 39.0306C180.217 39.4668 179.968 39.8867 179.687 40.286C179.636 40.3587 179.583 40.4292 179.531 40.5008C179.785 40.1503 179.522 40.5073 179.473 40.5648C179.332 40.7341 179.184 40.8979 179.03 41.0564C178.877 41.2148 178.718 41.3667 178.554 41.5121C178.488 41.5707 178.42 41.6249 178.354 41.6835C178.1 41.9103 178.602 41.5262 178.235 41.7747C177.886 42.0101 177.538 42.2336 177.161 42.4224C177.025 42.4908 176.887 42.5548 176.748 42.6156C177.046 42.4854 176.802 42.5917 176.74 42.6123C176.455 42.71 176.173 42.813 175.883 42.8933C175.642 42.9595 175.399 43.0159 175.154 43.0637C175.007 43.0919 174.86 43.1168 174.712 43.1396C174.779 43.1299 175.062 43.1049 174.726 43.1331C174.177 43.1798 173.631 43.2026 173.08 43.1744C172.83 43.1613 172.58 43.1375 172.33 43.1114C172.697 43.1505 172.359 43.1147 172.265 43.0995C172.141 43.0789 172.017 43.0572 171.892 43.0322C171.345 42.9248 170.804 42.7794 170.275 42.5993C170.179 42.5667 170.082 42.532 169.987 42.4973C169.924 42.4745 169.336 42.2347 169.687 42.3866C169.429 42.2738 169.174 42.1533 168.924 42.0242C168.399 41.754 167.892 41.4491 167.407 41.1106C167.28 41.0227 167.156 40.9316 167.032 40.8393C167.273 41.0173 166.969 40.7883 166.898 40.7287C166.661 40.5323 166.431 40.3283 166.208 40.1145C165.764 39.6892 165.356 39.2313 164.977 38.7463C164.4 38.0085 163.13 38.1441 162.533 38.7463C162.302 38.9785 162.059 39.1923 161.811 39.4049C161.612 39.5742 162.025 39.2671 161.805 39.406C161.743 39.4462 161.685 39.4928 161.623 39.5351C161.46 39.6469 161.293 39.7532 161.122 39.8541C160.844 40.018 160.555 40.1525 160.268 40.2968C160.091 40.3847 160.316 40.2773 160.34 40.2675C160.271 40.2936 160.202 40.3218 160.133 40.3478C159.948 40.4173 159.76 40.4813 159.572 40.5399C159.265 40.6343 158.952 40.7135 158.637 40.7775C158.543 40.797 158.102 40.8752 158.28 40.8459C158.489 40.8111 158.244 40.8502 158.214 40.8535C158.09 40.8665 157.967 40.8784 157.842 40.8882C157.164 40.9392 156.498 40.9055 155.822 40.8459C156.163 40.8762 155.736 40.8307 155.612 40.8079C155.464 40.7808 155.318 40.7504 155.171 40.7178C154.804 40.6343 154.442 40.5323 154.085 40.4097C153.943 40.3608 153.803 40.3077 153.662 40.2534C153.64 40.2447 153.41 40.146 153.591 40.2252C153.787 40.312 153.498 40.1796 153.454 40.159C153.136 40.0082 152.826 39.8411 152.526 39.6577C152.376 39.5655 152.228 39.47 152.083 39.3702C151.997 39.3105 151.715 39.1044 151.946 39.2812C151.633 39.0404 151.334 38.7767 151.047 38.5054C150.783 38.2559 150.529 37.9944 150.291 37.7199C150.195 37.6092 150.102 37.4953 150.009 37.3813C150.233 37.6558 149.927 37.2609 149.862 37.1665C149.701 36.9278 149.551 36.6815 149.416 36.4276C149.346 36.2963 149.283 36.1628 149.217 36.0294C149.198 35.9903 149.113 35.7917 149.206 36.0088C149.314 36.2605 149.166 35.8948 149.158 35.8753C149.071 35.6344 148.997 35.3881 148.937 35.1386C148.91 35.0257 148.885 34.9129 148.863 34.8C148.849 34.7252 148.84 34.6492 148.824 34.5743C148.778 34.3486 148.85 34.9281 148.843 34.6991C148.825 34.1946 148.807 33.7117 148.843 33.205C148.864 32.899 148.774 33.5804 148.846 33.179C148.869 33.0542 148.89 32.9283 148.916 32.8035C148.969 32.5551 149.033 32.3099 149.105 32.0668C149.173 31.8422 149.249 31.6198 149.333 31.3995C149.352 31.3485 149.373 31.2986 149.391 31.2487C149.496 30.9655 149.345 31.3387 149.342 31.3637C149.359 31.253 149.45 31.1207 149.497 31.0197C149.709 30.5705 149.947 30.1344 150.207 29.7112C150.447 29.3184 150.708 28.9365 150.981 28.5643C151.015 28.5166 151.266 28.1813 151.083 28.4254C150.902 28.6685 151.149 28.3451 151.187 28.2985C151.323 28.1303 151.461 27.9643 151.603 27.7993C152.304 26.9867 153.065 26.1935 153.905 25.5229C154.617 24.9598 154.54 23.6567 153.905 23.0718C153.15 22.3763 152.221 22.4664 151.461 23.0718C150.668 23.7055 149.945 24.4509 149.277 25.2137C147.789 26.9107 146.516 28.8247 145.822 30.9915C145.011 33.524 145.269 36.3006 146.658 38.5814C148.365 41.3829 151.335 43.4999 154.547 44.1314C158.269 44.8638 162.256 43.9491 164.978 41.205C164.164 41.205 163.35 41.205 162.534 41.205C165.688 45.2424 171.187 47.4429 176.22 46.385C181.032 45.3737 184.312 41.0542 184.685 36.2334C184.884 33.6499 184.041 31.0664 182.289 29.16C182.036 30.1268 181.781 31.0946 181.527 32.0614C186.597 30.2591 189.698 24.7124 188.989 19.4066C188.629 16.7189 187.319 14.2939 185.172 12.6262C183.097 11.016 180.52 10.1631 177.9 10.1349C174.952 10.1024 172.004 11.1603 169.899 13.2631C170.861 13.5181 171.824 13.7741 172.787 14.0291C171.919 7.65126 165.699 2.47889 159.281 3.04202C156.067 3.32413 152.983 4.73902 150.734 7.08162C148.475 9.43398 147.24 12.5882 147.264 15.8542C147.29 19.463 148.776 23.0979 151.461 25.5262C152.133 26.1338 153.251 26.2423 153.905 25.5262C154.511 24.8643 154.623 23.7207 153.905 23.0718Z" fill="white"/>
</g>
</g>
<g id="Group_16">
<path id="Vector_23" d="M134.025 65.6313C132.585 65.6313 131.155 65.1886 129.938 64.3433C128.239 63.1639 127.115 61.3226 126.851 59.2914C126.443 56.1307 128.081 53.9107 129.719 52.4502C129.164 51.3999 128.878 50.2064 128.935 49.0139C129.094 45.6427 131.303 43.1558 134.698 42.5232C136.648 42.1608 138.901 42.4364 140.877 43.2806C143.077 44.2213 144.735 45.7555 145.542 47.6023C145.924 48.4768 146.096 49.4067 146.068 50.3105C147.974 51.1731 149.53 52.8332 150.193 54.9013C151.248 58.1879 149.966 61.7848 147.004 63.8518C145.615 64.8207 144.012 65.3644 142.367 65.4219C141.126 65.4664 140.085 65.1332 139.248 64.8663C138.756 64.709 138.33 64.5734 137.964 64.5397C137.885 64.53 137.531 64.6992 137.3 64.8099C136.861 65.0204 136.313 65.2819 135.632 65.4447C135.102 65.5694 134.563 65.6313 134.025 65.6313ZM136.449 47.2486C136.152 47.2486 135.862 47.2735 135.583 47.3245C134.069 47.6066 133.827 48.454 133.789 49.245C133.761 49.8418 134.089 50.4874 134.584 50.8151L137.668 52.856L134.581 54.8937C131.962 56.6222 131.53 57.5846 131.67 58.661C131.755 59.3239 132.131 59.9305 132.7 60.3254C133.018 60.5468 133.678 60.8886 134.514 60.6911C134.692 60.6488 134.933 60.5338 135.212 60.4003C135.921 60.0607 136.995 59.5475 138.404 59.6766C139.296 59.758 140.052 59.9988 140.719 60.2115C141.297 60.396 141.795 60.5555 142.196 60.5414C142.896 60.5164 143.618 60.2679 144.232 59.8404C145.609 58.8791 145.895 57.4197 145.568 56.3987C145.229 55.3419 144.101 54.5085 143.055 54.5465L137.647 54.731L141.103 50.5471C141.233 50.3908 141.26 49.9492 141.093 49.5651C140.526 48.2707 138.365 47.2486 136.449 47.2486Z" fill="white"/>
<path id="Vector_24" d="M133.248 52.8549C132.037 52.0531 131.294 50.5861 131.362 49.13C131.658 42.8509 141.345 44.0726 143.317 48.5842C143.814 49.7213 143.763 51.1514 142.973 52.1073C145.134 52.0336 147.217 53.583 147.88 55.6511C148.637 58.01 147.6 60.4643 145.618 61.8466C144.641 62.5281 143.472 62.9404 142.282 62.9827C140.813 63.0348 139.609 62.2394 138.184 62.1092C136.97 61.9986 136.19 62.8037 135.072 63.0684C132.341 63.7173 129.618 61.7512 129.26 58.9767C128.885 56.0721 131.086 54.2818 133.248 52.8549Z" fill="#3617CE"/>
</g>
</g>
<g id="_x2018__x2022_&#236;&#178;&#180;_x5F_x5F_x5F_&#236;&#176;&#190;J_x2018_np_copy">
<g id="Group_17">
<path id="Vector_25" d="M61.5273 69.8981C67.8953 62.9148 82.9584 44.8554 83.9605 44.5538C85.4615 44.1024 91.228 49.5797 92.7106 50.0896C85.7379 58.4444 77.2988 67.8007 70.3261 76.1555C67.8975 75.1876 61.5273 69.8981 61.5273 69.8981Z" fill="white"/>
<g id="Group_18">
<path id="Vector_26" d="M62.4825 70.8564C67.1777 65.7035 71.6657 60.3565 76.2259 55.0832C78.2712 52.7178 80.3132 50.3491 82.4114 48.0315C83.0269 47.3512 83.6436 46.6654 84.3001 46.0242C84.3919 45.9352 84.4858 45.8495 84.5787 45.7616C84.6144 45.728 84.6565 45.6987 84.691 45.664C84.8357 45.5207 84.3444 45.894 84.5442 45.7779C84.5668 45.7649 84.5874 45.7486 84.6122 45.7366C84.1759 45.9504 84.2202 45.8864 84.3422 45.8549C84.4923 45.8169 83.9286 45.8842 84.1414 45.882C84.4275 45.8799 83.798 45.7714 84.1079 45.8744C84.2364 45.9168 84.366 45.9602 84.4945 46.0014C84.0809 45.8679 84.5766 46.0491 84.6889 46.1088C84.8552 46.1967 85.0182 46.2911 85.1802 46.3888C85.5495 46.6112 85.908 46.8532 86.2611 47.1005C87.0214 47.6333 87.7589 48.1986 88.4943 48.7672C89.6897 49.6905 90.9154 50.8721 92.3548 51.3962C92.1561 50.641 91.9574 49.8848 91.7587 49.1296C85.9966 56.0293 80.0163 62.7403 74.158 69.5576C72.5512 71.4271 70.954 73.3042 69.3742 75.1954C69.8115 75.0793 70.25 74.9632 70.6873 74.8471C71.1333 75.0283 70.5664 74.7831 70.4487 74.7224C70.2564 74.6225 70.0675 74.5162 69.8807 74.4055C69.439 74.1462 69.0092 73.8674 68.5859 73.5809C67.6011 72.9169 66.6443 72.2116 65.6994 71.4922C65.4726 71.3197 65.248 71.1472 65.0223 70.9725C64.9457 70.9139 64.9597 70.9236 65.0634 71.0039C65.0029 70.9562 64.9424 70.9095 64.882 70.8618C64.7794 70.7815 64.6768 70.7012 64.5742 70.6198C64.2146 70.3377 63.8572 70.0524 63.5019 69.7659C63.1617 69.4914 62.8216 69.2169 62.4846 68.9369C61.9231 68.4704 61.1251 68.3847 60.5754 68.9369C60.0971 69.4176 60.0107 70.3866 60.5754 70.8553C61.8065 71.8763 63.0656 72.8648 64.3377 73.8337C66.0957 75.1716 67.911 76.6223 69.9703 77.461C70.3742 77.6259 71.008 77.4426 71.2834 77.1127C77.0456 70.2129 83.0259 63.502 88.8841 56.6847C90.491 54.8152 92.0881 52.938 93.6679 51.0468C94.3461 50.2352 94.0707 49.1437 93.0719 48.7802C92.8796 48.7097 93.4034 48.9657 93.2176 48.8431C93.1788 48.8171 93.1313 48.8019 93.0913 48.778C92.9855 48.7162 92.8786 48.6565 92.7738 48.5914C92.5082 48.4243 92.2512 48.242 91.9963 48.0575C91.3689 47.6018 90.7577 47.1233 90.1433 46.6481C88.855 45.6509 87.5645 44.5887 86.1283 43.8096C85.0279 43.2128 83.8412 42.858 82.8023 43.7282C82.2646 44.1785 81.7905 44.7124 81.3143 45.2256C76.714 50.182 72.3903 55.4065 67.9693 60.5214C65.5277 63.3457 63.0894 66.1777 60.5754 68.9369C60.083 69.4773 60.0441 70.3214 60.5754 70.8553C61.0722 71.3587 61.9879 71.3989 62.4825 70.8564Z" fill="#2C2C2C"/>
</g>
</g>
<g id="Group_19">
<path id="Vector_27" d="M67.6075 44.6738C74.5575 51.0723 92.5308 66.2075 92.831 67.2144C93.2802 68.7226 87.829 74.5167 87.3215 76.0065C79.0065 69.0004 69.6949 60.5208 61.3799 53.5147C62.3431 51.0745 67.6075 44.6738 67.6075 44.6738Z" fill="white"/>
<g id="Group_20">
<path id="Vector_28" d="M66.654 45.6333C71.7822 50.351 77.1038 54.8604 82.352 59.4425C84.7061 61.4976 87.0634 63.5494 89.37 65.6576C90.0471 66.2761 90.7296 66.8957 91.3678 67.5554C91.4563 67.6476 91.5416 67.742 91.6291 67.8353C91.6626 67.8711 91.6917 67.9134 91.7263 67.9482C91.8688 68.0936 91.4974 67.5999 91.6129 67.8006C91.6259 67.8234 91.6421 67.844 91.6539 67.869C91.4423 67.4306 91.5049 67.4751 91.5362 67.5977C91.574 67.7485 91.5071 67.1821 91.5092 67.3959C91.5114 67.6834 91.6194 67.0508 91.5168 67.3622C91.4747 67.4914 91.4315 67.6216 91.3905 67.7507C91.5233 67.3351 91.3429 67.8331 91.2835 67.946C91.1961 68.1131 91.1021 68.2769 91.0049 68.4397C90.7836 68.8108 90.5428 69.171 90.2965 69.5258C89.7663 70.2908 89.2037 71.0308 88.6379 71.7697C87.7189 72.9708 86.5429 74.2023 86.0214 75.6487C86.7729 75.449 87.5256 75.2494 88.2772 75.0497C81.4103 69.26 74.7314 63.251 67.9466 57.3647C66.0859 55.7502 64.2178 54.1454 62.3356 52.558C62.4511 52.9974 62.5667 53.4379 62.6822 53.8774C62.5019 54.3255 62.7459 53.7559 62.8064 53.6376C62.9057 53.4445 63.0116 53.2546 63.1217 53.0669C63.3798 52.6231 63.6573 52.1912 63.9424 51.7648C64.6033 50.7753 65.3052 49.8139 66.0212 48.8645C66.1929 48.6366 66.3646 48.411 66.5384 48.1842C66.5967 48.1071 66.587 48.1212 66.5071 48.2254C66.5546 48.1647 66.601 48.1039 66.6486 48.0431C66.7285 47.94 66.8084 47.837 66.8894 47.7339C67.1701 47.3726 67.4541 47.0134 67.7392 46.6564C68.0124 46.3147 68.2856 45.9729 68.5642 45.6343C69.0286 45.0701 69.1139 44.2683 68.5642 43.716C68.0859 43.2353 67.1215 43.1485 66.655 43.716C65.6389 44.9529 64.6551 46.2181 63.6908 47.4963C62.3593 49.2627 60.9155 51.0867 60.0808 53.1558C59.9167 53.5616 60.0992 54.1985 60.4274 54.4752C67.2943 60.265 73.9733 66.274 80.7581 72.1603C82.6187 73.7748 84.4869 75.3796 86.3691 76.967C87.1768 77.6484 88.2632 77.3717 88.6249 76.3681C88.6951 76.1749 88.4403 76.7012 88.5623 76.5145C88.5882 76.4755 88.6033 76.4277 88.6271 76.3876C88.6886 76.2813 88.748 76.1738 88.8128 76.0686C88.9791 75.8017 89.1605 75.5434 89.3441 75.2874C89.7976 74.657 90.2739 74.0428 90.7469 73.4254C91.7393 72.131 92.7964 70.8344 93.5718 69.3913C94.1657 68.2856 94.5188 67.0932 93.6528 66.0493C93.2046 65.509 92.6733 65.0327 92.1626 64.5542C87.2297 59.9319 82.0302 55.5874 76.9397 51.1453C74.1288 48.692 71.3103 46.242 68.5642 43.716C68.0265 43.2212 67.1863 43.1822 66.655 43.716C66.154 44.2162 66.114 45.1363 66.654 45.6333Z" fill="#2C2C2C"/>
</g>
</g>
</g>
</g>
</svg>
