<svg width="920" height="720" viewBox="0 0 920 720" fill="none" xmlns="http://www.w3.org/2000/svg">
<rect width="920" height="720" fill="white"/>
<path d="M301 597H335V659H301V597Z" fill="#F4F2FA"/>
<path d="M301 10V710" stroke="#CCCCCC" stroke-dasharray="4 4"/>
<path d="M615 10V710" stroke="#CCCCCC" stroke-dasharray="4 4"/>
<path opacity="0.07" d="M267 597H301V659H267V597Z" fill="#095CFE"/>
<rect opacity="0.07" x="27" y="389" width="240" height="322" rx="30" fill="#095CFE"/>
<rect opacity="0.07" x="27" y="80" width="240" height="62" rx="30" fill="#095CFE"/>
<rect opacity="0.07" x="655" y="184" width="240" height="62" rx="30" fill="#EF647D"/>
<rect opacity="0.07" x="655" y="340" width="240" height="62" rx="30" fill="#EF647D"/>
<rect opacity="0.07" x="655" y="651" width="240" height="62" rx="30" fill="#EF647D"/>
<rect opacity="0.07" x="655" y="443" width="240" height="114" rx="30" fill="#EF647D"/>
<rect opacity="0.1" x="335" y="80" width="240" height="322" rx="30" fill="#877AC8"/>
<path opacity="0.1" d="M335 577C335 560.431 348.431 547 365 547H545C561.569 547 575 560.431 575 577V629C575 645.569 561.569 659 545 659H335V577Z" fill="#877AC8"/>
<g filter="url(#filter0_d_933_7506)">
<rect x="350" y="90" width="210" height="40" rx="20" fill="white" shape-rendering="crispEdges"/>
<path d="M424.786 109.704H426.797V110.914H421.118V116.848H419.632V110.914H414.035V109.704H423.278C423.698 107.71 423.698 106.246 423.698 104.942V104.914H415.587V103.71H425.173V104.942C425.168 106.262 425.168 107.704 424.786 109.704ZM438.476 108.307V102.826H439.902V116.826H438.476V109.533H436.753V116.135H435.344V103.097H436.753V108.307H438.476ZM433.769 113.135H428.333V104.401H433.769V113.135ZM432.377 105.577H429.73V111.959H432.377V105.577ZM451.432 110.163V113.854H454.503V115.08H441.691V113.854H444.758V110.191C443.603 109.561 442.901 108.555 442.901 107.301C442.901 105.097 445.061 103.649 448.061 103.638C451.072 103.649 453.238 105.097 453.238 107.301C453.238 108.539 452.559 109.528 451.432 110.163ZM448.061 104.837C445.868 104.826 444.343 105.787 444.343 107.301C444.343 108.798 445.868 109.776 448.061 109.776C450.244 109.776 451.791 108.798 451.791 107.301C451.791 105.787 450.244 104.826 448.061 104.837ZM446.216 110.738V113.854H449.934V110.732C449.36 110.865 448.73 110.936 448.061 110.936C447.398 110.936 446.78 110.865 446.216 110.738ZM459.718 107.997C459.11 109.439 457.89 110.583 456.221 111.113L455.514 109.964C457.641 109.285 458.95 107.616 458.95 105.815V105.633H455.906V104.45H458.95V102.765H460.448V104.45H463.464V105.633H460.425V105.815C460.425 107.461 461.773 108.997 463.912 109.594L463.204 110.749C461.58 110.29 460.359 109.285 459.718 107.997ZM463.033 107.959V106.749H465.707V102.826H467.188V111.307H465.707V107.959H463.033ZM462.497 111.627C465.425 111.627 467.227 112.561 467.232 114.207C467.227 115.854 465.425 116.804 462.497 116.804C459.558 116.804 457.757 115.854 457.768 114.207C457.757 112.561 459.558 111.627 462.497 111.627ZM462.497 115.649C464.558 115.649 465.757 115.113 465.762 114.207C465.757 113.296 464.558 112.782 462.497 112.776C460.448 112.782 459.227 113.296 459.238 114.207C459.227 115.113 460.448 115.649 462.497 115.649ZM479.535 106.135V102.826H481.005V110.45H479.535V107.362H476.905V106.135H479.535ZM473.624 107.323C473.01 108.865 471.789 110.097 470.121 110.682L469.353 109.517C471.508 108.765 472.85 106.925 472.85 105.003V104.82H469.812V103.599H477.37V104.82H474.353V105.008C474.353 106.754 475.618 108.506 477.729 109.218L476.972 110.373C475.392 109.815 474.231 108.704 473.624 107.323ZM473.364 112.682H479.535V111.08H481.005V116.649H471.889V111.08H473.364V112.682ZM473.364 115.445H479.535V113.848H473.364V115.445ZM489.568 106.041C488.656 107.699 486.651 108.881 484.374 109.246L483.778 108.036C486.524 107.666 488.789 105.942 488.789 104.058V103.296H490.336V104.058C490.336 105.92 492.607 107.666 495.363 108.036L494.772 109.246C492.485 108.881 490.479 107.688 489.568 106.041ZM483.176 110.622H495.938V111.848H490.253V116.826H488.794V111.848H483.176V110.622Z" fill="#5646A5"/>
</g>
<g filter="url(#filter1_d_933_7506)">
<rect x="42" y="90" width="210" height="40" rx="20" fill="white" shape-rendering="crispEdges"/>
<path d="M130.614 109.704H132.626V110.914H126.946V116.848H125.46V110.914H119.863V109.704H129.106C129.526 107.71 129.526 106.246 129.526 104.942V104.914H121.416V103.71H131.001V104.942C130.996 106.262 130.996 107.704 130.614 109.704ZM144.304 108.307V102.826H145.73V116.826H144.304V109.533H142.581V116.135H141.172V103.097H142.581V108.307H144.304ZM139.597 113.135H134.161V104.401H139.597V113.135ZM138.205 105.577H135.559V111.959H138.205V105.577ZM157.26 110.163V113.854H160.331V115.08H147.519V113.854H150.586V110.191C149.431 109.561 148.729 108.555 148.729 107.301C148.729 105.097 150.89 103.649 153.89 103.638C156.901 103.649 159.066 105.097 159.066 107.301C159.066 108.539 158.387 109.528 157.26 110.163ZM153.89 104.837C151.696 104.826 150.171 105.787 150.171 107.301C150.171 108.798 151.696 109.776 153.89 109.776C156.072 109.776 157.619 108.798 157.619 107.301C157.619 105.787 156.072 104.826 153.89 104.837ZM152.044 110.738V113.854H155.762V110.732C155.188 110.865 154.558 110.936 153.89 110.936C153.227 110.936 152.608 110.865 152.044 110.738ZM165.546 107.997C164.939 109.439 163.718 110.583 162.049 111.113L161.342 109.964C163.469 109.285 164.778 107.616 164.778 105.815V105.633H161.734V104.45H164.778V102.765H166.276V104.45H169.292V105.633H166.254V105.815C166.254 107.461 167.602 108.997 169.74 109.594L169.033 110.749C167.408 110.29 166.187 109.285 165.546 107.997ZM168.861 107.959V106.749H171.535V102.826H173.016V111.307H171.535V107.959H168.861ZM168.325 111.627C171.254 111.627 173.055 112.561 173.06 114.207C173.055 115.854 171.254 116.804 168.325 116.804C165.386 116.804 163.585 115.854 163.596 114.207C163.585 112.561 165.386 111.627 168.325 111.627ZM168.325 115.649C170.386 115.649 171.585 115.113 171.591 114.207C171.585 113.296 170.386 112.782 168.325 112.776C166.276 112.782 165.055 113.296 165.066 114.207C165.055 115.113 166.276 115.649 168.325 115.649Z" fill="#3617CE"/>
</g>
<g filter="url(#filter2_d_933_7506)">
<rect x="42" y="399" width="210" height="40" rx="20" fill="white" shape-rendering="crispEdges"/>
<path d="M116.659 425.826V411.826H118.068V425.826H116.659ZM111.913 415.655H113.792V412.185H115.206V425.146H113.792V420.373H111.4V419.157H113.792V416.87H111.637C110.963 419.224 109.471 421.268 106.836 422.837L105.952 421.782C108.924 420.019 110.35 417.66 110.604 414.787H106.643V413.566H112.079C112.079 414.279 112.024 414.981 111.913 415.655ZM132.847 413.881V415.091H130.863V416.876H132.847V418.119H130.863V420.124H129.377V411.826H130.863V413.881H132.847ZM127.526 415.981C127.515 417.959 125.94 419.329 123.802 419.329C121.653 419.329 120.062 417.959 120.073 415.981C120.062 414.019 121.653 412.638 123.802 412.644C125.94 412.638 127.515 414.019 127.526 415.981ZM121.526 415.981C121.515 417.246 122.487 418.075 123.802 418.064C125.106 418.075 126.073 417.246 126.084 415.981C126.073 414.732 125.112 413.914 123.802 413.914C122.487 413.914 121.515 414.732 121.526 415.981ZM129.377 421.959H121.609V420.749H130.863V425.826H129.377V421.959ZM144.288 425.826V411.826H145.697V425.826H144.288ZM139.443 417.279H141.459V412.124H142.857V425.119H141.459V418.511H139.443V417.279ZM137.879 415.555V416.119C137.879 418.329 138.896 420.572 140.829 421.61L139.995 422.71C138.641 421.986 137.702 420.649 137.194 419.064C136.691 420.76 135.752 422.224 134.398 423.03L133.525 421.914C135.47 420.776 136.47 418.384 136.481 416.119V415.555H133.956V414.345H136.481V412.329H137.879V414.345H140.365V415.555H137.879ZM157.707 414.931H154.337C153.464 417.102 151.354 418.544 148.249 419.262L147.729 418.047C151.094 417.301 152.906 415.749 153.144 413.688H148.47V412.478H154.785C154.785 412.931 154.746 413.362 154.669 413.771H157.707V411.826H159.188V418.953H157.707V417.61H154.149V416.456H157.707V414.931ZM151.536 423.091V424.494H159.608V425.693H150.061V421.975H157.702V420.727H150.033V419.539H159.188V423.091H151.536ZM168.452 417.97V419.185H174.11V420.367H161.32V419.185H166.966V417.97H162.988V412.207H172.552V413.384H164.48V414.517H172.193V415.622H164.48V416.815H172.646V417.97H168.452ZM167.712 421.285C170.789 421.273 172.541 422.08 172.552 423.544C172.541 425.025 170.789 425.804 167.712 425.804C164.607 425.804 162.856 425.025 162.856 423.544C162.856 422.08 164.607 421.273 167.712 421.285ZM167.712 424.677C169.9 424.688 171.06 424.307 171.071 423.544C171.06 422.793 169.9 422.395 167.712 422.395C165.508 422.395 164.336 422.793 164.347 423.544C164.336 424.307 165.508 424.688 167.712 424.677ZM182.281 419.992V422.865H187.988V424.091H175.176V422.865H180.811V419.992H176.634V412.782H178.12V415.196H184.993V412.782H186.468V419.992H182.281ZM184.993 416.39H178.12V418.787H184.993V416.39Z" fill="#3617CE"/>
</g>
<g filter="url(#filter3_d_933_7506)">
<rect x="42" y="555" width="210" height="40" rx="20" fill="white" shape-rendering="crispEdges"/>
<path d="M127.217 567.837H128.703V578.014H127.217V567.837ZM121.101 575.732C118.99 575.738 117.371 574.307 117.371 572.251C117.371 570.224 118.99 568.787 121.101 568.787C123.211 568.787 124.819 570.224 124.819 572.251C124.819 574.307 123.211 575.738 121.101 575.732ZM118.824 572.251C118.813 573.566 119.797 574.439 121.101 574.439C122.382 574.439 123.366 573.566 123.366 572.251C123.366 570.959 122.382 570.08 121.101 570.08C119.797 570.08 118.813 570.959 118.824 572.251ZM121.034 576.981V580.323H129.112V581.539H119.543V576.981H121.034ZM137.31 571.041C136.398 572.699 134.393 573.881 132.117 574.246L131.52 573.036C134.266 572.666 136.531 570.942 136.531 569.058V568.296H138.078V569.058C138.078 570.92 140.349 572.666 143.106 573.036L142.514 574.246C140.227 573.881 138.222 572.688 137.31 571.041ZM130.918 575.622H143.68V576.848H137.995V581.826H136.537V576.848H130.918V575.622ZM148.077 568.655H149.564L145.917 582.202H144.431L148.077 568.655ZM160.42 567.826H161.906V575.34H160.42V567.826ZM154.304 568.472C156.447 568.461 158.022 569.793 158.022 571.727C158.022 573.633 156.447 574.964 154.304 574.959C152.155 574.964 150.575 573.633 150.575 571.727C150.575 569.793 152.155 568.461 154.304 568.472ZM154.304 569.721C152.972 569.71 152.017 570.522 152.028 571.727C152.017 572.925 152.972 573.732 154.304 573.738C155.619 573.732 156.569 572.925 156.569 571.727C156.569 570.522 155.619 569.71 154.304 569.721ZM152.74 576.019H154.193V577.588H160.431V576.019H161.906V581.649H152.74V576.019ZM154.193 578.76V580.439H160.431V578.76H154.193ZM173.966 570.544V570.378H165.463V569.174H175.447V570.544C175.441 572.279 175.441 574.213 174.911 577.086L173.419 576.92C173.955 574.213 173.955 572.229 173.966 570.544ZM170.441 573.771V578.71H176.883V579.936H164.121V578.71H168.972V573.771H170.441Z" fill="#3617CE"/>
</g>
<g filter="url(#filter4_d_933_7506)">
<rect x="350" y="557" width="210" height="40" rx="20" fill="white" shape-rendering="crispEdges"/>
<path d="M438.769 575.412H441.012V576.677H438.769V583.826H437.283V569.826H438.769V575.412ZM432.714 570.992V573.39C432.703 575.865 434.15 578.401 436.228 579.417L435.316 580.605C433.786 579.815 432.603 578.246 431.99 576.378C431.366 578.367 430.139 580.041 428.548 580.87L427.626 579.677C429.775 578.638 431.228 575.959 431.239 573.39V570.992H432.714ZM448.796 571.378H453.735V572.588H442.338V571.378H447.327V569.771H448.796V571.378ZM448.061 578.014C445.144 578.008 443.398 577.169 443.404 575.666C443.398 574.141 445.144 573.307 448.061 573.307C450.967 573.307 452.713 574.141 452.719 575.666C452.713 577.169 450.967 578.008 448.061 578.014ZM448.061 574.423C446.05 574.423 444.934 574.865 444.945 575.666C444.934 576.456 446.05 576.898 448.061 576.887C450.061 576.898 451.177 576.456 451.188 575.666C451.177 574.865 450.061 574.423 448.061 574.423ZM441.691 578.887H454.503V580.102H448.796V583.848H447.327V580.102H441.691V578.887ZM466.591 569.826V574.285H468.519V575.539H466.591V580.345H465.083V569.826H466.591ZM462.956 575.804L461.486 575.677C461.79 574.119 461.84 572.992 461.851 572.113H456.249V570.887H463.309V571.677C463.298 572.61 463.298 574.003 462.956 575.804ZM464.193 576.561L464.282 577.644C461.359 578.157 458.017 578.213 455.541 578.218L455.403 577.014C456.265 577.008 457.243 577.003 458.271 576.981V574.036H459.74V576.931C461.243 576.87 462.785 576.76 464.193 576.561ZM457.53 579.395H459.011V582.323H467.039V583.539H457.53V579.395ZM479.491 583.854V569.826H480.961V583.854H479.491ZM471.662 576.207V579.268C473.928 579.257 475.911 579.152 478.254 578.765L478.392 579.992C475.911 580.401 473.801 580.494 471.336 580.494H470.138V575.014H475.176V572.301H470.121V571.086H476.679V576.207H471.662Z" fill="#5646A5"/>
</g>
<g filter="url(#filter5_d_933_7506)">
<rect x="42" y="659" width="210" height="40" rx="20" fill="white" shape-rendering="crispEdges"/>
<path d="M143.818 679.771V671.837H145.304V679.771H143.818ZM138.034 676.113C137.404 677.644 136.166 678.865 134.492 679.456L133.746 678.285C135.94 677.55 137.26 675.693 137.26 673.738V672.373H138.78V673.738C138.769 675.622 140.122 677.334 142.249 678.047L141.514 679.18C139.89 678.649 138.669 677.544 138.034 676.113ZM145.304 685.649H136.1V680.522H145.304V685.649ZM143.846 681.71H137.564V684.445H143.846V681.71ZM158.425 677.412H160.669V678.677H158.425V685.826H156.939V671.826H158.425V677.412ZM152.37 672.992V675.39C152.359 677.865 153.807 680.401 155.884 681.417L154.972 682.605C153.442 681.815 152.26 680.246 151.646 678.378C151.022 680.367 149.796 682.041 148.204 682.87L147.282 681.677C149.431 680.638 150.884 677.959 150.895 675.39V672.992H152.37Z" fill="#3617CE"/>
</g>
<g filter="url(#filter6_d_933_7506)">
<rect x="42" y="451" width="210" height="40" rx="20" fill="white" shape-rendering="crispEdges"/>
<path d="M121.09 468.135H123.073V465.461H121.029V464.257H131.427V465.461H129.388V468.135H131.366V469.345H121.09V468.135ZM124.548 468.135H127.902V465.461H124.548V468.135ZM132.626 470.528V471.721H126.968V473.224H131.068V477.649H121.393V473.224H125.504V471.721H119.863V470.528H132.626ZM122.858 476.445H129.626V474.39H122.858V476.445ZM143.818 463.826H145.282V471.069H143.818V463.826ZM138.15 467.936C137.525 469.423 136.249 470.588 134.525 471.13L133.84 469.959C136.017 469.279 137.365 467.588 137.376 465.782H134.227V464.577H141.956V465.782H138.874C138.874 467.489 140.211 469.069 142.387 469.688L141.669 470.831C140.017 470.34 138.78 469.285 138.15 467.936ZM137.581 475.174V476.522H145.763V477.693H136.139V474.091H143.829V472.854H136.095V471.71H145.304V475.174H137.581ZM157.707 467.351V463.837H159.188V471.771H157.707V468.577H154.807V467.351H157.707ZM154.757 464.71C154.746 468.268 152.309 470.793 148.254 471.936L147.641 470.776C150.884 469.87 152.884 468.124 153.171 465.914H148.381V464.71H154.757ZM159.188 477.638H150.033V472.351H159.188V477.638ZM157.718 473.528H151.481V476.45H157.718V473.528ZM172.254 469.412H174.497V470.677H172.254V477.826H170.767V463.826H172.254V469.412ZM166.198 464.992V467.39C166.187 469.865 167.635 472.401 169.712 473.417L168.801 474.605C167.27 473.815 166.088 472.246 165.475 470.378C164.85 472.367 163.624 474.041 162.033 474.87L161.11 473.677C163.259 472.638 164.712 469.959 164.723 467.39V464.992H166.198Z" fill="#3617CE"/>
</g>
<g filter="url(#filter7_d_933_7506)">
<rect x="42" y="503" width="210" height="40" rx="20" fill="white" shape-rendering="crispEdges"/>
<path d="M129.99 515.837H131.476V526.014H129.99V515.837ZM123.874 523.732C121.764 523.738 120.145 522.307 120.145 520.251C120.145 518.224 121.764 516.787 123.874 516.787C125.985 516.787 127.592 518.224 127.592 520.251C127.592 522.307 125.985 523.738 123.874 523.732ZM121.598 520.251C121.587 521.566 122.57 522.439 123.874 522.439C125.156 522.439 126.139 521.566 126.139 520.251C126.139 518.959 125.156 518.08 123.874 518.08C122.57 518.08 121.587 518.959 121.598 520.251ZM123.808 524.981V528.323H131.885V529.539H122.316V524.981H123.808ZM140.083 519.041C139.172 520.699 137.166 521.881 134.89 522.246L134.293 521.036C137.039 520.666 139.304 518.942 139.304 517.058V516.296H140.851V517.058C140.851 518.92 143.122 520.666 145.879 521.036L145.288 522.246C143.001 521.881 140.995 520.688 140.083 519.041ZM133.691 523.622H146.454V524.848H140.769V529.826H139.31V524.848H133.691V523.622ZM157.707 519.351V515.837H159.188V523.771H157.707V520.577H154.807V519.351H157.707ZM154.757 516.71C154.746 520.268 152.309 522.793 148.254 523.936L147.641 522.776C150.884 521.87 152.884 520.124 153.171 517.914H148.381V516.71H154.757ZM159.188 529.638H150.033V524.351H159.188V529.638ZM157.718 525.528H151.481V528.45H157.718V525.528ZM172.254 521.412H174.497V522.677H172.254V529.826H170.767V515.826H172.254V521.412ZM166.198 516.992V519.39C166.187 521.865 167.635 524.401 169.712 525.417L168.801 526.605C167.27 525.815 166.088 524.246 165.475 522.378C164.85 524.367 163.624 526.041 162.033 526.87L161.11 525.677C163.259 524.638 164.712 521.959 164.723 519.39V516.992H166.198Z" fill="#3617CE"/>
</g>
<g filter="url(#filter8_d_933_7506)">
<rect x="350" y="142" width="210" height="40" rx="20" fill="white" shape-rendering="crispEdges"/>
<path d="M451.879 158.351V154.837H453.36V162.771H451.879V159.577H448.979V158.351H451.879ZM448.929 155.71C448.918 159.268 446.481 161.793 442.426 162.936L441.813 161.776C445.056 160.87 447.056 159.124 447.343 156.914H442.553V155.71H448.929ZM453.36 168.638H444.205V163.351H453.36V168.638ZM451.89 164.528H445.653V167.45H451.89V164.528ZM462.641 163.191V165.925H468.331V167.135H455.519V165.925H461.155V163.191H457.127V155.914H466.74V157.124H458.624V158.914H466.431V160.102H458.624V161.997H466.878V163.191H462.641Z" fill="#5646A5"/>
</g>
<g filter="url(#filter9_d_933_7506)">
<rect x="350" y="194" width="210" height="40" rx="20" fill="white" shape-rendering="crispEdges"/>
<path d="M375.302 214.931L377.799 219.5H375.843L373.545 215.229H373.446H371.125V219.5H369.407V208.185H373.451C376.075 208.185 377.368 209.649 377.368 211.732C377.368 213.251 376.683 214.412 375.302 214.931ZM373.269 209.66H371.125V213.749H373.274C374.943 213.749 375.639 213.008 375.639 211.732C375.639 210.456 374.943 209.66 373.269 209.66ZM380.985 219.5H379.266V208.185H386.294V209.666H380.985V213.097H385.786V214.572H380.985V219.5ZM388.204 208.185H392.248C394.872 208.185 396.165 209.765 396.165 211.854C396.165 213.942 394.867 215.533 392.243 215.533H389.922V219.5H388.204V208.185ZM389.922 214.069H392.071C393.74 214.069 394.436 213.13 394.436 211.854C394.436 210.577 393.74 209.66 392.066 209.66H389.922V214.069ZM400.671 207.655H402.157L398.511 221.202H397.025L400.671 207.655ZM413.351 213.843C413.351 215.925 412.632 217.539 411.461 218.528L412.986 220.517H411.229L410.268 219.262C409.654 219.522 408.975 219.655 408.251 219.655C405.306 219.655 403.152 217.456 403.152 213.843C403.152 210.224 405.306 208.03 408.251 208.03C411.179 208.03 413.351 210.224 413.351 213.843ZM404.859 213.843C404.859 216.594 406.306 218.086 408.251 218.086C408.61 218.086 408.958 218.036 409.279 217.931L407.671 215.831H409.356L410.445 217.246C411.185 216.533 411.643 215.39 411.643 213.843C411.643 211.091 410.196 209.599 408.251 209.599C406.306 209.599 404.859 211.091 404.859 213.843ZM415.63 214.809C415.63 212.036 416.37 209.732 417.779 207.765H419.31C418.221 209.224 417.359 212.185 417.359 214.809C417.359 217.434 418.221 220.401 419.31 221.859H417.779C416.37 219.892 415.63 217.583 415.63 214.809ZM430.968 220.826V206.826H432.376V220.826H430.968ZM425.957 211.787H428.139V207.124H429.537V220.119H428.139V212.992H425.957V211.787ZM424.586 209.61V210.732C424.586 213.13 425.553 215.522 427.52 216.655L426.636 217.749C425.294 216.948 424.376 215.522 423.89 213.831C423.393 215.66 422.443 217.224 421.078 218.075L420.161 216.975C422.144 215.771 423.155 213.224 423.155 210.732V209.61H420.592V208.401H427.001V209.61H424.586ZM445.199 206.82V211.003H447.227V212.24H445.199V217.108H443.713V206.82H445.199ZM441.862 211.268C441.851 213.307 440.249 214.754 438.138 214.754C436.022 214.754 434.398 213.307 434.409 211.268C434.398 209.224 436.022 207.787 438.138 207.787C440.249 207.787 441.851 209.224 441.862 211.268ZM435.862 211.268C435.851 212.566 436.856 213.456 438.138 213.456C439.431 213.456 440.409 212.566 440.42 211.268C440.409 209.959 439.431 209.08 438.138 209.08C436.856 209.08 435.851 209.959 435.862 211.268ZM436.326 216.036H437.801V219.323H445.796V220.539H436.326V216.036ZM451.359 207.655H452.845L449.198 221.202H447.712L451.359 207.655ZM463.762 210.87H460.375C459.381 213.052 457.276 214.699 454.425 215.594L453.789 214.417C456.966 213.39 459.088 211.494 459.386 209.119H454.508V207.914H461.005C461.005 208.522 460.933 209.108 460.795 209.666H463.762V206.837H465.237V217.235H463.762V214.019H460.187V212.798H463.762V210.87ZM457.729 216.202V219.323H465.596V220.539H456.22V216.202H457.729ZM477.59 210.39V206.826H479.071V215.196H477.59V211.616H474.993V210.39H477.59ZM471.684 211.644C471.071 213.18 469.844 214.417 468.176 215.003L467.408 213.826C469.562 213.091 470.905 211.224 470.905 209.329V208.931H467.866V207.732H475.424V208.931H472.408V209.318C472.408 211.08 473.673 212.809 475.783 213.528L475.026 214.682C473.452 214.146 472.292 213.025 471.684 211.644ZM477.59 217.102H469.579V215.898H479.071V220.826H477.59V217.102ZM490.971 214.163V217.854H494.042V219.08H481.23V217.854H484.297V214.191C483.142 213.561 482.44 212.555 482.44 211.301C482.44 209.097 484.6 207.649 487.6 207.638C490.611 207.649 492.777 209.097 492.777 211.301C492.777 212.539 492.098 213.528 490.971 214.163ZM487.6 208.837C485.407 208.826 483.882 209.787 483.882 211.301C483.882 212.798 485.407 213.776 487.6 213.776C489.783 213.776 491.33 212.798 491.33 211.301C491.33 209.787 489.783 208.826 487.6 208.837ZM485.755 214.738V217.854H489.473V214.732C488.899 214.865 488.269 214.936 487.6 214.936C486.937 214.936 486.319 214.865 485.755 214.738ZM499.257 211.997C498.65 213.439 497.429 214.583 495.76 215.113L495.053 213.964C497.18 213.285 498.489 211.616 498.489 209.815V209.633H495.445V208.45H498.489V206.765H499.987V208.45H503.003V209.633H499.964V209.815C499.964 211.461 501.313 212.997 503.451 213.594L502.743 214.749C501.119 214.29 499.898 213.285 499.257 211.997ZM502.572 211.959V210.749H505.246V206.826H506.727V215.307H505.246V211.959H502.572ZM502.036 215.627C504.964 215.627 506.766 216.561 506.771 218.207C506.766 219.854 504.964 220.804 502.036 220.804C499.097 220.804 497.296 219.854 497.307 218.207C497.296 216.561 499.097 215.627 502.036 215.627ZM502.036 219.649C504.097 219.649 505.296 219.113 505.301 218.207C505.296 217.296 504.097 216.782 502.036 216.776C499.987 216.782 498.766 217.296 498.777 218.207C498.766 219.113 499.987 219.649 502.036 219.649ZM512.583 214.809C512.583 217.583 511.842 219.892 510.433 221.859H508.903C509.991 220.401 510.853 217.434 510.853 214.809C510.853 212.185 509.991 209.224 508.903 207.765H510.433C511.842 209.732 512.583 212.036 512.583 214.809ZM525.13 211.704H523.495V215.008H522.114V207.097H523.495V210.483H525.13V206.837H526.533V215.456H525.13V211.704ZM521.683 213.273L520.893 214.417C519.594 213.92 518.683 212.964 518.18 211.815C517.666 213.113 516.71 214.246 515.351 214.826L514.545 213.677C516.434 212.848 517.445 211.075 517.445 209.517V207.699H518.882V209.517C518.882 211.047 519.859 212.594 521.683 213.273ZM521.859 215.727C524.771 215.727 526.611 216.666 526.611 218.268C526.611 219.859 524.771 220.804 521.859 220.804C518.926 220.804 517.097 219.859 517.108 218.268C517.097 216.666 518.926 215.727 521.859 215.727ZM521.859 219.66C523.882 219.671 525.125 219.157 525.13 218.268C525.125 217.373 523.882 216.854 521.859 216.854C519.815 216.854 518.572 217.373 518.583 218.268C518.572 219.157 519.815 219.671 521.859 219.66ZM540.102 215.091H538.621V210.898H535.671V209.677H538.621V206.826H540.102V215.091ZM532.699 211.445C532.091 213.047 530.87 214.296 529.174 214.909L528.378 213.715C530.616 212.953 531.914 211.091 531.925 208.992V207.605H533.406V208.931C533.395 210.881 534.665 212.633 536.787 213.323L535.98 214.483C534.439 213.925 533.306 212.848 532.699 211.445ZM535.411 215.478C538.345 215.478 540.141 216.461 540.146 218.157C540.141 219.848 538.345 220.804 535.411 220.804C532.472 220.804 530.671 219.848 530.682 218.157C530.671 216.461 532.472 215.478 535.411 215.478ZM535.411 219.633C537.455 219.633 538.671 219.091 538.676 218.157C538.671 217.191 537.455 216.644 535.411 216.644C533.362 216.644 532.141 217.191 532.152 218.157C532.141 219.091 533.362 219.633 535.411 219.633Z" fill="#5646A5"/>
</g>
<g filter="url(#filter10_d_933_7506)">
<rect x="670" y="194" width="210" height="40" rx="20" fill="white" shape-rendering="crispEdges"/>
<path d="M703.254 220.881V206.771H704.9V220.881H703.254ZM698.364 211.693H700.397V207.036H702.027V220.202H700.397V213.097H698.364V211.693ZM697.11 209.688V210.627C697.104 213.008 697.961 215.401 699.983 216.561L698.961 217.837C697.651 217.064 696.778 215.721 696.292 214.113C695.795 215.854 694.895 217.34 693.563 218.163L692.502 216.881C694.541 215.633 695.436 213.086 695.436 210.627V209.688H692.983V208.285H699.392V209.688H697.11ZM717.723 206.771V210.903H719.695V212.345H717.723V217.097H715.977V206.771H717.723ZM714.352 211.257C714.341 213.318 712.695 214.809 710.546 214.809C708.397 214.809 706.723 213.318 706.734 211.257C706.723 209.18 708.397 207.71 710.546 207.71C712.695 207.71 714.341 209.18 714.352 211.257ZM708.441 211.257C708.43 212.489 709.364 213.29 710.546 213.29C711.739 213.29 712.651 212.489 712.656 211.257C712.651 210.014 711.739 209.224 710.546 209.224C709.364 209.224 708.43 210.014 708.441 211.257ZM708.673 216.014H710.402V219.207H718.275V220.616H708.673V216.014ZM730.523 211.334V206.771H732.247V220.914H730.523V212.738H727.567V211.334H730.523ZM725.623 207.903V210.163C725.623 212.782 726.877 215.356 729.131 216.351L728.076 217.738C726.479 216.953 725.357 215.456 724.75 213.61C724.136 215.561 722.987 217.18 721.363 217.997L720.269 216.588C722.567 215.517 723.849 212.793 723.86 210.163V207.903H725.623ZM737.589 207.655H739.329L735.683 221.202H733.942L737.589 207.655ZM750.064 210.964H746.848C745.848 213.141 743.765 214.765 740.909 215.644L740.174 214.279C743.279 213.285 745.29 211.489 745.616 209.251H740.914V207.854H747.511C747.511 208.45 747.445 209.025 747.318 209.572H750.064V206.782H751.787V217.224H750.064V214.135H746.649V212.727H750.064V210.964ZM744.367 216.185V219.207H752.157V220.616H742.594V216.185H744.367ZM763.892 210.262V206.771H765.626V215.191H763.892V211.688H761.494V210.262H763.892ZM758.129 211.804C757.505 213.279 756.334 214.467 754.66 215.03L753.765 213.66C756.013 212.914 757.218 211.041 757.218 209.207V209.014H754.273V207.622H761.908V209.014H758.986V209.191C758.986 210.914 760.124 212.644 762.306 213.378L761.439 214.727C759.864 214.207 758.742 213.135 758.129 211.804ZM763.892 217.257H755.997V215.859H765.626V220.881H763.892V217.257ZM777.742 211.334V206.771H779.466V220.914H777.742V212.738H774.786V211.334H777.742ZM772.841 207.903V210.163C772.841 212.782 774.095 215.356 776.35 216.351L775.294 217.738C773.698 216.953 772.576 215.456 771.968 213.61C771.355 215.561 770.206 217.18 768.582 217.997L767.488 216.588C769.786 215.517 771.068 212.793 771.079 210.163V207.903H772.841ZM792.544 212.881V214.13H798.118V215.533H785.251V214.13H790.803V212.881C788.218 212.693 786.582 211.655 786.588 210.008C786.582 208.246 788.588 207.152 791.676 207.152C794.754 207.152 796.759 208.246 796.759 210.008C796.759 211.655 795.124 212.693 792.544 212.881ZM788.389 210.008C788.378 210.992 789.621 211.506 791.676 211.506C793.732 211.506 794.975 210.992 794.975 210.008C794.975 209.08 793.732 208.539 791.676 208.539C789.621 208.539 788.378 209.08 788.389 210.008ZM786.836 216.494H788.582V219.207H796.665V220.616H786.836V216.494ZM810.14 212.196H812.317V213.638H810.14V220.914H808.422V206.771H810.14V212.196ZM801.394 213.323V216.135C803.626 216.124 805.366 216.03 807.339 215.688L807.499 217.086C805.322 217.483 803.394 217.577 800.83 217.583H799.67V211.936H804.399V209.406H799.643V207.997H806.134V213.323H801.394ZM822.924 206.782H824.664V216.986H822.924V206.782ZM816.968 214.776C814.819 214.782 813.156 213.323 813.161 211.235C813.156 209.18 814.819 207.71 816.968 207.71C819.117 207.71 820.769 209.18 820.769 211.235C820.769 213.323 819.117 214.782 816.968 214.776ZM814.857 211.235C814.852 212.489 815.758 213.262 816.968 213.262C818.145 213.262 819.062 212.489 819.062 211.235C819.062 210.014 818.145 209.224 816.968 209.224C815.758 209.224 814.852 210.014 814.857 211.235ZM817.073 215.948V219.207H825.062V220.616H815.321V215.948H817.073ZM841.035 220.881V206.771H842.681V220.881H841.035ZM836.145 211.693H838.179V207.036H839.808V220.202H838.179V213.097H836.145V211.693ZM834.891 209.688V210.627C834.886 213.008 835.742 215.401 837.764 216.561L836.742 217.837C835.433 217.064 834.56 215.721 834.074 214.113C833.576 215.854 832.676 217.34 831.344 218.163L830.283 216.881C832.322 215.633 833.217 213.086 833.217 210.627V209.688H830.764V208.285H837.173V209.688H834.891ZM845.432 212.406L844.946 211.113C847.736 210.975 849.382 210.218 849.741 209.218H845.625V207.92H849.918V206.738H851.642V207.92H855.962V209.218H851.819C852.167 210.218 853.813 210.975 856.631 211.113L856.117 212.406C853.57 212.251 851.67 211.561 850.78 210.417C849.896 211.561 847.996 212.251 845.432 212.406ZM857.206 212.876V214.152H851.648V215.185H855.625V218.5H847.592V219.472H856.012V220.765H845.891V217.318H853.913V216.439H845.874V215.185H849.924V214.152H844.388V212.876H857.206Z" fill="#EF647D"/>
</g>
<g filter="url(#filter11_d_933_7506)">
<rect x="350" y="246" width="210" height="40" rx="20" fill="white" shape-rendering="crispEdges"/>
<path d="M438.051 262.87H434.664C433.67 265.052 431.565 266.699 428.714 267.594L428.079 266.417C431.255 265.39 433.377 263.494 433.675 261.119H428.797V259.914H435.294C435.294 260.522 435.222 261.108 435.084 261.666H438.051V258.837H439.526V269.235H438.051V266.019H434.476V264.798H438.051V262.87ZM432.018 268.202V271.323H439.885V272.539H430.509V268.202H432.018ZM451.879 262.39V258.826H453.36V267.196H451.879V263.616H449.282V262.39H451.879ZM445.973 263.644C445.36 265.18 444.133 266.417 442.465 267.003L441.697 265.826C443.851 265.091 445.194 263.224 445.194 261.329V260.931H442.155V259.732H449.713V260.931H446.697V261.318C446.697 263.08 447.962 264.809 450.072 265.528L449.316 266.682C447.741 266.146 446.581 265.025 445.973 263.644ZM451.879 269.102H443.868V267.898H453.36V272.826H451.879V269.102ZM465.707 262.135V258.826H467.177V266.45H465.707V263.362H463.077V262.135H465.707ZM459.796 263.323C459.182 264.865 457.961 266.097 456.293 266.682L455.525 265.517C457.68 264.765 459.022 262.925 459.022 261.003V260.82H455.983V259.599H463.541V260.82H460.525V261.008C460.525 262.754 461.79 264.506 463.901 265.218L463.144 266.373C461.564 265.815 460.403 264.704 459.796 263.323ZM459.536 268.682H465.707V267.08H467.177V272.649H458.061V267.08H459.536V268.682ZM459.536 271.445H465.707V269.848H459.536V271.445ZM475.74 262.041C474.828 263.699 472.823 264.881 470.546 265.246L469.95 264.036C472.696 263.666 474.961 261.942 474.961 260.058V259.296H476.508V260.058C476.508 261.92 478.778 263.666 481.535 264.036L480.944 265.246C478.657 264.881 476.651 263.688 475.74 262.041ZM469.347 266.622H482.11V267.848H476.425V272.826H474.966V267.848H469.347V266.622Z" fill="#5646A5"/>
</g>
<g filter="url(#filter12_d_933_7506)">
<rect x="350" y="298" width="210" height="40" rx="20" fill="white" shape-rendering="crispEdges"/>
<path d="M438.051 314.097V310.826H439.532V318.34H438.051V315.307H435.322C435.034 316.914 433.598 317.997 431.73 317.997C429.592 317.997 428.056 316.649 428.068 314.721C428.056 312.809 429.592 311.45 431.73 311.461C433.576 311.45 435.007 312.522 435.316 314.097H438.051ZM431.73 316.749C433.029 316.749 433.957 315.914 433.957 314.721C433.957 313.511 433.029 312.699 431.73 312.71C430.41 312.699 429.476 313.511 429.476 314.721C429.476 315.914 430.41 316.749 431.73 316.749ZM431.874 320.649H438.051V319.019H439.532V324.649H430.405V319.019H431.874V320.649ZM431.874 323.439H438.051V321.815H431.874V323.439ZM452.288 324.826V310.826H453.697V324.826H452.288ZM447.443 316.279H449.459V311.124H450.857V324.119H449.459V317.511H447.443V316.279ZM445.879 314.555V315.119C445.879 317.329 446.896 319.572 448.829 320.61L447.995 321.71C446.641 320.986 445.702 319.649 445.194 318.064C444.691 319.76 443.752 321.224 442.398 322.03L441.525 320.914C443.47 319.776 444.47 317.384 444.481 315.119V314.555H441.956V313.345H444.481V311.329H445.879V313.345H448.365V314.555H445.879ZM467.188 321.279H465.707V315.251H462.757V314.025H465.707V310.837H467.188V321.279ZM459.746 315.831C459.144 317.445 457.939 318.715 456.293 319.351L455.503 318.163C457.68 317.395 458.978 315.45 458.983 313.351V311.682H460.459V313.384C460.459 315.29 461.724 317.119 463.834 317.859L463.017 319.019C461.492 318.428 460.348 317.279 459.746 315.831ZM459.541 320.119V323.323H467.503V324.539H458.044V320.119H459.541ZM476.922 315.616V314.395H479.535V310.826H481.016V319.157H479.535V315.616H476.922ZM473.635 315.644C473.021 317.207 471.795 318.461 470.121 319.075L469.353 317.898C471.519 317.135 472.85 315.246 472.85 313.312V313.003H469.812V311.793H477.37V313.003H474.353V313.301C474.353 315.075 475.618 316.798 477.729 317.511L476.972 318.693C475.397 318.146 474.242 317.025 473.635 315.644ZM476.325 319.55C479.259 319.55 481.055 320.522 481.06 322.191C481.055 323.854 479.259 324.815 476.325 324.826C473.386 324.815 471.585 323.854 471.596 322.191C471.585 320.522 473.386 319.55 476.325 319.55ZM476.325 323.66C478.37 323.671 479.585 323.13 479.591 322.191C479.585 321.24 478.37 320.699 476.325 320.699C474.276 320.699 473.055 321.24 473.066 322.191C473.055 323.13 474.276 323.671 476.325 323.66Z" fill="#5646A5"/>
</g>
<g filter="url(#filter13_d_933_7506)">
<rect x="350" y="350" width="210" height="40" rx="20" fill="white" shape-rendering="crispEdges"/>
<path d="M438.487 376.826V362.826H439.896V376.826H438.487ZM433.742 366.655H435.62V363.185H437.034V376.146H435.62V371.373H433.228V370.157H435.62V367.87H433.465C432.791 370.224 431.3 372.268 428.664 373.837L427.78 372.782C430.753 371.019 432.178 368.66 432.432 365.787H428.471V364.566H433.907C433.907 365.279 433.852 365.981 433.742 366.655ZM454.675 364.881V366.091H452.691V367.876H454.675V369.119H452.691V371.124H451.205V362.826H452.691V364.881H454.675ZM449.354 366.981C449.343 368.959 447.769 370.329 445.63 370.329C443.481 370.329 441.89 368.959 441.901 366.981C441.89 365.019 443.481 363.638 445.63 363.644C447.769 363.638 449.343 365.019 449.354 366.981ZM443.354 366.981C443.343 368.246 444.316 369.075 445.63 369.064C446.934 369.075 447.901 368.246 447.912 366.981C447.901 365.732 446.94 364.914 445.63 364.914C444.316 364.914 443.343 365.732 443.354 366.981ZM451.205 372.959H443.437V371.749H452.691V376.826H451.205V372.959ZM466.116 376.826V362.826H467.525V376.826H466.116ZM461.271 368.279H463.287V363.124H464.685V376.119H463.287V369.511H461.271V368.279ZM459.707 366.555V367.119C459.707 369.329 460.724 371.572 462.657 372.61L461.823 373.71C460.47 372.986 459.53 371.649 459.022 370.064C458.519 371.76 457.58 373.224 456.227 374.03L455.354 372.914C457.298 371.776 458.298 369.384 458.309 367.119V366.555H455.785V365.345H458.309V363.329H459.707V365.345H462.193V366.555H459.707ZM479.535 365.931H476.165C475.292 368.102 473.182 369.544 470.077 370.262L469.557 369.047C472.922 368.301 474.734 366.749 474.972 364.688H470.298V363.478H476.613C476.613 363.931 476.574 364.362 476.497 364.771H479.535V362.826H481.016V369.953H479.535V368.61H475.977V367.456H479.535V365.931ZM473.364 374.091V375.494H481.436V376.693H471.889V372.975H479.53V371.727H471.861V370.539H481.016V374.091H473.364Z" fill="#5646A5"/>
</g>
<g filter="url(#filter14_d_933_7506)">
<rect x="670" y="350" width="210" height="40" rx="20" fill="white" shape-rendering="crispEdges"/>
<path d="M758.349 376.881V362.771H759.99V376.881H758.349ZM753.78 366.561H755.427V363.113H757.079V376.224H755.427V371.494H753.222V370.086H755.427V367.975H753.476C752.808 370.323 751.338 372.334 748.692 373.909L747.664 372.677C750.587 370.942 751.94 368.738 752.2 365.898H748.421V364.489H753.929C753.929 365.202 753.88 365.892 753.78 366.561ZM774.697 364.738V366.146H772.785V367.771H774.697V369.218H772.785V371.113H771.039V362.771H772.785V364.738H774.697ZM769.415 366.97C769.404 368.981 767.785 370.384 765.608 370.384C763.426 370.384 761.785 368.981 761.796 366.97C761.785 364.981 763.426 363.566 765.608 363.572C767.785 363.566 769.404 364.981 769.415 366.97ZM763.503 366.97C763.492 368.174 764.393 368.914 765.608 368.909C766.813 368.914 767.713 368.174 767.719 366.97C767.713 365.787 766.813 365.058 765.608 365.052C764.393 365.058 763.492 365.787 763.503 366.97ZM771.039 373.124H763.371V371.71H772.785V376.881H771.039V373.124ZM785.972 376.881V362.771H787.619V376.881H785.972ZM781.265 368.196H783.116V363.036H784.746V376.202H783.116V369.627H781.265V368.196ZM779.785 366.638V367.08C779.785 369.268 780.68 371.467 782.657 372.533L781.691 373.809C780.37 373.119 779.481 371.876 778.978 370.39C778.481 371.992 777.591 373.362 776.265 374.141L775.254 372.831C777.254 371.671 778.133 369.312 778.144 367.08V366.638H775.735V365.235H778.144V363.268H779.779V365.235H782.144V366.638H779.785ZM799.392 365.975H796.16C795.281 368.13 793.209 369.528 790.088 370.229L789.491 368.809C792.806 368.119 794.463 366.66 794.707 364.776H790.259V363.373H796.635C796.635 363.815 796.602 364.235 796.535 364.638H799.392V362.771H801.126V369.914H799.392V368.693H795.988V367.362H799.392V365.975ZM793.58 374.191V375.356H801.491V376.749H791.845V372.892H799.381V371.843H791.823V370.467H801.126V374.191H793.58Z" fill="#EF647D"/>
</g>
<g filter="url(#filter15_d_933_7506)">
<rect x="670" y="661" width="210" height="40" rx="20" fill="white" shape-rendering="crispEdges"/>
<path d="M771.658 673.771H773.398V681.351H771.658V673.771ZM765.702 674.39C767.879 674.384 769.503 675.743 769.503 677.704C769.503 679.627 767.879 680.992 765.702 680.986C763.52 680.992 761.89 679.627 761.896 677.704C761.89 675.743 763.52 674.384 765.702 674.39ZM765.702 675.843C764.47 675.837 763.586 676.572 763.592 677.704C763.586 678.837 764.47 679.555 765.702 679.555C766.912 679.555 767.796 678.837 767.796 677.704C767.796 676.572 766.912 675.837 765.702 675.843ZM764.067 682.003H765.774V683.445H771.669V682.003H773.398V687.715H764.067V682.003ZM765.774 684.804V686.307H771.669V684.804H765.774ZM786.448 679.561H788.381V680.964H775.47V679.561H784.696C785.033 678.036 785.061 676.881 785.066 675.848H777.066V674.45H786.801V675.55C786.801 676.655 786.801 677.898 786.448 679.561ZM786.779 687.715H777.022V682.61H786.779V687.715ZM785.055 683.97H778.724V686.312H785.055V683.97Z" fill="#EF647D"/>
</g>
<path d="M25 15C25 12.2386 27.2386 10 30 10H245C256.046 10 265 18.9543 265 30V55C265 57.7614 262.761 60 260 60H45C33.9543 60 25 51.0457 25 40V15Z" fill="url(#paint0_linear_933_7506)"/>
<path d="M335 15C335 12.2386 337.239 10 340 10H555C566.046 10 575 18.9543 575 30V55C575 57.7614 572.761 60 570 60H355C343.954 60 335 51.0457 335 40V15Z" fill="url(#paint1_linear_933_7506)"/>
<path d="M645 15C645 12.2386 647.239 10 650 10H865C876.046 10 885 18.9543 885 30V55C885 57.7614 882.761 60 880 60H665C653.954 60 645 51.0457 645 40V15Z" fill="url(#paint2_linear_933_7506)"/>
<path d="M114.902 35.1492H116.852V36.5635H111.245V42.4033H109.493V36.5635H103.985V35.1492H113.145C113.532 33.2265 113.548 31.7901 113.548 30.5249H105.51V29.1271H115.278V30.3867C115.278 31.7072 115.278 33.1547 114.902 35.1492ZM128.327 33.7238V28.2707H129.995V42.3812H128.327V35.1492H126.824V41.7072H125.178V28.5138H126.824V33.7238H128.327ZM123.796 38.7514H118.25V29.7956H123.796V38.7514ZM122.167 31.1657H119.879V37.3812H122.167V31.1657ZM141.575 35.6409V39.2486H144.553V40.674H131.641V39.2486H134.625V35.674C133.498 35.0276 132.818 34.0166 132.824 32.7624C132.818 30.5138 135.022 29.0276 138.067 29.0221C141.111 29.0276 143.332 30.5138 143.332 32.7624C143.332 33.9945 142.669 34.989 141.575 35.6409ZM138.067 30.4088C135.951 30.4033 134.525 31.2928 134.525 32.7624C134.525 34.2099 135.951 35.1326 138.067 35.1326C140.166 35.1326 141.625 34.2099 141.625 32.7624C141.625 31.2928 140.166 30.4033 138.067 30.4088ZM136.343 36.3094V39.2486H139.818V36.3094C139.277 36.4254 138.691 36.4862 138.067 36.4862C137.453 36.4862 136.879 36.4254 136.343 36.3094ZM149.707 33.6851C149.094 35.0663 147.922 36.1602 146.243 36.663L145.42 35.3039C147.63 34.6409 148.812 32.9834 148.812 31.2762V31.2044H145.856V29.8232H148.812V28.2099H150.563V29.8232H153.491V31.2044H150.541V31.2762C150.541 32.8287 151.751 34.3536 153.978 34.9448L153.154 36.2928C151.53 35.8564 150.359 34.9061 149.707 33.6851ZM153.072 33.547V32.1436H155.563V28.2707H157.298V36.8122H155.563V33.547H153.072ZM152.519 37.0884C155.502 37.0939 157.337 38.0387 157.337 39.7127C157.337 41.3978 155.502 42.3757 152.519 42.3702C149.541 42.3757 147.707 41.3978 147.712 39.7127C147.707 38.0387 149.541 37.0939 152.519 37.0884ZM152.519 41.0331C154.514 41.0331 155.607 40.558 155.613 39.7127C155.607 38.8785 154.514 38.4309 152.519 38.4254C150.552 38.4309 149.431 38.8785 149.442 39.7127C149.431 40.558 150.552 41.0331 152.519 41.0331ZM168.878 28.8287H170.618V35.011H160.844V28.8287H162.557V30.5635H168.878V28.8287ZM162.557 33.6133H168.878V31.9337H162.557V33.6133ZM159.281 36.4862H172.192V37.8619H166.557V42.3812H164.839V37.8619H159.281V36.4862ZM183.242 32.8343V28.2707H184.965V42.4144H183.242V34.2376H180.286V32.8343H183.242ZM178.341 29.4033V31.663C178.341 34.2818 179.595 36.8564 181.849 37.8508L180.794 39.2376C179.197 38.453 178.076 36.9558 177.468 35.1105C176.855 37.0608 175.706 38.6796 174.081 39.4972L172.987 38.0884C175.286 37.0166 176.568 34.2928 176.579 31.663V29.4033H178.341Z" fill="white"/>
<path d="M439.054 35.1492H441.005V36.5635H435.397V42.4033H433.646V36.5635H428.137V35.1492H437.298C437.684 33.2265 437.701 31.7901 437.701 30.5249H429.662V29.1271H439.43V30.3867C439.43 31.7072 439.43 33.1547 439.054 35.1492ZM452.479 33.7238V28.2707H454.148V42.3812H452.479V35.1492H450.976V41.7072H449.33V28.5138H450.976V33.7238H452.479ZM447.949 38.7514H442.402V29.7956H447.949V38.7514ZM446.319 31.1657H444.032V37.3812H446.319V31.1657ZM465.374 28.8287H467.114V35.011H457.341V28.8287H459.053V30.5635H465.374V28.8287ZM459.053 33.6133H465.374V31.9337H459.053V33.6133ZM455.777 36.4862H468.689V37.8619H463.053V42.3812H461.335V37.8619H455.777V36.4862ZM479.738 32.8343V28.2707H481.461V42.4144H479.738V34.2376H476.782V32.8343H479.738ZM474.837 29.4033V31.663C474.837 34.2818 476.091 36.8564 478.345 37.8508L477.29 39.2376C475.694 38.453 474.572 36.9558 473.964 35.1105C473.351 37.0608 472.202 38.6796 470.577 39.4972L469.484 38.0884C471.782 37.0166 473.064 34.2928 473.075 31.663V29.4033H474.837Z" fill="white"/>
<path d="M749.027 33.8674L747.314 33.6961C747.662 32.326 747.684 31.337 747.69 30.3094H739.634V28.9337H749.424V30.105C749.424 31.2265 749.424 32.4144 749.027 33.8674ZM744.85 32.105V34.663H750.983V36.0718H738.165V34.663H743.132V32.105H744.85ZM744.496 37.0994C747.568 37.105 749.502 38.0718 749.513 39.7459C749.502 41.3923 747.568 42.3757 744.496 42.3702C741.452 42.3757 739.502 41.3923 739.502 39.7459C739.502 38.0718 741.452 37.105 744.496 37.0994ZM744.496 41.0331C746.546 41.0331 747.778 40.5801 747.784 39.7459C747.778 38.8895 746.546 38.4088 744.496 38.4033C742.458 38.4088 741.226 38.8895 741.237 39.7459C741.226 40.5801 742.458 41.0331 744.496 41.0331ZM762.943 33.8785H764.877V35.2707H751.965V33.8785H761.225C761.529 32.3867 761.556 31.2652 761.562 30.2707H753.562V28.8674H763.297V29.9669C763.297 31.0442 763.297 32.221 762.943 33.8785ZM755.264 37.9392H761.534V36.3149H763.253V42.2155H753.556V36.3149H755.264V37.9392ZM755.264 40.8066H761.534V39.2818H755.264V40.8066ZM775.887 31.4917V28.2707H777.622V35.8508H775.887V32.884H773.34C773.014 34.4751 771.561 35.547 769.711 35.547C767.55 35.547 765.976 34.1602 765.987 32.2044C765.976 30.2762 767.55 28.884 769.711 28.8895C771.545 28.884 772.987 29.9392 773.335 31.4917H775.887ZM769.711 34.0829C770.904 34.0829 771.755 33.3315 771.755 32.2044C771.755 31.0663 770.904 30.337 769.711 30.3425C768.495 30.337 767.639 31.0663 767.639 32.2044C767.639 33.3315 768.495 34.0829 769.711 34.0829ZM770.031 38H775.887V36.5028H777.622V42.2155H768.313V36.5028H770.031V38ZM770.031 40.8066H775.887V39.3536H770.031V40.8066ZM790.124 42.3812V28.2707H791.771V42.3812H790.124ZM785.417 33.6961H787.268V28.5359H788.898V41.7017H787.268V35.1271H785.417V33.6961ZM783.936 32.1381V32.5801C783.936 34.768 784.832 36.9669 786.809 38.0331L785.843 39.3094C784.522 38.6188 783.633 37.3757 783.13 35.8895C782.633 37.4917 781.743 38.8619 780.417 39.6409L779.406 38.3315C781.406 37.1713 782.285 34.8122 782.296 32.5801V32.1381H779.887V30.7348H782.296V28.768H783.931V30.7348H786.296V32.1381H783.936Z" fill="white"/>
<path d="M349 111L344 108.113V113.887L349 111ZM252 111.5H344.5V110.5H252V111.5Z" fill="#095CFE"/>
<path d="M669 214L664 211.113V216.887L669 214ZM560 214.5H561.009V213.5H560V214.5ZM563.028 214.5H565.046V213.5H563.028V214.5ZM567.065 214.5H569.083V213.5H567.065V214.5ZM571.102 214.5H573.12V213.5H571.102V214.5ZM575.139 214.5H577.157V213.5H575.139V214.5ZM579.176 214.5H581.194V213.5H579.176V214.5ZM583.213 214.5H585.231V213.5H583.213V214.5ZM587.25 214.5H589.269V213.5H587.25V214.5ZM591.287 214.5H593.306V213.5H591.287V214.5ZM595.324 214.5H597.343V213.5H595.324V214.5ZM599.361 214.5H601.38V213.5H599.361V214.5ZM603.398 214.5H605.417V213.5H603.398V214.5ZM607.435 214.5H609.454V213.5H607.435V214.5ZM611.472 214.5H613.491V213.5H611.472V214.5ZM615.509 214.5H617.528V213.5H615.509V214.5ZM619.546 214.5H621.565V213.5H619.546V214.5ZM623.583 214.5H625.602V213.5H623.583V214.5ZM627.62 214.5H629.639V213.5H627.62V214.5ZM631.657 214.5H633.676V213.5H631.657V214.5ZM635.694 214.5H637.713V213.5H635.694V214.5ZM639.731 214.5H641.75V213.5H639.731V214.5ZM643.768 214.5H645.787V213.5H643.768V214.5ZM647.806 214.5H649.824V213.5H647.806V214.5ZM651.843 214.5H653.861V213.5H651.843V214.5ZM655.88 214.5H657.898V213.5H655.88V214.5ZM659.917 214.5H661.935V213.5H659.917V214.5ZM663.954 214.5H665.972V213.5H663.954V214.5Z" fill="#877AC8"/>
<path d="M252 421L257 423.887V418.113L252 421ZM455 420.5H256.5V421.5H455V420.5Z" fill="#877AC8"/>
<path d="M259.124 414.142L252.15 420.661C251.95 420.848 251.95 421.152 252.15 421.339L259.124 427.858C259.447 428.161 260 427.947 260 427.519V414.481C260 414.053 259.447 413.839 259.124 414.142Z" fill="#877AC8"/>
<path d="M252 525L257 527.887V522.113L252 525ZM689.5 524.5H256.5V525.5H689.5V524.5Z" fill="#EF647D"/>
<path d="M669.5 681L664.5 678.113V683.887L669.5 681ZM665 680.5H252V681.5H665V680.5Z" fill="#095CFE"/>
<path d="M560 370L565 372.887V367.113L560 370ZM669 370L664 367.113V372.887L669 370ZM563.028 370.5H565.046V369.5H563.028V370.5ZM567.065 370.5H569.083V369.5H567.065V370.5ZM571.102 370.5H573.12V369.5H571.102V370.5ZM575.139 370.5H577.157V369.5H575.139V370.5ZM579.176 370.5H581.194V369.5H579.176V370.5ZM583.213 370.5H585.231V369.5H583.213V370.5ZM587.25 370.5H589.269V369.5H587.25V370.5ZM591.287 370.5H593.306V369.5H591.287V370.5ZM595.324 370.5H597.343V369.5H595.324V370.5ZM599.361 370.5H601.38V369.5H599.361V370.5ZM603.398 370.5H605.417V369.5H603.398V370.5ZM607.435 370.5H609.454V369.5H607.435V370.5ZM611.472 370.5H613.491V369.5H611.472V370.5ZM615.509 370.5H617.528V369.5H615.509V370.5ZM619.546 370.5H621.565V369.5H619.546V370.5ZM623.583 370.5H625.602V369.5H623.583V370.5ZM627.62 370.5H629.639V369.5H627.62V370.5ZM631.657 370.5H633.676V369.5H631.657V370.5ZM635.694 370.5H637.713V369.5H635.694V370.5ZM639.731 370.5H641.75V369.5H639.731V370.5ZM643.768 370.5H645.787V369.5H643.768V370.5ZM647.806 370.5H649.824V369.5H647.806V370.5ZM651.843 370.5H653.861V369.5H651.843V370.5ZM655.88 370.5H657.898V369.5H655.88V370.5ZM659.917 370.5H661.935V369.5H659.917V370.5ZM663.954 370.5H665.972V369.5H663.954V370.5Z" fill="url(#paint3_linear_933_7506)"/>
<path d="M560 266L565 268.887L565 263.113L560 266ZM765 266L765 266.5L765 266ZM774.5 234L774.5 235.1L775.5 235.1L775.5 234L774.5 234ZM774.5 237.3L774.5 239.5L775.5 239.5L775.5 237.3L774.5 237.3ZM774.5 241.7L774.5 243.9L775.5 243.9L775.5 241.7L774.5 241.7ZM774.5 246.1L774.5 248.3L775.5 248.3L775.5 246.1L774.5 246.1ZM774.5 250.5L774.5 252.7L775.5 252.7L775.5 250.5L774.5 250.5ZM774.5 254.9L774.5 256L775.5 256L775.5 254.9L774.5 254.9ZM774.5 256C774.5 256.315 774.485 256.626 774.455 256.932L775.45 257.029C775.483 256.69 775.5 256.347 775.5 256L774.5 256ZM774.093 258.759C773.911 259.359 773.672 259.935 773.38 260.479L774.262 260.951C774.584 260.35 774.849 259.713 775.05 259.049L774.093 258.759ZM772.344 262.027C771.949 262.508 771.508 262.949 771.027 263.344L771.661 264.117C772.193 263.68 772.68 263.193 773.117 262.661L772.344 262.027ZM769.479 264.38C768.935 264.672 768.359 264.911 767.759 265.093L768.049 266.05C768.713 265.849 769.35 265.584 769.951 265.262L769.479 264.38ZM765.932 265.455C765.626 265.485 765.315 265.5 765 265.5L765 266.5C765.347 266.5 765.69 266.483 766.029 266.45L765.932 265.455ZM765 265.5L763.995 265.5L763.995 266.5L765 266.5L765 265.5ZM761.985 265.5L759.975 265.5L759.975 266.5L761.985 266.5L761.985 265.5ZM757.966 265.5L755.956 265.5L755.956 266.5L757.966 266.5L757.966 265.5ZM753.946 265.5L751.936 265.5L751.936 266.5L753.946 266.5L753.946 265.5ZM749.926 265.5L747.917 265.5L747.917 266.5L749.926 266.5L749.926 265.5ZM745.907 265.5L743.897 265.5L743.897 266.5L745.907 266.5L745.907 265.5ZM741.887 265.5L739.877 265.5L739.877 266.5L741.887 266.5L741.887 265.5ZM737.868 265.5L735.858 265.5L735.858 266.5L737.868 266.5L737.868 265.5ZM733.848 265.5L731.838 265.5L731.838 266.5L733.848 266.5L733.848 265.5ZM729.828 265.5L727.819 265.5L727.819 266.5L729.828 266.5L729.828 265.5ZM725.809 265.5L723.799 265.5L723.799 266.5L725.809 266.5L725.809 265.5ZM721.789 265.5L719.779 265.5L719.779 266.5L721.789 266.5L721.789 265.5ZM717.77 265.5L715.76 265.5L715.76 266.5L717.77 266.5L717.77 265.5ZM713.75 265.5L711.74 265.5L711.74 266.5L713.75 266.5L713.75 265.5ZM709.73 265.5L707.721 265.5L707.721 266.5L709.73 266.5L709.73 265.5ZM705.711 265.5L703.701 265.5L703.701 266.5L705.711 266.5L705.711 265.5ZM701.691 265.5L699.681 265.5L699.681 266.5L701.691 266.5L701.691 265.5ZM697.672 265.5L695.662 265.5L695.662 266.5L697.672 266.5L697.672 265.5ZM693.652 265.5L691.642 265.5L691.642 266.5L693.652 266.5L693.652 265.5ZM689.632 265.5L687.623 265.5L687.623 266.5L689.632 266.5L689.632 265.5ZM685.613 265.5L683.603 265.5L683.603 266.5L685.613 266.5L685.613 265.5ZM681.593 265.5L679.583 265.5L679.583 266.5L681.593 266.5L681.593 265.5ZM677.574 265.5L675.564 265.5L675.564 266.5L677.574 266.5L677.574 265.5ZM673.554 265.5L671.544 265.5L671.544 266.5L673.554 266.5L673.554 265.5ZM669.534 265.5L667.525 265.5L667.525 266.5L669.534 266.5L669.534 265.5ZM665.515 265.5L663.505 265.5L663.505 266.5L665.515 266.5L665.515 265.5ZM661.495 265.5L659.485 265.5L659.485 266.5L661.495 266.5L661.495 265.5ZM657.475 265.5L655.466 265.5L655.466 266.5L657.475 266.5L657.475 265.5ZM653.456 265.5L651.446 265.5L651.446 266.5L653.456 266.5L653.456 265.5ZM649.436 265.5L647.426 265.5L647.426 266.5L649.436 266.5L649.436 265.5ZM645.417 265.5L643.407 265.5L643.407 266.5L645.417 266.5L645.417 265.5ZM641.397 265.5L639.387 265.5L639.387 266.5L641.397 266.5L641.397 265.5ZM637.377 265.5L635.368 265.5L635.368 266.5L637.377 266.5L637.377 265.5ZM633.358 265.5L631.348 265.5L631.348 266.5L633.358 266.5L633.358 265.5ZM629.338 265.5L627.328 265.5L627.328 266.5L629.338 266.5L629.338 265.5ZM625.319 265.5L623.309 265.5L623.309 266.5L625.319 266.5L625.319 265.5ZM621.299 265.5L619.289 265.5L619.289 266.5L621.299 266.5L621.299 265.5ZM617.279 265.5L615.27 265.5L615.27 266.5L617.279 266.5L617.279 265.5ZM613.26 265.5L611.25 265.5L611.25 266.5L613.26 266.5L613.26 265.5ZM609.24 265.5L607.23 265.5L607.23 266.5L609.24 266.5L609.24 265.5ZM605.221 265.5L603.211 265.5L603.211 266.5L605.221 266.5L605.221 265.5ZM601.201 265.5L599.191 265.5L599.191 266.5L601.201 266.5L601.201 265.5ZM597.182 265.5L595.172 265.5L595.172 266.5L597.182 266.5L597.182 265.5ZM593.162 265.5L591.152 265.5L591.152 266.5L593.162 266.5L593.162 265.5ZM589.142 265.5L587.133 265.5L587.133 266.5L589.142 266.5L589.142 265.5ZM585.123 265.5L583.113 265.5L583.113 266.5L585.123 266.5L585.123 265.5ZM581.103 265.5L579.093 265.5L579.093 266.5L581.103 266.5L581.103 265.5ZM577.084 265.5L575.074 265.5L575.074 266.5L577.084 266.5L577.084 265.5ZM573.064 265.5L571.054 265.5L571.054 266.5L573.064 266.5L573.064 265.5ZM569.044 265.5L567.035 265.5L567.035 266.5L569.044 266.5L569.044 265.5ZM565.025 265.5L563.015 265.5L563.015 266.5L565.025 266.5L565.025 265.5Z" fill="#EF647D"/>
<path d="M560 577L565 579.887L565 574.113L560 577ZM774 567L773.5 567L774 567ZM773.5 546L773.5 567L774.5 567L774.5 546L773.5 546ZM764 576.5L564.5 576.5L564.5 577.5L764 577.5L764 576.5ZM773.5 567C773.5 572.247 769.247 576.5 764 576.5L764 577.5C769.799 577.5 774.5 572.799 774.5 567L773.5 567Z" fill="#EF647D"/>
<path d="M615 224L612.113 229L617.887 229L615 224ZM614.5 226.864L614.5 228.773L615.5 228.773L615.5 226.864L614.5 226.864ZM614.5 230.682L614.5 232.591L615.5 232.591L615.5 230.682L614.5 230.682ZM614.5 234.5L614.5 236.409L615.5 236.409L615.5 234.5L614.5 234.5ZM614.5 238.318L614.5 240.227L615.5 240.227L615.5 238.318L614.5 238.318ZM614.5 242.136L614.5 244.045L615.5 244.045L615.5 242.136L614.5 242.136ZM614.5 245.955L614.5 247.864L615.5 247.864L615.5 245.955L614.5 245.955ZM614.5 249.773L614.5 251.682L615.5 251.682L615.5 249.773L614.5 249.773ZM614.5 253.591L614.5 255.5L615.5 255.5L615.5 253.591L614.5 253.591ZM614.5 257.409L614.5 259.318L615.5 259.318L615.5 257.409L614.5 257.409ZM614.5 261.227L614.5 263.136L615.5 263.136L615.5 261.227L614.5 261.227ZM614.5 265.045L614.5 266L615.5 266L615.5 265.045L614.5 265.045Z" fill="#565EA1"/>
<path d="M254 471.5C253.172 471.5 252.5 472.172 252.5 473C252.5 473.828 253.172 474.5 254 474.5V471.5ZM254 474.5H256.017V471.5H254V474.5ZM260.052 474.5H264.087V471.5H260.052V474.5ZM268.122 474.5H272.157V471.5H268.122V474.5ZM276.192 474.5H280.227V471.5H276.192V474.5ZM284.262 474.5H288.297V471.5H284.262V474.5ZM292.331 474.5H296.366V471.5H292.331V474.5ZM300.401 474.5H304.436V471.5H300.401V474.5ZM308.471 474.5H312.506V471.5H308.471V474.5ZM316.541 474.5H320.576V471.5H316.541V474.5ZM324.61 474.5H328.645V471.5H324.61V474.5ZM332.68 474.5H336.715V471.5H332.68V474.5ZM340.75 474.5H344.785V471.5H340.75V474.5ZM348.82 474.5H352.855V471.5H348.82V474.5ZM356.889 474.5H360.924V471.5H356.889V474.5ZM364.959 474.5H368.994V471.5H364.959V474.5ZM373.029 474.5H377.064V471.5H373.029V474.5ZM381.099 474.5H385.134V471.5H381.099V474.5ZM389.169 474.5H393.203V471.5H389.169V474.5ZM397.238 474.5H401.273V471.5H397.238V474.5ZM405.308 474.5H409.343V471.5H405.308V474.5ZM413.378 474.5H417.413V471.5H413.378V474.5ZM421.448 474.5H425.482V471.5H421.448V474.5ZM429.517 474.5H433.552V471.5H429.517V474.5ZM437.587 474.5H441.622V471.5H437.587V474.5ZM445.657 474.5H449.692V471.5H445.657V474.5ZM453.727 474.5H457.762V471.5H453.727V474.5ZM461.796 474.5H465.831V471.5H461.796V474.5ZM469.866 474.5H473.901V471.5H469.866V474.5ZM477.936 474.5H481.971V471.5H477.936V474.5ZM486.006 474.5H490.041V471.5H486.006V474.5ZM494.075 474.5H498.11V471.5H494.075V474.5ZM502.145 474.5H506.18V471.5H502.145V474.5ZM510.215 474.5H514.25V471.5H510.215V474.5ZM518.285 474.5H522.32V471.5H518.285V474.5ZM526.355 474.5H530.389V471.5H526.355V474.5ZM534.424 474.5H538.459V471.5H534.424V474.5ZM542.494 474.5H546.529V471.5H542.494V474.5ZM550.564 474.5H554.599V471.5H550.564V474.5ZM558.634 474.5H562.668V471.5H558.634V474.5ZM566.703 474.5H570.738V471.5H566.703V474.5ZM574.773 474.5H578.808V471.5H574.773V474.5ZM582.843 474.5H586.878V471.5H582.843V474.5ZM590.913 474.5H594.948V471.5H590.913V474.5ZM598.982 474.5H601V471.5H598.982V474.5ZM601 474.5C601.879 474.5 602.72 474.325 603.489 474.006L602.339 471.235C601.929 471.405 601.477 471.5 601 471.5V474.5ZM607.006 470.489C607.325 469.72 607.5 468.879 607.5 468H604.5C604.5 468.477 604.405 468.929 604.235 469.339L607.006 470.489ZM607.5 468V465.85H604.5V468H607.5ZM607.5 461.55V457.25H604.5V461.55H607.5ZM607.5 452.95V448.65H604.5V452.95H607.5ZM607.5 444.35V440.05H604.5V444.35H607.5ZM607.5 435.75V431.45H604.5V435.75H607.5ZM607.5 427.15V425H604.5V427.15H607.5ZM607.5 425C607.5 424.523 607.595 424.071 607.765 423.661L604.994 422.511C604.675 423.28 604.5 424.121 604.5 425H607.5ZM609.661 421.765C610.071 421.595 610.523 421.5 611 421.5V418.5C610.121 418.5 609.28 418.675 608.511 418.994L609.661 421.765ZM611 421.5H613.044V418.5H611V421.5ZM617.131 421.5H621.219V418.5H617.131V421.5ZM625.306 421.5H629.394V418.5H625.306V421.5ZM633.481 421.5H637.569V418.5H633.481V421.5ZM641.656 421.5H645.744V418.5H641.656V421.5ZM649.831 421.5H653.919V418.5H649.831V421.5ZM658.006 421.5H662.094V418.5H658.006V421.5ZM666.181 421.5H670.269V418.5H666.181V421.5ZM674.356 421.5H678.444V418.5H674.356V421.5ZM682.531 421.5H686.619V418.5H682.531V421.5ZM690.706 421.5H694.794V418.5H690.706V421.5ZM698.881 421.5H702.969V418.5H698.881V421.5ZM707.056 421.5H711.144V418.5H707.056V421.5ZM715.231 421.5H719.319V418.5H715.231V421.5ZM723.406 421.5H727.494V418.5H723.406V421.5ZM731.581 421.5H735.669V418.5H731.581V421.5ZM739.756 421.5H743.844V418.5H739.756V421.5ZM747.931 421.5H752.019V418.5H747.931V421.5ZM756.106 421.5H760.194V418.5H756.106V421.5ZM764.281 421.5H768.369V418.5H764.281V421.5ZM772.456 421.5H774.5V418.5H772.456V421.5Z" fill="#FF404E"/>
<g opacity="0.5">
<path d="M459.019 134.631L455.198 139.408C455.088 139.545 454.91 139.545 454.801 139.408L450.98 134.631C450.802 134.41 450.928 134.031 451.178 134.031L458.82 134.031C459.071 134.031 459.197 134.41 459.019 134.631Z" fill="#877AC8"/>
</g>
<g opacity="0.3">
<path d="M151.019 443.631L147.198 448.408C147.088 448.545 146.91 448.545 146.801 448.408L142.98 443.631C142.802 443.41 142.928 443.031 143.178 443.031L150.82 443.031C151.071 443.031 151.197 443.41 151.019 443.631Z" fill="#095CFE"/>
</g>
<g opacity="0.3">
<path d="M151.019 495.631L147.198 500.408C147.088 500.545 146.91 500.545 146.801 500.408L142.98 495.631C142.802 495.41 142.928 495.031 143.178 495.031L150.82 495.031C151.071 495.031 151.197 495.41 151.019 495.631Z" fill="#095CFE"/>
</g>
<g opacity="0.3">
<path d="M151.019 547.631L147.198 552.408C147.088 552.545 146.91 552.545 146.801 552.408L142.98 547.631C142.802 547.41 142.928 547.031 143.178 547.031L150.82 547.031C151.071 547.031 151.197 547.41 151.019 547.631Z" fill="#095CFE"/>
</g>
<g opacity="0.5">
<path d="M779.019 497.631L775.198 502.408C775.088 502.545 774.91 502.545 774.801 502.408L770.98 497.631C770.802 497.41 770.928 497.031 771.178 497.031L778.82 497.031C779.071 497.031 779.197 497.41 779.019 497.631Z" fill="#EF647D"/>
</g>
<g opacity="0.3">
<path d="M151.019 599.631L147.198 604.408C147.088 604.545 146.91 604.545 146.801 604.408L142.98 599.631C142.802 599.41 142.928 599.031 143.178 599.031L150.82 599.031C151.071 599.031 151.197 599.41 151.019 599.631Z" fill="#095CFE"/>
</g>
<g opacity="0.3">
<path d="M151.019 651.631L147.198 656.408C147.088 656.545 146.91 656.545 146.801 656.408L142.98 651.631C142.802 651.41 142.928 651.031 143.178 651.031L150.82 651.031C151.071 651.031 151.197 651.41 151.019 651.631Z" fill="#095CFE"/>
</g>
<g opacity="0.5">
<path d="M459.019 186.631L455.198 191.408C455.088 191.545 454.91 191.545 454.801 191.408L450.98 186.631C450.802 186.41 450.928 186.031 451.178 186.031L458.82 186.031C459.071 186.031 459.197 186.41 459.019 186.631Z" fill="#877AC8"/>
</g>
<g opacity="0.5">
<path d="M459.019 238.631L455.198 243.408C455.088 243.545 454.91 243.545 454.801 243.408L450.98 238.631C450.802 238.41 450.928 238.031 451.178 238.031L458.82 238.031C459.071 238.031 459.197 238.41 459.019 238.631Z" fill="#877AC8"/>
</g>
<g opacity="0.5">
<path d="M459.019 290.631L455.198 295.408C455.088 295.545 454.91 295.545 454.801 295.408L450.98 290.631C450.802 290.41 450.928 290.031 451.178 290.031L458.82 290.031C459.071 290.031 459.197 290.41 459.019 290.631Z" fill="#877AC8"/>
</g>
<g opacity="0.5">
<path d="M459.019 342.631L455.198 347.408C455.088 347.545 454.91 347.545 454.801 347.408L450.98 342.631C450.802 342.41 450.928 342.031 451.178 342.031L458.82 342.031C459.071 342.031 459.197 342.41 459.019 342.631Z" fill="#877AC8"/>
</g>
<g filter="url(#filter16_d_933_7506)">
<rect x="670" y="505" width="210" height="40" rx="20" fill="white" shape-rendering="crispEdges"/>
<path d="M757.907 521.229V517.782H759.642V525.727H757.907V522.66H755.189V521.229H757.907ZM755.123 518.627C755.117 522.268 752.719 524.815 748.609 525.97L747.913 524.61C751.073 523.749 752.951 522.086 753.261 520.025H748.67V518.627H755.123ZM759.642 531.699H750.349V526.301H759.642V531.699ZM757.918 527.671H752.051V530.329H757.918V527.671ZM772.702 523.307H774.879V524.782H772.702V531.881H770.962V517.771H772.702V523.307ZM766.686 518.903V521.163C766.675 523.677 767.94 526.229 770.122 527.285L769.067 528.677C767.531 527.903 766.437 526.412 765.835 524.616C765.211 526.533 764.056 528.13 762.443 528.942L761.371 527.539C763.647 526.467 764.94 523.765 764.951 521.163V518.903H766.686ZM785.403 525.141V528.749H788.381V530.174H775.47V528.749H778.453V525.174C777.326 524.528 776.646 523.517 776.652 522.262C776.646 520.014 778.851 518.528 781.895 518.522C784.939 518.528 787.16 520.014 787.16 522.262C787.16 523.494 786.497 524.489 785.403 525.141ZM781.895 519.909C779.779 519.903 778.354 520.793 778.354 522.262C778.354 523.71 779.779 524.633 781.895 524.633C783.994 524.633 785.453 523.71 785.453 522.262C785.453 520.793 783.994 519.903 781.895 519.909ZM780.171 525.809V528.749H783.646V525.809C783.105 525.925 782.519 525.986 781.895 525.986C781.282 525.986 780.707 525.925 780.171 525.809ZM793.535 523.185C792.922 524.566 791.751 525.66 790.071 526.163L789.248 524.804C791.458 524.141 792.64 522.483 792.64 520.776V520.704H789.684V519.323H792.64V517.71H794.392V519.323H797.32V520.704H794.37V520.776C794.37 522.329 795.58 523.854 797.806 524.445L796.983 525.793C795.359 525.356 794.187 524.406 793.535 523.185ZM796.9 523.047V521.644H799.392V517.771H801.126V526.312H799.392V523.047H796.9ZM796.347 526.588C799.331 526.594 801.165 527.539 801.165 529.213C801.165 530.898 799.331 531.876 796.347 531.87C793.37 531.876 791.535 530.898 791.541 529.213C791.535 527.539 793.37 526.594 796.347 526.588ZM796.347 530.533C798.342 530.533 799.436 530.058 799.441 529.213C799.436 528.378 798.342 527.931 796.347 527.925C794.381 527.931 793.259 528.378 793.27 529.213C793.259 530.058 794.381 530.533 796.347 530.533Z" fill="#EF647D"/>
</g>
<g filter="url(#filter17_d_933_7506)">
<rect x="670" y="453" width="210" height="40" rx="20" fill="white" shape-rendering="crispEdges"/>
<path d="M772.774 465.782V468.754H774.769V470.191H772.774V473.18H771.039V465.782H772.774ZM769.78 470.633L769.99 472.058C767.641 472.5 765.465 472.649 763.426 472.649H762.249V466.401H763.995V471.207C765.802 471.191 767.719 471.058 769.78 470.633ZM765.327 475.423H771.039V473.848H772.785V479.715H763.603V473.848H765.327V475.423ZM765.327 478.312H771.039V476.804H765.327V478.312ZM776.702 470.003H778.569V467.588H776.624V466.185H787.155V467.588H785.21V470.003H787.077V471.406H776.702V470.003ZM780.298 470.003H783.47V467.588H780.298V470.003ZM788.337 472.456V473.837H782.757V475.202H786.779V479.715H776.989V475.202H781.028V473.837H775.47V472.456H788.337ZM778.702 478.312H785.088V476.555H778.702V478.312Z" fill="#EF647D"/>
</g>
<path d="M455 557L457.887 552H452.113L455 557ZM454.5 402V552.5H455.5V402H454.5Z" fill="#877AC8"/>
<path d="M775 452L777.887 447H772.113L775 452ZM774.5 392V393H775.5V392H774.5ZM774.5 395V397H775.5V395H774.5ZM774.5 399V401H775.5V399H774.5ZM774.5 403V405H775.5V403H774.5ZM774.5 407V409H775.5V407H774.5ZM774.5 411V413H775.5V411H774.5ZM774.5 415V417H775.5V415H774.5ZM774.5 419V421H775.5V419H774.5ZM774.5 423V425H775.5V423H774.5ZM774.5 427V429H775.5V427H774.5ZM774.5 431V433H775.5V431H774.5ZM774.5 435V437H775.5V435H774.5ZM774.5 439V441H775.5V439H774.5ZM774.5 443V445H775.5V443H774.5ZM774.5 447V449H775.5V447H774.5Z" fill="#EF647D"/>
<rect x="594" y="238" width="42" height="22" rx="11" fill="#565EA1"/>
<path d="M609.584 249.134C607.142 249.138 605.463 248.164 605.468 246.629C605.463 245.067 607.142 244.066 609.584 244.066C612.031 244.066 613.719 245.067 613.719 246.629C613.719 248.164 612.031 249.138 609.584 249.134ZM609.584 245.202C607.964 245.202 606.913 245.727 606.922 246.629C606.913 247.504 607.964 248.016 609.584 248.016C611.214 248.016 612.26 247.504 612.264 246.629C612.26 245.727 611.214 245.202 609.584 245.202ZM604.368 250.086H614.859V251.23H612.3V255.122H610.873V251.23H608.323V255.122H606.877V251.23H604.368V250.086ZM619.06 247.567C618.544 248.573 617.547 249.34 616.147 249.677L615.536 248.586C617.336 248.16 618.333 247.056 618.333 245.848V245.839H615.931V244.717H618.333V243.622H619.756V244.717H622.135V245.839H619.738V245.848C619.738 246.957 620.712 248.003 622.489 248.384L621.883 249.462C620.537 249.161 619.576 248.465 619.06 247.567ZM624.671 243.657V246.05H626.274V247.213H624.671V249.65H623.253V243.657H624.671ZM624.671 253.071H618.571V253.933H625.03V255.028H617.179V252.038H623.262V251.239H617.161V250.148H624.671V253.071Z" fill="white"/>
<rect x="580" y="202" width="70" height="22" rx="11" fill="#877AC8"/>
<path d="M598.053 218H596.203L594.399 214.629H592.684V218H591.037V208.807H594.475C596.589 208.807 597.716 209.992 597.716 211.747C597.716 212.995 597.146 213.92 596.06 214.355L598.053 218ZM594.224 210.189H592.684V213.255H594.233C595.472 213.255 596.028 212.725 596.028 211.747C596.028 210.768 595.472 210.189 594.224 210.189ZM600.796 218H599.149V208.807H605.029V210.198H600.796V212.703H604.625V214.09H600.796V218ZM614.637 213.403C614.637 215.069 614.067 216.353 613.142 217.156L614.413 218.795H612.801L612.043 217.825C611.544 218.022 611.001 218.126 610.418 218.126C607.998 218.126 606.198 216.366 606.198 213.403C606.198 210.432 607.998 208.681 610.418 208.681C612.824 208.681 614.637 210.432 614.637 213.403ZM607.859 213.403C607.859 215.504 608.914 216.64 610.418 216.64C610.656 216.64 610.885 216.613 611.1 216.555L609.848 214.916H611.351L612.141 215.94C612.662 215.396 612.972 214.539 612.972 213.403C612.972 211.302 611.917 210.167 610.418 210.167C608.914 210.167 607.859 211.302 607.859 213.403ZM624.899 211.846V210.705H626.933V207.666H628.343V216.052H626.933V211.846H624.899ZM622.251 212.07C621.744 213.273 620.792 214.243 619.432 214.71L618.705 213.565C620.532 212.968 621.51 211.469 621.51 209.942V209.633H619.118V208.492H625.321V209.633H622.947V209.951C622.947 211.329 623.872 212.757 625.645 213.345L624.94 214.463C623.656 214.032 622.749 213.152 622.251 212.07ZM622.224 215.311V217.762H628.63V218.907H620.815V215.311H622.224ZM635.17 210.005C634.438 211.208 632.934 212.061 631.049 212.357L630.533 211.244C632.903 210.943 634.46 209.646 634.46 208.277V207.842H635.897V208.277C635.897 209.677 637.437 210.943 639.834 211.244L639.286 212.357C637.401 212.061 635.901 211.213 635.17 210.005ZM635.883 211.698V213.206H640.422V214.337H629.967V213.206H634.483V211.698H635.883ZM635.179 215.073C637.67 215.073 639.151 215.809 639.156 217.102C639.151 218.395 637.67 219.118 635.179 219.113C632.678 219.118 631.184 218.395 631.184 217.102C631.184 215.809 632.678 215.073 635.179 215.073ZM635.179 218.049C636.84 218.054 637.737 217.726 637.746 217.102C637.737 216.469 636.84 216.16 635.179 216.16C633.495 216.16 632.611 216.469 632.62 217.102C632.611 217.726 633.495 218.054 635.179 218.049Z" fill="white"/>
<rect x="665" y="255" width="70" height="22" rx="11" fill="#EF647D"/>
<path d="M686.612 264.065H684C683.187 265.833 681.495 267.153 679.174 267.867L678.577 266.758C681.1 265.95 682.734 264.491 682.999 262.673H679.178V261.537H684.538C684.538 262.022 684.484 262.489 684.381 262.933H686.612V260.666H688.013V269.151H686.612V266.641H683.838V265.497H686.612V264.065ZM681.984 268.307V270.762H688.313V271.907H680.543V268.307H681.984ZM697.848 263.494V260.657H699.257V267.499H697.848V264.653H695.899V263.494H697.848ZM693.166 264.747C692.658 265.945 691.707 266.911 690.346 267.368L689.619 266.255C691.446 265.649 692.425 264.127 692.425 262.637V262.48H690.032V261.349H696.236V262.48H693.861V262.624C693.861 264.024 694.786 265.429 696.559 266.026L695.854 267.122C694.575 266.7 693.664 265.829 693.166 264.747ZM697.848 269.177H691.433V268.042H699.257V272.122H697.848V269.177ZM707.049 264.846V263.705H709.083V260.666H710.492V269.052H709.083V264.846H707.049ZM704.401 265.07C703.894 266.273 702.942 267.243 701.582 267.71L700.855 266.565C702.682 265.968 703.66 264.469 703.66 262.942V262.633H701.268V261.492H707.471V262.633H705.097V262.951C705.097 264.329 706.021 265.757 707.795 266.345L707.09 267.463C705.806 267.032 704.899 266.152 704.401 265.07ZM704.374 268.311V270.762H710.78V271.907H702.964V268.311H704.374ZM717.32 263.005C716.588 264.208 715.084 265.061 713.199 265.357L712.683 264.244C715.053 263.943 716.61 262.646 716.61 261.277V260.842H718.047V261.277C718.047 262.677 719.587 263.943 721.984 264.244L721.436 265.357C719.551 265.061 718.051 264.213 717.32 263.005ZM718.033 264.698V266.206H722.572V267.337H712.117V266.206H716.633V264.698H718.033ZM717.329 268.073C719.82 268.073 721.301 268.809 721.306 270.102C721.301 271.395 719.82 272.118 717.329 272.113C714.828 272.118 713.333 271.395 713.333 270.102C713.333 268.809 714.828 268.073 717.329 268.073ZM717.329 271.049C718.989 271.054 719.887 270.726 719.896 270.102C719.887 269.469 718.989 269.16 717.329 269.16C715.645 269.16 714.761 269.469 714.77 270.102C714.761 270.726 715.645 271.054 717.329 271.049Z" fill="white"/>
<g filter="url(#filter18_d_933_7506)">
<rect x="40" y="607" width="520" height="40" rx="20" fill="white" shape-rendering="crispEdges"/>
<path d="M280.366 624.837V623.627H283.051V619.837H284.532V630.091H283.051V624.837H280.366ZM277.145 625.003C276.526 626.544 275.305 627.782 273.637 628.378L272.869 627.169C275.023 626.445 276.366 624.599 276.366 622.671V622.119H273.327V620.909H280.885V622.119H277.869V622.671C277.869 624.417 279.134 626.169 281.244 626.876L280.487 628.058C278.907 627.511 277.753 626.384 277.145 625.003ZM276.924 629.18V632.323H284.902V633.539H275.443V629.18H276.924ZM295.984 627.848V630.959H299.503V632.169H286.691V630.959H290.128V627.848H287.813V626.633H289.901V622.279H287.78V621.069H298.332V622.279H296.188V626.633H298.288V627.848H295.984ZM294.73 622.279H291.376V626.633H294.73V622.279ZM294.498 627.848H291.614V630.959H294.498V627.848ZM311.519 619.826V622.76H313.547V623.975H311.519V627.03H310.033V619.826H311.519ZM306.188 620.428H307.657V626.528H301.055V620.428H302.519V622.323H306.188V620.428ZM302.519 625.345H306.188V623.467H302.519V625.345ZM311.519 631.169H303.956V632.5H311.994V633.693H302.497V630.069H310.044V628.809H302.464V627.638H311.519V631.169ZM324.872 624.749H323.248V628.174H321.861V620.097H323.248V623.528H324.872V619.826H326.276V628.66H324.872V624.749ZM318.557 621.428H321.347V622.599H314.27V621.428H317.088V619.936H318.557V621.428ZM320.85 625.666C320.839 627.113 319.602 628.058 317.817 628.058C316.06 628.058 314.812 627.113 314.817 625.666C314.812 624.202 316.06 623.251 317.817 623.251C319.602 623.251 320.839 624.202 320.85 625.666ZM316.138 625.666C316.138 626.456 316.823 626.981 317.817 626.975C318.823 626.981 319.502 626.456 319.508 625.666C319.502 624.859 318.823 624.34 317.817 624.34C316.823 624.34 316.138 624.859 316.138 625.666ZM321.602 628.865C324.568 628.865 326.353 629.76 326.353 631.345C326.353 632.909 324.568 633.804 321.602 633.804C318.629 633.804 316.839 632.909 316.85 631.345C316.839 629.76 318.629 628.865 321.602 628.865ZM321.602 632.66C323.684 632.671 324.867 632.191 324.872 631.345C324.867 630.461 323.684 629.992 321.602 630.003C319.513 629.992 318.314 630.461 318.325 631.345C318.314 632.191 319.513 632.671 321.602 632.66Z" fill="#3617CE"/>
</g>
<path d="M567.124 570.142L560.15 576.661C559.95 576.848 559.95 577.152 560.15 577.339L567.124 583.858C567.447 584.161 568 583.947 568 583.519V570.481C568 570.053 567.447 569.839 567.124 570.142Z" fill="#EF647D"/>
<path d="M768.142 444.876L774.661 451.85C774.848 452.05 775.152 452.05 775.339 451.85L781.858 444.876C782.161 444.553 781.947 444 781.519 444L768.481 444C768.053 444 767.839 444.553 768.142 444.876Z" fill="#EF647D"/>
<path d="M567.124 259.142L560.15 265.661C559.95 265.848 559.95 266.152 560.15 266.339L567.124 272.858C567.447 273.161 568 272.947 568 272.519V259.481C568 259.053 567.447 258.839 567.124 259.142Z" fill="#EF647D"/>
<path d="M567.124 363.142L560.15 369.661C559.95 369.848 559.95 370.152 560.15 370.339L567.124 376.858C567.447 377.161 568 376.947 568 376.519V363.481C568 363.053 567.447 362.839 567.124 363.142Z" fill="#877AC8"/>
<path d="M621.858 231.124L615.339 224.15C615.152 223.95 614.848 223.95 614.661 224.15L608.142 231.124C607.839 231.447 608.053 232 608.481 232L621.519 232C621.947 232 622.161 231.447 621.858 231.124Z" fill="#565EA1"/>
<path d="M661.876 220.858L668.85 214.339C669.05 214.152 669.05 213.848 668.85 213.661L661.876 207.142C661.553 206.839 661 207.053 661 207.481L661 220.519C661 220.947 661.553 221.161 661.876 220.858Z" fill="#877AC8"/>
<path d="M661.876 363.142L668.85 369.661C669.05 369.848 669.05 370.152 668.85 370.339L661.876 376.858C661.553 377.161 661 376.947 661 376.519V363.481C661 363.053 661.553 362.839 661.876 363.142Z" fill="#EF647D"/>
<path d="M662.876 687.858L669.85 681.339C670.05 681.152 670.05 680.848 669.85 680.661L662.876 674.142C662.553 673.839 662 674.053 662 674.481L662 687.519C662 687.947 662.553 688.161 662.876 687.858Z" fill="#095CFE"/>
<path d="M342.876 117.858L349.85 111.339C350.05 111.152 350.05 110.848 349.85 110.661L342.876 104.142C342.553 103.839 342 104.053 342 104.481L342 117.519C342 117.947 342.553 118.161 342.876 117.858Z" fill="#095CFE"/>
<path d="M259.124 518.142L252.15 524.661C251.95 524.848 251.95 525.152 252.15 525.339L259.124 531.858C259.447 532.161 260 531.947 260 531.519V518.481C260 518.053 259.447 517.839 259.124 518.142Z" fill="#EF647D"/>
<path d="M448.142 549.876L454.661 556.85C454.848 557.05 455.152 557.05 455.339 556.85L461.858 549.876C462.161 549.553 461.947 549 461.519 549L448.481 549C448.053 549 447.839 549.553 448.142 549.876Z" fill="#877AC8"/>
<path d="M259.124 466.142L252.15 472.661C251.95 472.848 251.95 473.152 252.15 473.339L259.124 479.858C259.447 480.161 260 479.947 260 479.519V466.481C260 466.053 259.447 465.839 259.124 466.142Z" fill="#FF404E"/>
<circle cx="775" cy="420" r="4" fill="#FF404E"/>
<defs>
<filter id="filter0_d_933_7506" x="340" y="84" width="230" height="60" filterUnits="userSpaceOnUse" color-interpolation-filters="sRGB">
<feFlood flood-opacity="0" result="BackgroundImageFix"/>
<feColorMatrix in="SourceAlpha" type="matrix" values="0 0 0 0 0 0 0 0 0 0 0 0 0 0 0 0 0 0 127 0" result="hardAlpha"/>
<feOffset dy="4"/>
<feGaussianBlur stdDeviation="5"/>
<feComposite in2="hardAlpha" operator="out"/>
<feColorMatrix type="matrix" values="0 0 0 0 0 0 0 0 0 0 0 0 0 0 0 0 0 0 0.1 0"/>
<feBlend mode="normal" in2="BackgroundImageFix" result="effect1_dropShadow_933_7506"/>
<feBlend mode="normal" in="SourceGraphic" in2="effect1_dropShadow_933_7506" result="shape"/>
</filter>
<filter id="filter1_d_933_7506" x="32" y="84" width="230" height="60" filterUnits="userSpaceOnUse" color-interpolation-filters="sRGB">
<feFlood flood-opacity="0" result="BackgroundImageFix"/>
<feColorMatrix in="SourceAlpha" type="matrix" values="0 0 0 0 0 0 0 0 0 0 0 0 0 0 0 0 0 0 127 0" result="hardAlpha"/>
<feOffset dy="4"/>
<feGaussianBlur stdDeviation="5"/>
<feComposite in2="hardAlpha" operator="out"/>
<feColorMatrix type="matrix" values="0 0 0 0 0 0 0 0 0 0 0 0 0 0 0 0 0 0 0.1 0"/>
<feBlend mode="normal" in2="BackgroundImageFix" result="effect1_dropShadow_933_7506"/>
<feBlend mode="normal" in="SourceGraphic" in2="effect1_dropShadow_933_7506" result="shape"/>
</filter>
<filter id="filter2_d_933_7506" x="32" y="393" width="230" height="60" filterUnits="userSpaceOnUse" color-interpolation-filters="sRGB">
<feFlood flood-opacity="0" result="BackgroundImageFix"/>
<feColorMatrix in="SourceAlpha" type="matrix" values="0 0 0 0 0 0 0 0 0 0 0 0 0 0 0 0 0 0 127 0" result="hardAlpha"/>
<feOffset dy="4"/>
<feGaussianBlur stdDeviation="5"/>
<feComposite in2="hardAlpha" operator="out"/>
<feColorMatrix type="matrix" values="0 0 0 0 0 0 0 0 0 0 0 0 0 0 0 0 0 0 0.1 0"/>
<feBlend mode="normal" in2="BackgroundImageFix" result="effect1_dropShadow_933_7506"/>
<feBlend mode="normal" in="SourceGraphic" in2="effect1_dropShadow_933_7506" result="shape"/>
</filter>
<filter id="filter3_d_933_7506" x="32" y="549" width="230" height="60" filterUnits="userSpaceOnUse" color-interpolation-filters="sRGB">
<feFlood flood-opacity="0" result="BackgroundImageFix"/>
<feColorMatrix in="SourceAlpha" type="matrix" values="0 0 0 0 0 0 0 0 0 0 0 0 0 0 0 0 0 0 127 0" result="hardAlpha"/>
<feOffset dy="4"/>
<feGaussianBlur stdDeviation="5"/>
<feComposite in2="hardAlpha" operator="out"/>
<feColorMatrix type="matrix" values="0 0 0 0 0 0 0 0 0 0 0 0 0 0 0 0 0 0 0.1 0"/>
<feBlend mode="normal" in2="BackgroundImageFix" result="effect1_dropShadow_933_7506"/>
<feBlend mode="normal" in="SourceGraphic" in2="effect1_dropShadow_933_7506" result="shape"/>
</filter>
<filter id="filter4_d_933_7506" x="340" y="551" width="230" height="60" filterUnits="userSpaceOnUse" color-interpolation-filters="sRGB">
<feFlood flood-opacity="0" result="BackgroundImageFix"/>
<feColorMatrix in="SourceAlpha" type="matrix" values="0 0 0 0 0 0 0 0 0 0 0 0 0 0 0 0 0 0 127 0" result="hardAlpha"/>
<feOffset dy="4"/>
<feGaussianBlur stdDeviation="5"/>
<feComposite in2="hardAlpha" operator="out"/>
<feColorMatrix type="matrix" values="0 0 0 0 0 0 0 0 0 0 0 0 0 0 0 0 0 0 0.1 0"/>
<feBlend mode="normal" in2="BackgroundImageFix" result="effect1_dropShadow_933_7506"/>
<feBlend mode="normal" in="SourceGraphic" in2="effect1_dropShadow_933_7506" result="shape"/>
</filter>
<filter id="filter5_d_933_7506" x="32" y="653" width="230" height="60" filterUnits="userSpaceOnUse" color-interpolation-filters="sRGB">
<feFlood flood-opacity="0" result="BackgroundImageFix"/>
<feColorMatrix in="SourceAlpha" type="matrix" values="0 0 0 0 0 0 0 0 0 0 0 0 0 0 0 0 0 0 127 0" result="hardAlpha"/>
<feOffset dy="4"/>
<feGaussianBlur stdDeviation="5"/>
<feComposite in2="hardAlpha" operator="out"/>
<feColorMatrix type="matrix" values="0 0 0 0 0 0 0 0 0 0 0 0 0 0 0 0 0 0 0.1 0"/>
<feBlend mode="normal" in2="BackgroundImageFix" result="effect1_dropShadow_933_7506"/>
<feBlend mode="normal" in="SourceGraphic" in2="effect1_dropShadow_933_7506" result="shape"/>
</filter>
<filter id="filter6_d_933_7506" x="32" y="445" width="230" height="60" filterUnits="userSpaceOnUse" color-interpolation-filters="sRGB">
<feFlood flood-opacity="0" result="BackgroundImageFix"/>
<feColorMatrix in="SourceAlpha" type="matrix" values="0 0 0 0 0 0 0 0 0 0 0 0 0 0 0 0 0 0 127 0" result="hardAlpha"/>
<feOffset dy="4"/>
<feGaussianBlur stdDeviation="5"/>
<feComposite in2="hardAlpha" operator="out"/>
<feColorMatrix type="matrix" values="0 0 0 0 0 0 0 0 0 0 0 0 0 0 0 0 0 0 0.1 0"/>
<feBlend mode="normal" in2="BackgroundImageFix" result="effect1_dropShadow_933_7506"/>
<feBlend mode="normal" in="SourceGraphic" in2="effect1_dropShadow_933_7506" result="shape"/>
</filter>
<filter id="filter7_d_933_7506" x="32" y="497" width="230" height="60" filterUnits="userSpaceOnUse" color-interpolation-filters="sRGB">
<feFlood flood-opacity="0" result="BackgroundImageFix"/>
<feColorMatrix in="SourceAlpha" type="matrix" values="0 0 0 0 0 0 0 0 0 0 0 0 0 0 0 0 0 0 127 0" result="hardAlpha"/>
<feOffset dy="4"/>
<feGaussianBlur stdDeviation="5"/>
<feComposite in2="hardAlpha" operator="out"/>
<feColorMatrix type="matrix" values="0 0 0 0 0 0 0 0 0 0 0 0 0 0 0 0 0 0 0.1 0"/>
<feBlend mode="normal" in2="BackgroundImageFix" result="effect1_dropShadow_933_7506"/>
<feBlend mode="normal" in="SourceGraphic" in2="effect1_dropShadow_933_7506" result="shape"/>
</filter>
<filter id="filter8_d_933_7506" x="340" y="136" width="230" height="60" filterUnits="userSpaceOnUse" color-interpolation-filters="sRGB">
<feFlood flood-opacity="0" result="BackgroundImageFix"/>
<feColorMatrix in="SourceAlpha" type="matrix" values="0 0 0 0 0 0 0 0 0 0 0 0 0 0 0 0 0 0 127 0" result="hardAlpha"/>
<feOffset dy="4"/>
<feGaussianBlur stdDeviation="5"/>
<feComposite in2="hardAlpha" operator="out"/>
<feColorMatrix type="matrix" values="0 0 0 0 0 0 0 0 0 0 0 0 0 0 0 0 0 0 0.1 0"/>
<feBlend mode="normal" in2="BackgroundImageFix" result="effect1_dropShadow_933_7506"/>
<feBlend mode="normal" in="SourceGraphic" in2="effect1_dropShadow_933_7506" result="shape"/>
</filter>
<filter id="filter9_d_933_7506" x="340" y="188" width="230" height="60" filterUnits="userSpaceOnUse" color-interpolation-filters="sRGB">
<feFlood flood-opacity="0" result="BackgroundImageFix"/>
<feColorMatrix in="SourceAlpha" type="matrix" values="0 0 0 0 0 0 0 0 0 0 0 0 0 0 0 0 0 0 127 0" result="hardAlpha"/>
<feOffset dy="4"/>
<feGaussianBlur stdDeviation="5"/>
<feComposite in2="hardAlpha" operator="out"/>
<feColorMatrix type="matrix" values="0 0 0 0 0 0 0 0 0 0 0 0 0 0 0 0 0 0 0.1 0"/>
<feBlend mode="normal" in2="BackgroundImageFix" result="effect1_dropShadow_933_7506"/>
<feBlend mode="normal" in="SourceGraphic" in2="effect1_dropShadow_933_7506" result="shape"/>
</filter>
<filter id="filter10_d_933_7506" x="660" y="188" width="230" height="60" filterUnits="userSpaceOnUse" color-interpolation-filters="sRGB">
<feFlood flood-opacity="0" result="BackgroundImageFix"/>
<feColorMatrix in="SourceAlpha" type="matrix" values="0 0 0 0 0 0 0 0 0 0 0 0 0 0 0 0 0 0 127 0" result="hardAlpha"/>
<feOffset dy="4"/>
<feGaussianBlur stdDeviation="5"/>
<feComposite in2="hardAlpha" operator="out"/>
<feColorMatrix type="matrix" values="0 0 0 0 0 0 0 0 0 0 0 0 0 0 0 0 0 0 0.1 0"/>
<feBlend mode="normal" in2="BackgroundImageFix" result="effect1_dropShadow_933_7506"/>
<feBlend mode="normal" in="SourceGraphic" in2="effect1_dropShadow_933_7506" result="shape"/>
</filter>
<filter id="filter11_d_933_7506" x="340" y="240" width="230" height="60" filterUnits="userSpaceOnUse" color-interpolation-filters="sRGB">
<feFlood flood-opacity="0" result="BackgroundImageFix"/>
<feColorMatrix in="SourceAlpha" type="matrix" values="0 0 0 0 0 0 0 0 0 0 0 0 0 0 0 0 0 0 127 0" result="hardAlpha"/>
<feOffset dy="4"/>
<feGaussianBlur stdDeviation="5"/>
<feComposite in2="hardAlpha" operator="out"/>
<feColorMatrix type="matrix" values="0 0 0 0 0 0 0 0 0 0 0 0 0 0 0 0 0 0 0.1 0"/>
<feBlend mode="normal" in2="BackgroundImageFix" result="effect1_dropShadow_933_7506"/>
<feBlend mode="normal" in="SourceGraphic" in2="effect1_dropShadow_933_7506" result="shape"/>
</filter>
<filter id="filter12_d_933_7506" x="340" y="292" width="230" height="60" filterUnits="userSpaceOnUse" color-interpolation-filters="sRGB">
<feFlood flood-opacity="0" result="BackgroundImageFix"/>
<feColorMatrix in="SourceAlpha" type="matrix" values="0 0 0 0 0 0 0 0 0 0 0 0 0 0 0 0 0 0 127 0" result="hardAlpha"/>
<feOffset dy="4"/>
<feGaussianBlur stdDeviation="5"/>
<feComposite in2="hardAlpha" operator="out"/>
<feColorMatrix type="matrix" values="0 0 0 0 0 0 0 0 0 0 0 0 0 0 0 0 0 0 0.1 0"/>
<feBlend mode="normal" in2="BackgroundImageFix" result="effect1_dropShadow_933_7506"/>
<feBlend mode="normal" in="SourceGraphic" in2="effect1_dropShadow_933_7506" result="shape"/>
</filter>
<filter id="filter13_d_933_7506" x="340" y="344" width="230" height="60" filterUnits="userSpaceOnUse" color-interpolation-filters="sRGB">
<feFlood flood-opacity="0" result="BackgroundImageFix"/>
<feColorMatrix in="SourceAlpha" type="matrix" values="0 0 0 0 0 0 0 0 0 0 0 0 0 0 0 0 0 0 127 0" result="hardAlpha"/>
<feOffset dy="4"/>
<feGaussianBlur stdDeviation="5"/>
<feComposite in2="hardAlpha" operator="out"/>
<feColorMatrix type="matrix" values="0 0 0 0 0 0 0 0 0 0 0 0 0 0 0 0 0 0 0.1 0"/>
<feBlend mode="normal" in2="BackgroundImageFix" result="effect1_dropShadow_933_7506"/>
<feBlend mode="normal" in="SourceGraphic" in2="effect1_dropShadow_933_7506" result="shape"/>
</filter>
<filter id="filter14_d_933_7506" x="660" y="344" width="230" height="60" filterUnits="userSpaceOnUse" color-interpolation-filters="sRGB">
<feFlood flood-opacity="0" result="BackgroundImageFix"/>
<feColorMatrix in="SourceAlpha" type="matrix" values="0 0 0 0 0 0 0 0 0 0 0 0 0 0 0 0 0 0 127 0" result="hardAlpha"/>
<feOffset dy="4"/>
<feGaussianBlur stdDeviation="5"/>
<feComposite in2="hardAlpha" operator="out"/>
<feColorMatrix type="matrix" values="0 0 0 0 0 0 0 0 0 0 0 0 0 0 0 0 0 0 0.1 0"/>
<feBlend mode="normal" in2="BackgroundImageFix" result="effect1_dropShadow_933_7506"/>
<feBlend mode="normal" in="SourceGraphic" in2="effect1_dropShadow_933_7506" result="shape"/>
</filter>
<filter id="filter15_d_933_7506" x="660" y="655" width="230" height="60" filterUnits="userSpaceOnUse" color-interpolation-filters="sRGB">
<feFlood flood-opacity="0" result="BackgroundImageFix"/>
<feColorMatrix in="SourceAlpha" type="matrix" values="0 0 0 0 0 0 0 0 0 0 0 0 0 0 0 0 0 0 127 0" result="hardAlpha"/>
<feOffset dy="4"/>
<feGaussianBlur stdDeviation="5"/>
<feComposite in2="hardAlpha" operator="out"/>
<feColorMatrix type="matrix" values="0 0 0 0 0 0 0 0 0 0 0 0 0 0 0 0 0 0 0.1 0"/>
<feBlend mode="normal" in2="BackgroundImageFix" result="effect1_dropShadow_933_7506"/>
<feBlend mode="normal" in="SourceGraphic" in2="effect1_dropShadow_933_7506" result="shape"/>
</filter>
<filter id="filter16_d_933_7506" x="660" y="499" width="230" height="60" filterUnits="userSpaceOnUse" color-interpolation-filters="sRGB">
<feFlood flood-opacity="0" result="BackgroundImageFix"/>
<feColorMatrix in="SourceAlpha" type="matrix" values="0 0 0 0 0 0 0 0 0 0 0 0 0 0 0 0 0 0 127 0" result="hardAlpha"/>
<feOffset dy="4"/>
<feGaussianBlur stdDeviation="5"/>
<feComposite in2="hardAlpha" operator="out"/>
<feColorMatrix type="matrix" values="0 0 0 0 0 0 0 0 0 0 0 0 0 0 0 0 0 0 0.1 0"/>
<feBlend mode="normal" in2="BackgroundImageFix" result="effect1_dropShadow_933_7506"/>
<feBlend mode="normal" in="SourceGraphic" in2="effect1_dropShadow_933_7506" result="shape"/>
</filter>
<filter id="filter17_d_933_7506" x="660" y="447" width="230" height="60" filterUnits="userSpaceOnUse" color-interpolation-filters="sRGB">
<feFlood flood-opacity="0" result="BackgroundImageFix"/>
<feColorMatrix in="SourceAlpha" type="matrix" values="0 0 0 0 0 0 0 0 0 0 0 0 0 0 0 0 0 0 127 0" result="hardAlpha"/>
<feOffset dy="4"/>
<feGaussianBlur stdDeviation="5"/>
<feComposite in2="hardAlpha" operator="out"/>
<feColorMatrix type="matrix" values="0 0 0 0 0 0 0 0 0 0 0 0 0 0 0 0 0 0 0.1 0"/>
<feBlend mode="normal" in2="BackgroundImageFix" result="effect1_dropShadow_933_7506"/>
<feBlend mode="normal" in="SourceGraphic" in2="effect1_dropShadow_933_7506" result="shape"/>
</filter>
<filter id="filter18_d_933_7506" x="30" y="601" width="540" height="60" filterUnits="userSpaceOnUse" color-interpolation-filters="sRGB">
<feFlood flood-opacity="0" result="BackgroundImageFix"/>
<feColorMatrix in="SourceAlpha" type="matrix" values="0 0 0 0 0 0 0 0 0 0 0 0 0 0 0 0 0 0 127 0" result="hardAlpha"/>
<feOffset dy="4"/>
<feGaussianBlur stdDeviation="5"/>
<feComposite in2="hardAlpha" operator="out"/>
<feColorMatrix type="matrix" values="0 0 0 0 0 0 0 0 0 0 0 0 0 0 0 0 0 0 0.1 0"/>
<feBlend mode="normal" in2="BackgroundImageFix" result="effect1_dropShadow_933_7506"/>
<feBlend mode="normal" in="SourceGraphic" in2="effect1_dropShadow_933_7506" result="shape"/>
</filter>
<linearGradient id="paint0_linear_933_7506" x1="265" y1="53.5" x2="25" y2="10" gradientUnits="userSpaceOnUse">
<stop stop-color="#3617CE"/>
<stop offset="1" stop-color="#5A40D8"/>
</linearGradient>
<linearGradient id="paint1_linear_933_7506" x1="575" y1="53.5" x2="335" y2="10" gradientUnits="userSpaceOnUse">
<stop stop-color="#7666C6"/>
<stop offset="1" stop-color="#877AC8"/>
</linearGradient>
<linearGradient id="paint2_linear_933_7506" x1="885" y1="53.5" x2="645" y2="10" gradientUnits="userSpaceOnUse">
<stop stop-color="#F24F6C"/>
<stop offset="1" stop-color="#EF647D"/>
</linearGradient>
<linearGradient id="paint3_linear_933_7506" x1="560" y1="370" x2="671" y2="370" gradientUnits="userSpaceOnUse">
<stop stop-color="#877AC8"/>
<stop offset="1" stop-color="#EF647D"/>
</linearGradient>
</defs>
</svg>
