<svg width="704" height="194" viewBox="0 0 704 194" fill="none" xmlns="http://www.w3.org/2000/svg">
<rect x="0.5" y="12.5" width="169" height="181" rx="9.5" fill="white" stroke="#565EA1" stroke-dasharray="2 2"/>
<rect x="178.5" y="12.5" width="169" height="181" rx="9.5" fill="white" stroke="#565EA1" stroke-dasharray="2 2"/>
<rect x="356.5" y="12.5" width="169" height="181" rx="9.5" fill="white" stroke="#565EA1" stroke-dasharray="2 2"/>
<rect x="534.5" y="12.5" width="169" height="181" rx="9.5" fill="#3617CE" fill-opacity="0.05" stroke="#565EA1" stroke-dasharray="2 2"/>
<path d="M28.2678 132.959H29.283V142.192H28.2678V132.959ZM25.9377 137.377H24.2554V139.881H19.5275V133.935H20.5427V135.994H23.2499V133.935H24.2554V136.488H25.9377V133.2H26.9626V141.825H25.9377V137.377ZM20.5427 138.992H23.2499V136.836H20.5427V138.992ZM22.3894 140.945V143.952H29.6601V144.841H21.3162V140.945H22.3894ZM40.0774 137.377V132.959H41.1506V145.131H40.0774V138.276H36.529V137.377H40.0774ZM32.7583 135.018V141.215C34.9482 141.211 36.3937 141.143 38.0857 140.819L38.2114 141.709C36.4227 142.047 34.9434 142.124 32.6133 142.124H31.6755V134.119H37.2542V135.018H32.7583ZM45.6314 136.7H52.9505V137.58H44.5679V133.452H52.8731V134.341H45.6314V136.7ZM43.1659 139.64V138.74H54.2557V139.64H43.1659ZM48.6963 140.703C51.3068 140.703 52.8731 141.496 52.8828 142.898C52.8731 144.3 51.3068 145.083 48.6963 145.083C46.0762 145.083 44.5002 144.3 44.5002 142.898C44.5002 141.496 46.0762 140.703 48.6963 140.703ZM48.6963 144.232C50.63 144.232 51.7999 143.749 51.8096 142.898C51.7999 142.047 50.63 141.554 48.6963 141.544C46.753 141.554 45.5831 142.047 45.5927 142.898C45.5831 143.749 46.753 144.232 48.6963 144.232ZM61.3374 138.363V139.649H66.3747V140.539H55.2462V139.649H60.2835V138.363H56.6965V135.395H63.8705V134.138H56.6578V133.268H64.9437V136.207H57.76V137.503H65.2048V138.363H61.3374ZM63.9285 142.347H56.4935V141.467H65.0114V144.996H63.9285V142.347ZM68.216 139.833C68.216 137.396 68.8735 135.366 70.0627 133.645H71.1069C70.1787 134.921 69.4342 137.532 69.4342 139.833C69.4342 142.134 70.1787 144.744 71.1069 146.021H70.0627C68.8735 144.3 68.216 142.269 68.216 139.833ZM81.138 137.841V132.959H82.2016V145.112H81.138V138.74H78.2375V137.841H81.138ZM78.2665 134.283C78.2568 137.725 76.7969 140.78 72.7361 142.791L72.1463 141.941C75.4433 140.34 76.9661 137.996 77.1836 135.153H72.6781V134.283H78.2665ZM93.5954 137.764V132.959H94.6202V145.112H93.5954V138.653H91.8164V144.474H90.8205V133.229H91.8164V137.764H93.5954ZM85.6865 138.528V141.293C87.0836 141.288 88.4082 141.23 89.9794 140.964L90.076 141.844C88.3454 142.144 86.9724 142.192 85.4448 142.202H84.6423V137.638H88.1617V135.182H84.623V134.283H89.1962V138.528H85.6865ZM105.714 145.112V132.959H106.739V145.112H105.714ZM101.402 136.343H103.249V133.287H104.283V144.493H103.249V140.278H100.996V139.388H103.249V137.232H101.194C100.6 139.291 99.2703 141.109 96.974 142.482L96.3262 141.709C98.9657 140.142 100.29 137.948 100.503 135.405H96.8676V134.506H101.567C101.567 135.129 101.513 135.743 101.402 136.343ZM117.824 138.006H119.806V138.924H117.824V145.112H116.76V132.959H117.824V138.006ZM109.045 139.649L108.493 138.798C110.321 138.228 111.607 136.807 111.616 135.134V134.989H108.861V134.09H115.435V134.989H112.699V135.134C112.69 136.691 113.947 138.054 115.726 138.595L115.213 139.446C113.801 139.001 112.699 138.064 112.168 136.845C111.631 138.165 110.49 139.171 109.045 139.649ZM112.699 139.146V141.588C113.811 141.535 114.933 141.452 115.977 141.302L116.054 142.095C113.434 142.559 110.563 142.559 108.445 142.559L108.281 141.66C109.267 141.66 110.422 141.66 111.626 141.626V139.146H112.699ZM126.514 136.7H133.833V137.58H125.451V133.452H133.756V134.341H126.514V136.7ZM124.049 139.64V138.74H135.139V139.64H124.049ZM129.579 140.703C132.19 140.703 133.756 141.496 133.766 142.898C133.756 144.3 132.19 145.083 129.579 145.083C126.959 145.083 125.383 144.3 125.383 142.898C125.383 141.496 126.959 140.703 129.579 140.703ZM129.579 144.232C131.513 144.232 132.683 143.749 132.692 142.898C132.683 142.047 131.513 141.554 129.579 141.544C127.636 141.554 126.466 142.047 126.476 142.898C126.466 143.749 127.636 144.232 129.579 144.232ZM142.22 138.363V139.649H147.257V140.539H136.129V139.649H141.166V138.363H137.579V135.395H144.753V134.138H137.541V133.268H145.827V136.207H138.643V137.503H146.088V138.363H142.22ZM144.811 142.347H137.376V141.467H145.894V144.996H144.811V142.347ZM151.178 139.833C151.178 142.269 150.52 144.3 149.331 146.021H148.287C149.215 144.744 149.959 142.134 149.959 139.833C149.959 137.532 149.215 134.921 148.287 133.645H149.331C150.52 135.366 151.178 137.396 151.178 139.833ZM44.9099 154.735C44.4264 154.735 44.0204 154.338 44.03 153.855C44.0204 153.372 44.4264 152.975 44.9099 152.975C45.3933 152.975 45.7897 153.372 45.7897 153.855C45.7897 154.338 45.3933 154.735 44.9099 154.735ZM44.9099 159.733C44.4264 159.733 44.0204 159.337 44.03 158.854C44.0204 158.37 44.4264 157.974 44.9099 157.974C45.3933 157.974 45.7897 158.37 45.7897 158.854C45.7897 159.337 45.3933 159.733 44.9099 159.733ZM57.8954 153.594H56.6965C56.5901 152.617 55.6909 152.057 54.5017 152.057C53.1965 152.057 52.336 152.743 52.336 153.681C52.336 154.725 53.4962 155.112 54.2407 155.305L55.2365 155.576C56.2904 155.847 58.0307 156.456 58.0307 158.302C58.0307 159.917 56.7351 161.174 54.4437 161.174C52.307 161.174 50.9824 160.072 50.8663 158.428H52.1329C52.2296 159.54 53.2641 160.062 54.4437 160.062C55.807 160.062 56.8318 159.356 56.8318 158.283C56.8318 157.316 55.9133 156.949 54.8691 156.659L53.6605 156.32C52.1039 155.876 51.1371 155.083 51.1371 153.739C51.1371 152.066 52.626 150.964 54.5404 150.964C56.4644 150.964 57.847 152.086 57.8954 153.594ZM61.0236 161H59.7957V151.099H61.0236V155.992H61.1493L65.5581 151.099H67.1631L63.0249 155.566L67.1631 161H65.6645L62.2611 156.417L61.0236 157.809V161ZM71.0628 152.192H67.9495V151.099H75.404V152.192H72.3004V161H71.0628V152.192ZM89.3713 154.89H91.4016V155.818H89.3713V162.112H88.2981V149.959H89.3713V154.89ZM84.0439 151.012V153.227C84.0342 155.363 85.4555 157.568 87.1862 158.419L86.519 159.279C85.1848 158.578 84.0681 157.137 83.5266 155.45C82.9852 157.244 81.8347 158.776 80.4666 159.511L79.7898 158.651C81.5591 157.771 82.9707 155.441 82.9804 153.227V151.012H84.0439ZM101.065 152.869V149.959H102.138V156.475H101.065V153.758H98.5171C98.3044 155.189 97.0572 156.146 95.4087 156.146C93.562 156.146 92.2471 154.996 92.2568 153.333C92.2471 151.68 93.562 150.519 95.4087 150.529C97.0427 150.519 98.2803 151.467 98.5123 152.869H101.065ZM95.4087 155.238C96.6366 155.238 97.5164 154.435 97.5164 153.333C97.5164 152.211 96.6366 151.428 95.4087 151.438C94.1615 151.428 93.2816 152.211 93.2816 153.333C93.2816 154.435 94.1615 155.238 95.4087 155.238ZM95.3797 158.631H101.065V157.094H102.138V161.948H94.3065V157.094H95.3797V158.631ZM95.3797 161.068H101.065V159.492H95.3797V161.068ZM112.768 150.461H113.841V155.692H105.575V150.461H106.638V152.144H112.768V150.461ZM106.638 154.822H112.768V153.014H106.638V154.822ZM104.144 157.171H115.272V158.041H110.206V162.112H109.152V158.041H104.144V157.171ZM125.274 154.106V149.959H126.337V162.131H125.274V154.986H122.392V154.106H125.274ZM120.536 151.012V153.227C120.536 155.421 121.948 157.635 123.717 158.448L123.069 159.318C121.687 158.607 120.546 157.152 120.004 155.426C119.468 157.244 118.327 158.8 116.939 159.54L116.253 158.68C118.032 157.8 119.444 155.46 119.453 153.227V151.012H120.536Z" fill="#444444"/>
<path d="M573.293 146.808C570.663 146.808 568.855 145.744 568.86 144.077C568.855 142.38 570.663 141.302 573.293 141.302C575.928 141.302 577.745 142.38 577.745 144.077C577.745 145.744 575.928 146.808 573.293 146.808ZM573.293 142.525C571.548 142.525 570.417 143.1 570.426 144.077C570.417 145.034 571.548 145.599 573.293 145.599C575.048 145.599 576.174 145.034 576.179 144.077C576.174 143.1 575.048 142.525 573.293 142.525ZM567.676 147.823H578.973V149.075H574.042V153.218H572.539V149.075H567.676V147.823ZM588.98 145.691V140.862H590.42V153.209H588.98V146.919H587.587V152.595H586.19V141.094H587.587V145.691H588.98ZM581.695 143.545V149.046C583.043 149.037 584.145 148.969 585.402 148.727L585.523 149.974C584.025 150.274 582.729 150.318 581.013 150.327H580.172V142.322H584.788V143.545H581.695ZM600.673 153.209V140.862H602.206V153.209H600.673ZM592.6 142.172H598.522C598.517 145.851 597.091 148.974 592.769 151.028L591.972 149.81C595.206 148.273 596.704 146.189 596.975 143.376H592.6V142.172ZM605.111 146.392L604.555 145.193C606.938 144.908 608.432 143.796 608.577 142.631H605.019V141.423H614.238V142.631H610.651C610.791 143.801 612.299 144.908 614.687 145.193L614.122 146.392C611.903 146.122 610.269 145.15 609.606 143.82C608.944 145.145 607.325 146.122 605.111 146.392ZM603.975 148.307V147.079H615.272V148.307H610.501V150.564H608.997V148.307H603.975ZM605.343 149.423H606.861V151.744H614.025V152.977H605.343V149.423ZM628.243 143.917V140.862H629.761V148.229H628.243V145.164H626.145V143.917H628.243ZM623.201 145.266C622.655 146.557 621.63 147.596 620.165 148.089L619.382 146.89C621.349 146.238 622.403 144.599 622.403 142.994V142.825H619.827V141.606H626.508V142.825H623.95V142.979C623.95 144.488 624.946 146.001 626.856 146.644L626.097 147.823C624.719 147.369 623.738 146.431 623.201 145.266ZM628.243 150.037H621.335V148.814H629.761V153.209H628.243V150.037ZM640.106 145.242V146.803H642.769V148.021H631.511V146.803H634.131V145.232C633.203 144.836 632.676 144.217 632.68 143.41C632.676 141.935 634.401 141.065 637.133 141.06C639.854 141.065 641.58 141.935 641.58 143.41C641.58 144.222 641.049 144.845 640.106 145.242ZM637.133 142.235C635.305 142.235 634.247 142.655 634.256 143.41C634.247 144.169 635.305 144.57 637.133 144.57C638.95 144.57 640.019 144.169 640.019 143.41C640.019 142.655 638.95 142.235 637.133 142.235ZM635.663 145.628V146.803H638.593V145.628C638.148 145.686 637.66 145.72 637.133 145.72C636.601 145.72 636.113 145.686 635.663 145.628ZM637.123 148.766C639.787 148.761 641.401 149.549 641.406 150.97C641.401 152.411 639.787 153.194 637.123 153.189C634.43 153.194 632.821 152.411 632.821 150.97C632.821 149.549 634.43 148.761 637.123 148.766ZM637.123 152.039C638.897 152.048 639.879 151.671 639.888 150.97C639.879 150.284 638.897 149.926 637.123 149.916C635.33 149.926 634.358 150.284 634.368 150.97C634.358 151.671 635.33 152.048 637.123 152.039ZM656.079 145.638V140.862H657.544V153.209H656.079V146.871H654.749V152.638H653.333V141.191H654.749V145.638H656.079ZM647.406 142.409H652.284C652.274 145.754 651.22 148.626 647.716 150.632L646.836 149.573C649.466 148.065 650.582 146.112 650.8 143.642H647.406V142.409ZM667.782 153.238V140.862H669.314V153.238H667.782ZM663.702 141.853V143.83C663.692 146.093 664.886 148.365 666.893 149.225L665.988 150.443C664.572 149.786 663.528 148.476 662.953 146.861C662.392 148.602 661.328 150.028 659.83 150.729L658.901 149.462C660.951 148.573 662.155 146.209 662.165 143.83V141.853H663.702Z" fill="#444444"/>
<path d="M198.809 130.05C198.809 133.182 196.963 135.135 194.429 135.135C191.887 135.135 190.05 133.182 190.05 130.05C190.05 126.917 191.887 124.964 194.429 124.964C196.963 124.964 198.809 126.917 198.809 130.05ZM197.61 130.05C197.61 127.497 196.218 126.115 194.429 126.115C192.641 126.115 191.248 127.497 191.248 130.05C191.248 132.602 192.641 133.985 194.429 133.985C196.218 133.985 197.61 132.602 197.61 130.05ZM201.633 137.785H200.453V127.575H201.594V128.754H201.73C201.981 128.358 202.436 127.478 203.876 127.478C205.742 127.478 207.038 128.957 207.038 131.307C207.038 133.666 205.742 135.155 203.895 135.155C202.474 135.155 201.981 134.275 201.73 133.859H201.633V137.785ZM201.614 131.287C201.614 132.95 202.358 134.101 203.721 134.101C205.133 134.101 205.858 132.863 205.858 131.287C205.858 129.731 205.152 128.532 203.721 128.532C202.339 128.532 201.614 129.634 201.614 131.287ZM214.778 131.191V131.684H209.397C209.45 133.25 210.364 134.11 211.684 134.11C212.573 134.11 213.134 133.724 213.405 133.26H214.662C214.314 134.391 213.211 135.155 211.684 135.155C209.537 135.155 208.213 133.627 208.213 131.345C208.213 129.064 209.557 127.478 211.568 127.478C213.134 127.478 214.778 128.435 214.778 131.191ZM209.397 130.678H213.579C213.579 129.441 212.796 128.522 211.577 128.522C210.287 128.522 209.475 129.537 209.397 130.678ZM217.479 130.543V135H216.299V127.575H217.44V128.744H217.537C217.885 127.981 218.581 127.478 219.702 127.478C221.211 127.478 222.216 128.396 222.216 130.282V135H221.037V130.369C221.037 129.218 220.408 128.532 219.354 128.532C218.272 128.532 217.479 129.257 217.479 130.543ZM230.512 135H224.082L224.073 134.101L227.447 130.543C228.617 129.296 229.178 128.628 229.187 127.72C229.178 126.695 228.327 126.037 227.215 126.037C226.036 126.037 225.291 126.782 225.291 127.894H224.121C224.111 126.144 225.465 124.964 227.254 124.964C229.052 124.964 230.328 126.173 230.338 127.72C230.328 128.822 229.816 129.682 228.056 131.49L225.794 133.83V133.907H230.512V135ZM236.998 131.954V127.575H238.168V135H236.998V133.743H236.921C236.573 134.497 235.838 135.097 234.716 135.097C233.314 135.097 232.309 134.178 232.309 132.293V127.575H233.488V132.206C233.488 133.279 234.156 133.965 235.103 133.965C235.944 133.965 236.998 133.337 236.998 131.954ZM240.888 135.077C240.405 135.077 239.999 134.681 240.009 134.198C239.999 133.714 240.405 133.318 240.888 133.318C241.372 133.318 241.768 133.714 241.768 134.198C241.768 134.681 241.372 135.077 240.888 135.077ZM248.891 129.508H247.73C247.576 128.89 247.102 128.483 246.232 128.483C245.313 128.483 244.665 128.977 244.665 129.595C244.665 130.088 245.062 130.427 245.932 130.64L247.044 130.91C248.368 131.229 249.016 131.887 249.016 132.921C249.016 134.207 247.972 135.155 246.106 135.155C244.443 135.155 243.447 134.41 243.254 133.057H244.482C244.617 133.782 245.149 134.13 246.087 134.13C247.141 134.13 247.808 133.685 247.808 132.989C247.808 132.467 247.431 132.119 246.589 131.925L245.468 131.664C244.172 131.365 243.486 130.659 243.486 129.663C243.486 128.396 244.598 127.478 246.232 127.478C247.769 127.478 248.736 128.3 248.891 129.508ZM256.754 135H255.265L252.515 131.5L251.727 132.24V135H250.547V125.099H251.727V130.862H251.862L255.072 127.575H256.522L253.404 130.746L256.754 135ZM260.438 133.975C260.651 133.975 260.961 133.956 261.135 133.946V135.039C260.951 135.068 260.661 135.097 260.313 135.097C259.327 135.097 258.282 134.478 258.282 133.173V128.561H257.161V127.575H258.282V125.796H259.462V127.575H261.028V128.561H259.462V132.863C259.462 133.82 259.936 133.975 260.438 133.975ZM268.672 131.191V131.684H263.292C263.345 133.25 264.259 134.11 265.578 134.11C266.468 134.11 267.029 133.724 267.299 133.26H268.556C268.208 134.391 267.106 135.155 265.578 135.155C263.432 135.155 262.107 133.627 262.107 131.345C262.107 129.064 263.451 127.478 265.462 127.478C267.029 127.478 268.672 128.435 268.672 131.191ZM263.292 130.678H267.473C267.473 129.441 266.69 128.522 265.472 128.522C264.181 128.522 263.369 129.537 263.292 130.678ZM270.194 125.099H271.373V135H270.194V125.099ZM279.459 131.191V131.684H274.079C274.132 133.25 275.046 134.11 276.365 134.11C277.255 134.11 277.816 133.724 278.086 133.26H279.343C278.995 134.391 277.893 135.155 276.365 135.155C274.219 135.155 272.894 133.627 272.894 131.345C272.894 129.064 274.238 127.478 276.249 127.478C277.816 127.478 279.459 128.435 279.459 131.191ZM274.079 130.678H278.26C278.26 129.441 277.477 128.522 276.259 128.522C274.968 128.522 274.156 129.537 274.079 130.678ZM284.017 135.155C281.919 135.155 280.633 133.55 280.633 131.326C280.633 129.064 281.977 127.478 283.997 127.478C285.573 127.478 286.763 128.416 286.946 129.818H285.776C285.602 129.141 285.013 128.522 284.017 128.522C282.692 128.522 281.812 129.615 281.812 131.287C281.812 132.999 282.673 134.101 284.017 134.101C284.897 134.101 285.564 133.627 285.776 132.815H286.946C286.763 134.14 285.67 135.155 284.017 135.155ZM291.427 135.155C289.406 135.155 288.043 133.627 288.043 131.326C288.043 129.006 289.406 127.478 291.427 127.478C293.448 127.478 294.801 129.006 294.801 131.326C294.801 133.627 293.448 135.155 291.427 135.155ZM291.427 134.11C292.926 134.11 293.622 132.805 293.622 131.326C293.622 129.847 292.926 128.522 291.427 128.522C289.919 128.522 289.222 129.847 289.222 131.326C289.222 132.805 289.919 134.11 291.427 134.11ZM297.514 135H296.334V127.575H297.475V128.744H297.572C297.881 127.942 298.597 127.478 299.564 127.478C300.54 127.478 301.198 127.942 301.555 128.744H301.633C302.01 127.971 302.793 127.478 303.856 127.478C305.181 127.478 306.129 128.29 306.129 130.03V135H304.949V130.05C304.949 128.957 304.263 128.532 303.45 128.532C302.416 128.532 301.826 129.228 301.826 130.175V135H300.637V129.934C300.637 129.093 300.037 128.532 299.177 128.532C298.297 128.532 297.514 129.286 297.514 130.369V135ZM308.851 135.077C308.368 135.077 307.962 134.681 307.971 134.198C307.962 133.714 308.368 133.318 308.851 133.318C309.335 133.318 309.731 133.714 309.731 134.198C309.731 134.681 309.335 135.077 308.851 135.077ZM314.601 135.155C312.503 135.155 311.217 133.55 311.217 131.326C311.217 129.064 312.561 127.478 314.581 127.478C316.157 127.478 317.347 128.416 317.53 129.818H316.36C316.186 129.141 315.597 128.522 314.601 128.522C313.276 128.522 312.396 129.615 312.396 131.287C312.396 132.999 313.257 134.101 314.601 134.101C315.481 134.101 316.148 133.627 316.36 132.815H317.53C317.347 134.14 316.254 135.155 314.601 135.155ZM322.011 135.155C319.99 135.155 318.627 133.627 318.627 131.326C318.627 129.006 319.99 127.478 322.011 127.478C324.032 127.478 325.385 129.006 325.385 131.326C325.385 133.627 324.032 135.155 322.011 135.155ZM322.011 134.11C323.509 134.11 324.206 132.805 324.206 131.326C324.206 129.847 323.509 128.522 322.011 128.522C320.503 128.522 319.806 129.847 319.806 131.326C319.806 132.805 320.503 134.11 322.011 134.11ZM328.098 135H326.918V127.575H328.059V128.744H328.156C328.465 127.942 329.181 127.478 330.148 127.478C331.124 127.478 331.782 127.942 332.139 128.744H332.217C332.594 127.971 333.377 127.478 334.44 127.478C335.765 127.478 336.713 128.29 336.713 130.03V135H335.533V130.05C335.533 128.957 334.846 128.532 334.034 128.532C333 128.532 332.41 129.228 332.41 130.175V135H331.221V129.934C331.221 129.093 330.621 128.532 329.761 128.532C328.881 128.532 328.098 129.286 328.098 130.369V135ZM219.361 153.112V140.959H220.395V153.112H219.361ZM215.353 145.696H216.924V141.22H217.959V152.493H216.924V146.586H215.358C215.252 148.954 214.241 150.434 212.738 150.424C211.162 150.434 210.137 148.79 210.137 146.199C210.137 143.617 211.162 141.983 212.738 141.983C214.217 141.983 215.218 143.405 215.353 145.696ZM212.738 149.409C213.734 149.419 214.362 148.171 214.362 146.199C214.362 144.227 213.734 142.989 212.738 142.989C211.761 142.989 211.133 144.227 211.143 146.199C211.133 148.171 211.761 149.419 212.738 149.409ZM231.093 145.106V140.959H232.157V153.131H231.093V145.986H228.212V145.106H231.093ZM226.355 142.012V144.227C226.355 146.421 227.767 148.635 229.536 149.448L228.889 150.318C227.506 149.607 226.365 148.152 225.824 146.426C225.287 148.244 224.146 149.8 222.759 150.54L222.072 149.68C223.851 148.8 225.263 146.46 225.273 144.227V142.012H226.355ZM243.767 146.155V147.436H248.775V148.326H237.695V147.436H242.704V146.155C240.378 146.044 238.923 145.164 238.923 143.733C238.923 142.235 240.596 141.326 243.226 141.326C245.846 141.326 247.518 142.235 247.518 143.733C247.518 145.164 246.073 146.039 243.767 146.155ZM240.035 143.733C240.025 144.72 241.273 145.29 243.226 145.29C245.179 145.29 246.426 144.72 246.426 143.733C246.426 142.796 245.179 142.196 243.226 142.196C241.273 142.196 240.025 142.796 240.035 143.733ZM239.126 149.312H240.209V151.952H247.538V152.841H239.126V149.312ZM259.202 145.793H261.233V146.702H259.202V153.131H258.139V140.959H259.202V145.793ZM251.361 146.441V149.283C253.619 149.283 255.195 149.201 257.046 148.858L257.153 149.747C255.238 150.095 253.614 150.182 251.264 150.192H250.298V145.551H254.726V142.979H250.269V142.09H255.799V146.441H251.361ZM270.857 140.968H271.93V149.854H270.857V140.968ZM265.365 147.785C263.548 147.794 262.175 146.566 262.175 144.797C262.175 143.047 263.548 141.819 265.365 141.819C267.183 141.819 268.546 143.047 268.546 144.797C268.546 146.566 267.183 147.794 265.365 147.785ZM263.229 144.797C263.219 146.006 264.138 146.847 265.365 146.847C266.574 146.847 267.502 146.006 267.502 144.797C267.502 143.608 266.574 142.757 265.365 142.757C264.138 142.757 263.219 143.608 263.229 144.797ZM265.153 148.945V151.952H272.307V152.841H264.08V148.945H265.153ZM286.47 140.968H287.544V149.883H286.47V140.968ZM281.274 144.86C280.747 146.354 279.644 147.548 278.223 148.123L277.633 147.282C279.47 146.566 280.718 144.787 280.718 142.863V141.645H281.81V142.863C281.801 144.72 283.067 146.383 284.875 147.04L284.314 147.901C282.908 147.354 281.81 146.262 281.274 144.86ZM280.766 149.061V151.952H287.921V152.841H279.693V149.061H280.766ZM293.248 145.261C292.725 146.59 291.614 147.64 290.168 148.123L289.646 147.291C291.435 146.692 292.692 145.213 292.692 143.559V143.308H289.946V142.438H292.692V140.901H293.774V142.438H296.491V143.308H293.755V143.559C293.755 145.077 295.06 146.441 296.859 146.963L296.337 147.804C294.925 147.378 293.799 146.46 293.248 145.261ZM296.114 145.329V144.439H298.609V140.959H299.682V148.326H298.609V145.329H296.114ZM295.65 148.645C298.174 148.645 299.721 149.448 299.721 150.859C299.721 152.271 298.174 153.083 295.65 153.083C293.117 153.083 291.57 152.271 291.58 150.859C291.57 149.448 293.117 148.645 295.65 148.645ZM295.65 152.232C297.516 152.232 298.657 151.71 298.657 150.859C298.657 149.999 297.516 149.496 295.65 149.486C293.784 149.496 292.634 149.999 292.643 150.859C292.634 151.71 293.784 152.232 295.65 152.232ZM316.272 147.669L311.921 152.019L311.157 151.275L314.222 148.21H306.323V147.127H314.222L311.157 144.072L311.921 143.318L316.272 147.669ZM200.046 162.909L199.66 162.058C201.767 161.831 203.798 160.762 203.875 159.399H200.046V158.529H209.115V159.399H205.267C205.335 160.762 207.346 161.831 209.493 162.058L209.096 162.909C207.1 162.662 205.238 161.773 204.571 160.419C203.899 161.773 202.043 162.662 200.046 162.909ZM210.111 163.644V164.533H205.093V165.829C207.385 165.93 208.738 166.68 208.748 167.956C208.738 169.319 207.172 170.083 204.562 170.083C201.932 170.083 200.365 169.319 200.365 167.956C200.365 166.68 201.724 165.93 204.03 165.829V164.533H199.031V163.644H210.111ZM207.675 167.956C207.665 167.134 206.495 166.66 204.562 166.651C202.618 166.66 201.448 167.134 201.458 167.956C201.448 168.768 202.618 169.251 204.562 169.242C206.495 169.251 207.665 168.768 207.675 167.956ZM216.637 161.405C215.839 163.151 213.901 164.407 212.049 164.794L211.566 163.905C213.693 163.537 216.062 161.758 216.071 159.718V158.78H217.193V159.718C217.193 161.749 219.591 163.537 221.718 163.905L221.234 164.794C219.383 164.407 217.43 163.155 216.637 161.405ZM217.164 164.659V167.627H222.259V168.517H211.131V167.627H216.11V164.659H217.164ZM232.203 170.112V157.959H233.276V170.112H232.203ZM223.946 159.283H229.679C229.67 162.773 228.045 165.867 223.965 167.83L223.385 166.95C226.672 165.394 228.35 163.054 228.587 160.153H223.946V159.283ZM244.331 160.869V157.959H245.405V164.475H244.331V161.758H241.784C241.571 163.189 240.324 164.146 238.675 164.146C236.829 164.146 235.514 162.996 235.523 161.333C235.514 159.68 236.829 158.519 238.675 158.529C240.309 158.519 241.547 159.467 241.779 160.869H244.331ZM238.675 163.238C239.903 163.238 240.783 162.435 240.783 161.333C240.783 160.211 239.903 159.428 238.675 159.438C237.428 159.428 236.548 160.211 236.548 161.333C236.548 162.435 237.428 163.238 238.675 163.238ZM238.646 166.631H244.331V165.094H245.405V169.948H237.573V165.094H238.646V166.631ZM238.646 169.068H244.331V167.492H238.646V169.068ZM251.742 159.07H254.72V159.892H247.681V159.07H250.669V157.862H251.742V159.07ZM256.914 161.642H258.732V162.541H256.914V166.109H255.841V157.968H256.914V161.642ZM255.087 164.485L255.174 165.268C252.544 165.732 249.634 165.751 247.497 165.751L247.372 164.872C248.343 164.872 249.479 164.872 250.669 164.833V163.939C249.252 163.813 248.338 163.16 248.348 162.155C248.338 161.043 249.479 160.356 251.191 160.366C252.912 160.356 254.033 161.043 254.043 162.155C254.033 163.151 253.149 163.803 251.742 163.939V164.794C252.878 164.736 254.024 164.644 255.087 164.485ZM249.373 162.155C249.363 162.783 250.069 163.218 251.191 163.209C252.312 163.218 253.018 162.783 253.018 162.155C253.018 161.507 252.312 161.11 251.191 161.12C250.069 161.11 249.363 161.507 249.373 162.155ZM255.841 167.579H248.87V166.718H256.914V170.112H255.841V167.579ZM268.492 157.968H269.565V166.854H268.492V157.968ZM263 164.785C261.183 164.794 259.81 163.566 259.81 161.797C259.81 160.047 261.183 158.819 263 158.819C264.818 158.819 266.181 160.047 266.181 161.797C266.181 163.566 264.818 164.794 263 164.785ZM260.863 161.797C260.854 163.006 261.772 163.847 263 163.847C264.209 163.847 265.137 163.006 265.137 161.797C265.137 160.608 264.209 159.757 263 159.757C261.772 159.757 260.854 160.608 260.863 161.797ZM262.788 165.945V168.952H269.942V169.841H261.714V165.945H262.788ZM272.644 163.006L272.257 162.155C274.375 161.908 276.415 160.859 276.473 159.477H272.644V158.577H281.713V159.477H277.865C277.913 160.849 279.934 161.908 282.09 162.155L281.694 163.006C279.697 162.759 277.836 161.869 277.169 160.516C276.497 161.869 274.641 162.759 272.644 163.006ZM271.629 164.63V163.74H282.709V164.63H271.629ZM277.159 165.693C279.77 165.693 281.336 166.496 281.346 167.898C281.336 169.3 279.77 170.083 277.159 170.083C274.539 170.083 272.963 169.3 272.963 167.898C272.963 166.496 274.539 165.693 277.159 165.693ZM277.159 169.222C279.093 169.222 280.263 168.739 280.272 167.898C280.263 167.037 279.093 166.554 277.159 166.544C275.216 166.554 274.046 167.037 274.056 167.898C274.046 168.739 275.216 169.222 277.159 169.222ZM290.873 162.208C290.346 163.489 289.224 164.485 287.774 164.959L287.242 164.117C289.05 163.566 290.326 162.155 290.326 160.54V160.269H287.581V159.399H290.326V157.901H291.409V159.399H294.126V160.269H291.39V160.54C291.39 162.058 292.695 163.354 294.493 163.876L293.991 164.727C292.555 164.301 291.424 163.397 290.873 162.208ZM296.243 161.372V157.959H297.317V165.162H296.243V162.261H293.778V161.372H296.243ZM297.317 169.948H289.369V165.78H297.317V169.948ZM296.263 166.66H290.442V169.068H296.263V166.66ZM307.947 158.461H309.02V163.692H300.753V158.461H301.817V160.144H307.947V158.461ZM301.817 162.822H307.947V161.014H301.817V162.822ZM299.322 165.171H310.451V166.041H305.385V170.112H304.331V166.041H299.322V165.171ZM318.76 160.642H319.852V168.174C319.852 168.832 320.02 168.958 320.804 168.958C321.196 168.958 323.016 168.958 323.52 168.958C324.332 168.958 324.458 168.496 324.57 166.27C324.836 166.466 325.284 166.662 325.592 166.732C325.424 169.252 325.102 170.008 323.576 170.008C323.212 170.008 321.07 170.008 320.72 170.008C319.194 170.008 318.76 169.616 318.76 168.146V160.642ZM318.788 158.024L319.474 157.282C320.678 158.066 322.204 159.214 323.016 159.872L322.316 160.726C321.504 160.012 319.964 158.836 318.788 158.024ZM316.52 161.482L317.5 161.734C317.192 163.288 316.674 165.304 315.89 166.536L314.896 166.13C315.694 164.912 316.24 163.008 316.52 161.482ZM324.794 162.392L325.732 161.958C326.712 163.358 327.65 165.192 328.042 166.424L327.034 166.928C326.684 165.682 325.732 163.792 324.794 162.392ZM325.536 158.08L326.572 158.514C324.276 162.882 320.58 166.914 315.596 169.294C315.442 169.056 315.134 168.678 314.91 168.468C319.74 166.27 323.506 162.224 325.536 158.08Z" fill="#444444"/>
<path d="M403.95 145.541V146.963H408.977V147.833H397.888V146.963H402.906V145.541H399.29V141.529H407.595V142.39H400.353V144.671H407.672V145.541H403.95ZM403.418 148.722C406.029 148.722 407.595 149.515 407.604 150.907C407.595 152.309 406.029 153.093 403.418 153.102C400.798 153.093 399.222 152.309 399.222 150.907C399.222 149.515 400.798 148.722 403.418 148.722ZM403.418 152.242C405.352 152.251 406.522 151.758 406.531 150.907C406.522 150.066 405.352 149.564 403.418 149.564C401.475 149.564 400.305 150.066 400.314 150.907C400.305 151.758 401.475 152.251 403.418 152.242ZM419.491 140.968V144.642H421.319V145.551H419.491V149.892H418.418V140.968H419.491ZM415.102 141.838H416.165V147.843H410.509V141.838H411.563V143.888H415.102V141.838ZM411.563 146.972H415.102V144.739H411.563V146.972ZM411.882 149.022H412.946V151.952H420.052V152.841H411.882V149.022ZM432.161 148.162H431.088V144.449H428.381V143.559H431.088V140.959H432.161V148.162ZM425.756 144.802C425.239 146.257 424.127 147.388 422.657 147.939L422.077 147.069C423.943 146.412 425.19 144.797 425.2 142.912V141.655H426.264V142.873C426.254 144.604 427.492 146.131 429.28 146.731L428.681 147.572C427.337 147.069 426.283 146.083 425.756 144.802ZM428.13 148.51C430.653 148.51 432.2 149.351 432.2 150.811C432.2 152.261 430.653 153.083 428.13 153.083C425.597 153.083 424.05 152.261 424.059 150.811C424.05 149.351 425.597 148.51 428.13 148.51ZM428.13 152.222C429.986 152.222 431.137 151.691 431.137 150.811C431.137 149.902 429.986 149.36 428.13 149.36C426.264 149.36 425.113 149.902 425.123 150.811C425.113 151.691 426.264 152.222 428.13 152.222ZM443.691 140.959V144.062H445.518V144.961H443.691V148.297H442.617V140.959H443.691ZM437.793 145.058C437.271 146.45 436.149 147.538 434.689 148.065L434.138 147.204C435.965 146.586 437.232 145.019 437.242 143.269V142.747H434.467V141.858H441.032V142.747H438.305V143.26C438.305 144.855 439.494 146.276 441.283 146.866L440.771 147.707C439.374 147.243 438.315 146.276 437.793 145.058ZM439.794 148.626C442.289 148.626 443.797 149.438 443.797 150.84C443.797 152.261 442.289 153.083 439.794 153.083C437.29 153.083 435.762 152.261 435.762 150.84C435.762 149.438 437.29 148.626 439.794 148.626ZM439.794 152.222C441.631 152.222 442.753 151.71 442.753 150.84C442.753 149.989 441.631 149.486 439.794 149.486C437.957 149.486 436.826 149.989 436.836 150.84C436.826 151.71 437.957 152.222 439.794 152.222ZM455.249 148.21V140.968H456.322V148.21H455.249ZM453.818 146.247L453.934 147.117C452.155 147.427 450.666 147.465 447.978 147.456H446.992V141.703H452.822V142.593H448.075V144.11H452.484V144.971H448.075V146.586C450.661 146.595 452.107 146.542 453.818 146.247ZM456.322 152.948H448.413V148.819H456.322V152.948ZM455.268 149.67H449.477V152.068H455.268V149.67ZM467.449 143.129C466.685 144.526 464.839 145.493 462.963 145.783L462.537 144.932C464.694 144.652 466.888 143.308 466.888 141.722V141.162H467.991V141.722C467.991 143.269 470.205 144.652 472.322 144.932L471.916 145.783C470.06 145.498 468.218 144.512 467.449 143.129ZM461.899 147.64V146.769H472.979V147.64H461.899ZM467.43 148.79C470.04 148.78 471.607 149.544 471.616 150.936C471.607 152.319 470.04 153.093 467.43 153.102C464.8 153.093 463.234 152.319 463.234 150.936C463.234 149.544 464.8 148.78 467.43 148.79ZM467.43 152.242C469.363 152.251 470.533 151.778 470.543 150.936C470.533 150.105 469.363 149.622 467.43 149.612C465.486 149.622 464.316 150.105 464.326 150.936C464.316 151.778 465.486 152.251 467.43 152.242ZM482.962 140.968H484.035V149.854H482.962V140.968ZM477.47 147.785C475.652 147.794 474.279 146.566 474.279 144.797C474.279 143.047 475.652 141.819 477.47 141.819C479.288 141.819 480.651 143.047 480.651 144.797C480.651 146.566 479.288 147.794 477.47 147.785ZM475.333 144.797C475.324 146.006 476.242 146.847 477.47 146.847C478.679 146.847 479.607 146.006 479.607 144.797C479.607 143.608 478.679 142.757 477.47 142.757C476.242 142.757 475.324 143.608 475.333 144.797ZM477.257 148.945V151.952H484.412V152.841H476.184V148.945H477.257Z" fill="#444444"/>
<rect x="45" width="80" height="25" rx="12.5" fill="#565DA1"/>
<path d="M67.9854 10.4372H66.1495C66.0776 9.70546 65.4986 9.27901 64.5649 9.27901C63.5997 9.27901 63.0611 9.72341 63.0611 10.3294C63.0476 11.0028 63.7344 11.299 64.5289 11.4831L65.3594 11.6851C66.9305 12.0397 68.1022 12.8432 68.1111 14.3785C68.1022 16.0573 66.7914 17.1302 64.5514 17.1302C62.3339 17.1302 60.9153 16.1022 60.8615 14.136H62.7154C62.7783 15.0608 63.5144 15.5231 64.5289 15.5231C65.53 15.5231 66.1764 15.0608 66.1809 14.3695C66.1764 13.7455 65.6108 13.4537 64.6098 13.2068L63.6042 12.9599C62.0555 12.5829 61.0994 11.8108 61.1039 10.4551C61.0949 8.78971 62.5718 7.68094 64.5783 7.68094C66.6163 7.68094 67.9585 8.80767 67.9854 10.4372ZM72.3044 15.577C72.4885 15.5815 72.8162 15.559 73.0406 15.5456V17.0269C72.8431 17.0584 72.5064 17.0943 72.0486 17.0943C70.6839 17.0943 69.7592 16.4838 69.7682 15.1416V11.519H68.821V10.105H69.7682V8.45304H71.6491V10.105H72.9509V11.519H71.6491V14.8857C71.6491 15.4334 71.9184 15.5635 72.3044 15.577ZM80.3347 13.5121V14.0373H75.6213C75.6213 15.0832 76.2408 15.7251 77.2059 15.7251C77.8523 15.7251 78.3102 15.4468 78.4987 15.0383H80.2853C80.016 16.3087 78.8758 17.1347 77.1745 17.1347C75.0602 17.1347 73.7629 15.77 73.7629 13.5839C73.7629 11.4561 75.0781 10.0152 77.0982 10.0152C78.9072 10.0152 80.3347 11.1599 80.3347 13.5121ZM75.6213 12.8612H78.5615C78.5526 12.0262 77.9735 11.4202 77.1341 11.4202C76.2677 11.4202 75.6662 12.0711 75.6213 12.8612ZM83.3914 19.5856H81.5105V10.105H83.3644V11.2631H83.4497C83.7056 10.7065 84.2533 10.0152 85.4114 10.0152C86.9376 10.0152 88.2125 11.2003 88.2125 13.5615C88.2125 15.8643 86.987 17.1122 85.4114 17.1122C84.2892 17.1122 83.7146 16.4658 83.4497 15.9002H83.3914V19.5856ZM83.351 13.5525C83.351 14.7914 83.8852 15.6129 84.8234 15.6129C85.775 15.6129 86.2912 14.769 86.2912 13.5525C86.2912 12.345 85.784 11.519 84.8234 11.519C83.8762 11.519 83.351 12.309 83.351 13.5525ZM90.524 17.1122C89.9359 17.1122 89.4466 16.6364 89.4556 16.0483C89.4466 15.4648 89.9359 14.989 90.524 14.989C91.0896 14.989 91.5834 15.4648 91.5879 16.0483C91.5834 16.6364 91.0896 17.1122 90.524 17.1122ZM99.2255 17.1975C96.9227 17.193 95.5266 15.4334 95.5356 12.4123C95.5401 9.40021 96.9317 7.68094 99.2255 7.68094C101.519 7.68094 102.92 9.40918 102.915 12.4123C102.915 15.4423 101.524 17.1975 99.2255 17.1975ZM99.2255 15.6084C100.289 15.6084 100.972 14.5401 100.972 12.4123C100.967 10.3115 100.285 9.25207 99.2255 9.25207C98.1661 9.25207 97.4838 10.3115 97.4793 12.4123C97.4748 14.5401 98.1616 15.6084 99.2255 15.6084ZM106.398 7.80663H108.198V17H106.286V9.62465H106.232L104.122 10.9489V9.25207L106.398 7.80663Z" fill="white"/>
<rect x="223" width="80" height="25" rx="12.5" fill="#565DA1"/>
<path d="M245.065 10.4372H243.229C243.157 9.70546 242.578 9.27901 241.644 9.27901C240.679 9.27901 240.141 9.72341 240.141 10.3294C240.127 11.0028 240.814 11.299 241.609 11.4831L242.439 11.6851C244.01 12.0397 245.182 12.8432 245.191 14.3785C245.182 16.0573 243.871 17.1302 241.631 17.1302C239.413 17.1302 237.995 16.1022 237.941 14.136H239.795C239.858 15.0608 240.594 15.5231 241.609 15.5231C242.61 15.5231 243.256 15.0608 243.26 14.3695C243.256 13.7455 242.69 13.4537 241.689 13.2068L240.684 12.9599C239.135 12.5829 238.179 11.8108 238.183 10.4551C238.174 8.78971 239.651 7.68094 241.658 7.68094C243.696 7.68094 245.038 8.80767 245.065 10.4372ZM249.384 15.577C249.568 15.5815 249.896 15.559 250.12 15.5456V17.0269C249.923 17.0584 249.586 17.0943 249.128 17.0943C247.764 17.0943 246.839 16.4838 246.848 15.1416V11.519H245.901V10.105H246.848V8.45304H248.729V10.105H250.03V11.519H248.729V14.8857C248.729 15.4334 248.998 15.5635 249.384 15.577ZM257.414 13.5121V14.0373H252.701C252.701 15.0832 253.32 15.7251 254.285 15.7251C254.932 15.7251 255.39 15.4468 255.578 15.0383H257.365C257.096 16.3087 255.955 17.1347 254.254 17.1347C252.14 17.1347 250.842 15.77 250.842 13.5839C250.842 11.4561 252.158 10.0152 254.178 10.0152C255.987 10.0152 257.414 11.1599 257.414 13.5121ZM252.701 12.8612H255.641C255.632 12.0262 255.053 11.4202 254.214 11.4202C253.347 11.4202 252.746 12.0711 252.701 12.8612ZM260.471 19.5856H258.59V10.105H260.444V11.2631H260.529C260.785 10.7065 261.333 10.0152 262.491 10.0152C264.017 10.0152 265.292 11.2003 265.292 13.5615C265.292 15.8643 264.067 17.1122 262.491 17.1122C261.369 17.1122 260.794 16.4658 260.529 15.9002H260.471V19.5856ZM260.431 13.5525C260.431 14.7914 260.965 15.6129 261.903 15.6129C262.855 15.6129 263.371 14.769 263.371 13.5525C263.371 12.345 262.864 11.519 261.903 11.519C260.956 11.519 260.431 12.309 260.431 13.5525ZM267.604 17.1122C267.016 17.1122 266.526 16.6364 266.535 16.0483C266.526 15.4648 267.016 14.989 267.604 14.989C268.169 14.989 268.663 15.4648 268.667 16.0483C268.663 16.6364 268.169 17.1122 267.604 17.1122ZM276.305 17.1975C274.002 17.193 272.606 15.4334 272.615 12.4123C272.62 9.40021 274.011 7.68094 276.305 7.68094C278.599 7.68094 280 9.40918 279.995 12.4123C279.995 15.4423 278.603 17.1975 276.305 17.1975ZM276.305 15.6084C277.369 15.6084 278.051 14.5401 278.051 12.4123C278.047 10.3115 277.365 9.25207 276.305 9.25207C275.246 9.25207 274.563 10.3115 274.559 12.4123C274.554 14.5401 275.241 15.6084 276.305 15.6084ZM287.899 17H281.314L281.309 15.6219L284.613 12.5829C285.466 11.7614 285.929 11.2541 285.933 10.518C285.929 9.70546 285.309 9.20269 284.474 9.20269C283.608 9.20269 283.038 9.74586 283.042 10.6302H281.229C281.224 8.83011 282.557 7.68094 284.488 7.68094C286.463 7.68094 287.769 8.80318 287.774 10.3968C287.769 11.4427 287.262 12.3046 285.367 14.0193L283.967 15.3705V15.4334H287.899V17Z" fill="white"/>
<rect x="401" width="80" height="25" rx="12.5" fill="#565DA1"/>
<path d="M422.881 10.4372H421.045C420.973 9.70546 420.394 9.27901 419.46 9.27901C418.495 9.27901 417.957 9.72341 417.957 10.3294C417.943 11.0028 418.63 11.299 419.424 11.4831L420.255 11.6851C421.826 12.0397 422.998 12.8432 423.007 14.3785C422.998 16.0573 421.687 17.1302 419.447 17.1302C417.229 17.1302 415.811 16.1022 415.757 14.136H417.611C417.674 15.0608 418.41 15.5231 419.424 15.5231C420.425 15.5231 421.072 15.0608 421.076 14.3695C421.072 13.7455 420.506 13.4537 419.505 13.2068L418.5 12.9599C416.951 12.5829 415.995 11.8108 415.999 10.4551C415.99 8.78971 417.467 7.68094 419.474 7.68094C421.512 7.68094 422.854 8.80767 422.881 10.4372ZM427.2 15.577C427.384 15.5815 427.712 15.559 427.936 15.5456V17.0269C427.739 17.0584 427.402 17.0943 426.944 17.0943C425.579 17.0943 424.655 16.4838 424.664 15.1416V11.519H423.717V10.105H424.664V8.45304H426.545V10.105H427.846V11.519H426.545V14.8857C426.545 15.4334 426.814 15.5635 427.2 15.577ZM435.23 13.5121V14.0373H430.517C430.517 15.0832 431.136 15.7251 432.101 15.7251C432.748 15.7251 433.206 15.4468 433.394 15.0383H435.181C434.911 16.3087 433.771 17.1347 432.07 17.1347C429.956 17.1347 428.658 15.77 428.658 13.5839C428.658 11.4561 429.974 10.0152 431.994 10.0152C433.803 10.0152 435.23 11.1599 435.23 13.5121ZM430.517 12.8612H433.457C433.448 12.0262 432.869 11.4202 432.03 11.4202C431.163 11.4202 430.562 12.0711 430.517 12.8612ZM438.287 19.5856H436.406V10.105H438.26V11.2631H438.345C438.601 10.7065 439.149 10.0152 440.307 10.0152C441.833 10.0152 443.108 11.2003 443.108 13.5615C443.108 15.8643 441.883 17.1122 440.307 17.1122C439.185 17.1122 438.61 16.4658 438.345 15.9002H438.287V19.5856ZM438.246 13.5525C438.246 14.7914 438.781 15.6129 439.719 15.6129C440.671 15.6129 441.187 14.769 441.187 13.5525C441.187 12.345 440.679 11.519 439.719 11.519C438.772 11.519 438.246 12.309 438.246 13.5525ZM445.419 17.1122C444.831 17.1122 444.342 16.6364 444.351 16.0483C444.342 15.4648 444.831 14.989 445.419 14.989C445.985 14.989 446.479 15.4648 446.483 16.0483C446.479 16.6364 445.985 17.1122 445.419 17.1122ZM454.121 17.1975C451.818 17.193 450.422 15.4334 450.431 12.4123C450.436 9.40021 451.827 7.68094 454.121 7.68094C456.415 7.68094 457.815 9.40918 457.811 12.4123C457.811 15.4423 456.419 17.1975 454.121 17.1975ZM454.121 15.6084C455.185 15.6084 455.867 14.5401 455.867 12.4123C455.863 10.3115 455.18 9.25207 454.121 9.25207C453.062 9.25207 452.379 10.3115 452.375 12.4123C452.37 14.5401 453.057 15.6084 454.121 15.6084ZM462.541 17.1257C460.517 17.1257 459.071 16.0169 459.04 14.4144H460.966C460.997 15.0922 461.662 15.5456 462.546 15.5456C463.462 15.5456 464.117 15.0383 464.113 14.2977C464.117 13.548 463.453 13.0183 462.371 13.0183H461.518V11.6043H462.371C463.282 11.6043 463.915 11.1105 463.911 10.3833C463.915 9.68301 463.372 9.20269 462.559 9.20269C461.747 9.20269 461.083 9.65608 461.056 10.3608H459.224C459.256 8.78073 460.683 7.68094 462.568 7.68094C464.481 7.68094 465.76 8.81664 465.751 10.2666C465.76 11.299 465.042 12.0307 464.005 12.2148V12.2866C465.361 12.4527 466.106 13.2742 466.097 14.4233C466.106 15.9945 464.611 17.1257 462.541 17.1257Z" fill="white"/>
<rect x="579" width="80" height="25" rx="12.5" fill="#3617CE"/>
<path d="M600.76 10.4372H598.924C598.853 9.70546 598.273 9.27901 597.34 9.27901C596.375 9.27901 595.836 9.72341 595.836 10.3294C595.822 11.0028 596.509 11.299 597.304 11.4831L598.134 11.6851C599.705 12.0397 600.877 12.8432 600.886 14.3785C600.877 16.0573 599.566 17.1302 597.326 17.1302C595.109 17.1302 593.69 16.1022 593.636 14.136H595.49C595.553 15.0608 596.289 15.5231 597.304 15.5231C598.305 15.5231 598.951 15.0608 598.956 14.3695C598.951 13.7455 598.386 13.4537 597.385 13.2068L596.379 12.9599C594.83 12.5829 593.874 11.8108 593.879 10.4551C593.87 8.78971 595.347 7.68094 597.353 7.68094C599.391 7.68094 600.733 8.80767 600.76 10.4372ZM605.079 15.577C605.263 15.5815 605.591 15.559 605.816 15.5456V17.0269C605.618 17.0584 605.281 17.0943 604.823 17.0943C603.459 17.0943 602.534 16.4838 602.543 15.1416V11.519H601.596V10.105H602.543V8.45304H604.424V10.105H605.726V11.519H604.424V14.8857C604.424 15.4334 604.693 15.5635 605.079 15.577ZM613.11 13.5121V14.0373H608.396C608.396 15.0832 609.016 15.7251 609.981 15.7251C610.627 15.7251 611.085 15.4468 611.274 15.0383H613.06C612.791 16.3087 611.651 17.1347 609.949 17.1347C607.835 17.1347 606.538 15.77 606.538 13.5839C606.538 11.4561 607.853 10.0152 609.873 10.0152C611.682 10.0152 613.11 11.1599 613.11 13.5121ZM608.396 12.8612H611.336C611.327 12.0262 610.748 11.4202 609.909 11.4202C609.043 11.4202 608.441 12.0711 608.396 12.8612ZM616.166 19.5856H614.285V10.105H616.139V11.2631H616.225C616.481 10.7065 617.028 10.0152 618.186 10.0152C619.713 10.0152 620.987 11.2003 620.987 13.5615C620.987 15.8643 619.762 17.1122 618.186 17.1122C617.064 17.1122 616.489 16.4658 616.225 15.9002H616.166V19.5856ZM616.126 13.5525C616.126 14.7914 616.66 15.6129 617.598 15.6129C618.55 15.6129 619.066 14.769 619.066 13.5525C619.066 12.345 618.559 11.519 617.598 11.519C616.651 11.519 616.126 12.309 616.126 13.5525ZM623.299 17.1122C622.711 17.1122 622.222 16.6364 622.231 16.0483C622.222 15.4648 622.711 14.989 623.299 14.989C623.864 14.989 624.358 15.4648 624.363 16.0483C624.358 16.6364 623.864 17.1122 623.299 17.1122ZM632 17.1975C629.698 17.193 628.302 15.4334 628.311 12.4123C628.315 9.40021 629.707 7.68094 632 7.68094C634.294 7.68094 635.695 9.40918 635.69 12.4123C635.69 15.4423 634.299 17.1975 632 17.1975ZM632 15.6084C633.064 15.6084 633.747 14.5401 633.747 12.4123C633.742 10.3115 633.06 9.25207 632 9.25207C630.941 9.25207 630.259 10.3115 630.254 12.4123C630.25 14.5401 630.937 15.6084 632 15.6084ZM643.15 13.8398H644.308V15.3705H643.15V17H641.328V15.3705H636.861V13.8667L640.753 7.80663H643.15V13.8398ZM641.269 9.89848L638.787 13.768V13.8398H641.355V9.89848H641.269Z" fill="white"/>
<path opacity="0.2" d="M416.25 69.8346C416.25 61.9784 416.25 58.0492 418.692 55.6096C421.131 53.168 425.06 53.168 432.917 53.168H437.083C444.94 53.168 448.869 53.168 451.308 55.6096C453.75 58.0492 453.75 61.9784 453.75 69.8346V78.168C453.75 86.0242 453.75 89.9534 451.308 92.393C448.869 94.8346 444.94 94.8346 437.083 94.8346H432.917C425.06 94.8346 421.131 94.8346 418.692 92.393C416.25 89.9534 416.25 86.0242 416.25 78.168V69.8346Z" fill="#3617CE"/>
<path opacity="0.5" d="M421.25 75.8346C421.25 67.9784 421.25 64.0492 423.692 61.6096C426.131 59.168 430.06 59.168 437.917 59.168H442.083C449.94 59.168 453.869 59.168 456.308 61.6096C458.75 64.0492 458.75 67.9784 458.75 75.8346V84.168C458.75 92.0242 458.75 95.9534 456.308 98.393C453.869 100.835 449.94 100.835 442.083 100.835H437.917C430.06 100.835 426.131 100.835 423.692 98.393C421.25 95.9534 421.25 92.0242 421.25 84.168V75.8346Z" fill="#3617CE"/>
<path d="M441.199 73.8879C441.453 74.1413 441.595 74.485 441.595 74.8433V78.8966H445.648C446.007 78.8966 446.35 79.039 446.604 79.2923C446.857 79.5457 446.999 79.8894 446.999 80.2477C446.999 80.606 446.857 80.9497 446.604 81.2031C446.35 81.4565 446.007 81.5988 445.648 81.5988H441.595V85.6521C441.595 86.0105 441.453 86.3541 441.199 86.6075C440.946 86.8609 440.602 87.0032 440.244 87.0032C439.885 87.0032 439.542 86.8609 439.288 86.6075C439.035 86.3541 438.893 86.0105 438.893 85.6521V81.5988H434.839C434.481 81.5988 434.137 81.4565 433.884 81.2031C433.631 80.9497 433.488 80.606 433.488 80.2477C433.488 79.8894 433.631 79.5457 433.884 79.2923C434.137 79.039 434.481 78.8966 434.839 78.8966H438.893V74.8433C438.893 74.485 439.035 74.1413 439.288 73.8879C439.542 73.6345 439.885 73.4922 440.244 73.4922C440.602 73.4922 440.946 73.6345 441.199 73.8879Z" fill="white"/>
<path d="M451.416 94.8491C451.78 94.5657 452.112 94.2345 452.772 93.5741L461.016 85.3282C461.216 85.1303 461.124 84.7866 460.86 84.6928C459.57 84.2432 458.399 83.5067 457.435 82.5386C456.467 81.5747 455.73 80.4036 455.28 79.1136C455.187 78.8491 454.843 78.7574 454.645 78.9574L446.397 87.2011C445.737 87.8616 445.405 88.1928 445.122 88.5574C444.787 88.9886 444.497 89.4532 444.264 89.9449C444.066 90.3616 443.918 90.8074 443.622 91.6949L443.239 92.8407L442.63 94.6637L442.062 96.372C441.991 96.5861 441.981 96.8157 442.033 97.0352C442.085 97.2547 442.197 97.4553 442.356 97.6148C442.516 97.7743 442.717 97.8863 442.936 97.9384C443.155 97.9904 443.385 97.9804 443.599 97.9095L445.308 97.3407L447.13 96.7324L448.276 96.3491C449.164 96.0532 449.61 95.9074 450.026 95.7074C450.518 95.472 450.987 95.1866 451.416 94.8491ZM463.597 82.747C464.027 82.3313 464.37 81.8341 464.607 81.2844C464.843 80.7348 464.967 80.1436 464.972 79.5454C464.977 78.9472 464.863 78.3539 464.637 77.8002C464.41 77.2465 464.076 76.7435 463.653 76.3204C463.23 75.8973 462.727 75.5627 462.173 75.336C461.62 75.1093 461.027 74.9952 460.428 75.0002C459.83 75.0052 459.239 75.1292 458.689 75.3651C458.139 75.601 457.642 75.944 457.226 76.3741L456.962 76.6407C456.836 76.7651 456.742 76.9182 456.688 77.087C456.634 77.2558 456.622 77.4351 456.653 77.6095C456.695 77.8324 456.768 78.1616 456.903 78.5511C457.174 79.3324 457.687 80.3574 458.651 81.322C459.43 82.1073 460.378 82.705 461.422 83.0699C461.814 83.2053 462.141 83.2782 462.364 83.3199C462.538 83.3508 462.717 83.3388 462.886 83.2851C463.055 83.2314 463.208 83.1375 463.333 83.0116L463.597 82.747Z" fill="#3617CE"/>
<path opacity="0.6" d="M82.3586 54.2235C83.1259 53.6633 84.0514 53.3613 85.0015 53.3613C85.9515 53.3613 86.877 53.6633 87.6443 54.2235L106.649 68.0934C109.151 69.9168 107.863 73.8734 104.769 73.8811H65.2312C62.1376 73.8734 60.8521 69.9168 63.3515 68.0934L82.356 54.2235H82.3586ZM87.5624 64.2751C87.5624 63.5959 87.2926 62.9445 86.8123 62.4643C86.332 61.984 85.6807 61.7142 85.0015 61.7142C84.3223 61.7142 83.6709 61.984 83.1906 62.4643C82.7104 62.9445 82.4406 63.5959 82.4406 64.2751C82.4406 64.9543 82.7104 65.6057 83.1906 66.086C83.6709 66.5662 84.3223 66.836 85.0015 66.836C85.6807 66.836 86.332 66.5662 86.8123 66.086C87.2926 65.6057 87.5624 64.9543 87.5624 64.2751Z" fill="#3617CE"/>
<g opacity="0.2">
<path d="M77.9564 89.244H83.0782V76.4395H77.9564V89.244Z" fill="#3617CE"/>
<path d="M86.9196 89.244H92.0414V76.4395H86.9196V89.244Z" fill="#3617CE"/>
<path d="M95.8828 89.244H101.645V76.4395H95.8828V89.244Z" fill="#3617CE"/>
<path d="M67.7127 91.8049H102.285C103.813 91.8049 105.279 92.412 106.359 93.4926C107.44 94.5732 108.047 96.0388 108.047 97.567V98.8475C108.047 99.3568 107.845 99.8454 107.485 100.206C107.124 100.566 106.636 100.768 106.126 100.768H63.8714C62.8112 100.768 61.9507 99.9102 61.9507 98.8475V97.567C61.9507 96.0388 62.5578 94.5732 63.6384 93.4926C64.7189 92.412 66.1845 91.8049 67.7127 91.8049Z" fill="#3617CE"/>
<path d="M68.353 89.244H74.115V76.4395H68.353V89.244Z" fill="#3617CE"/>
</g>
<path fill-rule="evenodd" clip-rule="evenodd" d="M102.925 104.604C108.583 104.604 113.169 100.018 113.169 94.3608C113.169 88.7033 108.583 84.1172 102.925 84.1172C97.2677 84.1172 92.6816 88.7033 92.6816 94.3608C92.6816 100.018 97.2677 104.604 102.925 104.604Z" fill="#3617CE"/>
<path d="M103.741 88.9391C103.957 89.1552 104.079 89.4483 104.079 89.754V93.2112H107.536C107.841 93.2112 108.135 93.3326 108.351 93.5487C108.567 93.7649 108.688 94.058 108.688 94.3636C108.688 94.6693 108.567 94.9624 108.351 95.1785C108.135 95.3946 107.841 95.516 107.536 95.516H104.079V98.9733C104.079 99.2789 103.957 99.572 103.741 99.7881C103.525 100.004 103.232 100.126 102.926 100.126C102.62 100.126 102.327 100.004 102.111 99.7881C101.895 99.572 101.774 99.2789 101.774 98.9733V95.516H98.3165C98.0108 95.516 97.7177 95.3946 97.5016 95.1785C97.2855 94.9624 97.1641 94.6693 97.1641 94.3636C97.1641 94.058 97.2855 93.7649 97.5016 93.5487C97.7177 93.3326 98.0108 93.2112 98.3165 93.2112H101.774V89.754C101.774 89.4483 101.895 89.1552 102.111 88.9391C102.327 88.723 102.62 88.6016 102.926 88.6016C103.232 88.6016 103.525 88.723 103.741 88.9391Z" fill="white"/>
<path opacity="0.6" d="M252.358 91.9812C246.5 91.9812 243.67 92.1924 242 90.5C240.733 89.2165 240 88 240 85.6278V84.5H263.036V85.6278C263 86.6135 263 87.685 263 88.8083V91.9812C263 95.3187 263.036 98.9286 263.036 98.9286H248.929C248.487 98.9286 248.062 98.7503 247.749 98.4331C247.436 98.1158 247.26 97.6855 247.26 97.2368C247.26 96.7882 247.436 96.3579 247.749 96.0406C248.062 95.7233 248.487 95.5451 248.929 95.5451H254.594V91.9812H252.358Z" fill="#3617CE"/>
<path d="M270.104 78.5463C269.855 78.2901 269.535 78.1135 269.185 78.0393C268.835 77.965 268.471 77.9965 268.138 78.1297C267.806 78.2628 267.522 78.4916 267.322 78.7866C267.121 79.0816 267.014 79.4293 267.014 79.7852L267 101.214C267 101.592 267.12 101.96 267.344 102.266C267.568 102.571 267.883 102.798 268.245 102.914C268.607 103.03 268.997 103.029 269.358 102.911C269.719 102.792 270.033 102.564 270.255 102.257L275.176 95.4446L283.798 97.4404C284.175 97.5274 284.571 97.4908 284.926 97.3361C285.28 97.1814 285.575 96.9169 285.766 96.5821C285.957 96.2472 286.034 95.8599 285.986 95.478C285.937 95.0961 285.766 94.74 285.497 94.4628L270.104 78.5463Z" fill="#3617CE"/>
<path opacity="0.2" d="M245.75 55C244.225 55 242.762 55.5795 241.684 56.6109C240.606 57.6424 240 59.0413 240 60.5V84.5H263.005L263.008 78.8333C263.008 77.736 263.351 76.6637 263.993 75.7543C264.635 74.845 265.547 74.1402 266.611 73.7305C267.675 73.3209 268.844 73.2251 269.965 73.4555C271.087 73.686 272.111 74.2321 272.905 75.0237L285.739 87.7983C285.908 87.2813 286 86.7313 286 86.1593V60.5C286 59.0413 285.394 57.6424 284.316 56.6109C283.238 55.5795 281.775 55 280.25 55H245.75Z" fill="#3617CE"/>
<path opacity="0.2" fill-rule="evenodd" clip-rule="evenodd" d="M591.666 85.7638V58.8277C591.666 56.1742 593.807 54.0185 596.456 54.1804C598.817 54.3254 601.606 54.613 603.749 55.1785C606.287 55.8455 609.298 57.2714 611.681 58.5329C612.959 59.2057 614.389 59.5378 615.833 59.4971V96.2304C614.461 96.2311 613.109 95.8941 611.898 95.2492C609.482 93.9636 606.364 92.4701 603.749 91.7813C601.63 91.2207 598.877 90.9355 596.536 90.7881C593.856 90.6189 591.666 88.4512 591.666 85.7638Z" fill="#3617CE"/>
<path d="M610.655 74.7129H605.476M600.298 74.7129H601.851M600.298 81.9629H605.476M609.101 81.9629H610.655M610.655 67.4629H600.298" stroke="#3617CE" stroke-width="1.5" stroke-linecap="round"/>
<path opacity="0.6" fill-rule="evenodd" clip-rule="evenodd" d="M621.521 94.3462C620.53 92.3978 620 90.226 620 88C620 84.3123 621.455 80.7735 624.049 78.1524C626.643 75.5312 630.166 74.0393 633.854 74.0008C635.704 73.9814 637.541 74.3292 639.256 75.0241C639.508 75.126 639.756 75.2351 640.001 75.3512V58.6721C640.001 56.079 637.956 53.9524 635.365 54.0418C632.637 54.1384 629.239 54.4188 626.709 55.1776C624.515 55.8325 621.96 57.1496 619.879 58.3555C618.647 59.0673 617.257 59.4594 615.834 59.4962V96.2295C617.187 96.2295 618.543 95.9008 619.768 95.2483C620.321 94.9545 620.91 94.6497 621.521 94.3462Z" fill="#3617CE"/>
<path d="M633.896 97.9995C635.217 98.0133 636.529 97.7648 637.754 97.2685C638.98 96.7722 640.094 96.0378 641.034 95.1079C641.974 94.178 642.72 93.071 643.229 91.851C643.738 90.6309 644 89.322 644 88C644 86.678 643.738 85.3691 643.229 84.149C642.72 82.929 641.974 81.822 641.034 80.8921C640.094 79.9622 638.98 79.2278 637.754 78.7315C636.529 78.2352 635.217 77.9867 633.896 78.0005C631.262 78.0281 628.745 79.0937 626.892 80.966C625.039 82.8382 624 85.3659 624 88C624 90.6341 625.039 93.1618 626.892 95.034C628.745 96.9063 631.262 97.9719 633.896 97.9995Z" fill="#3617CE"/>
<path fill-rule="evenodd" clip-rule="evenodd" d="M642.25 96.2508C642.411 96.0902 642.629 96 642.856 96C643.083 96 643.301 96.0902 643.462 96.2508L645.749 98.5358C645.91 98.6966 646 98.9148 646 99.1423C646 99.3698 645.91 99.5879 645.749 99.7488C645.588 99.9096 645.37 100 645.142 100C644.914 100 644.696 99.9096 644.535 99.7488L642.251 97.4615C642.09 97.3007 642 97.0828 642 96.8555C642 96.6283 642.09 96.4104 642.251 96.2496L642.25 96.2508Z" fill="#3617CE"/>
<path d="M631 88.75L633.151 91L638 85" stroke="white" stroke-width="1.5" stroke-linecap="round" stroke-linejoin="round"/>
</svg>
