<svg width="720" height="182" viewBox="0 0 720 182" fill="none" xmlns="http://www.w3.org/2000/svg">
<path d="M450 86L455 88.8868V83.1132L450 86ZM720 86L715 83.1132V88.8868L720 86ZM452.978 86.5H454.963V85.5H452.978V86.5ZM456.949 86.5H458.934V85.5H456.949V86.5ZM460.919 86.5H462.904V85.5H460.919V86.5ZM464.89 86.5H466.875V85.5H464.89V86.5ZM468.86 86.5H470.846V85.5H468.86V86.5ZM472.831 86.5H474.816V85.5H472.831V86.5ZM476.801 86.5H478.787V85.5H476.801V86.5ZM480.772 86.5H482.757V85.5H480.772V86.5ZM484.743 86.5H486.728V85.5H484.743V86.5ZM488.713 86.5H490.699V85.5H488.713V86.5ZM492.684 86.5H494.669V85.5H492.684V86.5ZM496.654 86.5H498.64V85.5H496.654V86.5ZM500.625 86.5H502.61V85.5H500.625V86.5ZM504.596 86.5H506.581V85.5H504.596V86.5ZM508.566 86.5H510.551V85.5H508.566V86.5ZM512.537 86.5H514.522V85.5H512.537V86.5ZM516.507 86.5H518.493V85.5H516.507V86.5ZM520.478 86.5H522.463V85.5H520.478V86.5ZM524.449 86.5H526.434V85.5H524.449V86.5ZM528.419 86.5H530.404V85.5H528.419V86.5ZM532.39 86.5H534.375V85.5H532.39V86.5ZM536.36 86.5H538.346V85.5H536.36V86.5ZM540.331 86.5H542.316V85.5H540.331V86.5ZM544.301 86.5H546.287V85.5H544.301V86.5ZM548.272 86.5H550.257V85.5H548.272V86.5ZM552.243 86.5H554.228V85.5H552.243V86.5ZM556.213 86.5H558.198V85.5H556.213V86.5ZM560.184 86.5H562.169V85.5H560.184V86.5ZM564.154 86.5H566.14V85.5H564.154V86.5ZM568.125 86.5H570.11V85.5H568.125V86.5ZM572.095 86.5H574.081V85.5H572.095V86.5ZM576.066 86.5H578.051V85.5H576.066V86.5ZM580.037 86.5H582.022V85.5H580.037V86.5ZM584.007 86.5H585.993V85.5H584.007V86.5ZM587.978 86.5H589.963V85.5H587.978V86.5ZM591.948 86.5H593.934V85.5H591.948V86.5ZM595.919 86.5H597.904V85.5H595.919V86.5ZM599.89 86.5H601.875V85.5H599.89V86.5ZM603.86 86.5H605.845V85.5H603.86V86.5ZM607.831 86.5H609.816V85.5H607.831V86.5ZM611.801 86.5H613.787V85.5H611.801V86.5ZM615.772 86.5H617.757V85.5H615.772V86.5ZM619.742 86.5H621.728V85.5H619.742V86.5ZM623.713 86.5H625.698V85.5H623.713V86.5ZM627.684 86.5H629.669V85.5H627.684V86.5ZM631.654 86.5H633.639V85.5H631.654V86.5ZM635.625 86.5H637.61V85.5H635.625V86.5ZM639.595 86.5H641.581V85.5H639.595V86.5ZM643.566 86.5H645.551V85.5H643.566V86.5ZM647.537 86.5H649.522V85.5H647.537V86.5ZM651.507 86.5H653.492V85.5H651.507V86.5ZM655.478 86.5H657.463V85.5H655.478V86.5ZM659.448 86.5H661.434V85.5H659.448V86.5ZM663.419 86.5H665.404V85.5H663.419V86.5ZM667.389 86.5H669.375V85.5H667.389V86.5ZM671.36 86.5H673.345V85.5H671.36V86.5ZM675.331 86.5H677.316V85.5H675.331V86.5ZM679.301 86.5H681.286V85.5H679.301V86.5ZM683.272 86.5H685.257V85.5H683.272V86.5ZM687.242 86.5H689.228V85.5H687.242V86.5ZM691.213 86.5H693.198V85.5H691.213V86.5ZM695.184 86.5H697.169V85.5H695.184V86.5ZM699.154 86.5H701.139V85.5H699.154V86.5ZM703.125 86.5H705.11V85.5H703.125V86.5ZM707.095 86.5H709.081V85.5H707.095V86.5ZM711.066 86.5H713.051V85.5H711.066V86.5ZM715.036 86.5H717.022V85.5H715.036V86.5Z" fill="#EF647D"/>
<path d="M585 162L590 164.887L590 159.113L585 162ZM720 162L715 159.113L715 164.887L720 162ZM587.978 162.5L589.963 162.5L589.963 161.5L587.978 161.5L587.978 162.5ZM591.949 162.5L593.934 162.5L593.934 161.5L591.949 161.5L591.949 162.5ZM595.919 162.5L597.904 162.5L597.904 161.5L595.919 161.5L595.919 162.5ZM599.89 162.5L601.875 162.5L601.875 161.5L599.89 161.5L599.89 162.5ZM603.86 162.5L605.846 162.5L605.846 161.5L603.86 161.5L603.86 162.5ZM607.831 162.5L609.816 162.5L609.816 161.5L607.831 161.5L607.831 162.5ZM611.801 162.5L613.787 162.5L613.787 161.5L611.801 161.5L611.801 162.5ZM615.772 162.5L617.757 162.5L617.757 161.5L615.772 161.5L615.772 162.5ZM619.743 162.5L621.728 162.5L621.728 161.5L619.743 161.5L619.743 162.5ZM623.713 162.5L625.699 162.5L625.699 161.5L623.713 161.5L623.713 162.5ZM627.684 162.5L629.669 162.5L629.669 161.5L627.684 161.5L627.684 162.5ZM631.654 162.5L633.64 162.5L633.64 161.5L631.654 161.5L631.654 162.5ZM635.625 162.5L637.61 162.5L637.61 161.5L635.625 161.5L635.625 162.5ZM639.596 162.5L641.581 162.5L641.581 161.5L639.596 161.5L639.596 162.5ZM643.566 162.5L645.551 162.5L645.551 161.5L643.566 161.5L643.566 162.5ZM647.537 162.5L649.522 162.5L649.522 161.5L647.537 161.5L647.537 162.5ZM651.507 162.5L653.493 162.5L653.493 161.5L651.507 161.5L651.507 162.5ZM655.478 162.5L657.463 162.5L657.463 161.5L655.478 161.5L655.478 162.5ZM659.449 162.5L661.434 162.5L661.434 161.5L659.449 161.5L659.449 162.5ZM663.419 162.5L665.404 162.5L665.404 161.5L663.419 161.5L663.419 162.5ZM667.39 162.5L669.375 162.5L669.375 161.5L667.39 161.5L667.39 162.5ZM671.36 162.5L673.346 162.5L673.346 161.5L671.36 161.5L671.36 162.5ZM675.331 162.5L677.316 162.5L677.316 161.5L675.331 161.5L675.331 162.5ZM679.301 162.5L681.287 162.5L681.287 161.5L679.301 161.5L679.301 162.5ZM683.272 162.5L685.257 162.5L685.257 161.5L683.272 161.5L683.272 162.5ZM687.243 162.5L689.228 162.5L689.228 161.5L687.243 161.5L687.243 162.5ZM691.213 162.5L693.198 162.5L693.198 161.5L691.213 161.5L691.213 162.5ZM695.184 162.5L697.169 162.5L697.169 161.5L695.184 161.5L695.184 162.5ZM699.154 162.5L701.14 162.5L701.14 161.5L699.154 161.5L699.154 162.5ZM703.125 162.5L705.11 162.5L705.11 161.5L703.125 161.5L703.125 162.5ZM707.095 162.5L709.081 162.5L709.081 161.5L707.095 161.5L707.095 162.5ZM711.066 162.5L713.051 162.5L713.051 161.5L711.066 161.5L711.066 162.5ZM715.037 162.5L717.022 162.5L717.022 161.5L715.037 161.5L715.037 162.5Z" fill="#EF647D"/>
<rect opacity="0.07" x="5" y="65" width="135" height="117" rx="20" fill="#EF647D"/>
<rect x="8" y="68" width="129" height="111" rx="18" fill="white"/>
<path d="M66.2061 116.816V129.258H64.4697V123.023H61.9951V121.602H64.4697V116.816H66.2061ZM55.5967 125.73C58.7412 124.179 60.0469 122.21 60.3066 119.482H56.1846V118.115H62.0635C62.0566 121.868 60.8398 124.944 56.499 127.098L55.5967 125.73ZM72.8916 118.02V122.818H69.8428V125.047C71.0254 125.033 72.1465 124.985 73.4248 124.787L73.5479 126.182C71.9209 126.455 70.5742 126.496 69.0361 126.496H68.1748V121.424H71.21V119.428H68.1611V118.02H72.8916ZM74.1221 128.656V117.021H75.7217V121.52H76.9248V116.816H78.5791V129.258H76.9248V122.928H75.7217V128.656H74.1221ZM90.4326 116.816V129.285H88.6826V122.996H86.4404V121.602H88.6826V116.816H90.4326ZM79.8643 125.594C81.8672 124.698 82.8379 122.579 82.8447 120.713V120.234H80.2607V118.84H82.8447V117.09H84.5947V118.84H87.1104V120.234H84.5811V120.713C84.5742 122.511 85.5723 124.521 87.6025 125.402L86.6729 126.742C85.2578 126.154 84.2666 124.965 83.7197 123.55C83.1865 125.054 82.2021 126.318 80.7803 126.934L79.8643 125.594Z" fill="#EF647D"/>
<path d="M150 85L145 87.8868V82.1132L150 85ZM69.3333 107C69.3333 105.527 70.5272 104.333 72 104.333C73.4728 104.333 74.6667 105.527 74.6667 107C74.6667 108.473 73.4728 109.667 72 109.667C70.5272 109.667 69.3333 108.473 69.3333 107ZM82 84.5H145.5V85.5H82V84.5ZM72.5 95V107H71.5V95H72.5ZM82 85.5C76.7533 85.5 72.5 89.7533 72.5 95H71.5C71.5 89.201 76.201 84.5 82 84.5V85.5Z" fill="#EF647D"/>
<path d="M150 161L145 158.113V163.887L150 161ZM69.3333 140C69.3333 141.473 70.5272 142.667 72 142.667C73.4728 142.667 74.6667 141.473 74.6667 140C74.6667 138.527 73.4728 137.333 72 137.333C70.5272 137.333 69.3333 138.527 69.3333 140ZM82 161.5H145.5V160.5H82V161.5ZM72.5 151V140H71.5V151H72.5ZM82 160.5C76.7533 160.5 72.5 156.247 72.5 151H71.5C71.5 156.799 76.201 161.5 82 161.5V160.5Z" fill="#EF647D"/>
<rect x="17" y="74" width="110" height="24" rx="12" fill="#FEF4F6"/>
<path d="M39.5317 80.7422V92.0283H38.5796V80.7422H39.5317ZM29.8579 88.8672C32.3145 87.4136 33.5459 85.376 33.7427 83.0146H30.3657V82.1895H34.7329C34.7329 82.7671 34.6821 83.3384 34.5806 83.8906H36.2944V81.0469H37.2466V91.457H36.2944V87.5469H34.1997V86.7217H36.2944V84.7158H34.3838C33.8379 86.6265 32.6001 88.3149 30.4673 89.5908L29.8579 88.8672ZM51.605 82.4941V83.3066H49.9292V84.8936H51.605V85.7441H49.9292V87.458H48.939V80.7422H49.9292V82.4941H51.605ZM41.3218 84.0811C41.3154 82.5132 42.5723 81.4214 44.2798 81.4277C46 81.4214 47.2378 82.5132 47.2505 84.0811C47.2378 85.668 46 86.7534 44.2798 86.7598C42.5723 86.7534 41.3154 85.668 41.3218 84.0811ZM42.2993 84.0811C42.293 85.1665 43.1372 85.9092 44.2798 85.8965C45.4351 85.9092 46.2666 85.1665 46.2729 84.0811C46.2666 83.021 45.4351 82.2847 44.2798 82.2783C43.1372 82.2847 42.293 83.021 42.2993 84.0811ZM42.5405 88.8037V87.9785H49.9292V92.0283H48.939V88.8037H42.5405ZM57.4829 80.9453C59.9902 80.9453 61.4629 81.6372 61.4692 82.8877C61.4629 84.1699 59.9902 84.8618 57.4829 84.8682C54.9629 84.8618 53.4839 84.1699 53.4839 82.8877C53.4839 81.6372 54.9629 80.9453 57.4829 80.9453ZM52.3413 86.4424V85.6299H62.6245V86.4424H52.3413ZM53.5854 88.1816V87.4199H61.3042V89.9463H54.6011V91.1143H61.647V91.9014H53.6108V89.21H60.3267V88.1816H53.5854ZM54.5249 82.8877C54.5122 83.6748 55.6104 84.1064 57.4829 84.1064C59.3555 84.1064 60.4473 83.6748 60.4536 82.8877C60.4473 82.145 59.3555 81.7007 57.4829 81.6943C55.6104 81.7007 54.5122 82.145 54.5249 82.8877ZM77.1226 86.7344V87.5469H66.8267V86.7344H71.4731V85.6172H68.1978V81.0723H75.8403V81.8848H69.2007V82.9385H75.5356V83.7002H69.2007V84.8174H75.9038V85.6172H72.4634V86.7344H77.1226ZM68.0835 90.2002C68.0771 89.0259 69.48 88.3848 71.981 88.3975C74.4565 88.3848 75.853 89.0259 75.8657 90.2002C75.853 91.3872 74.4565 92.0029 71.981 92.0029C69.48 92.0029 68.0771 91.3872 68.0835 90.2002ZM69.0864 90.2002C69.0737 90.8857 70.1147 91.2412 71.981 91.2285C73.8281 91.2412 74.8564 90.8857 74.8628 90.2002C74.8564 89.5273 73.8281 89.1528 71.981 89.1465C70.1147 89.1528 69.0737 89.5273 69.0864 90.2002ZM86.8979 80.7549V84.4746H88.5991V85.3125H86.8979V89.21H85.9077V80.7549H86.8979ZM78.1001 82.9512V82.1387H80.9692V80.7549H81.9595V82.1387H84.8286V82.9512H78.1001ZM78.7476 85.6807C78.7412 84.3984 79.833 83.5732 81.4644 83.5732C83.0767 83.5732 84.1685 84.3984 84.1812 85.6807C84.1685 86.9502 83.0767 87.769 81.4644 87.7627C79.833 87.769 78.7412 86.9502 78.7476 85.6807ZM79.6997 85.6807C79.6934 86.4741 80.3979 86.9883 81.4644 86.9756C82.5181 86.9883 83.229 86.4741 83.2417 85.6807C83.229 84.8745 82.5181 84.354 81.4644 84.3604C80.3979 84.354 79.6934 84.8745 79.6997 85.6807ZM79.8394 91.7871V88.5371H80.8169V90.9492H87.4185V91.7871H79.8394ZM101.917 80.7422V92.0283H100.926V86.1123H98.2349V85.2871H100.926V80.7422H101.917ZM92.5854 89.083C95.6387 87.604 97.0542 85.4268 97.2573 82.7861H93.0806V81.9736H98.2603C98.2539 85.1729 96.9019 88.0103 93.1313 89.8828L92.5854 89.083ZM108.417 81.9736V85.9219H105.154V88.4863C106.455 88.48 107.68 88.4292 109.14 88.1816L109.229 88.9941C107.623 89.2734 106.347 89.3242 104.925 89.3242H104.189V85.0967H107.452V82.8115H104.164V81.9736H108.417ZM109.927 91.4443V80.9961H110.841V85.2109H112.504V80.7422H113.457V92.0283H112.504V86.0361H110.841V91.4443H109.927Z" fill="#EF647D"/>
<rect x="17" y="149" width="110" height="24" rx="12" fill="#FEF4F6"/>
<path d="M45.1494 155.742V167.028H44.1973V155.742H45.1494ZM35.4756 163.867C37.9321 162.414 39.1636 160.376 39.3604 158.015H35.9834V157.189H40.3506C40.3506 157.767 40.2998 158.338 40.1982 158.891H41.9121V156.047H42.8643V166.457H41.9121V162.547H39.8174V161.722H41.9121V159.716H40.0015C39.4556 161.626 38.2178 163.315 36.085 164.591L35.4756 163.867ZM57.2227 157.494V158.307H55.5469V159.894H57.2227V160.744H55.5469V162.458H54.5566V155.742H55.5469V157.494H57.2227ZM46.9395 159.081C46.9331 157.513 48.1899 156.421 49.8975 156.428C51.6177 156.421 52.8555 157.513 52.8682 159.081C52.8555 160.668 51.6177 161.753 49.8975 161.76C48.1899 161.753 46.9331 160.668 46.9395 159.081ZM47.917 159.081C47.9106 160.167 48.7549 160.909 49.8975 160.896C51.0527 160.909 51.8843 160.167 51.8906 159.081C51.8843 158.021 51.0527 157.285 49.8975 157.278C48.7549 157.285 47.9106 158.021 47.917 159.081ZM48.1582 163.804V162.979H55.5469V167.028H54.5566V163.804H48.1582ZM64.916 156.479C66.687 156.491 67.9438 157.558 67.9502 159.132C67.9438 160.554 66.9155 161.563 65.4111 161.741V163.664C66.5283 163.607 67.6709 163.512 68.7373 163.347L68.8135 164.083C66.23 164.565 63.4561 164.572 61.4248 164.578L61.2852 163.74C62.2056 163.74 63.2783 163.74 64.4082 163.702V161.741C62.8975 161.557 61.8628 160.554 61.8691 159.132C61.8628 157.558 63.1323 156.491 64.916 156.479ZM62.8467 159.132C62.8403 160.179 63.71 160.916 64.916 160.909C66.1094 160.916 66.979 160.179 66.9727 159.132C66.979 158.072 66.1094 157.354 64.916 157.354C63.71 157.354 62.8403 158.072 62.8467 159.132ZM69.4863 167.054V155.742H70.4766V167.054H69.4863ZM76.1514 156.567C77.9224 156.574 79.1792 157.653 79.1855 159.221C79.1792 160.795 77.9224 161.868 76.1514 161.874C74.3677 161.868 73.0981 160.795 73.1045 159.221C73.0981 157.653 74.3677 156.574 76.1514 156.567ZM72.5205 163.715C74.6025 163.721 77.478 163.702 79.9727 163.334L80.0488 164.07C77.4653 164.553 74.6914 164.565 72.6602 164.565L72.5205 163.715ZM74.082 159.221C74.0757 160.274 74.9453 160.998 76.1514 160.998C77.3447 160.998 78.2144 160.274 78.208 159.221C78.2144 158.173 77.3447 157.443 76.1514 157.443C74.9453 157.443 74.0757 158.173 74.082 159.221ZM80.7217 167.054V155.742H81.7119V167.054H80.7217ZM96.2988 155.742V167.028H95.3086V161.112H92.6172V160.287H95.3086V155.742H96.2988ZM86.9678 164.083C90.021 162.604 91.4365 160.427 91.6396 157.786H87.4629V156.974H92.6426C92.6362 160.173 91.2842 163.01 87.5137 164.883L86.9678 164.083ZM102.799 156.974V160.922H99.5361V163.486C100.837 163.48 102.062 163.429 103.522 163.182L103.611 163.994C102.005 164.273 100.729 164.324 99.3076 164.324H98.5713V160.097H101.834V157.812H98.5459V156.974H102.799ZM104.31 166.444V155.996H105.224V160.211H106.887V155.742H107.839V167.028H106.887V161.036H105.224V166.444H104.31Z" fill="#EF647D"/>
<rect x="150" y="65" width="135" height="36" rx="18" fill="#F4F0FA"/>
<path d="M203.691 76.541V77.6621C203.685 78.8242 203.685 80.0889 203.37 81.832H205.018V83.2402H200.164V88.2715H198.414V83.2402H193.67V81.832H201.6C201.921 80.2324 201.948 79.0088 201.955 77.9355H194.969V76.541H203.691ZM216.557 75.8164V88.2578H214.889V81.9824H213.768V87.6836H212.113V75.9941H213.768V80.5605H214.889V75.8164H216.557ZM206.125 85.127V77.1016H211.074V85.127H206.125ZM207.752 83.7598H209.447V78.4824H207.752V83.7598ZM229.244 82.9941V84.3613H224.377V88.2578H222.654V84.3613H217.855V82.9941H229.244ZM219.195 81.791V76.2949H220.918V77.7305H226.141V76.2949H227.891V81.791H219.195ZM220.918 80.3965H226.141V79.0977H220.918V80.3965ZM234.672 78.6328C234.679 80.9707 235.622 83.2471 237.693 84.1426L236.627 85.5371C235.246 84.8672 234.316 83.623 233.797 82.085C233.264 83.7188 232.307 85.0586 230.885 85.7559L229.791 84.334C231.924 83.3701 232.895 80.9707 232.908 78.6328V76.7734H234.672V78.6328ZM236.299 81.1348V79.7266H238.746V75.8164H240.469V88.2852H238.746V81.1348H236.299Z" fill="#8767CC"/>
<rect opacity="0.1" x="450" y="106" width="270" height="36" rx="18" fill="#808699"/>
<path d="M566.264 120.207C566.257 122.101 567.269 124.288 569.312 125.238L568.342 126.605C566.954 125.97 565.97 124.698 565.409 123.208C564.855 124.849 563.83 126.243 562.395 126.92L561.383 125.539C563.454 124.575 564.5 122.265 564.514 120.207V119.441H561.875V118.02H568.766V119.441H566.264V120.207ZM569.736 129.258V116.816H571.486V121.561H573.318V123.023H571.486V129.258H569.736ZM583.805 117.377V118.375C583.812 119.346 583.812 120.419 583.511 121.848H585.158V123.256H573.77V121.848H581.754C582.021 120.61 582.055 119.646 582.068 118.771H575.164V117.377H583.805ZM575.123 129.121V124.568H583.764V129.121H575.123ZM576.832 127.727H582.027V125.936H576.832V127.727ZM597.244 123.994V125.361H592.377V129.258H590.654V125.361H585.855V123.994H597.244ZM587.195 122.791V117.295H588.918V118.73H594.141V117.295H595.891V122.791H587.195ZM588.918 121.396H594.141V120.098H588.918V121.396ZM602.672 119.633C602.679 121.971 603.622 124.247 605.693 125.143L604.627 126.537C603.246 125.867 602.316 124.623 601.797 123.085C601.264 124.719 600.307 126.059 598.885 126.756L597.791 125.334C599.924 124.37 600.895 121.971 600.908 119.633V117.773H602.672V119.633ZM604.299 122.135V120.727H606.746V116.816H608.469V129.285H606.746V122.135H604.299Z" fill="#808699"/>
<rect x="295" y="65" width="135" height="36" rx="18" fill="#EAE7F5"/>
<path d="M349.129 75.8164V88.2578H347.393V75.8164H349.129ZM338.725 84.7441C339.675 84.7373 340.762 84.7373 341.896 84.71V83.6572C340.536 83.4111 339.647 82.5635 339.654 81.3945C339.647 80.0068 340.912 79.0566 342.744 79.0566C344.59 79.0566 345.875 80.0068 345.875 81.3945C345.875 82.5566 344.986 83.4043 343.619 83.6572V84.6484C344.665 84.6006 345.711 84.5186 346.709 84.3887L346.832 85.6738C344.104 86.1455 341.172 86.1729 338.957 86.166L338.725 84.7441ZM338.971 78.5645V77.1973H341.896V75.8711H343.633V77.1973H346.531V78.5645H338.971ZM341.309 81.3945C341.302 82.0508 341.896 82.4062 342.744 82.4062C343.619 82.4062 344.207 82.0508 344.207 81.3945C344.207 80.752 343.619 80.3896 342.744 80.3828C341.896 80.3896 341.302 80.752 341.309 81.3945ZM361.557 75.8164V88.2578H359.916V75.8164H361.557ZM350.578 84.4434C353.101 82.9531 354.208 81.1416 354.447 78.7012H351.303V77.293H356.184C356.184 77.915 356.143 78.5166 356.067 79.0977H357.305V76.0898H358.959V87.7109H357.305V83.6094H355.541V82.2012H357.305V80.5059H355.78C355.199 82.5635 353.928 84.293 351.604 85.6738L350.578 84.4434ZM374.244 82.9941V84.3613H369.377V88.2578H367.654V84.3613H362.855V82.9941H374.244ZM364.195 81.791V76.2949H365.918V77.7305H371.141V76.2949H372.891V81.791H364.195ZM365.918 80.3965H371.141V79.0977H365.918V80.3965ZM379.672 78.6328C379.679 80.9707 380.622 83.2471 382.693 84.1426L381.627 85.5371C380.246 84.8672 379.316 83.623 378.797 82.085C378.264 83.7188 377.307 85.0586 375.885 85.7559L374.791 84.334C376.924 83.3701 377.895 80.9707 377.908 78.6328V76.7734H379.672V78.6328ZM381.299 81.1348V79.7266H383.746V75.8164H385.469V88.2852H383.746V81.1348H381.299Z" fill="#250E97"/>
<rect x="295" y="146" width="135" height="36" rx="18" fill="#EFEFF6"/>
<path d="M345.643 157.719V158.498C345.643 159.359 345.643 160.604 345.355 162.148L343.646 161.984C343.872 160.795 343.927 159.886 343.94 159.141H339.244V157.719H345.643ZM338.506 163.051C339.203 163.051 339.989 163.051 340.816 163.03V160.59H342.553V162.976C343.797 162.921 345.062 162.825 346.23 162.654L346.326 163.912C343.735 164.391 340.823 164.438 338.656 164.445L338.506 163.051ZM340.338 169.039V165.293H342.088V167.645H349.074V169.039H340.338ZM346.9 166.127V156.816H348.691V160.604H350.195V162.066H348.691V166.127H346.9ZM361.625 156.816V169.258H359.957V163.023H358.904V168.684H357.25V165.122L356.266 166.428C355.11 165.819 354.365 164.787 353.921 163.522C353.511 164.979 352.779 166.168 351.59 166.879L350.51 165.539C352.403 164.473 353.032 162.271 353.039 159.893V159.496H350.934V158.102H356.635V159.496H354.734V159.893C354.734 162.06 355.377 164.124 357.25 165.095V156.994H358.904V161.602H359.957V156.816H361.625ZM374.244 163.994V165.361H369.377V169.258H367.654V165.361H362.855V163.994H374.244ZM364.195 162.791V157.295H365.918V158.73H371.141V157.295H372.891V162.791H364.195ZM365.918 161.396H371.141V160.098H365.918V161.396ZM379.672 159.633C379.679 161.971 380.622 164.247 382.693 165.143L381.627 166.537C380.246 165.867 379.316 164.623 378.797 163.085C378.264 164.719 377.307 166.059 375.885 166.756L374.791 165.334C376.924 164.37 377.895 161.971 377.908 159.633V157.773H379.672V159.633ZM381.299 162.135V160.727H383.746V156.816H385.469V169.285H383.746V162.135H381.299Z" fill="#565EA1"/>
<rect x="150" y="146" width="135" height="36" rx="18" fill="#EBE8FB"/>
<path d="M198.25 159.633C198.243 161.861 199.193 164.11 201.189 165.074L200.137 166.469C198.804 165.806 197.901 164.575 197.389 163.078C196.842 164.685 195.885 166.004 194.477 166.701L193.396 165.293C195.509 164.322 196.5 161.943 196.5 159.633V157.773H198.25V159.633ZM201.736 169.258V156.816H203.486V161.615H205.318V163.092H203.486V169.258H201.736ZM209.242 157.35C210.828 157.336 212.093 158.245 212.435 159.578H214.52V156.816H216.256V163.502H214.52V160.973H212.441C212.12 162.34 210.842 163.27 209.242 163.27C207.328 163.27 205.92 162.025 205.934 160.289C205.92 158.587 207.328 157.336 209.242 157.35ZM207.588 160.289C207.581 161.219 208.265 161.807 209.242 161.807C210.186 161.807 210.862 161.219 210.869 160.289C210.862 159.359 210.186 158.792 209.242 158.799C208.265 158.792 207.581 159.359 207.588 160.289ZM207.957 169.121V164.049H209.68V165.252H214.52V164.049H216.256V169.121H207.957ZM209.68 167.713H214.52V166.592H209.68V167.713ZM229.244 163.994V165.361H224.377V169.258H222.654V165.361H217.855V163.994H229.244ZM219.195 162.791V157.295H220.918V158.73H226.141V157.295H227.891V162.791H219.195ZM220.918 161.396H226.141V160.098H220.918V161.396ZM234.672 159.633C234.679 161.971 235.622 164.247 237.693 165.143L236.627 166.537C235.246 165.867 234.316 164.623 233.797 163.085C233.264 164.719 232.307 166.059 230.885 166.756L229.791 165.334C231.924 164.37 232.895 161.971 232.908 159.633V157.773H234.672V159.633ZM236.299 162.135V160.727H238.746V156.816H240.469V169.285H238.746V162.135H236.299Z" fill="#3617CE"/>
<rect x="530" y="74" width="110" height="24" rx="12" fill="#FEF0F2"/>
<path d="M548.241 80.7422V86.5186H547.238V85.3379H544.229V84.5508H547.238V83.1924H544.394C543.689 84.9697 541.938 86.1694 539.43 86.7725L539.075 85.9473C541.842 85.3062 543.448 83.9604 543.639 82.1387H539.646V81.3135H544.737C544.737 81.688 544.699 82.0498 544.629 82.3926H547.238V80.7422H548.241ZM540.928 87.8389V87.0264H548.241V89.7812H541.944V91.1016H548.622V91.9268H540.954V89.0195H547.238V87.8389H540.928ZM559.768 80.7422V92.0283H558.816V80.7422H559.768ZM549.98 89.0195C551.554 88.0801 552.475 86.0171 552.468 83.9668V82.9004H550.297V82.0752H555.502V82.9004H553.433V83.9668C553.433 85.9155 554.315 87.8643 555.871 88.7656L555.261 89.502C554.15 88.8354 553.363 87.6167 552.97 86.1821C552.563 87.7373 551.745 89.064 550.615 89.7686L549.98 89.0195ZM554.639 85.6299V84.8174H556.543V81.0215H557.483V91.4443H556.543V85.6299H554.639ZM571.029 80.7422V92.0283H570.064V80.7422H571.029ZM561.495 85.6172C561.501 83.2178 562.453 81.7007 563.919 81.6943C564.884 81.7007 565.627 82.3545 566.033 83.4844H567.83V80.9834H568.782V91.457H567.83V87.75H566.033C565.633 88.8862 564.884 89.5464 563.919 89.54C562.453 89.5464 561.501 88.0166 561.495 85.6172ZM562.421 85.6172C562.415 87.4453 562.993 88.6006 563.919 88.5879C564.84 88.6006 565.43 87.4453 565.43 85.6172C565.43 83.7827 564.84 82.6338 563.919 82.6338C562.993 82.6338 562.415 83.7827 562.421 85.6172ZM566.243 84.3096C566.319 84.7095 566.357 85.1475 566.357 85.6172C566.357 86.0806 566.319 86.5186 566.249 86.9121H567.83V84.3096H566.243ZM581.947 80.7422V87.4707H580.944V84.5127H578.671V83.6875H580.944V80.7422H581.947ZM572.641 86.5693C574.317 85.9663 575.51 84.4365 575.51 82.8242V82.4053H572.958V81.5674H579.04V82.4053H576.513V82.8115C576.513 84.2842 577.643 85.687 579.293 86.252L578.773 87.0518C577.51 86.5947 576.526 85.6426 576.037 84.481C575.555 85.8013 574.507 86.855 573.162 87.3691L572.641 86.5693ZM574.418 89.9209C574.412 88.5942 575.853 87.8198 578.202 87.8262C580.544 87.8198 581.985 88.5942 581.985 89.9209C581.985 91.2539 580.544 92.0156 578.202 92.0283C575.853 92.0156 574.412 91.2539 574.418 89.9209ZM575.409 89.9209C575.402 90.7397 576.469 91.2349 578.202 91.2285C579.928 91.2349 580.995 90.7397 580.995 89.9209C580.995 89.0957 579.928 88.6006 578.202 88.6006C576.469 88.6006 575.402 89.0957 575.409 89.9209ZM596.445 80.7422V87.4707H595.442V84.5127H593.169V83.6875H595.442V80.7422H596.445ZM587.139 86.5693C588.815 85.9663 590.008 84.4365 590.008 82.8242V82.4053H587.457V81.5674H593.538V82.4053H591.011V82.8115C591.011 84.2842 592.141 85.687 593.792 86.252L593.271 87.0518C592.008 86.5947 591.024 85.6426 590.535 84.481C590.053 85.8013 589.005 86.855 587.66 87.3691L587.139 86.5693ZM588.917 89.9209C588.91 88.5942 590.351 87.8198 592.7 87.8262C595.042 87.8198 596.483 88.5942 596.483 89.9209C596.483 91.2539 595.042 92.0156 592.7 92.0283C590.351 92.0156 588.91 91.2539 588.917 89.9209ZM589.907 89.9209C589.9 90.7397 590.967 91.2349 592.7 91.2285C594.426 91.2349 595.493 90.7397 595.493 89.9209C595.493 89.0957 594.426 88.6006 592.7 88.6006C590.967 88.6006 589.9 89.0957 589.907 89.9209ZM608.658 89.7559V90.5811H598.324V89.7559H602.97V87.3184H599.542V81.542H600.545V83.5859H606.411V81.542H607.388V87.3184H603.948V89.7559H608.658ZM600.545 86.5059H606.411V84.3984H600.545V86.5059ZM619.208 80.7422V92.0283H618.255V80.7422H619.208ZM609.419 89.0195C610.994 88.0801 611.914 86.0171 611.908 83.9668V82.9004H609.737V82.0752H614.942V82.9004H612.873V83.9668C612.873 85.9155 613.755 87.8643 615.31 88.7656L614.701 89.502C613.59 88.8354 612.803 87.6167 612.409 86.1821C612.003 87.7373 611.184 89.064 610.054 89.7686L609.419 89.0195ZM614.079 85.6299V84.8174H615.983V81.0215H616.922V91.4443H615.983V85.6299H614.079ZM625.898 87.877C628.316 87.877 629.853 88.6387 629.859 89.9463C629.853 91.2412 628.316 92.0029 625.898 92.0029C623.479 92.0029 621.943 91.2412 621.95 89.9463C621.943 88.6387 623.479 87.877 625.898 87.877ZM620.807 86.8232V86.0107H625.06V83.8271H626.038V86.0107H631.078V86.8232H620.807ZM622.026 82.1387V81.3262H629.77V82.2783C629.764 83.1924 629.764 84.1064 629.453 85.2744L628.475 85.1602C628.78 83.9985 628.78 83.1606 628.78 82.2783V82.1387H622.026ZM622.94 89.9463C622.934 90.7334 624.102 91.2158 625.898 91.2158C627.701 91.2158 628.856 90.7334 628.869 89.9463C628.856 89.1401 627.701 88.645 625.898 88.6387C624.102 88.645 622.934 89.1401 622.94 89.9463Z" fill="#EF647D"/>
<rect x="598" y="150" width="110" height="24" rx="12" fill="#FEF0F2"/>
<path d="M616.241 156.742V162.519H615.238V161.338H612.229V160.551H615.238V159.192H612.394C611.689 160.97 609.938 162.169 607.43 162.772L607.075 161.947C609.842 161.306 611.448 159.96 611.639 158.139H607.646V157.313H612.737C612.737 157.688 612.699 158.05 612.629 158.393H615.238V156.742H616.241ZM608.928 163.839V163.026H616.241V165.781H609.944V167.102H616.622V167.927H608.954V165.02H615.238V163.839H608.928ZM627.768 156.742V168.028H626.816V156.742H627.768ZM617.98 165.02C619.554 164.08 620.475 162.017 620.468 159.967V158.9H618.297V158.075H623.502V158.9H621.433V159.967C621.433 161.916 622.315 163.864 623.871 164.766L623.261 165.502C622.15 164.835 621.363 163.617 620.97 162.182C620.563 163.737 619.745 165.064 618.615 165.769L617.98 165.02ZM622.639 161.63V160.817H624.543V157.021H625.483V167.444H624.543V161.63H622.639ZM632.795 157.275C634.446 157.275 635.595 158.164 635.601 159.51C635.595 160.678 634.687 161.516 633.329 161.687V162.792C634.382 162.734 635.455 162.639 636.439 162.493L636.515 163.242C634.122 163.667 631.418 163.706 629.469 163.699L629.342 162.874C630.218 162.88 631.247 162.874 632.326 162.836V161.693C630.929 161.541 629.996 160.697 630.002 159.51C629.996 158.164 631.145 157.275 632.795 157.275ZM630.942 159.51C630.929 160.367 631.697 160.951 632.795 160.957C633.9 160.951 634.655 160.367 634.662 159.51C634.655 158.634 633.9 158.05 632.795 158.05C631.697 158.05 630.929 158.634 630.942 159.51ZM630.993 167.774V164.639H631.996V166.937H638.572V167.774H630.993ZM637.163 165.388V156.755H638.166V160.576H639.854V161.427H638.166V165.388H637.163ZM650.924 165.794V166.632H640.59V165.794H643.498V163.648H641.885V160.17H648.639V158.405H641.86V157.58H649.617V160.995H642.875V162.823H649.883V163.648H648.119V165.794H650.924ZM644.475 165.794H647.141V163.648H644.475V165.794ZM664.445 156.742V163.471H663.442V160.513H661.169V159.688H663.442V156.742H664.445ZM655.139 162.569C656.815 161.966 658.008 160.437 658.008 158.824V158.405H655.457V157.567H661.538V158.405H659.011V158.812C659.011 160.284 660.141 161.687 661.792 162.252L661.271 163.052C660.008 162.595 659.024 161.643 658.535 160.481C658.053 161.801 657.005 162.855 655.66 163.369L655.139 162.569ZM656.917 165.921C656.91 164.594 658.351 163.82 660.7 163.826C663.042 163.82 664.483 164.594 664.483 165.921C664.483 167.254 663.042 168.016 660.7 168.028C658.351 168.016 656.91 167.254 656.917 165.921ZM657.907 165.921C657.9 166.74 658.967 167.235 660.7 167.229C662.426 167.235 663.493 166.74 663.493 165.921C663.493 165.096 662.426 164.601 660.7 164.601C658.967 164.601 657.9 165.096 657.907 165.921ZM676.658 165.756V166.581H666.324V165.756H670.97V163.318H667.542V157.542H668.545V159.586H674.411V157.542H675.388V163.318H671.948V165.756H676.658ZM668.545 162.506H674.411V160.398H668.545V162.506ZM687.208 156.742V168.028H686.255V156.742H687.208ZM677.419 165.02C678.994 164.08 679.914 162.017 679.908 159.967V158.9H677.737V158.075H682.942V158.9H680.873V159.967C680.873 161.916 681.755 163.864 683.31 164.766L682.701 165.502C681.59 164.835 680.803 163.617 680.409 162.182C680.003 163.737 679.184 165.064 678.054 165.769L677.419 165.02ZM682.079 161.63V160.817H683.983V157.021H684.922V167.444H683.983V161.63H682.079ZM693.898 163.877C696.316 163.877 697.853 164.639 697.859 165.946C697.853 167.241 696.316 168.003 693.898 168.003C691.479 168.003 689.943 167.241 689.95 165.946C689.943 164.639 691.479 163.877 693.898 163.877ZM688.807 162.823V162.011H693.06V159.827H694.038V162.011H699.078V162.823H688.807ZM690.026 158.139V157.326H697.77V158.278C697.764 159.192 697.764 160.106 697.453 161.274L696.475 161.16C696.78 159.999 696.78 159.161 696.78 158.278V158.139H690.026ZM690.94 165.946C690.934 166.733 692.102 167.216 693.898 167.216C695.701 167.216 696.856 166.733 696.869 165.946C696.856 165.14 695.701 164.645 693.898 164.639C692.102 164.645 690.934 165.14 690.94 165.946Z" fill="#EF647D"/>
<rect x="5.5" y="5.5" width="134" height="49" rx="24.5" fill="white" fill-opacity="0.6"/>
<rect x="5.5" y="5.5" width="134" height="49" rx="24.5" stroke="#565EA1" stroke-dasharray="2 2"/>
<path d="M57.1406 22.7656V36.8906H55.4062V29.7031H52.4219V28.2812H55.4062V22.7656H57.1406ZM45.2188 32.9844C48.875 31.1875 50.4453 28.8047 50.7344 25.6406H45.875V24.2656H52.4844C52.4688 28.4375 50.9922 31.9453 46.125 34.3438L45.2188 32.9844ZM64.8906 24.2031V29.4688H61.2344V32.2188C62.6641 32.2031 64.0312 32.1484 65.6094 31.8906L65.7344 33.2969C63.8281 33.6172 62.2812 33.6641 60.5312 33.6719H59.5625V28.0625H63.2188V25.6094H59.5469V24.2031H64.8906ZM66.4531 36.1719V23.0312H68.0469V28.1875H69.6406V22.7656H71.2969V36.8906H69.6406V29.5938H68.0469V36.1719H66.4531ZM75.1719 23.3906V25.1875H78.4688V23.3906H80.1875V29.5469H73.4531V23.3906H75.1719ZM74.875 31.9219V30.5625H84.1094V34.2656H76.6094V35.3906H84.5469V36.7656H74.8906V33H82.375V31.9219H74.875ZM75.1719 28.1719H78.4688V26.5H75.1719V28.1719ZM82.375 30V22.7656H84.1094V25.625H86.0781V27.0312H84.1094V30H82.375ZM91.2031 25.3906C91.2109 26.9141 92.1016 28.4531 93.9531 29.1562L93.0312 30.4844C91.7734 30.0078 90.8984 29.1016 90.3906 28.0078C89.875 29.2656 88.9531 30.3438 87.6094 30.9062L86.6719 29.5781C88.6172 28.7188 89.5234 26.9531 89.5312 25.3906V23.6406H91.2031V25.3906ZM89.2656 34.2656C89.2578 32.6406 91.1328 31.6719 94.1094 31.6719C97.0625 31.6719 98.9453 32.6406 98.9531 34.2656C98.9453 35.8984 97.0625 36.875 94.1094 36.875C91.1328 36.875 89.2578 35.8984 89.2656 34.2656ZM91 34.2656C90.9922 35.1016 92.1484 35.5547 94.1094 35.5469C96.0391 35.5547 97.1953 35.1016 97.2031 34.2656C97.1953 33.4375 96.0391 32.9844 94.1094 32.9844C92.1484 32.9844 90.9922 33.4375 91 34.2656ZM94.1875 31V23.0469H95.8125V26.3438H97.2188V22.7812H98.875V31.4375H97.2188V27.7656H95.8125V31H94.1875Z" fill="#565EA1"/>
<circle cx="13" cy="13" r="13" fill="#565EA1"/>
<path d="M9.45355 18.1975C7.15071 18.193 5.75465 16.4334 5.76363 13.4123C5.76812 10.4002 7.15969 8.68094 9.45355 8.68094C11.7474 8.68094 13.148 10.4092 13.1435 13.4123C13.1435 16.4423 11.7519 18.1975 9.45355 18.1975ZM9.45355 16.6084C10.5174 16.6084 11.1997 15.5401 11.1997 13.4123C11.1953 11.3115 10.5129 10.2521 9.45355 10.2521C8.39415 10.2521 7.71183 11.3115 7.70734 13.4123C7.70286 15.5401 8.38966 16.6084 9.45355 16.6084ZM16.626 8.80663H18.4261V18H16.5138V10.6247H16.46L14.3501 11.9489V10.2521L16.626 8.80663Z" fill="white"/>
<rect x="150.5" y="5.5" width="134" height="49" rx="24.5" fill="white" fill-opacity="0.6"/>
<rect x="150.5" y="5.5" width="134" height="49" rx="24.5" stroke="#565EA1" stroke-dasharray="2 2"/>
<path d="M185.445 22.7812V33.0938H183.711V27.9219H181.211V26.5156H183.711V22.7812H185.445ZM173.586 30.0469C175.836 29.3047 177.039 27.4609 177.039 25.5781V25.2031H174.102V23.7969H181.727V25.2031H178.805V25.5938C178.805 27.2891 179.945 29.0469 182.133 29.7656L181.258 31.1562C179.68 30.6172 178.562 29.5391 177.945 28.2031C177.328 29.6875 176.148 30.875 174.477 31.4531L173.586 30.0469ZM176.18 36.6094V32.1875H177.914V35.2031H185.805V36.6094H176.18ZM200.352 33.8594V35.2656H187.445V33.8594H190.789V30.9531H188.555V29.5469H190.539V25.3594H188.508V23.9688H199.227V25.3594H197.164V29.5469H199.18V30.9531H196.945V33.8594H200.352ZM192.273 29.5469H195.445V25.3594H192.273V29.5469ZM192.523 33.8594H195.211V30.9531H192.523V33.8594ZM205.68 25.3906C205.688 26.9141 206.578 28.4531 208.43 29.1562L207.508 30.4844C206.25 30.0078 205.375 29.1016 204.867 28.0078C204.352 29.2656 203.43 30.3438 202.086 30.9062L201.148 29.5781C203.094 28.7188 204 26.9531 204.008 25.3906V23.6406H205.68V25.3906ZM203.742 34.2656C203.734 32.6406 205.609 31.6719 208.586 31.6719C211.539 31.6719 213.422 32.6406 213.43 34.2656C213.422 35.8984 211.539 36.875 208.586 36.875C205.609 36.875 203.734 35.8984 203.742 34.2656ZM205.477 34.2656C205.469 35.1016 206.625 35.5547 208.586 35.5469C210.516 35.5547 211.672 35.1016 211.68 34.2656C211.672 33.4375 210.516 32.9844 208.586 32.9844C206.625 32.9844 205.469 33.4375 205.477 34.2656ZM208.664 31V23.0469H210.289V26.3438H211.695V22.7812H213.352V31.4375H211.695V27.7656H210.289V31H208.664ZM220.273 24.7969C220.266 26.7188 221.391 28.4766 223.602 29.1719L222.664 30.5312C221.125 29.9844 220.047 28.9531 219.445 27.6172C218.82 29.1562 217.641 30.3672 215.93 30.9688L215.008 29.5625C217.344 28.7969 218.516 26.9141 218.523 24.875V23.5312H220.273V24.7969ZM217.352 34.1719C217.336 32.4531 219.172 31.4453 222.148 31.4531C225.141 31.4453 226.969 32.4531 226.977 34.1719C226.969 35.8906 225.141 36.875 222.148 36.875C219.172 36.875 217.336 35.8906 217.352 34.1719ZM219.07 34.1719C219.062 35.0312 220.188 35.5078 222.148 35.5156C224.125 35.5078 225.242 35.0312 225.242 34.1719C225.242 33.2812 224.125 32.8047 222.148 32.7969C220.188 32.8047 219.062 33.2812 219.07 34.1719ZM222.383 26.9219V25.5H225.195V22.7656H226.93V31.0781H225.195V26.9219H222.383ZM234.023 23.6562L230.383 37.2031H228.633L232.289 23.6562H234.023ZM236.867 23.3906V25.1875H240.164V23.3906H241.883V29.5469H235.148V23.3906H236.867ZM236.57 31.9219V30.5625H245.805V34.2656H238.305V35.3906H246.242V36.7656H236.586V33H244.07V31.9219H236.57ZM236.867 28.1719H240.164V26.5H236.867V28.1719ZM244.07 30V22.7656H245.805V25.625H247.773V27.0312H245.805V30H244.07ZM255.773 27.75V29.5938H261.367V30.9844H248.492V29.5938H254.055V27.75H255.773ZM249.195 27.1875C252.109 26.8203 254.023 25.2188 254.023 23.5312V23H255.789V23.5312C255.789 25.2578 257.688 26.8203 260.633 27.1875L259.961 28.5469C257.648 28.1953 255.797 27.1484 254.898 25.6641C253.992 27.1406 252.148 28.1953 249.82 28.5469L249.195 27.1875ZM249.992 34.3906C249.992 32.8047 251.828 31.8984 254.914 31.9062C257.977 31.8984 259.797 32.8047 259.805 34.3906C259.797 35.9922 257.977 36.875 254.914 36.875C251.828 36.875 249.992 35.9922 249.992 34.3906ZM251.758 34.3906C251.75 35.1641 252.836 35.5625 254.914 35.5625C256.953 35.5625 258.055 35.1641 258.07 34.3906C258.055 33.6172 256.953 33.2344 254.914 33.2344C252.836 33.2344 251.75 33.6172 251.758 34.3906Z" fill="#565EA1"/>
<circle cx="158" cy="13" r="13" fill="#565EA1"/>
<path d="M153.533 18.1975C151.23 18.193 149.834 16.4334 149.843 13.4123C149.848 10.4002 151.239 8.68094 153.533 8.68094C155.827 8.68094 157.228 10.4092 157.223 13.4123C157.223 16.4423 155.831 18.1975 153.533 18.1975ZM153.533 16.6084C154.597 16.6084 155.279 15.5401 155.279 13.4123C155.275 11.3115 154.593 10.2521 153.533 10.2521C152.474 10.2521 151.791 11.3115 151.787 13.4123C151.782 15.5401 152.469 16.6084 153.533 16.6084ZM165.127 18H158.542L158.537 16.6219L161.841 13.5829C162.694 12.7614 163.157 12.2541 163.161 11.518C163.157 10.7055 162.537 10.2027 161.702 10.2027C160.836 10.2027 160.266 10.7459 160.27 11.6302H158.457C158.452 9.83011 159.785 8.68094 161.716 8.68094C163.691 8.68094 164.997 9.80318 165.002 11.3968C164.997 12.4427 164.49 13.3046 162.595 15.0193L161.195 16.3705V16.4334H165.127V18Z" fill="white"/>
<rect x="295.5" y="5.5" width="134" height="49" rx="24.5" fill="white" fill-opacity="0.6"/>
<rect x="295.5" y="5.5" width="134" height="49" rx="24.5" stroke="#565EA1" stroke-dasharray="2 2"/>
<path d="M329.789 22.7656V28.5938H331.773V30.0469H329.789V36.8906H328.039V22.7656H329.789ZM318.445 32.9688C319.516 32.9688 320.758 32.9688 322.055 32.9375V31.6172C320.516 31.3516 319.516 30.3906 319.523 29.0625C319.516 27.4688 320.914 26.4141 322.945 26.4062C324.953 26.4141 326.367 27.4688 326.383 29.0625C326.367 30.3984 325.344 31.3594 323.805 31.6172V32.875C324.992 32.8125 326.18 32.7188 327.289 32.5625L327.398 33.8281C324.367 34.3828 321.102 34.4062 318.695 34.4062L318.445 32.9688ZM318.711 25.7656V24.3906H322.055V22.8281H323.805V24.3906H327.133V25.7656H318.711ZM321.164 29.0625C321.156 29.875 321.875 30.3516 322.945 30.3438C324 30.3516 324.711 29.875 324.711 29.0625C324.711 28.2422 324 27.7422 322.945 27.7344C321.875 27.7422 321.156 28.2422 321.164 29.0625ZM344.633 22.7656V36.8906H342.977V22.7656H344.633ZM332.305 32.6719C335.227 30.9453 336.57 28.7344 336.836 25.8906H333.055V24.4844H338.555C338.555 25.1953 338.508 25.8906 338.406 26.5625H340.055V23.1094H341.711V36.2188H340.055V31.5H337.852V30.0781H340.055V27.9844H338.109C337.438 30.3281 335.969 32.3438 333.32 33.9062L332.305 32.6719ZM353.586 23.625C353.578 27.2656 351.18 29.8203 347.07 30.9688L346.367 29.6094C349.531 28.75 351.406 27.0938 351.727 25.0312H347.133V23.625H353.586ZM348.805 36.7031V31.2969H358.102V36.7031H348.805ZM350.508 35.3281H356.383V32.6719H350.508V35.3281ZM353.648 27.6562V26.2344H356.367V22.7812H358.102V30.7344H356.367V27.6562H353.648ZM371.586 29.875V31.2656H367.414V33.8438H373.008V35.2344H360.102V33.8438H365.664V31.2656H361.68V23.8125H371.461V25.2188H363.445V26.8125H371.133V28.1875H363.445V29.875H371.586ZM379.023 23.6562L375.383 37.2031H373.633L377.289 23.6562H379.023ZM391.492 22.7812V33.0938H389.758V27.9219H387.258V26.5156H389.758V22.7812H391.492ZM379.633 30.0469C381.883 29.3047 383.086 27.4609 383.086 25.5781V25.2031H380.148V23.7969H387.773V25.2031H384.852V25.5938C384.852 27.2891 385.992 29.0469 388.18 29.7656L387.305 31.1562C385.727 30.6172 384.609 29.5391 383.992 28.2031C383.375 29.6875 382.195 30.875 380.523 31.4531L379.633 30.0469ZM382.227 36.6094V32.1875H383.961V35.2031H391.852V36.6094H382.227ZM400.773 27.75V29.5938H406.367V30.9844H393.492V29.5938H399.055V27.75H400.773ZM394.195 27.1875C397.109 26.8203 399.023 25.2188 399.023 23.5312V23H400.789V23.5312C400.789 25.2578 402.688 26.8203 405.633 27.1875L404.961 28.5469C402.648 28.1953 400.797 27.1484 399.898 25.6641C398.992 27.1406 397.148 28.1953 394.82 28.5469L394.195 27.1875ZM394.992 34.3906C394.992 32.8047 396.828 31.8984 399.914 31.9062C402.977 31.8984 404.797 32.8047 404.805 34.3906C404.797 35.9922 402.977 36.875 399.914 36.875C396.828 36.875 394.992 35.9922 394.992 34.3906ZM396.758 34.3906C396.75 35.1641 397.836 35.5625 399.914 35.5625C401.953 35.5625 403.055 35.1641 403.07 34.3906C403.055 33.6172 401.953 33.2344 399.914 33.2344C397.836 33.2344 396.75 33.6172 396.758 34.3906Z" fill="#565EA1"/>
<circle cx="303" cy="13" r="13" fill="#565EA1"/>
<path d="M298.349 18.1975C296.046 18.193 294.65 16.4334 294.659 13.4123C294.664 10.4002 296.055 8.68094 298.349 8.68094C300.643 8.68094 302.043 10.4092 302.039 13.4123C302.039 16.4423 300.647 18.1975 298.349 18.1975ZM298.349 16.6084C299.413 16.6084 300.095 15.5401 300.095 13.4123C300.091 11.3115 299.408 10.2521 298.349 10.2521C297.29 10.2521 296.607 11.3115 296.603 13.4123C296.598 15.5401 297.285 16.6084 298.349 16.6084ZM306.769 18.1257C304.745 18.1257 303.3 17.0169 303.268 15.4144H305.194C305.225 16.0922 305.89 16.5456 306.774 16.5456C307.69 16.5456 308.345 16.0383 308.341 15.2977C308.345 14.548 307.681 14.0183 306.599 14.0183H305.746V12.6043H306.599C307.51 12.6043 308.143 12.1105 308.139 11.3833C308.143 10.683 307.6 10.2027 306.787 10.2027C305.975 10.2027 305.311 10.6561 305.284 11.3608H303.452C303.484 9.78073 304.911 8.68094 306.796 8.68094C308.709 8.68094 309.988 9.81664 309.979 11.2666C309.988 12.299 309.27 13.0307 308.233 13.2148V13.2866C309.589 13.4527 310.334 14.2742 310.325 15.4233C310.334 16.9945 308.839 18.1257 306.769 18.1257Z" fill="white"/>
<rect x="440.5" y="5.5" width="134" height="49" rx="24.5" fill="white" fill-opacity="0.6"/>
<rect x="440.5" y="5.5" width="134" height="49" rx="24.5" stroke="#565EA1" stroke-dasharray="2 2"/>
<path d="M471.812 26.7812C471.812 29.0938 473.172 31.5312 475.453 32.4844L474.5 33.8594C472.828 33.1328 471.609 31.6562 470.961 29.8594C470.312 31.7969 469.07 33.4219 467.422 34.2031L466.422 32.8438C468.648 31.8125 470.039 29.1797 470.047 26.7812V25.5938H466.938V24.1562H474.906V25.5938H471.812V26.7812ZM476.484 36.8906V22.7656H478.234V36.8906H476.484ZM493.156 28.875V30.1562H487.594V31.1875H491.578V34.5H483.547V35.4688H491.969V36.7656H481.844V33.3125H489.875V32.4375H481.828V31.1875H485.875V30.1562H480.344V28.875H493.156ZM480.906 27.1094C483.695 26.9688 485.336 26.2188 485.695 25.2188H481.578V23.9219H485.875V22.7344H487.594V23.9219H491.922V25.2188H487.773C488.117 26.2188 489.758 26.9688 492.578 27.1094L492.062 28.4062C489.523 28.25 487.625 27.5625 486.734 26.4219C485.844 27.5625 483.953 28.25 481.391 28.4062L480.906 27.1094ZM506.266 22.7656V36.8906H504.594V29.75H503.031V36.1719H501.406V23.0312H503.031V28.3281H504.594V22.7656H506.266ZM494.75 33.375V24.3906H496.5V31.8438C497.719 31.8203 499.047 31.7109 500.531 31.4219L500.703 32.9375C498.797 33.2734 497.18 33.375 495.688 33.375H494.75ZM519.797 31.7812V36.8906H518.062V33.1562H510.172V31.7812H519.797ZM508.156 26.9688C508.156 24.9688 509.758 23.5312 511.891 23.5469C513.055 23.5391 514.07 23.9766 514.734 24.7188H518.062V22.7656H519.797V31.1094H518.062V29.2344H514.75C514.078 29.9844 513.062 30.4375 511.891 30.4375C509.758 30.4375 508.156 29 508.156 26.9688ZM509.812 26.9688C509.812 28.1953 510.68 28.9609 511.891 28.9688C513.047 28.9609 513.93 28.1953 513.938 26.9688C513.93 25.7891 513.047 25.0078 511.891 25.0156C510.68 25.0078 509.812 25.7891 509.812 26.9688ZM515.484 27.8281H518.062V26.1406H515.492C515.555 26.4062 515.594 26.6797 515.594 26.9688C515.594 27.2656 515.555 27.5547 515.484 27.8281ZM532.984 22.7812V26.8906H534.891V28.3281H532.984V32.3281H531.25V22.7812H532.984ZM521.672 30.6406C522.734 30.6406 523.961 30.6328 525.234 30.6016V29.7344C523.664 29.5391 522.664 28.7812 522.672 27.6719C522.664 26.3672 524.031 25.5703 526.078 25.5781C528.133 25.5703 529.484 26.3672 529.484 27.6719C529.484 28.7734 528.516 29.5234 526.969 29.7266V30.5391C528.172 30.4766 529.383 30.3828 530.516 30.2344L530.656 31.4375C527.648 31.9688 524.344 32 521.859 32L521.672 30.6406ZM522.031 25.1719V23.8906H525.234V22.6562H526.969V23.8906H530.141V25.1719H522.031ZM523.453 34.2969V32.9375H532.984V36.8906H531.25V34.2969H523.453ZM524.344 27.6719C524.328 28.2578 524.984 28.625 526.078 28.6094C527.172 28.625 527.828 28.2578 527.828 27.6719C527.828 27.0547 527.172 26.7422 526.078 26.75C524.984 26.7422 524.328 27.0547 524.344 27.6719ZM547.453 22.7656V31.1562H545.719V27.7031H543.312V26.2812H545.719V22.7656H547.453ZM535.578 29.75C537.852 28.9688 539.047 27.0703 539.047 25.2031V25.0938H536.109V23.6875H543.734V25.0938H540.812V25.1875C540.812 26.9062 541.953 28.6406 544.141 29.375L543.266 30.75C541.695 30.2188 540.586 29.1406 539.961 27.8125C539.344 29.3125 538.164 30.5312 536.484 31.125L535.578 29.75ZM537.875 34.2031C537.859 32.5078 539.695 31.5156 542.672 31.5156C545.664 31.5156 547.492 32.5078 547.5 34.2031C547.492 35.8984 545.664 36.8828 542.672 36.8906C539.695 36.8828 537.859 35.8984 537.875 34.2031ZM539.594 34.2031C539.586 35.0781 540.711 35.5547 542.672 35.5469C544.648 35.5547 545.766 35.0781 545.766 34.2031C545.766 33.3203 544.648 32.8438 542.672 32.8438C540.711 32.8438 539.586 33.3203 539.594 34.2031Z" fill="#565EA1"/>
<circle cx="448" cy="13" r="13" fill="#565EA1"/>
<path d="M442.728 18.1975C440.426 18.193 439.03 16.4334 439.039 13.4123C439.043 10.4002 440.435 8.68094 442.728 8.68094C445.022 8.68094 446.423 10.4092 446.418 13.4123C446.418 16.4423 445.027 18.1975 442.728 18.1975ZM442.728 16.6084C443.792 16.6084 444.475 15.5401 444.475 13.4123C444.47 11.3115 443.788 10.2521 442.728 10.2521C441.669 10.2521 440.987 11.3115 440.982 13.4123C440.978 15.5401 441.665 16.6084 442.728 16.6084ZM453.878 14.8398H455.036V16.3705H453.878V18H452.056V16.3705H447.589V14.8667L451.481 8.80663H453.878V14.8398ZM451.997 10.8985L449.515 14.768V14.8398H452.083V10.8985H451.997Z" fill="white"/>
<rect x="585.5" y="5.5" width="134" height="49" rx="24.5" fill="white" fill-opacity="0.6"/>
<rect x="585.5" y="5.5" width="134" height="49" rx="24.5" stroke="#565EA1" stroke-dasharray="2 2"/>
<path d="M630.641 26.7812C630.641 29.0938 632 31.5312 634.281 32.4844L633.328 33.8594C631.656 33.1328 630.438 31.6562 629.789 29.8594C629.141 31.7969 627.898 33.4219 626.25 34.2031L625.25 32.8438C627.477 31.8125 628.867 29.1797 628.875 26.7812V25.5938H625.766V24.1562H633.734V25.5938H630.641V26.7812ZM635.312 36.8906V22.7656H637.062V36.8906H635.312ZM651.984 28.875V30.1562H646.422V31.1875H650.406V34.5H642.375V35.4688H650.797V36.7656H640.672V33.3125H648.703V32.4375H640.656V31.1875H644.703V30.1562H639.172V28.875H651.984ZM639.734 27.1094C642.523 26.9688 644.164 26.2188 644.523 25.2188H640.406V23.9219H644.703V22.7344H646.422V23.9219H650.75V25.2188H646.602C646.945 26.2188 648.586 26.9688 651.406 27.1094L650.891 28.4062C648.352 28.25 646.453 27.5625 645.562 26.4219C644.672 27.5625 642.781 28.25 640.219 28.4062L639.734 27.1094ZM664.703 22.7656V29.9688H662.984V22.7656H664.703ZM652.953 28.5938C655.242 27.8672 656.445 26.0547 656.438 24.2031V23.1094H658.234V24.2031C658.227 26 659.422 27.6797 661.656 28.3594L660.812 29.7031C659.172 29.1953 658 28.1484 657.359 26.8047C656.719 28.2656 655.516 29.4141 653.828 29.9531L652.953 28.5938ZM655.359 31.9688V30.625H664.734V34.2969H657.094V35.3906H665.156V36.7656H655.391V33H663V31.9688H655.359ZM678.875 22.7656V31.6406H677.219V27.7969H675.844V31.1719H674.219V23.0469H675.844V26.3906H677.219V22.7656H678.875ZM666.719 25.6562V24.2969H669.391V22.8906H671.109V24.2969H673.75V25.6562H666.719ZM667.219 28.6719C667.203 27.2031 668.484 26.2266 670.25 26.2344C672.047 26.2266 673.312 27.2031 673.328 28.6719C673.312 30.1406 672.047 31.1094 670.25 31.1094C668.484 31.1094 667.203 30.1406 667.219 28.6719ZM668.766 28.6719C668.766 29.3984 669.367 29.8594 670.25 29.8594C671.141 29.8594 671.75 29.3984 671.75 28.6719C671.75 27.9453 671.141 27.4844 670.25 27.4844C669.367 27.4844 668.766 27.9453 668.766 28.6719ZM669.266 34.3594C669.258 32.7344 671.086 31.8203 674.109 31.8125C677.125 31.8203 678.945 32.7344 678.953 34.3594C678.945 35.9531 677.125 36.875 674.109 36.875C671.086 36.875 669.258 35.9531 669.266 34.3594ZM671 34.3594C670.992 35.1328 672.094 35.5547 674.109 35.5469C676.117 35.5547 677.195 35.1328 677.203 34.3594C677.195 33.5391 676.117 33.125 674.109 33.1406C672.094 33.125 670.992 33.5391 671 34.3594Z" fill="#565EA1"/>
<circle cx="593" cy="13" r="13" fill="#565EA1"/>
<path d="M588.425 18.1975C586.122 18.193 584.726 16.4334 584.735 13.4123C584.74 10.4002 586.131 8.68094 588.425 8.68094C590.719 8.68094 592.12 10.4092 592.115 13.4123C592.115 16.4423 590.724 18.1975 588.425 18.1975ZM588.425 16.6084C589.489 16.6084 590.171 15.5401 590.171 13.4123C590.167 11.3115 589.485 10.2521 588.425 10.2521C587.366 10.2521 586.684 11.3115 586.679 13.4123C586.675 15.5401 587.361 16.6084 588.425 16.6084ZM596.819 18.1257C594.902 18.1257 593.497 16.9945 593.461 15.4144H595.315C595.36 16.1281 596.015 16.6219 596.819 16.6219C597.77 16.6219 598.448 15.9485 598.444 14.9879C598.448 14.0183 597.757 13.336 596.787 13.3315C596.1 13.3315 595.616 13.5874 595.351 14.0991H593.614L594.116 8.80663H599.772V10.3733H595.688L595.436 12.6941H595.508C595.849 12.2407 596.545 11.913 597.353 11.913C599.041 11.913 600.293 13.1744 600.289 14.9385C600.293 16.797 598.884 18.1257 596.819 18.1257Z" fill="white"/>
<g opacity="0.5">
<path d="M288.783 79.4272L293.029 82.8237C293.151 82.9213 293.151 83.0796 293.029 83.1773L288.783 86.5737C288.587 86.7312 288.25 86.6197 288.25 86.397V79.604C288.25 79.3813 288.587 79.2697 288.783 79.4272Z" fill="#565EA1"/>
</g>
<g opacity="0.5">
<path d="M288.783 160.427L293.029 163.824C293.151 163.921 293.151 164.08 293.029 164.177L288.783 167.574C288.587 167.731 288.25 167.62 288.25 167.397V160.604C288.25 160.381 288.587 160.27 288.783 160.427Z" fill="#565EA1"/>
</g>
<path opacity="0.5" d="M430 83H436V123.5V164.001H430" stroke="#565EA1"/>
<path opacity="0.5" d="M450.001 123.5L445.001 120.613V126.387L450.001 123.5ZM436.5 124H445.501V123H436.5V124Z" fill="#565EA1"/>
<path d="M363 146L357.369 147.275L359.08 141.761L363 146ZM359.99 145.589L358.082 144.997L358.378 144.042L360.286 144.634L359.99 145.589ZM356.174 144.405L354.266 143.813L354.563 142.858L356.471 143.45L356.174 144.405ZM352.358 143.221L350.45 142.629L350.747 141.674L352.655 142.266L352.358 143.221ZM348.543 142.037L346.635 141.445L346.931 140.49L348.839 141.082L348.543 142.037ZM344.727 140.853L342.819 140.26L343.115 139.305L345.023 139.897L344.727 140.853ZM340.911 139.668L339.003 139.076L339.3 138.121L341.207 138.713L340.911 139.668ZM337.095 138.484L335.187 137.892L335.484 136.937L337.392 137.529L337.095 138.484ZM333.279 137.3L331.372 136.708L331.668 135.753L333.576 136.345L333.279 137.3ZM329.464 136.116L327.556 135.524L327.852 134.569L329.76 135.161L329.464 136.116ZM325.648 134.931L323.74 134.339L324.036 133.384L325.944 133.976L325.648 134.931ZM321.832 133.747L319.924 133.155L320.221 132.2L322.128 132.792L321.832 133.747ZM318.016 132.563L316.108 131.971L316.405 131.016L318.313 131.608L318.016 132.563ZM314.2 131.379L312.293 130.787L312.589 129.832L314.497 130.424L314.2 131.379ZM310.385 130.195L308.477 129.603L308.773 128.647L310.681 129.24L310.385 130.195ZM306.569 129.01L304.661 128.418L304.957 127.463L306.865 128.055L306.569 129.01ZM302.753 127.826L300.845 127.234L301.142 126.279L303.05 126.871L302.753 127.826ZM298.937 126.642L297.029 126.05L297.326 125.095L299.234 125.687L298.937 126.642ZM295.122 125.458L293.214 124.866L293.51 123.911L295.418 124.503L295.122 125.458ZM291.306 124.274L289.398 123.681L289.694 122.726L291.602 123.319L291.306 124.274ZM287.49 123.089L285.582 122.497L285.878 121.542L287.786 122.134L287.49 123.089ZM283.674 121.905L281.766 121.313L282.063 120.358L283.971 120.95L283.674 121.905ZM279.858 120.721L277.951 120.129L278.247 119.174L280.155 119.766L279.858 120.721ZM276.043 119.537L274.135 118.945L274.431 117.99L276.339 118.582L276.043 119.537ZM272.227 118.353L270.319 117.76L270.615 116.805L272.523 117.397L272.227 118.353ZM268.411 117.168L266.503 116.576L266.8 115.621L268.707 116.213L268.411 117.168ZM264.595 115.984L262.687 115.392L262.984 114.437L264.892 115.029L264.595 115.984ZM260.78 114.8L258.872 114.208L259.168 113.253L261.076 113.845L260.78 114.8ZM256.964 113.616L255.056 113.024L255.352 112.069L257.26 112.661L256.964 113.616ZM253.148 112.432L251.24 111.839L251.536 110.884L253.444 111.476L253.148 112.432ZM249.332 111.247L247.424 110.655L247.721 109.7L249.629 110.292L249.332 111.247ZM245.516 110.063L243.608 109.471L243.905 108.516L245.813 109.108L245.516 110.063ZM241.701 108.879L239.793 108.287L240.089 107.332L241.997 107.924L241.701 108.879ZM237.885 107.695L235.977 107.103L236.273 106.148L238.181 106.74L237.885 107.695ZM234.069 106.51L232.161 105.918L232.458 104.963L234.365 105.555L234.069 106.51ZM230.253 105.326L228.345 104.734L228.642 103.779L230.55 104.371L230.253 105.326ZM226.437 104.142L224.53 103.55L224.826 102.595L226.734 103.187L226.437 104.142ZM222.622 102.958L220.714 102.366L221.01 101.411L222.918 102.003L222.622 102.958ZM218.806 101.774L217.852 101.478L218.148 100.522L219.102 100.819L218.806 101.774Z" fill="#EF647D"/>
<path d="M363 101L357.369 99.725L359.08 105.239L363 101ZM359.99 101.411L358.082 102.003L358.378 102.958L360.286 102.366L359.99 101.411ZM356.174 102.595L354.266 103.187L354.563 104.142L356.471 103.55L356.174 102.595ZM352.358 103.779L350.45 104.371L350.747 105.326L352.655 104.734L352.358 103.779ZM348.543 104.963L346.635 105.555L346.931 106.51L348.839 105.918L348.543 104.963ZM344.727 106.147L342.819 106.74L343.115 107.695L345.023 107.103L344.727 106.147ZM340.911 107.332L339.003 107.924L339.3 108.879L341.207 108.287L340.911 107.332ZM337.095 108.516L335.187 109.108L335.484 110.063L337.392 109.471L337.095 108.516ZM333.279 109.7L331.372 110.292L331.668 111.247L333.576 110.655L333.279 109.7ZM329.464 110.884L327.556 111.476L327.852 112.431L329.76 111.839L329.464 110.884ZM325.648 112.069L323.74 112.661L324.036 113.616L325.944 113.024L325.648 112.069ZM321.832 113.253L319.924 113.845L320.221 114.8L322.128 114.208L321.832 113.253ZM318.016 114.437L316.108 115.029L316.405 115.984L318.313 115.392L318.016 114.437ZM314.2 115.621L312.293 116.213L312.589 117.168L314.497 116.576L314.2 115.621ZM310.385 116.805L308.477 117.397L308.773 118.353L310.681 117.76L310.385 116.805ZM306.569 117.99L304.661 118.582L304.957 119.537L306.865 118.945L306.569 117.99ZM302.753 119.174L300.845 119.766L301.142 120.721L303.05 120.129L302.753 119.174ZM298.937 120.358L297.029 120.95L297.326 121.905L299.234 121.313L298.937 120.358ZM295.122 121.542L293.214 122.134L293.51 123.089L295.418 122.497L295.122 121.542ZM291.306 122.726L289.398 123.319L289.694 124.274L291.602 123.681L291.306 122.726ZM287.49 123.911L285.582 124.503L285.878 125.458L287.786 124.866L287.49 123.911ZM283.674 125.095L281.766 125.687L282.063 126.642L283.971 126.05L283.674 125.095ZM279.858 126.279L277.951 126.871L278.247 127.826L280.155 127.234L279.858 126.279ZM276.043 127.463L274.135 128.055L274.431 129.01L276.339 128.418L276.043 127.463ZM272.227 128.647L270.319 129.24L270.615 130.195L272.523 129.603L272.227 128.647ZM268.411 129.832L266.503 130.424L266.8 131.379L268.707 130.787L268.411 129.832ZM264.595 131.016L262.687 131.608L262.984 132.563L264.892 131.971L264.595 131.016ZM260.78 132.2L258.872 132.792L259.168 133.747L261.076 133.155L260.78 132.2ZM256.964 133.384L255.056 133.976L255.352 134.931L257.26 134.339L256.964 133.384ZM253.148 134.568L251.24 135.161L251.536 136.116L253.444 135.524L253.148 134.568ZM249.332 135.753L247.424 136.345L247.721 137.3L249.629 136.708L249.332 135.753ZM245.516 136.937L243.608 137.529L243.905 138.484L245.813 137.892L245.516 136.937ZM241.701 138.121L239.793 138.713L240.089 139.668L241.997 139.076L241.701 138.121ZM237.885 139.305L235.977 139.897L236.273 140.852L238.181 140.26L237.885 139.305ZM234.069 140.49L232.161 141.082L232.458 142.037L234.365 141.445L234.069 140.49ZM230.253 141.674L228.345 142.266L228.642 143.221L230.55 142.629L230.253 141.674ZM226.437 142.858L224.53 143.45L224.826 144.405L226.734 143.813L226.437 142.858ZM222.622 144.042L220.714 144.634L221.01 145.589L222.918 144.997L222.622 144.042ZM218.806 145.226L217.852 145.522L218.148 146.478L219.102 146.181L218.806 145.226Z" fill="#EF647D"/>
</svg>
