<svg width="543" height="403" viewBox="0 0 543 403" fill="none" xmlns="http://www.w3.org/2000/svg">
<path opacity="0.05" d="M282 403C287.523 403 292 398.523 292 393L292 362C292 218.406 175.594 102 32 102L9.99999 102C4.47713 102 -8.36671e-06 106.477 -7.64247e-06 112L2.92062e-05 393C2.99305e-05 398.523 4.47717 403 10 403L282 403Z" fill="#3617CE"/>
<path opacity="0.2" d="M533 0.000444705L445.282 0.000443659C391.843 0.000443021 348.522 43.3212 348.522 96.76C348.522 150.199 391.843 193.52 445.282 193.52L533 193.52C538.522 193.52 543 189.042 543 183.52L543 10.0004C543 4.4776 538.522 0.000444771 533 0.000444705Z" fill="#5479F7"/>
<path d="M508.456 303.474H508.452L504.559 303.43C504.345 303.429 504.174 303.253 504.176 303.038C504.178 302.825 504.352 302.655 504.563 302.655H504.567L508.069 302.693V302.331C508.069 302.116 508.243 301.944 508.456 301.944C508.67 301.944 508.843 302.118 508.843 302.331V303.084C508.843 303.188 508.802 303.286 508.728 303.36C508.656 303.434 508.558 303.474 508.456 303.474ZM499.916 303.379H499.912L495.267 303.327C495.053 303.325 494.882 303.149 494.884 302.934C494.885 302.721 495.06 302.551 495.271 302.551H495.274L499.919 302.604C500.134 302.605 500.304 302.781 500.303 302.996C500.301 303.209 500.129 303.379 499.916 303.379ZM490.625 303.276H490.622L485.975 303.223C485.76 303.221 485.589 303.045 485.591 302.83C485.593 302.618 485.767 302.447 485.978 302.447H485.982L490.629 302.5C490.843 302.502 491.014 302.677 491.012 302.892C491.01 303.105 490.836 303.276 490.625 303.276ZM481.333 303.172H481.329L476.684 303.119C476.469 303.117 476.299 302.941 476.3 302.727C476.302 302.514 476.476 302.343 476.687 302.343H476.691L481.336 302.396C481.551 302.398 481.721 302.574 481.719 302.788C481.718 303.001 481.544 303.172 481.333 303.172ZM472.04 303.068H472.037L467.39 303.015C467.175 303.013 467.005 302.838 467.006 302.623C467.008 302.41 467.182 302.239 467.393 302.239H467.397L472.044 302.292C472.258 302.294 472.429 302.47 472.427 302.684C472.425 302.897 472.251 303.068 472.04 303.068ZM462.748 302.964H462.744L458.099 302.911C457.884 302.91 457.714 302.734 457.716 302.519C457.717 302.306 457.891 302.136 458.102 302.136H458.106L462.751 302.188C462.966 302.19 463.136 302.366 463.135 302.581C463.133 302.794 462.959 302.964 462.748 302.964ZM453.455 302.86H453.452L448.805 302.808C448.59 302.806 448.42 302.63 448.421 302.415C448.423 302.201 448.601 302.028 448.813 302.032L453.461 302.085C453.675 302.086 453.846 302.262 453.844 302.477C453.84 302.69 453.668 302.86 453.455 302.86ZM444.163 302.757H444.159L439.514 302.704C439.299 302.702 439.129 302.526 439.131 302.312C439.132 302.099 439.306 301.928 439.517 301.928H439.521L444.166 301.981C444.381 301.983 444.551 302.159 444.55 302.373C444.548 302.586 444.376 302.757 444.163 302.757ZM434.87 302.653H434.867L430.221 302.6C430.007 302.598 429.836 302.422 429.838 302.208C429.84 301.995 430.014 301.824 430.225 301.824H430.228L434.874 301.877C435.088 301.879 435.259 302.055 435.257 302.269C435.255 302.482 435.083 302.653 434.87 302.653ZM425.578 302.547H425.574L420.929 302.495C420.714 302.493 420.544 302.317 420.546 302.102C420.547 301.889 420.721 301.719 420.932 301.719H420.936L425.581 301.772C425.796 301.773 425.966 301.949 425.965 302.164C425.963 302.377 425.791 302.547 425.578 302.547ZM416.287 302.444H416.284L411.638 302.391C411.424 302.389 411.253 302.213 411.255 301.998C411.257 301.786 411.431 301.615 411.642 301.615H411.645L416.291 301.668C416.505 301.67 416.676 301.845 416.674 302.06C416.672 302.273 416.498 302.444 416.287 302.444ZM406.995 302.34H406.991L402.346 302.287C402.131 302.285 401.961 302.109 401.962 301.895C401.964 301.682 402.138 301.511 402.349 301.511H402.353L406.998 301.564C407.213 301.566 407.383 301.742 407.381 301.956C407.38 302.169 407.206 302.34 406.995 302.34ZM397.702 302.236H397.699L393.053 302.183C392.839 302.181 392.668 302.006 392.67 301.791C392.672 301.578 392.846 301.407 393.057 301.407H393.06L397.706 301.46C397.92 301.462 398.091 301.638 398.089 301.852C398.087 302.065 397.913 302.236 397.702 302.236ZM388.41 302.132H388.406L383.759 302.079C383.545 302.078 383.374 301.902 383.376 301.687C383.377 301.474 383.552 301.304 383.763 301.304H383.766L388.413 301.356C388.628 301.358 388.798 301.534 388.796 301.749C388.795 301.962 388.622 302.132 388.41 302.132ZM379.117 302.028H379.114L374.468 301.976C374.254 301.974 374.083 301.798 374.085 301.583C374.087 301.371 374.261 301.2 374.472 301.2H374.475L379.121 301.253C379.335 301.254 379.506 301.43 379.504 301.645C379.502 301.858 379.33 302.028 379.117 302.028ZM369.825 301.925H369.821L365.174 301.872C364.96 301.87 364.789 301.694 364.791 301.48C364.793 301.267 364.967 301.096 365.178 301.096H365.181L369.828 301.149C370.043 301.151 370.213 301.327 370.212 301.541C370.21 301.754 370.037 301.925 369.825 301.925ZM360.532 301.821H360.529L355.883 301.768C355.669 301.766 355.498 301.59 355.5 301.376C355.502 301.163 355.676 300.992 355.887 300.992H355.89L360.536 301.045C360.75 301.047 360.921 301.223 360.919 301.437C360.917 301.65 360.745 301.821 360.532 301.821ZM352.138 300.831C351.924 300.831 351.751 300.656 351.751 300.444V295.795C351.751 295.58 351.924 295.408 352.138 295.408C352.353 295.408 352.525 295.582 352.525 295.795V300.444C352.525 300.656 352.351 300.831 352.138 300.831ZM508.456 298.072C508.241 298.072 508.069 297.898 508.069 297.685V293.036C508.069 292.822 508.243 292.65 508.456 292.65C508.67 292.65 508.843 292.824 508.843 293.036V297.685C508.843 297.9 508.67 298.072 508.456 298.072ZM352.138 291.534C351.924 291.534 351.751 291.36 351.751 291.147V286.498C351.751 286.284 351.924 286.111 352.138 286.111C352.353 286.111 352.525 286.286 352.525 286.498V291.147C352.525 291.36 352.351 291.534 352.138 291.534ZM508.456 288.776C508.241 288.776 508.069 288.602 508.069 288.389V283.74C508.069 283.526 508.243 283.353 508.456 283.353C508.67 283.353 508.843 283.527 508.843 283.74V288.389C508.843 288.602 508.67 288.776 508.456 288.776ZM508.456 279.48C508.241 279.48 508.069 279.306 508.069 279.093V274.444C508.069 274.229 508.243 274.057 508.456 274.057C508.67 274.057 508.843 274.231 508.843 274.444V279.093C508.843 279.306 508.67 279.48 508.456 279.48ZM508.456 270.184C508.241 270.184 508.069 270.01 508.069 269.797V265.148C508.069 264.933 508.243 264.761 508.456 264.761C508.67 264.761 508.843 264.935 508.843 265.148V269.797C508.843 270.01 508.67 270.184 508.456 270.184ZM508.456 260.886C508.241 260.886 508.069 260.712 508.069 260.499V255.85C508.069 255.635 508.243 255.463 508.456 255.463C508.67 255.463 508.843 255.637 508.843 255.85V260.499C508.843 260.714 508.67 260.886 508.456 260.886ZM508.456 251.59C508.241 251.59 508.069 251.416 508.069 251.203V246.554C508.069 246.339 508.243 246.167 508.456 246.167C508.67 246.167 508.843 246.341 508.843 246.554V251.203C508.843 251.417 508.67 251.59 508.456 251.59ZM508.456 242.293C508.241 242.293 508.069 242.119 508.069 241.906V237.258C508.069 237.043 508.243 236.871 508.456 236.871C508.67 236.871 508.843 237.045 508.843 237.258V241.906C508.843 242.119 508.67 242.293 508.456 242.293ZM508.456 232.997C508.241 232.997 508.069 232.823 508.069 232.61V227.961C508.069 227.747 508.243 227.574 508.456 227.574C508.67 227.574 508.843 227.748 508.843 227.961V232.61C508.843 232.823 508.67 232.997 508.456 232.997ZM508.456 223.701C508.241 223.701 508.069 223.527 508.069 223.314V218.665C508.069 218.451 508.243 218.278 508.456 218.278C508.67 218.278 508.843 218.452 508.843 218.665V223.314C508.843 223.527 508.67 223.701 508.456 223.701ZM508.456 214.403C508.241 214.403 508.069 214.229 508.069 214.016V209.367C508.069 209.153 508.243 208.98 508.456 208.98C508.67 208.98 508.843 209.154 508.843 209.367V214.016C508.843 214.231 508.67 214.403 508.456 214.403ZM508.456 205.107C508.241 205.107 508.069 204.933 508.069 204.72V200.071C508.069 199.856 508.243 199.684 508.456 199.684C508.67 199.684 508.843 199.858 508.843 200.071V204.72C508.843 204.935 508.67 205.107 508.456 205.107ZM508.456 195.811C508.241 195.811 508.069 195.637 508.069 195.424V190.775C508.069 190.56 508.243 190.388 508.456 190.388C508.67 190.388 508.843 190.562 508.843 190.775V195.424C508.843 195.637 508.67 195.811 508.456 195.811ZM508.456 186.515C508.241 186.515 508.069 186.34 508.069 186.128V181.479C508.069 181.264 508.243 181.092 508.456 181.092C508.67 181.092 508.843 181.266 508.843 181.479V186.128C508.843 186.34 508.67 186.515 508.456 186.515ZM508.456 177.218C508.241 177.218 508.069 177.044 508.069 176.831V172.182C508.069 171.968 508.243 171.795 508.456 171.795C508.67 171.795 508.843 171.97 508.843 172.182V176.831C508.843 177.044 508.67 177.218 508.456 177.218ZM508.456 167.92C508.241 167.92 508.069 167.746 508.069 167.533V162.884C508.069 162.67 508.243 162.497 508.456 162.497C508.67 162.497 508.843 162.672 508.843 162.884V167.533C508.843 167.748 508.67 167.92 508.456 167.92ZM508.456 158.624C508.241 158.624 508.069 158.45 508.069 158.237V153.588C508.069 153.374 508.243 153.201 508.456 153.201C508.67 153.201 508.843 153.375 508.843 153.588V158.237C508.843 158.452 508.67 158.624 508.456 158.624ZM508.456 149.328C508.241 149.328 508.069 149.154 508.069 148.941V144.292C508.069 144.077 508.243 143.905 508.456 143.905C508.67 143.905 508.843 144.079 508.843 144.292V148.941C508.843 149.154 508.67 149.328 508.456 149.328ZM508.456 140.032C508.241 140.032 508.069 139.858 508.069 139.645V134.996C508.069 134.781 508.243 134.609 508.456 134.609C508.67 134.609 508.843 134.783 508.843 134.996V139.645C508.843 139.858 508.67 140.032 508.456 140.032ZM508.456 130.736C508.241 130.736 508.069 130.561 508.069 130.349V125.7C508.069 125.485 508.243 125.313 508.456 125.313C508.67 125.313 508.843 125.487 508.843 125.7V130.349C508.843 130.561 508.67 130.736 508.456 130.736ZM508.456 121.438C508.241 121.438 508.069 121.263 508.069 121.051V116.402C508.069 116.187 508.243 116.015 508.456 116.015C508.67 116.015 508.843 116.189 508.843 116.402V121.051C508.843 121.265 508.67 121.438 508.456 121.438ZM508.456 112.141C508.241 112.141 508.069 111.967 508.069 111.754V107.105C508.069 106.891 508.243 106.718 508.456 106.718C508.67 106.718 508.843 106.893 508.843 107.105V111.754C508.843 111.969 508.67 112.141 508.456 112.141ZM508.456 102.845C508.241 102.845 508.069 102.671 508.069 102.458V97.8092C508.069 97.5946 508.243 97.4222 508.456 97.4222C508.67 97.4222 508.843 97.5964 508.843 97.8092V102.458C508.843 102.671 508.67 102.845 508.456 102.845ZM508.456 93.549C508.241 93.549 508.069 93.3748 508.069 93.162V88.513C508.069 88.2984 508.243 88.126 508.456 88.126C508.67 88.126 508.843 88.3002 508.843 88.513V93.162C508.843 93.3748 508.67 93.549 508.456 93.549ZM508.456 84.2528C508.241 84.2528 508.069 84.0786 508.069 83.8658V79.2168C508.069 79.0022 508.243 78.8298 508.456 78.8298C508.67 78.8298 508.843 79.004 508.843 79.2168V83.8658C508.843 84.0786 508.67 84.2528 508.456 84.2528ZM508.456 74.9548C508.241 74.9548 508.069 74.7807 508.069 74.5678V74.3989H504.366C504.152 74.3989 503.979 74.2248 503.979 74.012C503.979 73.7974 504.153 73.625 504.366 73.625H508.458C508.672 73.625 508.844 73.7991 508.844 74.012V74.5678C508.843 74.7824 508.67 74.9548 508.456 74.9548ZM499.719 74.3989H495.072C494.857 74.3989 494.685 74.2248 494.685 74.012C494.685 73.7974 494.857 73.625 495.072 73.625H499.719C499.933 73.625 500.106 73.7991 500.106 74.012C500.106 74.2266 499.933 74.3989 499.719 74.3989ZM490.426 74.3989H485.779C485.565 74.3989 485.393 74.2248 485.393 74.012C485.393 73.7974 485.565 73.625 485.779 73.625H490.426C490.641 73.625 490.813 73.7991 490.813 74.012C490.813 74.2266 490.639 74.3989 490.426 74.3989ZM481.132 74.3989H476.485C476.271 74.3989 476.098 74.2248 476.098 74.012C476.098 73.7974 476.272 73.625 476.485 73.625H481.132C481.347 73.625 481.519 73.7991 481.519 74.012C481.521 74.2266 481.347 74.3989 481.132 74.3989ZM471.84 74.3989H467.193C466.978 74.3989 466.806 74.2248 466.806 74.012C466.806 73.7974 466.978 73.625 467.193 73.625H471.84C472.054 73.625 472.227 73.7991 472.227 74.012C472.227 74.2266 472.054 74.3989 471.84 74.3989ZM462.547 74.3989H457.9C457.686 74.3989 457.513 74.2248 457.513 74.012C457.513 73.7974 457.686 73.625 457.9 73.625H462.547C462.762 73.625 462.934 73.7991 462.934 74.012C462.934 74.2266 462.762 74.3989 462.547 74.3989ZM453.255 74.3989H448.608C448.393 74.3989 448.221 74.2248 448.221 74.012C448.221 73.7974 448.393 73.625 448.608 73.625H453.255C453.469 73.625 453.642 73.7991 453.642 74.012C453.642 74.2266 453.469 74.3989 453.255 74.3989ZM443.962 74.3989H439.315C439.101 74.3989 438.928 74.2248 438.928 74.012C438.928 73.7974 439.101 73.625 439.315 73.625H443.962C444.177 73.625 444.349 73.7991 444.349 74.012C444.349 74.2266 444.175 74.3989 443.962 74.3989ZM434.668 74.3989H430.021C429.806 74.3989 429.634 74.2248 429.634 74.012C429.634 73.7974 429.806 73.625 430.021 73.625H434.668C434.883 73.625 435.055 73.7991 435.055 74.012C435.057 74.2266 434.883 74.3989 434.668 74.3989ZM425.376 74.3989H420.728C420.514 74.3989 420.342 74.2248 420.342 74.012C420.342 73.7974 420.514 73.625 420.728 73.625H425.376C425.59 73.625 425.762 73.7991 425.762 74.012C425.762 74.2266 425.59 74.3989 425.376 74.3989ZM416.083 74.3989H411.436C411.221 74.3989 411.049 74.2248 411.049 74.012C411.049 73.7974 411.221 73.625 411.436 73.625H416.083C416.298 73.625 416.47 73.7991 416.47 74.012C416.47 74.2266 416.298 74.3989 416.083 74.3989ZM406.791 74.3989H402.144C401.929 74.3989 401.757 74.2248 401.757 74.012C401.757 73.7974 401.929 73.625 402.144 73.625H406.791C407.005 73.625 407.177 73.7991 407.177 74.012C407.177 74.2266 407.005 74.3989 406.791 74.3989ZM397.498 74.3989H392.851C392.637 74.3989 392.464 74.2248 392.464 74.012C392.464 73.7974 392.637 73.625 392.851 73.625H397.498C397.713 73.625 397.885 73.7991 397.885 74.012C397.885 74.2266 397.711 74.3989 397.498 74.3989ZM388.204 74.3989H383.557C383.342 74.3989 383.17 74.2248 383.17 74.012C383.17 73.7974 383.342 73.625 383.557 73.625H388.204C388.418 73.625 388.591 73.7991 388.591 74.012C388.593 74.2266 388.418 74.3989 388.204 74.3989ZM378.911 74.3989H374.264C374.05 74.3989 373.878 74.2248 373.878 74.012C373.878 73.7974 374.05 73.625 374.264 73.625H378.911C379.126 73.625 379.298 73.7991 379.298 74.012C379.298 74.2266 379.126 74.3989 378.911 74.3989ZM369.619 74.3989H364.972C364.757 74.3989 364.585 74.2248 364.585 74.012C364.585 73.7974 364.757 73.625 364.972 73.625H369.619C369.833 73.625 370.006 73.7991 370.006 74.012C370.006 74.2266 369.833 74.3989 369.619 74.3989ZM360.326 74.3989H355.679C355.465 74.3989 355.293 74.2248 355.293 74.012C355.293 73.7974 355.465 73.625 355.679 73.625H360.326C360.541 73.625 360.713 73.7991 360.713 74.012C360.713 74.2266 360.541 74.3989 360.326 74.3989ZM351.034 74.3989H346.387C346.172 74.3989 346 74.2248 346 74.012C346 73.7974 346.172 73.625 346.387 73.625H351.034C351.249 73.625 351.421 73.7991 351.421 74.012C351.421 74.2266 351.247 74.3989 351.034 74.3989ZM341.74 74.3989H337.094C336.88 74.3989 336.708 74.2248 336.708 74.012C336.708 73.7974 336.88 73.625 337.094 73.625H341.742C341.956 73.625 342.128 73.7991 342.128 74.012C342.128 74.2266 341.954 74.3989 341.74 74.3989ZM332.447 74.3989H327.8C327.586 74.3989 327.413 74.2248 327.413 74.012C327.413 73.7974 327.586 73.625 327.8 73.625H332.447C332.662 73.625 332.834 73.7991 332.834 74.012C332.834 74.2266 332.662 74.3989 332.447 74.3989ZM323.155 74.3989H318.508C318.293 74.3989 318.121 74.2248 318.121 74.012C318.121 73.7974 318.293 73.625 318.508 73.625H323.155C323.369 73.625 323.542 73.7991 323.542 74.012C323.542 74.2266 323.369 74.3989 323.155 74.3989ZM313.862 74.3989H309.215C309.001 74.3989 308.828 74.2248 308.828 74.012C308.828 73.7974 309.001 73.625 309.215 73.625H313.862C314.077 73.625 314.249 73.7991 314.249 74.012C314.249 74.2266 314.077 74.3989 313.862 74.3989ZM304.57 74.3989H299.923C299.708 74.3989 299.536 74.2248 299.536 74.012C299.536 73.7974 299.71 73.625 299.923 73.625H304.57C304.784 73.625 304.957 73.7991 304.957 74.012C304.957 74.2266 304.783 74.3989 304.57 74.3989ZM295.276 74.3989H290.629C290.414 74.3989 290.242 74.2248 290.242 74.012C290.242 73.7974 290.414 73.625 290.629 73.625H295.276C295.49 73.625 295.662 73.7991 295.662 74.012C295.664 74.2266 295.49 74.3989 295.276 74.3989ZM285.983 74.3989H281.336C281.122 74.3989 280.949 74.2248 280.949 74.012C280.949 73.7974 281.122 73.625 281.336 73.625H285.983C286.198 73.625 286.37 73.7991 286.37 74.012C286.37 74.2266 286.198 74.3989 285.983 74.3989Z" fill="#5479F7"/>
<path d="M426.135 101.37C408.938 98.1532 385.361 95.9791 354.51 97.6449C337.281 98.5754 321.293 106.906 310.583 120.439L285.27 152.423C285.27 152.423 242.211 178.301 254.252 204.111C262.785 222.399 285.625 228.881 302.356 217.602C314.693 209.285 327.887 196.892 336.752 178.862L355.131 251.851H475.656C495.533 251.851 509.249 231.934 502.17 213.354L474.346 141.452C466.293 120.642 448.059 105.472 426.135 101.37Z" fill="white"/>
<path d="M475.655 252.24H355.129C354.951 252.24 354.796 252.119 354.753 251.948L336.63 179.974C329.004 195.065 317.551 207.828 302.57 217.926C294.549 223.333 284.589 224.946 275.245 222.354C265.819 219.738 258.04 213.149 253.9 204.276C248.903 193.568 252.729 181.135 264.964 168.323C274.153 158.701 284.961 152.158 285.069 152.093C285.253 151.982 285.491 152.042 285.6 152.225C285.71 152.408 285.651 152.647 285.468 152.756C285.36 152.821 274.631 159.317 265.515 168.866C257.156 177.623 248.477 190.817 254.603 203.946C258.647 212.612 266.246 219.048 275.454 221.604C284.58 224.137 294.308 222.561 302.14 217.281C317.314 207.05 328.843 194.067 336.405 178.69C336.477 178.544 336.626 178.458 336.793 178.476C336.955 178.493 337.089 178.609 337.128 178.766L355.433 251.463H475.657C485.002 251.463 493.401 247.048 498.702 239.351C504.005 231.653 505.136 222.227 501.808 213.492L495.304 196.686C495.226 196.488 495.325 196.263 495.525 196.185C495.726 196.108 495.949 196.206 496.026 196.407L502.53 213.214C505.952 222.193 504.788 231.878 499.339 239.79C493.89 247.702 485.259 252.24 475.655 252.24Z" fill="black"/>
<path d="M429.648 186.93C429.495 186.93 429.349 186.838 429.289 186.687L415.968 153.47C415.889 153.272 415.984 153.046 416.183 152.967C416.381 152.888 416.607 152.983 416.686 153.182L430.006 186.398C430.085 186.597 429.991 186.822 429.792 186.902C429.744 186.921 429.695 186.93 429.648 186.93Z" fill="black"/>
<path d="M296.786 173.839C296.649 173.839 296.517 173.767 296.447 173.639L284.932 152.61C284.83 152.422 284.899 152.188 285.085 152.084C285.273 151.982 285.509 152.051 285.611 152.237L297.126 173.266C297.228 173.454 297.159 173.688 296.973 173.792C296.913 173.824 296.848 173.839 296.786 173.839Z" fill="black"/>
<path d="M370.002 213.542L380.576 233.408L392.29 213.542L379.465 123.894L384.719 113.428L378.846 100L371.641 108.763L374.943 123.894L370.002 213.542Z" fill="#EF647D"/>
<path d="M392.443 63.5949L407.081 97.0876L378.65 100.023L371.442 77.0652C371.442 77.0652 378.046 55.3383 392.443 63.5949Z" fill="white"/>
<path d="M378.649 100.408C378.486 100.408 378.334 100.304 378.282 100.141L375.599 91.944C375.532 91.74 375.643 91.5219 375.846 91.455C376.052 91.3882 376.268 91.499 376.335 91.703L379.018 99.8999C379.085 100.104 378.974 100.322 378.77 100.389C378.73 100.403 378.688 100.408 378.649 100.408Z" fill="black"/>
<path d="M414.382 99.4786L405.414 84.6152L384.519 88.5202L380.308 94.8208L374.68 87.3856L366.054 98.1013L371.439 108.784L378.646 102.493L384.519 113.45L414.382 99.4786Z" fill="white"/>
<path d="M371.441 109.17C371.298 109.17 371.163 109.093 371.094 108.958L365.709 98.2753C365.612 98.0836 365.689 97.8514 365.879 97.7546C366.071 97.6579 366.303 97.7353 366.4 97.9252L371.785 108.608C371.882 108.799 371.805 109.031 371.615 109.128C371.558 109.158 371.499 109.17 371.441 109.17Z" fill="black"/>
<path d="M380.309 95.2087C380.188 95.2087 380.074 95.1524 380.002 95.0556L374.372 87.6204C374.242 87.4498 374.277 87.2071 374.447 87.0787C374.618 86.9485 374.861 86.9837 374.989 87.1543L380.29 94.1568L384.199 88.3082C384.257 88.222 384.346 88.1622 384.45 88.1428L401.447 84.9679C401.66 84.9274 401.861 85.0681 401.899 85.2775C401.938 85.4885 401.799 85.6908 401.59 85.7295L384.754 88.8746L380.635 95.0398C380.564 95.1436 380.45 95.2087 380.323 95.2122C380.318 95.2087 380.315 95.2087 380.309 95.2087Z" fill="black"/>
<path d="M384.523 113.837C384.377 113.837 384.238 113.754 384.171 113.614C384.081 113.42 384.164 113.19 384.357 113.098L414.22 99.1268C414.413 99.0353 414.644 99.1198 414.735 99.3132C414.825 99.5067 414.742 99.7372 414.549 99.8286L384.686 113.8C384.633 113.827 384.577 113.837 384.523 113.837Z" fill="black"/>
<path d="M405.532 29.2786C403.869 26.0412 401.568 22.8597 397.999 21.0699C394.429 19.2783 389.355 19.3045 386.561 21.915C378.474 18.3878 368.322 18.1067 360.397 21.8923C352.471 25.678 347.341 33.6947 348.759 41.3534C350.176 49.0121 358.609 55.4851 367.684 55.1848C370.131 61.698 378.23 65.9307 386.24 66.0983C393.474 66.2485 406.908 62.6968 408.724 55.8117C411.011 47.1542 409.686 37.3669 405.532 29.2786Z" fill="black"/>
<path d="M359.396 51.7844C359.396 51.7844 353.705 75.7522 363.326 81.979C369.033 85.6729 385.573 85.8488 393.915 68.7902C393.915 68.7902 401.152 68.208 401.836 60.6356C402.52 53.0632 398.488 50.7694 393.217 56.7201C393.217 56.7201 386.502 61.318 387.539 50.8117C387.991 46.2348 383.673 42.6799 375.061 41.3624C359.479 38.979 361.367 42.5902 359.396 51.7844Z" fill="white"/>
<path d="M373.314 84.3147C373.113 84.3147 372.945 84.1599 372.929 83.9576C372.913 83.7447 373.071 83.5583 373.284 83.5407C377.344 83.2223 387.449 81.1327 393.567 68.621C393.662 68.4293 393.893 68.3502 394.086 68.4434C394.278 68.5366 394.357 68.7688 394.264 68.9623C387.969 81.8327 377.537 83.9857 373.344 84.3147C373.333 84.3147 373.323 84.3147 373.314 84.3147Z" fill="black"/>
<path d="M393.141 64.3601C393.092 64.3601 393.043 64.3513 392.994 64.3302C392.797 64.2492 392.702 64.0223 392.783 63.8253C393.653 61.711 395.679 60.1614 397.947 59.8764C398.161 59.8483 398.353 59.9995 398.379 60.2124C398.406 60.4252 398.256 60.6187 398.044 60.6451C396.08 60.8931 394.253 62.2897 393.5 64.1208C393.437 64.2703 393.293 64.3601 393.141 64.3601Z" fill="black"/>
<path d="M400.154 41.1538C399.375 39.6342 398.296 38.1408 396.623 37.3007C394.95 36.4598 392.571 36.4721 391.262 37.6974C387.471 36.0418 382.712 35.9098 378.997 37.6868C375.282 39.4637 372.877 43.2266 373.542 46.8215C374.206 50.4164 378.159 53.4548 382.413 53.3138C383.56 56.371 387.357 58.3578 391.111 58.4365C394.502 58.507 400.799 56.8399 401.651 53.6081C402.723 49.5443 402.101 44.9503 400.154 41.1538Z" fill="black"/>
<path d="M294.502 48.488V166.394H190.662C182.252 166.394 175.436 159.575 175.436 151.175V48.488L182.051 41.5723L188.67 48.488L195.285 41.5723L201.901 48.488L208.516 41.5723L215.131 48.488L221.746 41.5723L228.362 48.488L234.977 41.5723L241.592 48.488L248.203 41.5723L254.819 48.488L261.434 41.5723L268.049 48.488L274.66 41.5723L281.275 48.488L287.886 41.5723L294.502 48.488Z" fill="white"/>
<path d="M294.501 166.784H190.661C182.05 166.784 175.046 159.781 175.046 151.176V48.4892C175.046 48.3889 175.084 48.2927 175.155 48.2216L181.77 41.3059C181.916 41.1553 182.184 41.1512 182.331 41.3059L188.674 47.9289L195.005 41.3059C195.151 41.1553 195.419 41.1553 195.565 41.3059L201.9 47.9289L208.235 41.3059C208.382 41.1553 208.649 41.1553 208.796 41.3059L215.131 47.9289L221.466 41.3059C221.612 41.1553 221.88 41.1553 222.026 41.3059L228.361 47.9289L234.696 41.3059C234.843 41.1553 235.11 41.1553 235.257 41.3059L241.592 47.9289L247.922 41.3059C248.069 41.1512 248.337 41.1553 248.483 41.3059L254.818 47.9289L261.153 41.3059C261.299 41.1553 261.567 41.1553 261.714 41.3059L268.049 47.9289L274.379 41.3059C274.526 41.1512 274.793 41.1553 274.94 41.3059L281.275 47.9289L287.606 41.3059C287.752 41.1512 288.02 41.1553 288.166 41.3059L294.782 48.2216C294.848 48.2927 294.89 48.3889 294.89 48.4892V166.395C294.89 166.609 294.715 166.784 294.501 166.784ZM175.82 48.6439V151.172C175.82 159.35 182.477 166.007 190.661 166.007H294.116V48.6439L287.886 42.1338L281.555 48.7568C281.409 48.9115 281.141 48.9073 280.994 48.7568L274.66 42.1338L268.329 48.7568C268.182 48.9115 267.915 48.9073 267.768 48.7568L261.433 42.1338L255.098 48.7568C254.952 48.9073 254.684 48.9073 254.538 48.7568L248.203 42.1338L241.872 48.7568C241.726 48.9115 241.458 48.9073 241.311 48.7568L234.976 42.1338L228.642 48.7568C228.495 48.9073 228.227 48.9073 228.081 48.7568L221.746 42.1338L215.411 48.7568C215.265 48.9073 214.997 48.9073 214.85 48.7568L208.515 42.1338L202.181 48.7568C202.034 48.9073 201.766 48.9073 201.62 48.7568L195.285 42.1338L188.95 48.7568C188.804 48.9073 188.536 48.9073 188.389 48.7568L182.05 42.1338L175.82 48.6439Z" fill="#070706"/>
<path d="M239.768 64.0352H187.809V66.4477H239.768V64.0352Z" fill="#E3E3E3"/>
<path d="M279.342 64.0352H258.505V66.4477H279.342V64.0352Z" fill="#E3E3E3"/>
<path d="M239.768 72.1211H187.809V74.5337H239.768V72.1211Z" fill="#E3E3E3"/>
<path d="M279.342 72.1211H258.505V74.5337H279.342V72.1211Z" fill="#E3E3E3"/>
<path d="M279.342 80.2031H258.505V82.6157H279.342V80.2031Z" fill="#E3E3E3"/>
<path d="M239.768 80.2031H187.809V82.6157H239.768V80.2031Z" fill="#E3E3E3"/>
<path d="M239.768 88.2715H187.809V90.684H239.768V88.2715Z" fill="#E3E3E3"/>
<path d="M279.342 88.2715H258.505V90.684H279.342V88.2715Z" fill="#E3E3E3"/>
<path d="M239.769 96.3496H187.81V98.7622H239.769V96.3496Z" fill="#E3E3E3"/>
<path d="M279.342 96.3496H258.505V98.7622H279.342V96.3496Z" fill="#E3E3E3"/>
<path d="M239.768 104.432H187.809V106.844H239.768V104.432Z" fill="#E3E3E3"/>
<path d="M279.342 104.432H258.505V106.844H279.342V104.432Z" fill="#E3E3E3"/>
<path d="M239.768 112.5H187.809V114.913H239.768V112.5Z" fill="#E3E3E3"/>
<path d="M279.342 112.5H258.505V114.913H279.342V112.5Z" fill="#E3E3E3"/>
<path d="M239.769 120.592H187.81V123.004H239.769V120.592Z" fill="#E3E3E3"/>
<path d="M279.342 120.592H258.505V123.004H279.342V120.592Z" fill="#E3E3E3"/>
<path d="M239.768 128.668H187.809V131.081H239.768V128.668Z" fill="#E3E3E3"/>
<path d="M279.342 128.668H258.505V131.081H279.342V128.668Z" fill="#E3E3E3"/>
<path d="M239.769 136.732H187.81V139.145H239.769V136.732Z" fill="#E3E3E3"/>
<path d="M279.342 136.732H258.505V139.145H279.342V136.732Z" fill="#E3E3E3"/>
<path d="M219.736 87.7246C211.321 87.7246 204.505 94.54 204.505 102.944V152.646C204.505 156.443 202.966 159.888 200.472 162.376C197.986 164.864 194.547 166.407 190.739 166.407H335.907V87.7246H219.736Z" fill="#E3E3E3"/>
<path d="M335.914 166.792H190.742C190.529 166.792 190.357 166.62 190.357 166.407C190.357 166.194 190.529 166.022 190.742 166.022C194.32 166.022 197.68 164.63 200.199 162.104C202.726 159.579 204.119 156.222 204.119 152.647V102.944C204.119 94.3395 211.128 87.3359 219.739 87.3359H335.91C336.123 87.3359 336.295 87.5074 336.295 87.7206V166.403C336.299 166.62 336.127 166.792 335.914 166.792ZM195.383 166.018H335.525V88.1095H219.739C211.555 88.1095 204.893 94.766 204.893 102.944V152.647C204.893 156.426 203.421 159.98 200.747 162.652C199.211 164.187 197.383 165.328 195.383 166.018Z" fill="#070706"/>
<path d="M365.672 106.34V278.397H234.267V101.481C234.267 97.6845 232.727 94.2392 230.233 91.7514C227.748 89.2636 224.309 87.7207 220.501 87.7207H347.036C357.329 87.7207 365.672 96.0539 365.672 106.34Z" fill="white"/>
<path d="M365.675 278.786H234.27C234.056 278.786 233.885 278.614 233.885 278.401V101.481C233.885 97.9102 232.492 94.5485 229.964 92.0231C227.441 89.4976 224.086 88.1053 220.508 88.1053C220.295 88.1053 220.123 87.9339 220.123 87.7206C220.123 87.5074 220.295 87.3359 220.508 87.3359H347.043C357.533 87.3359 366.064 95.8614 366.064 106.344V278.401C366.06 278.61 365.889 278.786 365.675 278.786ZM234.655 278.012H365.286V106.34C365.286 96.2837 357.102 88.1053 347.039 88.1053H225.144C227.144 88.7952 228.973 89.9367 230.508 91.4753C233.182 94.1471 234.655 97.7012 234.655 101.477V278.012Z" fill="#070706"/>
<path d="M353.23 150.723H332.393V153.758H353.23V150.723Z" fill="#E3E3E3"/>
<path d="M306.233 150.723H249.361V153.758H306.233V150.723Z" fill="#E3E3E3"/>
<path d="M306.233 160.883H249.361V163.918H306.233V160.883Z" fill="#E3E3E3"/>
<path d="M353.23 160.883H332.393V163.918H353.23V160.883Z" fill="#E3E3E3"/>
<path d="M306.233 171.039H249.361V174.075H306.233V171.039Z" fill="#E3E3E3"/>
<path d="M353.23 171.039H332.393V174.075H353.23V171.039Z" fill="#E3E3E3"/>
<path d="M281.655 181.203H249.361V184.239H281.655V181.203Z" fill="#E3E3E3"/>
<path d="M306.234 181.199H294.882V184.235H306.234V181.199Z" fill="#E3E3E3"/>
<path d="M353.23 181.203H332.393V184.239H353.23V181.203Z" fill="#E3E3E3"/>
<path d="M306.233 191.361H249.361V194.397H306.233V191.361Z" fill="#E3E3E3"/>
<path d="M353.23 191.361H332.393V194.397H353.23V191.361Z" fill="#E3E3E3"/>
<path d="M306.233 201.518H249.361V204.553H306.233V201.518Z" fill="#E3E3E3"/>
<path d="M353.23 201.518H332.393V204.553H353.23V201.518Z" fill="#E3E3E3"/>
<path d="M295.195 211.682H249.361V214.717H295.195V211.682Z" fill="#E3E3E3"/>
<path d="M306.233 211.682H302.752V214.717H306.233V211.682Z" fill="#E3E3E3"/>
<path d="M353.23 211.682H332.393V214.717H353.23V211.682Z" fill="#E3E3E3"/>
<path d="M306.233 221.844H249.361V224.879H306.233V221.844Z" fill="#E3E3E3"/>
<path d="M353.23 221.844H332.393V224.879H353.23V221.844Z" fill="#E3E3E3"/>
<path d="M340.542 137.002H261.458C260.101 137.002 259.002 135.6 259.002 133.868V116.136C259.002 114.404 260.101 113.002 261.458 113.002H340.546C341.903 113.002 343.002 114.404 343.002 116.136V133.868C343.002 135.6 341.899 137.002 340.542 137.002Z" fill="#C8D5FC"/>
<path d="M339.58 137.002H261.424C259.538 137.002 258.002 135.124 258.002 132.817V117.187C258.002 114.88 259.538 113.002 261.424 113.002H339.58C341.466 113.002 343.002 114.88 343.002 117.187V132.817C343.002 135.124 341.466 137.002 339.58 137.002ZM261.424 113.941C259.963 113.941 258.774 115.395 258.774 117.181V132.812C258.774 134.598 259.963 136.053 261.424 136.053H339.58C341.04 136.053 342.23 134.598 342.23 132.812V117.181C342.23 115.395 341.04 113.941 339.58 113.941H261.424Z" fill="#070706"/>
<path d="M338.553 255.133C338.553 255.706 338.453 256.22 338.248 256.68C338.043 257.14 337.758 257.533 337.386 257.868C337.014 258.198 336.562 258.465 336.039 258.666C335.511 258.867 334.93 258.992 334.29 259.047L334.08 261.183C334.072 261.238 334.059 261.284 334.034 261.321C334.009 261.363 333.967 261.392 333.905 261.422C333.842 261.447 333.754 261.472 333.645 261.488C333.536 261.505 333.398 261.514 333.231 261.514C333.018 261.514 332.846 261.505 332.716 261.484C332.587 261.463 332.486 261.434 332.411 261.401C332.34 261.363 332.29 261.317 332.264 261.254C332.239 261.196 332.235 261.129 332.248 261.054L332.457 259.03C332.172 258.988 331.9 258.938 331.649 258.875C331.398 258.813 331.168 258.741 330.959 258.666C330.754 258.591 330.574 258.511 330.423 258.432C330.273 258.353 330.16 258.273 330.084 258.198C330.009 258.123 329.955 258.01 329.921 257.859C329.888 257.709 329.871 257.487 329.871 257.194C329.871 256.969 329.879 256.78 329.892 256.634C329.905 256.488 329.93 256.375 329.963 256.295C329.997 256.216 330.038 256.162 330.089 256.132C330.139 256.103 330.197 256.086 330.264 256.086C330.352 256.086 330.478 256.137 330.645 256.237C330.813 256.337 331.026 256.446 331.285 256.567C331.545 256.688 331.859 256.797 332.227 256.898C332.595 256.998 333.03 257.048 333.528 257.048C334.306 257.048 334.884 256.902 335.265 256.613C335.645 256.325 335.834 255.94 335.834 255.459C335.834 255.141 335.75 254.878 335.591 254.673C335.428 254.468 335.21 254.284 334.938 254.13C334.666 253.975 334.357 253.833 334.013 253.711C333.67 253.59 333.319 253.456 332.959 253.318C332.599 253.18 332.248 253.017 331.905 252.829C331.562 252.641 331.256 252.415 330.98 252.139C330.708 251.867 330.49 251.537 330.327 251.148C330.164 250.759 330.08 250.287 330.08 249.735C330.08 249.238 330.164 248.782 330.331 248.372C330.499 247.962 330.737 247.607 331.051 247.302C331.365 246.996 331.75 246.75 332.206 246.557C332.662 246.369 333.181 246.24 333.758 246.173L333.959 244.166C333.967 244.111 333.98 244.07 334.005 244.032C334.03 243.994 334.072 243.961 334.135 243.932C334.198 243.902 334.281 243.881 334.39 243.865C334.495 243.852 334.637 243.844 334.808 243.844C335.013 243.844 335.185 243.852 335.323 243.873C335.461 243.894 335.566 243.923 335.637 243.957C335.708 243.994 335.758 244.04 335.775 244.103C335.796 244.162 335.804 244.228 335.804 244.304L335.603 246.189C335.792 246.214 335.988 246.252 336.193 246.298C336.398 246.344 336.595 246.398 336.771 246.461C336.951 246.524 337.114 246.591 337.26 246.662C337.407 246.733 337.507 246.796 337.566 246.85C337.62 246.904 337.666 246.963 337.696 247.017C337.725 247.076 337.75 247.143 337.767 247.226C337.783 247.31 337.796 247.41 337.8 247.527C337.809 247.644 337.809 247.778 337.809 247.933C337.809 248.138 337.804 248.309 337.796 248.443C337.788 248.577 337.767 248.677 337.742 248.748C337.717 248.819 337.683 248.865 337.65 248.886C337.616 248.911 337.578 248.92 337.528 248.92C337.44 248.92 337.315 248.878 337.147 248.79C336.98 248.702 336.775 248.61 336.532 248.51C336.29 248.41 336.009 248.318 335.696 248.23C335.378 248.142 335.03 248.1 334.654 248.1C334.306 248.1 334.013 248.134 333.767 248.201C333.52 248.267 333.319 248.359 333.168 248.481C333.013 248.602 332.9 248.744 332.829 248.911C332.758 249.079 332.721 249.263 332.721 249.459C332.721 249.773 332.804 250.036 332.972 250.245C333.139 250.458 333.361 250.642 333.637 250.793C333.913 250.948 334.227 251.086 334.574 251.211C334.921 251.336 335.281 251.47 335.641 251.612C336.005 251.75 336.361 251.913 336.708 252.097C337.06 252.281 337.369 252.507 337.641 252.775C337.913 253.042 338.135 253.369 338.298 253.753C338.47 254.134 338.553 254.594 338.553 255.133Z" fill="white"/>
<path d="M290.668 266.881H250.796C250.583 266.881 250.411 266.709 250.411 266.496C250.411 266.283 250.583 266.111 250.796 266.111H290.668C290.881 266.111 291.052 266.283 291.052 266.496C291.052 266.709 290.881 266.881 290.668 266.881Z" fill="#070706"/>
<path d="M357.894 171.607C357.894 171.607 350.772 169.994 350.74 168.087C350.708 166.181 359.399 163.518 384.068 166.026C400.453 167.692 427.722 184.296 433.637 188.822C433.998 192.502 434.436 196.177 434.787 199.853C435.774 210.152 436.51 220.5 436.257 230.853C436.174 234.267 435.979 237.68 435.654 241.082C433.039 239.574 430.5 237.921 428.053 236.114C413.014 225.02 393.564 210.062 380.954 198.071C380.954 198.071 353.421 195.362 353.421 191.909C353.421 188.456 366.01 187.422 366.01 187.422C366.01 187.422 344.843 188.907 344.823 185.399C344.804 181.892 361.207 179.157 361.207 179.157C361.207 179.157 345.033 179.211 344.039 176.028C343.044 172.84 357.894 171.607 357.894 171.607Z" fill="white"/>
<path d="M463.507 208.578C463.428 208.578 463.349 208.553 463.281 208.504C462.751 208.122 410.022 170.255 385.255 166.561C385.044 166.529 384.898 166.332 384.93 166.121C384.962 165.91 385.159 165.762 385.37 165.796C410.321 169.516 463.203 207.492 463.734 207.876C463.908 208.001 463.947 208.243 463.822 208.416C463.746 208.521 463.629 208.578 463.507 208.578Z" fill="black"/>
<path d="M370.818 197.22C370.801 197.22 370.781 197.219 370.764 197.217C353.033 194.696 353.033 192.67 353.033 191.908C353.033 190.037 356.003 188.839 359.11 188.1C353.626 188.2 346.632 187.995 344.914 186.401C344.597 186.107 344.437 185.771 344.435 185.4C344.42 182.661 352.511 180.526 357.491 179.471C352.518 179.279 344.434 178.591 343.669 176.141C343.537 175.72 343.606 175.293 343.868 174.906C345.218 172.901 352.091 171.856 355.722 171.437C353.471 170.769 350.378 169.58 350.352 168.093C350.347 167.763 350.498 167.444 350.8 167.147C352.768 165.221 360.603 164.331 371.764 164.764C371.979 164.772 372.144 164.952 372.135 165.167C372.127 165.381 371.947 165.545 371.733 165.539C358.823 165.038 352.68 166.391 351.342 167.701C351.242 167.8 351.124 167.944 351.126 168.081C351.145 169.186 355.145 170.588 357.978 171.23C358.164 171.272 358.292 171.444 358.278 171.634C358.264 171.824 358.115 171.977 357.925 171.993C354.635 172.266 345.812 173.4 344.508 175.339C344.377 175.532 344.346 175.713 344.406 175.909C345.06 178.002 354.8 178.767 360.96 178.767C361.041 178.767 361.121 178.767 361.202 178.767C361.202 178.767 361.202 178.767 361.204 178.767C361.405 178.767 361.573 178.922 361.589 179.122C361.607 179.323 361.466 179.504 361.267 179.537C355.05 180.573 345.193 183.08 345.207 185.395C345.207 185.546 345.283 185.689 345.439 185.831C347.613 187.847 361.004 187.382 365.981 187.034C366.196 187.018 366.379 187.178 366.395 187.391C366.41 187.604 366.252 187.789 366.039 187.806C361.31 188.195 353.805 189.651 353.805 191.908C353.805 192.262 354.628 194.14 370.869 196.45C371.08 196.48 371.228 196.677 371.198 196.888C371.174 197.081 371.006 197.22 370.818 197.22Z" fill="black"/>
<path d="M466.842 251.725C466.828 251.725 466.812 251.725 466.798 251.724C452.707 250.132 439.23 244.842 427.822 236.426C413.202 225.64 400.903 216.013 391.268 207.809C391.106 207.67 391.085 207.425 391.224 207.264C391.363 207.1 391.607 207.081 391.771 207.22C401.394 215.411 413.677 225.028 428.283 235.803C439.582 244.137 452.931 249.377 466.886 250.953C467.099 250.978 467.252 251.169 467.227 251.382C467.204 251.579 467.037 251.725 466.842 251.725Z" fill="black"/>
<path d="M362.309 179.246C362.103 179.246 361.933 179.085 361.922 178.877C361.912 178.662 362.077 178.481 362.292 178.472L369.785 178.129C369.991 178.119 370.181 178.284 370.19 178.499C370.2 178.713 370.035 178.895 369.821 178.903L362.327 179.246C362.321 179.246 362.314 179.246 362.309 179.246Z" fill="black"/>
<path d="M372.125 172.386C372.113 172.386 372.098 172.386 372.086 172.385C367.685 171.938 363.212 171.758 358.788 171.853C358.588 171.864 358.398 171.688 358.393 171.475C358.387 171.261 358.558 171.085 358.771 171.079C363.226 170.984 367.731 171.164 372.162 171.614C372.374 171.635 372.529 171.825 372.508 172.038C372.489 172.237 372.322 172.386 372.125 172.386Z" fill="black"/>
<path d="M398.788 213.952C398.644 213.952 398.505 213.871 398.44 213.732C398.347 213.539 398.428 213.308 398.621 213.215C410.071 207.685 414.417 198.786 416.047 192.294C417.82 185.237 416.863 179.409 416.853 179.353C416.818 179.142 416.958 178.941 417.169 178.906C417.382 178.869 417.581 179.012 417.616 179.223C417.626 179.283 418.609 185.244 416.805 192.454C415.138 199.115 410.688 208.246 398.957 213.913C398.902 213.94 398.844 213.952 398.788 213.952Z" fill="black"/>
<path d="M85.296 213.366C85.0815 213.366 84.9092 213.192 84.9092 212.979V212.2C84.9092 211.985 85.0832 211.813 85.296 211.813C85.5105 211.813 85.6828 211.987 85.6828 212.2V212.979C85.6828 213.192 85.5105 213.366 85.296 213.366ZM85.296 207.938C85.0815 207.938 84.9092 207.763 84.9092 207.551V202.902C84.9092 202.687 85.0832 202.515 85.296 202.515C85.5105 202.515 85.6828 202.689 85.6828 202.902V207.551C85.6828 207.765 85.5105 207.938 85.296 207.938ZM85.296 198.641C85.0815 198.641 84.9092 198.467 84.9092 198.254V193.605C84.9092 193.391 85.0832 193.218 85.296 193.218C85.5105 193.218 85.6828 193.393 85.6828 193.605V198.254C85.6828 198.469 85.5105 198.641 85.296 198.641ZM85.296 189.345C85.0815 189.345 84.9092 189.171 84.9092 188.958V184.309C84.9092 184.095 85.0832 183.922 85.296 183.922C85.5105 183.922 85.6828 184.096 85.6828 184.309V188.958C85.6828 189.171 85.5105 189.345 85.296 189.345ZM85.296 180.049C85.0815 180.049 84.9092 179.875 84.9092 179.662V175.013C84.9092 174.798 85.0832 174.626 85.296 174.626C85.5105 174.626 85.6828 174.8 85.6828 175.013V179.662C85.6828 179.875 85.5105 180.049 85.296 180.049ZM85.296 170.753C85.0815 170.753 84.9092 170.579 84.9092 170.366V165.717C84.9092 165.502 85.0832 165.33 85.296 165.33C85.5105 165.33 85.6828 165.504 85.6828 165.717V170.366C85.6828 170.579 85.5105 170.753 85.296 170.753ZM85.296 161.457C85.0815 161.457 84.9092 161.282 84.9092 161.07V156.421C84.9092 156.206 85.0832 156.034 85.296 156.034C85.5105 156.034 85.6828 156.208 85.6828 156.421V161.07C85.6828 161.282 85.5105 161.457 85.296 161.457ZM85.296 152.159C85.0815 152.159 84.9092 151.984 84.9092 151.772V147.123C84.9092 146.908 85.0832 146.736 85.296 146.736C85.5105 146.736 85.6828 146.91 85.6828 147.123V151.772C85.6828 151.986 85.5105 152.159 85.296 152.159ZM85.296 142.862C85.0815 142.862 84.9092 142.688 84.9092 142.475V137.826C84.9092 137.612 85.0832 137.439 85.296 137.439C85.5105 137.439 85.6828 137.614 85.6828 137.826V142.475C85.6828 142.69 85.5105 142.862 85.296 142.862ZM85.296 133.566C85.0815 133.566 84.9092 133.392 84.9092 133.179V128.53C84.9092 128.316 85.0832 128.143 85.296 128.143C85.5105 128.143 85.6828 128.317 85.6828 128.53V133.179C85.6828 133.392 85.5105 133.566 85.296 133.566ZM85.296 124.27C85.0815 124.27 84.9092 124.096 84.9092 123.883V119.234C84.9092 119.019 85.0832 118.847 85.296 118.847C85.5105 118.847 85.6828 119.021 85.6828 119.234V123.883C85.6828 124.096 85.5105 124.27 85.296 124.27ZM85.296 114.974C85.0815 114.974 84.9092 114.8 84.9092 114.587V109.938C84.9092 109.723 85.0832 109.551 85.296 109.551C85.5105 109.551 85.6828 109.725 85.6828 109.938V114.587C85.6828 114.8 85.5105 114.974 85.296 114.974ZM85.296 105.676C85.0815 105.676 84.9092 105.502 84.9092 105.289V100.64C84.9092 100.425 85.0832 100.253 85.296 100.253C85.5105 100.253 85.6828 100.427 85.6828 100.64V105.289C85.6828 105.503 85.5105 105.676 85.296 105.676ZM85.296 96.3796C85.0815 96.3796 84.9092 96.2055 84.9092 95.9926V91.3436C84.9092 91.1291 85.0832 90.9567 85.296 90.9567C85.5105 90.9567 85.6828 91.1308 85.6828 91.3436V95.9926C85.6828 96.2072 85.5105 96.3796 85.296 96.3796ZM85.296 87.0834C85.0815 87.0834 84.9092 86.9093 84.9092 86.6964V82.0474C84.9092 81.8328 85.0832 81.6605 85.296 81.6605C85.5105 81.6605 85.6828 81.8346 85.6828 82.0474V86.6964C85.6828 86.9093 85.5105 87.0834 85.296 87.0834ZM85.296 77.7872C85.0815 77.7872 84.9092 77.6131 84.9092 77.4002V72.7512C84.9092 72.5366 85.0832 72.3643 85.296 72.3643C85.5105 72.3643 85.6828 72.5384 85.6828 72.7512V77.4002C85.6828 77.6131 85.5105 77.7872 85.296 77.7872ZM187.508 73.1294H182.861C182.646 73.1294 182.474 72.9553 182.474 72.7424C182.474 72.5296 182.646 72.3555 182.861 72.3555H187.508C187.723 72.3555 187.895 72.5296 187.895 72.7424C187.895 72.9553 187.723 73.1294 187.508 73.1294ZM178.216 73.1294H173.568C173.354 73.1294 173.182 72.9553 173.182 72.7424C173.182 72.5296 173.354 72.3555 173.568 72.3555H178.216C178.43 72.3555 178.602 72.5296 178.602 72.7424C178.602 72.9553 178.43 73.1294 178.216 73.1294ZM168.923 73.1294H164.276C164.061 73.1294 163.889 72.9553 163.889 72.7424C163.889 72.5296 164.061 72.3555 164.276 72.3555H168.923C169.138 72.3555 169.31 72.5296 169.31 72.7424C169.31 72.9553 169.136 73.1294 168.923 73.1294ZM159.629 73.1294H154.982C154.767 73.1294 154.595 72.9553 154.595 72.7424C154.595 72.5296 154.767 72.3555 154.982 72.3555H159.629C159.843 72.3555 160.016 72.5296 160.016 72.7424C160.016 72.9553 159.843 73.1294 159.629 73.1294ZM150.336 73.1294H145.689C145.475 73.1294 145.302 72.9553 145.302 72.7424C145.302 72.5296 145.475 72.3555 145.689 72.3555H150.336C150.551 72.3555 150.723 72.5296 150.723 72.7424C150.723 72.9553 150.551 73.1294 150.336 73.1294ZM141.044 73.1294H136.397C136.182 73.1294 136.01 72.9553 136.01 72.7424C136.01 72.5296 136.182 72.3555 136.397 72.3555H141.044C141.258 72.3555 141.431 72.5296 141.431 72.7424C141.431 72.9553 141.258 73.1294 141.044 73.1294ZM131.751 73.1294H127.104C126.89 73.1294 126.717 72.9553 126.717 72.7424C126.717 72.5296 126.89 72.3555 127.104 72.3555H131.751C131.966 72.3555 132.138 72.5296 132.138 72.7424C132.138 72.9553 131.966 73.1294 131.751 73.1294ZM122.459 73.1294H117.812C117.597 73.1294 117.425 72.9553 117.425 72.7424C117.425 72.5296 117.597 72.3555 117.812 72.3555H122.459C122.673 72.3555 122.846 72.5296 122.846 72.7424C122.846 72.9553 122.672 73.1294 122.459 73.1294ZM113.165 73.1294H108.518C108.303 73.1294 108.131 72.9553 108.131 72.7424C108.131 72.5296 108.303 72.3555 108.518 72.3555H113.165C113.379 72.3555 113.551 72.5296 113.551 72.7424C113.551 72.9553 113.379 73.1294 113.165 73.1294ZM103.872 73.1294H99.225C99.0105 73.1294 98.8382 72.9553 98.8382 72.7424C98.8382 72.5296 99.0105 72.3555 99.225 72.3555H103.872C104.087 72.3555 104.259 72.5296 104.259 72.7424C104.259 72.9553 104.087 73.1294 103.872 73.1294ZM94.5797 73.1294H89.9326C89.7181 73.1294 89.5458 72.9553 89.5458 72.7424C89.5458 72.5296 89.7181 72.3555 89.9326 72.3555H94.5797C94.7942 72.3555 94.9665 72.5296 94.9665 72.7424C94.9665 72.9553 94.7942 73.1294 94.5797 73.1294Z" fill="#5479F7"/>
<path opacity="0.2" d="M434.157 329.84C434.157 332.178 436.051 334.073 438.391 334.073C438.566 334.073 438.737 334.059 438.904 334.039C439.325 335.738 439.994 337.34 440.876 338.799C440.742 338.905 440.611 339.014 440.488 339.137C438.834 340.788 438.834 343.469 440.488 345.124C442.142 346.776 444.822 346.776 446.473 345.124C446.595 345.001 446.707 344.87 446.813 344.736C448.274 345.615 449.872 346.287 451.574 346.709C451.554 346.876 451.54 347.049 451.54 347.222C451.54 349.56 453.434 351.454 455.774 351.454C458.113 351.454 460.007 349.56 460.007 347.222C460.007 347.049 459.993 346.876 459.974 346.709C461.672 346.287 463.273 345.618 464.734 344.736C464.84 344.87 464.949 345.001 465.074 345.124C466.728 346.776 469.408 346.776 471.059 345.124C472.713 343.472 472.713 340.791 471.059 339.137C470.937 339.014 470.805 338.902 470.672 338.799C471.553 337.34 472.222 335.738 472.643 334.039C472.811 334.059 472.984 334.073 473.156 334.073C475.494 334.073 477.39 332.178 477.39 329.84C477.39 327.502 475.496 325.608 473.156 325.608C472.981 325.608 472.811 325.622 472.643 325.642C472.222 323.942 471.553 322.341 470.672 320.882C470.805 320.776 470.937 320.667 471.059 320.544C472.713 318.893 472.713 316.211 471.059 314.557C469.406 312.905 466.725 312.905 465.074 314.557C464.952 314.68 464.84 314.811 464.734 314.945C463.273 314.066 461.675 313.394 459.974 312.972C459.993 312.805 460.007 312.632 460.007 312.459C460.007 310.121 458.113 308.227 455.774 308.227C453.434 308.227 451.54 310.121 451.54 312.459C451.54 312.632 451.554 312.805 451.574 312.972C449.875 313.394 448.274 314.063 446.813 314.945C446.707 314.811 446.598 314.68 446.473 314.557C444.819 312.905 442.139 312.905 440.488 314.557C438.834 316.209 438.834 318.89 440.488 320.544C440.611 320.667 440.742 320.779 440.876 320.882C439.994 322.341 439.325 323.942 438.904 325.642C438.737 325.622 438.564 325.608 438.391 325.608C436.054 325.608 434.157 327.502 434.157 329.84ZM447.912 329.84C447.912 325.499 451.431 321.981 455.771 321.981C460.11 321.981 463.63 325.499 463.63 329.84C463.63 334.182 460.11 337.7 455.771 337.7C451.431 337.7 447.912 334.182 447.912 329.84Z" fill="#3617CE"/>
<path d="M455.771 352.073C453.099 352.073 450.924 349.9 450.924 347.227C450.924 347.21 450.924 347.194 450.924 347.177C449.532 346.789 448.197 346.237 446.942 345.528C446.93 345.539 446.919 345.55 446.908 345.562C445.02 347.45 441.944 347.453 440.053 345.562C439.138 344.646 438.634 343.43 438.634 342.133C438.634 340.838 439.138 339.622 440.053 338.704C440.064 338.693 440.075 338.682 440.089 338.67C439.381 337.415 438.829 336.081 438.441 334.689C438.424 334.689 438.408 334.689 438.391 334.689C435.719 334.689 433.544 332.516 433.544 329.843C433.544 327.153 435.725 324.986 438.438 324.997C438.826 323.607 439.378 322.271 440.087 321.015C440.075 321.004 440.064 320.993 440.053 320.982C439.138 320.067 438.634 318.848 438.634 317.553C438.634 316.259 439.138 315.042 440.053 314.124C441.944 312.235 445.017 312.235 446.908 314.124C446.919 314.135 446.93 314.147 446.942 314.161C448.197 313.452 449.532 312.899 450.924 312.512C450.924 312.495 450.924 312.478 450.924 312.461C450.924 309.789 453.099 307.615 455.771 307.615C458.443 307.615 460.618 309.789 460.618 312.461C460.618 312.478 460.618 312.495 460.618 312.512C462.01 312.899 463.343 313.452 464.601 314.161C464.612 314.149 464.623 314.138 464.634 314.127C466.522 312.238 469.598 312.238 471.489 314.127C472.404 315.042 472.909 316.259 472.909 317.556C472.909 318.85 472.404 320.067 471.489 320.985C471.478 320.996 471.467 321.007 471.456 321.018C472.164 322.274 472.716 323.61 473.104 325C473.12 325 473.137 325 473.154 325C475.826 325 478.001 327.173 478.001 329.846C478.001 332.519 475.826 334.692 473.154 334.692C473.137 334.692 473.12 334.692 473.104 334.692C472.716 336.081 472.164 337.418 471.456 338.673C471.467 338.684 471.478 338.695 471.489 338.707C472.404 339.622 472.909 340.838 472.909 342.136C472.909 343.43 472.404 344.646 471.489 345.564C469.601 347.456 466.525 347.453 464.634 345.564C464.623 345.553 464.612 345.542 464.601 345.528C463.343 346.237 462.01 346.789 460.618 347.177C460.618 347.194 460.618 347.21 460.618 347.227C460.618 349.897 458.443 352.073 455.771 352.073ZM446.813 344.125C446.922 344.125 447.031 344.153 447.131 344.214C448.556 345.073 450.101 345.712 451.722 346.114C452.023 346.189 452.221 346.477 452.185 346.784C452.168 346.929 452.154 347.074 452.154 347.224C452.154 349.219 453.777 350.843 455.771 350.843C457.768 350.843 459.388 349.219 459.388 347.224C459.388 347.077 459.377 346.929 459.357 346.784C459.321 346.477 459.519 346.189 459.82 346.114C461.438 345.712 462.983 345.073 464.411 344.211C464.676 344.052 465.019 344.114 465.211 344.359C465.301 344.474 465.395 344.585 465.501 344.691C466.912 346.103 469.208 346.103 470.619 344.691C471.302 344.008 471.679 343.098 471.679 342.133C471.679 341.167 471.302 340.258 470.619 339.574C470.513 339.468 470.401 339.373 470.287 339.284C470.042 339.092 469.98 338.748 470.139 338.483C470.998 337.055 471.64 335.512 472.041 333.894C472.116 333.593 472.401 333.395 472.711 333.431C472.856 333.448 473.001 333.461 473.151 333.461C475.145 333.461 476.768 331.838 476.768 329.843C476.768 327.848 475.145 326.224 473.151 326.224C473.001 326.224 472.856 326.235 472.713 326.255C472.407 326.294 472.116 326.093 472.044 325.792C471.642 324.174 471.004 322.628 470.142 321.2C469.983 320.935 470.044 320.591 470.29 320.399C470.404 320.31 470.516 320.215 470.622 320.109C471.305 319.425 471.681 318.516 471.681 317.55C471.681 316.585 471.305 315.675 470.622 314.992C469.211 313.58 466.915 313.58 465.504 314.992C465.398 315.098 465.303 315.21 465.214 315.324C465.024 315.567 464.681 315.631 464.414 315.472C462.986 314.612 461.441 313.971 459.823 313.569C459.522 313.494 459.324 313.206 459.36 312.899C459.377 312.754 459.391 312.609 459.391 312.459C459.391 310.464 457.768 308.84 455.774 308.84C453.78 308.84 452.157 310.464 452.157 312.459C452.157 312.607 452.168 312.754 452.187 312.899C452.224 313.206 452.026 313.494 451.724 313.569C450.104 313.971 448.559 314.61 447.134 315.472C446.866 315.634 446.523 315.569 446.334 315.324C446.244 315.21 446.149 315.098 446.044 314.992C444.632 313.58 442.334 313.583 440.926 314.992C440.243 315.675 439.866 316.585 439.866 317.55C439.866 318.516 440.243 319.425 440.926 320.109C441.032 320.215 441.144 320.31 441.258 320.399C441.503 320.591 441.565 320.935 441.406 321.2C440.547 322.628 439.905 324.171 439.504 325.792C439.428 326.093 439.147 326.291 438.834 326.255C438.689 326.238 438.544 326.224 438.397 326.224C436.402 326.224 434.779 327.848 434.779 329.843C434.779 331.838 436.402 333.461 438.397 333.461C438.544 333.461 438.692 333.45 438.837 333.431C439.15 333.395 439.434 333.593 439.506 333.894C439.908 335.515 440.55 337.061 441.408 338.483C441.567 338.748 441.506 339.092 441.261 339.284C441.146 339.373 441.035 339.468 440.926 339.574C440.243 340.258 439.866 341.165 439.866 342.133C439.866 343.098 440.243 344.008 440.926 344.691C442.337 346.103 444.632 346.103 446.044 344.691C446.149 344.585 446.244 344.474 446.334 344.359C446.451 344.206 446.629 344.125 446.813 344.125ZM455.771 338.319C451.1 338.319 447.296 334.516 447.296 329.843C447.296 325.17 451.097 321.367 455.771 321.367C460.445 321.367 464.246 325.17 464.246 329.843C464.246 334.516 460.445 338.319 455.771 338.319ZM455.771 322.597C451.775 322.597 448.526 325.848 448.526 329.843C448.526 333.838 451.777 337.088 455.771 337.088C459.765 337.088 463.016 333.838 463.016 329.843C463.016 325.848 459.767 322.597 455.771 322.597Z" fill="#444444"/>
<path opacity="0.5" d="M64.0781 214.131C64.0781 216.248 65.7932 217.964 67.9124 217.964C68.0715 217.964 68.2256 217.951 68.3772 217.933C68.7586 219.472 69.3647 220.923 70.1629 222.244C70.0417 222.34 69.923 222.439 69.8119 222.55C68.314 224.046 68.314 226.474 69.8119 227.973C71.3097 229.469 73.7371 229.469 75.2324 227.973C75.3435 227.862 75.4445 227.743 75.5405 227.622C76.8641 228.418 78.3114 229.027 79.8522 229.408C79.8345 229.56 79.8219 229.716 79.8219 229.873C79.8219 231.991 81.537 233.706 83.6562 233.706C85.7754 233.706 87.4905 231.991 87.4905 229.873C87.4905 229.716 87.4779 229.56 87.4602 229.408C88.9985 229.027 90.4483 228.42 91.7718 227.622C91.8678 227.743 91.9663 227.862 92.08 227.973C93.5778 229.469 96.0052 229.469 97.5006 227.973C98.9984 226.477 98.9984 224.049 97.5006 222.55C97.3894 222.439 97.2707 222.338 97.1494 222.244C97.9476 220.923 98.5538 219.472 98.9352 217.933C99.0868 217.951 99.2434 217.964 99.4 217.964C101.517 217.964 103.234 216.248 103.234 214.131C103.234 212.013 101.519 210.297 99.4 210.297C99.2408 210.297 99.0868 210.31 98.9352 210.328C98.5538 208.789 97.9476 207.338 97.1494 206.017C97.2707 205.921 97.3894 205.822 97.5006 205.711C98.9984 204.215 98.9984 201.787 97.5006 200.288C96.0027 198.792 93.5753 198.792 92.08 200.288C91.9688 200.399 91.8678 200.518 91.7718 200.639C90.4483 199.843 89.001 199.234 87.4602 198.853C87.4779 198.701 87.4905 198.545 87.4905 198.388C87.4905 196.27 85.7754 194.555 83.6562 194.555C81.537 194.555 79.8219 196.27 79.8219 198.388C79.8219 198.545 79.8345 198.701 79.8522 198.853C78.314 199.234 76.8641 199.841 75.5405 200.639C75.4445 200.518 75.346 200.399 75.2324 200.288C73.7345 198.792 71.3072 198.792 69.8119 200.288C68.314 201.784 68.314 204.212 69.8119 205.711C69.923 205.822 70.0417 205.923 70.1629 206.017C69.3647 207.338 68.7586 208.789 68.3772 210.328C68.2256 210.31 68.069 210.297 67.9124 210.297C65.7957 210.297 64.0781 212.013 64.0781 214.131ZM76.5358 214.131C76.5358 210.199 79.7234 207.012 83.6537 207.012C87.584 207.012 90.7716 210.199 90.7716 214.131C90.7716 218.062 87.584 221.249 83.6537 221.249C79.7234 221.249 76.5358 218.062 76.5358 214.131Z" fill="#3617CE"/>
<path d="M83.6537 234.266C81.2339 234.266 79.2637 232.298 79.2637 229.877C79.2637 229.862 79.2637 229.846 79.2637 229.831C78.0033 229.48 76.7934 228.98 75.6567 228.338C75.6466 228.348 75.6366 228.358 75.6265 228.368C73.9164 230.079 71.1304 230.081 69.4178 228.368C68.5893 227.539 68.1322 226.438 68.1322 225.263C68.1322 224.09 68.5893 222.989 69.4178 222.157C69.4279 222.147 69.4381 222.137 69.4507 222.127C68.8091 220.99 68.309 219.782 67.9579 218.521C67.9427 218.521 67.9276 218.521 67.9124 218.521C65.4926 218.521 63.5225 216.553 63.5225 214.132C63.5225 211.696 65.4976 209.732 67.9553 209.743C68.3064 208.484 68.8066 207.274 69.4482 206.137C69.4381 206.127 69.4279 206.116 69.4178 206.106C68.5893 205.278 68.1322 204.173 68.1322 203.001C68.1322 201.828 68.5893 200.727 69.4178 199.895C71.1304 198.185 73.9139 198.185 75.6265 199.895C75.6366 199.905 75.6466 199.915 75.6567 199.928C76.7934 199.286 78.0033 198.786 79.2637 198.435C79.2637 198.42 79.2637 198.404 79.2637 198.389C79.2637 195.968 81.2339 194 83.6537 194C86.0735 194 88.0436 195.968 88.0436 198.389C88.0436 198.404 88.0436 198.42 88.0436 198.435C89.3041 198.786 90.5114 199.286 91.6506 199.928C91.6607 199.918 91.6708 199.908 91.681 199.898C93.391 198.187 96.177 198.187 97.8895 199.898C98.718 200.727 99.1752 201.828 99.1752 203.003C99.1752 204.176 98.718 205.278 97.8895 206.109C97.8794 206.119 97.8693 206.129 97.8592 206.139C98.5008 207.276 99.0009 208.487 99.352 209.745C99.3672 209.745 99.3824 209.745 99.3975 209.745C101.817 209.745 103.787 211.714 103.787 214.134C103.787 216.555 101.817 218.523 99.3975 218.523C99.3824 218.523 99.3672 218.523 99.352 218.523C99.0009 219.782 98.5008 220.992 97.8592 222.129C97.8693 222.139 97.8794 222.15 97.8895 222.16C98.718 222.989 99.1752 224.09 99.1752 225.265C99.1752 226.438 98.718 227.539 97.8895 228.371C96.1795 230.084 93.3935 230.081 91.681 228.371C91.6708 228.361 91.6607 228.351 91.6506 228.338C90.5114 228.98 89.3041 229.48 88.0436 229.831C88.0436 229.846 88.0436 229.862 88.0436 229.877C88.0436 232.295 86.0735 234.266 83.6537 234.266ZM75.5405 227.067C75.6391 227.067 75.7376 227.092 75.8285 227.148C77.1193 227.926 78.5186 228.505 79.9861 228.869C80.2589 228.937 80.4382 229.197 80.4054 229.475C80.3902 229.606 80.3776 229.738 80.3776 229.874C80.3776 231.681 81.8477 233.152 83.6537 233.152C85.4622 233.152 86.9298 231.681 86.9298 229.874C86.9298 229.74 86.9196 229.606 86.9019 229.475C86.8691 229.197 87.0485 228.937 87.3213 228.869C88.7863 228.505 90.1856 227.926 91.4789 227.145C91.7188 227.001 92.0295 227.057 92.2038 227.279C92.2846 227.383 92.3705 227.484 92.4665 227.58C93.7446 228.858 95.8234 228.858 97.1015 227.58C97.7203 226.961 98.0613 226.137 98.0613 225.263C98.0613 224.388 97.7203 223.565 97.1015 222.946C97.0055 222.85 96.9045 222.764 96.8009 222.683C96.5786 222.508 96.5231 222.198 96.667 221.958C97.445 220.664 98.0259 219.266 98.3896 217.801C98.4578 217.528 98.7155 217.348 98.9959 217.381C99.1272 217.396 99.2586 217.409 99.395 217.409C101.201 217.409 102.671 215.938 102.671 214.132C102.671 212.325 101.201 210.854 99.395 210.854C99.2586 210.854 99.1272 210.864 98.9984 210.882C98.7206 210.918 98.4578 210.736 98.3922 210.463C98.0284 208.997 97.4501 207.597 96.6696 206.303C96.5256 206.063 96.5812 205.753 96.8034 205.578C96.907 205.497 97.008 205.411 97.104 205.315C97.7228 204.696 98.0639 203.873 98.0639 202.998C98.0639 202.124 97.7228 201.3 97.104 200.681C95.8259 199.403 93.7471 199.403 92.469 200.681C92.373 200.777 92.2871 200.878 92.2063 200.982C92.0345 201.202 91.7239 201.26 91.4814 201.116C90.1881 200.337 88.7888 199.756 87.3238 199.392C87.051 199.324 86.8716 199.064 86.9045 198.786C86.9196 198.655 86.9323 198.523 86.9323 198.387C86.9323 196.58 85.4622 195.109 83.6562 195.109C81.8502 195.109 80.3802 196.58 80.3802 198.387C80.3802 198.521 80.3902 198.655 80.4079 198.786C80.4408 199.064 80.2614 199.324 79.9886 199.392C78.5211 199.756 77.1218 200.335 75.8311 201.116C75.5886 201.262 75.2779 201.204 75.1061 200.982C75.0253 200.878 74.9394 200.777 74.8434 200.681C73.5653 199.403 71.484 199.405 70.2085 200.681C69.5896 201.3 69.2486 202.124 69.2486 202.998C69.2486 203.873 69.5896 204.696 70.2085 205.315C70.3044 205.411 70.4055 205.497 70.509 205.578C70.7313 205.753 70.7869 206.063 70.6429 206.303C69.8649 207.597 69.284 208.995 68.9202 210.463C68.852 210.736 68.5969 210.915 68.314 210.882C68.1827 210.867 68.0513 210.854 67.9175 210.854C66.1115 210.854 64.6414 212.325 64.6414 214.132C64.6414 215.938 66.1115 217.409 67.9175 217.409C68.0513 217.409 68.1852 217.399 68.3166 217.381C68.5995 217.348 68.8571 217.528 68.9228 217.801C69.2865 219.269 69.8675 220.669 70.6454 221.958C70.7894 222.198 70.7338 222.508 70.5115 222.683C70.408 222.764 70.307 222.85 70.2085 222.946C69.5896 223.565 69.2486 224.386 69.2486 225.263C69.2486 226.137 69.5896 226.961 70.2085 227.58C71.4865 228.858 73.5653 228.858 74.8434 227.58C74.9394 227.484 75.0253 227.383 75.1061 227.279C75.2122 227.14 75.3738 227.067 75.5405 227.067ZM83.6537 221.808C79.4229 221.808 75.9775 218.364 75.9775 214.132C75.9775 209.899 79.4203 206.455 83.6537 206.455C87.8871 206.455 91.3298 209.899 91.3298 214.132C91.3298 218.364 87.8871 221.808 83.6537 221.808ZM83.6537 207.569C80.0341 207.569 77.0915 210.513 77.0915 214.132C77.0915 217.75 80.0366 220.694 83.6537 220.694C87.2708 220.694 90.2159 217.75 90.2159 214.132C90.2159 210.513 87.2733 207.569 83.6537 207.569Z" fill="#444444"/>
<path d="M469.467 295.487C470.57 299.27 474.529 301.445 478.313 300.342C478.597 300.259 478.865 300.157 479.129 300.045C480.612 302.596 482.451 304.87 484.565 306.819C484.399 307.052 484.24 307.294 484.096 307.549C482.199 311.003 483.462 315.344 486.918 317.238C490.373 319.133 494.709 317.87 496.606 314.416C496.746 314.157 496.864 313.896 496.972 313.628C499.749 314.365 502.657 314.693 505.605 314.575C505.653 314.859 505.711 315.14 505.794 315.423C506.897 319.206 510.856 321.381 514.64 320.278C518.424 319.174 520.598 315.213 519.495 311.431C519.413 311.15 519.311 310.879 519.199 310.614C521.749 309.131 524.026 307.291 525.973 305.18C526.206 305.345 526.448 305.505 526.703 305.645C530.159 307.54 534.495 306.277 536.392 302.823C538.289 299.369 537.026 295.028 533.57 293.134C533.312 292.993 533.051 292.875 532.783 292.767C533.519 289.989 533.848 287.081 533.73 284.134C534.014 284.086 534.294 284.029 534.578 283.946C538.362 282.842 540.536 278.881 539.433 275.099C538.33 271.316 534.371 269.141 530.586 270.245C530.303 270.327 530.035 270.43 529.77 270.541C528.288 267.99 526.448 265.716 524.335 263.767C524.501 263.534 524.66 263.292 524.803 263.037C526.7 259.583 525.438 255.242 521.982 253.348C518.526 251.454 514.191 252.716 512.294 256.17C512.154 256.429 512.036 256.69 511.927 256.958C509.15 256.221 506.243 255.893 503.294 256.011C503.246 255.727 503.189 255.446 503.106 255.163C502.003 251.38 498.044 249.205 494.259 250.309C490.475 251.412 488.301 255.373 489.404 259.156C489.487 259.436 489.589 259.707 489.701 259.972C487.15 261.455 484.874 263.295 482.926 265.406C482.694 265.241 482.451 265.081 482.196 264.941C478.74 263.043 474.405 264.309 472.508 267.763C470.611 271.217 471.874 275.558 475.329 277.452C475.588 277.593 475.849 277.711 476.117 277.819C475.38 280.597 475.052 283.505 475.17 286.452C474.886 286.5 474.606 286.558 474.322 286.641C470.538 287.744 468.364 291.705 469.467 295.487ZM491.725 289.001C489.678 281.975 493.717 274.617 500.744 272.57C507.77 270.522 515.125 274.56 517.171 281.586C519.218 288.611 515.179 295.969 508.153 298.017C501.126 300.064 493.772 296.03 491.725 289.001Z" fill="#BBCAF5"/>
<path d="M512.642 321.262C509.247 321.262 506.11 319.036 505.115 315.614C505.084 315.508 505.058 315.403 505.029 315.288C502.444 315.339 499.878 315.059 497.372 314.45C497.321 314.552 497.27 314.651 497.219 314.746C495.14 318.535 490.365 319.926 486.577 317.846C484.741 316.838 483.409 315.177 482.825 313.168C482.239 311.158 482.471 309.041 483.479 307.204C483.533 307.108 483.587 307.012 483.648 306.913C481.786 305.127 480.17 303.112 478.827 300.905C478.719 300.943 478.614 300.975 478.509 301.007C474.358 302.216 470 299.824 468.792 295.674C468.205 293.665 468.438 291.548 469.445 289.711C470.453 287.877 472.114 286.54 474.125 285.957C474.23 285.925 474.336 285.899 474.45 285.871C474.399 283.291 474.68 280.72 475.292 278.213C475.19 278.162 475.091 278.111 474.996 278.06C473.159 277.052 471.827 275.391 471.24 273.382C470.657 271.372 470.886 269.255 471.894 267.418C473.972 263.629 478.745 262.238 482.535 264.318C482.631 264.369 482.726 264.426 482.825 264.487C484.61 262.628 486.628 261.007 488.834 259.665C488.796 259.556 488.764 259.451 488.732 259.346C488.146 257.337 488.379 255.216 489.386 253.382C490.393 251.548 492.054 250.212 494.066 249.628C498.217 248.419 502.575 250.811 503.783 254.961C503.812 255.066 503.843 255.171 503.869 255.286C506.451 255.235 509.021 255.515 511.526 256.125C511.577 256.023 511.628 255.924 511.679 255.828C513.758 252.039 518.53 250.646 522.321 252.728C524.154 253.736 525.49 255.397 526.073 257.407C526.657 259.416 526.427 261.534 525.42 263.371C525.365 263.466 525.311 263.562 525.251 263.661C527.109 265.447 528.729 267.462 530.071 269.669C530.179 269.631 530.285 269.599 530.39 269.567C534.54 268.359 538.898 270.75 540.107 274.9C540.693 276.909 540.461 279.027 539.453 280.864C538.446 282.697 536.785 284.034 534.773 284.617C534.668 284.649 534.56 284.678 534.448 284.704C534.499 287.287 534.218 289.857 533.606 292.361C533.708 292.412 533.807 292.463 533.903 292.514C535.736 293.522 537.072 295.183 537.655 297.193C538.238 299.202 538.009 301.319 537.002 303.156C534.923 306.945 530.151 308.336 526.36 306.256C526.264 306.205 526.169 306.148 526.07 306.087C524.285 307.947 522.267 309.567 520.061 310.91C520.099 311.018 520.131 311.123 520.163 311.228C520.746 313.238 520.517 315.355 519.506 317.192C518.499 319.026 516.838 320.362 514.826 320.946C514.102 321.163 513.366 321.262 512.642 321.262ZM505.603 313.869C505.944 313.869 506.241 314.118 506.295 314.459C506.343 314.746 506.397 314.998 506.461 315.221C507.452 318.628 511.029 320.592 514.437 319.6C516.085 319.119 517.45 318.025 518.279 316.519C519.104 315.014 519.296 313.276 518.817 311.624C518.75 311.397 518.668 311.165 518.55 310.887C518.409 310.562 518.537 310.182 518.843 310.004C521.304 308.572 523.529 306.789 525.455 304.7C525.697 304.439 526.092 304.4 526.379 304.604C526.622 304.78 526.832 304.914 527.039 305.025C530.147 306.732 534.069 305.59 535.774 302.48C536.603 300.975 536.791 299.237 536.313 297.585C535.832 295.936 534.738 294.571 533.233 293.745C533.026 293.633 532.797 293.525 532.522 293.417C532.194 293.286 532.012 292.929 532.105 292.584C532.832 289.838 533.144 287.003 533.029 284.158C533.013 283.804 533.268 283.495 533.616 283.437C533.912 283.39 534.155 283.335 534.381 283.268C536.032 282.787 537.397 281.693 538.223 280.188C539.048 278.682 539.239 276.944 538.761 275.292C537.77 271.886 534.196 269.921 530.785 270.916C530.555 270.983 530.323 271.069 530.049 271.184C529.723 271.325 529.344 271.197 529.166 270.891C527.734 268.429 525.952 266.206 523.861 264.28C523.599 264.04 523.558 263.642 523.768 263.351C523.94 263.109 524.077 262.899 524.189 262.691C525.018 261.186 525.206 259.448 524.728 257.796C524.246 256.147 523.153 254.782 521.648 253.956C518.54 252.25 514.619 253.391 512.913 256.501C512.798 256.708 512.69 256.941 512.585 257.209C512.451 257.537 512.094 257.716 511.753 257.627C509.008 256.9 506.174 256.587 503.327 256.702C502.983 256.711 502.664 256.463 502.606 256.115C502.559 255.822 502.504 255.576 502.438 255.35C501.446 251.944 497.872 249.979 494.461 250.971C492.813 251.452 491.449 252.546 490.62 254.052C489.794 255.557 489.603 257.295 490.081 258.947C490.148 259.177 490.237 259.416 490.349 259.681C490.489 260.006 490.365 260.385 490.055 260.564C487.594 261.996 485.369 263.779 483.444 265.868C483.205 266.129 482.806 266.168 482.519 265.963C482.28 265.791 482.063 265.654 481.859 265.542C478.748 263.836 474.83 264.978 473.124 268.087C472.295 269.593 472.107 271.331 472.585 272.983C473.067 274.632 474.16 275.997 475.665 276.823C475.872 276.934 476.102 277.043 476.376 277.151C476.704 277.282 476.886 277.639 476.793 277.984C476.063 280.733 475.754 283.568 475.869 286.41C475.885 286.764 475.63 287.073 475.282 287.131C474.989 287.178 474.747 287.233 474.517 287.3C472.869 287.781 471.505 288.875 470.676 290.38C469.85 291.886 469.659 293.624 470.137 295.276C471.129 298.682 474.702 300.647 478.113 299.652C478.34 299.585 478.576 299.498 478.85 299.384C479.175 299.243 479.554 299.371 479.733 299.677C481.164 302.136 482.946 304.362 485.038 306.288C485.299 306.528 485.34 306.926 485.13 307.216C484.961 307.452 484.821 307.669 484.709 307.877C483.884 309.382 483.692 311.12 484.174 312.769C484.655 314.418 485.749 315.783 487.253 316.609C490.362 318.315 494.283 317.173 495.988 314.064C496.103 313.856 496.211 313.624 496.317 313.356C496.451 313.027 496.808 312.849 497.149 312.938C499.897 313.665 502.734 313.978 505.575 313.863C505.584 313.869 505.594 313.869 505.603 313.869ZM504.452 299.246C498.408 299.246 492.826 295.282 491.053 289.194C490.011 285.616 490.425 281.846 492.22 278.577C494.015 275.308 496.973 272.935 500.55 271.892C504.127 270.849 507.899 271.264 511.166 273.056C514.434 274.849 516.806 277.808 517.848 281.387C520 288.773 515.738 296.536 508.351 298.688C507.054 299.065 505.743 299.246 504.452 299.246ZM492.402 288.802C494.337 295.445 501.315 299.275 507.959 297.339C514.603 295.403 518.435 288.422 516.5 281.779C515.562 278.561 513.43 275.901 510.49 274.287C507.551 272.674 504.159 272.304 500.942 273.241C497.726 274.179 495.064 276.313 493.451 279.253C491.834 282.19 491.465 285.584 492.402 288.802Z" fill="#444444"/>
<path d="M377.158 56.0924C377.374 54.7153 376.735 53.472 375.731 53.3156C374.727 53.1592 373.738 54.1488 373.522 55.526C373.307 56.9031 373.946 58.1463 374.95 58.3028C375.954 58.4592 376.943 57.4696 377.158 56.0924Z" fill="#301011"/>
<path d="M362.851 53.9299C362.659 55.509 361.88 56.6641 361.11 56.5096C360.34 56.3552 359.871 54.9479 360.062 53.3689C360.254 51.7899 361.033 50.6348 361.803 50.7892C362.573 50.9437 363.043 52.3493 362.851 53.9299Z" fill="#301011"/>
<path d="M368.572 71.8498C368.264 71.8498 367.947 71.8319 367.621 71.7948C365.669 71.5667 364.215 70.6902 363.34 69.995C363.25 69.9236 363.235 69.7944 363.307 69.7051C363.379 69.6158 363.508 69.6007 363.598 69.6721C364.431 70.3344 365.815 71.1683 367.67 71.384C370.737 71.7426 373.01 70.1901 373.846 69.5059C373.934 69.4331 374.065 69.4468 374.137 69.5347C374.21 69.6227 374.196 69.7532 374.108 69.8246C373.319 70.4704 371.31 71.8498 368.572 71.8498Z" fill="black"/>
<path d="M366.699 54.4316C366.834 55.7616 366.647 57.0778 366.163 58.2401C365.919 58.8212 365.577 59.3529 365.173 59.8283C365.067 59.9437 364.965 60.0619 364.863 60.18L364.516 60.5001L364.344 60.6609C364.261 60.7351 364.174 60.8175 364.106 60.9109C363.964 61.0964 363.87 61.3135 363.826 61.5333C363.743 61.9757 363.841 62.4195 364.063 62.7877C364.169 62.969 364.329 63.1463 364.477 63.2713C364.617 63.3895 364.758 63.5049 364.911 63.6052C365.519 64.0091 366.198 64.3141 366.91 64.4446C367.616 64.5916 368.338 64.5916 369.029 64.4954C369.717 64.4144 370.445 64.1547 370.897 63.6436C370.31 64.0008 369.657 64.1039 368.998 64.0723C368.667 64.0668 368.339 64.0475 368.018 63.9967C367.696 63.9514 367.381 63.8854 367.076 63.792C366.468 63.6038 365.896 63.3276 365.403 62.9471C365.28 62.8523 365.159 62.7561 365.044 62.6517C364.937 62.5569 364.873 62.4772 364.809 62.37C364.688 62.1639 364.648 61.9125 364.692 61.7037C364.712 61.5979 364.752 61.5031 364.811 61.4207C364.84 61.3781 364.874 61.3451 364.915 61.3053L365.108 61.1211L365.491 60.7502C365.605 60.6142 365.72 60.4782 365.829 60.338C366.247 59.7692 366.616 59.151 366.809 58.4736C367.021 57.8059 367.108 57.1094 367.093 56.4252C367.068 55.7396 366.957 55.0581 366.699 54.4316Z" fill="black"/>
<path d="M131.82 90.2436C135.733 99.6336 131.248 110.402 121.796 114.294C112.344 118.186 101.512 113.723 97.5989 104.333C93.6857 94.9433 98.1709 84.1745 107.623 80.2829C117.074 76.3914 127.907 80.8535 131.82 90.2436Z" fill="white" stroke="#444444"/>
<path d="M114.703 111.361C122.52 111.361 128.858 105.062 128.858 97.2911C128.858 89.5202 122.52 83.2207 114.703 83.2207C106.885 83.2207 100.547 89.5202 100.547 97.2911C100.547 105.062 106.885 111.361 114.703 111.361Z" fill="#8F88A4"/>
<path d="M117.498 101.281C117.498 100.626 117.265 100.074 116.804 99.6236C116.343 99.1765 115.564 98.7705 114.466 98.4054C112.94 97.9435 111.827 97.34 111.126 96.5949C110.429 95.8499 110.077 94.9036 110.077 93.76C110.077 92.5902 110.418 91.6328 111.104 90.8841C111.786 90.1353 112.731 89.692 113.926 89.5467V87.2109H115.526V89.5616C116.729 89.7255 117.666 90.2284 118.337 91.0666C119.008 91.9085 119.342 93.0596 119.342 94.5162H117.363C117.363 93.5104 117.123 92.7094 116.643 92.1171C116.164 91.5248 115.515 91.2268 114.698 91.2268C113.847 91.2268 113.192 91.4466 112.742 91.8862C112.288 92.3257 112.063 92.9367 112.063 93.7227C112.063 94.4492 112.303 95.0303 112.779 95.4624C113.255 95.8946 114.042 96.2857 115.133 96.6396C116.227 96.9935 117.078 97.3809 117.693 97.8056C118.304 98.2303 118.757 98.7221 119.046 99.2846C119.334 99.8471 119.48 100.506 119.48 101.263C119.48 102.466 119.117 103.435 118.39 104.168C117.663 104.902 116.643 105.338 115.332 105.472V107.514H113.742V105.472C112.408 105.349 111.366 104.88 110.609 104.057C109.852 103.233 109.474 102.116 109.474 100.708H111.464C111.464 101.699 111.726 102.459 112.247 102.995C112.772 103.528 113.514 103.796 114.473 103.796C115.414 103.796 116.149 103.572 116.688 103.122C117.232 102.671 117.498 102.06 117.498 101.281Z" fill="white"/>
<path d="M346.487 246.99C350.044 255.525 345.967 265.314 337.376 268.851C328.784 272.389 318.937 268.332 315.381 259.797C311.824 251.262 315.9 241.473 324.492 237.936C333.084 234.398 342.93 238.455 346.487 246.99Z" fill="white" stroke="#444444"/>
<path d="M330.929 266.221C338.054 266.221 343.83 260.48 343.83 253.398C343.83 246.316 338.054 240.574 330.929 240.574C323.803 240.574 318.027 246.316 318.027 253.398C318.027 260.48 323.803 266.221 330.929 266.221Z" fill="#A59FB8"/>
<path d="M333.475 257.038C333.475 256.441 333.263 255.938 332.843 255.528C332.423 255.12 331.713 254.75 330.712 254.417C329.322 253.996 328.307 253.446 327.668 252.767C327.033 252.088 326.712 251.226 326.712 250.184C326.712 249.117 327.023 248.245 327.648 247.562C328.27 246.88 329.13 246.476 330.22 246.344V244.215H331.679V246.357C332.775 246.507 333.629 246.965 334.24 247.729C334.852 248.496 335.156 249.545 335.156 250.873H333.352C333.352 249.956 333.134 249.226 332.696 248.686C332.259 248.146 331.668 247.875 330.924 247.875C330.148 247.875 329.551 248.075 329.141 248.476C328.727 248.876 328.522 249.433 328.522 250.15C328.522 250.812 328.741 251.341 329.175 251.735C329.609 252.129 330.326 252.485 331.32 252.808C332.317 253.131 333.093 253.484 333.653 253.871C334.21 254.258 334.623 254.706 334.886 255.219C335.149 255.731 335.282 256.332 335.282 257.021C335.282 258.118 334.951 259.001 334.288 259.67C333.625 260.339 332.696 260.736 331.501 260.858V262.719H330.053V260.858C328.837 260.746 327.887 260.318 327.197 259.568C326.507 258.817 326.162 257.799 326.162 256.516H327.976C327.976 257.419 328.215 258.111 328.69 258.6C329.168 259.086 329.844 259.33 330.719 259.33C331.576 259.33 332.246 259.126 332.737 258.716C333.233 258.305 333.475 257.748 333.475 257.038Z" fill="white"/>
<path d="M185.281 37.4133C191.757 52.9519 184.334 70.7698 168.697 77.2083C153.059 83.6467 135.135 76.2648 128.659 60.7261C122.184 45.1875 129.606 27.3696 145.244 20.9311C160.882 14.4927 178.806 21.8746 185.281 37.4133Z" fill="white" stroke="#444444"/>
<path d="M156.96 72.1258C169.761 72.1258 180.138 61.8111 180.138 49.0873C180.138 36.3635 169.761 26.0488 156.96 26.0488C144.159 26.0488 133.782 36.3635 133.782 49.0873C133.782 61.8111 144.159 72.1258 156.96 72.1258Z" fill="#A59FB8"/>
<path d="M161.541 55.6264C161.541 54.5528 161.16 53.6501 160.406 52.912C159.651 52.18 158.374 51.5152 156.576 50.9174C154.079 50.161 152.256 49.1729 151.109 47.953C149.967 46.733 149.39 45.1837 149.39 43.3111C149.39 41.3958 149.949 39.8282 151.072 38.6022C152.189 37.3761 153.735 36.6503 155.693 36.4124V32.5879H158.313V36.4368C160.283 36.7052 161.817 37.5286 162.915 38.9011C164.014 40.2796 164.56 42.1644 164.56 44.5493H161.32C161.32 42.9024 160.927 41.591 160.142 40.6212C159.356 39.6513 158.295 39.1633 156.957 39.1633C155.564 39.1633 154.49 39.5232 153.754 40.243C153.011 40.9627 152.643 41.9631 152.643 43.2501C152.643 44.4396 153.036 45.3911 153.815 46.0987C154.594 46.8062 155.883 47.4467 157.669 48.0262C159.461 48.6056 160.854 49.24 161.86 49.9354C162.86 50.6307 163.603 51.4359 164.075 52.3569C164.548 53.278 164.787 54.3576 164.787 55.5959C164.787 57.566 164.192 59.152 163.001 60.3536C161.811 61.5552 160.142 62.2689 157.994 62.4885V65.8311H155.392V62.4885C153.207 62.2872 151.501 61.5186 150.262 60.1706C149.022 58.8226 148.402 56.9927 148.402 54.687H151.661C151.661 56.3095 152.09 57.5539 152.943 58.4322C153.803 59.3045 155.018 59.7436 156.589 59.7436C158.129 59.7436 159.332 59.3777 160.215 58.6396C161.105 57.9015 161.541 56.9012 161.541 55.6264Z" fill="white"/>
<path d="M217.669 250.207L249.362 291.564L280.941 278.673C283.527 277.617 286.296 277.074 289.09 277.074H293.887C297.46 277.074 300.818 275.373 302.933 272.492L307.236 266.91C307.846 266.121 308.786 265.656 309.785 265.656C311.995 265.656 313.548 267.832 312.83 269.923L311.628 273.426L317.933 264.775C318.541 263.941 319.512 263.447 320.544 263.447C322.9 263.447 324.463 265.888 323.479 268.029L320.15 275.264L328.878 264.564C329.455 263.857 330.32 263.445 331.233 263.445C333.372 263.445 334.842 265.598 334.062 267.593L331.526 274.073L338.568 266.358C339.176 265.693 340.035 265.313 340.937 265.313C343.428 265.313 344.966 268.031 343.688 270.168L333.675 286.905C331.864 289.932 329.144 292.31 325.903 293.7L254.904 324.144C242.009 329.672 227.166 328.066 215.751 319.908L192.997 303.643L217.669 250.207Z" fill="white"/>
<path d="M239.144 327.753C230.789 327.753 222.474 325.197 215.522 320.228L192.766 303.962C192.615 303.853 192.563 303.653 192.64 303.484L217.317 250.044C217.374 249.921 217.491 249.837 217.627 249.821C217.764 249.805 217.894 249.863 217.977 249.97L249.488 291.094L280.793 278.315C283.439 277.235 286.229 276.686 289.088 276.686H293.885C297.32 276.686 300.586 275.032 302.62 272.262L306.928 266.674C307.606 265.794 308.674 265.27 309.783 265.27C310.963 265.27 312.034 265.821 312.718 266.781C313.403 267.741 313.577 268.932 313.194 270.049L312.827 271.122L317.618 264.547C318.297 263.617 319.39 263.061 320.542 263.061C321.782 263.061 322.919 263.683 323.587 264.728C324.256 265.771 324.345 267.068 323.828 268.193L321.773 272.663L328.576 264.322C329.23 263.522 330.197 263.061 331.229 263.061C332.361 263.061 333.42 263.62 334.058 264.556C334.696 265.492 334.832 266.681 334.418 267.736L332.644 272.273L338.278 266.099C338.956 265.354 339.925 264.927 340.931 264.927C342.243 264.927 343.41 265.608 344.057 266.749C344.704 267.891 344.688 269.244 344.015 270.369L334.002 287.106C332.136 290.223 329.386 292.626 326.049 294.057L255.05 324.502C249.972 326.683 244.549 327.753 239.144 327.753ZM193.479 303.519L215.972 319.598C227.202 327.626 242.061 329.234 254.747 323.793L325.747 293.349C328.932 291.982 331.558 289.686 333.339 286.712L343.352 269.975C343.88 269.092 343.894 268.032 343.386 267.136C342.877 266.241 341.961 265.706 340.933 265.706C340.143 265.706 339.384 266.04 338.851 266.624L331.809 274.339C331.682 274.477 331.477 274.505 331.318 274.406C331.16 274.308 331.095 274.111 331.162 273.937L333.697 267.456C334.023 266.628 333.921 265.731 333.418 264.996C332.917 264.26 332.118 263.838 331.229 263.838C330.429 263.838 329.682 264.194 329.175 264.814L320.447 275.514C320.324 275.666 320.108 275.701 319.942 275.599C319.777 275.495 319.714 275.286 319.797 275.108L323.125 267.873C323.533 266.989 323.461 265.97 322.937 265.15C322.411 264.331 321.516 263.84 320.542 263.84C319.637 263.84 318.778 264.276 318.244 265.008L311.939 273.659C311.826 273.813 311.617 273.863 311.446 273.775C311.276 273.687 311.197 273.486 311.26 273.305L312.463 269.803C312.763 268.927 312.628 267.991 312.09 267.237C311.552 266.482 310.712 266.049 309.785 266.049C308.913 266.049 308.076 266.461 307.543 267.152L303.241 272.733C301.066 275.694 297.568 277.465 293.887 277.465H289.09C286.333 277.465 283.639 277.993 281.086 279.036L249.508 291.927C249.346 291.992 249.161 291.943 249.054 291.804L217.752 250.955L193.479 303.519Z" fill="black"/>
<path d="M183.016 235.89L188.175 197.986L185.458 167.177C185.458 167.177 205.102 146.638 191.258 130.607C177.414 114.574 170.211 135.184 160.087 136.946C149.965 138.707 141.285 141.98 134.182 172.094C129.865 190.398 124.505 213.833 120.966 229.399C119.084 237.678 123.331 246.207 129.335 246.207H174.368C178.579 246.207 182.199 241.886 183.016 235.89Z" fill="black"/>
<path d="M226.079 248.784C226.079 248.784 215.569 236.941 207.436 226.289C200.708 217.478 190.707 211.782 179.706 210.46C173.355 209.696 165.45 206.938 156.382 206.82C144.124 206.66 129.894 208.154 117.424 210.46C100.81 213.531 86.1393 223.184 76.5937 237.131L53.8398 270.372L79.6355 282.954L72.9558 336.911H211.594L205.313 278.462L226.079 248.784Z" fill="#5754F7"/>
<path d="M86.6702 282.407L60.0991 273.425C60.0991 273.425 27.8946 317.764 47.9846 336.91C68.0747 356.059 121.72 296.327 131.483 282.855C131.483 282.855 137.767 284.315 136.871 280.161C136.871 280.161 144.502 282.968 144.502 277.241C144.502 277.241 152.358 279.274 150.786 271.858C150.786 271.858 158.332 280.695 160.65 279.519C164.208 277.709 159.876 270.28 156.621 264.667C153.367 259.055 142.043 245.171 117.116 260.405C96.7978 272.826 86.6702 282.407 86.6702 282.407Z" fill="white"/>
<path d="M57.8499 341.046C53.8006 341.046 50.4159 339.76 47.717 337.19C43.0523 332.743 40.7964 326.59 41.0144 318.902C41.1867 312.795 42.9151 305.71 46.1486 297.84C51.6432 284.473 59.7031 273.307 59.784 273.197C59.9088 273.024 60.1515 272.985 60.3255 273.11C60.4979 273.237 60.5365 273.478 60.4117 273.652C60.3308 273.763 52.3184 284.864 46.8607 298.146C41.8566 310.327 38.0341 326.891 48.2515 336.629C53.5386 341.668 61.704 341.471 72.5244 336.048C72.7161 335.952 72.9482 336.031 73.0431 336.221C73.1398 336.413 73.0625 336.645 72.8708 336.741C67.1459 339.61 62.1278 341.046 57.8499 341.046Z" fill="black"/>
<path d="M56.5961 307.772C56.4836 307.772 56.3728 307.725 56.2955 307.632C56.1601 307.466 56.1847 307.222 56.35 307.086L85.0503 283.521C85.2155 283.386 85.4599 283.41 85.5953 283.574C85.7307 283.739 85.7061 283.984 85.5408 284.119L56.8423 307.684C56.7702 307.744 56.6823 307.772 56.5961 307.772Z" fill="black"/>
<path d="M130.619 283.24C130.604 283.24 130.588 283.24 130.572 283.237C127.34 282.846 124.263 281.601 121.67 279.632C121.499 279.504 121.466 279.259 121.596 279.089C121.724 278.918 121.967 278.885 122.139 279.015C124.622 280.901 127.571 282.093 130.665 282.468C130.878 282.494 131.029 282.686 131.003 282.899C130.98 283.096 130.813 283.24 130.619 283.24Z" fill="black"/>
<path d="M137.249 280.594C137.182 280.594 137.116 280.576 137.054 280.541C135.841 279.832 134.723 278.97 133.726 277.98C133.574 277.828 133.573 277.584 133.724 277.433C133.875 277.281 134.119 277.28 134.271 277.431C135.22 278.376 136.287 279.197 137.444 279.872C137.629 279.98 137.691 280.217 137.583 280.402C137.513 280.525 137.383 280.594 137.249 280.594Z" fill="black"/>
<path d="M144.758 277.461C144.654 277.461 144.549 277.419 144.473 277.336L141.718 274.339C141.574 274.181 141.584 273.936 141.741 273.792C141.899 273.648 142.143 273.656 142.288 273.815L145.043 276.812C145.187 276.97 145.176 277.215 145.02 277.359C144.946 277.426 144.853 277.461 144.758 277.461Z" fill="black"/>
<path d="M150.787 272.248C150.678 272.248 150.571 272.202 150.493 272.112C150.11 271.666 149.82 271.286 149.512 270.885C149.152 270.413 148.779 269.926 148.232 269.309C148.09 269.149 148.106 268.904 148.266 268.762C148.426 268.619 148.67 268.635 148.812 268.795C149.379 269.433 149.76 269.931 150.128 270.413C150.428 270.805 150.711 271.175 151.081 271.606C151.22 271.768 151.202 272.012 151.038 272.153C150.966 272.218 150.877 272.248 150.787 272.248Z" fill="black"/>
<path d="M172.259 209.276C172.259 209.276 186.103 220.757 173.831 226.647C161.558 232.538 143.937 206.764 143.937 206.764C147.648 205.628 150.528 202.685 151.585 198.947L158.558 174.277L177.956 184.019L172.259 209.276Z" fill="white"/>
<path d="M159.738 168.293C159.738 168.293 155.038 160.349 149.89 161.954C142.044 164.397 142.553 178.421 155.479 177.746C155.479 177.746 170.773 197.293 185.447 191.867C200.122 186.442 189.36 153.384 186.513 147.718C186.513 147.718 167.021 145.122 165.565 156.879C164.721 163.718 166.365 168.293 159.738 168.293Z" fill="white"/>
<path d="M180.127 193.192C175.341 193.192 170.114 191.155 164.732 187.152C159.664 183.382 156.014 179.018 155.302 178.142C148.325 178.431 145.139 174.598 144.476 170.887C143.738 166.755 146.015 162.755 149.776 161.585C154.752 160.036 159.169 166.649 159.955 167.905C164.545 167.831 164.661 165.39 164.869 161.01C164.929 159.761 164.996 158.347 165.184 156.832C165.505 154.227 166.715 152.099 168.774 150.507C174.823 145.834 186.09 147.272 186.566 147.336C186.693 147.353 186.803 147.431 186.861 147.545C189.151 152.104 196.49 174.058 191.899 185.703C190.615 188.96 188.49 191.155 185.583 192.23C183.846 192.872 182.021 193.192 180.127 193.192ZM155.482 177.358C155.601 177.358 155.714 177.412 155.786 177.506C155.937 177.699 171.077 196.768 185.316 191.504C188.008 190.508 189.981 188.461 191.18 185.418C195.618 174.16 188.616 152.954 186.262 148.078C184.706 147.906 174.61 146.975 169.247 151.119C167.357 152.579 166.249 154.533 165.952 156.926C165.767 158.41 165.702 159.81 165.643 161.045C165.432 165.478 165.28 168.679 159.738 168.679C159.601 168.679 159.475 168.607 159.406 168.489C159.36 168.412 154.806 160.829 150.006 162.322C146.147 163.524 144.67 167.56 145.24 170.748C145.851 174.169 148.851 177.701 155.462 177.358C155.467 177.358 155.474 177.358 155.482 177.358Z" fill="black"/>
<path d="M157.007 173.252C156.912 173.252 156.816 173.217 156.74 173.146C154.92 171.419 152.263 170.65 149.802 171.141C149.593 171.183 149.389 171.046 149.346 170.837C149.304 170.627 149.441 170.423 149.651 170.381C152.353 169.841 155.274 170.686 157.275 172.583C157.429 172.731 157.436 172.976 157.289 173.131C157.211 173.211 157.109 173.252 157.007 173.252Z" fill="black"/>
<path d="M305.785 283.237C305.715 283.237 305.645 283.218 305.581 283.179C305.4 283.067 305.344 282.828 305.456 282.646L311.299 273.22C311.412 273.039 311.651 272.983 311.832 273.095C312.013 273.208 312.069 273.447 311.957 273.628L306.114 283.054C306.04 283.172 305.914 283.237 305.785 283.237Z" fill="black"/>
<path d="M315.368 283.243C315.298 283.243 315.226 283.224 315.163 283.183C314.981 283.069 314.927 282.83 315.041 282.649L319.822 275.062C319.936 274.881 320.177 274.826 320.357 274.941C320.538 275.055 320.592 275.294 320.478 275.475L315.697 283.062C315.623 283.18 315.497 283.243 315.368 283.243Z" fill="black"/>
<path d="M325.501 283.24C325.426 283.24 325.35 283.217 325.281 283.171C325.106 283.05 325.06 282.809 325.181 282.633L331.205 273.856C331.326 273.68 331.567 273.634 331.743 273.756C331.919 273.877 331.965 274.118 331.843 274.294L325.82 283.071C325.746 283.182 325.624 283.24 325.501 283.24Z" fill="black"/>
<path d="M198.75 272.369L176.533 332.341H108.294C107.337 332.341 106.483 332.935 106.151 333.833C105.597 335.326 106.701 336.914 108.294 336.914H174.838H185.115H242.914C244.583 336.914 246.076 335.875 246.656 334.309L268.817 274.486C269.554 272.497 268.082 270.381 265.962 270.381H201.607C200.333 270.379 199.193 271.172 198.75 272.369Z" fill="black"/>
<path d="M171.679 162.432C171.463 161.055 172.102 159.812 173.106 159.655C174.11 159.499 175.099 160.489 175.315 161.866C175.53 163.243 174.891 164.486 173.887 164.643C172.883 164.799 171.894 163.809 171.679 162.432Z" fill="#301011"/>
<path d="M185.986 160.27C186.178 161.849 186.957 163.004 187.727 162.849C188.497 162.695 188.966 161.288 188.775 159.709C188.583 158.13 187.804 156.975 187.034 157.129C186.264 157.284 185.794 158.689 185.986 160.27Z" fill="#301011"/>
<path d="M180.265 178.192C180.573 178.192 180.89 178.174 181.216 178.137C183.168 177.909 184.622 177.032 185.497 176.337C185.586 176.265 185.602 176.136 185.53 176.047C185.458 175.958 185.329 175.942 185.239 176.014C184.406 176.676 183.022 177.51 181.167 177.726C178.099 178.084 175.827 176.532 174.991 175.848C174.903 175.775 174.772 175.789 174.7 175.877C174.627 175.964 174.641 176.095 174.729 176.166C175.518 176.812 177.526 178.192 180.265 178.192Z" fill="black"/>
<path d="M182.138 160.771C182.003 162.101 182.19 163.418 182.674 164.58C182.917 165.161 183.26 165.693 183.664 166.168C183.77 166.284 183.872 166.402 183.974 166.52L184.321 166.84L184.493 167.001C184.576 167.075 184.662 167.157 184.731 167.251C184.873 167.436 184.967 167.653 185.011 167.873C185.094 168.316 184.996 168.759 184.774 169.128C184.668 169.309 184.508 169.486 184.359 169.611C184.22 169.729 184.079 169.845 183.926 169.945C183.318 170.349 182.639 170.654 181.927 170.784C181.221 170.931 180.499 170.931 179.807 170.835C179.12 170.754 178.392 170.495 177.94 169.983C178.527 170.341 179.179 170.444 179.839 170.412C180.17 170.407 180.498 170.387 180.818 170.337C181.141 170.291 181.456 170.225 181.761 170.132C182.369 169.944 182.941 169.667 183.434 169.287C183.557 169.192 183.678 169.096 183.793 168.992C183.899 168.897 183.964 168.817 184.028 168.71C184.149 168.504 184.189 168.252 184.145 168.044C184.125 167.938 184.085 167.843 184.026 167.76C183.997 167.718 183.963 167.685 183.921 167.645L183.729 167.461L183.346 167.09C183.231 166.954 183.117 166.818 183.008 166.678C182.59 166.109 182.221 165.491 182.028 164.813C181.816 164.146 181.729 163.449 181.744 162.765C181.769 162.079 181.88 161.398 182.138 160.771Z" fill="black"/>
</svg>
