<svg width="680" height="184" viewBox="0 0 680 184" fill="none" xmlns="http://www.w3.org/2000/svg">
<rect x="5" y="91" width="240" height="1" fill="#E0DFE8"/>
<rect x="250" y="91" width="240" height="1" fill="#E0DFE8"/>
<rect x="5" y="137" width="240" height="1" fill="#E0DFE8"/>
<rect x="250" y="137" width="240" height="1" fill="#E0DFE8"/>
<rect x="5.5" y="45.5" width="239" height="138" rx="9.5" stroke="#877AC8"/>
<rect x="250.5" y="45.5" width="239" height="138" rx="9.5" stroke="#877AC8"/>
<rect opacity="0.7" x="490" width="190" height="40" rx="20" fill="#565EA1"/>
<rect x="495.5" y="45.5" width="179" height="138" rx="9.5" stroke="#877AC8"/>
<path d="M551.749 18.7845H553.843V20.2265H551.749V27.3591H550.009V13.2707H551.749V18.7845ZM541.368 14.7348H548.02C548.009 18.884 546.291 22.5304 541.594 24.8398L540.617 23.5028C544.053 21.779 545.909 19.3812 546.252 16.1657H541.368V14.7348ZM564.533 13.2707H566.273V20.8508H564.533V13.2707ZM558.577 13.8895C560.754 13.884 562.378 15.2431 562.378 17.2044C562.378 19.1271 560.754 20.4917 558.577 20.4862C556.395 20.4917 554.765 19.1271 554.771 17.2044C554.765 15.2431 556.395 13.884 558.577 13.8895ZM558.577 15.3425C557.345 15.337 556.461 16.0718 556.467 17.2044C556.461 18.337 557.345 19.0552 558.577 19.0552C559.787 19.0552 560.671 18.337 560.671 17.2044C560.671 16.0718 559.787 15.337 558.577 15.3425ZM556.942 21.5028H558.649V22.9448H564.544V21.5028H566.273V27.2155H556.942V21.5028ZM558.649 24.3039V25.8066H564.544V24.3039H558.649ZM579.429 14.7845H584.313V16.1878H572.777V14.7845H577.705V13.232H579.429V14.7845ZM578.567 21.6133C575.572 21.6077 573.777 20.7624 573.788 19.2265C573.777 17.674 575.572 16.8287 578.567 16.8287C581.55 16.8287 583.346 17.674 583.351 19.2265C583.346 20.7624 581.55 21.6077 578.567 21.6133ZM578.567 18.1215C576.611 18.1215 575.583 18.4972 575.595 19.2265C575.583 19.9392 576.611 20.3149 578.567 20.3094C580.512 20.3149 581.539 19.9392 581.55 19.2265C581.539 18.4972 580.512 18.1215 578.567 18.1215ZM572.141 22.3978H585.053V23.8122H579.429V27.4033H577.705V23.8122H572.141V22.3978ZM599.86 16.4751H596.628C595.75 18.6298 593.678 20.0276 590.557 20.7293L589.96 19.3094C593.275 18.6188 594.932 17.1602 595.175 15.2762H590.728V13.8729H597.104C597.104 14.3149 597.07 14.7348 597.004 15.1381H599.86V13.2707H601.595V20.4144H599.86V19.1934H596.457V17.8619H599.86V16.4751ZM594.048 24.6906V25.8564H601.96V27.2486H592.313V23.3923H599.849V22.3425H592.291V20.9669H601.595V24.6906H594.048ZM614.097 27.3812V13.2707H615.744V27.3812H614.097ZM609.208 18.1934H611.241V13.5359H612.871V26.7017H611.241V19.5967H609.208V18.1934ZM607.954 16.1878V17.1271C607.948 19.5083 608.805 21.9006 610.827 23.0608L609.805 24.337C608.495 23.5635 607.622 22.221 607.136 20.6133C606.639 22.3536 605.738 23.8398 604.407 24.663L603.346 23.3812C605.385 22.1326 606.28 19.5856 606.28 17.1271V16.1878H603.827V14.7845H610.235V16.1878H607.954ZM627.439 13.2707H629.18V20.3978H627.439V13.2707ZM625.163 16.9116C625.158 18.7735 623.566 20.0884 621.428 20.0939C619.268 20.0884 617.671 18.7735 617.677 16.9116C617.671 15.0497 619.268 13.7238 621.428 13.7182C623.566 13.7238 625.158 15.0497 625.163 16.9116ZM619.367 16.9116C619.356 18 620.235 18.6851 621.428 18.6851C622.611 18.6851 623.478 18 623.478 16.9116C623.478 15.8343 622.611 15.1492 621.428 15.1547C620.235 15.1492 619.356 15.8343 619.367 16.9116ZM621.539 24.7072V25.8398H629.605V27.2155H619.848V23.4254H627.45V22.3702H619.804V21.0166H629.18V24.7072H621.539Z" fill="white"/>
<path d="M344.395 75.442V61.2099H346.412V75.442H344.395ZM340.014 64.2155V65.0884C340.014 67.3923 341.202 69.8508 343.583 70.8398L342.511 72.4033C340.832 71.6961 339.677 70.2818 339.036 68.558C338.395 70.4309 337.219 71.989 335.539 72.7569L334.406 71.1934C336.76 70.1381 337.981 67.5028 337.986 65.0884V64.2155H334.964V62.5856H342.992V64.2155H340.014ZM349.422 66.895L348.875 65.4254C351.71 65.3039 353.152 64.6243 353.566 63.8011H349.583V62.326H353.815V61.2044H355.793V62.326H360.052V63.8011H356.036C356.439 64.6243 357.886 65.3039 360.759 65.4254L360.174 66.895C357.538 66.7569 355.704 66.0884 354.804 65.0221C353.909 66.0884 352.08 66.7569 349.422 66.895ZM361.279 67.2762V68.7293H355.798V69.6243H359.726V73.0939H351.804V73.8729H360.096V75.3425H349.848V71.7569H357.759V71.0497H349.837V69.6243H353.826V68.7293H348.367V67.2762H361.279ZM372.347 64.221C371.435 65.6243 369.662 66.6575 367.247 66.9834L366.485 65.4144C369.645 65.0552 371.308 63.4088 371.314 61.9061V61.4365H373.369V61.9061C373.363 63.3978 375.021 65.0552 378.17 65.4144L377.441 66.9834C375.032 66.6575 373.253 65.6188 372.347 64.221ZM365.855 69.3315V67.768H378.827V69.3315H365.855ZM372.314 70.2928C375.391 70.2873 377.258 71.2044 377.269 72.8785C377.258 74.5193 375.391 75.453 372.314 75.4586C369.203 75.453 367.336 74.5193 367.336 72.8785C367.336 71.2044 369.203 70.2873 372.314 70.2928ZM372.314 73.9337C374.247 73.9392 375.264 73.6077 375.269 72.8785C375.264 72.1381 374.247 71.8066 372.314 71.7956C370.347 71.8066 369.358 72.1381 369.369 72.8785C369.358 73.6077 370.347 73.9392 372.314 73.9337ZM389.584 61.232H391.584V71.453H389.584V61.232ZM387.672 65.7182C387.672 67.8343 385.971 69.326 383.788 69.326C381.606 69.326 379.893 67.8343 379.899 65.7182C379.893 63.6354 381.606 62.1326 383.788 62.1326C385.971 62.1326 387.672 63.6354 387.672 65.7182ZM381.849 65.7182C381.838 66.9061 382.678 67.5912 383.788 67.5912C384.866 67.5912 385.705 66.9061 385.705 65.7182C385.705 64.5635 384.866 63.8674 383.788 63.8674C382.678 63.8674 381.838 64.5635 381.849 65.7182ZM384.07 70.4199V73.5856H391.959V75.1934H382.053V70.4199H384.07ZM403.412 61.2099H405.412V68.3481H403.412V61.2099ZM401.357 64.884C401.346 66.7735 399.716 68.116 397.55 68.1215C395.357 68.116 393.721 66.7735 393.727 64.884C393.721 62.9889 395.357 61.6354 397.55 61.6354C399.716 61.6354 401.346 62.9889 401.357 64.884ZM395.661 64.884C395.649 65.9116 396.456 66.5138 397.55 66.5138C398.627 66.5138 399.423 65.9116 399.423 64.884C399.423 63.8674 398.627 63.2652 397.55 63.2652C396.462 63.2652 395.649 63.8674 395.661 64.884ZM397.848 72.7956V73.7127H405.799V75.2818H395.904V71.337H403.423V70.4696H395.87V68.9337H405.412V72.7956H397.848Z" fill="#201267"/>
<path d="M321.458 121.442V107.21H323.474V121.442H321.458ZM317.077 110.215V111.088C317.077 113.392 318.264 115.851 320.646 116.84L319.574 118.403C317.894 117.696 316.74 116.282 316.099 114.558C315.458 116.431 314.281 117.989 312.601 118.757L311.469 117.193C313.822 116.138 315.043 113.503 315.049 111.088V110.215H312.027V108.586H320.055V110.215H317.077ZM326.485 112.895L325.938 111.425C328.772 111.304 330.214 110.624 330.628 109.801H326.645V108.326H330.877V107.204H332.855V108.326H337.115V109.801H333.098C333.501 110.624 334.949 111.304 337.822 111.425L337.236 112.895C334.601 112.757 332.767 112.088 331.866 111.022C330.971 112.088 329.142 112.757 326.485 112.895ZM338.341 113.276V114.729H332.861V115.624H336.789V119.094H328.866V119.873H337.159V121.343H326.91V117.757H334.822V117.05H326.899V115.624H330.888V114.729H325.43V113.276H338.341ZM349.409 110.221C348.498 111.624 346.724 112.657 344.31 112.983L343.547 111.414C346.708 111.055 348.371 109.409 348.376 107.906V107.436H350.431V107.906C350.426 109.398 352.083 111.055 355.233 111.414L354.503 112.983C352.094 112.657 350.315 111.619 349.409 110.221ZM342.918 115.331V113.768H355.89V115.331H342.918ZM349.376 116.293C352.454 116.287 354.321 117.204 354.332 118.878C354.321 120.519 352.454 121.453 349.376 121.459C346.266 121.453 344.398 120.519 344.398 118.878C344.398 117.204 346.266 116.287 349.376 116.293ZM349.376 119.934C351.31 119.939 352.326 119.608 352.332 118.878C352.326 118.138 351.31 117.807 349.376 117.796C347.409 117.807 346.42 118.138 346.431 118.878C346.42 119.608 347.409 119.939 349.376 119.934ZM366.646 107.232H368.646V117.453H366.646V107.232ZM364.735 111.718C364.735 113.834 363.033 115.326 360.851 115.326C358.668 115.326 356.956 113.834 356.961 111.718C356.956 109.635 358.668 108.133 360.851 108.133C363.033 108.133 364.735 109.635 364.735 111.718ZM358.911 111.718C358.9 112.906 359.74 113.591 360.851 113.591C361.928 113.591 362.768 112.906 362.768 111.718C362.768 110.564 361.928 109.867 360.851 109.867C359.74 109.867 358.9 110.564 358.911 111.718ZM361.132 116.42V119.586H369.022V121.193H359.116V116.42H361.132ZM380.474 107.21H382.474V114.348H380.474V107.21ZM378.419 110.884C378.408 112.773 376.778 114.116 374.613 114.122C372.419 114.116 370.784 112.773 370.789 110.884C370.784 108.989 372.419 107.635 374.613 107.635C376.778 107.635 378.408 108.989 378.419 110.884ZM372.723 110.884C372.712 111.912 373.519 112.514 374.613 112.514C375.69 112.514 376.485 111.912 376.485 110.884C376.485 109.867 375.69 109.265 374.613 109.265C373.524 109.265 372.712 109.867 372.723 110.884ZM374.911 118.796V119.713H382.861V121.282H372.966V117.337H380.485V116.47H372.933V114.934H382.474V118.796H374.911ZM390.181 114.503H393.109V116.453H390.181V119.381H388.225V116.453H385.303V114.503H388.225V111.58H390.181V114.503ZM399.479 120.155C397.12 120.155 395.391 118.762 395.347 116.818H397.629C397.684 117.696 398.49 118.304 399.479 118.304C400.651 118.304 401.485 117.475 401.479 116.293C401.485 115.099 400.634 114.26 399.441 114.254C398.595 114.254 397.999 114.569 397.673 115.199H395.535L396.153 108.685H403.115V110.613H398.087L397.778 113.47H397.866C398.286 112.912 399.142 112.508 400.137 112.508C402.214 112.508 403.756 114.061 403.75 116.232C403.756 118.519 402.021 120.155 399.479 120.155ZM409.743 120.243C406.908 120.238 405.19 118.072 405.201 114.354C405.207 110.646 406.92 108.53 409.743 108.53C412.566 108.53 414.29 110.657 414.284 114.354C414.284 118.083 412.571 120.243 409.743 120.243ZM409.743 118.287C411.052 118.287 411.892 116.972 411.892 114.354C411.886 111.768 411.047 110.464 409.743 110.464C408.439 110.464 407.599 111.768 407.594 114.354C407.588 116.972 408.433 118.287 409.743 118.287ZM425.349 107.21H427.349V114.348H425.349V107.21ZM423.294 110.884C423.283 112.773 421.653 114.116 419.488 114.122C417.294 114.116 415.659 112.773 415.664 110.884C415.659 108.989 417.294 107.635 419.488 107.635C421.653 107.635 423.283 108.989 423.294 110.884ZM417.598 110.884C417.587 111.912 418.394 112.514 419.488 112.514C420.565 112.514 421.36 111.912 421.36 110.884C421.36 109.867 420.565 109.265 419.488 109.265C418.399 109.265 417.587 109.867 417.598 110.884ZM419.786 118.796V119.713H427.736V121.282H417.841V117.337H425.36V116.47H417.808V114.934H427.349V118.796H419.786Z" fill="#201267"/>
<path d="M321.333 167.442V153.21H323.349V167.442H321.333ZM316.952 156.215V157.088C316.952 159.392 318.139 161.851 320.521 162.84L319.449 164.403C317.769 163.696 316.615 162.282 315.974 160.558C315.333 162.431 314.156 163.989 312.476 164.757L311.344 163.193C313.697 162.138 314.918 159.503 314.924 157.088V156.215H311.902V154.586H319.93V156.215H316.952ZM326.36 158.895L325.813 157.425C328.647 157.304 330.089 156.624 330.503 155.801H326.52V154.326H330.752V153.204H332.73V154.326H336.99V155.801H332.973C333.376 156.624 334.824 157.304 337.697 157.425L337.111 158.895C334.476 158.757 332.642 158.088 331.741 157.022C330.846 158.088 329.017 158.757 326.36 158.895ZM338.216 159.276V160.729H332.736V161.624H336.664V165.094H328.741V165.873H337.034V167.343H326.785V163.757H334.697V163.05H326.774V161.624H330.763V160.729H325.305V159.276H338.216ZM349.284 156.221C348.373 157.624 346.599 158.657 344.185 158.983L343.422 157.414C346.583 157.055 348.246 155.409 348.251 153.906V153.436H350.306V153.906C350.301 155.398 351.958 157.055 355.108 157.414L354.378 158.983C351.969 158.657 350.19 157.619 349.284 156.221ZM342.793 161.331V159.768H355.765V161.331H342.793ZM349.251 162.293C352.329 162.287 354.196 163.204 354.207 164.878C354.196 166.519 352.329 167.453 349.251 167.459C346.141 167.453 344.273 166.519 344.273 164.878C344.273 163.204 346.141 162.287 349.251 162.293ZM349.251 165.934C351.185 165.939 352.201 165.608 352.207 164.878C352.201 164.138 351.185 163.807 349.251 163.796C347.284 163.807 346.295 164.138 346.306 164.878C346.295 165.608 347.284 165.939 349.251 165.934ZM366.521 153.232H368.521V163.453H366.521V153.232ZM364.61 157.718C364.61 159.834 362.908 161.326 360.726 161.326C358.543 161.326 356.831 159.834 356.836 157.718C356.831 155.635 358.543 154.133 360.726 154.133C362.908 154.133 364.61 155.635 364.61 157.718ZM358.786 157.718C358.775 158.906 359.615 159.591 360.726 159.591C361.803 159.591 362.643 158.906 362.643 157.718C362.643 156.564 361.803 155.867 360.726 155.867C359.615 155.867 358.775 156.564 358.786 157.718ZM361.007 162.42V165.586H368.897V167.193H358.991V162.42H361.007ZM380.349 153.21H382.349V160.348H380.349V153.21ZM378.294 156.884C378.283 158.773 376.653 160.116 374.488 160.122C372.294 160.116 370.659 158.773 370.664 156.884C370.659 154.989 372.294 153.635 374.488 153.635C376.653 153.635 378.283 154.989 378.294 156.884ZM372.598 156.884C372.587 157.912 373.394 158.514 374.488 158.514C375.565 158.514 376.36 157.912 376.36 156.884C376.36 155.867 375.565 155.265 374.488 155.265C373.399 155.265 372.587 155.867 372.598 156.884ZM374.786 164.796V165.713H382.736V167.282H372.841V163.337H380.36V162.47H372.808V160.934H382.349V164.796H374.786ZM390.056 160.503H392.984V162.453H390.056V165.381H388.1V162.453H385.178V160.503H388.1V157.58H390.056V160.503ZM399.327 154.53C401.664 154.541 403.879 155.934 403.89 160.044C403.896 163.895 402.067 166.155 399.233 166.155C396.951 166.155 395.393 164.729 395.161 162.818H397.476C397.669 163.646 398.316 164.138 399.233 164.138C400.763 164.138 401.581 162.757 401.592 160.503H401.487C400.962 161.497 399.846 162.094 398.592 162.094C396.559 162.094 395.051 160.564 395.045 158.453C395.039 156.177 396.763 154.519 399.327 154.53ZM399.338 156.381C398.178 156.381 397.321 157.265 397.332 158.387C397.338 159.508 398.161 160.376 399.321 160.376C400.465 160.376 401.349 159.464 401.343 158.376C401.338 157.298 400.493 156.381 399.338 156.381ZM409.868 166.243C407.033 166.238 405.315 164.072 405.326 160.354C405.332 156.646 407.045 154.53 409.868 154.53C412.691 154.53 414.415 156.657 414.409 160.354C414.409 164.083 412.696 166.243 409.868 166.243ZM409.868 164.287C411.177 164.287 412.017 162.972 412.017 160.354C412.011 157.768 411.172 156.464 409.868 156.464C408.564 156.464 407.724 157.768 407.719 160.354C407.713 162.972 408.558 164.287 409.868 164.287ZM425.474 153.21H427.474V160.348H425.474V153.21ZM423.419 156.884C423.408 158.773 421.778 160.116 419.613 160.122C417.419 160.116 415.784 158.773 415.789 156.884C415.784 154.989 417.419 153.635 419.613 153.635C421.778 153.635 423.408 154.989 423.419 156.884ZM417.723 156.884C417.712 157.912 418.519 158.514 419.613 158.514C420.69 158.514 421.485 157.912 421.485 156.884C421.485 155.867 420.69 155.265 419.613 155.265C418.524 155.265 417.712 155.867 417.723 156.884ZM419.911 164.796V165.713H427.861V167.282H417.966V163.337H425.485V162.47H417.933V160.934H427.474V164.796H419.911Z" fill="#201267"/>
<path d="M102.448 74.1547C100.089 74.1547 98.3598 72.7624 98.3156 70.8177H100.597C100.653 71.6961 101.459 72.3039 102.448 72.3039C103.619 72.3039 104.454 71.4751 104.448 70.2928C104.454 69.0994 103.603 68.2597 102.409 68.2541C101.564 68.2541 100.967 68.5691 100.642 69.1989H98.5034L99.1222 62.6851H106.084V64.6133H101.056L100.747 67.4696H100.835C101.255 66.9116 102.111 66.5083 103.106 66.5083C105.183 66.5083 106.724 68.0608 106.719 70.232C106.724 72.5193 104.99 74.1547 102.448 74.1547ZM117.85 64.6575V61.2099H119.839V69.6243H117.85V66.2928H115.479C115.098 67.9061 113.64 68.9945 111.816 68.9945C109.662 68.9945 108.021 67.5193 108.032 65.4586C108.021 63.4365 109.662 61.9669 111.816 61.9779C113.645 61.9669 115.109 63.0608 115.485 64.6575H117.85ZM111.816 67.3039C112.866 67.2983 113.673 66.6188 113.684 65.4586C113.673 64.3481 112.866 63.6575 111.816 63.6575C110.745 63.6575 109.921 64.3481 109.921 65.4586C109.921 66.6188 110.745 67.2983 111.816 67.3039ZM117.85 71.8564H110.065V70.2762H119.839V75.453H117.85V71.8564ZM135.255 61.2099H137.271V75.4751H135.255V61.2099ZM126.078 62.5083H132.945V72.0497H126.078V62.5083ZM131.012 64.0608H128.061V70.4696H131.012V64.0608ZM150.481 61.221V65.3149H152.392V66.9613H150.481V71.5967H148.481V61.221H150.481ZM139.619 62.3978H146.447V69.2265H139.619V62.3978ZM141.591 67.6575H144.481V63.9834H141.591V67.6575ZM141.254 70.5691H143.243V73.5856H150.989V75.1934H141.254V70.5691Z" fill="#3617CE"/>
<path d="M64.3388 120.155C61.9797 120.155 60.2504 118.762 60.2062 116.818H62.488C62.5432 117.696 63.3498 118.304 64.3388 118.304C65.5101 118.304 66.3443 117.475 66.3388 116.293C66.3443 115.099 65.4935 114.26 64.3001 114.254C63.4548 114.254 62.8581 114.569 62.5322 115.199H60.394L61.0128 108.685H67.9741V110.613H62.9465L62.6371 113.47H62.7255C63.1454 112.912 64.0018 112.508 64.9962 112.508C67.0736 112.508 68.615 114.061 68.6095 116.232C68.615 118.519 66.8802 120.155 64.3388 120.155ZM79.7402 110.657V107.21H81.7292V115.624H79.7402V112.293H77.37C76.9888 113.906 75.5303 114.994 73.7071 114.994C71.5524 114.994 69.9115 113.519 69.9225 111.459C69.9115 109.436 71.5524 107.967 73.7071 107.978C75.5358 107.967 76.9999 109.061 77.3756 110.657H79.7402ZM73.7071 113.304C74.7568 113.298 75.5634 112.619 75.5745 111.459C75.5634 110.348 74.7568 109.657 73.7071 109.657C72.6352 109.657 71.812 110.348 71.812 111.459C71.812 112.619 72.6352 113.298 73.7071 113.304ZM79.7402 117.856H71.9557V116.276H81.7292V121.453H79.7402V117.856ZM97.1453 107.21H99.1619V121.475H97.1453V107.21ZM91.4381 108.215C93.5873 108.215 95.1785 110.182 95.184 113.276C95.1785 116.403 93.5873 118.359 91.4381 118.359C89.2614 118.359 87.6702 116.403 87.6757 113.276C87.6702 110.182 89.2614 108.215 91.4381 108.215ZM91.4381 110.017C90.3332 110.017 89.5928 111.171 89.6039 113.276C89.5928 115.403 90.3332 116.552 91.4381 116.552C92.521 116.552 93.2558 115.403 93.2558 113.276C93.2558 111.171 92.521 110.017 91.4381 110.017ZM112.371 107.21V110.541H114.283V112.193H112.371V115.652H110.371V107.21H112.371ZM105.288 112.365C104.675 113.796 103.57 114.923 101.946 115.475L100.874 113.912C103.244 113.116 104.261 111.221 104.272 109.26V107.972H106.266V109.453C106.266 111.177 107.272 112.834 109.52 113.525L108.465 115.077C106.951 114.58 105.902 113.608 105.288 112.365ZM107.703 115.945C110.653 115.939 112.504 116.961 112.504 118.68C112.504 120.431 110.653 121.442 107.703 121.436C104.708 121.442 102.83 120.431 102.835 118.68C102.83 116.961 104.708 115.939 107.703 115.945ZM107.703 119.878C109.554 119.873 110.537 119.492 110.537 118.68C110.537 117.912 109.554 117.497 107.703 117.497C105.841 117.497 104.824 117.912 104.83 118.68C104.824 119.492 105.841 119.873 107.703 119.878ZM117.409 116.934H115.636C115.564 114.851 116.525 113.718 118.012 113.718C118.708 113.718 119.271 113.967 120.083 114.68C120.514 115.055 120.746 115.26 121.139 115.26C121.663 115.26 122.05 114.862 122.028 113.972H123.807C123.879 116.055 122.879 117.193 121.431 117.193C120.697 117.193 120.116 116.906 119.343 116.227C118.879 115.823 118.68 115.646 118.304 115.646C117.779 115.646 117.387 116.011 117.409 116.934ZM129.995 120.155C127.636 120.155 125.907 118.762 125.862 116.818H128.144C128.199 117.696 129.006 118.304 129.995 118.304C131.166 118.304 132.001 117.475 131.995 116.293C132.001 115.099 131.15 114.26 129.956 114.254C129.111 114.254 128.514 114.569 128.188 115.199H126.05L126.669 108.685H133.63V110.613H128.603L128.293 113.47H128.382C128.802 112.912 129.658 112.508 130.652 112.508C132.73 112.508 134.271 114.061 134.266 116.232C134.271 118.519 132.536 120.155 129.995 120.155ZM140.258 120.243C137.424 120.238 135.706 118.072 135.717 114.354C135.722 110.646 137.435 108.53 140.258 108.53C143.082 108.53 144.805 110.657 144.8 114.354C144.8 118.083 143.087 120.243 140.258 120.243ZM140.258 118.287C141.568 118.287 142.408 116.972 142.408 114.354C142.402 111.768 141.562 110.464 140.258 110.464C138.954 110.464 138.115 111.768 138.109 114.354C138.104 116.972 138.949 118.287 140.258 118.287ZM155.959 110.657V107.21H157.948V115.624H155.959V112.293H153.589C153.208 113.906 151.749 114.994 149.926 114.994C147.771 114.994 146.13 113.519 146.141 111.459C146.13 109.436 147.771 107.967 149.926 107.978C151.755 107.967 153.219 109.061 153.594 110.657H155.959ZM149.926 113.304C150.976 113.298 151.782 112.619 151.793 111.459C151.782 110.348 150.976 109.657 149.926 109.657C148.854 109.657 148.031 110.348 148.031 111.459C148.031 112.619 148.854 113.298 149.926 113.304ZM155.959 117.856H148.174V116.276H157.948V121.453H155.959V117.856ZM173.364 107.21H175.381V121.475H173.364V107.21ZM164.187 108.508H171.055V118.05H164.187V108.508ZM169.121 110.061H166.171V116.47H169.121V110.061ZM188.59 107.221V111.315H190.502V112.961H188.59V117.597H186.59V107.221H188.59ZM177.728 108.398H184.557V115.227H177.728V108.398ZM179.7 113.657H182.59V109.983H179.7V113.657ZM179.363 116.569H181.352V119.586H189.098V121.193H179.363V116.569Z" fill="#3617CE"/>
<path d="M97.1669 166.155C94.8078 166.155 93.0785 164.762 93.0343 162.818H95.3161C95.3713 163.696 96.178 164.304 97.1669 164.304C98.3382 164.304 99.1724 163.475 99.1669 162.293C99.1724 161.099 98.3216 160.26 97.1282 160.254C96.2829 160.254 95.6862 160.569 95.3603 161.199H93.2222L93.8409 154.685H100.802V156.613H95.7746L95.4653 159.47H95.5537C95.9735 158.912 96.8299 158.508 97.8244 158.508C99.9017 158.508 101.443 160.061 101.438 162.232C101.443 164.519 99.7083 166.155 97.1669 166.155ZM107.43 166.243C104.596 166.238 102.878 164.072 102.889 160.354C102.894 156.646 104.607 154.53 107.43 154.53C110.253 154.53 111.977 156.657 111.972 160.354C111.972 164.083 110.259 166.243 107.43 166.243ZM107.43 164.287C108.74 164.287 109.579 162.972 109.579 160.354C109.574 157.768 108.734 156.464 107.43 156.464C106.126 156.464 105.287 157.768 105.281 160.354C105.276 162.972 106.121 164.287 107.43 164.287ZM123.131 156.657V153.21H125.12V161.624H123.131V158.293H120.761C120.379 159.906 118.921 160.994 117.098 160.994C114.943 160.994 113.302 159.519 113.313 157.459C113.302 155.436 114.943 153.967 117.098 153.978C118.926 153.967 120.39 155.061 120.766 156.657H123.131ZM117.098 159.304C118.147 159.298 118.954 158.619 118.965 157.459C118.954 156.348 118.147 155.657 117.098 155.657C116.026 155.657 115.203 156.348 115.203 157.459C115.203 158.619 116.026 159.298 117.098 159.304ZM123.131 163.856H115.346V162.276H125.12V167.453H123.131V163.856ZM140.536 153.21H142.553V167.475H140.536V153.21ZM134.829 154.215C136.978 154.215 138.569 156.182 138.575 159.276C138.569 162.403 136.978 164.359 134.829 164.359C132.652 164.359 131.061 162.403 131.066 159.276C131.061 156.182 132.652 154.215 134.829 154.215ZM134.829 156.017C133.724 156.017 132.983 157.171 132.995 159.276C132.983 161.403 133.724 162.552 134.829 162.552C135.912 162.552 136.646 161.403 136.646 159.276C136.646 157.171 135.912 156.017 134.829 156.017ZM155.762 153.21V156.541H157.673V158.193H155.762V161.652H153.762V153.21H155.762ZM148.679 158.365C148.066 159.796 146.961 160.923 145.336 161.475L144.265 159.912C146.635 159.116 147.651 157.221 147.662 155.26V153.972H149.657V155.453C149.657 157.177 150.662 158.834 152.911 159.525L151.856 161.077C150.342 160.58 149.292 159.608 148.679 158.365ZM151.093 161.945C154.044 161.939 155.894 162.961 155.894 164.68C155.894 166.431 154.044 167.442 151.093 167.436C148.099 167.442 146.22 166.431 146.226 164.68C146.22 162.961 148.099 161.939 151.093 161.945ZM151.093 165.878C152.944 165.873 153.928 165.492 153.928 164.68C153.928 163.912 152.944 163.497 151.093 163.497C149.231 163.497 148.215 163.912 148.22 164.68C148.215 165.492 149.231 165.873 151.093 165.878Z" fill="#3617CE"/>
<path d="M535.799 115.565H539.83V116.57H535.799V115.565ZM552.649 121.032V109.747H553.646V121.032H552.649ZM548.385 111.74V113.213C548.385 115.125 549.776 117.073 551.437 117.791L550.881 118.581C549.561 117.98 548.425 116.683 547.895 115.125C547.366 116.777 546.225 118.213 544.937 118.86L544.345 118.07C545.961 117.298 547.37 115.161 547.379 113.213V111.74H544.713V110.905H551.069V111.74H548.385ZM556.433 114.254L556.137 113.491C558.21 113.356 559.975 112.647 560.159 111.516H556.639V110.735H560.23V109.684H561.209V110.735H564.818V111.516H561.276C561.456 112.647 563.22 113.356 565.303 113.491L564.998 114.254C563.112 114.097 561.411 113.504 560.72 112.432C560.028 113.504 558.327 114.097 556.433 114.254ZM565.86 114.775V115.538H561.209V116.597H564.54V119.039H557.833V120.135H564.881V120.907H556.855V118.33H563.561V117.343H556.828V116.597H560.222V115.538H555.589V114.775H565.86ZM575.231 111.763C574.522 113.06 572.807 113.958 571.066 114.227L570.671 113.437C572.673 113.177 574.711 111.929 574.711 110.456V109.936H575.734V110.456C575.734 111.893 577.79 113.177 579.756 113.437L579.379 114.227C577.655 113.962 575.945 113.047 575.231 111.763ZM570.078 115.951V115.143H580.367V115.951H570.078ZM575.213 117.019C577.637 117.01 579.092 117.72 579.101 119.012C579.092 120.296 577.637 121.015 575.213 121.023C572.771 121.015 571.317 120.296 571.317 119.012C571.317 117.72 572.771 117.01 575.213 117.019ZM575.213 120.224C577.009 120.233 578.095 119.794 578.104 119.012C578.095 118.24 577.009 117.791 575.213 117.782C573.409 117.791 572.322 118.24 572.331 119.012C572.322 119.794 573.409 120.233 575.213 120.224ZM589.636 109.756H590.632V118.007H589.636V109.756ZM584.536 116.086C582.849 116.095 581.574 114.954 581.574 113.311C581.574 111.686 582.849 110.546 584.536 110.546C586.224 110.546 587.49 111.686 587.49 113.311C587.49 114.954 586.224 116.095 584.536 116.086ZM582.552 113.311C582.543 114.434 583.396 115.215 584.536 115.215C585.659 115.215 586.521 114.434 586.521 113.311C586.521 112.207 585.659 111.417 584.536 111.417C583.396 111.417 582.543 112.207 582.552 113.311ZM584.339 117.163V119.955H590.983V120.781H583.342V117.163H584.339ZM600.871 109.747H601.868V115.538H600.871V109.747ZM598.672 112.665C598.663 114.137 597.433 115.152 595.745 115.152C594.039 115.152 592.809 114.137 592.809 112.665C592.809 111.193 594.039 110.169 595.745 110.16C597.433 110.169 598.663 111.193 598.672 112.665ZM593.788 112.665C593.779 113.653 594.614 114.335 595.745 114.335C596.867 114.335 597.702 113.653 597.702 112.665C597.702 111.686 596.867 110.995 595.745 111.004C594.614 110.995 593.779 111.686 593.788 112.665ZM595.529 118.806V120.072H602.272V120.88H594.56V118.052H600.88V116.894H594.524V116.086H601.868V118.806H595.529ZM611.177 115.888H613.637V116.921H611.177V119.381H610.144V116.921H607.693V115.888H610.144V113.437H611.177V115.888ZM620.965 110.807H622.114V120H620.965V112.001H620.911L618.675 113.482V112.333L620.965 110.807ZM632.483 109.747H633.479V115.538H632.483V109.747ZM630.283 112.665C630.274 114.137 629.044 115.152 627.356 115.152C625.65 115.152 624.42 114.137 624.42 112.665C624.42 111.193 625.65 110.169 627.356 110.16C629.044 110.169 630.274 111.193 630.283 112.665ZM625.399 112.665C625.39 113.653 626.225 114.335 627.356 114.335C628.478 114.335 629.313 113.653 629.313 112.665C629.313 111.686 628.478 110.995 627.356 111.004C626.225 110.995 625.39 111.686 625.399 112.665ZM627.141 118.806V120.072H633.883V120.88H626.171V118.052H632.492V116.894H626.135V116.086H633.479V118.806H627.141Z" fill="#444444"/>
<rect opacity="0.7" width="250" height="40" rx="20" fill="#3617CE"/>
<rect opacity="0.7" x="245" width="250" height="40" rx="20" fill="#250E97"/>
<path d="M122.559 20.1492H124.509V21.5635H118.901V27.4033H117.15V21.5635H111.641V20.1492H120.802C121.188 18.2265 121.205 16.7901 121.205 15.5249H113.166V14.1271H122.934V15.3867C122.934 16.7072 122.934 18.1547 122.559 20.1492ZM134.95 13.7182H136.68V19.4641H127.133V13.7182H128.851V15.3094H134.95V13.7182ZM128.851 18.0884H134.95V16.6077H128.851V18.0884ZM125.453 21.9669V20.5856H138.365V21.9669H132.912V24.3978H131.193V21.9669H125.453ZM127.017 23.2265H128.74V25.7072H136.939V27.116H127.017V23.2265Z" fill="white"/>
<path d="M333.074 18.7901V13.2707H334.72V27.3812H333.074V20.1934H331.483V26.6796H329.886V13.5359H331.483V18.7901H333.074ZM324.748 16.337V22.6243C326.289 22.6133 327.549 22.5359 328.986 22.2597L329.124 23.6851C327.411 24.0276 325.93 24.0773 323.969 24.0884H323.008V14.9392H328.284V16.337H324.748ZM347.377 19.0608H349.311V20.4641H336.399V19.0608H345.626C345.963 17.5359 345.99 16.3812 345.996 15.3481H337.996V13.9503H347.731V15.0497C347.731 16.1547 347.731 17.3978 347.377 19.0608ZM347.709 27.2155H337.952V22.1105H347.709V27.2155ZM345.985 23.4696H339.653V25.8122H345.985V23.4696ZM360.321 16.4751H357.089C356.211 18.6298 354.139 20.0276 351.017 20.7293L350.421 19.3094C353.736 18.6188 355.393 17.1602 355.636 15.2762H351.189V13.8729H357.564C357.564 14.3149 357.531 14.7348 357.465 15.1381H360.321V13.2707H362.056V20.4144H360.321V19.1934H356.918V17.8619H360.321V16.4751ZM354.509 24.6906V25.8564H362.421V27.2486H352.774V23.3923H360.31V22.3425H352.752V20.9669H362.056V24.6906H354.509ZM374.558 27.3812V13.2707H376.205V27.3812H374.558ZM369.669 18.1934H371.702V13.5359H373.332V26.7017H371.702V19.5967H369.669V18.1934ZM368.415 16.1878V17.1271C368.409 19.5083 369.265 21.9006 371.288 23.0608L370.265 24.337C368.956 23.5635 368.083 22.221 367.597 20.6133C367.1 22.3536 366.199 23.8398 364.868 24.663L363.807 23.3812C365.846 22.1326 366.741 19.5856 366.741 17.1271V16.1878H364.288V14.7845H370.696V16.1878H368.415ZM388.397 27.3812V13.2707H390.066V27.3812H388.397ZM383.718 16.4972H385.563V13.5138H387.21V26.7072H385.563V22.2541H383.718C383.199 23.6409 382.27 24.4309 381.077 24.4309C379.226 24.4309 378.022 22.4917 378.027 19.3702C378.022 16.2652 379.226 14.337 381.077 14.3425C382.27 14.337 383.199 15.1215 383.718 16.4972ZM381.077 22.768C382.005 22.7735 382.585 21.5801 382.585 19.3702C382.585 17.1713 382.005 15.9724 381.077 15.9779C380.143 15.9724 379.602 17.1713 379.607 19.3702C379.602 21.5801 380.143 22.7735 381.077 22.768ZM384.072 20.8287H385.563V17.9006H384.072C384.138 18.3536 384.176 18.8453 384.176 19.3702C384.176 19.8895 384.138 20.3757 384.072 20.8287ZM399.391 18.2099V16.7901H401.806V13.2707H403.541V21.663H401.806V18.2099H399.391ZM396.049 18.3094C395.43 19.8122 394.253 21.0276 392.574 21.6188L391.668 20.2431C393.938 19.4696 395.132 17.5691 395.132 15.6961V15.5912H392.187V14.1878H399.822V15.5912H396.9V15.6796C396.9 17.4088 398.038 19.1436 400.22 19.8729L399.353 21.2486C397.784 20.7182 396.668 19.6409 396.049 18.3094ZM398.762 22.011C401.75 22.0166 403.579 23.0055 403.579 24.7017C403.579 26.3978 401.75 27.3867 398.762 27.3923C395.778 27.3867 393.949 26.3978 393.955 24.7017C393.949 23.0055 395.778 22.0166 398.762 22.011ZM398.762 26.0442C400.734 26.0552 401.85 25.5801 401.855 24.7017C401.85 23.8177 400.734 23.3481 398.762 23.3481C396.795 23.3481 395.673 23.8177 395.684 24.7017C395.673 25.5801 396.795 26.0552 398.762 26.0442ZM415.557 13.2707H417.297V20.3978H415.557V13.2707ZM413.28 16.9116C413.275 18.7735 411.684 20.0884 409.545 20.0939C407.385 20.0884 405.789 18.7735 405.794 16.9116C405.789 15.0497 407.385 13.7238 409.545 13.7182C411.684 13.7238 413.275 15.0497 413.28 16.9116ZM407.485 16.9116C407.474 18 408.352 18.6851 409.545 18.6851C410.728 18.6851 411.595 18 411.595 16.9116C411.595 15.8343 410.728 15.1492 409.545 15.1547C408.352 15.1492 407.474 15.8343 407.485 16.9116ZM409.656 24.7072V25.8398H417.722V27.2155H407.965V23.4254H415.568V22.3702H407.921V21.0166H417.297V24.7072H409.656Z" fill="white"/>
</svg>
