<svg width="720" height="230" viewBox="0 0 720 230" fill="none" xmlns="http://www.w3.org/2000/svg">
<rect width="720" height="230" fill="white"/>
<rect opacity="0.1" x="5" y="70" width="110" height="36" rx="18" fill="#EF647D"/>
<path d="M46.298 86.7203L44.5867 86.5559C44.8671 85.4296 44.9009 84.5884 44.9058 83.7424H37.9686V82.3743H46.6558V83.3943C46.6558 84.3757 46.6558 85.4441 46.298 86.7203ZM42.6578 85.1878V87.3729H47.9948V88.7797H36.6972V87.3729H40.932V85.1878H42.6578ZM42.2759 89.5628C44.9928 89.5677 46.7089 90.4282 46.7186 91.9171C46.7089 93.3867 44.9928 94.2617 42.2759 94.2569C39.5784 94.2617 37.8381 93.3867 37.8381 91.9171C37.8381 90.4282 39.5784 89.5677 42.2759 89.5628ZM42.2759 92.9323C43.9872 92.9275 44.9831 92.5939 44.9879 91.9171C44.9831 91.2307 43.9872 90.8633 42.2759 90.8633C40.5646 90.8633 39.5784 91.2307 39.5881 91.9171C39.5784 92.5939 40.5646 92.9275 42.2759 92.9323ZM58.5137 86.6865H60.1525V88.0739H48.7726V86.6865H56.783C57.0247 85.4779 57.0585 84.5497 57.0682 83.7134H50.1649V82.3163H58.8085V83.317C58.8085 84.2597 58.8085 85.27 58.5137 86.6865ZM51.8472 90.2251H57.0295V88.8957H58.7554V94.1215H50.1311V88.8957H51.8472V90.2251ZM51.8472 92.7099H57.0295V91.5546H51.8472V92.7099ZM69.6174 84.5836V81.8087H71.3577V88.5041H69.6174V85.971H67.5483C67.2244 87.3391 65.9434 88.2673 64.3384 88.2673C62.424 88.2673 61.0173 87.0249 61.0269 85.2894C61.0173 83.5829 62.424 82.3356 64.3384 82.3453C65.9289 82.3356 67.2003 83.2493 67.5435 84.5836H69.6174ZM64.3384 86.8073C65.2859 86.8073 65.9627 86.2175 65.9724 85.2894C65.9627 84.3612 65.2859 83.7907 64.3384 83.7956C63.3667 83.7907 62.6802 84.3612 62.6802 85.2894C62.6802 86.2175 63.3667 86.8073 64.3384 86.8073ZM64.7735 90.2493H69.6174V89.0504H71.3577V94.1215H63.0573V89.0504H64.7735V90.2493ZM64.7735 92.7099H69.6174V91.5884H64.7735V92.7099ZM82.0747 94.2617V81.8087H83.7232V94.2617H82.0747ZM78.0817 86.5366H79.5464V82.0166H81.1804V93.6816H79.5464V87.9579H78.0817V86.5366ZM76.8538 85.3184V85.6036C76.8489 87.4938 77.5305 89.3791 79.2999 90.3315L78.3427 91.6077C77.2163 91.0325 76.4767 90.0269 76.0416 88.8135C75.6065 90.1285 74.8669 91.25 73.7357 91.9075L72.735 90.5974C74.5333 89.5532 75.2004 87.5276 75.2101 85.6036V85.3184H73.2039V83.9213H75.2101V82.2438H76.8393V83.9213H78.8116V85.3184H76.8538Z" fill="#EF647D"/>
<rect opacity="0.1" x="125" y="70" width="110" height="36" rx="18" fill="#3617CE"/>
<path d="M166.487 86.6091H168.324V88.0836H166.487V94.2617H164.741V81.8087H166.487V86.6091ZM161.251 82.7707V84.6319C161.241 86.8605 162.194 89.1084 164.19 90.0753L163.136 91.4627C161.807 90.8052 160.903 89.5773 160.386 88.0787C159.844 89.6885 158.882 91.0035 157.471 91.7044L156.402 90.288C158.505 89.3211 159.501 86.9427 159.506 84.6319V82.7707H161.251ZM177.518 84.5836V81.8087H179.258V88.5041H177.518V85.971H175.449C175.125 87.3391 173.844 88.2673 172.239 88.2673C170.324 88.2673 168.918 87.0249 168.927 85.2894C168.918 83.5829 170.324 82.3356 172.239 82.3453C173.829 82.3356 175.101 83.2493 175.444 84.5836H177.518ZM172.239 86.8073C173.186 86.8073 173.863 86.2175 173.873 85.2894C173.863 84.3612 173.186 83.7907 172.239 83.7956C171.267 83.7907 170.581 84.3612 170.581 85.2894C170.581 86.2175 171.267 86.8073 172.239 86.8073ZM172.674 90.2493H177.518V89.0504H179.258V94.1215H170.958V89.0504H172.674V90.2493ZM172.674 92.7099H177.518V91.5884H172.674V92.7099ZM189.144 82.297H190.889V87.7887H182.192V82.297H183.913V83.7279H189.144V82.297ZM183.913 86.3964H189.144V85.096H183.913V86.3964ZM180.858 88.9924H192.238V90.3605H187.374V94.2617H185.648V90.3605H180.858V88.9924ZM201.741 85.7293V81.8087H203.467V94.2907H201.741V87.136H199.305V85.7293H201.741ZM197.68 82.7707V84.6319C197.676 86.9717 198.618 89.2486 200.687 90.143L199.633 91.5304C198.246 90.8633 197.318 89.6257 196.801 88.0884C196.264 89.7175 195.307 91.0566 193.886 91.7576L192.793 90.3412C194.92 89.3743 195.897 86.9717 195.906 84.6319V82.7707H197.68Z" fill="#3617CE"/>
<rect opacity="0.1" x="485" y="70" width="230" height="36" rx="18" fill="#808699"/>
<path d="M585.863 86.6091V81.8087H587.531V94.2617H585.863V88.0304H584.799V93.6865H583.151V90.1236L582.16 91.4289C581.009 90.8198 580.265 89.7852 579.825 88.5138C579.409 89.9786 578.674 91.1727 577.485 91.8785L576.417 90.5394C578.302 89.471 578.935 87.2714 578.935 84.893V84.4965H576.837V83.1043H582.537V84.4965H580.632V84.893C580.632 87.0635 581.275 89.1181 583.151 90.0946V82.0021H584.799V86.6091H585.863ZM590.102 82.4227H598.78V87.4358H590.102V82.4227ZM591.813 86.0725H597.044V83.8052H591.813V86.0725ZM588.758 88.7749H600.138V90.172H595.275V94.2424H593.549V90.172H588.758V88.7749ZM609.144 82.297H610.889V87.7887H602.192V82.297H603.913V83.7279H609.144V82.297ZM603.913 86.3964H609.144V85.096H603.913V86.3964ZM600.858 88.9924H612.238V90.3605H607.374V94.2617H605.648V90.3605H600.858V88.9924ZM621.741 85.7293V81.8087H623.467V94.2907H621.741V87.136H619.305V85.7293H621.741ZM617.68 82.7707V84.6319C617.676 86.9717 618.618 89.2486 620.687 90.143L619.633 91.5304C618.246 90.8633 617.318 89.6257 616.801 88.0884C616.264 89.7175 615.307 91.0566 613.886 91.7576L612.793 90.3412C614.92 89.3743 615.897 86.9717 615.906 84.6319V82.7707H617.68Z" fill="#808699"/>
<rect opacity="0.1" x="245" y="70" width="110" height="36" rx="18" fill="#EF647D"/>
<path d="M286.298 86.7203L284.587 86.5559C284.867 85.4296 284.901 84.5884 284.906 83.7424H277.969V82.3743H286.656V83.3943C286.656 84.3757 286.656 85.4441 286.298 86.7203ZM282.658 85.1878V87.3729H287.995V88.7797H276.697V87.3729H280.932V85.1878H282.658ZM282.276 89.5628C284.993 89.5677 286.709 90.4282 286.719 91.9171C286.709 93.3867 284.993 94.2617 282.276 94.2569C279.578 94.2617 277.838 93.3867 277.838 91.9171C277.838 90.4282 279.578 89.5677 282.276 89.5628ZM282.276 92.9323C283.987 92.9275 284.983 92.5939 284.988 91.9171C284.983 91.2307 283.987 90.8633 282.276 90.8633C280.565 90.8633 279.578 91.2307 279.588 91.9171C279.578 92.5939 280.565 92.9275 282.276 92.9323ZM298.514 86.6865H300.152V88.0739H288.773V86.6865H296.783C297.025 85.4779 297.059 84.5497 297.068 83.7134H290.165V82.3163H298.809V83.317C298.809 84.2597 298.809 85.27 298.514 86.6865ZM291.847 90.2251H297.03V88.8957H298.755V94.1215H290.131V88.8957H291.847V90.2251ZM291.847 92.7099H297.03V91.5546H291.847V92.7099ZM309.617 84.5836V81.8087H311.358V88.5041H309.617V85.971H307.548C307.224 87.3391 305.943 88.2673 304.338 88.2673C302.424 88.2673 301.017 87.0249 301.027 85.2894C301.017 83.5829 302.424 82.3356 304.338 82.3453C305.929 82.3356 307.2 83.2493 307.544 84.5836H309.617ZM304.338 86.8073C305.286 86.8073 305.963 86.2175 305.972 85.2894C305.963 84.3612 305.286 83.7907 304.338 83.7956C303.367 83.7907 302.68 84.3612 302.68 85.2894C302.68 86.2175 303.367 86.8073 304.338 86.8073ZM304.773 90.2493H309.617V89.0504H311.358V94.1215H303.057V89.0504H304.773V90.2493ZM304.773 92.7099H309.617V91.5884H304.773V92.7099ZM322.075 94.2617V81.8087H323.723V94.2617H322.075ZM318.082 86.5366H319.546V82.0166H321.18V93.6816H319.546V87.9579H318.082V86.5366ZM316.854 85.3184V85.6036C316.849 87.4938 317.531 89.3791 319.3 90.3315L318.343 91.6077C317.216 91.0325 316.477 90.0269 316.042 88.8135C315.607 90.1285 314.867 91.25 313.736 91.9075L312.735 90.5974C314.533 89.5532 315.2 87.5276 315.21 85.6036V85.3184H313.204V83.9213H315.21V82.2438H316.839V83.9213H318.812V85.3184H316.854Z" fill="#EF647D"/>
<rect opacity="0.1" x="365" y="70" width="110" height="36" rx="18" fill="#8767CC"/>
<path d="M406.366 87.837H408.024V89.2438H403.17V94.2714H401.411V89.2438H396.673V87.837H404.606C404.92 86.2272 404.949 85.009 404.954 83.9309H397.973V82.5435H406.69V83.6602C406.685 84.8204 406.685 86.0919 406.366 87.837ZM417.885 86.5656V81.8087H419.553V94.2617H417.885V87.9869H416.764V93.6865H415.115V82.0021H416.764V86.5656H417.885ZM414.071 91.1291H409.121V83.1043H414.071V91.1291ZM412.442 84.4772H410.755V89.761H412.442V84.4772ZM429.144 82.297H430.889V87.7887H422.192V82.297H423.913V83.7279H429.144V82.297ZM423.913 86.3964H429.144V85.096H423.913V86.3964ZM420.858 88.9924H432.238V90.3605H427.374V94.2617H425.648V90.3605H420.858V88.9924ZM441.741 85.7293V81.8087H443.467V94.2907H441.741V87.136H439.305V85.7293H441.741ZM437.68 82.7707V84.6319C437.676 86.9717 438.618 89.2486 440.687 90.143L439.633 91.5304C438.246 90.8633 437.318 89.6257 436.801 88.0884C436.264 89.7175 435.307 91.0566 433.886 91.7576L432.793 90.3412C434.92 89.3743 435.897 86.9717 435.906 84.6319V82.7707H437.68Z" fill="#8767CC"/>
<path d="M385.473 115.608C384.699 117.111 382.828 118.151 380.938 118.47L380.493 117.59C382.688 117.28 384.912 115.83 384.912 114.09V113.394H386.024V114.09C386.024 115.801 388.257 117.28 390.452 117.59L390.017 118.47C388.122 118.151 386.251 117.102 385.473 115.608ZM379.923 119.804H391.003V120.703H385.966V125.112H384.912V120.703H379.923V119.804ZM400.966 125.131V112.959H402.039V125.131H400.966ZM396.344 114.012V116.227C396.335 118.441 397.843 120.674 399.632 121.486L398.974 122.337C397.591 121.66 396.397 120.22 395.817 118.489C395.257 120.321 394.058 121.863 392.632 122.579L391.955 121.68C393.763 120.848 395.261 118.528 395.271 116.227V114.012H396.344ZM404.973 119.833C404.973 117.396 405.63 115.366 406.82 113.645H407.864C406.936 114.921 406.191 117.532 406.191 119.833C406.191 122.134 406.936 124.744 407.864 126.021H406.82C405.63 124.3 404.973 122.269 404.973 119.833ZM409.88 118.344L409.541 117.503C411.813 117.295 413.742 116.372 413.839 115.018H410.034V114.148H413.902V112.93H414.956V114.148H418.842V115.018H415.018C415.106 116.372 417.034 117.295 419.316 117.503L418.987 118.344C416.967 118.131 415.164 117.401 414.429 116.178C413.689 117.401 411.886 118.131 409.88 118.344ZM414.956 117.735V119.253H419.974V120.142H408.893V119.253H413.902V117.735H414.956ZM414.424 121.061C417.063 121.061 418.601 121.767 418.61 123.072C418.601 124.377 417.063 125.083 414.424 125.083C411.784 125.083 410.228 124.377 410.228 123.072C410.228 121.767 411.784 121.061 414.424 121.061ZM414.424 124.251C416.377 124.261 417.527 123.836 417.537 123.072C417.527 122.308 416.377 121.873 414.424 121.873C412.461 121.873 411.311 122.308 411.32 123.072C411.311 123.836 412.461 124.261 414.424 124.251ZM430.294 116.101V112.968H431.309V120.2H430.294V116.981H428.68V120.113H427.664V113.2H428.68V116.101H430.294ZM426.688 116.594C426.688 118.286 425.508 119.436 423.903 119.436C422.279 119.436 421.119 118.286 421.128 116.594C421.119 114.902 422.279 113.722 423.903 113.722C425.508 113.722 426.688 114.902 426.688 116.594ZM422.095 116.594C422.086 117.715 422.859 118.537 423.903 118.528C424.938 118.537 425.702 117.715 425.711 116.594C425.702 115.463 424.938 114.651 423.903 114.651C422.859 114.651 422.086 115.463 422.095 116.594ZM430.256 121.747H423.12V120.877H431.309V125.112H430.256V121.747ZM436.022 119.833C436.022 122.269 435.365 124.3 434.176 126.021H433.131C434.06 124.744 434.804 122.134 434.804 119.833C434.804 117.532 434.06 114.921 433.131 113.645H434.176C435.365 115.366 436.022 117.396 436.022 119.833ZM447.243 125.112V112.959H448.268V125.112H447.243ZM442.93 116.343H444.777V113.287H445.812V124.493H444.777V120.278H442.524V119.388H444.777V117.232H442.723C442.128 119.291 440.799 121.109 438.502 122.482L437.855 121.709C440.494 120.142 441.819 117.948 442.031 115.405H438.396V114.506H443.095C443.095 115.129 443.042 115.743 442.93 116.343ZM461.266 114.834V115.714H459.468V117.425H461.266V118.334H459.468V120.181H458.395V112.959H459.468V114.834H461.266ZM456.577 116.555C456.567 118.257 455.233 119.427 453.386 119.427C451.54 119.427 450.186 118.257 450.196 116.555C450.186 114.863 451.54 113.684 453.386 113.693C455.233 113.684 456.567 114.863 456.577 116.555ZM451.25 116.555C451.24 117.715 452.149 118.518 453.386 118.508C454.624 118.518 455.523 117.715 455.533 116.555C455.523 115.405 454.624 114.612 453.386 114.612C452.149 114.612 451.24 115.405 451.25 116.555ZM458.395 121.631H451.511V120.751H459.468V125.112H458.395V121.631Z" fill="#8767CC"/>
<rect opacity="0.1" x="365" y="155" width="110" height="36" rx="18" fill="#3617CE"/>
<path d="M406.487 171.609H408.324V173.084H406.487V179.262H404.741V166.809H406.487V171.609ZM401.251 167.771V169.632C401.241 171.86 402.194 174.108 404.19 175.075L403.136 176.463C401.807 175.805 400.903 174.577 400.386 173.079C399.844 174.689 398.882 176.003 397.471 176.704L396.402 175.288C398.505 174.321 399.501 171.943 399.506 169.632V167.771H401.251ZM417.518 169.584V166.809H419.258V173.504H417.518V170.971H415.449C415.125 172.339 413.844 173.267 412.239 173.267C410.324 173.267 408.918 172.025 408.927 170.289C408.918 168.583 410.324 167.336 412.239 167.345C413.829 167.336 415.101 168.249 415.444 169.584H417.518ZM412.239 171.807C413.186 171.807 413.863 171.218 413.873 170.289C413.863 169.361 413.186 168.791 412.239 168.796C411.267 168.791 410.581 169.361 410.581 170.289C410.581 171.218 411.267 171.807 412.239 171.807ZM412.674 175.249H417.518V174.05H419.258V179.122H410.958V174.05H412.674V175.249ZM412.674 177.71H417.518V176.588H412.674V177.71ZM429.144 167.297H430.889V172.789H422.192V167.297H423.913V168.728H429.144V167.297ZM423.913 171.396H429.144V170.096H423.913V171.396ZM420.858 173.992H432.238V175.36H427.374V179.262H425.648V175.36H420.858V173.992ZM441.741 170.729V166.809H443.467V179.291H441.741V172.136H439.305V170.729H441.741ZM437.68 167.771V169.632C437.676 171.972 438.618 174.249 440.687 175.143L439.633 176.53C438.246 175.863 437.318 174.626 436.801 173.088C436.264 174.718 435.307 176.057 433.886 176.758L432.793 175.341C434.92 174.374 435.897 171.972 435.906 169.632V167.771H437.68Z" fill="#3617CE"/>
<path d="M406.298 211.949V215.575H408.135V216.474H406.298V220.757H405.225V211.949H406.298ZM403.891 217.296L404.026 218.185C402.315 218.514 400.864 218.601 398.312 218.591H397.374V213.012H402.779V213.902H398.438V217.692C400.874 217.702 402.266 217.629 403.891 217.296ZM398.689 219.867H399.752V222.952H406.859V223.841H398.689V219.867ZM418.301 216.899H420.273V217.808H418.301V224.102H417.228V211.959H418.301V216.899ZM409.541 213.264H415.159C415.149 216.706 413.534 219.838 409.57 221.791L408.971 220.95C412.113 219.389 413.824 217.049 414.066 214.163H409.541V213.264ZM430.372 224.112V211.959H431.396V224.112H430.372ZM426.059 215.343H427.906V212.287H428.941V223.493H427.906V219.278H425.653V218.388H427.906V216.232H425.852C425.257 218.291 423.927 220.109 421.631 221.482L420.983 220.709C423.623 219.142 424.948 216.948 425.16 214.405H421.525V213.506H426.224C426.224 214.129 426.171 214.743 426.059 215.343ZM444.395 213.834V214.714H442.597V216.425H444.395V217.334H442.597V219.181H441.524V211.959H442.597V213.834H444.395ZM439.706 215.555C439.696 217.257 438.362 218.427 436.515 218.427C434.669 218.427 433.315 217.257 433.325 215.555C433.315 213.863 434.669 212.684 436.515 212.693C438.362 212.684 439.696 213.863 439.706 215.555ZM434.379 215.555C434.369 216.715 435.278 217.518 436.515 217.508C437.753 217.518 438.652 216.715 438.662 215.555C438.652 214.405 437.753 213.612 436.515 213.612C435.278 213.612 434.369 214.405 434.379 215.555ZM441.524 220.631H434.64V219.751H442.597V224.112H441.524V220.631Z" fill="#3617CE"/>
<path d="M365 173L360 170.113V175.887L365 173ZM312 173.5H360.5V172.5H312V173.5ZM302.5 163V106H301.5V163H302.5ZM312 172.5C306.753 172.5 302.5 168.247 302.5 163H301.5C301.5 168.799 306.201 173.5 312 173.5V172.5Z" fill="#EF647D"/>
<path d="M600 106L602.887 111H597.113L600 106ZM590 173.5H475V172.5H590V173.5ZM599.5 163V110.5H600.5V163H599.5ZM590 172.5C595.247 172.5 599.5 168.247 599.5 163H600.5C600.5 168.799 595.799 173.5 590 173.5V172.5Z" fill="#3617CE"/>
<path d="M30.346 175.206H31.8857V176.512H27.3788V181.181H25.7448V176.512H21.3456V175.206H28.712C29.0038 173.711 29.0307 172.58 29.0352 171.579H22.5532V170.29H30.6468V171.327C30.6423 172.405 30.6423 173.585 30.346 175.206ZM41.0427 174.025V169.608H42.5914V181.172H41.0427V175.345H40.0012V180.637H38.4705V169.788H40.0012V174.025H41.0427ZM37.5009 178.263H32.9042V170.811H37.5009V178.263ZM35.9881 172.086H34.4215V176.992H35.9881V172.086ZM51.4969 170.061H53.1175V175.161H45.0418V170.061H46.6399V171.39H51.4969V170.061ZM46.6399 173.868H51.4969V172.661H46.6399V173.868ZM43.8029 176.279H54.3699V177.549H49.854V181.172H48.2514V177.549H43.8029V176.279ZM63.1947 173.249V169.608H64.7972V181.199H63.1947V174.555H60.9322V173.249H63.1947ZM59.4239 170.501V172.23C59.4195 174.402 60.2948 176.517 62.2161 177.347L61.2375 178.635C59.9491 178.016 59.0873 176.867 58.607 175.439C58.1087 176.952 57.2199 178.195 55.9001 178.846L54.8856 177.531C56.8608 176.633 57.7675 174.402 57.7765 172.23V170.501H59.4239Z" fill="#8767CC"/>
<path d="M70.865 174.963C70.4161 174.963 70.039 174.595 70.048 174.146C70.039 173.698 70.4161 173.329 70.865 173.329C71.3139 173.329 71.682 173.698 71.682 174.146C71.682 174.595 71.3139 174.963 70.865 174.963ZM70.856 180.072C70.4071 180.072 70.0301 179.704 70.039 179.255C70.0301 178.806 70.4071 178.438 70.856 178.438C71.3049 178.438 71.673 178.806 71.673 179.255C71.673 179.704 71.3049 180.072 70.856 180.072ZM84.8263 175.331H86.5141V176.157H81.8456V181.05H80.8491V176.157H76.2255V175.331H83.8118C84.1619 173.711 84.1619 172.521 84.1619 171.471V171.309H77.5183V170.483H85.1495V171.471C85.1495 172.539 85.1495 173.706 84.8263 175.331ZM96.1694 174.218V169.747H97.13V181.032H96.1694V175.053H94.5893V180.458H93.6376V169.99H94.5893V174.218H96.1694ZM92.2011 177.989H87.8738V171.067H92.2011V177.989ZM91.2585 171.866H88.8165V177.19H91.2585V171.866ZM107.019 169.756H108.015V178.034H107.019V169.756ZM102.278 173.828C101.78 175.116 100.725 176.131 99.3785 176.624L98.8578 175.825C100.555 175.233 101.749 173.769 101.758 172.162V171.507H99.1181V170.69H105.358V171.507H102.763V172.162C102.763 173.689 103.966 175.062 105.654 175.601L105.142 176.391C103.832 175.946 102.786 175.017 102.278 173.828ZM101.722 177.244V179.955H108.365V180.781H100.725V177.244H101.722ZM118.568 173.653H117.051V176.49H116.117V169.972H117.051V172.827H118.568V169.747H119.511V176.894H118.568V173.653ZM113.271 171.103H115.659V171.902H109.869V171.103H112.284V169.828H113.271V171.103ZM115.202 174.434C115.193 175.601 114.205 176.355 112.769 176.355C111.35 176.355 110.353 175.601 110.362 174.434C110.353 173.258 111.35 172.503 112.769 172.503C114.205 172.503 115.193 173.258 115.202 174.434ZM111.251 174.434C111.251 175.134 111.871 175.61 112.769 175.61C113.675 175.61 114.295 175.134 114.295 174.434C114.295 173.724 113.675 173.249 112.769 173.249C111.871 173.249 111.251 173.724 111.251 174.434ZM115.785 177.082C118.155 177.082 119.574 177.791 119.574 179.057C119.574 180.296 118.155 181.006 115.785 181.006C113.406 181.006 111.987 180.296 111.996 179.057C111.987 177.791 113.406 177.082 115.785 177.082ZM115.785 180.224C117.536 180.233 118.577 179.794 118.586 179.057C118.577 178.285 117.536 177.854 115.785 177.863C114.025 177.854 112.975 178.285 112.984 179.057C112.975 179.794 114.025 180.233 115.785 180.224ZM132.752 169.747H133.731V176.229H132.752V169.747ZM125.022 170.483H130.319V175.071H125.022V170.483ZM126.001 174.281H129.34V171.291H126.001V174.281ZM134.027 177.773H130.669C130.669 178.878 132.483 179.973 134.422 180.215L134.072 180.997C132.379 180.763 130.831 179.96 130.157 178.909C129.48 179.978 127.895 180.759 126.198 180.997L125.839 180.215C127.778 180 129.646 178.905 129.646 177.773H126.306V177.001H129.664V175.897H130.651V177.001H134.027V177.773ZM147.528 175.331H149.216V176.157H144.548V181.05H143.551V176.157H138.928V175.331H146.514C146.864 173.711 146.864 172.521 146.864 171.471V171.309H140.22V170.483H147.852V171.471C147.852 172.539 147.852 173.706 147.528 175.331ZM158.872 174.218V169.747H159.832V181.032H158.872V175.053H157.291V180.458H156.34V169.99H157.291V174.218H158.872ZM154.903 177.989H150.576V171.067H154.903V177.989ZM153.961 171.866H151.519V177.19H153.961V171.866ZM170.107 181.032V169.747H171.059V181.032H170.107ZM166.103 172.89H167.818V170.052H168.778V180.458H167.818V176.544H165.726V175.718H167.818V173.715H165.91C165.358 175.628 164.123 177.316 161.991 178.59L161.389 177.872C163.84 176.418 165.07 174.38 165.268 172.019H161.892V171.184H166.255C166.255 171.763 166.206 172.333 166.103 172.89ZM183.129 171.489V172.306H181.459V173.895H183.129V174.739H181.459V176.454H180.462V169.747H181.459V171.489H183.129ZM178.775 173.087C178.766 174.667 177.527 175.753 175.812 175.753C174.097 175.753 172.84 174.667 172.849 173.087C172.84 171.516 174.097 170.421 175.812 170.43C177.527 170.421 178.766 171.516 178.775 173.087ZM173.828 173.087C173.819 174.164 174.663 174.91 175.812 174.901C176.961 174.91 177.796 174.164 177.805 173.087C177.796 172.019 176.961 171.282 175.812 171.282C174.663 171.282 173.819 172.019 173.828 173.087ZM180.462 177.8H174.07V176.983H181.459V181.032H180.462V177.8ZM195.822 181.032V169.747H196.774V181.032H195.822ZM191.773 174.2H193.551V170.017H194.494V180.44H193.551V175.044H191.773V174.2ZM190.436 172.665V173.222C190.436 175.035 191.36 176.894 192.896 177.72L192.321 178.465C191.199 177.85 190.386 176.683 189.978 175.318C189.574 176.768 188.766 178.034 187.643 178.716L187.042 177.962C188.577 177.064 189.484 175.089 189.493 173.222V172.665H187.347V171.839H189.493V170.16H190.445V171.839H192.554V172.665H190.436ZM206.725 172.189H203.875C203.17 173.967 201.42 175.174 198.915 175.771L198.556 174.945C201.325 174.304 202.937 172.957 203.116 171.139H199.13V170.313H204.221C204.221 170.69 204.185 171.049 204.113 171.39H206.725V169.747H207.722V175.52H206.725V174.335H203.709V173.545H206.725V172.189ZM201.42 178.779V180.108H208.108V180.925H200.432V178.016H206.725V176.84H200.405V176.032H207.722V178.779H201.42ZM217.593 170.214H218.589V175.071H210.913V170.214H211.901V171.776H217.593V170.214ZM211.901 174.263H217.593V172.584H211.901V174.263ZM209.584 176.445H219.918V177.253H215.214V181.032H214.235V177.253H209.584V176.445ZM229.205 173.599V169.747H230.193V181.05H229.205V174.416H226.53V173.599H229.205ZM224.806 170.726V172.782C224.806 174.82 226.117 176.876 227.76 177.63L227.158 178.438C225.874 177.778 224.815 176.427 224.312 174.824C223.814 176.512 222.755 177.958 221.466 178.644L220.829 177.845C222.481 177.028 223.791 174.856 223.8 172.782V170.726H224.806Z" fill="#444444"/>
<path d="M30.4582 196.066H32.164V197.435H30.4582V203.172H28.8377V191.608H30.4582V196.066ZM25.5967 192.501V194.23C25.5877 196.299 26.472 198.386 28.326 199.284L27.3474 200.573C26.1129 199.962 25.2735 198.822 24.7932 197.43C24.2904 198.925 23.3971 200.146 22.0863 200.797L21.0943 199.482C23.047 198.584 23.9717 196.375 23.9762 194.23V192.501H25.5967ZM40.7015 194.185V191.608H42.3175V197.825H40.7015V195.473H38.7802C38.4795 196.743 37.2899 197.605 35.7996 197.605C34.022 197.605 32.7157 196.452 32.7246 194.84C32.7157 193.256 34.022 192.097 35.7996 192.106C37.2764 192.097 38.457 192.946 38.7758 194.185H40.7015ZM35.7996 196.25C36.6794 196.25 37.3079 195.702 37.3168 194.84C37.3079 193.978 36.6794 193.449 35.7996 193.453C34.8973 193.449 34.2599 193.978 34.2599 194.84C34.2599 195.702 34.8973 196.25 35.7996 196.25ZM36.2036 199.446H40.7015V198.333H42.3175V203.041H34.61V198.333H36.2036V199.446ZM36.2036 201.731H40.7015V200.689H36.2036V201.731ZM51.4969 192.061H53.1175V197.161H45.0418V192.061H46.6399V193.39H51.4969V192.061ZM46.6399 195.868H51.4969V194.661H46.6399V195.868ZM43.8029 198.279H54.3699V199.549H49.854V203.172H48.2514V199.549H43.8029V198.279ZM63.1947 195.249V191.608H64.7972V203.199H63.1947V196.555H60.9322V195.249H63.1947ZM59.4239 192.501V194.23C59.4195 196.402 60.2948 198.517 62.2161 199.347L61.2375 200.635C59.9491 200.016 59.0873 198.867 58.607 197.439C58.1087 198.952 57.2199 200.195 55.9001 200.846L54.8856 199.531C56.8608 198.633 57.7675 196.402 57.7765 194.23V192.501H59.4239Z" fill="#3617CE"/>
<path d="M70.865 196.963C70.4161 196.963 70.039 196.595 70.048 196.146C70.039 195.698 70.4161 195.329 70.865 195.329C71.3139 195.329 71.682 195.698 71.682 196.146C71.682 196.595 71.3139 196.963 70.865 196.963ZM70.856 202.072C70.4071 202.072 70.0301 201.704 70.039 201.255C70.0301 200.806 70.4071 200.438 70.856 200.438C71.3049 200.438 71.673 200.806 71.673 201.255C71.673 201.704 71.3049 202.072 70.856 202.072ZM84.8263 197.331H86.5141V198.157H81.8456V203.05H80.8491V198.157H76.2255V197.331H83.8118C84.1619 195.711 84.1619 194.521 84.1619 193.471V193.309H77.5183V192.483H85.1495V193.471C85.1495 194.539 85.1495 195.706 84.8263 197.331ZM96.1694 196.218V191.747H97.13V203.032H96.1694V197.053H94.5893V202.458H93.6376V191.99H94.5893V196.218H96.1694ZM92.2011 199.989H87.8738V193.067H92.2011V199.989ZM91.2585 193.866H88.8165V199.19H91.2585V193.866ZM106.462 197.673V200.743H109.03V201.578H98.6962V200.743H101.255V197.7C100.294 197.197 99.7107 196.384 99.7107 195.365C99.7107 193.615 101.425 192.465 103.832 192.456C106.247 192.465 107.961 193.615 107.961 195.365C107.961 196.371 107.396 197.17 106.462 197.673ZM100.671 195.365C100.671 196.622 101.982 197.466 103.832 197.466C105.672 197.466 107.001 196.622 107.001 195.365C107.001 194.099 105.672 193.265 103.832 193.273C101.982 193.265 100.671 194.099 100.671 195.365ZM102.233 198.068V200.743H105.457V198.063C104.967 198.189 104.42 198.256 103.832 198.256C103.252 198.256 102.718 198.189 102.233 198.068ZM113.312 195.742C112.827 196.977 111.794 197.951 110.452 198.4L109.967 197.628C111.628 197.071 112.795 195.698 112.795 194.162V193.929H110.246V193.121H112.795V191.693H113.801V193.121H116.324V193.929H113.783V194.162C113.783 195.572 114.995 196.838 116.665 197.323L116.18 198.104C114.869 197.709 113.823 196.856 113.312 195.742ZM115.974 195.805V194.979H118.29V191.747H119.286V198.588H118.29V195.805H115.974ZM115.543 198.885C117.886 198.885 119.322 199.63 119.322 200.941C119.322 202.251 117.886 203.006 115.543 203.006C113.19 203.006 111.754 202.251 111.763 200.941C111.754 199.63 113.19 198.885 115.543 198.885ZM115.543 202.215C117.275 202.215 118.335 201.731 118.335 200.941C118.335 200.142 117.275 199.675 115.543 199.666C113.81 199.675 112.742 200.142 112.751 200.941C112.742 201.731 113.81 202.215 115.543 202.215ZM132.752 191.747H133.731V198.229H132.752V191.747ZM125.022 192.483H130.319V197.071H125.022V192.483ZM126.001 196.281H129.34V193.291H126.001V196.281ZM134.027 199.773H130.669C130.669 200.878 132.483 201.973 134.422 202.215L134.072 202.997C132.379 202.763 130.831 201.96 130.157 200.909C129.48 201.978 127.895 202.759 126.198 202.997L125.839 202.215C127.778 202 129.646 200.905 129.646 199.773H126.306V199.001H129.664V197.897H130.651V199.001H134.027V199.773ZM147.286 194.665V191.756H148.283V198.193H147.286V195.5H144.781V194.665H147.286ZM144.754 192.483C144.745 195.311 142.725 197.34 139.475 198.265L139.053 197.484C141.747 196.721 143.47 195.226 143.69 193.309H139.637V192.483H144.754ZM148.283 202.871H140.957V198.669H148.283V202.871ZM147.295 199.468H141.926V202.063H147.295V199.468ZM158.898 196.326H160.784V197.188H158.898V203.032H157.902V191.747H158.898V196.326ZM153.952 192.726V194.782C153.943 196.766 155.262 198.813 156.869 199.603L156.25 200.402C155.011 199.751 153.974 198.413 153.471 196.847C152.969 198.512 151.9 199.935 150.63 200.617L150.001 199.818C151.644 199.001 152.955 196.838 152.964 194.782V192.726H153.952ZM170.224 194.512H171.92V195.347H170.224V198.148H169.227V191.747H170.224V194.512ZM167.988 196.281L168.114 197.098C166.525 197.421 165.178 197.484 162.808 197.484H161.937V192.51H166.929V193.327H162.925V196.658C165.187 196.663 166.48 196.582 167.988 196.281ZM170.224 202.871H163.095V198.741H170.224V202.871ZM169.236 199.549H164.074V202.063H169.236V199.549ZM181.468 191.747V194.692H183.156V195.527H181.468V198.481H180.462V191.747H181.468ZM179.241 196.353L179.349 197.179C177.769 197.493 176.413 197.556 174.025 197.556H173.154V192.609H178.164V193.435H174.133V196.739C176.418 196.73 177.729 196.663 179.241 196.353ZM177.841 198.696C180.139 198.705 181.558 199.495 181.558 200.851C181.558 202.215 180.139 203.006 177.841 203.006C175.534 203.006 174.097 202.215 174.097 200.851C174.097 199.495 175.534 198.705 177.841 198.696ZM177.841 202.198C179.529 202.198 180.597 201.686 180.597 200.851C180.597 200.016 179.529 199.513 177.841 199.522C176.135 199.513 175.076 200.016 175.076 200.851C175.076 201.686 176.135 202.198 177.841 202.198ZM191.859 192.214H192.856V197.071H185.18V192.214H186.167V193.776H191.859V192.214ZM186.167 196.263H191.859V194.584H186.167V196.263ZM183.851 198.445H194.185V199.253H189.48V203.032H188.502V199.253H183.851V198.445ZM203.472 195.599V191.747H204.459V203.05H203.472V196.416H200.796V195.599H203.472ZM199.073 192.726V194.782C199.073 196.82 200.383 198.876 202.026 199.63L201.425 200.438C200.141 199.778 199.082 198.427 198.579 196.824C198.081 198.512 197.021 199.958 195.733 200.644L195.095 199.845C196.747 199.028 198.058 196.856 198.067 194.782V192.726H199.073Z" fill="#444444"/>
<path d="M30.2831 218.169L28.6941 218.016C28.9544 216.97 28.9858 216.189 28.9903 215.404H22.5487V214.133H30.6153V215.08C30.6153 215.992 30.6153 216.984 30.2831 218.169ZM26.903 216.746V218.775H31.8588V220.081H21.3681V218.775H25.3004V216.746H26.903ZM26.5483 220.808C29.0711 220.813 30.6647 221.612 30.6737 222.994C30.6647 224.359 29.0711 225.172 26.5483 225.167C24.0435 225.172 22.4275 224.359 22.4275 222.994C22.4275 221.612 24.0435 220.813 26.5483 220.808ZM26.5483 223.937C28.1374 223.933 29.0622 223.623 29.0666 222.994C29.0622 222.357 28.1374 222.016 26.5483 222.016C24.9593 222.016 24.0435 222.357 24.0525 222.994C24.0435 223.623 24.9593 223.933 26.5483 223.937ZM41.6262 218.137H43.148V219.426H32.581V218.137H40.0192C40.2436 217.015 40.2751 216.153 40.284 215.377H33.8738V214.079H41.9001V215.009C41.9001 215.884 41.9001 216.822 41.6262 218.137ZM35.436 221.423H40.2481V220.189H41.8507V225.041H33.8424V220.189H35.436V221.423ZM35.436 223.731H40.2481V222.658H35.436V223.731ZM51.9369 216.185V213.608H53.5529V219.825H51.9369V217.473H50.0156C49.7148 218.743 48.5253 219.605 47.0349 219.605C45.2573 219.605 43.951 218.452 43.96 216.84C43.951 215.256 45.2573 214.097 47.0349 214.106C48.5118 214.097 49.6924 214.946 50.0111 216.185H51.9369ZM47.0349 218.25C47.9148 218.25 48.5432 217.702 48.5522 216.84C48.5432 215.978 47.9148 215.449 47.0349 215.453C46.1327 215.449 45.4952 215.978 45.4952 216.84C45.4952 217.702 46.1327 218.25 47.0349 218.25ZM47.4389 221.446H51.9369V220.333H53.5529V225.041H45.8454V220.333H47.4389V221.446ZM47.4389 223.731H51.9369V222.689H47.4389V223.731ZM63.5044 225.172V213.608H65.0351V225.172H63.5044ZM59.7965 217.998H61.1567V213.801H62.6739V224.633H61.1567V219.318H59.7965V217.998ZM58.6563 216.867V217.132C58.6518 218.887 59.2848 220.638 60.9277 221.522L60.0389 222.707C58.993 222.173 58.3062 221.239 57.9022 220.113C57.4982 221.334 56.8114 222.375 55.761 222.985L54.8317 221.769C56.5016 220.799 57.1211 218.919 57.1301 217.132V216.867H55.2672V215.57H57.1301V214.012H58.6429V215.57H60.4744V216.867H58.6563Z" fill="#EF647D"/>
<path d="M70.856 218.182C70.4071 218.182 70.0301 217.814 70.039 217.365C70.0301 216.916 70.4071 216.548 70.856 216.548C71.3049 216.548 71.673 216.916 71.673 217.365C71.673 217.814 71.3049 218.182 70.856 218.182ZM70.856 222.824C70.4071 222.824 70.0301 222.456 70.039 222.007C70.0301 221.558 70.4071 221.19 70.856 221.19C71.3049 221.19 71.673 221.558 71.673 222.007C71.673 222.456 71.3049 222.824 70.856 222.824ZM82.914 217.123H81.8007C81.702 216.216 80.867 215.695 79.7627 215.695C78.5507 215.695 77.7517 216.333 77.7517 217.204C77.7517 218.173 78.829 218.532 79.5203 218.712L80.4451 218.963C81.4237 219.215 83.0397 219.78 83.0397 221.495C83.0397 222.994 81.8366 224.162 79.7089 224.162C77.7248 224.162 76.4948 223.138 76.3871 221.612H77.5632C77.6529 222.644 78.6136 223.129 79.7089 223.129C80.9748 223.129 81.9264 222.474 81.9264 221.477C81.9264 220.579 81.0735 220.238 80.1039 219.969L78.9817 219.655C77.5362 219.242 76.6384 218.506 76.6384 217.258C76.6384 215.704 78.021 214.681 79.7987 214.681C81.5853 214.681 82.8691 215.722 82.914 217.123ZM85.8188 224H84.6786V214.807H85.8188V219.349H85.9355L90.0294 214.807H91.5197L87.6772 218.954L91.5197 224H90.1282L86.9679 219.744L85.8188 221.037V224ZM95.1409 215.821H92.25V214.807H99.172V215.821H96.2901V224H95.1409V215.821ZM108.861 218.407H110.701V219.26H108.861V225.032H107.873V213.747H108.861V218.407ZM104.049 219.74V221.661C105.104 221.612 106.163 221.536 107.146 221.405L107.218 222.16C104.821 222.564 102.154 222.59 100.17 222.573L99.9998 221.738C100.911 221.733 101.961 221.729 103.052 221.697V219.744C101.548 219.56 100.529 218.55 100.538 217.132C100.529 215.561 101.777 214.492 103.546 214.483C105.279 214.492 106.545 215.561 106.554 217.132C106.545 218.546 105.517 219.556 104.049 219.74ZM101.508 217.132C101.499 218.191 102.361 218.927 103.546 218.919C104.713 218.927 105.566 218.191 105.575 217.132C105.566 216.073 104.713 215.345 103.546 215.336C102.361 215.345 101.499 216.073 101.508 217.132ZM123.242 219.331H124.93V220.157H120.262V225.05H119.265V220.157H114.641V219.331H122.228C122.578 217.711 122.578 216.521 122.578 215.471V215.309H115.934V214.483H123.566V215.471C123.566 216.539 123.566 217.706 123.242 219.331ZM134.585 218.218V213.747H135.546V225.032H134.585V219.053H133.005V224.458H132.054V213.99H133.005V218.218H134.585ZM130.617 221.989H126.29V215.067H130.617V221.989ZM129.674 215.866H127.232V221.19H129.674V215.866ZM145.821 225.032V213.747H146.772V225.032H145.821ZM141.817 216.89H143.531V214.052H144.492V224.458H143.531V220.544H141.44V219.718H143.531V217.715H141.624C141.071 219.628 139.837 221.316 137.705 222.59L137.103 221.872C139.554 220.418 140.784 218.38 140.982 216.019H137.606V215.184H141.969C141.969 215.763 141.92 216.333 141.817 216.89ZM158.843 215.489V216.306H157.173V217.895H158.843V218.739H157.173V220.454H156.176V213.747H157.173V215.489H158.843ZM154.488 217.087C154.479 218.667 153.24 219.753 151.526 219.753C149.811 219.753 148.554 218.667 148.563 217.087C148.554 215.516 149.811 214.421 151.526 214.43C153.24 214.421 154.479 215.516 154.488 217.087ZM149.542 217.087C149.533 218.164 150.377 218.91 151.526 218.901C152.675 218.91 153.51 218.164 153.519 217.087C153.51 216.019 152.675 215.282 151.526 215.282C150.377 215.282 149.533 216.019 149.542 217.087ZM156.176 221.8H149.784V220.983H157.173V225.032H156.176V221.8ZM164.718 217.868C162.204 217.859 160.723 217.168 160.723 215.893C160.723 214.636 162.204 213.945 164.718 213.945C167.232 213.945 168.704 214.636 168.704 215.893C168.704 217.168 167.232 217.859 164.718 217.868ZM164.718 214.699C162.851 214.699 161.756 215.148 161.765 215.893C161.756 216.674 162.851 217.105 164.718 217.105C166.595 217.105 167.69 216.674 167.69 215.893C167.69 215.148 166.595 214.699 164.718 214.699ZM159.583 219.439V218.631H169.872V219.439H159.583ZM168.543 222.941H161.836V224.117H168.884V224.907H160.858V222.204H167.564V221.181H160.831V220.418H168.543V222.941ZM182.772 225.032V213.747H183.723V225.032H182.772ZM178.722 218.2H180.5V214.017H181.443V224.44H180.5V219.044H178.722V218.2ZM177.385 216.665V217.222C177.385 219.035 178.31 220.894 179.845 221.72L179.27 222.465C178.148 221.85 177.335 220.683 176.927 219.318C176.523 220.768 175.715 222.034 174.593 222.716L173.991 221.962C175.526 221.064 176.433 219.089 176.442 217.222V216.665H174.296V215.839H176.442V214.16H177.394V215.839H179.504V216.665H177.385ZM193.675 216.189H190.824C190.119 217.967 188.369 219.174 185.864 219.771L185.505 218.945C188.274 218.304 189.886 216.957 190.066 215.139H186.079V214.313H191.17C191.17 214.69 191.134 215.049 191.062 215.39H193.675V213.747H194.671V219.52H193.675V218.335H190.658V217.545H193.675V216.189ZM188.369 222.779V224.108H195.057V224.925H187.381V222.016H193.675V220.84H187.354V220.032H194.671V222.779H188.369ZM200.439 215.139H203.303V215.956H196.579V215.139H199.451V213.756H200.439V215.139ZM205.377 213.756V217.473H207.074V218.317H205.377V222.213H204.38V213.756H205.377ZM202.657 218.685C202.648 219.951 201.552 220.768 199.945 220.768C198.311 220.768 197.216 219.951 197.225 218.685C197.216 217.401 198.311 216.575 199.945 216.575C201.552 216.575 202.648 217.401 202.657 218.685ZM198.177 218.685C198.168 219.475 198.877 219.987 199.945 219.978C200.996 219.987 201.705 219.475 201.714 218.685C201.705 217.877 200.996 217.356 199.945 217.356C198.877 217.356 198.168 217.877 198.177 218.685ZM198.311 221.531H199.299V223.955H205.898V224.781H198.311V221.531ZM219.408 216.45V213.747H220.405V219.798H219.408V217.276H217.042C216.845 218.604 215.687 219.493 214.156 219.493C212.441 219.493 211.22 218.425 211.229 216.881C211.22 215.345 212.441 214.268 214.156 214.277C215.673 214.268 216.822 215.148 217.038 216.45H219.408ZM214.156 218.649C215.296 218.649 216.113 217.904 216.113 216.881C216.113 215.839 215.296 215.112 214.156 215.121C212.998 215.112 212.181 215.839 212.181 216.881C212.181 217.904 212.998 218.649 214.156 218.649ZM214.129 221.8H219.408V220.373H220.405V224.88H213.133V220.373H214.129V221.8ZM214.129 224.063H219.408V222.599H214.129V224.063ZM230.976 225.032V213.747H231.927V225.032H230.976ZM226.927 218.2H228.704V214.017H229.647V224.44H228.704V219.044H226.927V218.2ZM225.589 216.665V217.222C225.589 219.035 226.514 220.894 228.049 221.72L227.474 222.465C226.352 221.85 225.54 220.683 225.131 219.318C224.727 220.768 223.919 222.034 222.797 222.716L222.195 221.962C223.73 221.064 224.637 219.089 224.646 217.222V216.665H222.5V215.839H224.646V214.16H225.598V215.839H227.708V216.665H225.589Z" fill="#444444"/>
<rect x="5" y="215" width="10" height="10" rx="5" fill="#EF647D"/>
<rect x="5" y="192" width="10" height="10" rx="5" fill="#3617CE"/>
<rect x="5" y="170" width="9" height="9" rx="4.5" fill="#8767CC"/>
<g opacity="0.5">
<path d="M238.783 83.4272L243.029 86.8237C243.151 86.9213 243.151 87.0796 243.029 87.1773L238.783 90.5737C238.587 90.7312 238.25 90.6197 238.25 90.397V83.604C238.25 83.3813 238.587 83.2697 238.783 83.4272Z" fill="#565EA1"/>
</g>
<g opacity="0.5">
<path d="M118.783 83.4272L123.029 86.8237C123.151 86.9213 123.151 87.0796 123.029 87.1773L118.783 90.5737C118.587 90.7312 118.25 90.6197 118.25 90.397V83.604C118.25 83.3813 118.587 83.2697 118.783 83.4272Z" fill="#565EA1"/>
</g>
<g opacity="0.5">
<path d="M358.783 83.4272L363.029 86.8237C363.151 86.9213 363.151 87.0796 363.029 87.1773L358.783 90.5737C358.587 90.7312 358.25 90.6197 358.25 90.397V83.604C358.25 83.3813 358.587 83.2697 358.783 83.4272Z" fill="#565EA1"/>
</g>
<g opacity="0.5">
<path d="M478.783 83.4272L483.029 86.8237C483.151 86.9213 483.151 87.0796 483.029 87.1773L478.783 90.5737C478.587 90.7312 478.25 90.6197 478.25 90.397V83.604C478.25 83.3813 478.587 83.2697 478.783 83.4272Z" fill="#565EA1"/>
</g>
<rect x="5.5" y="10.5" width="109" height="49" rx="24.5" fill="white" fill-opacity="0.6"/>
<rect x="5.5" y="10.5" width="109" height="49" rx="24.5" stroke="#565EA1" stroke-dasharray="2 2"/>
<path d="M42.9073 31.2293V27.7818H44.6421V35.7265H42.9073V32.6602H40.1891V31.2293H42.9073ZM40.1228 28.6271C40.1172 32.268 37.7194 34.8149 33.6089 35.9696L32.9128 34.6105C36.073 33.7486 37.9515 32.0856 38.2609 30.0249H33.6697V28.6271H40.1228ZM44.6421 41.6989H35.3493V36.3011H44.6421V41.6989ZM42.9183 37.6713H37.0509V40.3287H42.9183V37.6713ZM57.7023 33.3066H59.8791V34.7818H57.7023V41.8812H55.9619V27.7707H57.7023V33.3066ZM51.6857 28.9033V31.163C51.6746 33.6768 52.9398 36.2293 55.1222 37.2845L54.0669 38.6768C52.531 37.9033 51.4371 36.4116 50.8349 34.616C50.2105 36.5331 49.0559 38.1298 47.4426 38.942L46.3708 37.5387C48.647 36.4669 49.9398 33.7652 49.9509 31.163V28.9033H51.6857ZM70.4033 35.1409V38.7486H73.3812V40.174H60.4696V38.7486H63.453V35.174C62.326 34.5276 61.6464 33.5166 61.6519 32.2624C61.6464 30.0138 63.8508 28.5276 66.895 28.5221C69.9392 28.5276 72.1602 30.0138 72.1602 32.2624C72.1602 33.4945 71.4972 34.489 70.4033 35.1409ZM66.895 29.9088C64.779 29.9033 63.3536 30.7928 63.3536 32.2624C63.3536 33.7099 64.779 34.6326 66.895 34.6326C68.9945 34.6326 70.453 33.7099 70.453 32.2624C70.453 30.7928 68.9945 29.9033 66.895 29.9088ZM65.1713 35.8094V38.7486H68.6464V35.8094C68.105 35.9254 67.5193 35.9862 66.895 35.9862C66.2818 35.9862 65.7072 35.9254 65.1713 35.8094ZM78.5353 33.1851C77.922 34.5663 76.7508 35.6602 75.0712 36.163L74.248 34.8039C76.458 34.1409 77.6403 32.4834 77.6403 30.7762V30.7044H74.6845V29.3232H77.6403V27.7099H79.3917V29.3232H82.3198V30.7044H79.3696V30.7762C79.3696 32.3287 80.5795 33.8536 82.806 34.4448L81.9828 35.7928C80.3585 35.3564 79.1872 34.4061 78.5353 33.1851ZM81.8999 33.047V31.6436H84.3917V27.7707H86.1265V36.3122H84.3917V33.047H81.8999ZM81.3475 36.5884C84.3309 36.5939 86.1651 37.5387 86.1651 39.2127C86.1651 40.8978 84.3309 41.8757 81.3475 41.8702C78.3696 41.8757 76.5353 40.8978 76.5408 39.2127C76.5353 37.5387 78.3696 36.5939 81.3475 36.5884ZM81.3475 40.5331C83.3419 40.5331 84.4359 40.058 84.4414 39.2127C84.4359 38.3785 83.3419 37.9309 81.3475 37.9254C79.3806 37.9309 78.2591 38.3785 78.2701 39.2127C78.2591 40.058 79.3806 40.5331 81.3475 40.5331Z" fill="#565EA1"/>
<circle cx="13" cy="18" r="13" fill="#565EA1"/>
<path d="M9.45355 23.1975C7.15071 23.193 5.75465 21.4334 5.76363 18.4123C5.76812 15.4002 7.15969 13.6809 9.45355 13.6809C11.7474 13.6809 13.148 15.4092 13.1435 18.4123C13.1435 21.4423 11.7519 23.1975 9.45355 23.1975ZM9.45355 21.6084C10.5174 21.6084 11.1997 20.5401 11.1997 18.4123C11.1953 16.3115 10.5129 15.2521 9.45355 15.2521C8.39415 15.2521 7.71183 16.3115 7.70734 18.4123C7.70286 20.5401 8.38966 21.6084 9.45355 21.6084ZM16.626 13.8066H18.4261V23H16.5138V15.6247H16.46L14.3501 16.9489V15.2521L16.626 13.8066Z" fill="white"/>
<rect x="126.5" y="10.5" width="109" height="49" rx="24.5" fill="white" fill-opacity="0.6"/>
<rect x="126.5" y="10.5" width="109" height="49" rx="24.5" stroke="#565EA1" stroke-dasharray="2 2"/>
<path d="M163.907 31.2293V27.7818H165.642V35.7265H163.907V32.6602H161.189V31.2293H163.907ZM161.123 28.6271C161.117 32.268 158.719 34.8149 154.609 35.9696L153.913 34.6105C157.073 33.7486 158.951 32.0856 159.261 30.0249H154.67V28.6271H161.123ZM165.642 41.6989H156.349V36.3011H165.642V41.6989ZM163.918 37.6713H158.051V40.3287H163.918V37.6713ZM178.702 33.3066H180.879V34.7818H178.702V41.8812H176.962V27.7707H178.702V33.3066ZM172.686 28.9033V31.163C172.675 33.6768 173.94 36.2293 176.122 37.2845L175.067 38.6768C173.531 37.9033 172.437 36.4116 171.835 34.616C171.211 36.5331 170.056 38.1298 168.443 38.942L167.371 37.5387C169.647 36.4669 170.94 33.7652 170.951 31.163V28.9033H172.686ZM187.912 30.5994C187.006 32.0635 185.149 33.1243 182.807 33.4558L182.133 32.0856C185.061 31.7376 187.006 30.1243 187.011 28.5221V27.9972H188.801V28.5221C188.796 30.1077 190.746 31.7376 193.652 32.0856L193.011 33.4558C190.68 33.1298 188.818 32.058 187.912 30.5994ZM181.47 35.7265V34.3508H194.337V35.7265H181.47ZM187.884 36.8039C190.928 36.7983 192.773 37.6989 192.779 39.3453C192.773 40.9696 190.928 41.8867 187.884 41.8923C184.807 41.8867 182.967 40.9696 182.967 39.3453C182.967 37.6989 184.807 36.7983 187.884 36.8039ZM187.884 40.5442C189.912 40.5552 191.033 40.1519 191.044 39.3453C191.033 38.5387 189.912 38.1298 187.884 38.1188C185.834 38.1298 184.724 38.5387 184.735 39.3453C184.724 40.1519 185.834 40.5552 187.884 40.5442ZM205.314 27.7818H207.055V37.9862H205.314V27.7818ZM199.359 35.7762C197.209 35.7818 195.546 34.3232 195.552 32.2348C195.546 30.1796 197.209 28.7099 199.359 28.7099C201.508 28.7099 203.16 30.1796 203.16 32.2348C203.16 34.3232 201.508 35.7818 199.359 35.7762ZM197.248 32.2348C197.242 33.4889 198.149 34.2624 199.359 34.2624C200.535 34.2624 201.452 33.4889 201.452 32.2348C201.452 31.0138 200.535 30.2238 199.359 30.2238C198.149 30.2238 197.242 31.0138 197.248 32.2348ZM199.463 36.9475V40.2072H207.452V41.616H197.712V36.9475H199.463Z" fill="#565EA1"/>
<circle cx="134" cy="18" r="13" fill="#565EA1"/>
<path d="M129.533 23.1975C127.23 23.193 125.834 21.4334 125.843 18.4123C125.848 15.4002 127.239 13.6809 129.533 13.6809C131.827 13.6809 133.228 15.4092 133.223 18.4123C133.223 21.4423 131.831 23.1975 129.533 23.1975ZM129.533 21.6084C130.597 21.6084 131.279 20.5401 131.279 18.4123C131.275 16.3115 130.593 15.2521 129.533 15.2521C128.474 15.2521 127.791 16.3115 127.787 18.4123C127.782 20.5401 128.469 21.6084 129.533 21.6084ZM141.127 23H134.542L134.537 21.6219L137.841 18.5829C138.694 17.7614 139.157 17.2541 139.161 16.518C139.157 15.7055 138.537 15.2027 137.702 15.2027C136.836 15.2027 136.266 15.7459 136.27 16.6302H134.457C134.452 14.8301 135.785 13.6809 137.716 13.6809C139.691 13.6809 140.997 14.8032 141.002 16.3968C140.997 17.4427 140.49 18.3046 138.595 20.0193L137.195 21.3705V21.4334H141.127V23Z" fill="white"/>
<rect x="247.5" y="10.5" width="109" height="49" rx="24.5" fill="white" fill-opacity="0.6"/>
<rect x="247.5" y="10.5" width="109" height="49" rx="24.5" stroke="#565EA1" stroke-dasharray="2 2"/>
<path d="M281.361 33.2086V20.8619H282.821V33.2086H281.361ZM277.059 25.116H278.823V21.0746H280.25V32.6188H278.823V26.3681H277.059V25.116ZM276.02 21.9544V24.1008C276.02 26.0925 276.711 28.1713 278.388 29.2203L277.547 30.3902C276.431 29.7231 275.71 28.5677 275.299 27.2189C274.855 28.703 274.062 29.9599 272.902 30.6657L271.964 29.5394C273.752 28.4468 274.55 26.2714 274.55 24.1685V21.9544H276.02ZM293.867 25.9282H295.559V27.1561H284.261V25.9282H292.335C292.63 24.5939 292.654 23.5836 292.659 22.6796H285.659V21.4565H294.177V22.4185C294.177 23.3854 294.177 24.4731 293.867 25.9282ZM294.157 33.0635H285.62V28.5967H294.157V33.0635ZM292.649 29.7859H287.109V31.8356H292.649V29.7859ZM305.58 33.2086V20.8619H307.016V33.2086H305.58ZM301.582 24.1782H303.023V21.1616H304.468V32.6333H303.023V28.4952H301.094V27.2624H303.023V25.4157H301.316C300.731 27.4703 299.445 29.23 297.13 30.6077L296.231 29.5297C298.788 28.0117 299.972 26.0829 300.2 23.5981H296.893V22.3653H301.713C301.713 22.989 301.669 23.5932 301.582 24.1782ZM318.211 20.8619V24.5069H319.937V25.788H318.211V29.9358H316.684V20.8619H318.211ZM312.159 25.4641C311.617 26.7742 310.597 27.799 309.157 28.3066L308.311 27.1077C310.341 26.4454 311.356 24.7825 311.361 23.0276V21.6209H312.884V23.047C312.874 24.6664 313.899 26.2134 315.843 26.8515L315.045 28.0504C313.677 27.5815 312.705 26.6485 312.159 25.4641ZM310.298 29.0463H311.845V31.7438H318.705V32.9765H310.298V29.0463ZM329.412 24.855V20.8619H330.92V33.2376H329.412V26.0829H326.826V24.855H329.412ZM325.124 21.8529V23.8301C325.124 26.1215 326.221 28.3743 328.194 29.2445L327.27 30.4579C325.873 29.7714 324.892 28.4613 324.36 26.8467C323.823 28.5532 322.818 29.9696 321.397 30.6851L320.439 29.4523C322.451 28.5145 323.572 26.1312 323.582 23.8301V21.8529H325.124ZM295.953 40.8446C295.141 42.2417 293.478 43.2714 291.399 43.5808L290.795 42.3529C293.41 42.0145 295.15 40.4482 295.15 38.8867V38.2535H296.746V38.8867C296.746 40.4385 298.491 42.0145 301.121 42.3529L300.521 43.5808C298.423 43.2714 296.755 42.2417 295.953 40.8446ZM290.311 44.654H301.57V45.9061H296.664V50.2086H295.16V45.9061H290.311V44.654ZM311.238 50.2086V37.8715H312.747V50.2086H311.238ZM303.528 44.0691L302.894 42.8847C304.746 42.5173 305.727 41.4827 305.751 40.3419H303.199V39.1623H305.761V37.8909H307.279V39.1623H309.831V40.3419H307.279C307.303 41.4151 308.289 42.3674 310.107 42.7203L309.503 43.895C308.091 43.605 307.09 42.9378 306.544 42.058C306.003 43.0249 304.983 43.7548 303.528 44.0691ZM310.441 44.3591L310.547 45.4613C309.474 45.6402 308.372 45.7562 307.289 45.8287V49.8363H305.766V45.9109C304.635 45.9544 303.557 45.9593 302.609 45.9593L302.421 44.712C304.727 44.712 307.796 44.6975 310.441 44.3591Z" fill="#565EA1"/>
<circle cx="255" cy="18" r="13" fill="#565EA1"/>
<path d="M250.349 23.1975C248.046 23.193 246.65 21.4334 246.659 18.4123C246.664 15.4002 248.055 13.6809 250.349 13.6809C252.643 13.6809 254.043 15.4092 254.039 18.4123C254.039 21.4423 252.647 23.1975 250.349 23.1975ZM250.349 21.6084C251.413 21.6084 252.095 20.5401 252.095 18.4123C252.091 16.3115 251.408 15.2521 250.349 15.2521C249.29 15.2521 248.607 16.3115 248.603 18.4123C248.598 20.5401 249.285 21.6084 250.349 21.6084ZM258.769 23.1257C256.745 23.1257 255.3 22.0169 255.268 20.4144H257.194C257.225 21.0922 257.89 21.5456 258.774 21.5456C259.69 21.5456 260.345 21.0383 260.341 20.2977C260.345 19.548 259.681 19.0183 258.599 19.0183H257.746V17.6043H258.599C259.51 17.6043 260.143 17.1105 260.139 16.3833C260.143 15.683 259.6 15.2027 258.787 15.2027C257.975 15.2027 257.311 15.6561 257.284 16.3608H255.452C255.484 14.7807 256.911 13.6809 258.796 13.6809C260.709 13.6809 261.988 14.8166 261.979 16.2666C261.988 17.299 261.27 18.0307 260.233 18.2148V18.2866C261.589 18.4527 262.334 19.2742 262.325 20.4233C262.334 21.9945 260.839 23.1257 258.769 23.1257Z" fill="white"/>
<rect x="368.5" y="10.5" width="109" height="49" rx="24.5" fill="white" fill-opacity="0.6"/>
<rect x="368.5" y="10.5" width="109" height="49" rx="24.5" stroke="#565EA1" stroke-dasharray="2 2"/>
<path d="M403.405 32.9254V31.5221H405.907V27.7818H407.642V38.1022H405.907V32.9254H403.405ZM400.145 33.2017C399.521 34.6823 398.349 35.8757 396.675 36.4503L395.78 35.0414C398.029 34.3066 399.233 32.4613 399.233 30.5829V30.2017H396.289V28.7983H403.924V30.2017H401.001V30.5939C401.001 32.2901 402.139 34.047 404.322 34.7707L403.454 36.1464C401.874 35.616 400.758 34.5331 400.145 33.2017ZM400.112 37.1906V40.2072H407.996V41.616H398.377V37.1906H400.112ZM419.15 35.953V38.8591H422.553V40.2624H409.641V38.8591H412.979V35.953H410.741V34.5442H412.741V30.3674H410.697V28.9641H421.426V30.3674H419.354V34.5442H421.371V35.953H419.15ZM417.641 30.3674H414.47V34.5442H417.641V30.3674ZM417.404 35.953H414.719V38.8591H417.404V35.953ZM434.613 31.2956H436.586V32.7486H434.613V36.279H432.867V27.7707H434.613V31.2956ZM427.68 32.8481C427.055 34.2956 425.884 35.4392 424.232 36.0028L423.309 34.6602C425.586 33.9033 426.779 32.0691 426.79 30.2127V30.047H423.796V28.6492H431.464V30.047H428.536V30.2238C428.536 31.9586 429.652 33.6713 431.878 34.4006L430.994 35.7431C429.414 35.2182 428.298 34.163 427.68 32.8481ZM432.867 38.3232H425.199V36.9309H434.613V41.8812H432.867V38.3232ZM449.126 36.0691H447.392V31.9254H444.58V30.5H447.392V27.7707H449.126V36.0691ZM441.635 32.616C441.016 34.1575 439.839 35.3674 438.132 35.9641L437.204 34.5663C439.541 33.7983 440.712 31.9088 440.723 29.8646V28.5331H442.469V29.7873C442.458 31.721 443.585 33.4724 445.789 34.174L444.856 35.5331C443.32 34.9862 442.237 33.9586 441.635 32.616ZM444.347 36.4503C447.336 36.4503 449.165 37.4503 449.165 39.1685C449.165 40.8923 447.336 41.8757 444.347 41.8702C441.364 41.8757 439.535 40.8923 439.541 39.1685C439.535 37.4503 441.364 36.4503 444.347 36.4503ZM444.347 40.5055C446.32 40.511 447.436 40.0304 447.441 39.1685C447.436 38.279 446.32 37.8039 444.347 37.8039C442.381 37.8039 441.259 38.279 441.27 39.1685C441.259 40.0304 442.381 40.511 444.347 40.5055Z" fill="#565EA1"/>
<circle cx="376" cy="18" r="13" fill="#565EA1"/>
<path d="M370.728 23.1975C368.426 23.193 367.03 21.4334 367.039 18.4123C367.043 15.4002 368.435 13.6809 370.728 13.6809C373.022 13.6809 374.423 15.4092 374.418 18.4123C374.418 21.4423 373.027 23.1975 370.728 23.1975ZM370.728 21.6084C371.792 21.6084 372.475 20.5401 372.475 18.4123C372.47 16.3115 371.788 15.2521 370.728 15.2521C369.669 15.2521 368.987 16.3115 368.982 18.4123C368.978 20.5401 369.665 21.6084 370.728 21.6084ZM381.878 19.8398H383.036V21.3705H381.878V23H380.056V21.3705H375.589V19.8667L379.481 13.8066H381.878V19.8398ZM379.997 15.8985L377.515 19.768V19.8398H380.083V15.8985H379.997Z" fill="white"/>
<rect x="489.5" y="10.5" width="109" height="49" rx="24.5" fill="white" fill-opacity="0.6"/>
<rect x="489.5" y="10.5" width="109" height="49" rx="24.5" stroke="#565EA1" stroke-dasharray="2 2"/>
<path d="M524.405 32.9254V31.5221H526.907V27.7818H528.642V38.1022H526.907V32.9254H524.405ZM521.145 33.2017C520.521 34.6823 519.349 35.8757 517.675 36.4503L516.78 35.0414C519.029 34.3066 520.233 32.4613 520.233 30.5829V30.2017H517.289V28.7983H524.924V30.2017H522.001V30.5939C522.001 32.2901 523.139 34.047 525.322 34.7707L524.454 36.1464C522.874 35.616 521.758 34.5331 521.145 33.2017ZM521.112 37.1906V40.2072H528.996V41.616H519.377V37.1906H521.112ZM540.15 35.953V38.8591H543.553V40.2624H530.641V38.8591H533.979V35.953H531.741V34.5442H533.741V30.3674H531.697V28.9641H542.426V30.3674H540.354V34.5442H542.371V35.953H540.15ZM538.641 30.3674H535.47V34.5442H538.641V30.3674ZM538.404 35.953H535.719V38.8591H538.404V35.953ZM554.564 31.2293V27.7818H556.298V35.7265H554.564V32.6602H551.845V31.2293H554.564ZM551.779 28.6271C551.773 32.268 549.376 34.8149 545.265 35.9696L544.569 34.6105C547.729 33.7486 549.608 32.0856 549.917 30.0249H545.326V28.6271H551.779ZM556.298 41.6989H547.006V36.3011H556.298V41.6989ZM554.575 37.6713H548.707V40.3287H554.575V37.6713ZM565.607 36.2735V38.837H571.209V40.2403H558.298V38.837H563.861V36.2735H559.872V28.8094H569.651V30.2127H561.635V31.8204H569.331V33.1906H561.635V34.8812H569.778V36.2735H565.607Z" fill="#565EA1"/>
<circle cx="497" cy="18" r="13" fill="#565EA1"/>
<path d="M492.425 23.1975C490.122 23.193 488.726 21.4334 488.735 18.4123C488.74 15.4002 490.131 13.6809 492.425 13.6809C494.719 13.6809 496.12 15.4092 496.115 18.4123C496.115 21.4423 494.724 23.1975 492.425 23.1975ZM492.425 21.6084C493.489 21.6084 494.171 20.5401 494.171 18.4123C494.167 16.3115 493.485 15.2521 492.425 15.2521C491.366 15.2521 490.684 16.3115 490.679 18.4123C490.675 20.5401 491.361 21.6084 492.425 21.6084ZM500.819 23.1257C498.902 23.1257 497.497 21.9945 497.461 20.4144H499.315C499.36 21.1281 500.015 21.6219 500.819 21.6219C501.77 21.6219 502.448 20.9485 502.444 19.9879C502.448 19.0183 501.757 18.336 500.787 18.3315C500.1 18.3315 499.616 18.5874 499.351 19.0991H497.614L498.116 13.8066H503.772V15.3733H499.688L499.436 17.6941H499.508C499.849 17.2407 500.545 16.913 501.353 16.913C503.041 16.913 504.293 18.1744 504.289 19.9385C504.293 21.797 502.884 23.1257 500.819 23.1257Z" fill="white"/>
<rect x="610.5" y="10.5" width="109" height="49" rx="24.5" fill="white" fill-opacity="0.6"/>
<rect x="610.5" y="10.5" width="109" height="49" rx="24.5" stroke="#565EA1" stroke-dasharray="2 2"/>
<path d="M648.316 33.2901V27.7707H649.963V41.8812H648.316V34.6934H646.725V41.1796H645.128V28.0359H646.725V33.2901H648.316ZM639.99 30.837V37.1243C641.532 37.1133 642.791 37.0359 644.228 36.7597L644.366 38.1851C642.653 38.5276 641.172 38.5773 639.211 38.5884H638.25V29.4392H643.526V30.837H639.99ZM662.619 33.5608H664.553V34.9641H651.641V33.5608H660.868C661.205 32.0359 661.233 30.8812 661.238 29.8481H653.238V28.4503H662.973V29.5497C662.973 30.6547 662.973 31.8978 662.619 33.5608ZM662.951 41.7155H653.194V36.6105H662.951V41.7155ZM661.227 37.9696H654.896V40.3122H661.227V37.9696ZM675.47 41.8812V27.7707H677.221V41.8812H675.47ZM670.801 30.5884V31.7762C670.801 34.0967 672.16 36.5331 674.431 37.4834L673.486 38.8536C671.818 38.1298 670.591 36.6492 669.945 34.8536C669.298 36.7928 668.061 38.4227 666.403 39.2072L665.403 37.837C667.635 36.8149 669.022 34.1851 669.033 31.7762V30.5884H665.923V29.163H673.884V30.5884H670.801ZM690.276 33.3785H692.209V34.7707H679.298V33.3785H688.557C688.861 31.8867 688.889 30.7652 688.894 29.7707H680.894V28.3674H690.629V29.4669C690.629 30.5442 690.629 31.721 690.276 33.3785ZM682.596 37.4392H688.867V35.8149H690.585V41.7155H680.889V35.8149H682.596V37.4392ZM682.596 40.3066H688.867V38.7818H682.596V40.3066Z" fill="#565EA1"/>
<circle cx="618" cy="18" r="13" fill="#565EA1"/>
<path d="M613.324 23.1975C611.021 23.193 609.625 21.4334 609.634 18.4123C609.638 15.4002 611.03 13.6809 613.324 13.6809C615.618 13.6809 617.018 15.4092 617.014 18.4123C617.014 21.4423 615.622 23.1975 613.324 23.1975ZM613.324 21.6084C614.388 21.6084 615.07 20.5401 615.07 18.4123C615.065 16.3115 614.383 15.2521 613.324 15.2521C612.264 15.2521 611.582 16.3115 611.577 18.4123C611.573 20.5401 612.26 21.6084 613.324 21.6084ZM621.897 23.1257C619.993 23.1167 618.18 21.9855 618.184 18.6143C618.193 15.5169 619.67 13.6809 621.969 13.6809C623.818 13.6809 625.084 14.8481 625.272 16.3608H623.392C623.239 15.7189 622.709 15.3194 621.969 15.3194C620.721 15.3194 620.061 16.4416 620.056 18.2462H620.137C620.563 17.4337 621.47 16.9534 622.494 16.9534C624.146 16.9534 625.376 18.1968 625.371 19.9206C625.376 21.7925 623.966 23.1347 621.897 23.1257ZM621.888 21.6219C622.826 21.6219 623.522 20.9037 623.517 19.9744C623.522 19.0587 622.839 18.345 621.901 18.345C620.963 18.345 620.258 19.0811 620.249 19.9834C620.254 20.8812 620.941 21.6219 621.888 21.6219Z" fill="white"/>
<rect x="251" y="113" width="100" height="53" fill="white"/>
<path d="M256.005 120.594H254.806C254.699 119.617 253.8 119.057 252.611 119.057C251.306 119.057 250.445 119.743 250.445 120.681C250.445 121.725 251.606 122.112 252.35 122.305L253.346 122.576C254.4 122.847 256.14 123.456 256.14 125.302C256.14 126.917 254.845 128.174 252.553 128.174C250.416 128.174 249.092 127.072 248.976 125.428H250.242C250.339 126.54 251.374 127.062 252.553 127.062C253.916 127.062 254.941 126.356 254.941 125.283C254.941 124.316 254.023 123.949 252.978 123.659L251.77 123.32C250.213 122.876 249.246 122.083 249.246 120.739C249.246 119.066 250.735 117.964 252.65 117.964C254.574 117.964 255.956 119.086 256.005 120.594ZM259.133 128H257.905V118.099H259.133V122.992H259.259L263.667 118.099H265.272L261.134 122.566L265.272 128H263.774L260.371 123.417L259.133 124.809V128ZM269.172 119.192H266.059V118.099H273.513V119.192H270.41V128H269.172V119.192ZM283.938 129.112V116.959H284.972V129.112H283.938ZM279.93 121.696H281.501V117.22H282.536V128.493H281.501V122.586H279.935C279.829 124.954 278.818 126.434 277.315 126.424C275.739 126.434 274.714 124.79 274.714 122.199C274.714 119.617 275.739 117.983 277.315 117.983C278.794 117.983 279.795 119.405 279.93 121.696ZM277.315 125.409C278.311 125.419 278.939 124.171 278.939 122.199C278.939 120.227 278.311 118.989 277.315 118.989C276.339 118.989 275.71 120.227 275.72 122.199C275.71 124.171 276.339 125.419 277.315 125.409ZM295.67 121.106V116.959H296.734V129.131H295.67V121.986H292.789V121.106H295.67ZM290.933 118.012V120.227C290.933 122.421 292.344 124.635 294.114 125.448L293.466 126.318C292.083 125.607 290.942 124.152 290.401 122.426C289.864 124.244 288.723 125.8 287.336 126.54L286.649 125.68C288.428 124.8 289.84 122.46 289.85 120.227V118.012H290.933ZM311.274 118.747V116.959H312.347V124.113H311.274V122.373H308.132C307.566 123.059 306.672 123.47 305.618 123.465C303.8 123.475 302.456 122.276 302.466 120.555C302.456 118.854 303.8 117.645 305.618 117.655C306.672 117.65 307.566 118.061 308.127 118.747H311.274ZM305.618 122.557C306.817 122.557 307.725 121.735 307.725 120.555C307.725 119.405 306.817 118.564 305.618 118.564C304.38 118.564 303.491 119.405 303.491 120.555C303.491 121.735 304.38 122.557 305.618 122.557ZM308.615 121.483H311.274V119.637H308.615C308.707 119.922 308.76 120.231 308.76 120.555C308.76 120.884 308.707 121.198 308.615 121.483ZM311.274 125.651H304.167V124.79H312.347V129.112H311.274V125.651ZM323.876 116.959V119.598H325.703V120.488H323.876V123.243H322.803V116.959H323.876ZM319.487 117.471H320.55V122.76H314.894V117.471H315.948V119.221H319.487V117.471ZM315.948 121.89H319.487V120.062H315.948V121.89ZM323.876 126.753H317.205V128.097H324.321V128.977H316.151V125.941H322.813V124.674H316.122V123.814H323.876V126.753ZM335.773 121.164H334.139V124.22H333.133V117.2H334.139V120.275H335.773V116.959H336.788V124.655H335.773V121.164ZM330.068 118.419H332.64V119.279H326.404V118.419H329.005V117.046H330.068V118.419ZM332.147 122.006C332.137 123.262 331.074 124.075 329.527 124.075C327.999 124.075 326.926 123.262 326.936 122.006C326.926 120.739 327.999 119.927 329.527 119.927C331.074 119.927 332.137 120.739 332.147 122.006ZM327.893 122.006C327.893 122.76 328.56 123.272 329.527 123.272C330.503 123.272 331.171 122.76 331.171 122.006C331.171 121.242 330.503 120.729 329.527 120.729C328.56 120.729 327.893 121.242 327.893 122.006ZM332.775 124.858C335.328 124.858 336.856 125.622 336.856 126.985C336.856 128.319 335.328 129.083 332.775 129.083C330.213 129.083 328.686 128.319 328.695 126.985C328.686 125.622 330.213 124.858 332.775 124.858ZM332.775 128.242C334.661 128.251 335.782 127.778 335.792 126.985C335.782 126.153 334.661 125.689 332.775 125.699C330.88 125.689 329.749 126.153 329.759 126.985C329.749 127.778 330.88 128.251 332.775 128.242ZM342.758 118.457H345.842V119.337H338.6V118.457H341.694V116.968H342.758V118.457ZM348.075 116.968V120.971H349.903V121.88H348.075V126.076H347.002V116.968H348.075ZM345.146 122.276C345.136 123.64 343.957 124.519 342.226 124.519C340.466 124.519 339.287 123.64 339.296 122.276C339.287 120.894 340.466 120.004 342.226 120.004C343.957 120.004 345.136 120.894 345.146 122.276ZM340.321 122.276C340.312 123.127 341.075 123.678 342.226 123.669C343.357 123.678 344.121 123.127 344.131 122.276C344.121 121.406 343.357 120.845 342.226 120.845C341.075 120.845 340.312 121.406 340.321 122.276ZM340.466 125.341H341.53V127.952H348.636V128.841H340.466V125.341ZM274.573 146.112V133.959H275.607V146.112H274.573ZM270.019 138.319H272.078V134.22H273.093V145.493H272.078V139.228H270.019V138.319ZM268.801 135.099V137.41C268.801 139.344 269.748 141.432 271.363 142.39L270.744 143.221C269.569 142.515 268.733 141.215 268.303 139.74C267.858 141.35 266.959 142.742 265.745 143.482L265.059 142.68C266.741 141.693 267.766 139.537 267.766 137.459V135.099H268.801ZM286.634 139.083H288.422V139.972H277.294V139.083H285.556C285.899 137.555 285.899 136.458 285.899 135.506V135.496H278.705V134.606H286.962V135.506C286.962 136.453 286.962 137.565 286.634 139.083ZM287.011 145.948H278.667V141.645H287.011V145.948ZM285.947 142.496H279.721V145.068H285.947V142.496ZM298.772 146.112V133.959H299.797V146.112H298.772ZM294.46 137.343H296.306V134.287H297.341V145.493H296.306V141.278H294.054V140.388H296.306V138.232H294.252C293.657 140.291 292.328 142.109 290.032 143.482L289.384 142.709C292.023 141.142 293.348 138.948 293.561 136.405H289.925V135.506H294.624C294.624 136.129 294.571 136.743 294.46 137.343ZM310.997 133.949V137.681H312.825V138.599H310.997V142.941H309.924V133.949H310.997ZM305.09 138.145C304.573 139.59 303.475 140.702 302.044 141.249L301.445 140.398C303.301 139.74 304.519 138.097 304.529 136.211V134.703H305.583V136.25C305.573 137.923 306.84 139.47 308.628 140.088L308.077 140.949C306.704 140.451 305.631 139.426 305.09 138.145ZM303.407 142.07H304.5V144.952H311.558V145.841H303.407V142.07ZM322.604 138.106V133.959H323.667V146.131H322.604V138.986H319.723V138.106H322.604ZM317.866 135.012V137.227C317.866 139.421 319.278 141.635 321.047 142.448L320.399 143.318C319.017 142.607 317.876 141.152 317.334 139.426C316.798 141.244 315.657 142.8 314.269 143.54L313.583 142.68C315.362 141.8 316.774 139.46 316.783 137.227V135.012H317.866ZM327.123 136.105H334.297V135.099H327.085V134.326H335.37V136.84H328.187V137.903H335.583V138.686H327.123V136.105ZM325.673 140.446V139.605H336.801V140.446H325.673ZM335.409 144.004H328.109V145.164H335.806V145.948H327.036V143.26H334.346V142.225H327.017V141.423H335.409V144.004ZM259.445 162H253.373V152.099H259.377V153.192H254.601V156.499H259.058V157.581H254.601V160.907H259.445V162ZM261.084 157.224H265.425V158.307H261.084V157.224ZM269.877 160.975C270.09 160.975 270.399 160.956 270.573 160.946V162.039C270.389 162.068 270.099 162.097 269.751 162.097C268.765 162.097 267.721 161.478 267.721 160.173V155.561H266.599V154.575H267.721V152.796H268.9V154.575H270.467V155.561H268.9V159.863C268.9 160.82 269.374 160.975 269.877 160.975ZM274.799 154.478C275.766 154.478 277.593 154.768 277.593 157.108V162H276.423V160.994H276.365C276.124 161.488 275.447 162.174 274.161 162.174C272.749 162.174 271.628 161.343 271.628 159.892C271.628 158.191 273.126 157.804 274.412 157.707C274.896 157.673 276.095 157.606 276.423 157.596V156.992C276.423 156.054 275.863 155.503 274.741 155.503C273.803 155.503 273.243 155.938 273.068 156.508H271.85C271.995 155.309 273.155 154.478 274.799 154.478ZM274.354 161.13C275.689 161.13 276.423 160.24 276.423 159.312V158.563C276.075 158.582 274.91 158.669 274.557 158.693C273.484 158.761 272.807 159.138 272.807 159.95C272.807 160.733 273.455 161.13 274.354 161.13ZM279.004 154.575H280.358L282.117 157.591L283.877 154.575H285.231L282.842 158.287L285.231 162H283.887L282.117 159.128L280.358 162H279.004L281.353 158.287L279.004 154.575ZM295.58 163.112V150.959H296.614V163.112H295.58ZM291.572 155.696H293.143V151.22H294.178V162.493H293.143V156.586H291.577C291.47 158.954 290.46 160.434 288.957 160.424C287.381 160.434 286.356 158.79 286.356 156.199C286.356 153.617 287.381 151.983 288.957 151.983C290.436 151.983 291.437 153.405 291.572 155.696ZM288.957 159.409C289.952 159.419 290.581 158.171 290.581 156.199C290.581 154.227 289.952 152.989 288.957 152.989C287.98 152.989 287.352 154.227 287.361 156.199C287.352 158.171 287.98 159.419 288.957 159.409ZM307.312 155.106V150.959H308.375V163.131H307.312V155.986H304.431V155.106H307.312ZM302.574 152.012V154.227C302.574 156.421 303.986 158.635 305.755 159.448L305.107 160.318C303.725 159.607 302.584 158.152 302.042 156.426C301.506 158.244 300.365 159.8 298.978 160.54L298.291 159.68C300.07 158.8 301.482 156.46 301.491 154.227V152.012H302.574ZM319.464 153.608C318.69 155.111 316.819 156.151 314.929 156.47L314.484 155.59C316.679 155.28 318.903 153.83 318.903 152.09V151.394H320.015V152.09C320.015 153.801 322.248 155.28 324.443 155.59L324.008 156.47C322.113 156.151 320.242 155.102 319.464 153.608ZM313.914 157.804H324.994V158.703H319.957V163.112H318.903V158.703H313.914V157.804ZM334.986 163.122V150.968H336.04V163.122H334.986ZM327.029 156.924L326.565 156.073C328.315 155.677 329.523 154.546 329.523 153.25V153.202H326.816V152.351H329.523V150.988H330.596V152.351H333.304V153.202H330.596V153.25C330.596 154.478 331.805 155.522 333.536 155.909L333.091 156.76C331.689 156.416 330.611 155.677 330.079 154.691C329.562 155.759 328.465 156.566 327.029 156.924ZM334.087 157.417L334.164 158.2C333.004 158.394 331.8 158.51 330.625 158.582V162.754H329.552V158.635C328.324 158.684 327.154 158.693 326.13 158.693L325.985 157.785C328.315 157.785 331.399 157.765 334.087 157.417ZM342.3 152.254H345.384V153.134H338.142V152.254H341.236V150.862H342.3V152.254ZM347.617 154.188H349.445V155.116H347.617V158.278H346.544V150.959H347.617V154.188ZM344.688 155.909C344.678 157.224 343.508 158.075 341.768 158.075C339.999 158.075 338.829 157.224 338.838 155.909C338.829 154.604 339.999 153.743 341.768 153.743C343.508 153.743 344.678 154.604 344.688 155.909ZM339.863 155.909C339.854 156.731 340.617 157.243 341.768 157.253C342.899 157.243 343.663 156.731 343.673 155.909C343.663 155.106 342.899 154.575 341.768 154.575C340.617 154.575 339.854 155.106 339.863 155.909ZM347.617 162.948H339.941V158.974H347.617V162.948ZM346.554 159.834H340.994V162.068H346.554V159.834Z" fill="#EF647D"/>
</svg>
