<svg width="720" height="180" viewBox="0 0 720 180" fill="none" xmlns="http://www.w3.org/2000/svg">
<path d="M630 120L634.33 112.5H625.67L630 120ZM630 60H629.25V113.25H630H630.75V60H630Z" fill="#8767CC"/>
<path d="M340 120L344.33 112.5H335.67L340 120ZM340 60H339.25V61H340H340.75V60H340ZM340 63H339.25V65H340H340.75V63H340ZM340 67H339.25V69H340H340.75V67H340ZM340 71H339.25V73H340H340.75V71H340ZM340 75H339.25V77H340H340.75V75H340ZM340 79H339.25V81H340H340.75V79H340ZM340 83H339.25V85H340H340.75V83H340ZM340 87H339.25V89H340H340.75V87H340ZM340 91H339.25V93H340H340.75V91H340ZM340 95H339.25V97H340H340.75V95H340ZM340 99H339.25V101H340H340.75V99H340ZM340 103H339.25V105H340H340.75V103H340ZM340 107H339.25V109H340H340.75V107H340ZM340 111H339.25V113H340H340.75V111H340ZM340 115H339.25V117H340H340.75V115H340Z" fill="#EF647D"/>
<path d="M250 30L242.5 25.6699V34.3301L250 30ZM180 30V30.75H243.25V30V29.25H180V30Z" fill="#EF647D"/>
<path d="M540 30L532.5 25.6699L532.5 34.3301L540 30ZM430 30L430 30.75L430.982 30.75L430.982 30L430.982 29.25L430 29.25L430 30ZM432.946 30L432.946 30.75L434.911 30.75L434.911 30L434.911 29.25L432.946 29.25L432.946 30ZM436.875 30L436.875 30.75L438.839 30.75L438.839 30L438.839 29.25L436.875 29.25L436.875 30ZM440.804 30L440.804 30.75L442.768 30.75L442.768 30L442.768 29.25L440.804 29.25L440.804 30ZM444.732 30L444.732 30.75L446.696 30.75L446.696 30L446.696 29.25L444.732 29.25L444.732 30ZM448.661 30L448.661 30.75L450.625 30.75L450.625 30L450.625 29.25L448.661 29.25L448.661 30ZM452.589 30L452.589 30.75L454.554 30.75L454.554 30L454.554 29.25L452.589 29.25L452.589 30ZM456.518 30L456.518 30.75L458.482 30.75L458.482 30L458.482 29.25L456.518 29.25L456.518 30ZM460.446 30L460.446 30.75L462.411 30.75L462.411 30L462.411 29.25L460.446 29.25L460.446 30ZM464.375 30L464.375 30.75L466.339 30.75L466.339 30L466.339 29.25L464.375 29.25L464.375 30ZM468.304 30L468.304 30.75L470.268 30.75L470.268 30L470.268 29.25L468.304 29.25L468.304 30ZM472.232 30L472.232 30.75L474.196 30.75L474.196 30L474.196 29.25L472.232 29.25L472.232 30ZM476.161 30L476.161 30.75L478.125 30.75L478.125 30L478.125 29.25L476.161 29.25L476.161 30ZM480.089 30L480.089 30.75L482.054 30.75L482.054 30L482.054 29.25L480.089 29.25L480.089 30ZM484.018 30L484.018 30.75L485.982 30.75L485.982 30L485.982 29.25L484.018 29.25L484.018 30ZM487.946 30L487.946 30.75L489.911 30.75L489.911 30L489.911 29.25L487.946 29.25L487.946 30ZM491.875 30L491.875 30.75L493.839 30.75L493.839 30L493.839 29.25L491.875 29.25L491.875 30ZM495.804 30L495.804 30.75L497.768 30.75L497.768 30L497.768 29.25L495.804 29.25L495.804 30ZM499.732 30L499.732 30.75L501.696 30.75L501.696 30L501.696 29.25L499.732 29.25L499.732 30ZM503.661 30L503.661 30.75L505.625 30.75L505.625 30L505.625 29.25L503.661 29.25L503.661 30ZM507.589 30L507.589 30.75L509.554 30.75L509.554 30L509.554 29.25L507.589 29.25L507.589 30ZM511.518 30L511.518 30.75L513.482 30.75L513.482 30L513.482 29.25L511.518 29.25L511.518 30ZM515.446 30L515.446 30.75L517.411 30.75L517.411 30L517.411 29.25L515.446 29.25L515.446 30ZM519.375 30L519.375 30.75L521.339 30.75L521.339 30L521.339 29.25L519.375 29.25L519.375 30ZM523.304 30L523.304 30.75L525.268 30.75L525.268 30L525.268 29.25L523.304 29.25L523.304 30ZM527.232 30L527.232 30.75L529.196 30.75L529.196 30L529.196 29.25L527.232 29.25L527.232 30ZM531.161 30L531.161 30.75L533.125 30.75L533.125 30L533.125 29.25L531.161 29.25L531.161 30ZM535.089 30L535.089 30.75L537.054 30.75L537.054 30L537.054 29.25L535.089 29.25L535.089 30Z" fill="#565EA1"/>
<rect opacity="0.1" x="250" y="120" width="180" height="60" rx="30" fill="#808699"/>
<rect x="540" y="120" width="180" height="60" rx="30" fill="#EBE8FB"/>
<rect x="465" y="19" width="40" height="22" rx="11" fill="#565EA1"/>
<path d="M474.368 25.8086H476.234L478.494 29.8711H478.583L480.842 25.8086H482.708L479.37 31.5596V35H477.719V31.5596L474.368 25.8086ZM485.489 35.1396C483.413 35.1396 482.137 33.7559 482.137 31.5977C482.137 29.4648 483.432 28.0176 485.4 28.0176C487.088 28.0176 488.548 29.0776 488.548 31.4961V32.0039H483.737C483.762 33.1782 484.454 33.8765 485.501 33.8701C486.212 33.8765 486.688 33.5718 486.898 33.1592H488.485C488.193 34.3525 487.088 35.1396 485.489 35.1396ZM483.743 30.8994H487C486.993 29.96 486.358 29.2744 485.425 29.2744C484.454 29.2744 483.8 30.0234 483.743 30.8994ZM493.715 30.0742C493.614 29.5537 493.182 29.2173 492.497 29.2236C491.805 29.2173 491.297 29.5664 491.303 30.0361C491.297 30.3916 491.583 30.6582 492.281 30.8232L493.449 31.0645C494.75 31.3501 495.385 31.9531 495.391 32.9434C495.385 34.2383 494.249 35.1396 492.446 35.1396C490.694 35.1396 489.659 34.3525 489.488 33.0322H491.138C491.233 33.6226 491.69 33.9146 492.446 33.9082C493.227 33.9146 493.734 33.5972 493.741 33.083C493.734 32.6831 493.423 32.4292 492.738 32.2832L491.633 32.042C490.351 31.7817 489.685 31.1089 489.691 30.125C489.685 28.8491 490.789 28.0176 492.471 28.0176C494.115 28.0176 495.131 28.8237 495.251 30.0742H493.715Z" fill="white"/>
<rect x="320" y="75" width="40" height="22" rx="11" fill="#EF647D"/>
<path d="M340.494 81.8086V91H339.021L334.667 84.7158H334.59V91H332.94V81.8086H334.438L338.767 88.0928H338.856V81.8086H340.494ZM345.127 91.1396C343.115 91.1396 341.827 89.7114 341.827 87.585C341.827 85.4395 343.115 84.0176 345.127 84.0176C347.146 84.0176 348.435 85.4395 348.428 87.585C348.435 89.7114 347.146 91.1396 345.127 91.1396ZM343.464 87.5723C343.464 88.8354 344.017 89.8447 345.14 89.8447C346.245 89.8447 346.797 88.8354 346.791 87.5723C346.797 86.3091 346.245 85.2935 345.14 85.2998C344.017 85.2935 343.464 86.3091 343.464 87.5723Z" fill="white"/>
<rect width="180" height="60" rx="30" fill="white"/>
<rect x="0.5" y="0.5" width="179" height="59" rx="29.5" stroke="#EF647D" stroke-opacity="0.5"/>
<circle opacity="0.1" cx="30" cy="30" r="23" fill="#EF647D"/>
<path opacity="0.5" d="M22.5 37.1543L19.8125 39.8418C19.6042 40.0501 19.375 40.1022 19.125 39.998C18.875 39.8939 18.75 39.696 18.75 39.4043V22.1543C18.75 21.4668 18.995 20.878 19.485 20.388C19.975 19.898 20.5633 19.6535 21.25 19.6543H36.25C36.9375 19.6543 37.5263 19.8993 38.0163 20.3893C38.5063 20.8793 38.7508 21.4676 38.75 22.1543V28.498C38.5417 28.4564 38.3333 28.4301 38.125 28.4193C37.9167 28.4085 37.7083 28.4035 37.5 28.4043C35.3958 28.4043 33.6196 29.1335 32.1713 30.5918C30.7229 32.0501 29.9992 33.821 30 35.9043C30 36.1126 30.0054 36.321 30.0163 36.5293C30.0271 36.7376 30.0529 36.946 30.0938 37.1543H22.5Z" fill="#EF647D"/>
<path d="M23.8086 25.3848H31.8855" stroke="white" stroke-width="2.5" stroke-linecap="round"/>
<path d="M23.8086 30.5762H27.2701" stroke="white" stroke-width="2.5" stroke-linecap="round"/>
<path d="M33.7515 37.1543H36.2515V39.6543C36.2506 40.0076 36.3702 40.3043 36.6102 40.5443C36.8502 40.7843 37.1473 40.9043 37.5015 40.9043C37.8548 40.9051 38.1515 40.7856 38.3915 40.5456C38.6315 40.3056 38.7515 40.0085 38.7515 39.6543V37.1543H41.2515C41.6048 37.1551 41.9015 37.0356 42.1415 36.7956C42.3815 36.5556 42.5015 36.2585 42.5015 35.9043C42.5023 35.551 42.3827 35.2543 42.1427 35.0143C41.9027 34.7743 41.6056 34.6543 41.2515 34.6543H38.7515V32.1543C38.7523 31.801 38.6327 31.5043 38.3927 31.2643C38.1527 31.0243 37.8556 30.9043 37.5015 30.9043C37.1481 30.9035 36.8515 31.0231 36.6115 31.2631C36.3715 31.5031 36.2515 31.8001 36.2515 32.1543V34.6543H33.7515C33.3981 34.6535 33.1015 34.7731 32.8615 35.0131C32.6215 35.2531 32.5015 35.5501 32.5015 35.9043C32.5006 36.2576 32.6202 36.5543 32.8602 36.7943C33.1002 37.0343 33.3973 37.1543 33.7515 37.1543Z" fill="#EF647D"/>
<rect opacity="0.5" x="540.5" y="0.5" width="179" height="59" rx="29.5" fill="white" stroke="#8767CC"/>
<circle opacity="0.1" cx="570" cy="30" r="23" fill="#5E45D8"/>
<path opacity="0.3" d="M564.449 20.4766H563.062C562.327 20.4766 561.621 20.7687 561.101 21.2888C560.581 21.8089 560.289 22.5142 560.289 23.2497V38.8305C560.289 39.566 560.581 40.2713 561.101 40.7914C561.621 41.3114 562.327 41.6036 563.062 41.6036H576.928C577.663 41.6036 578.369 41.3114 578.889 40.7914C579.409 40.2713 579.701 39.566 579.701 38.8305V23.2497C579.701 22.5142 579.409 21.8089 578.889 21.2888C578.369 20.7687 577.663 20.4766 576.928 20.4766H575.541V21.8631C575.541 22.3184 575.452 22.7691 575.278 23.1897C575.103 23.6103 574.848 23.9924 574.526 24.3143C574.204 24.6362 573.822 24.8915 573.402 25.0657C572.981 25.2399 572.53 25.3296 572.075 25.3296H567.915C566.996 25.3296 566.114 24.9644 565.464 24.3143C564.814 23.6642 564.449 22.7825 564.449 21.8631V20.4766Z" fill="#3617CE"/>
<path d="M566.741 31.7835L569.227 34.2697L573.817 29.6797" stroke="white" stroke-width="2" stroke-linecap="round" stroke-linejoin="round"/>
<rect x="565.79" y="18.3965" width="8.41509" height="5.73756" rx="2.86878" fill="#5E45D8"/>
<rect x="250.5" y="0.5" width="179" height="59" rx="29.5" fill="white" stroke="#565EA1" stroke-dasharray="2 2"/>
<circle opacity="0.1" cx="280" cy="30" r="23" fill="#565EA1"/>
<path opacity="0.5" d="M283.668 18.2715C285.877 18.2716 287.668 20.0624 287.668 22.2715V29.9307C286.922 30.0899 286.227 30.4516 285.666 30.9854L285.651 30.999L280.712 35.9512C280.066 36.5932 279.656 37.4347 279.547 38.3389L279.263 40.5518L279.262 40.5537C279.241 40.7121 279.238 40.8719 279.249 41.0303H272.867C270.658 41.0303 268.867 39.2393 268.867 37.0303V22.2715C268.867 20.0623 270.658 18.2715 272.867 18.2715H283.668ZM287.668 35.0303C287.668 38.3438 284.982 41.0302 281.668 41.0303H280.76C280.741 40.937 280.738 40.8408 280.75 40.7461L281.035 38.5234C281.103 37.9508 281.362 37.4181 281.771 37.0127L286.7 32.0723C286.979 31.8067 287.31 31.6098 287.668 31.4863V35.0303Z" fill="#565EA1"/>
<path d="M281.616 41.7277C281.492 41.7287 281.37 41.7031 281.256 41.6526C281.143 41.6021 281.042 41.5278 280.96 41.4348C280.878 41.3418 280.817 41.2323 280.781 41.1135C280.744 40.9948 280.734 40.8696 280.75 40.7465L281.036 38.5237C281.103 37.951 281.363 37.4182 281.772 37.0128L286.7 32.0722C287.196 31.6007 287.853 31.3379 288.536 31.3379C289.22 31.3379 289.877 31.6007 290.373 32.0722C290.859 32.5606 291.132 33.2227 291.132 33.913C291.132 34.6033 290.859 35.2654 290.373 35.7538L285.444 40.6944C285.04 41.1045 284.509 41.3648 283.937 41.4324L281.729 41.7277H281.616Z" fill="#565EA1"/>
<circle cx="273.113" cy="25.0526" r="1.11319" fill="white"/>
<circle cx="273.113" cy="30.246" r="1.11319" fill="white"/>
<path d="M276.785 25.0527H282.722" stroke="white" stroke-width="2" stroke-linecap="round"/>
<path d="M276.785 30.2461H279.259" stroke="white" stroke-width="2" stroke-linecap="round"/>
</svg>
