<svg width="170" height="34" viewBox="0 0 170 34" fill="none" xmlns="http://www.w3.org/2000/svg">
<path d="M11.5839 26.0736C5.17123 26.0736 0.169922 21.2871 0.169922 14.8437C0.169922 8.4003 5.17123 3.61377 11.5839 3.61377C17.9967 3.61377 22.998 8.4003 22.998 14.8437C22.998 21.2871 17.9967 26.0736 11.5839 26.0736ZM11.5839 21.9621C15.4807 21.9621 18.5183 18.9552 18.5183 14.8437C18.5183 10.7322 15.4807 7.72527 11.5839 7.72527C7.68722 7.72527 4.64962 10.7322 4.64962 14.8437C4.64962 18.9552 7.68722 21.9621 11.5839 21.9621Z" fill="#3617CE"/>
<path d="M34.657 8.52303C39.3821 8.52303 43.0641 12.2663 43.0641 17.2063C43.0641 22.1155 39.3821 25.8895 34.657 25.8895C32.5705 25.8895 30.8216 25.1225 29.5636 23.7417V31.5965L25.4521 32.8239V8.98327H28.5818L29.717 10.4867C30.975 9.22873 32.6626 8.52303 34.657 8.52303ZM34.2274 22.1155C36.9275 22.1155 38.8912 20.0598 38.8912 17.2063C38.8912 14.3528 36.9275 12.297 34.2274 12.297C31.5273 12.297 29.5636 14.3835 29.5636 17.2063C29.5636 20.0291 31.5273 22.1155 34.2274 22.1155Z" fill="#3617CE"/>
<path d="M61.1603 17.3597V18.7097H48.7644C49.286 20.9496 51.0656 22.2996 53.6123 22.2996C55.6373 22.2996 57.417 21.5939 58.4909 20.52L60.6693 23.0667C58.9511 24.8156 56.2203 25.8895 53.5202 25.8895C48.1507 25.8895 44.4074 22.2996 44.4074 17.2063C44.4074 12.2357 48.028 8.52303 52.9066 8.52303C57.9386 8.52303 61.1603 11.9902 61.1603 17.3597ZM52.9066 12.1129C50.7588 12.1129 49.3167 13.2482 48.7951 15.2733H56.7726C56.2817 13.2482 54.9316 12.1129 52.9066 12.1129Z" fill="#3617CE"/>
<path d="M72.5786 8.52303C76.8435 8.52303 79.3595 11.0083 79.3595 15.1812V25.5827H75.248V16.071C75.248 13.7698 73.6832 12.297 71.4127 12.297C69.1728 12.297 67.4546 13.8312 67.4546 16.071V25.5827H63.3431V8.98327H66.4727L67.5466 10.4254C68.8353 9.19805 70.5842 8.52303 72.5786 8.52303Z" fill="#3617CE"/>
<path d="M110.55 26.0429C104.904 26.0429 101.069 22.4224 101.069 16.4085V4.10469H105.548V16.6847C105.548 19.9677 107.757 21.8701 110.55 21.8701C113.311 21.8701 115.52 19.9677 115.52 16.6847V4.10469H120V16.4085C120 22.4224 116.165 26.0429 110.55 26.0429Z" fill="#3617CE"/>
<path d="M93.3007 17.4517L88.9745 21.686H97.3816V25.552L82.4697 25.5827V22.6678L90.0484 14.9971C92.1041 12.9414 92.6257 11.8675 92.6257 10.3333C92.6257 8.82986 91.4291 7.51049 89.404 7.51049C87.6551 7.51049 86.5505 8.52303 85.2925 10.3333L81.9788 8.0321C83.9731 5.14791 86.5505 3.61377 89.7108 3.61377C94.0985 3.61377 97.1054 6.37523 97.1054 9.81171C97.1054 12.4504 96.6145 14.1994 93.3007 17.4517Z" fill="#FF404E"/>
<rect x="125" y="4" width="45" height="22" rx="11" fill="#3617CE"/>
<path d="M144.088 21.2907V8.8087H145.824V21.2907H144.088ZM140.265 15.5622V17.2396C141.318 17.1816 142.377 17.0898 143.383 16.9496L143.513 18.2065C140.758 18.7334 137.804 18.7576 135.624 18.7576L135.425 17.3508C136.344 17.3508 137.403 17.346 138.524 17.3122V15.5622C137.011 15.2479 135.938 14.1215 135.943 12.6036C135.938 10.8198 137.436 9.55801 139.394 9.55318C141.376 9.55801 142.841 10.8198 142.851 12.6036C142.841 14.1215 141.792 15.2528 140.265 15.5622ZM137.673 12.6036C137.673 13.5704 138.413 14.1651 139.394 14.1602C140.395 14.1651 141.144 13.5704 141.149 12.6036C141.144 11.6126 140.39 11.0518 139.394 11.0518C138.413 11.0518 137.673 11.6126 137.673 12.6036ZM157.285 13.5656H159.122V15.0207H157.285V21.2617H155.54V8.8087H157.285V13.5656ZM152.064 11.4385V12.2023C152.055 14.1022 153.065 16.2921 155.11 17.2348L154.138 18.6029C152.751 17.9648 151.765 16.6982 151.214 15.2044C150.653 16.8529 149.628 18.2452 148.197 18.922L147.182 17.5442C149.256 16.5773 150.3 14.2617 150.31 12.2023V11.4385H147.675V10.0124H154.569V11.4385H152.064Z" fill="white"/>
</svg>
