<svg width="193" height="31" viewBox="0 0 193 31" fill="none" xmlns="http://www.w3.org/2000/svg">
<path d="M9.67892 24.762C4.3365 24.762 0.169922 20.7744 0.169922 15.4064C0.169922 10.0384 4.3365 6.05078 9.67892 6.05078C15.0213 6.05078 19.1879 10.0384 19.1879 15.4064C19.1879 20.7744 15.0213 24.762 9.67892 24.762ZM9.67892 21.3367C12.9253 21.3367 15.4559 18.8317 15.4559 15.4064C15.4559 11.9811 12.9253 9.47606 9.67892 9.47606C6.43257 9.47606 3.90195 11.9811 3.90195 15.4064C3.90195 18.8317 6.43257 21.3367 9.67892 21.3367Z" fill="#3617CE"/>
<path d="M28.901 10.1407C32.8375 10.1407 35.9049 13.2592 35.9049 17.3747C35.9049 21.4646 32.8375 24.6087 28.901 24.6087C27.1628 24.6087 25.7058 23.9696 24.6577 22.8193V29.3632L21.2325 30.3856V10.5241H23.8398L24.7856 11.7766C25.8336 10.7286 27.2395 10.1407 28.901 10.1407ZM28.5431 21.4646C30.7926 21.4646 32.4285 19.7519 32.4285 17.3747C32.4285 14.9974 30.7926 13.2848 28.5431 13.2848C26.2937 13.2848 24.6577 15.023 24.6577 17.3747C24.6577 19.7264 26.2937 21.4646 28.5431 21.4646Z" fill="#3617CE"/>
<path d="M50.9808 17.5025V18.6272H40.6538C41.0884 20.4932 42.571 21.6179 44.6926 21.6179C46.3797 21.6179 47.8623 21.03 48.7569 20.1353L50.5718 22.257C49.1404 23.714 46.8654 24.6087 44.6159 24.6087C40.1426 24.6087 37.0241 21.6179 37.0241 17.3747C37.0241 13.2337 40.0404 10.1407 44.1047 10.1407C48.2968 10.1407 50.9808 13.0292 50.9808 17.5025ZM44.1047 13.1314C42.3154 13.1314 41.114 14.0772 40.6794 15.7643H47.3255C46.9165 14.0772 45.7918 13.1314 44.1047 13.1314Z" fill="#3617CE"/>
<path d="M60.4934 10.1407C64.0465 10.1407 66.1426 12.2112 66.1426 15.6876V24.353H62.7173V16.4289C62.7173 14.5117 61.4136 13.2848 59.5221 13.2848C57.656 13.2848 56.2246 14.5629 56.2246 16.4289V24.353H52.7993V10.5241H55.4066L56.3013 11.7255C57.3749 10.703 58.8319 10.1407 60.4934 10.1407Z" fill="#3617CE"/>
<path d="M92.127 24.7365C87.4236 24.7365 84.2284 21.7202 84.2284 16.7101V6.45977H87.9604V16.9401C87.9604 19.6752 89.8008 21.2601 92.127 21.2601C94.4275 21.2601 96.268 19.6752 96.268 16.9401V6.45977H100V16.7101C100 21.7202 96.8048 24.7365 92.127 24.7365Z" fill="#3617CE"/>
<path d="M77.7565 17.5792L74.1523 21.1067H81.1563V24.3275L68.7332 24.353V21.9247L75.047 15.5342C76.7596 13.8216 77.1942 12.9269 77.1942 11.6488C77.1942 10.3963 76.1973 9.29713 74.5102 9.29713C73.0532 9.29713 72.1329 10.1407 71.0849 11.6488L68.3242 9.73168C69.9857 7.32887 72.1329 6.05078 74.7658 6.05078C78.4211 6.05078 80.9262 8.35134 80.9262 11.2143C80.9262 13.4126 80.5172 14.8696 77.7565 17.5792Z" fill="#FF404E"/>
<path d="M119.55 23.8025V6.01243H121.932V23.8025H119.55ZM113.583 12.0207H115.883V6.28867H118.217V22.9807H115.883V14.0511H113.583V12.0207ZM112.222 7.54558V10.4945C112.222 13.3743 113.023 16.3439 115.461 17.9047L114.101 19.8246C112.568 18.8992 111.594 17.3729 111.028 15.5566C110.399 17.5663 109.329 19.2514 107.72 20.232L106.2 18.3812C108.831 16.7514 109.805 13.6229 109.805 10.6119V7.54558H112.222ZM137.726 13.2086H140.074V15.2182H123.817V13.2086H135.212C135.599 11.4406 135.654 10.0663 135.668 8.8232H125.806V6.83425H138.154V8.25C138.154 9.63121 138.154 11.1713 137.726 13.2086ZM138.085 23.6022H125.737V17.1036H138.085V23.6022ZM135.606 19.0511H128.182V21.6064H135.606V19.0511ZM154.155 23.8025V6.01243H156.503V23.8025H154.155ZM148.657 10.7086H150.439V6.41989H152.794V23.0083H150.439V17.1519H147.918V15.1354H150.439V12.732H148.243C147.414 15.6602 145.605 18.1326 142.29 20.0939L140.833 18.3467C144.424 16.2127 146.012 13.6229 146.358 10.1354H141.862V8.1326H148.823C148.823 9.02348 148.768 9.87983 148.657 10.7086ZM172.489 6.02624V11.1713H174.879V13.2638H172.489V19.0511H169.989V6.02624H172.489ZM163.739 12.8909C162.945 14.6727 161.53 16.0677 159.478 16.7652L158.09 14.797C161.122 13.8508 162.427 11.4682 162.434 9.0511V7.1105H164.941V9.07182C164.934 11.3439 166.219 13.5539 169.105 14.4724L167.793 16.4337C165.853 15.7845 164.513 14.5069 163.739 12.8909ZM160.949 17.7666H163.491V21.482H173.139V23.4917H160.949V17.7666ZM188.2 11.6133V6.01243H190.665V23.8439H188.2V13.6229H184.719V11.6133H188.2ZM182.399 7.38674V10.0456C182.392 13.3881 183.739 16.6409 186.694 17.9185L185.189 19.9006C183.207 18.9475 181.881 17.1796 181.142 14.9834C180.375 17.3108 179.008 19.2238 176.978 20.2251L175.417 18.2017C178.456 16.8204 179.851 13.3881 179.864 10.0456V7.38674H182.399Z" fill="#201267"/>
</svg>
