<svg width="170" height="34" viewBox="0 0 170 34" fill="none" xmlns="http://www.w3.org/2000/svg">
<path d="M11.5839 26.0731C5.17123 26.0731 0.169922 21.2866 0.169922 14.8432C0.169922 8.39981 5.17123 3.61328 11.5839 3.61328C17.9967 3.61328 22.998 8.39981 22.998 14.8432C22.998 21.2866 17.9967 26.0731 11.5839 26.0731ZM11.5839 21.9616C15.4807 21.9616 18.5183 18.9547 18.5183 14.8432C18.5183 10.7317 15.4807 7.72479 11.5839 7.72479C7.68722 7.72479 4.64962 10.7317 4.64962 14.8432C4.64962 18.9547 7.68722 21.9616 11.5839 21.9616Z" fill="#3617CE"/>
<path d="M34.657 8.52254C39.3821 8.52254 43.0641 12.2659 43.0641 17.2058C43.0641 22.1151 39.3821 25.889 34.657 25.889C32.5705 25.889 30.8216 25.122 29.5636 23.7412V31.5961L25.4521 32.8234V8.98278H28.5818L29.717 10.4862C30.975 9.22824 32.6626 8.52254 34.657 8.52254ZM34.2274 22.1151C36.9275 22.1151 38.8912 20.0593 38.8912 17.2058C38.8912 14.3523 36.9275 12.2965 34.2274 12.2965C31.5273 12.2965 29.5636 14.383 29.5636 17.2058C29.5636 20.0286 31.5273 22.1151 34.2274 22.1151Z" fill="#3617CE"/>
<path d="M61.1603 17.3592V18.7093H48.7644C49.286 20.9491 51.0656 22.2991 53.6123 22.2991C55.6373 22.2991 57.417 21.5934 58.4909 20.5195L60.6693 23.0662C58.9511 24.8151 56.2203 25.889 53.5202 25.889C48.1507 25.889 44.4074 22.2991 44.4074 17.2058C44.4074 12.2352 48.028 8.52254 52.9066 8.52254C57.9386 8.52254 61.1603 11.9897 61.1603 17.3592ZM52.9066 12.1124C50.7588 12.1124 49.3167 13.2477 48.7951 15.2728H56.7726C56.2817 13.2477 54.9316 12.1124 52.9066 12.1124Z" fill="#3617CE"/>
<path d="M72.5786 8.52254C76.8435 8.52254 79.3595 11.0079 79.3595 15.1807V25.5822H75.248V16.0705C75.248 13.7693 73.6832 12.2965 71.4127 12.2965C69.1728 12.2965 67.4546 13.8307 67.4546 16.0705V25.5822H63.3431V8.98278H66.4727L67.5466 10.4249C68.8353 9.19756 70.5842 8.52254 72.5786 8.52254Z" fill="#3617CE"/>
<path d="M110.55 26.0425C104.904 26.0425 101.069 22.4219 101.069 16.408V4.10421H105.548V16.6842C105.548 19.9672 107.757 21.8696 110.55 21.8696C113.311 21.8696 115.52 19.9672 115.52 16.6842V4.10421H120V16.408C120 22.4219 116.165 26.0425 110.55 26.0425Z" fill="#3617CE"/>
<path d="M93.3007 17.4513L88.9745 21.6855H97.3816V25.5515L82.4697 25.5822V22.6673L90.0484 14.9966C92.1041 12.9409 92.6257 11.867 92.6257 10.3328C92.6257 8.82937 91.4291 7.51 89.404 7.51C87.6551 7.51 86.5505 8.52254 85.2925 10.3328L81.9788 8.03161C83.9731 5.14743 86.5505 3.61328 89.7108 3.61328C94.0985 3.61328 97.1054 6.37474 97.1054 9.81122C97.1054 12.4499 96.6145 14.1989 93.3007 17.4513Z" fill="#FF404E"/>
<rect x="125" y="4" width="45" height="22" rx="11" fill="#3617CE"/>
<path d="M141.918 13.6236V14.6872H146.742V16.0698H135.372V14.6872H140.206V13.6236H136.745V9.36464H145.379V10.7231H138.485V12.2555H145.442V13.6236H141.918ZM141.023 16.6885C143.726 16.6885 145.35 17.5104 145.36 18.9896C145.35 20.4448 143.726 21.2714 141.023 21.2762C138.307 21.2714 136.668 20.4448 136.668 18.9896C136.668 17.5104 138.307 16.6885 141.023 16.6885ZM141.023 19.942C142.715 19.9468 143.605 19.6374 143.61 18.9896C143.605 18.3467 142.715 18.018 141.023 18.018C139.302 18.018 138.437 18.3467 138.447 18.9896C138.437 19.6374 139.302 19.9468 141.023 19.942ZM157.343 8.82804V12.328H159.016V13.7638H157.343V17.989H155.593V8.82804H157.343ZM152.122 9.70787H153.863V16.0069H147.839V9.70787H149.57V11.511H152.122V9.70787ZM149.57 14.6388H152.122V12.8501H149.57V14.6388ZM149.27 17.0511H151.011V19.6374H157.788V21.0442H149.27V17.0511Z" fill="white"/>
</svg>
