<svg width="10" height="10" viewBox="0 0 10 10" fill="none" xmlns="http://www.w3.org/2000/svg">
<path d="M1.48047 2.65363L1.55273 2.65753H1.55762L1.70801 2.68781C1.85452 2.73208 1.98696 2.81703 2.08789 2.93488C2.22233 3.09186 2.29083 3.29487 2.28027 3.50128C2.26971 3.70768 2.18001 3.90181 2.03027 4.04425C1.91806 4.15096 1.77883 4.22307 1.62891 4.25226L1.47559 4.26691H1.46582C1.25195 4.26697 1.04684 4.18171 0.895508 4.03058C0.744196 3.87939 0.659322 3.67417 0.65918 3.46027C0.659118 3.24645 0.743468 3.04128 0.894531 2.88995C1.04569 2.7386 1.25094 2.65382 1.46484 2.65363H1.48047ZM8.77441 2.88898L8.82227 2.89093L8.82812 2.89191L8.93066 2.91144C9.03142 2.94083 9.12299 2.99767 9.19434 3.07648C9.28934 3.1815 9.3418 3.31865 9.3418 3.46027C9.34174 3.60174 9.28922 3.73813 9.19434 3.84308C9.09942 3.948 8.96888 4.0144 8.82812 4.02863H8.82227L8.77441 4.03156H8.77051L4.03711 4.05597C3.88567 4.05597 3.73992 3.99603 3.63281 3.88898C3.52569 3.78186 3.46582 3.63617 3.46582 3.48468L3.47656 3.37238C3.49854 3.26286 3.55272 3.16155 3.63281 3.08136C3.73978 2.97439 3.88487 2.91356 4.03613 2.91339L8.76953 2.88898H8.77441Z" fill="white" stroke="white" stroke-width="0.2"/>
<path d="M8.75391 6.66284L8.80371 6.66479H8.80859L8.91504 6.6853C9.01875 6.71438 9.11338 6.77088 9.1875 6.84937C9.28628 6.95411 9.3418 7.09135 9.3418 7.23413C9.34167 7.37687 9.28634 7.51423 9.1875 7.6189C9.08868 7.72344 8.95331 7.78857 8.80859 7.80249H8.80371L8.75391 7.80444L8.74902 7.80542V7.80444H1.25098C1.09551 7.80444 0.945244 7.74582 0.833984 7.6394C0.722661 7.53276 0.659312 7.38687 0.65918 7.23413L0.670898 7.12085C0.693974 7.01037 0.750418 6.90794 0.833984 6.82788C0.945243 6.72147 1.09552 6.66284 1.25098 6.66284H8.75391Z" fill="white" stroke="white" stroke-width="0.2"/>
</svg>
