<svg width="30" height="30" viewBox="0 0 30 30" fill="none" xmlns="http://www.w3.org/2000/svg">
<rect x="0.5" y="0.5" width="29" height="29" rx="7.5" fill="#565DA1" fill-opacity="0.1"/>
<rect x="0.5" y="0.5" width="29" height="29" rx="7.5" stroke="#565DA1"/>
<g clip-path="url(#clip0_3345_11921)">
<path fill-rule="evenodd" clip-rule="evenodd" d="M9.55599 18.3057C9.7107 18.3057 9.85907 18.3671 9.96847 18.4765C10.0779 18.5859 10.1393 18.7343 10.1393 18.889V20.4445C10.1393 20.5519 10.2264 20.639 10.3338 20.639H19.6671C19.7187 20.639 19.7681 20.6185 19.8046 20.582C19.8411 20.5456 19.8615 20.4961 19.8615 20.4445V18.889C19.8615 18.7343 19.923 18.5859 20.0324 18.4765C20.1418 18.3671 20.2902 18.3057 20.4449 18.3057C20.5996 18.3057 20.748 18.3671 20.8574 18.4765C20.9668 18.5859 21.0282 18.7343 21.0282 18.889V20.4445C21.0282 20.8055 20.8848 21.1517 20.6296 21.407C20.3743 21.6623 20.0281 21.8057 19.6671 21.8057H10.3338C9.97278 21.8057 9.62657 21.6623 9.37132 21.407C9.11606 21.1517 8.97266 20.8055 8.97266 20.4445V18.889C8.97266 18.7343 9.03411 18.5859 9.14351 18.4765C9.25291 18.3671 9.40128 18.3057 9.55599 18.3057ZM14.0189 18.21C13.8258 18.2105 13.6395 18.1384 13.497 18.0081C13.3545 17.8777 13.2662 17.6985 13.2497 17.5061C13.1315 16.143 13.1107 14.7732 13.1874 13.4072C12.9952 13.3965 12.8031 13.384 12.6111 13.3699L11.4522 13.2851C11.3501 13.2776 11.2518 13.2438 11.1667 13.1869C11.0817 13.13 11.0128 13.0519 10.967 12.9605C10.9211 12.869 10.8998 12.7672 10.9051 12.665C10.9104 12.5628 10.9421 12.4637 10.9972 12.3774C11.8238 11.0852 12.8879 9.96142 14.1332 9.06565L14.5975 8.73199C14.7151 8.64788 14.8559 8.60266 15.0004 8.60266C15.1449 8.60266 15.2858 8.64788 15.4033 8.73199L15.8677 9.06643C17.1129 9.96196 18.177 11.0855 19.0037 12.3774C19.0587 12.4637 19.0905 12.5628 19.0958 12.665C19.1011 12.7672 19.0798 12.869 19.0339 12.9605C18.988 13.0519 18.9192 13.13 18.8341 13.1869C18.7491 13.2438 18.6507 13.2776 18.5487 13.2851L17.3898 13.3699C17.1979 13.3839 17.0061 13.3961 16.8142 13.4064C16.892 14.773 16.8702 16.1427 16.7504 17.5053C16.734 17.6977 16.646 17.877 16.5036 18.0075C16.3613 18.138 16.1751 18.2103 15.982 18.21H14.0189Z" fill="#565DA1"/>
</g>
<defs>
<clipPath id="clip0_3345_11921">
<rect width="14" height="14" fill="white" transform="translate(8 8)"/>
</clipPath>
</defs>
</svg>
