<svg width="14" height="14" viewBox="0 0 14 14" fill="none" xmlns="http://www.w3.org/2000/svg">
<g clip-path="url(#clip0_3682_4509)">
<path d="M12.7276 12.7281L9.9639 9.96438M9.9639 9.96438C10.4366 9.49164 10.8116 8.93041 11.0675 8.31273C11.3233 7.69506 11.455 7.03304 11.455 6.36448C11.455 5.69591 11.3233 5.03389 11.0675 4.41622C10.8116 3.79855 10.4366 3.23732 9.9639 2.76457C9.49115 2.29182 8.92992 1.91682 8.31224 1.66097C7.69457 1.40512 7.03255 1.27344 6.36399 1.27344C5.69542 1.27344 5.03341 1.40512 4.41573 1.66097C3.79806 1.91682 3.23683 2.29182 2.76408 2.76457C1.80932 3.71932 1.27295 5.01425 1.27295 6.36448C1.27295 7.7147 1.80932 9.00963 2.76408 9.96438C3.71883 10.9191 5.01376 11.4555 6.36399 11.4555C7.71422 11.4555 9.00914 10.9191 9.9639 9.96438Z" stroke="white" stroke-width="1.5" stroke-linecap="round" stroke-linejoin="round"/>
</g>
<defs>
<clipPath id="clip0_3682_4509">
<rect width="14" height="14" fill="white"/>
</clipPath>
</defs>
</svg>
