<svg width="22" height="22" viewBox="0 0 22 22" fill="none" xmlns="http://www.w3.org/2000/svg">
<path d="M7.33203 19.25C6.82786 19.25 6.39642 19.0706 6.0377 18.7119C5.67898 18.3532 5.49931 17.9214 5.4987 17.4167V15.5833H3.66536C3.1612 15.5833 2.72975 15.404 2.37103 15.0453C2.01231 14.6865 1.83264 14.2548 1.83203 13.75V10.0833C1.83203 9.30417 2.09939 8.65119 2.63411 8.12442C3.16884 7.59764 3.81814 7.33394 4.58203 7.33333H17.4154C18.1945 7.33333 18.8478 7.59703 19.3752 8.12442C19.9026 8.65181 20.166 9.30478 20.1654 10.0833V13.75C20.1654 14.2542 19.986 14.6859 19.6273 15.0453C19.2686 15.4046 18.8368 15.5839 18.332 15.5833H16.4987V17.4167C16.4987 17.9208 16.3193 18.3526 15.9606 18.7119C15.6019 19.0713 15.1701 19.2506 14.6654 19.25H7.33203ZM16.4987 6.41667H5.4987V4.58333C5.4987 4.07917 5.67836 3.64772 6.0377 3.289C6.39703 2.93028 6.82848 2.75061 7.33203 2.75H14.6654C15.1695 2.75 15.6013 2.92967 15.9606 3.289C16.3199 3.64833 16.4993 4.07978 16.4987 4.58333V6.41667ZM16.4987 11.4583C16.7584 11.4583 16.9763 11.3703 17.1523 11.1943C17.3283 11.0183 17.416 10.8008 17.4154 10.5417C17.4148 10.2826 17.3268 10.065 17.1514 9.889C16.976 9.713 16.7584 9.625 16.4987 9.625C16.239 9.625 16.0214 9.713 15.846 9.889C15.6706 10.065 15.5826 10.2826 15.582 10.5417C15.5814 10.8008 15.6694 11.0186 15.846 11.1953C16.0226 11.3719 16.2402 11.4596 16.4987 11.4583ZM7.33203 17.4167H14.6654V13.75H7.33203V17.4167Z" fill="#565DA1"/>
</svg>
