<svg width="22" height="22" viewBox="0 0 22 22" fill="none" xmlns="http://www.w3.org/2000/svg">
<path d="M12.9875 2.16222C13.5386 2.20952 14.0545 2.45262 14.4417 2.84749C14.829 3.24236 15.0621 3.76288 15.0987 4.31475C15.2017 5.74547 15.3103 7.97169 15.3103 10.9999C15.3103 14.7081 15.2288 17.3933 15.1706 18.8352C15.1571 19.1631 15.0169 19.473 14.7794 19.6995C14.5419 19.926 14.2258 20.0515 13.8976 20.0496H8.63071H3.3681C3.0389 20.0512 2.72193 19.925 2.48399 19.6975C2.24604 19.47 2.10569 19.159 2.09252 18.83C2.03434 17.3545 1.95117 14.6125 1.95117 10.9999C1.95117 8.04452 2.06235 5.7933 2.16664 4.33458C2.20282 3.77799 2.43708 3.25275 2.82703 2.85395C3.21698 2.45515 3.73682 2.20915 4.29246 2.16049C5.44091 2.05448 6.98841 1.9502 8.63071 1.9502C10.2816 1.9502 11.8369 2.05534 12.9875 2.16222Z" fill="#565EA1" fill-opacity="0.2"/>
<path d="M13.8989 20.0495H18.6694C18.9993 20.051 19.317 19.9245 19.5556 19.6966C19.7941 19.4686 19.9349 19.1571 19.9484 18.8274C19.9941 17.669 20.0519 15.8108 20.0519 13.8009C20.0519 12.2655 19.9846 10.8813 19.9118 9.83544C19.8308 8.66329 18.9224 7.74194 17.7498 7.6605C16.9214 7.6028 16.0915 7.56817 15.2611 7.55664C15.2913 8.55814 15.3115 9.70573 15.3115 10.9998C15.3115 14.7081 15.2297 17.3932 15.1719 18.8352C15.1584 19.1631 15.0182 19.4729 14.7807 19.6994C14.5432 19.926 14.2271 20.0515 13.8989 20.0495Z" fill="white"/>
<path d="M10.7495 20.0495H6.5125C6.48629 19.3315 6.47422 18.6132 6.4763 17.8948C6.4763 16.9389 6.49139 16.2594 6.50992 15.7853C6.53534 15.1441 6.89345 14.602 7.52909 14.5141C7.8135 14.4748 8.17549 14.4473 8.63099 14.4473C9.0865 14.4473 9.44805 14.4748 9.7329 14.5141C10.3685 14.602 10.7266 15.1441 10.7521 15.7853C10.7706 16.2594 10.7857 16.9389 10.7857 17.8948C10.7878 18.6132 10.7757 19.3315 10.7495 20.0495Z" fill="white"/>
<path d="M12.9875 2.16222C13.5386 2.20952 14.0545 2.45262 14.4417 2.84749C14.829 3.24236 15.0621 3.76288 15.0987 4.31475C15.2017 5.74547 15.3103 7.97169 15.3103 10.9999C15.3103 14.7081 15.2288 17.3933 15.1706 18.8352C15.1571 19.1631 15.0169 19.473 14.7794 19.6995C14.5419 19.926 14.2258 20.0515 13.8976 20.0496H8.63071H3.3681C3.0389 20.0512 2.72193 19.925 2.48399 19.6975C2.24604 19.47 2.10569 19.159 2.09252 18.83C2.03434 17.3545 1.95117 14.6125 1.95117 10.9999C1.95117 8.04452 2.06235 5.7933 2.16664 4.33458C2.20282 3.77799 2.43708 3.25275 2.82703 2.85395C3.21698 2.45515 3.73682 2.20915 4.29246 2.16049C5.44091 2.05448 6.98841 1.9502 8.63071 1.9502C10.2816 1.9502 11.8369 2.05534 12.9875 2.16222Z" stroke="#565EA1" stroke-width="1.5" stroke-linecap="round" stroke-linejoin="round"/>
<path d="M13.8989 20.0495H18.6694C18.9993 20.051 19.317 19.9245 19.5556 19.6966C19.7941 19.4686 19.9349 19.1571 19.9484 18.8274C19.9941 17.669 20.0519 15.8108 20.0519 13.8009C20.0519 12.2655 19.9846 10.8813 19.9118 9.83544C19.8308 8.66329 18.9224 7.74194 17.7498 7.6605C16.9214 7.6028 16.0915 7.56817 15.2611 7.55664" stroke="#565EA1" stroke-width="1.5" stroke-linecap="round" stroke-linejoin="round"/>
<path d="M10.7495 20.0497L10.7521 20.0045C10.7706 19.5304 10.7857 18.8508 10.7857 17.895C10.7857 16.9392 10.7706 16.2596 10.7521 15.7856C10.7266 15.1443 10.3685 14.6022 9.7329 14.5143C9.36755 14.467 8.99939 14.4447 8.63099 14.4475C8.2626 14.4447 7.89444 14.467 7.52908 14.5143C6.89345 14.6022 6.53534 15.1443 6.50992 15.7856C6.49139 16.2596 6.4763 16.9392 6.4763 17.895C6.47422 18.6134 6.48629 19.3318 6.5125 20.0497" stroke="#565EA1" stroke-width="1.5" stroke-linecap="round" stroke-linejoin="round"/>
<path d="M6.25928 5.8291V6.69098" stroke="#565EA1" stroke-width="1.5" stroke-linecap="round" stroke-linejoin="round"/>
<path d="M6.25928 10.5693V11.4312" stroke="#565EA1" stroke-width="1.5" stroke-linecap="round" stroke-linejoin="round"/>
<path d="M11.001 5.8291V6.69098" stroke="#565EA1" stroke-width="1.5" stroke-linecap="round" stroke-linejoin="round"/>
<path d="M11.001 10.5693V11.4312" stroke="#565EA1" stroke-width="1.5" stroke-linecap="round" stroke-linejoin="round"/>
</svg>
