<svg width="22" height="22" viewBox="0 0 22 22" fill="none" xmlns="http://www.w3.org/2000/svg">
<g clip-path="url(#clip0_3731_12933)">
<path d="M1.57398 17.5184C1.7437 19.027 2.94898 20.2323 4.45755 20.4067C6.16098 20.6031 7.92098 20.7996 9.72184 20.7996C11.5227 20.7996 13.2843 20.6031 14.9877 20.4067C15.723 20.3197 16.4074 19.9873 16.9304 19.4632C17.4534 18.9391 17.7843 18.2539 17.8697 17.5184C18.0583 15.8229 18.2421 14.0707 18.2421 12.2777C18.2421 10.4863 18.0598 8.73415 17.8697 7.03857C17.7846 6.30283 17.4538 5.61729 16.9308 5.09286C16.4078 4.56843 15.7232 4.23578 14.9877 4.14872C13.2843 3.95072 11.5243 3.75586 9.72341 3.75586C7.92255 3.75586 6.16098 3.95072 4.45755 4.14872C3.72199 4.23538 3.03718 4.56766 2.51389 5.0918C1.9906 5.61595 1.65944 6.3013 1.57398 7.037C1.38541 8.73415 1.20312 10.4863 1.20312 12.2777C1.20312 14.0691 1.38541 15.8229 1.57398 17.5184Z" fill="#3617CE" fill-opacity="0.1"/>
<path d="M8.46941 3.78711C7.10227 3.84997 5.76341 3.99768 4.45755 4.14854C3.72152 4.23534 3.03634 4.56807 2.513 5.09285C1.98965 5.61762 1.65878 6.3037 1.57398 7.03997C1.38541 8.73397 1.20312 10.4861 1.20312 12.2775C1.20312 14.069 1.38541 15.8227 1.57398 17.5183C1.7437 19.0268 2.94898 20.2321 4.45755 20.4065C6.16098 20.603 7.92098 20.7994 9.72184 20.7994C11.5227 20.7994 13.2843 20.603 14.9877 20.4065C15.723 20.3195 16.4074 19.9871 16.9304 19.463C17.4534 18.9389 17.7843 18.2537 17.8697 17.5183C18.0189 16.2753 18.13 15.028 18.2028 13.7783" stroke="#3617CE" stroke-width="1.7" stroke-linecap="round" stroke-linejoin="round"/>
<path d="M15.8849 2.04742L10.0957 8.61599L9.30216 12.3481C9.1733 12.9484 9.8003 13.5173 10.3864 13.3318L14.0982 12.1658L20.0806 5.87227C21.0737 4.82728 20.8993 3.07828 19.6972 2.01442C18.5233 0.977275 16.8167 0.991418 15.8849 2.04742Z" fill="white"/>
<path d="M15.8849 2.04742L10.0957 8.61599L9.30216 12.3481C9.1733 12.9484 9.8003 13.5173 10.3864 13.3318L14.0982 12.1658L20.0806 5.87228C21.0737 4.82728 20.8993 3.07828 19.6972 2.01442C18.5233 0.977275 16.8167 0.991418 15.8849 2.04742Z" stroke="#3617CE" stroke-width="1.7" stroke-linecap="round" stroke-linejoin="round"/>
</g>
<defs>
<clipPath id="clip0_3731_12933">
<rect width="22" height="22" fill="white"/>
</clipPath>
</defs>
</svg>
