<svg width="24" height="24" viewBox="0 0 24 24" fill="none" xmlns="http://www.w3.org/2000/svg">
<g clip-path="url(#clip0_3593_4083)">
<path d="M12 0C11.7384 0 11.4816 0.00200014 11.2296 0.00600014L10.4904 0.0264001L10.1316 0.0420001L9.4368 0.0828L8.7732 0.138C3.0312 0.6948 0.6948 3.0312 0.138 8.7732L0.0828 9.4368L0.0420001 10.1316C0.0356001 10.2492 0.0304001 10.3688 0.0264001 10.4904L0.00600014 11.2296L0.00119991 11.6112L0 12C0 12.2616 0.00200014 12.5184 0.00600014 12.7704L0.0264001 13.5096L0.0420001 13.8684L0.0828 14.5632L0.138 15.2268C0.6948 20.9688 3.0312 23.3052 8.7732 23.862L9.4368 23.9172L10.1316 23.958C10.2492 23.9644 10.3688 23.9696 10.4904 23.9736L11.2296 23.994L12 24L12.7704 23.994L13.5096 23.9736L13.8684 23.958L14.5632 23.9172L15.2268 23.862C20.9688 23.3052 23.3052 20.9688 23.862 15.2268L23.9172 14.5632L23.958 13.8684C23.9644 13.7508 23.9696 13.6312 23.9736 13.5096L23.994 12.7704L24 12L23.994 11.2296L23.9736 10.4904L23.958 10.1316L23.9172 9.4368L23.862 8.7732C23.3052 3.0312 20.9688 0.6948 15.2268 0.138L14.5632 0.0828L13.8684 0.0420001L13.5096 0.0264001L12.7704 0.00600014L12.3888 0.00119991L12 0Z" fill="white"/>
<path d="M12 0C11.7384 0 11.4816 0.00200014 11.2296 0.00600014L10.4904 0.0264001L10.1316 0.0420001L9.4368 0.0828L8.7732 0.138C3.0312 0.6948 0.6948 3.0312 0.138 8.7732L0.0828 9.4368L0.0420001 10.1316C0.0356001 10.2492 0.0304001 10.3688 0.0264001 10.4904L0.00600014 11.2296L0.00119991 11.6112L0 12C0 12.2616 0.00200014 12.5184 0.00600014 12.7704L0.0264001 13.5096L0.0420001 13.8684L0.0828 14.5632L0.138 15.2268C0.6948 20.9688 3.0312 23.3052 8.7732 23.862L9.4368 23.9172L10.1316 23.958C10.2492 23.9644 10.3688 23.9696 10.4904 23.9736L11.2296 23.994L12 24L12.7704 23.994L13.5096 23.9736L13.8684 23.958L14.5632 23.9172L15.2268 23.862C20.9688 23.3052 23.3052 20.9688 23.862 15.2268L23.9172 14.5632L23.958 13.8684C23.9644 13.7508 23.9696 13.6312 23.9736 13.5096L23.994 12.7704L24 12L23.994 11.2296L23.9736 10.4904L23.958 10.1316L23.9172 9.4368L23.862 8.7732C23.3052 3.0312 20.9688 0.6948 15.2268 0.138L14.5632 0.0828L13.8684 0.0420001L13.5096 0.0264001L12.7704 0.00600014L12.3888 0.00119991L12 0ZM14.7516 8.7516C14.9676 8.53638 15.2573 8.41143 15.5621 8.40213C15.8668 8.39282 16.1637 8.49986 16.3923 8.7015C16.621 8.90314 16.7644 9.18426 16.7933 9.48777C16.8222 9.79128 16.7345 10.0944 16.548 10.3356L16.4484 10.4484L11.6484 15.2484C11.4418 15.455 11.1668 15.5791 10.8752 15.5975C10.5836 15.6158 10.2953 15.5271 10.0644 15.348L9.9516 15.2484L7.5516 12.8484C7.33638 12.6325 7.21143 12.3427 7.20213 12.0379C7.19282 11.7332 7.29986 11.4363 7.5015 11.2077C7.70314 10.979 7.98426 10.8356 8.28777 10.8067C8.59128 10.7778 8.89441 10.8655 9.1356 11.052L9.2484 11.1516L10.8 12.702L14.7516 8.7516Z" fill="#3617CE"/>
</g>
<defs>
<clipPath id="clip0_3593_4083">
<rect width="24" height="24" fill="white"/>
</clipPath>
</defs>
</svg>
