<svg width="16" height="16" viewBox="0 0 16 16" fill="none" xmlns="http://www.w3.org/2000/svg">
<path d="M8 10C9.10457 10 10 9.10457 10 8C10 6.89543 9.10457 6 8 6C6.89543 6 6 6.89543 6 8C6 9.10457 6.89543 10 8 10Z" stroke="white" stroke-width="1.2"/>
<path d="M9.17648 1.43727C8.93181 1.33594 8.62114 1.33594 7.99981 1.33594C7.37848 1.33594 7.06781 1.33594 6.82314 1.43727C6.66127 1.50428 6.51418 1.60253 6.39029 1.72642C6.26641 1.8503 6.16815 1.99739 6.10115 2.15927C6.03981 2.30794 6.01515 2.48194 6.00581 2.7346C6.00147 2.91722 5.95088 3.09576 5.85877 3.25351C5.76667 3.41126 5.63605 3.54307 5.47915 3.6366C5.31968 3.72578 5.1402 3.77305 4.9575 3.77399C4.7748 3.77492 4.59484 3.72949 4.43448 3.64194C4.21048 3.52327 4.04848 3.45794 3.88781 3.4366C3.53736 3.39052 3.18295 3.48548 2.90248 3.7006C2.69315 3.8626 2.53715 4.13127 2.22648 4.66927C1.91581 5.20727 1.75981 5.47594 1.72581 5.73927C1.7029 5.91291 1.71443 6.08935 1.75972 6.25853C1.80502 6.42771 1.88321 6.58631 1.98981 6.72527C2.08848 6.85327 2.22648 6.9606 2.44048 7.09527C2.75581 7.29327 2.95848 7.6306 2.95848 8.0026C2.95848 8.3746 2.75581 8.71194 2.44048 8.90927C2.22648 9.0446 2.08781 9.15194 1.98981 9.27994C1.88321 9.41889 1.80502 9.57749 1.75972 9.74667C1.71443 9.91585 1.7029 10.0923 1.72581 10.2659C1.76048 10.5286 1.91581 10.7979 2.22581 11.3359C2.53715 11.8739 2.69248 12.1426 2.90248 12.3046C3.04144 12.4112 3.20003 12.4894 3.36922 12.5347C3.5384 12.58 3.71484 12.5915 3.88848 12.5686C4.04848 12.5473 4.21048 12.4819 4.43448 12.3633C4.59484 12.2757 4.7748 12.2303 4.9575 12.2312C5.1402 12.2322 5.31968 12.2794 5.47915 12.3686C5.80115 12.5553 5.99248 12.8986 6.00581 13.2706C6.01515 13.5239 6.03915 13.6973 6.10115 13.8459C6.16815 14.0078 6.26641 14.1549 6.39029 14.2788C6.51418 14.4027 6.66127 14.5009 6.82314 14.5679C7.06781 14.6693 7.37848 14.6693 7.99981 14.6693C8.62114 14.6693 8.93181 14.6693 9.17648 14.5679C9.33836 14.5009 9.48544 14.4027 9.60933 14.2788C9.73321 14.1549 9.83147 14.0078 9.89848 13.8459C9.95981 13.6973 9.98448 13.5239 9.99381 13.2706C10.0071 12.8986 10.1985 12.5546 10.5205 12.3686C10.6799 12.2794 10.8594 12.2322 11.0421 12.2312C11.2248 12.2303 11.4048 12.2757 11.5651 12.3633C11.7891 12.4819 11.9511 12.5473 12.1111 12.5686C12.2848 12.5915 12.4612 12.58 12.6304 12.5347C12.7996 12.4894 12.9582 12.4112 13.0971 12.3046C13.3071 12.1433 13.4625 11.8739 13.7731 11.3359C14.0838 10.7979 14.2398 10.5293 14.2738 10.2659C14.2967 10.0923 14.2852 9.91585 14.2399 9.74667C14.1946 9.57749 14.1164 9.41889 14.0098 9.27994C13.9111 9.15194 13.7731 9.0446 13.5591 8.90994C13.4031 8.81487 13.2737 8.68176 13.1831 8.52308C13.0925 8.36439 13.0437 8.18531 13.0411 8.0026C13.0411 7.6306 13.2438 7.29327 13.5591 7.09594C13.7731 6.9606 13.9118 6.85327 14.0098 6.72527C14.1164 6.58631 14.1946 6.42771 14.2399 6.25853C14.2852 6.08935 14.2967 5.91291 14.2738 5.73927C14.2391 5.4766 14.0838 5.20727 13.7738 4.66927C13.4625 4.13127 13.3071 3.8626 13.0971 3.7006C12.9582 3.594 12.7996 3.51581 12.6304 3.47052C12.4612 3.42522 12.2848 3.41369 12.1111 3.4366C11.9511 3.45794 11.7891 3.52327 11.5645 3.64194C11.4042 3.72937 11.2244 3.77473 11.0418 3.7738C10.8592 3.77287 10.6799 3.72567 10.5205 3.6366C10.3636 3.54307 10.233 3.41126 10.1409 3.25351C10.0487 3.09576 9.99815 2.91722 9.99381 2.7346C9.98448 2.48127 9.96048 2.30794 9.89848 2.15927C9.83147 1.99739 9.73321 1.8503 9.60933 1.72642C9.48544 1.60253 9.33836 1.50428 9.17648 1.43727Z" stroke="white" stroke-width="1.2"/>
</svg>
