<svg width="24" height="24" viewBox="0 0 24 24" fill="none" xmlns="http://www.w3.org/2000/svg">
<path d="M2.99191 17.7904C3.17948 19.4572 4.51158 20.789 6.17888 20.9817C8.06154 21.1987 10.0067 21.4158 11.9971 21.4158C13.9874 21.4158 15.9343 21.1987 17.817 20.9817C18.6296 20.8856 19.3861 20.5183 19.9641 19.9392C20.5421 19.3601 20.9078 18.603 21.0022 17.7904C21.2106 15.9169 21.4138 13.981 21.4138 11.9999C21.4138 10.0205 21.2124 8.08455 21.0022 6.21109C20.9082 5.39816 20.5426 4.6407 19.9646 4.06125C19.3865 3.4818 18.6299 3.11425 17.817 3.01806C15.9343 2.79928 13.9891 2.58398 11.9988 2.58398C10.0085 2.58398 8.06154 2.79928 6.17888 3.01806C5.36593 3.11381 4.60906 3.48095 4.03071 4.06008C3.45236 4.63921 3.08636 5.39647 2.99191 6.20936C2.7835 8.08455 2.58203 10.0205 2.58203 11.9999C2.58203 13.9792 2.7835 15.9169 2.99191 17.7904Z" fill="#250E97" fill-opacity="0.1"/>
<path d="M21.4138 10.5875V11.9999C21.4138 16.4385 21.4138 18.6579 20.0344 20.0363C18.6568 21.4158 16.4366 21.4158 11.9979 21.4158C7.55927 21.4158 5.33995 21.4158 3.96052 20.0363C2.58203 18.6588 2.58203 16.4385 2.58203 11.9999C2.58203 7.56123 2.58203 5.3419 3.96052 3.96247C5.34089 2.58398 7.55927 2.58398 11.9979 2.58398H13.4103" stroke="#250E97" stroke-width="1.5" stroke-linecap="round"/>
<path d="M18.5894 8.23352C20.1495 8.23352 21.4142 6.96883 21.4142 5.40875C21.4142 3.84868 20.1495 2.58398 18.5894 2.58398C17.0293 2.58398 15.7646 3.84868 15.7646 5.40875C15.7646 6.96883 17.0293 8.23352 18.5894 8.23352Z" fill="white" stroke="#250E97" stroke-width="1.5"/>
<path d="M7.29004 13.8835L9.4491 11.7245C9.62568 11.548 9.86513 11.4488 10.1148 11.4488C10.3645 11.4488 10.6039 11.548 10.7805 11.7245L12.2739 13.2178C12.4504 13.3944 12.6899 13.4935 12.9396 13.4935C13.1893 13.4935 13.4287 13.3944 13.6053 13.2178L16.7059 10.1172M16.7059 10.1172V12.4712M16.7059 10.1172H14.352" stroke="#250E97" stroke-width="1.5" stroke-linecap="round" stroke-linejoin="round"/>
</svg>
