<svg width="13" height="12" viewBox="0 0 13 12" fill="none" xmlns="http://www.w3.org/2000/svg">
<path fill-rule="evenodd" clip-rule="evenodd" d="M7.17161 8.64768C7.03766 8.78159 6.85601 8.85682 6.66661 8.85682C6.47721 8.85682 6.29556 8.78159 6.16161 8.64768L2.1209 4.60697C2.05267 4.54108 1.99826 4.46226 1.96082 4.37512C1.92339 4.28797 1.90368 4.19424 1.90286 4.0994C1.90203 4.00456 1.92011 3.9105 1.95602 3.82272C1.99194 3.73493 2.04498 3.65518 2.11204 3.58812C2.17911 3.52105 2.25886 3.46801 2.34664 3.4321C2.43443 3.39618 2.52848 3.37811 2.62332 3.37893C2.71817 3.37976 2.8119 3.39946 2.89904 3.4369C2.98619 3.47433 3.065 3.52875 3.1309 3.59697L6.66661 7.13268L10.2023 3.59697C10.337 3.46686 10.5175 3.39486 10.7048 3.39649C10.892 3.39812 11.0712 3.47324 11.2036 3.60567C11.3361 3.7381 11.4112 3.91726 11.4128 4.10454C11.4144 4.29182 11.3424 4.47225 11.2123 4.60697L7.17161 8.64768Z" fill="#3617CE"/>
</svg>
