<svg width="43" height="42" viewBox="0 0 43 42" fill="none" xmlns="http://www.w3.org/2000/svg">
<rect x="0.5" width="42" height="42" rx="12" fill="#565DA1" fill-opacity="0.1"/>
<g opacity="0.5">
<path fill-rule="evenodd" clip-rule="evenodd" d="M13.722 25.7223C13.943 25.7223 14.155 25.8101 14.3113 25.9663C14.4675 26.1226 14.5553 26.3346 14.5553 26.5556V28.7778C14.5553 28.9311 14.6798 29.0556 14.8331 29.0556H28.1664C28.2401 29.0556 28.3108 29.0263 28.3629 28.9742C28.415 28.9221 28.4442 28.8515 28.4442 28.7778V26.5556C28.4442 26.3346 28.532 26.1226 28.6883 25.9663C28.8446 25.8101 29.0565 25.7223 29.2776 25.7223C29.4986 25.7223 29.7105 25.8101 29.8668 25.9663C30.0231 26.1226 30.1109 26.3346 30.1109 26.5556V28.7778C30.1109 29.2935 29.906 29.7881 29.5414 30.1527C29.1767 30.5174 28.6821 30.7223 28.1664 30.7223H14.8331C14.3174 30.7223 13.8228 30.5174 13.4582 30.1527C13.0935 29.7881 12.8887 29.2935 12.8887 28.7778V26.5556C12.8887 26.3346 12.9765 26.1226 13.1327 25.9663C13.289 25.8101 13.501 25.7223 13.722 25.7223ZM20.0976 25.5856C19.8217 25.5863 19.5556 25.4834 19.352 25.2971C19.1485 25.1109 19.0224 24.8549 18.9987 24.58C18.8299 22.6328 18.8002 20.676 18.9098 18.7245C18.6352 18.7091 18.3607 18.6914 18.0864 18.6711L16.4309 18.55C16.2851 18.5394 16.1446 18.491 16.023 18.4097C15.9015 18.3284 15.8032 18.217 15.7377 18.0863C15.6722 17.9556 15.6417 17.8101 15.6493 17.6641C15.6569 17.5181 15.7022 17.3766 15.7809 17.2534C16.9617 15.4073 18.4819 13.8019 20.2609 12.5223L20.9242 12.0456C21.0921 11.9254 21.2933 11.8608 21.4998 11.8608C21.7062 11.8608 21.9075 11.9254 22.0753 12.0456L22.7387 12.5234C24.5175 13.8027 26.0377 15.4077 27.2187 17.2534C27.2974 17.3766 27.3427 17.5181 27.3503 17.6641C27.3578 17.8101 27.3274 17.9556 27.2619 18.0863C27.1964 18.217 27.098 18.3284 26.9765 18.4097C26.855 18.491 26.7145 18.5394 26.5687 18.55L24.9131 18.6711C24.639 18.6911 24.365 18.7086 24.0909 18.7234C24.202 20.6756 24.1709 22.6323 23.9998 24.5789C23.9764 24.8538 23.8505 25.1099 23.6472 25.2963C23.4439 25.4828 23.1779 25.586 22.902 25.5856H20.0976Z" fill="#565DA1"/>
</g>
</svg>
