<svg width="12" height="13" viewBox="0 0 12 13" fill="none" xmlns="http://www.w3.org/2000/svg">
<g clip-path="url(#clip0_3422_2469)">
<g opacity="0.5">
<path d="M4.66602 7.31939C4.76068 7.4745 4.87268 7.61983 5.00202 7.75539C5.37635 8.15223 5.87598 8.408 6.4168 8.47964C6.95761 8.55128 7.5066 8.43441 7.97135 8.14872C8.14513 8.04205 8.30735 7.91094 8.45802 7.75539L10.6173 5.50739C11.5707 4.51405 11.5707 2.90472 10.6173 1.91139C10.3953 1.67615 10.1275 1.48874 9.83039 1.36066C9.53331 1.23257 9.2132 1.1665 8.88968 1.1665C8.56617 1.1665 8.24606 1.23257 7.94898 1.36066C7.6519 1.48874 7.38411 1.67615 7.16202 1.91139L6.68602 2.40672" stroke="#808699" stroke-width="1.3" stroke-linecap="round" stroke-linejoin="round"/>
<path d="M5.31333 10.5934L4.83799 11.0888C4.61589 11.3241 4.34806 11.5116 4.05092 11.6397C3.75378 11.7679 3.43359 11.834 3.10999 11.834C2.7864 11.834 2.46621 11.7679 2.16907 11.6397C1.87193 11.5116 1.60409 11.3241 1.38199 11.0888C0.428659 10.0954 0.428659 8.48543 1.38199 7.49276L3.54199 5.24476C3.76408 5.00952 4.03188 4.82212 4.32896 4.69403C4.62604 4.56595 4.94614 4.49988 5.26966 4.49988C5.59317 4.49988 5.91328 4.56595 6.21036 4.69403C6.50744 4.82212 6.77523 5.00952 6.99733 5.24476C7.12666 5.38032 7.23866 5.52565 7.33333 5.68076" stroke="#808699" stroke-width="1.3" stroke-linecap="round" stroke-linejoin="round"/>
</g>
</g>
<defs>
<clipPath id="clip0_3422_2469">
<rect width="12" height="12" fill="white" transform="translate(0 0.5)"/>
</clipPath>
</defs>
</svg>
