<svg width="18" height="19" viewBox="0 0 18 19" fill="none" xmlns="http://www.w3.org/2000/svg">
<path d="M9 0.5C13.9706 0.5 18 4.52944 18 9.5C18 14.4706 13.9706 18.5 9 18.5C4.02944 18.5 0 14.4706 0 9.5C0 4.52944 4.02944 0.5 9 0.5ZM8.77148 12.9766C8.09663 12.9767 7.54493 13.5292 7.54492 14.2041C7.54492 14.879 8.09663 15.4315 8.77148 15.4316C9.44648 15.4316 9.99902 14.8791 9.99902 14.2041C9.99901 13.5291 9.44648 12.9766 8.77148 12.9766ZM8.76562 3.77246C7.45264 3.77247 6.45853 4.41637 5.86328 5.2998C5.56874 5.74162 5.77765 6.34996 6.26855 6.55859C6.64278 6.71172 7.09098 6.6006 7.30566 6.25098C7.5941 5.80325 8.06064 5.42871 8.77832 5.42871C10.3611 5.42895 10.6736 6.90768 10.1152 7.69922C9.58751 8.45399 8.67953 8.95759 8.20703 9.81055C8.03527 10.1173 7.96162 10.443 7.9248 10.7559C7.8637 11.2895 8.29934 11.7499 8.83301 11.75C9.28701 11.75 9.6556 11.4 9.71094 10.9521C9.74775 10.676 9.80251 10.5407 9.89453 10.375C10.275 9.67547 10.9805 9.34388 11.7168 8.25781C12.3795 7.27601 12.1288 5.95667 11.6992 5.25098C11.196 4.4287 10.2077 3.77246 8.76562 3.77246Z" fill="#A3A8CC"/>
</svg>
