<svg width="18" height="18" viewBox="0 0 18 18" fill="none" xmlns="http://www.w3.org/2000/svg">
<path d="M7.80078 2.35022C7.97303 2.35032 8.13796 2.41884 8.25977 2.54065C8.38157 2.66246 8.45009 2.82738 8.4502 2.99963C8.4502 3.17202 8.38166 3.3377 8.25977 3.45959C8.13797 3.58134 7.97299 3.64992 7.80078 3.65002H3.65039V14.3502H14.3506V10.1998C14.3506 10.0276 14.4192 9.86269 14.541 9.74084C14.6628 9.61904 14.8278 9.55052 15 9.55042C15.1724 9.55042 15.3381 9.61895 15.46 9.74084C15.5817 9.86268 15.6503 10.0276 15.6504 10.1998V14.4C15.6504 14.7315 15.5186 15.0494 15.2842 15.2838C15.0498 15.5182 14.7319 15.65 14.4004 15.65H3.60059C3.26911 15.65 2.95121 15.5182 2.7168 15.2838C2.48238 15.0494 2.35059 14.7315 2.35059 14.4V3.60022L2.35645 3.4762C2.38491 3.19014 2.51174 2.92148 2.7168 2.71643C2.95122 2.48201 3.26907 2.35022 3.60059 2.35022H7.80078ZM15 2.35022L15.127 2.36194C15.1687 2.37014 15.2095 2.38277 15.249 2.39905C15.328 2.43162 15.4005 2.47935 15.4609 2.53967L15.541 2.63831C15.6111 2.74344 15.6498 2.86752 15.6504 2.99573V6.60022C15.6503 6.77245 15.5817 6.93737 15.46 7.0592C15.3381 7.1811 15.1724 7.24963 15 7.24963C14.8278 7.24953 14.6628 7.18101 14.541 7.0592C14.4192 6.93736 14.3506 6.77249 14.3506 6.60022V4.56897L8.26074 10.6598C8.20038 10.7201 8.12865 10.7687 8.0498 10.8014C7.97097 10.834 7.88611 10.8511 7.80078 10.8512C7.71546 10.8512 7.6306 10.834 7.55176 10.8014C7.4728 10.7687 7.40027 10.7202 7.33984 10.6598C7.2796 10.5994 7.23185 10.5276 7.19922 10.4489C7.16656 10.3699 7.14941 10.2852 7.14941 10.1998L7.16211 10.0729C7.17041 10.0312 7.18289 9.99023 7.19922 9.95081C7.23189 9.87201 7.27955 9.80021 7.33984 9.73987L13.4316 3.65002H11.4004C11.228 3.65002 11.0623 3.58149 10.9404 3.45959C10.8187 3.33771 10.75 3.17193 10.75 2.99963C10.7501 2.82752 10.8188 2.66243 10.9404 2.54065C11.0623 2.41875 11.228 2.35022 11.4004 2.35022H15Z" fill="#444444" stroke="#444444" stroke-width="0.1"/>
</svg>
