<svg width="16" height="16" viewBox="0 0 16 16" fill="none" xmlns="http://www.w3.org/2000/svg">
<g clip-path="url(#clip0_3335_10352)">
<g opacity="0.5">
<path d="M6.22217 9.09251C6.34839 9.29933 6.49772 9.49311 6.67017 9.67385C7.16929 10.203 7.83545 10.544 8.55654 10.6395C9.27763 10.735 10.0096 10.5792 10.6293 10.1983C10.861 10.0561 11.0773 9.88125 11.2782 9.67385L14.1573 6.67651C15.4284 5.35207 15.4284 3.20629 14.1573 1.88185C13.8612 1.5682 13.5041 1.31832 13.108 1.14754C12.7119 0.976762 12.2851 0.888672 11.8537 0.888672C11.4224 0.888672 10.9956 0.976762 10.5995 1.14754C10.2033 1.31832 9.84629 1.5682 9.55017 1.88185L8.9155 2.54229" stroke="white" stroke-width="1.6" stroke-linecap="round" stroke-linejoin="round"/>
<path d="M7.08476 13.4579L6.45098 14.1183C6.15485 14.4321 5.79774 14.6821 5.40155 14.853C5.00536 15.0238 4.57844 15.112 4.14698 15.112C3.71552 15.112 3.2886 15.0238 2.89242 14.853C2.49623 14.6821 2.13912 14.4321 1.84298 14.1183C0.571871 12.7939 0.571871 10.6472 1.84298 9.32364L4.72298 6.32631C5.0191 6.01266 5.37616 5.76278 5.77227 5.592C6.16837 5.42122 6.59518 5.33313 7.02654 5.33313C7.45789 5.33313 7.8847 5.42122 8.28081 5.592C8.67691 5.76278 9.03397 6.01266 9.33009 6.32631C9.50254 6.50705 9.65187 6.70083 9.77809 6.90764" stroke="white" stroke-width="1.6" stroke-linecap="round" stroke-linejoin="round"/>
</g>
</g>
<defs>
<clipPath id="clip0_3335_10352">
<rect width="16" height="16" fill="white"/>
</clipPath>
</defs>
</svg>
