<svg width="20" height="20" viewBox="0 0 20 20" fill="none" xmlns="http://www.w3.org/2000/svg">
<rect x="2.5" y="3.13916" width="15" height="4.36084" fill="#7C848C"/>
<path d="M14.0652 0.853271V2.20833M5.93481 0.853271V2.20833M1.86963 7.62858H18.1304M1.86963 4.91846C1.86963 4.37938 2.08378 3.86238 2.46496 3.4812C2.84615 3.10001 3.36314 2.88586 3.90222 2.88586H16.0978C16.6369 2.88586 17.1539 3.10001 17.535 3.4812C17.9162 3.86238 18.1304 4.37938 18.1304 4.91846V17.114C18.1304 17.6531 17.9162 18.1701 17.535 18.5513C17.1539 18.9325 16.6369 19.1466 16.0978 19.1466H3.90222C3.36314 19.1466 2.84615 18.9325 2.46496 18.5513C2.08378 18.1701 1.86963 17.6531 1.86963 17.114V4.91846Z" stroke="#7C848C" stroke-width="1.5" stroke-linecap="round" stroke-linejoin="round"/>
<path d="M5.93457 13.0488H7.96716V15.0814H5.93457V13.0488Z" stroke="#7C848C" stroke-width="1.5" stroke-linecap="round" stroke-linejoin="round"/>
</svg>
